<?xml version="1.0" encoding="UTF-8"?>
<svg xmlns="http://www.w3.org/2000/svg" xmlns:xlink="http://www.w3.org/1999/xlink" version="1.2" >
<font id="Burford Inline">
<font-face  font-family="Burford" units-per-em="1000" ascent="730" descent="-270" font-style="normal" font-weight="400" font-stretch="normal" cap-height="900" x-height="450" underline-position="-75" underline-thickness="50" />
<missing-glyph  horiz-adv-x="427" d="" />
<glyph glyph-name="NULL" d="" />
<glyph glyph-name="CR" unicode="&#xd;" horiz-adv-x="299" d="" />
<glyph glyph-name="space" unicode="&#x20;" horiz-adv-x="299" d="" />
<glyph glyph-name="exclam" unicode="&#x21;" horiz-adv-x="382" d="M120 158 L208 158 C212 158 215 161 215 165 L236 522 C236 525 234 529 229 529 L98 529 C97 529 95 528 93 526 C92 525 91 523 91 522 L113 165 C113 161 116 158 120 158 L120 158 Z M167 -7 C207 -7 238 25 238 64 C238 103 207 134 167 134 C129 134 98 103 98 64 C98 25 129 -7 167 -7 L167 -7 Z M158 481 C158 483 161 484 163 484 C166 484 168 483 168 481 L168 207 C168 204 166 202 163 202 C161 202 158 204 158 207 L158 481 Z M166 82 C179 82 188 72 188 61 C188 48 179 39 166 39 C155 39 145 48 145 61 C145 72 155 82 166 82 L166 82 Z M166 48 C174 48 179 54 179 61 C179 66 174 72 166 72 C161 72 156 66 156 61 C156 54 161 48 166 48 L166 48 Z " />
<glyph glyph-name="quotedbl" unicode="&#x22;" horiz-adv-x="289" d="M146 549 L99 549 C97 549 95 548 93 546 C92 544 91 542 91 541 L101 470 C102 466 104 465 108 465 L137 465 C141 465 142 466 143 470 L153 541 L153 542 C153 545 149 549 146 549 L146 549 Z M160 546 C159 544 158 542 158 541 L167 470 C168 466 171 465 175 465 L202 465 C207 465 209 466 210 470 L219 541 L219 542 C219 545 217 549 212 549 L165 549 C163 549 161 548 160 546 L160 546 Z M182 526 C182 529 184 532 187 532 C190 532 192 529 192 526 L192 491 C192 488 190 486 187 486 C184 486 182 488 182 491 L182 526 Z M124 491 C124 488 123 486 120 486 C117 486 115 488 115 491 L115 526 C115 529 117 532 120 532 C123 532 124 529 124 526 L124 491 Z " />
<glyph glyph-name="numbersign" unicode="&#x23;" horiz-adv-x="605" d="M242 104 L321 104 L306 9 C305 6 306 4 307 3 C309 1 311 0 313 0 L405 0 C408 0 410 3 411 6 L427 104 L477 104 C481 104 483 106 484 109 L499 200 C500 203 499 205 497 207 C496 209 493 209 491 209 L445 209 L464 322 L512 322 C516 322 519 325 520 329 L534 420 C534 423 534 424 533 426 C532 427 529 428 527 428 L481 428 L496 520 C496 522 496 524 494 525 C492 527 491 528 489 528 L397 528 C394 528 390 525 390 522 L375 428 L294 428 L311 520 C311 522 310 524 309 525 C307 527 305 528 303 528 L212 528 C209 528 205 525 204 522 L189 428 L149 428 C146 428 142 426 142 423 L127 331 C127 329 127 327 129 325 C131 323 132 322 134 322 L172 322 L154 209 L114 209 C110 209 106 207 106 203 L91 112 C91 110 92 107 93 106 C95 104 97 104 99 104 L136 104 L121 9 C121 6 121 4 123 3 C123 1 125 0 127 0 L218 0 C222 0 226 3 226 6 L242 104 Z M199 151 L182 51 C182 48 180 47 177 47 L176 47 C174 47 172 49 173 52 L188 151 L148 151 C145 151 142 154 142 157 C142 159 145 161 148 161 L190 161 L224 371 L186 371 C183 371 181 372 181 375 C181 379 183 380 186 380 L225 380 L241 480 C242 483 244 484 247 484 C250 483 252 481 252 478 L235 380 L418 380 L433 480 C434 483 437 484 440 484 C442 483 444 481 444 478 L427 380 L474 380 C477 380 480 379 480 375 C480 372 477 371 474 371 L427 371 L392 161 L436 161 C439 161 441 159 441 157 C441 154 439 151 436 151 L390 151 L374 51 C374 48 371 47 370 47 L370 47 C366 47 364 49 365 52 L380 151 L199 151 Z M416 371 L234 371 L200 161 L382 161 L416 371 Z M338 209 L259 209 L277 322 L357 322 L338 209 Z " />
<glyph glyph-name="dollar" unicode="&#x24;" horiz-adv-x="532" d="M235 576 L235 531 C192 524 158 508 132 484 C106 459 92 426 91 388 C90 347 107 312 143 281 C168 260 201 242 245 225 C281 210 304 199 320 185 C334 174 341 161 339 146 C337 130 331 118 320 109 C310 103 295 99 277 99 C263 99 248 104 234 113 C218 122 208 134 199 149 L203 172 C203 175 201 177 200 179 C199 180 198 180 196 180 C195 180 193 179 192 178 L102 107 C99 106 98 103 99 100 C101 93 107 75 123 55 C136 42 150 29 166 20 C186 9 209 0 235 -5 L235 -48 C235 -53 237 -56 242 -56 L311 -56 C314 -56 318 -53 318 -48 L318 -5 C371 2 410 26 434 66 C457 103 460 142 461 164 C462 195 453 220 432 245 C409 274 370 299 313 324 C269 343 240 355 225 366 C210 376 208 385 209 397 C210 406 218 413 227 420 C239 427 254 430 269 430 C274 430 277 429 283 428 C323 422 342 392 346 387 L343 369 C342 366 343 363 346 362 C346 361 348 360 350 360 C351 360 352 361 353 362 L440 419 C444 421 445 425 443 427 C434 446 422 470 402 490 C379 512 351 525 318 532 L318 576 C318 579 314 582 311 582 L242 582 C237 582 235 579 235 576 L235 576 Z M272 490 L272 547 C272 551 275 552 277 552 C279 552 282 551 282 547 L282 490 C333 485 361 453 373 438 C375 435 375 432 373 431 C371 428 369 429 367 431 C354 446 329 476 279 480 C278 480 277 479 277 479 C276 479 275 480 274 481 L270 481 C241 481 212 472 191 458 C174 447 153 427 153 390 C153 336 199 316 261 288 C270 285 279 281 288 277 C332 257 359 239 377 219 C398 198 406 172 403 141 C397 105 383 79 358 61 C333 44 305 40 286 40 L282 40 L282 -22 C282 -26 279 -28 277 -28 C275 -28 272 -26 272 -22 L272 41 C243 44 219 53 205 61 C183 72 166 88 158 104 C157 105 158 108 160 109 C161 111 165 110 166 107 C180 85 223 50 286 50 C313 50 382 59 392 142 C399 194 369 230 285 268 L258 279 C194 308 142 329 142 390 C142 423 158 448 185 466 C208 482 239 490 270 490 L272 490 Z " />
<glyph glyph-name="percent" unicode="&#x25;" horiz-adv-x="823" d="M346 293 C373 321 389 358 389 398 C389 419 386 438 378 455 C370 471 360 485 346 498 C319 522 281 534 240 534 C200 534 162 522 135 498 C122 484 111 470 104 454 C96 437 91 418 91 397 C91 315 158 249 240 249 C280 249 318 264 346 293 L346 293 Z M602 -8 C642 -8 679 8 708 37 C736 65 751 103 751 142 C751 162 748 181 739 199 C732 215 722 229 708 241 C680 265 643 278 602 278 C561 278 525 265 498 241 C484 229 473 215 465 198 C457 180 454 161 454 142 C454 59 521 -8 602 -8 L602 -8 Z M567 524 C567 527 563 531 560 531 L468 531 C465 531 464 529 462 526 L266 -2 C265 -4 265 -6 267 -8 C268 -10 270 -11 273 -11 L363 -11 C366 -11 370 -10 370 -7 L566 521 C567 522 567 523 567 524 L567 524 Z M604 236 C662 236 706 192 706 137 C706 81 662 40 604 40 C545 40 502 81 502 137 C502 192 546 236 604 236 L604 236 Z M166 323 C147 341 136 366 136 392 C136 448 181 492 238 492 C295 492 341 448 341 392 C341 366 330 341 312 323 C292 307 266 297 238 297 C211 297 185 307 166 323 L166 323 Z M604 49 C656 49 696 87 696 137 C696 187 655 226 604 226 C552 226 511 187 511 137 C511 87 551 49 604 49 L604 49 Z M238 483 C186 483 146 443 146 392 C146 369 156 346 173 331 C190 315 213 307 238 307 C264 307 287 315 304 331 C321 346 331 369 331 392 C331 443 291 483 238 483 L238 483 Z M240 356 C218 356 199 375 199 398 C199 408 202 418 210 426 C218 432 229 436 240 436 C252 436 263 432 271 426 C277 419 282 408 282 398 C282 375 263 356 240 356 L240 356 Z M573 169 C580 176 591 180 602 180 C615 180 625 176 633 169 C640 162 645 153 645 142 C645 119 626 100 602 100 C579 100 560 119 560 142 C560 152 565 162 573 169 L573 169 Z M503 477 L338 40 C337 38 336 37 334 37 L332 37 C329 38 329 41 329 44 L493 481 C494 483 498 484 500 483 C503 483 503 480 503 477 L503 477 Z " />
<glyph glyph-name="ampersand" unicode="&#x26;" horiz-adv-x="655" d="M479 112 C494 149 503 194 503 239 L503 330 C503 332 502 335 500 337 C499 337 497 337 496 337 C494 337 493 337 492 336 L381 266 C380 265 378 262 378 260 C378 258 380 256 381 254 L393 246 L393 226 C393 217 392 206 390 197 L256 326 C242 340 232 354 227 369 C223 380 222 391 226 401 C234 418 254 428 279 428 L300 428 C327 428 343 412 351 378 L351 363 L345 346 C344 342 345 339 347 337 C348 336 350 336 351 336 C353 336 354 336 354 337 L456 398 C458 399 459 402 459 405 L459 409 C459 427 456 445 448 459 C440 474 429 488 415 500 C386 522 344 535 294 535 C235 535 189 523 159 501 C128 479 113 446 113 402 C113 363 124 329 152 294 C130 278 115 261 106 241 C96 219 91 194 91 159 C91 106 104 66 129 40 C143 24 163 12 186 4 C212 -5 243 -9 278 -9 L303 -9 C349 -9 389 5 420 30 L428 22 L417 11 C415 9 414 6 416 4 C417 1 420 -1 423 -1 L578 -1 C580 -1 583 1 584 4 C585 6 585 9 582 11 L569 24 L569 25 L562 31 L542 49 L479 112 Z M465 47 C465 46 464 45 462 45 C461 45 459 46 458 47 C458 47 437 66 408 95 C408 94 407 94 407 93 C370 43 313 42 282 41 C279 40 277 40 276 40 L269 40 C218 40 188 60 176 72 C156 91 144 120 143 156 C143 180 150 218 183 255 C199 271 213 281 219 286 C172 340 142 380 169 432 C195 484 241 489 286 489 C345 489 383 465 397 423 C398 421 397 417 395 416 C392 415 389 417 389 420 C371 468 324 479 286 479 C243 479 200 474 178 428 C166 406 166 387 176 363 C184 342 202 319 228 290 C260 254 347 168 406 110 C436 158 439 204 439 255 C439 257 441 260 444 260 C446 260 448 257 448 255 C448 201 446 153 414 104 C444 74 465 54 465 53 C467 51 467 47 465 47 L465 47 Z M226 277 C216 271 153 230 154 156 C155 123 164 97 183 79 C211 52 253 49 276 50 L281 50 C312 51 365 53 398 99 L401 102 C345 158 261 238 226 277 L226 277 Z M291 99 L263 99 C243 99 228 104 218 115 C207 127 200 143 200 166 C200 195 221 212 226 216 L336 110 C322 104 307 99 291 99 L291 99 Z " />
<glyph glyph-name="quotesingle" unicode="&#x27;" horiz-adv-x="222" d="M146 557 L99 557 C97 557 95 556 93 554 C92 553 91 551 91 549 L101 479 C102 474 104 472 108 472 L137 472 C141 472 142 474 143 479 L153 549 L153 550 C153 554 149 557 146 557 L146 557 Z M124 500 C124 497 123 494 120 494 C117 494 115 497 115 500 L115 534 C115 538 117 540 120 540 C123 540 124 538 124 534 L124 500 Z " />
<glyph glyph-name="parenleft" unicode="&#x28;" horiz-adv-x="380" d="M243 -60 C245 -61 246 -62 248 -62 C249 -62 249 -62 250 -61 C252 -61 253 -60 254 -58 L309 29 C311 31 311 34 309 37 C308 38 305 40 303 40 L282 40 C277 45 254 66 231 103 C216 125 203 150 195 175 C183 207 179 239 179 271 C179 303 183 335 195 367 C203 392 216 417 231 441 C254 478 277 501 282 505 L303 505 C305 505 308 506 309 508 C311 511 311 514 309 516 L254 602 C253 604 252 606 250 606 L248 606 C246 606 245 606 243 605 C190 569 149 516 123 446 C96 374 92 308 92 274 C92 239 96 172 123 101 C149 29 190 -25 243 -60 L243 -60 Z M182 479 C208 522 233 540 234 541 C236 542 238 541 240 540 C242 537 241 534 239 533 C238 532 215 514 191 474 C168 435 142 370 142 271 C142 172 171 105 195 66 C221 25 248 6 248 6 C251 4 251 2 250 -1 C248 -3 247 -3 245 -3 C244 -3 243 -3 243 -2 C241 -2 214 18 187 62 C161 101 132 170 132 271 C132 372 159 440 182 479 L182 479 Z " />
<glyph glyph-name="parenright" unicode="&#x29;" horiz-adv-x="380" d="M99 40 C97 40 94 38 92 37 C91 34 91 31 93 29 L148 -58 C149 -60 150 -61 152 -61 C153 -62 153 -62 154 -62 C155 -62 157 -61 158 -60 C212 -25 253 29 279 101 C306 172 310 239 310 274 C310 308 306 374 279 446 C253 516 212 569 158 605 C157 606 155 606 154 606 L152 606 C150 606 149 604 148 602 L93 516 C91 514 91 511 92 508 C94 506 97 505 99 505 L119 505 C123 501 147 478 171 441 C185 417 199 392 207 367 C218 335 223 303 223 271 C223 238 218 207 207 175 C199 150 185 125 171 103 C147 66 123 45 120 40 L99 40 Z M144 6 C144 6 174 25 201 66 C228 106 259 173 259 271 C259 370 230 436 206 474 C180 515 154 532 154 533 C151 534 150 537 152 540 C154 541 157 542 159 541 C160 540 187 522 215 479 C239 440 269 372 269 271 C269 169 237 101 209 61 C180 18 151 -2 149 -3 L147 -3 C145 -3 144 -3 142 -1 C142 2 142 4 144 6 L144 6 Z " />
<glyph glyph-name="asterisk" unicode="&#x2a;" horiz-adv-x="303" d="M230 523 L213 549 C212 551 210 551 209 551 L207 551 C205 551 204 551 202 551 L183 538 L183 560 C183 564 181 568 177 568 L146 568 C142 568 139 564 139 560 L139 538 L121 551 C119 551 118 552 116 552 C115 552 112 551 110 549 L93 523 C90 521 91 517 95 514 L122 495 L95 476 C91 474 90 470 92 466 L110 441 C111 440 113 439 115 438 L116 438 C117 438 119 439 120 440 L139 452 L139 429 C139 425 142 423 146 423 L177 423 C181 423 183 425 183 429 L183 451 L202 439 C203 438 205 438 207 438 C209 438 211 439 212 440 L230 465 C233 469 232 474 228 476 L200 495 L228 513 C232 516 233 520 230 523 L230 523 Z M203 517 L171 495 L202 473 C205 471 205 468 204 465 C203 465 201 465 200 465 C199 465 199 465 198 465 L166 485 L166 448 C166 446 164 444 161 444 C159 444 157 446 157 448 L157 486 L125 465 C124 465 123 465 123 465 C122 465 120 465 119 466 C118 469 118 472 121 474 L153 496 L121 518 C119 520 118 522 120 525 C122 526 123 527 126 525 L157 505 L157 542 C157 544 159 547 161 547 C164 547 166 544 166 542 L166 504 L198 525 C200 526 202 526 204 524 C206 522 205 519 203 517 L203 517 Z " />
<glyph glyph-name="plus" unicode="&#x2b;" horiz-adv-x="368" d="M159 173 L231 173 C235 173 237 176 237 180 L237 235 L291 235 C294 235 297 237 297 241 L297 311 C297 313 294 317 291 317 L237 317 L237 371 C237 375 235 378 231 378 L159 378 C155 378 151 375 151 371 L151 317 L99 317 C95 317 91 313 91 311 L91 241 C91 237 95 235 99 235 L151 235 L151 180 C151 176 155 173 159 173 L159 173 Z M131 269 C128 269 125 271 125 274 C125 276 128 278 131 278 L189 278 L189 337 C189 339 192 342 194 342 C197 342 199 339 199 337 L199 278 L257 278 C260 278 262 276 262 274 C262 271 260 269 257 269 L199 269 L199 210 C199 208 197 205 194 205 C192 205 189 208 189 210 L189 269 L131 269 Z " />
<glyph glyph-name="comma" unicode="&#x2c;" horiz-adv-x="303" d="M161 134 C122 134 89 103 89 64 C89 48 95 34 104 22 C112 10 124 1 140 -4 L115 -68 C115 -71 115 -73 115 -75 C117 -77 120 -78 122 -78 L176 -78 C179 -78 181 -76 183 -73 L228 46 C230 51 231 57 231 64 C231 103 199 134 161 134 L161 134 Z M183 38 L160 -43 C159 -46 158 -47 155 -47 L154 -47 C151 -46 149 -43 150 -40 L175 41 C175 43 175 44 175 46 C172 41 166 39 161 39 C149 39 140 48 140 61 C140 72 149 82 161 82 L163 82 C174 81 179 76 182 72 C187 65 188 53 183 38 L183 38 Z M162 72 C162 72 161 72 161 72 C155 72 149 66 149 61 C149 54 155 48 161 48 C167 48 173 54 173 61 C173 66 168 71 162 72 L162 72 Z " />
<glyph glyph-name="hyphen" unicode="&#x2d;" horiz-adv-x="367" d="M99 235 L291 235 C294 235 297 237 297 241 L297 311 C297 313 294 317 291 317 L99 317 C95 317 91 313 91 311 L91 241 C91 237 95 235 99 235 L99 235 Z M129 278 L255 278 C257 278 260 276 260 274 C260 271 257 269 255 269 L129 269 C125 269 123 271 123 274 C123 276 125 278 129 278 L129 278 Z " />
<glyph glyph-name="period" unicode="&#x2e;" horiz-adv-x="303" d="M232 64 C232 103 200 134 161 134 C123 134 91 103 91 64 C91 25 123 -7 161 -7 C200 -7 232 25 232 64 L232 64 Z M160 44 C148 44 139 53 139 65 C139 77 148 86 160 86 C172 86 181 77 181 65 C181 53 172 44 160 44 L160 44 Z M160 76 C153 76 148 71 148 65 C148 58 153 53 160 53 C166 53 171 58 171 65 C171 71 166 76 160 76 L160 76 Z " />
<glyph glyph-name="slash" unicode="&#x2f;" horiz-adv-x="463" d="M93 -8 C94 -10 97 -11 99 -11 L190 -11 C192 -11 195 -10 197 -7 L392 521 C392 522 393 523 393 524 C393 527 389 531 386 531 L294 531 C293 531 290 529 288 526 L92 -2 C91 -4 91 -6 93 -8 L93 -8 Z M154 44 L318 481 C320 483 322 484 325 483 C328 483 329 480 328 477 L163 40 C162 38 161 37 159 37 L158 37 C155 38 153 41 154 44 L154 44 Z " />
<glyph glyph-name="zero" unicode="0" horiz-adv-x="565" d="M293 475 C247 475 212 461 188 431 C159 397 144 340 144 263 C144 187 159 131 188 96 C212 66 247 52 293 52 C337 52 372 66 397 96 C426 131 440 187 440 263 C440 340 426 397 397 431 C372 461 337 475 293 475 L293 475 Z M362 131 C346 109 324 99 294 99 C266 99 242 113 226 138 C207 166 198 209 198 263 C198 319 207 362 226 389 C242 414 266 428 294 428 C324 428 346 418 362 397 C380 370 389 327 389 263 C389 200 380 158 362 131 L362 131 Z M380 519 C354 529 326 535 294 535 C261 535 233 529 208 519 C183 508 161 492 144 472 C127 451 114 427 105 397 C96 367 91 332 91 294 L91 233 C91 194 96 160 105 131 C114 101 127 75 144 55 C161 35 183 19 208 9 C233 -3 261 -8 294 -8 C325 -8 354 -3 379 9 C404 19 425 34 443 55 C460 75 473 101 483 130 C491 160 496 194 496 233 L496 294 C496 371 478 431 444 473 C427 493 406 508 380 519 L380 519 Z M293 42 C188 42 135 116 135 263 C135 410 188 485 293 485 C397 485 449 410 449 263 C449 116 397 42 293 42 L293 42 Z " />
<glyph glyph-name="one" unicode="1" horiz-adv-x="343" d="M101 339 L103 339 C104 339 106 340 108 343 L120 362 L153 396 L153 25 L141 12 C139 10 139 7 140 4 C141 2 142 0 145 0 L266 0 C269 0 271 2 272 4 C274 7 273 10 271 12 L258 25 L258 503 L271 516 C273 518 274 521 272 523 C271 525 269 527 266 527 L158 527 C156 527 154 526 152 525 L93 443 C92 442 91 440 91 439 L95 346 C95 343 98 340 101 339 L101 339 Z M130 430 L181 483 C185 488 192 489 199 486 C205 484 209 478 209 471 L209 50 C209 47 207 46 204 46 C201 46 199 47 199 50 L199 471 C199 474 198 476 195 477 C192 479 190 478 188 476 L137 423 C135 422 132 422 130 423 C128 425 128 428 130 430 L130 430 Z " />
<glyph glyph-name="two" unicode="2" horiz-adv-x="510" d="M126 481 C103 455 91 423 92 390 C93 389 94 386 97 385 L196 328 C197 328 198 327 199 327 C200 327 202 328 204 329 C206 331 207 334 205 337 L198 352 C196 373 203 395 218 409 C228 422 243 428 261 428 C285 428 305 416 317 398 C328 382 329 365 321 349 C310 324 284 311 252 294 C225 278 196 263 166 237 C99 182 92 126 95 98 L95 7 C95 4 98 0 102 0 L413 0 C416 0 420 4 420 7 L420 113 C420 115 418 118 415 120 L413 120 C410 120 408 120 408 118 L395 106 L218 106 C219 128 246 144 286 168 C302 178 320 188 337 200 C409 249 444 306 440 371 C436 421 417 462 385 491 C352 520 310 535 260 535 C209 535 159 515 126 481 L126 481 Z M388 358 C385 300 331 265 272 231 L258 223 C205 194 156 166 155 55 L366 55 C369 55 370 54 370 51 C370 47 369 47 366 47 L149 47 C147 47 144 47 144 51 C144 171 200 202 253 232 L267 239 C324 272 375 306 377 358 C379 393 369 426 348 447 C329 468 298 479 260 479 C194 479 166 438 158 413 C157 410 153 408 150 410 C148 411 147 414 148 416 C159 444 188 489 260 489 C301 489 333 477 355 454 C377 431 389 396 388 358 L388 358 Z " />
<glyph glyph-name="three" unicode="3" horiz-adv-x="490" d="M104 528 C99 528 96 525 96 522 L96 415 C96 412 98 409 100 408 C101 408 102 408 104 408 C105 408 106 408 107 410 L121 423 L250 423 L130 315 C129 314 128 313 128 311 L128 220 C128 218 129 217 131 216 C132 215 133 214 135 214 C136 214 137 214 138 215 C146 218 176 228 218 228 L222 228 C253 228 275 214 286 202 C295 192 308 175 308 159 C308 145 303 131 294 120 C281 106 264 99 243 99 C224 99 208 106 196 123 C187 132 183 142 183 145 L184 158 L184 160 C184 163 181 166 177 166 C175 166 175 166 173 165 L94 103 C92 101 90 98 92 95 C104 64 124 37 155 19 C183 2 217 -8 251 -8 C295 -8 337 6 366 31 C383 47 396 64 406 85 C414 107 420 135 420 165 C420 194 413 220 399 243 C389 260 373 276 354 289 C329 307 303 314 294 317 L403 423 C404 423 405 425 405 427 L405 522 C405 525 401 528 397 528 L104 528 Z M149 484 L346 484 C353 484 358 481 362 474 C364 468 363 462 359 457 L192 286 C203 286 221 286 241 283 C286 277 320 260 339 237 C363 207 373 175 370 142 C367 115 352 89 329 70 C306 51 277 41 248 41 C245 41 242 42 239 42 C207 44 177 59 156 83 C154 85 154 88 156 90 C158 92 161 91 162 89 C183 67 210 54 240 51 C269 49 299 59 323 78 C345 95 357 119 360 143 C363 173 353 202 332 230 C287 285 181 275 180 275 C179 275 176 275 175 277 C175 279 175 281 176 283 L351 464 C353 465 353 467 352 470 C351 473 349 474 346 474 L149 474 C147 474 144 476 144 479 C144 482 147 484 149 484 L149 484 Z " />
<glyph glyph-name="four" unicode="4" horiz-adv-x="528" d="M91 238 L91 149 C91 145 95 142 99 142 L290 142 L290 25 L277 12 C275 10 275 7 276 4 C277 2 279 0 282 0 L403 0 C406 0 408 2 408 4 C409 7 409 10 408 12 L395 25 L395 142 L433 142 L446 130 C448 128 449 128 451 128 L454 128 C457 130 458 132 458 135 L458 235 C458 239 456 242 451 242 L395 242 L395 503 L408 516 C409 518 409 521 408 523 C408 525 406 527 403 527 L294 527 C293 527 290 526 289 525 L93 242 C92 241 91 239 91 238 L91 238 Z M136 223 L305 474 C311 483 320 486 330 483 C339 481 346 472 346 463 L346 195 L426 195 C428 195 431 193 431 191 C431 187 428 185 426 185 L346 185 L346 49 C346 47 344 46 341 46 C337 46 336 47 336 49 L336 185 L157 185 C147 185 140 190 135 199 C131 206 132 216 136 223 L136 223 Z M157 195 L336 195 L336 463 C336 468 332 473 328 474 C326 474 325 474 323 474 C320 474 316 473 313 469 L144 218 C142 213 141 208 143 202 C146 199 151 195 157 195 L157 195 Z M290 363 L290 242 L211 242 L290 363 Z " />
<glyph glyph-name="five" unicode="5" horiz-adv-x="496" d="M374 527 L104 527 C101 527 98 525 98 523 C96 521 97 518 98 516 L111 503 L111 243 C111 242 112 239 114 238 C115 237 116 237 118 237 L120 237 C130 239 156 245 214 253 C223 255 233 256 240 256 C268 256 286 248 297 233 C307 220 311 204 311 180 C311 163 310 141 301 124 C292 107 275 99 252 99 C228 99 211 108 199 127 C191 141 188 152 187 156 L191 167 L191 169 C191 174 187 177 183 177 C182 177 180 176 180 175 L95 116 C92 115 91 111 92 108 L93 105 C101 82 111 54 134 31 C161 5 201 -9 256 -9 C286 -9 312 -3 334 8 C354 18 372 31 388 50 C412 82 426 126 426 175 L426 189 C427 228 422 256 411 278 C398 305 376 326 343 340 C322 349 295 353 263 353 C249 353 233 352 217 351 L217 428 L356 428 L370 415 C371 414 372 414 374 414 L377 414 C380 415 381 418 381 421 L381 521 C381 525 378 527 374 527 L374 527 Z M329 474 L163 474 L163 304 C177 309 211 316 258 315 C294 315 320 305 339 287 C362 265 373 231 373 184 C373 137 363 99 342 74 C321 50 293 38 255 38 C217 38 191 54 176 67 C160 82 153 97 153 97 C152 99 153 103 156 104 C158 104 161 104 161 101 C163 99 187 47 255 47 C326 47 363 95 363 184 C363 227 353 260 332 279 C315 296 290 305 258 306 C199 307 161 294 160 294 C158 293 157 293 156 294 C154 294 153 295 153 297 L153 479 C153 482 156 484 158 484 L329 484 C331 484 333 482 333 479 C333 476 331 474 329 474 L329 474 Z " />
<glyph glyph-name="six" unicode="6" horiz-adv-x="526" d="M277 -8 C332 -8 378 9 408 38 C425 53 437 72 445 93 C453 115 457 141 457 167 L457 186 C457 239 440 284 407 315 C390 330 371 342 351 350 C330 357 307 361 282 361 C253 361 226 357 203 351 C204 377 210 396 222 408 C235 421 252 427 275 427 C313 427 326 410 336 396 L333 380 C333 377 334 374 336 372 C337 371 339 371 340 371 C342 371 343 371 344 372 L444 422 C446 423 448 427 447 431 C436 460 416 485 389 503 C358 524 319 535 275 535 L270 535 C213 535 168 520 138 491 C123 476 111 459 104 439 C96 418 91 394 91 369 L91 173 C91 118 106 74 133 44 C164 9 210 -8 272 -8 L277 -8 Z M140 163 L140 331 C140 389 152 431 180 458 C200 479 233 489 274 489 C346 489 370 448 370 447 C371 445 371 442 369 440 C366 439 363 440 362 442 C361 444 339 479 274 479 C235 479 206 470 186 450 C161 427 149 388 149 331 L149 249 C157 264 168 277 183 289 C209 305 242 314 277 314 C326 314 408 296 408 176 C408 132 395 96 369 72 C346 50 313 38 279 38 C239 38 203 51 178 74 C153 98 140 129 140 163 L140 163 Z M399 176 C399 282 332 304 277 304 C213 304 149 273 149 202 L149 163 C149 97 203 47 279 47 C334 47 399 82 399 176 L399 176 Z M218 121 C204 135 198 155 198 178 C198 199 205 219 218 234 C233 248 252 256 275 256 C297 256 317 248 331 234 C345 218 351 199 351 178 C351 157 344 138 330 123 C315 107 295 99 275 99 C252 99 233 106 218 121 L218 121 Z " />
<glyph glyph-name="seven" unicode="7" horiz-adv-x="447" d="M229 4 C230 7 229 10 227 12 L216 25 L377 429 L377 521 C377 525 374 527 370 527 L99 527 C95 527 91 525 91 521 L91 421 C91 418 93 415 96 414 L99 414 C101 414 103 414 104 415 L116 428 L261 428 L94 9 C93 8 94 5 95 4 C97 1 98 0 101 0 L222 0 C225 0 227 2 229 4 L229 4 Z M166 40 C165 38 163 37 161 37 C161 37 161 37 160 38 C158 38 156 41 158 44 L328 460 C329 464 329 466 327 469 C325 473 321 474 318 474 L144 474 C141 474 140 476 140 479 C140 482 141 484 144 484 L318 484 C325 484 331 481 335 475 C338 469 339 463 337 457 L166 40 Z " />
<glyph glyph-name="eight" unicode="8" horiz-adv-x="526" d="M397 313 C414 338 423 369 423 398 C423 419 420 438 412 455 C405 471 393 485 380 498 C352 522 315 535 275 535 C235 535 197 522 169 498 C156 485 144 471 138 455 C129 437 125 418 125 398 C125 370 134 341 149 317 C112 286 91 237 91 178 L91 171 C91 113 107 68 139 38 C169 8 215 -8 275 -8 C303 -8 329 -4 351 4 C374 12 393 23 409 38 C425 53 437 71 445 92 C453 114 457 139 457 166 L457 175 C457 233 436 281 397 313 L397 313 Z M273 36 C235 36 199 48 175 72 C149 98 135 132 135 169 C135 237 178 292 237 308 C197 320 169 353 169 397 C169 452 215 496 272 496 C329 496 374 452 374 397 C374 354 348 320 309 308 C332 302 354 289 371 271 C395 244 408 209 408 169 C408 90 352 36 273 36 L273 36 Z M275 303 L272 303 C237 302 205 288 182 264 C158 239 145 206 145 169 C145 134 158 103 181 80 C204 57 237 46 273 46 C310 46 340 57 363 80 C386 103 397 133 397 169 C397 206 386 239 363 264 C341 289 310 303 275 303 L275 303 Z M273 312 C326 313 364 348 364 397 C364 447 324 486 272 486 C219 486 180 447 180 397 C180 348 218 313 272 312 L273 312 Z M330 122 C315 107 295 99 275 99 C252 99 233 106 218 120 C204 133 198 152 198 175 C198 195 204 215 218 227 C233 241 252 249 275 249 C297 249 317 241 331 227 C345 214 351 195 351 175 C351 155 344 136 330 122 L330 122 Z M233 398 C233 409 237 419 244 426 C252 432 262 437 275 437 C286 437 296 432 304 426 C312 419 316 409 316 398 C316 375 297 356 275 356 C252 356 233 375 233 398 L233 398 Z " />
<glyph glyph-name="nine" unicode="9" horiz-adv-x="526" d="M277 535 L272 535 C217 535 171 519 141 489 C123 474 112 456 104 434 C96 412 91 388 91 360 L91 341 C91 288 109 243 142 212 C158 198 177 185 198 178 C218 170 242 166 267 166 C295 166 322 170 346 176 C345 150 337 132 327 119 C314 106 297 101 275 101 C235 101 223 117 213 132 L216 148 C216 150 215 153 213 155 C211 156 209 156 209 156 C207 156 206 156 205 155 L105 106 C103 104 101 100 102 97 C113 66 132 42 160 24 C191 4 230 -8 275 -8 L278 -8 C336 -8 380 8 411 37 C427 50 438 68 446 89 C453 109 457 133 457 159 L457 354 C457 409 443 453 415 484 C385 518 338 535 277 535 L277 535 Z M408 197 C408 137 395 96 368 69 C346 48 314 38 273 38 C201 38 178 79 176 81 C175 83 176 85 179 87 C180 89 183 88 184 85 C186 84 208 47 273 47 C312 47 341 57 361 77 C386 101 398 141 398 197 L398 274 C376 235 322 213 270 213 C220 213 139 231 139 351 C139 395 152 431 178 456 C200 477 233 489 268 489 C308 489 344 476 370 453 C394 430 408 398 408 364 L408 197 Z M268 479 C212 479 148 446 148 351 C148 245 215 223 270 223 C302 223 333 232 357 246 C376 257 398 277 398 311 L398 364 C398 431 343 479 268 479 L268 479 Z M330 294 C316 279 296 272 274 272 C252 272 232 279 218 294 C204 309 197 329 197 350 C197 370 205 389 218 405 C234 420 253 427 275 427 C296 427 316 421 330 406 C345 392 351 372 351 350 C351 329 344 308 330 294 L330 294 Z " />
<glyph glyph-name="colon" unicode="&#x3a;" horiz-adv-x="303" d="M234 64 C234 103 201 134 162 134 C123 134 92 103 92 64 C92 25 123 -7 162 -7 C201 -7 234 25 234 64 L234 64 Z M161 44 C149 44 140 53 140 65 C140 77 149 86 161 86 C173 86 182 77 182 65 C182 53 173 44 161 44 L161 44 Z M161 76 C154 76 149 71 149 65 C149 58 154 53 161 53 C166 53 173 58 173 65 C173 71 166 76 161 76 L161 76 Z M163 198 C201 198 234 229 234 269 C234 307 201 338 163 338 C124 338 93 307 93 269 C93 229 124 198 163 198 L163 198 Z M161 292 C174 292 183 282 183 270 C183 258 174 249 161 249 C149 249 141 258 141 270 C141 282 149 292 161 292 L161 292 Z M161 258 C167 258 173 263 173 270 C173 276 167 281 161 281 C155 281 149 276 149 270 C149 263 155 258 161 258 L161 258 Z " />
<glyph glyph-name="semicolon" unicode="&#x3b;" horiz-adv-x="313" d="M215 33 L218 44 L218 46 C220 51 221 57 221 64 C221 103 190 134 151 134 C112 134 81 103 81 64 C81 48 85 34 94 22 C104 10 115 1 130 -4 L106 -68 C105 -71 105 -73 106 -75 C107 -77 110 -78 112 -78 L166 -78 C169 -78 173 -76 174 -73 L215 33 Z M161 338 C123 338 90 307 90 269 C90 229 123 198 161 198 C200 198 232 229 232 269 C232 307 200 338 161 338 L161 338 Z M175 38 L150 -43 C149 -46 148 -47 146 -47 L144 -47 C142 -46 141 -43 141 -40 L166 41 C166 43 166 44 166 46 C162 41 158 39 152 39 C141 39 130 48 130 61 C130 72 141 82 152 82 L155 82 C164 81 170 76 173 72 C179 65 180 53 175 38 L175 38 Z M160 249 C148 249 139 258 139 270 C139 282 148 292 160 292 C172 292 181 282 181 270 C181 258 172 249 160 249 L160 249 Z M154 72 C153 72 152 72 152 72 C145 72 141 66 141 61 C141 54 145 48 152 48 C158 48 163 54 163 61 C163 66 159 71 154 72 L154 72 Z M160 281 C153 281 148 276 148 270 C148 263 153 258 160 258 C166 258 171 263 171 270 C171 276 166 281 160 281 L160 281 Z " />
<glyph glyph-name="less" unicode="&#x3c;" horiz-adv-x="376" d="M303 428 C302 429 300 429 299 429 C297 429 296 429 295 428 L95 302 C93 301 91 298 91 295 L91 199 C91 196 93 193 96 192 L295 97 C297 97 298 96 299 96 C300 96 302 97 303 98 C305 98 306 101 306 104 L306 196 C306 199 304 200 302 201 L178 253 L303 325 C305 326 306 329 306 331 L306 423 C306 425 305 427 303 428 L303 428 Z M269 355 L140 273 C132 268 128 259 128 251 C129 242 134 235 142 230 L269 165 C271 164 272 161 270 158 C269 157 268 156 266 156 C265 156 264 156 263 157 L138 221 C126 226 120 237 119 250 C118 262 123 274 134 280 L264 363 C266 365 269 364 271 363 C272 360 272 356 269 355 L269 355 Z " />
<glyph glyph-name="equal" unicode="&#x3d;" horiz-adv-x="367" d="M99 278 L291 278 C294 278 297 282 297 286 L297 354 C297 359 294 363 291 363 L99 363 C95 363 91 359 91 354 L91 286 C91 282 95 278 99 278 L99 278 Z M132 326 L258 326 C260 326 263 324 263 321 C263 318 260 316 258 316 L132 316 C129 316 127 318 127 321 C127 324 129 326 132 326 L132 326 Z M99 174 L291 174 C294 174 297 177 297 181 L297 250 C297 254 294 257 291 257 L99 257 C95 257 91 254 91 250 L91 181 C91 177 95 174 99 174 L99 174 Z M132 221 L258 221 C260 221 263 218 263 217 C263 214 260 211 258 211 L132 211 C129 211 127 214 127 217 C127 218 129 221 132 221 L132 221 Z " />
<glyph glyph-name="greater" unicode="&#x3e;" horiz-adv-x="376" d="M91 196 L91 104 C91 101 92 98 94 98 C96 97 97 96 98 96 C99 96 100 97 101 97 L302 192 C304 193 305 196 305 199 L305 295 C305 298 304 301 303 302 L102 428 C101 429 99 429 98 429 C97 429 96 429 95 428 C92 427 91 425 91 423 L91 331 C91 329 92 326 95 325 L219 253 L96 201 C93 200 91 199 91 196 L91 196 Z M125 165 L252 230 C260 235 265 242 265 251 C266 259 261 268 255 273 L124 355 C123 356 122 360 123 363 C124 364 127 365 130 363 L260 281 C270 274 276 262 275 250 C275 237 268 226 256 221 L130 157 C129 156 129 156 128 156 C126 156 124 157 123 158 C123 161 123 164 125 165 L125 165 Z " />
<glyph glyph-name="question" unicode="&#x3f;" horiz-adv-x="507" d="M97 373 L196 322 C197 322 198 321 199 321 C200 321 202 322 203 323 C206 326 207 329 205 332 L197 353 C196 373 202 395 217 409 C227 422 243 428 261 428 C282 428 297 423 307 410 C315 398 317 380 311 361 C304 341 282 326 248 303 C238 296 228 289 218 281 C194 265 180 243 173 217 C168 198 168 180 169 166 C170 162 173 160 177 160 L273 160 C275 160 277 161 277 161 C279 163 280 165 280 166 C279 181 281 193 291 206 C301 220 320 235 356 256 C385 274 406 294 419 316 C433 340 440 367 437 395 C434 433 414 469 382 495 C350 521 306 535 258 535 C211 535 163 515 131 480 C104 450 90 414 93 380 C93 377 94 374 97 373 L97 373 Z M227 134 C189 134 158 103 158 64 C158 25 189 -7 227 -7 C267 -7 298 25 298 64 C298 103 267 134 227 134 L227 134 Z M140 401 C140 402 143 423 161 446 C177 465 207 489 261 489 C307 489 340 477 361 453 C386 425 384 389 381 371 C374 329 337 303 294 273 L263 250 C226 220 230 202 231 202 C232 200 230 198 227 197 C226 196 226 196 226 196 C224 196 222 198 221 199 C220 201 214 224 257 257 L289 280 C332 311 366 334 371 372 C373 389 375 422 354 446 C335 467 304 479 261 479 C221 479 190 465 169 440 C153 420 149 399 149 399 C149 397 146 394 143 395 C141 396 139 398 140 401 L140 401 Z M225 39 C213 39 202 48 202 61 C202 72 213 82 225 82 C236 82 246 72 246 61 C246 48 236 39 225 39 L225 39 Z M225 72 C218 72 213 66 213 61 C213 54 218 48 225 48 C231 48 236 54 236 61 C236 66 231 72 225 72 L225 72 Z " />
<glyph glyph-name="at" unicode="&#x40;" horiz-adv-x="633" d="M484 502 C465 515 440 523 413 528 C391 533 369 534 342 534 L311 534 C232 534 180 518 145 484 C126 465 114 442 105 412 C96 382 91 347 91 303 L91 232 C91 143 109 81 145 43 C176 9 221 -8 283 -8 C312 -8 352 -5 383 14 C396 22 404 29 406 33 C408 37 408 40 406 43 L356 102 C354 104 353 104 351 104 L351 104 C349 104 348 104 346 103 C337 95 312 77 281 77 L280 77 C264 77 234 81 209 103 C184 123 172 158 172 201 L172 277 C172 343 184 389 211 416 C234 440 266 451 313 451 L330 451 C379 451 414 443 438 427 C465 408 477 377 477 333 L477 218 C477 187 469 175 452 175 C435 175 431 183 431 219 C431 252 433 370 434 392 C434 394 433 396 432 397 C431 398 429 399 427 399 L369 399 C365 399 362 397 362 392 L362 375 C360 378 357 380 354 383 C337 396 314 399 298 399 C272 399 250 389 235 371 C220 354 214 332 214 307 L214 219 C214 192 218 168 228 151 C240 129 260 118 288 118 C319 118 337 131 348 142 C352 146 355 152 359 158 C365 134 375 118 390 106 C407 95 428 89 458 89 C494 89 522 103 540 127 C555 149 563 180 563 218 L563 333 C563 413 537 470 484 502 L484 502 Z M522 203 C522 164 515 124 459 124 C406 124 390 148 390 227 L390 233 L367 197 C341 162 317 145 296 145 C240 145 240 215 240 241 C240 247 240 253 239 260 C238 290 237 328 256 348 C266 358 280 363 297 363 C347 363 376 335 390 317 L390 364 C390 367 392 370 395 370 C398 370 400 367 400 364 L400 227 C400 149 414 135 459 135 C503 135 512 162 512 203 L512 330 C512 384 498 424 469 450 C441 478 406 483 389 483 L274 483 C241 483 206 470 180 449 C151 427 135 397 135 364 L135 211 C135 118 161 96 197 65 C199 64 201 62 203 59 C241 28 289 37 335 52 C338 53 341 51 342 48 C343 47 341 44 338 43 C313 34 289 28 264 28 C240 28 218 34 198 52 L191 57 C154 89 124 114 124 211 L124 364 C124 440 201 492 274 492 L389 492 C408 492 446 487 476 458 C507 429 522 387 522 330 L522 203 Z M297 354 C283 354 272 350 263 341 C246 323 248 289 250 260 C250 254 251 247 251 241 C251 182 264 156 296 156 C332 156 375 225 389 252 C389 252 389 252 390 252 L390 299 C387 307 356 354 297 354 L297 354 Z M353 237 C352 235 348 226 342 218 C336 209 327 200 315 200 C303 200 294 204 287 214 C281 223 277 237 277 257 L277 270 C277 312 296 316 313 316 C321 316 332 313 340 307 C348 303 353 295 353 293 L353 237 Z " />
<glyph glyph-name="A" unicode="A" horiz-adv-x="571" d="M499 12 L485 25 L356 504 L365 517 C366 520 366 522 365 525 C364 526 362 528 359 528 L234 528 C231 528 228 526 226 525 C226 522 226 520 227 517 L235 504 L106 25 L94 12 C91 9 91 7 92 4 C93 2 96 0 99 0 L218 0 C221 0 224 2 226 4 C226 7 226 9 224 12 L212 24 L237 117 L354 117 L380 24 L368 12 C366 9 366 7 367 4 C368 2 370 0 372 0 L493 0 C496 0 499 2 500 4 C501 7 500 9 499 12 L499 12 Z M428 46 L427 46 C425 46 423 47 423 48 L386 169 L204 169 L169 48 C168 47 166 45 163 46 C161 47 159 48 160 51 L284 477 C285 482 289 484 294 484 C298 484 302 483 303 477 L431 51 C432 48 431 47 428 46 L428 46 Z M294 474 L207 179 L383 179 L294 474 L294 474 Z M329 216 L263 216 L295 337 L329 216 Z " />
<glyph glyph-name="B" unicode="B" horiz-adv-x="506" d="M94 12 C91 9 91 7 92 4 C93 2 96 0 99 0 L269 0 C294 0 316 2 334 6 C355 11 372 19 388 30 C420 57 435 104 435 173 C435 238 422 284 392 313 C403 333 408 360 408 391 C408 421 404 445 395 464 C388 482 375 495 359 505 C329 525 284 528 241 528 L99 528 C96 528 93 526 92 524 C91 522 92 518 94 517 L106 503 L106 25 L94 12 Z M151 480 C151 483 154 484 157 484 L258 484 C279 484 304 483 323 471 C347 457 359 432 359 397 C359 357 350 332 330 318 C324 313 318 311 312 309 C323 305 336 301 347 292 C373 269 388 229 388 169 C388 127 376 95 354 74 C328 47 289 45 264 45 C259 45 255 45 252 46 L157 46 C154 46 151 47 151 49 L151 480 Z M252 55 C273 54 318 53 348 81 C367 100 377 130 377 169 C377 226 365 264 341 284 C321 300 295 302 274 302 L161 302 L161 55 L252 55 Z M324 326 C341 338 349 361 349 397 C349 465 305 474 258 474 L161 474 L161 312 L256 312 C298 312 314 319 324 326 L324 326 Z M212 105 L212 244 L241 244 C248 244 254 245 260 245 C281 243 297 237 309 226 C321 214 328 197 328 175 C328 150 320 132 303 121 C290 110 269 105 242 105 L212 105 Z M212 423 L215 423 L244 423 C262 423 276 423 286 417 C298 410 300 397 300 387 C300 359 286 353 261 351 L212 351 L212 423 Z " />
<glyph glyph-name="C" unicode="C" horiz-adv-x="526" d="M275 -8 C344 -8 391 8 422 40 C446 66 457 104 457 159 L457 209 C457 213 454 217 449 217 L345 217 C342 217 339 215 338 212 C337 209 337 206 339 204 L352 192 L352 185 C352 158 346 138 336 123 C324 107 305 100 279 100 L269 100 C237 100 198 115 198 185 L198 343 C198 370 202 390 213 405 C225 421 243 428 269 428 L279 428 C302 428 320 423 332 409 C341 400 348 387 351 370 L338 358 C337 355 336 353 337 351 C338 348 341 346 344 346 L449 346 C454 346 457 349 457 353 L457 370 C457 424 446 462 422 488 C392 520 345 535 275 535 C205 535 158 520 127 488 C104 461 91 423 91 370 L91 159 C91 104 104 66 127 40 C157 8 205 -8 275 -8 L275 -8 Z M167 454 C190 475 226 486 275 486 C321 486 356 475 380 452 C402 430 404 404 404 397 C404 394 401 391 398 391 C396 391 393 394 393 397 C393 405 389 477 275 477 C228 477 195 466 175 446 C149 421 149 385 149 358 L149 165 C149 125 158 99 175 81 C195 62 227 52 275 52 C320 52 352 62 371 80 C390 98 400 124 400 166 C400 169 403 171 406 171 C408 171 410 169 410 166 C410 123 400 92 379 72 C356 52 324 43 275 43 C224 43 190 53 168 74 C149 94 140 123 140 165 L140 358 C140 385 140 425 167 454 L167 454 Z " />
<glyph glyph-name="D" unicode="D" horiz-adv-x="542" d="M106 503 L106 25 L94 12 C91 9 91 7 92 4 C93 2 96 0 99 0 L313 0 C363 0 403 13 430 41 C457 67 471 107 471 158 L471 370 C471 418 459 457 435 483 C408 513 367 528 313 528 L99 528 C96 528 93 526 92 524 C91 522 91 518 94 517 L106 503 Z M154 480 C154 483 157 484 159 484 L287 484 C378 484 423 441 423 356 L423 151 C423 100 381 45 289 45 L159 45 C157 45 154 47 154 48 L154 480 Z M382 84 C402 102 413 125 413 151 L413 356 C413 436 371 474 287 474 L164 474 L164 54 L289 54 C328 54 360 64 382 84 L382 84 Z M212 100 L212 428 L284 428 C313 428 333 422 346 408 C360 395 366 375 366 346 L366 182 C366 157 359 136 345 122 C331 107 310 100 284 100 L212 100 Z " />
<glyph glyph-name="E" unicode="E" horiz-adv-x="463" d="M106 25 L94 12 C91 10 91 7 92 4 C93 2 96 0 99 0 L385 0 C389 0 392 4 392 7 L392 106 C392 110 390 113 388 114 C387 114 386 115 385 115 C383 115 381 114 380 112 L368 100 L212 100 L212 218 L329 218 L341 207 C343 206 345 205 346 205 L349 205 C351 207 353 209 353 212 L353 327 C353 329 351 332 349 332 C348 333 347 333 346 333 C345 333 343 332 341 332 L329 319 L212 319 L212 428 L368 428 L380 416 C381 414 383 414 385 414 C386 414 387 414 388 414 C390 415 392 418 392 422 L392 522 C392 525 389 528 385 528 L99 528 C96 528 93 526 92 524 C91 522 91 518 94 517 L106 503 L106 25 Z M152 49 L152 480 C152 483 155 484 158 484 L342 484 C345 484 347 483 347 480 C347 477 345 474 342 474 L162 474 L162 275 L309 275 C312 275 313 272 313 269 C313 267 312 264 309 264 L162 264 L162 55 L342 55 C345 55 347 53 347 49 C347 47 345 46 342 46 L158 46 C155 46 152 47 152 49 L152 49 Z " />
<glyph glyph-name="F" unicode="F" horiz-adv-x="463" d="M94 12 C91 10 91 7 92 4 C93 2 96 0 99 0 L218 0 C221 0 224 2 226 4 C226 7 226 10 224 12 L212 25 L212 218 L329 218 L341 207 C343 206 345 205 346 205 L349 205 C351 207 353 209 353 212 L353 327 C353 329 351 332 349 332 C348 333 347 333 346 333 C345 333 343 332 341 332 L329 319 L212 319 L212 428 L368 428 L380 416 C381 414 383 414 385 414 C386 414 387 414 388 414 C390 415 392 418 392 422 L392 522 C392 525 389 528 385 528 L99 528 C96 528 93 526 92 524 C91 522 91 518 94 517 L106 503 L106 25 L94 12 Z M153 49 L153 480 C153 483 156 484 158 484 L342 484 C345 484 347 483 347 480 C347 477 345 474 342 474 L163 474 L163 275 L310 275 C313 275 314 272 314 269 C314 267 313 264 310 264 L163 264 L163 49 C163 47 161 46 158 46 C156 46 153 47 153 49 L153 49 Z " />
<glyph glyph-name="G" unicode="G" horiz-adv-x="527" d="M422 40 C446 66 457 104 457 159 L457 285 C457 288 454 292 449 292 L269 292 C264 292 260 288 260 285 L260 185 C260 183 262 180 266 179 L269 179 C270 179 272 179 273 180 L286 192 L351 192 L351 185 C351 158 346 138 336 123 C324 107 305 100 279 100 L269 100 C236 100 198 115 198 185 L198 343 C198 370 202 390 213 405 C225 421 243 428 269 428 L279 428 C302 428 319 423 332 409 C341 400 347 387 351 370 L338 358 C336 355 336 353 337 351 C337 348 340 346 344 346 L449 346 C454 346 457 349 457 353 L457 370 C457 424 446 461 422 488 C392 520 344 535 275 535 C205 535 158 520 127 488 C104 461 91 423 91 370 L91 159 C91 104 104 66 127 40 C157 8 204 -8 275 -8 C344 -8 391 8 422 40 L422 40 Z M167 74 C148 94 140 123 140 165 L140 358 C140 385 139 425 167 454 C190 475 226 486 274 486 C322 486 357 474 380 450 C406 422 404 387 404 385 C403 382 401 380 397 380 C395 380 393 383 393 386 C393 386 396 418 371 444 C352 465 319 477 274 477 C228 477 195 466 175 446 C149 421 149 385 149 358 L149 165 C149 125 158 99 175 81 C194 62 226 52 274 52 C323 52 354 63 373 83 C391 104 400 133 400 182 L400 237 L295 237 C294 237 292 239 292 242 C292 244 294 247 295 247 L406 247 C408 247 409 244 409 242 L409 182 C409 131 401 98 381 76 C360 53 326 43 274 43 C224 43 189 53 167 74 L167 74 Z " />
<glyph glyph-name="H" unicode="H" horiz-adv-x="532" d="M106 25 L94 12 C91 10 91 7 92 4 C93 2 96 0 99 0 L218 0 C221 0 224 2 225 4 C226 7 226 10 224 12 L211 25 L211 220 L341 220 L341 25 L329 12 C327 10 327 7 328 4 C329 2 331 0 334 0 L454 0 C457 0 459 2 460 4 C462 7 461 10 459 12 L446 25 L446 503 L459 517 C460 517 461 520 461 522 C461 525 457 528 454 528 L334 528 C331 528 329 526 328 524 C327 522 327 518 329 517 L341 503 L341 320 L211 320 L211 503 L224 517 C226 518 226 522 225 524 C224 526 221 528 218 528 L99 528 C96 528 93 526 92 524 C91 522 91 518 94 517 L106 503 L106 25 Z M154 50 L154 480 C154 483 157 484 159 484 C161 484 164 483 164 480 L164 275 L389 275 L389 480 C389 483 390 484 394 484 C397 484 398 483 398 480 L398 50 C398 47 397 46 394 46 C390 46 389 47 389 50 L389 264 L164 264 L164 50 C164 47 161 46 159 46 C157 46 154 47 154 50 L154 50 Z " />
<glyph glyph-name="I" unicode="I" horiz-adv-x="296" d="M94 12 C91 10 91 7 92 4 C93 2 96 0 99 0 L218 0 C221 0 224 2 225 4 C226 7 226 10 224 12 L211 25 L211 503 L224 517 C225 517 226 519 226 522 C226 525 222 528 218 528 L99 528 C96 528 93 526 92 524 C91 522 91 518 94 517 L106 503 L106 25 L94 12 Z M154 480 C154 483 156 484 159 484 C161 484 163 483 163 480 L163 49 C163 47 161 46 159 46 C156 46 154 47 154 49 L154 480 Z " />
<glyph glyph-name="J" unicode="J" horiz-adv-x="498" d="M154 29 C183 6 216 -7 249 -7 L269 -7 C307 -7 343 9 370 36 C397 64 413 99 413 138 L413 504 L425 517 C426 518 427 520 427 522 C427 525 424 528 420 528 L300 528 C296 528 294 526 294 524 C293 522 294 519 294 517 L307 504 L307 189 C307 161 303 139 294 123 C286 108 275 100 260 100 C227 100 209 119 198 166 L199 183 C199 186 199 189 196 190 C195 191 193 192 192 192 C191 192 189 191 188 190 L94 123 C91 121 90 117 92 114 C107 81 130 51 154 29 L154 29 Z M158 114 C160 115 162 114 164 112 C183 79 204 52 257 52 C288 52 312 64 329 86 C346 108 354 141 354 180 L354 480 C354 483 356 484 359 484 C362 484 364 483 364 480 L364 180 C364 94 324 42 257 42 C199 42 176 72 156 106 C154 109 155 112 158 114 L158 114 Z " />
<glyph glyph-name="K" unicode="K" horiz-adv-x="537" d="M106 25 L94 12 C91 10 91 7 92 4 C93 2 96 0 99 0 L218 0 C221 0 224 2 225 4 C226 7 226 10 224 12 L211 25 L211 188 L252 244 L328 24 L315 12 C313 10 313 7 313 4 C315 2 318 0 320 0 L459 0 C462 0 465 2 465 4 C466 7 465 10 465 12 L451 25 L322 343 L437 503 L438 503 L449 517 C451 517 451 519 451 522 C451 525 448 528 445 528 L316 528 C313 528 312 526 310 524 C309 522 310 518 312 517 L322 504 L211 355 L211 503 L224 517 C226 518 226 522 225 524 C224 526 221 528 218 528 L99 528 C96 528 93 526 92 524 C91 522 91 518 94 517 L106 503 L106 25 Z M153 480 C153 483 155 484 158 484 C161 484 162 483 162 480 L162 220 L365 492 C367 494 370 495 372 493 C374 491 375 488 373 486 L269 347 L383 52 C384 49 383 47 380 46 L379 46 C377 46 374 47 374 47 L262 337 L162 204 L162 49 C162 47 161 46 158 46 C155 46 153 47 153 49 L153 480 Z " />
<glyph glyph-name="L" unicode="L" horiz-adv-x="463" d="M94 12 C91 10 91 7 92 4 C93 2 96 0 99 0 L385 0 C389 0 391 4 391 7 L391 107 C391 111 389 114 388 115 L385 115 C383 115 381 115 380 113 L367 101 L211 101 L211 503 L224 516 C226 518 226 521 225 523 C224 525 221 527 218 527 L99 527 C96 527 93 525 92 523 C91 521 91 518 94 516 L106 503 L106 25 L94 12 Z M153 479 C153 482 155 484 158 484 C161 484 162 482 162 479 L162 55 L343 55 C346 55 348 52 348 49 C348 47 346 45 343 45 L158 45 C155 45 153 47 153 49 L153 479 Z " />
<glyph glyph-name="M" unicode="M" horiz-adv-x="596" d="M525 4 C525 7 525 10 523 12 L511 25 L511 503 L523 517 C525 518 525 522 525 524 C523 526 521 528 518 528 L410 528 C408 528 406 527 405 525 L313 389 L212 525 C211 527 209 528 207 528 L99 528 C96 528 93 526 92 524 C91 522 91 518 94 517 L106 503 L106 25 L94 12 C91 10 91 7 92 4 C93 2 96 0 99 0 L218 0 C221 0 224 2 225 4 C226 7 226 10 224 12 L211 25 L211 331 L302 216 L303 214 C304 212 306 210 309 210 C312 210 313 212 314 214 L327 232 L406 344 L406 25 L393 12 C391 10 390 7 391 4 C393 2 396 0 398 0 L518 0 C521 0 523 2 525 4 L525 4 Z M464 49 C464 47 461 46 458 46 C456 46 453 47 453 49 L453 465 L313 298 C313 297 312 296 310 296 C309 296 307 297 306 298 L163 465 L163 49 C163 47 161 46 159 46 C156 46 154 47 154 49 L154 480 C154 482 155 483 158 484 C159 484 161 484 162 483 L310 310 L455 483 C456 484 458 484 460 484 C462 483 464 482 464 480 L464 49 Z " />
<glyph glyph-name="N" unicode="N" horiz-adv-x="517" d="M445 4 C446 7 446 10 443 12 L431 25 L431 503 L443 517 C446 518 446 522 445 524 C444 526 441 528 438 528 L318 528 C315 528 313 526 312 524 C311 522 312 518 313 517 L325 503 L325 266 L213 524 C211 526 209 528 206 528 L99 528 C96 528 93 526 92 524 C91 522 91 518 94 517 L106 503 L106 25 L94 12 C91 10 91 7 92 4 C93 2 96 0 99 0 L218 0 C221 0 224 2 225 4 C226 7 226 10 224 12 L211 25 L211 267 L321 21 L313 12 C312 10 311 7 312 4 C313 2 315 0 318 0 L438 0 C441 0 444 2 445 4 L445 4 Z M382 48 C382 47 380 45 379 44 L377 44 C375 44 373 45 372 47 L164 459 L164 49 C164 47 161 46 159 46 C157 46 154 47 154 49 L154 480 C154 482 156 484 158 484 C160 484 162 484 163 482 L372 69 L372 480 C372 483 374 484 377 484 C380 484 382 483 382 480 L382 48 Z " />
<glyph glyph-name="O" unicode="O" horiz-adv-x="527" d="M275 -8 C344 -8 391 8 422 40 C446 66 457 104 457 159 L457 370 C457 423 446 461 422 487 C392 520 344 535 275 535 C205 535 158 520 127 488 C104 461 91 423 91 370 L91 159 C91 104 104 66 127 40 C157 8 204 -8 275 -8 L275 -8 Z M141 364 C141 446 184 490 265 490 L286 490 C367 490 410 446 410 364 L410 166 C410 90 361 42 286 42 L265 42 C226 42 194 53 173 74 C151 97 141 128 141 166 L141 364 Z M265 52 L286 52 C319 52 347 63 368 81 C389 102 400 132 400 166 L400 364 C400 441 362 480 286 480 L265 480 C190 480 149 440 149 364 L149 166 C149 130 160 102 180 82 C200 62 228 52 265 52 L265 52 Z M198 185 L198 343 C198 370 202 390 213 406 C225 421 243 428 269 428 L279 428 C313 428 351 414 351 343 L351 185 C351 159 346 138 336 123 C324 107 305 100 279 100 L269 100 C236 100 198 115 198 185 L198 185 Z " />
<glyph glyph-name="P" unicode="P" horiz-adv-x="483" d="M268 528 L99 528 C96 528 93 526 92 524 C91 522 91 518 94 517 L106 503 L106 25 L94 12 C91 9 91 7 92 4 C93 2 96 0 99 0 L218 0 C221 0 224 2 225 4 C226 7 226 9 224 12 L211 25 L211 140 L268 140 C316 140 353 153 378 181 C400 206 411 241 411 283 L411 384 C411 427 401 462 380 485 C356 514 318 528 268 528 L268 528 Z M363 289 C363 249 351 220 328 204 C310 192 285 185 251 185 L165 185 L165 49 C165 47 162 45 160 45 C158 45 155 47 155 49 L155 479 C155 482 158 484 160 484 L258 484 C282 484 363 477 363 389 L363 289 Z M258 474 L165 474 L165 196 L251 196 C301 196 352 207 352 289 L352 389 C352 415 344 474 258 474 L258 474 Z M306 307 C306 281 301 265 288 255 C275 244 256 239 224 239 L211 239 L211 427 L224 427 C257 427 276 423 288 414 C301 405 306 388 306 360 L306 307 Z " />
<glyph glyph-name="Q" unicode="Q" horiz-adv-x="526" d="M275 -8 L289 -8 L313 -43 C313 -45 316 -46 318 -46 L408 -46 C410 -46 413 -44 414 -42 C415 -39 415 -37 414 -34 L382 12 C409 25 429 44 441 70 C451 93 457 123 457 159 L457 370 C457 423 446 461 422 487 C392 520 345 535 275 535 C205 535 158 520 127 488 C104 461 91 423 91 370 L91 159 C91 104 104 66 127 40 C157 8 204 -8 275 -8 L275 -8 Z M140 364 C140 446 183 490 264 490 L285 490 C367 490 409 446 409 364 L409 166 C409 104 375 59 320 47 L350 -6 C351 -9 351 -12 348 -13 C347 -13 346 -13 346 -13 C344 -13 342 -13 341 -11 L310 44 C301 43 294 42 285 42 L264 42 C226 42 194 53 173 75 C150 97 140 128 140 166 L140 364 Z M264 52 L285 52 C318 52 346 63 367 81 C389 102 400 132 400 166 L400 364 C400 441 361 480 285 480 L264 480 C189 480 149 440 149 364 L149 166 C149 130 160 102 180 82 C199 62 228 52 264 52 L264 52 Z M198 185 L198 343 C198 370 202 390 213 406 C225 421 243 428 269 428 L279 428 C313 428 351 414 351 343 L351 185 C351 159 346 138 336 123 C324 107 305 100 279 100 L269 100 C236 100 198 115 198 185 L198 185 Z " />
<glyph glyph-name="R" unicode="R" horiz-adv-x="495" d="M225 4 C226 7 226 10 224 12 L211 25 L211 140 L242 140 L295 24 L285 11 C282 9 282 7 283 4 C284 1 286 -1 290 -1 L416 -1 C420 -1 423 1 423 4 C424 7 424 9 422 11 L408 25 L347 158 C369 168 385 186 396 209 C406 229 411 255 411 283 L411 384 C411 427 401 462 380 485 C356 514 318 528 268 528 L99 528 C96 528 93 526 92 524 C91 522 91 518 94 517 L106 503 L106 25 L94 12 C91 10 91 7 92 4 C93 2 96 0 99 0 L218 0 C221 0 224 2 225 4 L225 4 Z M164 49 C164 47 161 45 159 45 C157 45 154 47 154 49 L154 479 C154 482 157 484 159 484 L257 484 C282 484 362 477 362 389 L362 289 C362 249 351 221 327 204 C314 196 298 191 278 188 L345 52 C346 49 345 47 342 46 L340 46 C338 46 337 47 336 47 L269 186 L164 186 L164 49 Z M352 289 L352 389 C352 415 343 474 257 474 L164 474 L164 196 L250 196 C300 196 352 207 352 289 L352 289 Z M211 239 L211 428 L224 428 C257 428 276 424 288 414 C301 405 306 388 306 360 L306 308 C306 281 301 265 288 255 C275 244 256 239 224 239 L211 239 Z " />
<glyph glyph-name="S" unicode="S" horiz-adv-x="517" d="M282 -8 C349 -8 398 14 429 58 C456 96 460 141 461 163 C462 195 453 220 433 244 C409 274 370 299 313 324 C269 343 240 355 225 366 C210 376 208 385 209 397 C210 406 218 413 227 420 C239 426 254 430 269 430 C274 430 277 429 283 428 C323 422 342 392 346 387 L343 369 C342 366 343 363 346 362 C347 361 348 360 350 360 C351 360 352 361 353 362 L440 419 C444 421 445 425 443 427 C439 436 432 448 424 462 C414 476 405 487 393 498 C364 522 328 534 281 534 C226 534 180 521 146 495 C111 468 92 431 91 388 C90 347 107 312 143 281 C168 260 201 242 245 225 C281 210 304 199 320 185 C334 173 341 161 339 146 C337 130 331 118 320 109 C310 103 295 99 277 99 C263 99 248 104 234 113 C218 122 208 134 200 149 L203 171 C203 175 202 177 200 179 C199 180 198 180 196 180 C195 180 193 179 192 178 L102 107 C99 105 98 103 99 100 C102 91 110 69 132 47 C147 30 166 19 188 9 C215 -3 246 -8 282 -8 L282 -8 Z M159 101 C158 104 158 106 161 107 C163 108 166 107 167 106 C180 84 225 47 286 47 C315 47 383 56 394 140 C400 192 370 227 286 265 L259 277 C195 305 144 328 144 389 C144 421 159 446 186 465 C209 480 240 487 272 487 C331 487 361 452 375 435 C377 432 377 430 374 428 C372 427 370 427 368 428 C354 445 327 478 272 478 C242 478 213 470 192 457 C175 446 154 424 154 389 C154 333 200 313 263 286 L290 275 C332 255 361 237 379 218 C399 195 408 169 404 139 C399 103 384 76 359 59 C334 42 306 38 286 38 C252 38 223 49 206 58 C185 70 167 85 159 101 L159 101 Z " />
<glyph glyph-name="T" unicode="T" horiz-adv-x="508" d="M96 414 L99 414 C101 414 103 414 104 416 L116 428 L212 428 L212 25 L200 12 C199 10 198 7 199 4 C200 2 202 0 205 0 L325 0 C329 0 331 2 332 4 C332 7 332 10 330 12 L318 25 L318 428 L414 428 L427 416 C428 414 430 414 431 414 L434 414 C437 415 439 418 439 422 L439 522 C439 525 436 528 431 528 L99 528 C95 528 91 525 91 522 L91 422 C91 418 93 415 96 414 L96 414 Z M142 483 C144 484 144 484 265 484 L385 484 C388 484 389 482 389 479 C389 476 388 474 385 474 C358 474 314 474 272 474 L272 50 C272 47 270 46 267 46 C264 46 262 47 262 50 L262 474 C204 474 150 474 145 474 L144 474 C142 474 141 474 141 477 C140 479 141 483 142 483 L142 483 Z " />
<glyph glyph-name="U" unicode="U" horiz-adv-x="556" d="M106 503 L106 159 C106 104 117 66 142 40 C171 8 218 -8 289 -8 C358 -8 406 8 435 40 C460 66 471 104 471 159 L471 503 L484 517 C485 519 486 522 484 524 C484 526 482 528 479 528 L358 528 C355 528 353 526 352 524 C351 522 351 519 353 517 L366 503 L366 185 C366 158 361 138 351 123 C338 107 320 100 294 100 L284 100 C251 100 212 115 212 185 L212 343 L211 344 L211 503 L224 517 C225 518 226 520 226 522 C226 525 222 528 218 528 L99 528 C96 528 93 526 92 524 C91 522 91 519 94 517 L106 503 Z M152 477 C152 480 155 483 158 483 C160 483 162 480 162 477 L162 166 C162 130 173 102 192 82 C212 62 241 52 277 52 L297 52 C331 52 359 63 380 81 C402 102 413 132 413 166 L413 477 C413 480 414 483 418 483 C421 483 423 480 423 477 L423 166 C423 90 373 42 297 42 L277 42 C238 42 207 53 185 75 C164 97 152 128 152 166 L152 477 Z " />
<glyph glyph-name="V" unicode="V" horiz-adv-x="570" d="M106 503 L235 24 L226 11 C226 9 225 6 226 4 C227 2 230 0 233 0 L358 0 C361 0 363 2 365 4 C366 6 366 9 364 11 L356 24 L485 503 L498 517 C500 518 500 522 500 524 C499 526 496 528 492 528 L372 528 C370 528 368 526 366 524 C365 522 366 518 368 517 L380 504 L295 192 L212 504 L224 517 C225 517 226 519 226 522 C226 525 222 528 218 528 L99 528 C96 528 93 526 92 524 C91 522 91 518 94 517 L106 503 Z M158 484 C160 485 162 484 163 482 L296 55 L296 55 C297 55 297 55 297 55 L426 482 C427 484 429 485 431 484 C434 484 436 482 435 479 L307 52 C306 47 302 46 296 46 C293 46 288 47 287 52 L154 479 C153 482 155 484 158 484 L158 484 Z " />
<glyph glyph-name="W" unicode="W" horiz-adv-x="785" d="M212 504 L224 517 C226 518 226 522 225 524 C224 526 221 528 218 528 L99 528 C96 528 93 526 92 524 C91 522 91 518 94 517 L106 503 L235 24 L227 11 C226 9 226 6 226 4 C228 2 231 0 234 0 L331 0 C333 0 336 2 337 4 L410 207 L465 5 C465 3 468 0 472 0 L574 0 C577 0 578 2 579 4 C580 6 580 9 579 11 L571 24 L700 503 L713 517 C713 517 714 519 714 522 C714 525 712 528 708 528 L587 528 C585 528 582 526 581 524 C579 522 580 518 582 517 L594 504 L512 197 L444 503 L456 517 C457 518 458 522 457 524 C456 526 453 528 450 528 L323 528 C320 528 318 526 317 524 C315 522 316 518 318 517 L331 503 L363 385 L297 184 L212 504 Z M414 377 L387 479 C386 482 388 484 389 484 C392 485 395 484 396 482 L512 55 L512 55 C513 55 513 55 513 55 L639 482 C640 484 643 485 645 484 C649 484 650 482 649 479 L522 52 C522 47 517 46 512 46 C508 46 503 47 503 52 L502 53 L418 361 L303 52 C302 47 297 46 293 46 C288 46 284 47 283 52 L154 479 C153 482 155 484 158 484 C160 485 162 484 163 482 L293 55 L293 55 C294 55 294 55 294 55 L414 377 Z " />
<glyph glyph-name="X" unicode="X" horiz-adv-x="560" d="M474 26 L355 283 L452 503 L465 517 C465 518 466 522 465 524 C465 526 463 528 459 528 L339 528 C337 528 334 526 332 524 C332 522 332 518 334 517 L346 504 L291 382 L235 504 L246 517 C249 518 249 522 248 524 C247 526 244 528 241 528 L122 528 C119 528 116 526 115 524 C114 522 115 518 116 517 L128 503 L225 283 L106 26 L94 12 C91 10 91 7 92 4 C93 2 96 0 99 0 L218 0 C221 0 224 2 225 4 C226 7 226 10 224 12 L212 24 L286 183 L291 190 L294 183 L369 24 L356 12 C354 10 354 7 355 4 C356 2 359 0 362 0 L483 0 C484 0 487 2 488 4 C490 7 489 10 487 12 L474 26 Z M412 46 L409 46 C408 46 406 47 406 47 L288 275 L170 47 C169 47 167 46 166 46 L163 46 C161 47 160 49 161 52 L282 286 L183 476 C183 479 183 483 186 483 C189 484 192 483 193 482 L288 296 L383 482 C384 483 388 484 389 483 C391 483 392 479 391 476 L294 286 L414 52 C415 49 414 47 412 46 L412 46 Z " />
<glyph glyph-name="Y" unicode="Y" horiz-adv-x="519" d="M442 528 L321 528 C319 528 316 526 315 524 C313 522 314 518 316 517 L329 504 L271 390 L212 504 L224 517 C225 517 226 519 226 522 C226 525 222 528 218 528 L99 528 C96 528 93 526 92 524 C91 522 91 518 94 517 L106 503 L218 250 L218 25 L207 12 C204 9 204 7 205 4 C206 2 209 0 212 0 L332 0 C334 0 337 2 338 4 C339 7 338 9 337 12 L325 25 L325 250 L434 503 L447 517 C448 518 449 522 448 524 C447 526 445 528 442 528 L442 528 Z M375 476 L276 270 L276 49 C276 47 275 45 272 45 C269 45 267 47 267 49 L267 270 L165 476 C164 479 165 482 167 483 C170 484 173 483 174 481 L272 282 L367 481 C368 483 370 484 372 483 C375 483 376 479 375 476 L375 476 Z " />
<glyph glyph-name="Z" unicode="Z" horiz-adv-x="486" d="M96 414 C97 414 98 414 99 414 C101 414 103 414 104 416 L116 428 L287 428 L94 99 C93 98 93 98 93 96 L93 7 C93 4 97 0 100 0 L409 0 C414 0 416 4 416 7 L416 106 C416 110 414 113 412 114 C411 114 410 115 409 115 C408 115 406 114 405 112 L392 100 L221 100 L414 429 C414 430 415 431 415 432 L415 522 C415 523 414 525 413 526 C412 527 410 528 408 528 L99 528 C95 528 91 525 91 521 L91 422 C91 418 93 415 96 414 L96 414 Z M144 484 L360 484 C365 484 370 483 372 477 C375 473 375 467 372 464 L142 61 C141 59 142 57 142 56 C142 56 143 55 145 55 L364 55 C367 55 369 52 369 49 C369 47 367 45 364 45 L145 45 C141 45 136 47 133 52 C131 56 131 62 133 66 L364 468 C365 470 364 472 364 473 C363 473 363 474 360 474 L144 474 C142 474 140 477 140 480 C140 483 142 484 144 484 L144 484 Z " />
<glyph glyph-name="bracketleft" unicode="&#x5b;" horiz-adv-x="358" d="M106 587 L99 587 C96 587 93 586 92 583 C91 580 91 578 94 576 L106 563 L106 -35 L94 -48 C91 -49 91 -52 92 -55 C93 -57 96 -59 99 -59 L107 -59 C108 -60 109 -60 109 -60 L280 -60 C285 -60 288 -56 288 -52 L288 53 C288 55 286 58 284 60 L280 60 C278 60 277 60 276 58 L263 47 L211 47 L211 483 L263 483 L276 471 C277 469 278 468 280 468 C282 468 283 468 284 469 C286 470 288 473 288 475 L288 581 C288 585 285 588 280 588 L110 588 C109 588 108 588 106 587 L106 587 Z M149 535 C149 538 151 541 155 541 L238 541 C241 541 243 538 243 535 C243 533 241 530 238 530 L159 530 L159 4 L237 4 C240 4 242 2 242 -1 C242 -4 240 -6 237 -6 L155 -6 C151 -6 149 -4 149 -1 L149 535 Z " />
<glyph glyph-name="backslash" unicode="&#x5c;" horiz-adv-x="464" d="M197 531 C196 534 193 535 190 535 L99 535 C97 535 94 534 93 533 C91 530 91 528 92 525 L288 -2 C290 -5 293 -7 294 -7 L387 -7 C389 -7 390 -5 391 -4 C393 -2 393 1 392 3 L197 531 Z M323 44 C323 43 322 43 321 43 C320 43 318 45 317 47 L153 483 C152 485 153 488 156 489 C158 491 161 489 162 486 L327 49 C328 47 326 45 323 44 L323 44 Z " />
<glyph glyph-name="bracketright" unicode="&#x5d;" horiz-adv-x="358" d="M119 47 L106 58 C104 60 103 60 101 60 L98 60 C96 58 94 55 94 53 L94 -52 C94 -56 97 -60 101 -60 L283 -60 C286 -60 288 -57 290 -55 C291 -52 290 -48 288 -48 L276 -34 L276 563 L288 577 C289 577 290 579 290 581 C290 585 286 588 283 588 L101 588 C97 588 94 585 94 581 L94 475 C94 473 96 470 98 469 C99 468 100 468 101 468 C103 468 104 469 106 471 L119 483 L170 483 L170 47 L119 47 Z M142 530 C140 530 137 533 137 535 C137 538 140 541 142 541 L226 541 C228 541 231 538 231 535 L231 -1 C231 -4 228 -6 226 -6 L142 -6 C141 -6 138 -4 138 -1 C138 2 141 4 142 4 L220 4 L220 530 L142 530 Z " />
<glyph glyph-name="asciicircum" unicode="&#x5e;" horiz-adv-x="494" d="M326 313 L418 313 C421 313 423 315 424 317 C425 319 425 320 425 321 C425 322 425 323 424 324 L329 525 C329 526 326 528 323 528 L225 528 C223 528 220 527 218 525 L93 325 C92 324 91 322 91 321 C91 320 92 319 92 318 C94 315 97 313 99 313 L191 313 C193 313 195 315 197 318 L268 443 L319 319 C320 316 323 313 326 313 L326 313 Z M356 349 L291 475 C287 483 279 488 271 488 C261 489 254 484 249 478 L166 348 C164 346 161 345 159 346 C157 348 157 351 158 353 L240 483 C247 493 259 500 271 499 C284 498 294 491 300 480 L365 353 L365 351 C365 350 364 347 363 346 C361 346 357 346 356 349 L356 349 Z " />
<glyph glyph-name="underscore" unicode="&#x5f;" horiz-adv-x="559" d="M489 -75 L489 -6 C489 -3 485 1 482 1 L99 1 C95 1 91 -3 91 -6 L91 -75 C91 -80 95 -82 99 -82 L482 -82 C485 -82 489 -80 489 -75 L489 -75 Z M439 -46 L132 -46 C129 -46 127 -44 127 -40 C127 -38 129 -36 132 -36 L439 -36 C442 -36 444 -38 444 -40 C444 -44 442 -46 439 -46 L439 -46 Z " />
<glyph glyph-name="grave" unicode="&#x60;" horiz-adv-x="238" d="M151 549 L99 549 C97 549 94 547 93 545 C91 542 91 541 93 539 L130 471 C131 468 133 467 136 467 L161 467 C164 467 166 468 167 469 C168 471 169 474 168 475 L158 542 C158 546 155 549 151 549 L151 549 Z M143 493 C142 492 142 492 142 492 C140 492 138 494 137 496 L126 525 C124 527 126 530 129 532 C132 533 134 531 135 528 L146 500 C147 497 146 494 143 493 L143 493 Z " />
<glyph glyph-name="a" unicode="a" horiz-adv-x="571" d="M499 12 L485 25 L356 504 L365 517 C366 520 366 522 365 525 C364 526 362 528 359 528 L234 528 C231 528 228 526 226 525 C226 522 226 520 227 517 L235 504 L106 25 L94 12 C91 9 91 7 92 4 C93 2 96 0 99 0 L218 0 C221 0 224 2 226 4 C226 7 226 9 224 12 L212 24 L237 117 L354 117 L380 24 L368 12 C366 9 366 7 367 4 C368 2 370 0 372 0 L493 0 C496 0 499 2 500 4 C501 7 500 9 499 12 L499 12 Z M428 46 L427 46 C425 46 423 47 423 48 L386 169 L204 169 L169 48 C168 47 166 45 163 46 C161 47 159 48 160 51 L284 477 C285 482 289 484 294 484 C298 484 302 483 303 477 L431 51 C432 48 431 47 428 46 L428 46 Z M294 474 L207 179 L383 179 L294 474 L294 474 Z M329 216 L263 216 L295 337 L329 216 Z " />
<glyph glyph-name="b" unicode="b" horiz-adv-x="506" d="M94 12 C91 9 91 7 92 4 C93 2 96 0 99 0 L269 0 C294 0 316 2 334 6 C355 11 372 19 388 30 C420 57 435 104 435 173 C435 238 422 284 392 313 C403 333 408 360 408 391 C408 421 404 445 395 464 C388 482 375 495 359 505 C329 525 284 528 241 528 L99 528 C96 528 93 526 92 524 C91 522 92 518 94 517 L106 503 L106 25 L94 12 Z M151 480 C151 483 154 484 157 484 L258 484 C279 484 304 483 323 471 C347 457 359 432 359 397 C359 357 350 332 330 318 C324 313 318 311 312 309 C323 305 336 301 347 292 C373 269 388 229 388 169 C388 127 376 95 354 74 C328 47 289 45 264 45 C259 45 255 45 252 46 L157 46 C154 46 151 47 151 49 L151 480 Z M252 55 C273 54 318 53 348 81 C367 100 377 130 377 169 C377 226 365 264 341 284 C321 300 295 302 274 302 L161 302 L161 55 L252 55 Z M324 326 C341 338 349 361 349 397 C349 465 305 474 258 474 L161 474 L161 312 L256 312 C298 312 314 319 324 326 L324 326 Z M212 105 L212 244 L241 244 C248 244 254 245 260 245 C281 243 297 237 309 226 C321 214 328 197 328 175 C328 150 320 132 303 121 C290 110 269 105 242 105 L212 105 Z M212 423 L215 423 L244 423 C262 423 276 423 286 417 C298 410 300 397 300 387 C300 359 286 353 261 351 L212 351 L212 423 Z " />
<glyph glyph-name="c" unicode="c" horiz-adv-x="526" d="M275 -8 C344 -8 391 8 422 40 C446 66 457 104 457 159 L457 209 C457 213 454 217 449 217 L345 217 C342 217 339 215 338 212 C337 209 337 206 339 204 L352 192 L352 185 C352 158 346 138 336 123 C324 107 305 100 279 100 L269 100 C237 100 198 115 198 185 L198 343 C198 370 202 390 213 405 C225 421 243 428 269 428 L279 428 C302 428 320 423 332 409 C341 400 348 387 351 370 L338 358 C337 355 336 353 337 351 C338 348 341 346 344 346 L449 346 C454 346 457 349 457 353 L457 370 C457 424 446 462 422 488 C392 520 345 535 275 535 C205 535 158 520 127 488 C104 461 91 423 91 370 L91 159 C91 104 104 66 127 40 C157 8 205 -8 275 -8 L275 -8 Z M167 454 C190 475 226 486 275 486 C321 486 356 475 380 452 C402 430 404 404 404 397 C404 394 401 391 398 391 C396 391 393 394 393 397 C393 405 389 477 275 477 C228 477 195 466 175 446 C149 421 149 385 149 358 L149 165 C149 125 158 99 175 81 C195 62 227 52 275 52 C320 52 352 62 371 80 C390 98 400 124 400 166 C400 169 403 171 406 171 C408 171 410 169 410 166 C410 123 400 92 379 72 C356 52 324 43 275 43 C224 43 190 53 168 74 C149 94 140 123 140 165 L140 358 C140 385 140 425 167 454 L167 454 Z " />
<glyph glyph-name="d" unicode="d" horiz-adv-x="542" d="M106 503 L106 25 L94 12 C91 9 91 7 92 4 C93 2 96 0 99 0 L313 0 C363 0 403 13 430 41 C457 67 471 107 471 158 L471 370 C471 418 459 457 435 483 C408 513 367 528 313 528 L99 528 C96 528 93 526 92 524 C91 522 91 518 94 517 L106 503 Z M154 480 C154 483 157 484 159 484 L287 484 C378 484 423 441 423 356 L423 151 C423 100 381 45 289 45 L159 45 C157 45 154 47 154 48 L154 480 Z M382 84 C402 102 413 125 413 151 L413 356 C413 436 371 474 287 474 L164 474 L164 54 L289 54 C328 54 360 64 382 84 L382 84 Z M212 100 L212 428 L284 428 C313 428 333 422 346 408 C360 395 366 375 366 346 L366 182 C366 157 359 136 345 122 C331 107 310 100 284 100 L212 100 Z " />
<glyph glyph-name="e" unicode="e" horiz-adv-x="463" d="M106 25 L94 12 C91 10 91 7 92 4 C93 2 96 0 99 0 L385 0 C389 0 392 4 392 7 L392 106 C392 110 390 113 388 114 C387 114 386 115 385 115 C383 115 381 114 380 112 L368 100 L212 100 L212 218 L329 218 L341 207 C343 206 345 205 346 205 L349 205 C351 207 353 209 353 212 L353 327 C353 329 351 332 349 332 C348 333 347 333 346 333 C345 333 343 332 341 332 L329 319 L212 319 L212 428 L368 428 L380 416 C381 414 383 414 385 414 C386 414 387 414 388 414 C390 415 392 418 392 422 L392 522 C392 525 389 528 385 528 L99 528 C96 528 93 526 92 524 C91 522 91 518 94 517 L106 503 L106 25 Z M152 49 L152 480 C152 483 155 484 158 484 L342 484 C345 484 347 483 347 480 C347 477 345 474 342 474 L162 474 L162 275 L309 275 C312 275 313 272 313 269 C313 267 312 264 309 264 L162 264 L162 55 L342 55 C345 55 347 53 347 49 C347 47 345 46 342 46 L158 46 C155 46 152 47 152 49 L152 49 Z " />
<glyph glyph-name="f" unicode="f" horiz-adv-x="463" d="M94 12 C91 10 91 7 92 4 C93 2 96 0 99 0 L218 0 C221 0 224 2 226 4 C226 7 226 10 224 12 L212 25 L212 218 L329 218 L341 207 C343 206 345 205 346 205 L349 205 C351 207 353 209 353 212 L353 327 C353 329 351 332 349 332 C348 333 347 333 346 333 C345 333 343 332 341 332 L329 319 L212 319 L212 428 L368 428 L380 416 C381 414 383 414 385 414 C386 414 387 414 388 414 C390 415 392 418 392 422 L392 522 C392 525 389 528 385 528 L99 528 C96 528 93 526 92 524 C91 522 91 518 94 517 L106 503 L106 25 L94 12 Z M153 49 L153 480 C153 483 156 484 158 484 L342 484 C345 484 347 483 347 480 C347 477 345 474 342 474 L163 474 L163 275 L310 275 C313 275 314 272 314 269 C314 267 313 264 310 264 L163 264 L163 49 C163 47 161 46 158 46 C156 46 153 47 153 49 L153 49 Z " />
<glyph glyph-name="g" unicode="g" horiz-adv-x="527" d="M422 40 C446 66 457 104 457 159 L457 285 C457 288 454 292 449 292 L269 292 C264 292 260 288 260 285 L260 185 C260 183 262 180 266 179 L269 179 C270 179 272 179 273 180 L286 192 L351 192 L351 185 C351 158 346 138 336 123 C324 107 305 100 279 100 L269 100 C236 100 198 115 198 185 L198 343 C198 370 202 390 213 405 C225 421 243 428 269 428 L279 428 C302 428 319 423 332 409 C341 400 347 387 351 370 L338 358 C336 355 336 353 337 351 C337 348 340 346 344 346 L449 346 C454 346 457 349 457 353 L457 370 C457 424 446 461 422 488 C392 520 344 535 275 535 C205 535 158 520 127 488 C104 461 91 423 91 370 L91 159 C91 104 104 66 127 40 C157 8 204 -8 275 -8 C344 -8 391 8 422 40 L422 40 Z M167 74 C148 94 140 123 140 165 L140 358 C140 385 139 425 167 454 C190 475 226 486 274 486 C322 486 357 474 380 450 C406 422 404 387 404 385 C403 382 401 380 397 380 C395 380 393 383 393 386 C393 386 396 418 371 444 C352 465 319 477 274 477 C228 477 195 466 175 446 C149 421 149 385 149 358 L149 165 C149 125 158 99 175 81 C194 62 226 52 274 52 C323 52 354 63 373 83 C391 104 400 133 400 182 L400 237 L295 237 C294 237 292 239 292 242 C292 244 294 247 295 247 L406 247 C408 247 409 244 409 242 L409 182 C409 131 401 98 381 76 C360 53 326 43 274 43 C224 43 189 53 167 74 L167 74 Z " />
<glyph glyph-name="h" unicode="h" horiz-adv-x="532" d="M106 25 L94 12 C91 10 91 7 92 4 C93 2 96 0 99 0 L218 0 C221 0 224 2 225 4 C226 7 226 10 224 12 L211 25 L211 220 L341 220 L341 25 L329 12 C327 10 327 7 328 4 C329 2 331 0 334 0 L454 0 C457 0 459 2 460 4 C462 7 461 10 459 12 L446 25 L446 503 L459 517 C460 517 461 520 461 522 C461 525 457 528 454 528 L334 528 C331 528 329 526 328 524 C327 522 327 518 329 517 L341 503 L341 320 L211 320 L211 503 L224 517 C226 518 226 522 225 524 C224 526 221 528 218 528 L99 528 C96 528 93 526 92 524 C91 522 91 518 94 517 L106 503 L106 25 Z M154 50 L154 480 C154 483 157 484 159 484 C161 484 164 483 164 480 L164 275 L389 275 L389 480 C389 483 390 484 394 484 C397 484 398 483 398 480 L398 50 C398 47 397 46 394 46 C390 46 389 47 389 50 L389 264 L164 264 L164 50 C164 47 161 46 159 46 C157 46 154 47 154 50 L154 50 Z " />
<glyph glyph-name="i" unicode="i" horiz-adv-x="296" d="M94 12 C91 10 91 7 92 4 C93 2 96 0 99 0 L218 0 C221 0 224 2 225 4 C226 7 226 10 224 12 L211 25 L211 503 L224 517 C225 517 226 519 226 522 C226 525 222 528 218 528 L99 528 C96 528 93 526 92 524 C91 522 91 518 94 517 L106 503 L106 25 L94 12 Z M154 480 C154 483 156 484 159 484 C161 484 163 483 163 480 L163 49 C163 47 161 46 159 46 C156 46 154 47 154 49 L154 480 Z " />
<glyph glyph-name="j" unicode="j" horiz-adv-x="498" d="M154 29 C183 6 216 -7 249 -7 L269 -7 C307 -7 343 9 370 36 C397 64 413 99 413 138 L413 504 L425 517 C426 518 427 520 427 522 C427 525 424 528 420 528 L300 528 C296 528 294 526 294 524 C293 522 294 519 294 517 L307 504 L307 189 C307 161 303 139 294 123 C286 108 275 100 260 100 C227 100 209 119 198 166 L199 183 C199 186 199 189 196 190 C195 191 193 192 192 192 C191 192 189 191 188 190 L94 123 C91 121 90 117 92 114 C107 81 130 51 154 29 L154 29 Z M158 114 C160 115 162 114 164 112 C183 79 204 52 257 52 C288 52 312 64 329 86 C346 108 354 141 354 180 L354 480 C354 483 356 484 359 484 C362 484 364 483 364 480 L364 180 C364 94 324 42 257 42 C199 42 176 72 156 106 C154 109 155 112 158 114 L158 114 Z " />
<glyph glyph-name="k" unicode="k" horiz-adv-x="537" d="M106 25 L94 12 C91 10 91 7 92 4 C93 2 96 0 99 0 L218 0 C221 0 224 2 225 4 C226 7 226 10 224 12 L211 25 L211 188 L252 244 L328 24 L315 12 C313 10 313 7 313 4 C315 2 318 0 320 0 L459 0 C462 0 465 2 465 4 C466 7 465 10 465 12 L451 25 L322 343 L437 503 L438 503 L449 517 C451 517 451 519 451 522 C451 525 448 528 445 528 L316 528 C313 528 312 526 310 524 C309 522 310 518 312 517 L322 504 L211 355 L211 503 L224 517 C226 518 226 522 225 524 C224 526 221 528 218 528 L99 528 C96 528 93 526 92 524 C91 522 91 518 94 517 L106 503 L106 25 Z M153 480 C153 483 155 484 158 484 C161 484 162 483 162 480 L162 220 L365 492 C367 494 370 495 372 493 C374 491 375 488 373 486 L269 347 L383 52 C384 49 383 47 380 46 L379 46 C377 46 374 47 374 47 L262 337 L162 204 L162 49 C162 47 161 46 158 46 C155 46 153 47 153 49 L153 480 Z " />
<glyph glyph-name="l" unicode="l" horiz-adv-x="463" d="M94 12 C91 10 91 7 92 4 C93 2 96 0 99 0 L385 0 C389 0 391 4 391 7 L391 107 C391 111 389 114 388 115 L385 115 C383 115 381 115 380 113 L367 101 L211 101 L211 503 L224 516 C226 518 226 521 225 523 C224 525 221 527 218 527 L99 527 C96 527 93 525 92 523 C91 521 91 518 94 516 L106 503 L106 25 L94 12 Z M153 479 C153 482 155 484 158 484 C161 484 162 482 162 479 L162 55 L343 55 C346 55 348 52 348 49 C348 47 346 45 343 45 L158 45 C155 45 153 47 153 49 L153 479 Z " />
<glyph glyph-name="m" unicode="m" horiz-adv-x="596" d="M525 4 C525 7 525 10 523 12 L511 25 L511 503 L523 517 C525 518 525 522 525 524 C523 526 521 528 518 528 L410 528 C408 528 406 527 405 525 L313 389 L212 525 C211 527 209 528 207 528 L99 528 C96 528 93 526 92 524 C91 522 91 518 94 517 L106 503 L106 25 L94 12 C91 10 91 7 92 4 C93 2 96 0 99 0 L218 0 C221 0 224 2 225 4 C226 7 226 10 224 12 L211 25 L211 331 L302 216 L303 214 C304 212 306 210 309 210 C312 210 313 212 314 214 L327 232 L406 344 L406 25 L393 12 C391 10 390 7 391 4 C393 2 396 0 398 0 L518 0 C521 0 523 2 525 4 L525 4 Z M464 49 C464 47 461 46 458 46 C456 46 453 47 453 49 L453 465 L313 298 C313 297 312 296 310 296 C309 296 307 297 306 298 L163 465 L163 49 C163 47 161 46 159 46 C156 46 154 47 154 49 L154 480 C154 482 155 483 158 484 C159 484 161 484 162 483 L310 310 L455 483 C456 484 458 484 460 484 C462 483 464 482 464 480 L464 49 Z " />
<glyph glyph-name="n" unicode="n" horiz-adv-x="517" d="M445 4 C446 7 446 10 443 12 L431 25 L431 503 L443 517 C446 518 446 522 445 524 C444 526 441 528 438 528 L318 528 C315 528 313 526 312 524 C311 522 312 518 313 517 L325 503 L325 266 L213 524 C211 526 209 528 206 528 L99 528 C96 528 93 526 92 524 C91 522 91 518 94 517 L106 503 L106 25 L94 12 C91 10 91 7 92 4 C93 2 96 0 99 0 L218 0 C221 0 224 2 225 4 C226 7 226 10 224 12 L211 25 L211 267 L321 21 L313 12 C312 10 311 7 312 4 C313 2 315 0 318 0 L438 0 C441 0 444 2 445 4 L445 4 Z M382 48 C382 47 380 45 379 44 L377 44 C375 44 373 45 372 47 L164 459 L164 49 C164 47 161 46 159 46 C157 46 154 47 154 49 L154 480 C154 482 156 484 158 484 C160 484 162 484 163 482 L372 69 L372 480 C372 483 374 484 377 484 C380 484 382 483 382 480 L382 48 Z " />
<glyph glyph-name="o" unicode="o" horiz-adv-x="527" d="M275 -8 C344 -8 391 8 422 40 C446 66 457 104 457 159 L457 370 C457 423 446 461 422 487 C392 520 344 535 275 535 C205 535 158 520 127 488 C104 461 91 423 91 370 L91 159 C91 104 104 66 127 40 C157 8 204 -8 275 -8 L275 -8 Z M141 364 C141 446 184 490 265 490 L286 490 C367 490 410 446 410 364 L410 166 C410 90 361 42 286 42 L265 42 C226 42 194 53 173 74 C151 97 141 128 141 166 L141 364 Z M265 52 L286 52 C319 52 347 63 368 81 C389 102 400 132 400 166 L400 364 C400 441 362 480 286 480 L265 480 C190 480 149 440 149 364 L149 166 C149 130 160 102 180 82 C200 62 228 52 265 52 L265 52 Z M198 185 L198 343 C198 370 202 390 213 406 C225 421 243 428 269 428 L279 428 C313 428 351 414 351 343 L351 185 C351 159 346 138 336 123 C324 107 305 100 279 100 L269 100 C236 100 198 115 198 185 L198 185 Z " />
<glyph glyph-name="p" unicode="p" horiz-adv-x="483" d="M268 528 L99 528 C96 528 93 526 92 524 C91 522 91 518 94 517 L106 503 L106 25 L94 12 C91 9 91 7 92 4 C93 2 96 0 99 0 L218 0 C221 0 224 2 225 4 C226 7 226 9 224 12 L211 25 L211 140 L268 140 C316 140 353 153 378 181 C400 206 411 241 411 283 L411 384 C411 427 401 462 380 485 C356 514 318 528 268 528 L268 528 Z M363 289 C363 249 351 220 328 204 C310 192 285 185 251 185 L165 185 L165 49 C165 47 162 45 160 45 C158 45 155 47 155 49 L155 479 C155 482 158 484 160 484 L258 484 C282 484 363 477 363 389 L363 289 Z M258 474 L165 474 L165 196 L251 196 C301 196 352 207 352 289 L352 389 C352 415 344 474 258 474 L258 474 Z M306 307 C306 281 301 265 288 255 C275 244 256 239 224 239 L211 239 L211 427 L224 427 C257 427 276 423 288 414 C301 405 306 388 306 360 L306 307 Z " />
<glyph glyph-name="q" unicode="q" horiz-adv-x="526" d="M275 -8 L289 -8 L313 -43 C313 -45 316 -46 318 -46 L408 -46 C410 -46 413 -44 414 -42 C415 -39 415 -37 414 -34 L382 12 C409 25 429 44 441 70 C451 93 457 123 457 159 L457 370 C457 423 446 461 422 487 C392 520 345 535 275 535 C205 535 158 520 127 488 C104 461 91 423 91 370 L91 159 C91 104 104 66 127 40 C157 8 204 -8 275 -8 L275 -8 Z M140 364 C140 446 183 490 264 490 L285 490 C367 490 409 446 409 364 L409 166 C409 104 375 59 320 47 L350 -6 C351 -9 351 -12 348 -13 C347 -13 346 -13 346 -13 C344 -13 342 -13 341 -11 L310 44 C301 43 294 42 285 42 L264 42 C226 42 194 53 173 75 C150 97 140 128 140 166 L140 364 Z M264 52 L285 52 C318 52 346 63 367 81 C389 102 400 132 400 166 L400 364 C400 441 361 480 285 480 L264 480 C189 480 149 440 149 364 L149 166 C149 130 160 102 180 82 C199 62 228 52 264 52 L264 52 Z M198 185 L198 343 C198 370 202 390 213 406 C225 421 243 428 269 428 L279 428 C313 428 351 414 351 343 L351 185 C351 159 346 138 336 123 C324 107 305 100 279 100 L269 100 C236 100 198 115 198 185 L198 185 Z " />
<glyph glyph-name="r" unicode="r" horiz-adv-x="495" d="M225 4 C226 7 226 10 224 12 L211 25 L211 140 L242 140 L295 24 L285 11 C282 9 282 7 283 4 C284 1 286 -1 290 -1 L416 -1 C420 -1 423 1 423 4 C424 7 424 9 422 11 L408 25 L347 158 C369 168 385 186 396 209 C406 229 411 255 411 283 L411 384 C411 427 401 462 380 485 C356 514 318 528 268 528 L99 528 C96 528 93 526 92 524 C91 522 91 518 94 517 L106 503 L106 25 L94 12 C91 10 91 7 92 4 C93 2 96 0 99 0 L218 0 C221 0 224 2 225 4 L225 4 Z M164 49 C164 47 161 45 159 45 C157 45 154 47 154 49 L154 479 C154 482 157 484 159 484 L257 484 C282 484 362 477 362 389 L362 289 C362 249 351 221 327 204 C314 196 298 191 278 188 L345 52 C346 49 345 47 342 46 L340 46 C338 46 337 47 336 47 L269 186 L164 186 L164 49 Z M352 289 L352 389 C352 415 343 474 257 474 L164 474 L164 196 L250 196 C300 196 352 207 352 289 L352 289 Z M211 239 L211 428 L224 428 C257 428 276 424 288 414 C301 405 306 388 306 360 L306 308 C306 281 301 265 288 255 C275 244 256 239 224 239 L211 239 Z " />
<glyph glyph-name="s" unicode="s" horiz-adv-x="517" d="M282 -8 C349 -8 398 14 429 58 C456 96 460 141 461 163 C462 195 453 220 433 244 C409 274 370 299 313 324 C269 343 240 355 225 366 C210 376 208 385 209 397 C210 406 218 413 227 420 C239 426 254 430 269 430 C274 430 277 429 283 428 C323 422 342 392 346 387 L343 369 C342 366 343 363 346 362 C347 361 348 360 350 360 C351 360 352 361 353 362 L440 419 C444 421 445 425 443 427 C439 436 432 448 424 462 C414 476 405 487 393 498 C364 522 328 534 281 534 C226 534 180 521 146 495 C111 468 92 431 91 388 C90 347 107 312 143 281 C168 260 201 242 245 225 C281 210 304 199 320 185 C334 173 341 161 339 146 C337 130 331 118 320 109 C310 103 295 99 277 99 C263 99 248 104 234 113 C218 122 208 134 200 149 L203 171 C203 175 202 177 200 179 C199 180 198 180 196 180 C195 180 193 179 192 178 L102 107 C99 105 98 103 99 100 C102 91 110 69 132 47 C147 30 166 19 188 9 C215 -3 246 -8 282 -8 L282 -8 Z M159 101 C158 104 158 106 161 107 C163 108 166 107 167 106 C180 84 225 47 286 47 C315 47 383 56 394 140 C400 192 370 227 286 265 L259 277 C195 305 144 328 144 389 C144 421 159 446 186 465 C209 480 240 487 272 487 C331 487 361 452 375 435 C377 432 377 430 374 428 C372 427 370 427 368 428 C354 445 327 478 272 478 C242 478 213 470 192 457 C175 446 154 424 154 389 C154 333 200 313 263 286 L290 275 C332 255 361 237 379 218 C399 195 408 169 404 139 C399 103 384 76 359 59 C334 42 306 38 286 38 C252 38 223 49 206 58 C185 70 167 85 159 101 L159 101 Z " />
<glyph glyph-name="t" unicode="t" horiz-adv-x="508" d="M96 414 L99 414 C101 414 103 414 104 416 L116 428 L212 428 L212 25 L200 12 C199 10 198 7 199 4 C200 2 202 0 205 0 L325 0 C329 0 331 2 332 4 C332 7 332 10 330 12 L318 25 L318 428 L414 428 L427 416 C428 414 430 414 431 414 L434 414 C437 415 439 418 439 422 L439 522 C439 525 436 528 431 528 L99 528 C95 528 91 525 91 522 L91 422 C91 418 93 415 96 414 L96 414 Z M142 483 C144 484 144 484 265 484 L385 484 C388 484 389 482 389 479 C389 476 388 474 385 474 C358 474 314 474 272 474 L272 50 C272 47 270 46 267 46 C264 46 262 47 262 50 L262 474 C204 474 150 474 145 474 L144 474 C142 474 141 474 141 477 C140 479 141 483 142 483 L142 483 Z " />
<glyph glyph-name="u" unicode="u" horiz-adv-x="556" d="M106 503 L106 159 C106 104 117 66 142 40 C171 8 218 -8 289 -8 C358 -8 406 8 435 40 C460 66 471 104 471 159 L471 503 L484 517 C485 519 486 522 484 524 C484 526 482 528 479 528 L358 528 C355 528 353 526 352 524 C351 522 351 519 353 517 L366 503 L366 185 C366 158 361 138 351 123 C338 107 320 100 294 100 L284 100 C251 100 212 115 212 185 L212 343 L211 344 L211 503 L224 517 C225 518 226 520 226 522 C226 525 222 528 218 528 L99 528 C96 528 93 526 92 524 C91 522 91 519 94 517 L106 503 Z M152 477 C152 480 155 483 158 483 C160 483 162 480 162 477 L162 166 C162 130 173 102 192 82 C212 62 241 52 277 52 L297 52 C331 52 359 63 380 81 C402 102 413 132 413 166 L413 477 C413 480 414 483 418 483 C421 483 423 480 423 477 L423 166 C423 90 373 42 297 42 L277 42 C238 42 207 53 185 75 C164 97 152 128 152 166 L152 477 Z " />
<glyph glyph-name="v" unicode="v" horiz-adv-x="570" d="M106 503 L235 24 L226 11 C226 9 225 6 226 4 C227 2 230 0 233 0 L358 0 C361 0 363 2 365 4 C366 6 366 9 364 11 L356 24 L485 503 L498 517 C500 518 500 522 500 524 C499 526 496 528 492 528 L372 528 C370 528 368 526 366 524 C365 522 366 518 368 517 L380 504 L295 192 L212 504 L224 517 C225 517 226 519 226 522 C226 525 222 528 218 528 L99 528 C96 528 93 526 92 524 C91 522 91 518 94 517 L106 503 Z M158 484 C160 485 162 484 163 482 L296 55 L296 55 C297 55 297 55 297 55 L426 482 C427 484 429 485 431 484 C434 484 436 482 435 479 L307 52 C306 47 302 46 296 46 C293 46 288 47 287 52 L154 479 C153 482 155 484 158 484 L158 484 Z " />
<glyph glyph-name="w" unicode="w" horiz-adv-x="785" d="M212 504 L224 517 C226 518 226 522 225 524 C224 526 221 528 218 528 L99 528 C96 528 93 526 92 524 C91 522 91 518 94 517 L106 503 L235 24 L227 11 C226 9 226 6 226 4 C228 2 231 0 234 0 L331 0 C333 0 336 2 337 4 L410 207 L465 5 C465 3 468 0 472 0 L574 0 C577 0 578 2 579 4 C580 6 580 9 579 11 L571 24 L700 503 L713 517 C713 517 714 519 714 522 C714 525 712 528 708 528 L587 528 C585 528 582 526 581 524 C579 522 580 518 582 517 L594 504 L512 197 L444 503 L456 517 C457 518 458 522 457 524 C456 526 453 528 450 528 L323 528 C320 528 318 526 317 524 C315 522 316 518 318 517 L331 503 L363 385 L297 184 L212 504 Z M414 377 L387 479 C386 482 388 484 389 484 C392 485 395 484 396 482 L512 55 L512 55 C513 55 513 55 513 55 L639 482 C640 484 643 485 645 484 C649 484 650 482 649 479 L522 52 C522 47 517 46 512 46 C508 46 503 47 503 52 L502 53 L418 361 L303 52 C302 47 297 46 293 46 C288 46 284 47 283 52 L154 479 C153 482 155 484 158 484 C160 485 162 484 163 482 L293 55 L293 55 C294 55 294 55 294 55 L414 377 Z " />
<glyph glyph-name="x" unicode="x" horiz-adv-x="560" d="M474 26 L355 283 L452 503 L465 517 C465 518 466 522 465 524 C465 526 463 528 459 528 L339 528 C337 528 334 526 332 524 C332 522 332 518 334 517 L346 504 L291 382 L235 504 L246 517 C249 518 249 522 248 524 C247 526 244 528 241 528 L122 528 C119 528 116 526 115 524 C114 522 115 518 116 517 L128 503 L225 283 L106 26 L94 12 C91 10 91 7 92 4 C93 2 96 0 99 0 L218 0 C221 0 224 2 225 4 C226 7 226 10 224 12 L212 24 L286 183 L291 190 L294 183 L369 24 L356 12 C354 10 354 7 355 4 C356 2 359 0 362 0 L483 0 C484 0 487 2 488 4 C490 7 489 10 487 12 L474 26 Z M412 46 L409 46 C408 46 406 47 406 47 L288 275 L170 47 C169 47 167 46 166 46 L163 46 C161 47 160 49 161 52 L282 286 L183 476 C183 479 183 483 186 483 C189 484 192 483 193 482 L288 296 L383 482 C384 483 388 484 389 483 C391 483 392 479 391 476 L294 286 L414 52 C415 49 414 47 412 46 L412 46 Z " />
<glyph glyph-name="y" unicode="y" horiz-adv-x="519" d="M442 528 L321 528 C319 528 316 526 315 524 C313 522 314 518 316 517 L329 504 L271 390 L212 504 L224 517 C225 517 226 519 226 522 C226 525 222 528 218 528 L99 528 C96 528 93 526 92 524 C91 522 91 518 94 517 L106 503 L218 250 L218 25 L207 12 C204 9 204 7 205 4 C206 2 209 0 212 0 L332 0 C334 0 337 2 338 4 C339 7 338 9 337 12 L325 25 L325 250 L434 503 L447 517 C448 518 449 522 448 524 C447 526 445 528 442 528 L442 528 Z M375 476 L276 270 L276 49 C276 47 275 45 272 45 C269 45 267 47 267 49 L267 270 L165 476 C164 479 165 482 167 483 C170 484 173 483 174 481 L272 282 L367 481 C368 483 370 484 372 483 C375 483 376 479 375 476 L375 476 Z " />
<glyph glyph-name="z" unicode="z" horiz-adv-x="486" d="M96 414 C97 414 98 414 99 414 C101 414 103 414 104 416 L116 428 L287 428 L94 99 C93 98 93 98 93 96 L93 7 C93 4 97 0 100 0 L409 0 C414 0 416 4 416 7 L416 106 C416 110 414 113 412 114 C411 114 410 115 409 115 C408 115 406 114 405 112 L392 100 L221 100 L414 429 C414 430 415 431 415 432 L415 522 C415 523 414 525 413 526 C412 527 410 528 408 528 L99 528 C95 528 91 525 91 521 L91 422 C91 418 93 415 96 414 L96 414 Z M144 484 L360 484 C365 484 370 483 372 477 C375 473 375 467 372 464 L142 61 C141 59 142 57 142 56 C142 56 143 55 145 55 L364 55 C367 55 369 52 369 49 C369 47 367 45 364 45 L145 45 C141 45 136 47 133 52 C131 56 131 62 133 66 L364 468 C365 470 364 472 364 473 C363 473 363 474 360 474 L144 474 C142 474 140 477 140 480 C140 483 142 484 144 484 L144 484 Z " />
<glyph glyph-name="braceleft" unicode="&#x7b;" horiz-adv-x="351" d="M94 254 C109 241 118 216 119 178 C120 146 115 107 106 63 C103 43 102 24 105 6 C108 -11 115 -27 125 -39 C144 -62 172 -73 205 -73 L274 -73 C277 -73 281 -70 281 -66 L281 43 C281 46 279 47 277 49 L274 49 C272 49 270 48 269 47 L256 36 L241 36 C231 36 223 39 218 47 C209 55 207 71 210 88 C211 96 214 104 216 113 C221 132 227 156 227 181 C227 210 218 236 200 259 C218 283 227 309 227 337 C227 363 221 386 216 406 C214 414 211 423 210 430 C207 448 209 463 218 472 C223 480 231 483 241 483 L256 483 L269 470 C270 469 272 468 274 468 C275 468 276 468 277 469 C279 470 281 473 281 475 L281 585 C281 588 277 592 274 592 L205 592 C172 592 144 579 125 558 C115 544 108 530 105 512 C102 495 103 476 106 456 C115 411 120 371 119 341 C118 303 109 277 94 265 C92 263 91 261 91 259 C91 257 92 255 94 254 L94 254 Z M146 263 C181 314 172 356 161 400 C157 421 151 441 151 464 C151 527 198 541 236 541 C238 541 240 540 240 536 C240 534 238 532 236 532 C217 532 200 528 189 521 C171 510 161 491 161 464 C161 443 166 423 171 402 C181 359 192 314 157 260 C200 198 184 141 172 96 C169 86 166 78 165 69 C159 42 161 22 172 10 C182 -3 200 -10 229 -10 C232 -10 235 -11 235 -14 C235 -17 232 -19 229 -19 C198 -19 176 -12 164 4 C151 19 149 41 156 71 C158 81 160 89 162 99 C175 145 191 198 146 258 C144 260 144 261 146 263 L146 263 Z " />
<glyph glyph-name="bar" unicode="&#x7c;" horiz-adv-x="267" d="M191 563 L99 563 C95 563 91 560 91 557 L91 -37 C91 -40 95 -44 99 -44 L191 -44 C194 -44 198 -40 198 -37 L198 557 C198 560 194 563 191 563 L191 563 Z M149 9 C149 7 146 4 143 4 C141 4 139 7 139 9 L139 510 C139 513 141 516 143 516 C146 516 149 513 149 510 L149 9 Z " />
<glyph glyph-name="braceright" unicode="&#x7d;" horiz-adv-x="351" d="M281 254 C283 255 284 257 284 259 C284 261 283 263 281 265 C265 277 256 303 256 341 C255 371 259 411 269 456 C273 476 273 495 269 512 C266 530 259 544 249 558 C231 579 203 592 170 592 L101 592 C97 592 94 588 94 585 L94 475 C94 473 96 470 98 469 C99 468 100 468 101 468 C103 468 104 469 106 470 L119 483 L133 483 C143 483 152 480 158 472 C166 463 168 448 165 430 L159 406 C154 386 148 363 148 337 C148 309 157 283 174 259 C157 236 148 210 148 181 C148 156 154 132 159 113 C161 104 163 96 165 88 C168 71 166 55 158 47 C152 39 143 36 133 36 L119 36 L106 47 C104 48 103 49 101 49 L98 49 C96 47 94 46 94 43 L94 -66 C94 -70 97 -73 101 -73 L170 -73 C203 -73 231 -62 249 -39 C259 -27 266 -11 269 6 C273 24 273 43 269 63 C259 107 255 146 256 178 C256 216 265 241 281 254 L281 254 Z M232 258 C187 198 201 145 215 99 L222 71 C228 41 226 19 214 4 C201 -12 180 -19 149 -19 C145 -19 143 -17 143 -14 C143 -11 145 -10 149 -10 C176 -10 196 -3 206 10 C217 22 218 42 212 69 C210 78 208 86 205 96 C192 141 177 198 221 260 C186 314 197 359 207 402 C211 423 217 443 217 464 C217 491 207 510 189 521 C177 528 161 532 142 532 C140 532 137 534 137 536 C137 540 140 541 142 541 C180 541 226 527 226 464 C226 441 221 421 217 400 C206 356 197 314 232 263 C233 261 233 260 232 258 L232 258 Z " />
<glyph glyph-name="asciitilde" unicode="&#x7e;" horiz-adv-x="507" d="M276 209 C286 216 293 221 304 221 C316 221 325 216 330 205 L335 191 C335 187 338 185 342 185 L429 184 C431 184 432 185 433 187 C435 189 436 191 436 192 C435 218 426 247 412 269 C397 291 371 317 325 317 C283 317 265 303 251 291 C241 283 235 277 222 277 C210 277 201 283 197 294 C194 300 193 306 192 310 C192 313 189 316 185 316 L98 316 C97 316 95 315 93 313 C92 312 91 311 91 309 C92 283 102 254 116 233 C131 210 158 183 205 183 C245 183 262 198 276 209 L276 209 Z M142 277 L142 277 C141 280 142 283 144 284 C147 285 150 283 151 280 L151 279 C155 264 167 230 211 230 C237 230 250 241 262 253 C276 266 290 277 318 277 C348 277 363 263 371 251 C379 237 380 224 380 224 C380 221 378 218 375 218 L375 218 C372 218 370 220 370 223 C370 225 366 269 318 269 C294 269 282 257 269 245 C256 234 241 219 211 219 C161 219 145 260 142 277 L142 277 Z " />
<glyph glyph-name="exclamdown" unicode="&#xa1;" horiz-adv-x="382" d="M210 245 L122 245 C118 245 115 242 115 238 L94 -119 C94 -122 96 -126 101 -126 L232 -126 C233 -126 235 -125 237 -123 C238 -122 239 -120 239 -119 L217 238 C217 242 214 245 210 245 L210 245 Z M163 410 C123 410 92 378 92 339 C92 300 123 269 163 269 C201 269 232 300 232 339 C232 378 201 410 163 410 L163 410 Z M172 -78 C172 -80 169 -81 167 -81 C164 -81 162 -80 162 -78 L162 196 C162 199 164 201 167 201 C169 201 172 199 172 196 L172 -78 Z M164 321 C151 321 142 331 142 342 C142 355 151 364 164 364 C175 364 185 355 185 342 C185 331 175 321 164 321 L164 321 Z M164 355 C156 355 151 349 151 342 C151 337 156 331 164 331 C169 331 174 337 174 342 C174 349 169 355 164 355 L164 355 Z " />
<glyph glyph-name="cent" unicode="&#xa2;" horiz-adv-x="464" d="M371 120 C387 141 393 169 393 209 L393 249 C393 253 389 256 387 256 L302 256 C299 256 296 255 295 252 C294 249 294 246 296 243 L306 235 L306 230 C306 207 301 190 292 178 C281 166 267 161 247 161 L238 161 C211 161 180 173 180 230 L180 291 C180 313 183 331 194 343 C203 354 218 360 238 360 L247 360 C278 360 298 344 303 312 L296 304 C294 302 294 299 294 296 C295 294 298 293 302 293 L387 293 C389 293 393 295 393 299 L393 312 C393 351 387 380 371 401 C353 426 325 440 284 446 L284 505 C284 509 281 512 277 512 L208 512 C204 512 200 509 200 505 L200 446 C160 440 132 426 114 401 C99 379 91 351 91 312 L91 209 C91 169 98 141 114 120 C132 94 160 80 200 73 L200 12 C200 9 204 5 208 5 L277 5 C281 5 284 9 284 12 L284 73 C325 80 353 94 371 120 L371 120 Z M249 113 L249 49 C249 47 246 45 243 45 C241 45 238 47 238 49 L238 113 C200 113 173 122 157 139 C141 155 132 179 132 213 L132 303 C132 325 132 358 156 382 C174 399 200 408 238 409 L238 468 C238 471 241 473 243 473 C246 473 249 471 249 468 L249 409 C285 408 312 399 330 381 C349 363 350 341 350 335 C350 332 348 330 346 330 C342 330 340 332 340 335 C340 341 337 399 243 399 C206 399 180 391 163 375 C142 354 142 325 142 303 L142 213 C142 181 149 160 163 145 C179 130 205 123 243 123 C317 123 346 148 346 215 C346 218 348 219 351 219 C353 219 355 218 355 215 C355 144 323 114 249 113 L249 113 Z " />
<glyph glyph-name="sterling" unicode="&#xa3;" horiz-adv-x="544" d="M439 43 C463 68 474 105 474 158 L474 209 C474 213 471 216 467 216 L362 216 C359 216 356 214 355 211 C354 209 354 206 356 203 L370 191 L370 184 C370 158 363 138 353 123 C341 106 322 99 297 99 L231 99 L231 207 L301 207 C304 207 308 210 308 215 L308 306 C308 310 304 313 301 313 L231 313 L231 339 C231 367 235 389 243 405 C252 420 263 427 277 427 L278 427 C293 427 304 427 314 422 C326 415 334 403 341 382 L338 365 C338 363 339 360 342 358 C344 357 345 357 346 357 C347 357 349 358 350 359 L444 426 C446 428 447 431 446 435 C414 500 359 534 289 534 L269 534 C231 534 195 520 167 492 C141 465 125 429 125 390 L125 313 L98 313 C95 313 91 310 91 306 L91 215 C91 210 95 207 98 207 L125 207 L125 6 C125 3 128 -1 132 -1 L292 -1 C362 -1 409 13 439 43 L439 43 Z M175 44 C172 44 170 46 170 48 L170 253 L136 253 C133 253 131 255 131 258 C131 260 133 262 136 262 L170 262 L170 337 C170 401 180 440 201 464 C223 484 252 489 289 489 C311 489 339 484 361 464 C373 450 377 438 377 437 C378 434 376 431 373 431 C371 430 369 431 368 434 C367 436 354 479 289 479 C225 479 180 468 180 337 L180 262 L245 262 C249 262 251 260 251 258 C251 255 249 253 245 253 L180 253 L180 53 L279 53 C318 53 350 60 371 72 C399 88 413 113 413 146 L413 168 C413 171 414 174 418 174 C421 174 423 171 423 168 L423 146 C423 80 371 44 279 44 L175 44 Z " />
<glyph glyph-name="currency" unicode="&#xa4;" horiz-adv-x="577" d="M91 432 C91 431 92 429 94 428 L137 385 C123 360 116 329 116 287 L116 237 C116 196 123 164 137 140 L94 97 C90 94 90 89 94 86 L142 38 C143 36 145 36 148 36 C149 36 151 36 152 38 L200 86 C226 76 260 71 299 71 C337 71 371 76 397 86 L446 38 C447 36 448 36 450 36 C452 36 454 36 456 38 L504 86 C507 89 507 94 504 97 L461 140 C474 164 482 196 482 237 L482 287 C482 329 475 360 461 385 L504 428 C507 431 507 435 504 438 L456 486 C454 488 452 489 450 489 C448 489 447 488 446 486 L397 439 C371 448 337 453 299 453 C260 453 226 448 200 439 L152 486 C151 488 149 489 148 489 C145 489 143 488 142 486 L94 438 C92 437 91 435 91 432 L91 432 Z M195 159 C175 182 164 216 164 258 C164 302 175 337 194 362 L199 367 L144 425 C142 427 142 430 144 431 C147 433 149 433 151 431 L206 373 C229 394 261 405 303 405 C339 405 369 396 389 379 L389 380 L446 439 C447 440 450 441 452 439 C454 437 455 434 452 431 L397 372 L408 362 C427 337 436 302 436 258 C436 213 427 181 409 159 L402 151 L456 94 C457 92 457 89 455 87 C454 86 453 86 452 86 C450 86 448 86 448 87 L395 145 C372 128 342 121 302 121 C260 121 228 130 205 149 L151 91 C150 90 149 89 148 89 C147 89 145 90 144 91 C142 93 142 97 144 98 L199 156 C198 158 196 158 195 159 L195 159 Z M302 130 C350 130 382 142 402 165 C419 185 427 215 427 258 C427 300 417 332 400 354 C380 381 347 394 303 394 C257 394 223 381 201 354 C183 332 174 299 174 258 C174 218 183 186 202 166 C224 142 257 130 302 130 L302 130 Z M221 260 L221 264 C222 290 227 311 238 324 C251 338 269 346 294 346 L304 346 C337 346 375 332 376 264 L376 260 C376 235 370 216 360 201 C348 186 329 179 304 179 L294 179 C261 179 223 193 221 260 L221 260 Z " />
<glyph glyph-name="yen" unicode="&#xa5;" horiz-adv-x="518" d="M434 503 L446 517 C448 518 448 520 448 522 C448 525 446 528 442 528 L321 528 C319 528 316 526 315 524 C313 522 314 519 316 517 L329 504 L271 390 L212 504 L224 517 C226 519 226 522 225 524 C224 526 221 528 218 528 L98 528 C96 528 93 526 92 524 C91 522 91 519 93 517 L106 503 L198 297 L176 297 C172 297 168 294 168 291 L168 221 C168 218 172 215 176 215 L218 215 L218 192 L176 192 C172 192 168 190 168 185 L168 116 C168 113 172 109 176 109 L218 109 L218 25 L207 12 C204 10 204 7 205 4 C206 2 209 0 211 0 L332 0 C334 0 337 2 337 4 C339 7 338 10 337 12 L324 25 L324 109 L368 109 C371 109 374 113 374 116 L374 185 C374 190 371 192 368 192 L324 192 L324 215 L368 215 C371 215 374 218 374 221 L374 291 C374 294 371 297 368 297 L346 297 L434 503 Z M374 477 L276 270 L276 258 L327 258 C329 258 332 256 332 253 C332 251 329 248 327 248 L276 248 L276 157 L327 157 C329 157 332 154 332 151 C332 149 329 146 327 146 L276 146 L276 49 C276 47 274 46 271 46 C269 46 266 47 266 49 L266 146 L217 146 C214 146 212 149 212 151 C212 154 214 157 217 157 L266 157 L266 248 L217 248 C214 248 212 251 212 253 C212 256 214 258 217 258 L266 258 L266 270 L165 477 C163 480 164 483 166 483 C169 484 173 484 174 482 L271 283 L366 482 C367 484 370 484 372 483 C375 483 376 480 374 477 L374 477 Z " />
<glyph glyph-name="brokenbar" unicode="&#xa6;" horiz-adv-x="267" d="M198 -36 L198 229 C198 234 194 236 190 236 L98 236 C95 236 91 234 91 229 L91 -36 C91 -39 95 -43 98 -43 L190 -43 C194 -43 198 -39 198 -36 L198 -36 Z M98 564 C95 564 91 560 91 558 L91 293 C91 289 95 286 98 286 L190 286 C194 286 198 289 198 293 L198 558 C198 560 194 564 190 564 L98 564 Z M150 3 C150 0 148 -3 145 -3 C142 -3 141 0 141 3 L141 188 C141 191 142 193 145 193 C148 193 150 191 150 188 L150 3 Z M150 335 C150 332 148 330 145 330 C142 330 141 332 141 335 L141 521 C141 523 142 525 145 525 C148 525 150 523 150 521 L150 335 Z " />
<glyph glyph-name="section" unicode="&#xa7;" horiz-adv-x="542" d="M350 378 C309 395 286 406 275 414 C263 422 262 427 263 438 C265 453 291 465 312 465 C315 465 320 465 323 464 C356 457 371 433 374 428 L372 416 C371 413 373 410 375 408 C377 408 378 408 380 408 C380 408 382 408 383 408 L453 455 C457 457 457 461 456 465 C447 482 435 503 414 521 C390 542 361 551 322 551 C277 551 237 541 210 519 C181 498 166 466 165 430 C165 414 167 399 174 386 C149 377 129 363 115 345 C100 326 92 303 91 276 C90 243 105 214 135 188 C155 171 183 156 218 141 C248 130 268 120 279 109 C293 99 297 89 295 77 C294 64 290 54 280 47 C272 41 260 38 246 38 C235 38 221 43 209 49 C198 57 188 67 182 80 L184 96 C184 99 183 102 181 104 C180 104 179 104 178 104 C176 104 175 104 174 103 L100 47 C98 44 98 41 98 38 C100 30 107 12 124 -5 C138 -18 154 -29 172 -37 C194 -47 219 -50 249 -50 C305 -50 346 -32 371 4 C393 35 397 72 397 91 C397 101 397 108 396 116 C424 130 446 151 457 181 C468 207 471 232 471 244 C472 270 465 293 448 312 C428 336 396 357 350 378 L350 378 Z M434 221 C430 193 417 170 397 155 C380 142 360 137 339 137 L337 137 C354 118 363 96 360 67 C356 37 343 13 320 -2 C299 -16 274 -19 256 -19 C225 -19 200 -10 185 -2 C166 9 151 21 143 35 C142 37 142 40 145 42 C147 43 150 42 152 40 C163 21 201 -10 256 -10 C281 -10 341 -2 351 68 C355 113 329 142 255 175 L232 185 C175 209 130 228 130 281 C130 309 143 332 167 347 C188 360 216 367 243 367 L248 367 C221 383 204 403 204 435 C204 463 218 485 242 501 C262 514 290 521 317 521 C370 521 396 490 408 475 C410 474 410 470 408 468 C406 466 403 466 401 469 C389 483 365 510 317 510 C292 510 266 504 247 492 C232 483 214 465 214 435 C214 393 247 375 294 354 L294 354 L310 348 L333 338 C399 310 441 278 434 221 L434 221 Z M329 329 L305 339 C300 341 294 344 290 346 C276 351 257 357 243 357 C217 357 192 351 173 338 C158 329 140 312 140 281 C140 235 180 218 235 194 C243 192 251 188 258 184 C285 173 307 161 324 147 C348 143 372 149 390 163 C408 176 421 197 423 222 C429 267 403 296 329 329 L329 329 Z M370 231 C368 217 354 200 332 200 C327 200 321 201 316 204 L286 218 L275 222 C237 238 215 249 202 257 C190 267 188 275 189 285 C191 299 217 312 237 312 C242 312 245 311 250 311 C254 310 268 304 290 295 L290 294 L292 294 C320 283 340 273 353 262 C365 252 370 242 370 231 L370 231 Z " />
<glyph glyph-name="dieresis" unicode="&#xa8;" horiz-adv-x="330" d="M131 465 C152 465 169 484 169 505 C169 526 152 543 131 543 C109 543 91 526 91 505 C91 484 109 465 131 465 L131 465 Z M130 517 C136 517 141 511 141 506 C141 500 136 495 130 495 C123 495 120 500 120 506 C120 511 123 517 130 517 L130 517 Z M221 541 C200 541 183 524 183 503 C183 483 200 465 221 465 C243 465 260 483 260 503 C260 524 243 541 221 541 L221 541 Z M222 494 C217 494 211 499 211 504 C211 509 217 514 222 514 C228 514 233 509 233 504 C233 499 228 494 222 494 L222 494 Z " />
<glyph glyph-name="copyright" unicode="&#xa9;" horiz-adv-x="538" d="M264 465 C218 465 175 447 142 414 C109 382 91 338 91 294 L91 243 C91 197 109 154 142 122 C175 88 218 70 264 70 L294 70 C340 70 384 88 416 122 C448 154 466 197 466 243 L466 294 C466 338 448 382 416 414 C384 447 340 465 294 465 L264 465 Z M407 386 C429 356 440 315 440 263 C440 210 431 173 409 146 C384 115 342 99 282 99 C226 99 184 115 158 146 C132 174 120 214 120 263 C120 315 132 356 156 387 C183 421 226 439 284 439 C339 439 380 421 407 386 L407 386 Z M130 263 C130 217 142 179 164 153 C190 123 229 109 282 109 C338 109 378 123 402 152 C422 177 431 213 431 263 C431 313 420 352 399 380 C374 412 336 428 284 428 C214 428 130 400 130 263 L130 263 Z M367 370 C389 350 399 321 399 293 L399 249 C399 219 389 192 367 171 C346 149 319 139 289 139 L269 139 C240 139 213 149 192 171 C171 192 159 219 159 249 L159 293 C159 321 171 350 192 370 C213 390 240 403 269 403 L289 403 C319 403 346 390 367 370 L367 370 Z M200 358 C186 344 180 323 180 294 L180 247 C180 218 186 198 199 183 C216 165 242 157 279 157 C317 157 344 164 359 179 C372 192 379 211 379 240 L379 265 C379 269 375 272 371 272 L321 272 C319 272 316 270 315 268 C313 265 314 262 316 260 L320 257 L320 254 C320 227 310 218 282 218 L276 218 C263 218 254 221 248 230 C242 237 239 248 239 261 L239 279 C239 293 242 303 246 311 C252 320 262 324 276 324 L282 324 C306 324 315 319 318 303 L316 300 C313 298 313 294 314 293 C315 290 318 288 321 288 L371 288 C375 288 379 292 379 295 L379 303 C379 331 372 349 360 362 C345 377 318 384 279 384 C242 384 216 375 200 358 L200 358 Z M219 345 C232 356 252 363 279 363 C305 363 324 356 337 345 C350 332 351 319 351 314 C351 312 349 310 346 310 C343 310 341 312 341 314 C341 319 339 353 279 353 C255 353 237 347 226 337 C215 325 215 308 215 294 L215 240 C215 208 226 186 279 186 C325 186 345 203 345 245 C345 248 346 250 349 250 C352 250 354 248 354 245 C354 199 330 176 279 176 C227 176 204 195 204 240 L204 294 C204 309 204 329 219 345 L219 345 Z " />
<glyph glyph-name="ordfeminine" unicode="&#xaa;" horiz-adv-x="274" d="M249 342 L242 348 L178 588 L182 594 C183 596 183 597 182 598 C182 599 181 600 179 600 L117 600 C115 600 114 599 113 598 C113 597 113 596 113 594 L117 588 L53 348 L47 342 C45 340 45 339 46 338 C46 337 48 336 49 336 L109 336 C110 336 112 337 113 338 C113 339 113 340 112 342 L106 348 L118 394 L177 394 L190 348 L184 342 C183 340 183 339 183 338 C184 337 185 336 186 336 L246 336 C248 336 249 337 250 338 C250 339 250 340 249 342 L249 342 Z M214 359 L213 359 C212 359 211 359 211 360 L193 420 L102 420 L84 360 C84 359 83 358 81 359 C80 359 79 360 80 361 L142 574 C142 577 144 578 147 578 C149 578 151 577 151 574 L215 361 C216 360 215 359 214 359 L214 359 Z M147 573 L103 425 L191 425 L147 573 L147 573 Z M164 444 L131 444 L147 504 L164 444 Z " />
<glyph glyph-name="guillemotleft" unicode="&#xab;" horiz-adv-x="568" d="M95 230 L294 99 C296 99 297 98 299 98 C300 98 301 98 303 99 C304 101 306 103 306 105 L306 197 C306 199 304 201 302 202 L167 264 L302 326 C304 327 306 329 306 332 L306 423 C306 426 304 428 303 429 C301 430 300 430 299 430 C297 430 296 430 294 429 L95 298 C93 296 91 294 91 293 L91 236 C91 234 93 231 95 230 L95 230 Z M495 429 C493 430 492 430 491 430 C490 430 489 430 487 429 L287 298 C286 296 284 294 284 293 L284 236 C284 234 286 231 287 230 L487 99 C489 99 490 98 491 98 C492 98 493 98 495 99 C497 101 499 103 499 105 L499 197 C499 199 497 201 494 202 L360 264 L494 326 C497 327 499 329 499 332 L499 423 C499 426 497 428 495 429 L495 429 Z M136 293 L136 294 L270 365 C273 366 275 365 277 363 C277 361 277 357 275 356 L141 284 C133 279 130 272 130 264 C131 256 136 249 143 245 L143 244 L275 165 C276 164 277 161 276 158 C275 157 274 156 272 156 C271 156 270 157 269 157 L140 236 C128 242 122 252 121 263 C120 275 125 286 136 293 L136 293 Z M466 356 L332 284 C326 279 321 272 322 264 C322 256 328 249 335 245 C336 245 336 244 336 244 L465 165 C468 164 469 161 467 158 C466 157 465 156 464 156 C463 156 462 157 461 157 L331 236 C320 242 313 252 312 263 C312 275 317 286 328 293 L329 294 L463 365 C465 366 467 365 468 363 C470 361 469 357 466 356 L466 356 Z " />
<glyph glyph-name="logicalnot" unicode="&#xac;" horiz-adv-x="433" d="M356 346 L99 346 C95 346 91 342 91 338 L91 269 C91 265 95 262 99 262 L280 262 L280 206 C280 202 284 199 287 199 L356 199 C361 199 363 202 363 206 L363 338 C363 342 361 346 356 346 L356 346 Z M327 239 C327 237 324 235 321 235 C319 235 316 237 316 239 L316 299 L135 299 C132 299 130 302 130 304 C130 307 132 310 135 310 L321 310 C324 310 327 307 327 304 L327 239 Z " />
<glyph glyph-name="uni00AD" unicode="&#xad;" horiz-adv-x="367" d="M99 235 L291 235 C294 235 297 237 297 241 L297 311 C297 313 294 317 291 317 L99 317 C95 317 91 313 91 311 L91 241 C91 237 95 235 99 235 L99 235 Z M129 278 L255 278 C257 278 260 276 260 274 C260 271 257 269 255 269 L129 269 C125 269 123 271 123 274 C123 276 125 278 129 278 L129 278 Z " />
<glyph glyph-name="registered" unicode="&#xae;" horiz-adv-x="474" d="M359 258 C389 290 405 331 405 374 C405 419 389 460 359 491 C329 522 290 540 248 540 C207 540 167 522 138 491 C107 460 91 419 91 374 C91 331 107 290 138 258 C167 227 207 210 248 210 C290 210 329 227 359 258 L359 258 Z M112 376 C112 457 174 522 249 522 C323 522 385 457 385 376 C385 296 323 232 249 232 C174 232 112 296 112 376 L112 376 Z M374 376 C374 450 318 511 249 511 C179 511 123 450 123 376 C123 302 179 241 249 241 C318 241 374 302 374 376 L374 376 Z M186 285 C185 286 185 286 184 286 L182 288 L175 294 L173 297 C155 318 144 346 144 372 L144 381 C144 410 156 438 175 459 C181 465 188 471 188 471 C206 484 226 491 248 491 C276 491 302 480 321 459 C341 438 352 410 352 381 L352 372 C352 346 342 318 324 297 C323 296 312 286 312 286 C294 271 272 262 248 262 C226 262 204 270 186 285 L186 285 Z M308 303 L289 343 C302 352 308 368 308 388 L308 408 C308 427 303 440 294 449 C285 459 271 464 253 464 L198 464 C195 464 192 462 192 459 C191 457 191 454 193 452 L193 302 C191 300 191 297 192 294 C192 293 195 291 198 291 L231 291 C234 291 236 293 237 294 C237 297 237 300 235 302 L235 332 L249 332 L262 302 C261 300 260 297 261 294 C263 293 265 291 268 291 L303 291 C306 291 309 293 310 294 C311 297 311 300 309 302 L308 303 Z M286 301 C286 300 285 300 284 300 C282 300 280 301 279 303 L257 350 L218 350 L218 305 C218 303 217 300 213 300 C210 300 209 303 209 305 L209 442 C209 446 210 447 213 447 L255 447 C272 447 292 439 292 414 L292 389 C292 370 283 356 268 351 L288 307 C290 305 288 302 286 301 L286 301 Z M281 389 L281 414 C281 423 277 438 255 438 L218 438 L218 359 L252 359 C272 359 281 370 281 389 L281 389 Z M266 399 C266 381 259 376 237 376 L235 376 L235 426 L237 426 C250 426 257 424 261 420 C265 416 266 411 266 403 L266 399 Z " />
<glyph glyph-name="macron" unicode="&#xaf;" horiz-adv-x="367" d="M91 532 L91 478 C91 474 95 471 99 471 L291 471 C294 471 297 474 297 478 L297 532 C297 536 294 539 291 539 L99 539 C95 539 91 536 91 532 L91 532 Z M129 511 L256 511 C258 511 260 508 260 506 C260 503 258 501 256 501 L129 501 C126 501 123 503 123 506 C123 508 126 511 129 511 L129 511 Z " />
<glyph glyph-name="degree" unicode="&#xb0;" horiz-adv-x="322" d="M173 579 C142 579 121 572 107 559 C97 546 91 529 91 505 L91 484 C91 460 97 444 107 431 C121 417 142 410 173 410 C202 410 224 417 237 431 C248 444 253 460 253 484 L253 505 C253 529 248 546 237 558 C224 572 202 579 173 579 L173 579 Z M175 433 C138 433 115 445 115 502 C115 536 136 556 173 556 C209 556 229 534 229 494 C229 453 212 433 175 433 L175 433 Z M173 545 C150 545 124 538 124 502 C124 452 141 443 175 443 C197 443 219 449 219 494 C219 528 203 545 173 545 L173 545 Z M175 466 L170 466 C166 466 160 467 155 471 C149 475 146 484 146 495 C146 507 149 523 170 523 L175 523 C182 523 188 522 192 517 C197 512 199 504 199 495 C199 483 196 466 175 466 L175 466 Z " />
<glyph glyph-name="plusminus" unicode="&#xb1;" horiz-adv-x="367" d="M291 200 L99 200 C95 200 91 199 91 194 L91 124 C91 122 95 118 99 118 L291 118 C294 118 297 122 297 124 L297 194 C297 199 294 200 291 200 L291 200 Z M256 156 L131 156 C127 156 125 158 125 160 C125 163 127 165 131 165 L256 165 C259 165 261 163 261 160 C261 158 259 156 256 156 L256 156 Z M291 363 L237 363 L237 417 C237 421 235 424 231 424 L159 424 C155 424 151 421 151 417 L151 363 L99 363 C95 363 91 360 91 355 L91 286 C91 283 95 279 99 279 L151 279 L151 226 C151 221 155 218 159 218 L231 218 C235 218 237 221 237 226 L237 279 L291 279 C294 279 297 283 297 286 L297 355 C297 360 294 363 291 363 L291 363 Z M259 316 L200 316 L200 258 C200 256 199 253 196 253 C193 253 191 256 191 258 L191 316 L132 316 C130 316 127 318 127 321 C127 324 130 326 132 326 L191 326 L191 385 C191 388 193 389 196 389 C199 389 200 388 200 385 L200 326 L259 326 C261 326 263 324 263 321 C263 318 261 316 259 316 L259 316 Z " />
<glyph glyph-name="twosuperior" unicode="&#xb2;" horiz-adv-x="274" d="M63 576 C51 563 45 547 46 531 C46 530 47 529 48 528 L98 500 C98 500 99 499 99 499 C100 499 101 500 102 500 C103 501 103 503 102 504 L99 512 C98 522 101 533 109 540 C114 547 121 550 130 550 C142 550 152 544 158 535 C164 527 164 518 160 510 C155 498 142 491 126 483 C112 475 98 467 83 454 C49 427 46 399 47 385 L47 339 C47 338 49 336 51 336 L206 336 C208 336 210 338 210 339 L210 392 C210 393 209 395 207 396 L206 396 C205 396 204 396 204 395 L197 389 L109 389 C109 400 123 408 143 420 C151 425 160 430 168 436 C204 460 222 489 220 521 C218 546 208 567 192 581 C176 596 155 603 130 603 C104 603 79 593 63 576 L63 576 Z M194 515 C192 486 165 468 136 451 L129 447 C102 433 78 419 77 363 L183 363 C184 363 185 363 185 361 C185 359 184 359 183 359 L74 359 C73 359 72 359 72 361 C72 421 100 437 126 452 L133 455 C162 472 187 489 188 515 C189 532 184 549 174 559 C164 570 149 575 130 575 C97 575 83 555 79 542 C78 541 76 540 75 541 C74 541 73 543 74 544 C79 558 94 580 130 580 C150 580 166 574 177 563 C188 551 194 534 194 515 L194 515 Z " />
<glyph glyph-name="threesuperior" unicode="&#xb3;" horiz-adv-x="263" d="M52 600 C49 600 48 598 48 597 L48 543 C48 542 49 540 50 540 C50 540 51 540 52 540 C52 540 53 540 53 541 L60 547 L125 547 L65 493 C64 493 64 492 64 491 L64 446 C64 445 64 444 65 444 C66 443 66 443 67 443 C68 443 68 443 69 443 C73 445 88 450 109 450 L111 450 C126 450 137 443 143 437 C147 432 154 423 154 415 C154 408 151 401 147 396 C140 389 132 385 121 385 C112 385 104 389 98 397 C93 402 91 407 91 408 L92 415 L92 416 C92 417 90 419 88 419 C87 419 87 419 86 418 L47 387 C46 386 45 385 46 383 C52 368 62 354 77 345 C91 337 108 332 125 332 C147 332 168 339 183 351 C191 359 198 368 203 378 C207 389 210 403 210 418 C210 433 206 446 199 457 C194 466 186 474 177 480 C164 489 151 493 147 494 L201 547 C202 547 202 548 202 549 L202 597 C202 598 200 600 198 600 L52 600 Z M74 578 L173 578 C176 578 179 576 181 573 C182 570 181 567 179 564 L96 479 C101 479 110 479 120 477 C143 474 160 466 169 454 C181 439 186 423 185 407 C183 393 176 380 164 371 C153 361 138 356 124 356 C122 356 121 357 119 357 C103 358 88 365 78 377 C77 378 77 380 78 381 C79 382 80 381 81 380 C91 369 105 363 120 361 C134 360 149 365 161 375 C172 383 178 395 180 407 C181 422 176 437 166 451 C143 478 90 473 90 473 C89 473 88 473 87 474 C87 475 87 476 88 477 L175 568 C176 568 176 569 176 571 C175 572 174 573 173 573 L74 573 C73 573 72 574 72 575 C72 577 73 578 74 578 L74 578 Z " />
<glyph glyph-name="acute" unicode="&#xb4;" horiz-adv-x="251" d="M105 540 L92 475 C92 474 92 471 94 470 C95 468 98 467 99 467 L130 467 C132 467 134 468 136 470 L180 534 C180 535 180 537 180 539 C180 542 178 545 174 545 L112 545 C108 545 106 542 105 540 L105 540 Z M118 500 L128 529 C129 532 132 534 134 533 C137 532 139 529 138 526 L127 496 C127 494 124 492 123 492 C123 492 123 492 122 493 C119 494 117 497 118 500 L118 500 Z " />
<glyph glyph-name="mu" unicode="&#xb5;" horiz-adv-x="596" d="M525 4 C525 7 525 10 523 12 L511 25 L511 503 L523 517 C525 518 525 522 525 524 C523 526 521 528 518 528 L410 528 C408 528 406 527 405 525 L313 389 L212 525 C211 527 209 528 207 528 L99 528 C96 528 93 526 92 524 C91 522 91 518 94 517 L106 503 L106 25 L94 12 C91 10 91 7 92 4 C93 2 96 0 99 0 L218 0 C221 0 224 2 225 4 C226 7 226 10 224 12 L211 25 L211 331 L302 216 L303 214 C304 212 306 210 309 210 C312 210 313 212 314 214 L327 232 L406 344 L406 25 L393 12 C391 10 390 7 391 4 C393 2 396 0 398 0 L518 0 C521 0 523 2 525 4 L525 4 Z M464 49 C464 47 461 46 458 46 C456 46 453 47 453 49 L453 465 L313 298 C313 297 312 296 310 296 C309 296 307 297 306 298 L163 465 L163 49 C163 47 161 46 159 46 C156 46 154 47 154 49 L154 480 C154 482 155 483 158 484 C159 484 161 484 162 483 L310 310 L455 483 C456 484 458 484 460 484 C462 483 464 482 464 480 L464 49 Z " />
<glyph glyph-name="paragraph" unicode="&#xb6;" horiz-adv-x="583" d="M360 4 C361 7 361 10 358 12 L346 25 L346 428 L393 428 L393 25 L381 12 C380 10 379 7 380 4 C381 2 384 0 387 0 L506 0 C509 0 512 2 513 4 C514 7 513 10 511 12 L500 25 L500 503 L511 517 C513 517 513 519 513 521 C513 525 510 528 506 528 L224 528 C224 528 223 528 222 527 C176 525 142 510 120 483 C101 459 91 426 91 384 L91 283 C91 241 104 206 124 182 C149 154 187 140 236 140 L241 140 L241 25 L228 12 C226 10 226 7 226 4 C228 2 231 0 234 0 L353 0 C356 0 359 2 360 4 L360 4 Z M300 473 L300 48 C300 47 297 44 294 44 C293 44 290 47 290 48 L290 185 L248 185 C214 185 189 191 171 203 C147 219 136 248 136 288 L136 389 C136 423 149 448 174 465 C197 481 226 483 240 483 L446 483 C448 483 450 481 450 478 L450 48 C450 47 448 44 446 44 C443 44 440 47 440 48 L440 473 L300 473 Z M146 389 L146 288 C146 206 198 195 248 195 L290 195 L290 473 L240 473 C155 473 146 414 146 389 L146 389 Z " />
<glyph glyph-name="periodcentered" unicode="&#xb7;" horiz-adv-x="303" d="M232 277 C232 316 200 347 161 347 C123 347 91 316 91 277 C91 238 123 206 161 206 C200 206 232 238 232 277 L232 277 Z M160 257 C148 257 139 266 139 278 C139 290 148 299 160 299 C172 299 181 290 181 278 C181 266 172 257 160 257 L160 257 Z M160 289 C153 289 148 284 148 278 C148 271 153 266 160 266 C166 266 171 271 171 278 C171 284 166 289 160 289 L160 289 Z " />
<glyph glyph-name="cedilla" unicode="&#xb8;" horiz-adv-x="304" d="M157 24 L99 24 C95 24 91 21 91 17 L91 -20 C91 -47 93 -63 102 -73 C109 -82 123 -84 145 -84 L149 -84 C158 -84 161 -86 161 -92 C161 -94 161 -98 151 -100 C143 -103 132 -103 124 -103 C123 -103 121 -103 118 -102 L115 -102 C113 -102 111 -103 109 -105 C108 -105 107 -107 107 -109 L107 -167 C107 -171 110 -175 115 -175 L155 -175 C183 -175 203 -168 217 -156 C228 -143 234 -124 234 -98 L234 -83 C234 -60 232 -42 223 -30 C211 -13 189 -12 171 -12 L164 -12 L164 17 C164 21 161 24 157 24 L157 24 Z M192 -48 C199 -57 203 -70 203 -90 C203 -109 199 -123 191 -130 C181 -140 168 -142 157 -142 C154 -142 151 -141 149 -141 L142 -141 C140 -141 137 -139 137 -135 C137 -133 140 -131 142 -131 L149 -131 C161 -131 175 -132 183 -124 C190 -117 193 -106 193 -90 C193 -73 191 -62 184 -56 C178 -49 167 -49 157 -50 L149 -50 C135 -50 128 -49 124 -47 C122 -43 122 -39 122 -34 L122 -5 C122 -3 123 0 126 0 C129 0 132 -3 132 -5 L132 -39 C133 -40 145 -40 149 -40 L156 -40 C168 -40 182 -40 192 -48 L192 -48 Z " />
<glyph glyph-name="onesuperior" unicode="&#xb9;" horiz-adv-x="189" d="M50 505 L51 505 C52 505 53 506 54 507 L60 517 L76 534 L76 348 L70 342 C69 341 69 339 70 338 C70 337 71 336 72 336 L133 336 C134 336 135 337 136 338 C137 339 136 341 135 342 L129 348 L129 587 L135 594 C136 595 137 596 136 597 C135 598 134 599 133 599 L79 599 C78 599 77 599 76 598 L46 557 C46 557 45 556 45 555 L47 509 C47 507 49 506 50 505 L50 505 Z M65 551 L90 577 C92 580 96 580 99 579 C102 578 104 575 104 571 L104 361 C104 359 103 359 102 359 C100 359 99 359 99 361 L99 571 C99 573 99 574 97 574 C96 575 95 575 94 574 L68 547 C67 547 66 547 65 547 C64 548 64 550 65 551 L65 551 Z " />
<glyph glyph-name="ordmasculine" unicode="&#xba;" horiz-adv-x="322" d="M173 579 C142 579 121 572 107 559 C97 546 91 529 91 505 L91 484 C91 460 97 444 107 431 C121 417 142 410 173 410 C202 410 224 417 237 431 C248 444 253 460 253 484 L253 505 C253 529 248 546 237 558 C224 572 202 579 173 579 L173 579 Z M175 433 C138 433 115 445 115 502 C115 536 136 556 173 556 C209 556 229 534 229 494 C229 453 212 433 175 433 L175 433 Z M173 545 C150 545 124 538 124 502 C124 452 141 443 175 443 C197 443 219 449 219 494 C219 528 203 545 173 545 L173 545 Z M175 466 L170 466 C166 466 160 467 155 471 C149 475 146 484 146 495 C146 507 149 523 170 523 L175 523 C182 523 188 522 192 517 C197 512 199 504 199 495 C199 483 196 466 175 466 L175 466 Z " />
<glyph glyph-name="guillemotright" unicode="&#xbb;" horiz-adv-x="568" d="M288 202 C286 201 284 199 284 197 L284 105 C284 103 286 101 287 99 C289 98 290 98 291 98 C293 98 294 99 294 99 L495 230 C498 231 499 234 499 236 L499 293 C499 294 498 296 495 298 L294 429 C294 430 293 430 291 430 C290 430 289 430 287 429 C286 428 284 426 284 423 L284 332 C284 329 286 327 288 326 L423 264 L288 202 Z M306 236 L306 293 C306 294 305 296 303 298 L103 429 C102 430 100 430 98 430 C98 430 97 430 95 429 C93 428 91 426 91 423 L91 332 C91 329 93 327 96 326 L230 264 L96 202 C93 201 91 199 91 197 L91 105 C91 103 93 101 95 99 C97 98 98 98 98 98 C100 98 102 99 103 99 L303 230 C305 231 306 234 306 236 L306 236 Z M444 284 L310 356 C307 357 306 361 308 363 C309 365 312 366 313 365 L448 294 L448 293 C459 286 465 275 465 263 C464 252 457 242 446 236 L315 157 C314 157 313 156 313 156 C312 156 310 157 309 158 C307 161 308 164 311 165 L440 244 L441 245 C448 249 454 256 454 264 C455 272 450 279 444 284 L444 284 Z M272 263 C271 252 264 242 253 236 L123 157 C123 157 122 156 121 156 C119 156 117 157 116 158 C115 161 116 164 118 165 L249 244 L249 245 C256 249 261 256 262 264 C262 272 259 279 252 284 L117 356 C115 357 115 361 115 363 C117 365 120 366 123 365 L256 294 L256 293 C267 286 273 275 272 263 L272 263 Z " />
<glyph glyph-name="onequarter" unicode="&#xbc;" horiz-adv-x="876" d="M262 -8 C263 -10 266 -11 268 -11 L359 -11 C361 -11 364 -10 366 -7 L561 521 C561 522 562 523 562 524 C562 527 558 531 555 531 L463 531 C462 531 459 529 457 526 L261 -2 C260 -4 260 -6 262 -8 L262 -8 Z M323 44 L487 481 C489 483 491 484 494 483 C497 483 498 480 497 477 L332 40 C331 38 330 37 328 37 L327 37 C324 38 322 41 323 44 L323 44 Z M76 387 L77 387 C78 387 79 388 81 390 L90 404 L115 430 L115 152 L106 142 C104 140 104 138 105 136 C106 134 106 133 109 133 L199 133 C202 133 203 134 204 136 C205 138 205 140 203 142 L193 152 L193 510 L203 520 C205 521 205 524 204 525 C203 527 202 528 199 528 L118 528 C117 528 115 527 114 527 L70 465 C69 464 68 463 68 462 L71 392 C71 390 73 388 76 387 L76 387 Z M97 455 L136 495 C139 499 144 500 149 497 C154 496 157 491 157 486 L157 170 C157 168 155 167 153 167 C151 167 149 168 149 170 L149 486 C149 488 148 490 146 491 C144 492 142 491 141 490 L103 450 C101 449 99 449 97 450 C96 452 96 454 97 455 L97 455 Z M539 178 L539 112 C539 109 542 106 545 106 L688 106 L688 19 L679 9 C677 7 677 5 678 3 C679 1 680 0 682 0 L773 0 C775 0 777 1 777 3 C778 5 778 7 777 9 L767 19 L767 106 L796 106 L805 97 C807 96 808 96 809 96 L811 96 C814 97 814 99 814 101 L814 176 C814 179 813 181 809 181 L767 181 L767 377 L777 387 C778 388 778 391 777 392 C777 394 775 395 773 395 L691 395 C691 395 688 394 688 394 L541 181 C540 181 539 179 539 178 L539 178 Z M573 167 L700 355 C704 362 711 364 718 362 C725 361 730 354 730 347 L730 146 L790 146 C792 146 794 145 794 143 C794 140 792 139 790 139 L730 139 L730 37 C730 35 729 34 727 34 C724 34 723 35 723 37 L723 139 L589 139 C581 139 576 142 572 149 C569 154 570 162 573 167 L573 167 Z M589 146 L723 146 L723 347 C723 351 720 355 717 355 C715 355 715 355 713 355 C711 355 708 355 706 352 L579 163 C577 160 577 156 578 151 C580 149 584 146 589 146 L589 146 Z M688 272 L688 181 L629 181 L688 272 Z " />
<glyph glyph-name="onehalf" unicode="&#xbd;" horiz-adv-x="908" d="M262 -8 C263 -10 266 -11 268 -11 L359 -11 C361 -11 364 -10 366 -7 L561 521 C561 522 562 523 562 524 C562 527 558 531 555 531 L463 531 C462 531 459 529 457 526 L261 -2 C260 -4 260 -6 262 -8 L262 -8 Z M323 44 L487 481 C489 483 491 484 494 483 C497 483 498 480 497 477 L332 40 C331 38 330 37 328 37 L327 37 C324 38 322 41 323 44 L323 44 Z M76 387 L77 387 C78 387 79 388 81 390 L90 404 L115 430 L115 152 L106 142 C104 140 104 138 105 136 C106 134 106 133 109 133 L199 133 C202 133 203 134 204 136 C205 138 205 140 203 142 L193 152 L193 510 L203 520 C205 521 205 524 204 525 C203 527 202 528 199 528 L118 528 C117 528 115 527 114 527 L70 465 C69 464 68 463 68 462 L71 392 C71 390 73 388 76 387 L76 387 Z M97 455 L136 495 C139 499 144 500 149 497 C154 496 157 491 157 486 L157 170 C157 168 155 167 153 167 C151 167 149 168 149 170 L149 486 C149 488 148 490 146 491 C144 492 142 491 141 490 L103 450 C101 449 99 449 97 450 C96 452 96 454 97 455 L97 455 Z M611 361 C594 341 585 317 586 292 C587 292 587 289 590 289 L664 246 C665 246 665 245 666 245 C667 245 668 246 670 247 C671 248 672 250 671 253 L665 264 C664 280 669 296 680 307 C688 316 699 321 713 321 C731 321 746 312 755 298 C763 286 764 274 758 262 C749 243 730 233 706 220 C686 208 664 197 641 178 C591 136 586 94 588 73 L588 5 C588 3 590 0 593 0 L827 0 C829 0 832 3 832 5 L832 85 C832 86 830 88 828 90 L827 90 C824 90 823 90 823 88 L813 79 L680 79 C681 96 701 108 731 126 C743 133 757 141 770 150 C824 187 850 229 847 278 C844 316 830 346 806 368 C781 390 749 401 712 401 C674 401 636 386 611 361 L611 361 Z M808 268 C806 225 765 199 721 173 L710 167 C671 145 634 124 633 41 L791 41 C794 41 794 40 794 38 C794 35 794 35 791 35 L629 35 C627 35 625 35 625 38 C625 128 667 151 707 174 L717 179 C760 204 798 229 800 268 C801 295 794 319 778 335 C764 351 740 359 712 359 C662 359 641 328 635 310 C635 307 632 306 629 307 C628 308 627 310 628 312 C636 333 658 367 712 367 C743 367 767 358 783 340 C800 323 809 297 808 268 L808 268 Z " />
<glyph glyph-name="threequarters" unicode="&#xbe;" horiz-adv-x="947" d="M336 -8 C337 -10 340 -11 342 -11 L433 -11 C435 -11 438 -10 440 -7 L635 521 C635 522 636 523 636 524 C636 527 632 531 629 531 L537 531 C536 531 533 529 531 526 L335 -2 C334 -4 334 -6 336 -8 L336 -8 Z M397 44 L561 481 C563 483 565 484 568 483 C571 483 572 480 571 477 L406 40 C405 38 404 37 402 37 L401 37 C398 38 396 41 397 44 L397 44 Z M78 529 C74 529 72 527 72 524 L72 444 C72 442 73 440 75 439 C76 439 76 439 78 439 C79 439 79 439 80 440 L91 450 L187 450 L97 369 C97 368 96 368 96 366 L96 298 C96 296 97 296 98 295 C99 294 100 293 101 293 C102 293 103 293 103 294 C109 296 132 304 163 304 L166 304 C190 304 206 293 214 284 C221 277 231 264 231 252 C231 242 227 231 220 223 C211 212 198 207 182 207 C168 207 156 212 147 225 C140 232 137 239 137 242 L138 251 L138 253 C138 255 136 257 133 257 C131 257 131 257 130 257 L70 210 C69 209 67 206 69 204 C78 181 93 161 116 147 C137 134 163 127 188 127 C221 127 253 137 274 156 C287 168 297 181 304 197 C310 213 315 234 315 257 C315 278 310 298 299 315 C292 328 280 340 265 350 C247 363 227 368 220 371 L302 450 C303 450 304 452 304 453 L304 524 C304 527 301 529 298 529 L78 529 Z M112 496 L259 496 C265 496 268 494 271 488 C273 484 272 479 269 476 L144 347 C152 347 166 347 181 345 C214 341 240 328 254 311 C272 288 280 264 277 239 C275 219 264 200 247 185 C229 171 208 164 186 164 C184 164 181 164 179 164 C155 166 133 177 117 195 C115 197 115 199 117 200 C118 202 121 201 121 200 C137 183 157 173 180 171 C202 170 224 177 242 191 C259 204 268 222 270 240 C272 263 265 284 249 305 C215 347 136 339 135 339 C134 339 132 339 131 341 C131 342 131 344 132 345 L263 481 C265 482 265 483 264 485 C263 488 262 488 259 488 L112 488 C110 488 108 490 108 492 C108 494 110 496 112 496 L112 496 Z M610 178 L610 112 C610 109 613 106 616 106 L759 106 L759 19 L750 9 C748 7 748 5 749 3 C750 1 751 0 753 0 L844 0 C846 0 848 1 848 3 C849 5 849 7 848 9 L838 19 L838 106 L867 106 L876 97 C878 96 879 96 880 96 L882 96 C885 97 885 99 885 101 L885 176 C885 179 884 181 880 181 L838 181 L838 377 L848 387 C849 388 849 391 848 392 C848 394 846 395 844 395 L762 395 C762 395 759 394 759 394 L612 181 C611 181 610 179 610 178 L610 178 Z M644 167 L771 355 C775 362 782 364 789 362 C796 361 801 354 801 347 L801 146 L861 146 C863 146 865 145 865 143 C865 140 863 139 861 139 L801 139 L801 37 C801 35 800 34 798 34 C795 34 794 35 794 37 L794 139 L660 139 C652 139 647 142 643 149 C640 154 641 162 644 167 L644 167 Z M660 146 L794 146 L794 347 C794 351 791 355 788 355 C786 355 786 355 784 355 C782 355 779 355 777 352 L650 163 C648 160 648 156 649 151 C651 149 655 146 660 146 L660 146 Z M759 272 L759 181 L700 181 L759 272 Z " />
<glyph glyph-name="questiondown" unicode="&#xbf;" horiz-adv-x="507" d="M434 3 L335 54 C334 54 333 55 332 55 C330 55 329 54 328 53 C325 50 324 47 326 45 L334 23 C335 3 329 -19 314 -33 C303 -46 287 -52 269 -52 C249 -52 234 -47 224 -34 C216 -22 214 -5 220 15 C226 35 249 50 283 73 C293 80 303 87 313 95 C337 111 351 132 358 160 C363 179 363 197 362 210 C361 214 358 217 354 217 L258 217 C256 217 254 216 253 215 C252 213 251 211 251 209 C252 195 250 183 240 170 C230 156 210 141 175 120 C146 103 125 83 112 60 C98 36 91 9 94 -19 C97 -57 116 -93 149 -119 C181 -144 225 -159 273 -159 C320 -159 368 -139 400 -104 C427 -74 440 -39 438 -4 C438 -1 437 2 434 3 L434 3 Z M303 242 C342 242 373 274 373 313 C373 351 342 383 303 383 C264 383 233 351 233 313 C233 274 264 242 303 242 L303 242 Z M391 -25 C391 -26 388 -48 370 -69 C354 -89 324 -113 269 -113 C224 -113 191 -101 170 -77 C145 -48 147 -13 149 5 C157 47 193 73 236 104 L268 126 C305 156 301 174 300 174 C299 176 301 179 303 180 C304 180 304 180 305 180 C307 180 309 179 310 177 C311 175 317 152 274 119 L242 96 C199 66 165 42 160 4 C158 -13 156 -46 177 -70 C196 -91 226 -103 269 -103 C310 -103 341 -90 362 -64 C378 -44 382 -23 382 -23 C382 -21 385 -18 388 -19 C390 -20 392 -22 391 -25 L391 -25 Z M306 337 C318 337 329 328 329 315 C329 303 318 294 306 294 C294 294 285 303 285 315 C285 328 294 337 306 337 L306 337 Z M306 303 C313 303 318 310 318 315 C318 322 313 328 306 328 C300 328 294 322 294 315 C294 310 300 303 306 303 L306 303 Z " />
<glyph glyph-name="Agrave" unicode="&#xc0;" horiz-adv-x="571" d="M499 12 L485 25 L356 504 L365 517 C366 520 366 522 365 525 C364 526 362 528 359 528 L234 528 C231 528 228 526 226 525 C226 522 226 520 227 517 L235 504 L106 25 L94 12 C91 9 91 7 92 4 C93 2 96 0 99 0 L218 0 C221 0 224 2 226 4 C226 7 226 9 224 12 L212 24 L237 117 L354 117 L380 24 L368 12 C366 9 366 7 367 4 C368 2 370 0 372 0 L493 0 C496 0 499 2 500 4 C501 7 500 9 499 12 L499 12 Z M428 46 L427 46 C425 46 423 47 423 48 L386 169 L204 169 L169 48 C168 47 166 45 163 46 C161 47 159 48 160 51 L284 477 C285 482 289 484 294 484 C298 484 302 483 303 477 L431 51 C432 48 431 47 428 46 L428 46 Z M294 474 L207 179 L383 179 L294 474 L294 474 Z M329 216 L263 216 L295 337 L329 216 Z M300 693 L248 693 C246 693 243 691 242 689 C240 686 240 685 242 683 L279 615 C280 612 282 611 285 611 L310 611 C313 611 315 612 316 613 C317 615 318 618 317 619 L307 686 C307 690 304 693 300 693 L300 693 Z M292 637 C291 636 291 636 291 636 C289 636 287 638 286 640 L275 669 C273 671 275 674 278 676 C281 677 283 675 284 672 L295 644 C296 641 295 638 292 637 L292 637 Z " />
<glyph glyph-name="Aacute" unicode="&#xc1;" horiz-adv-x="571" d="M499 12 L485 25 L356 504 L365 517 C366 520 366 522 365 525 C364 526 362 528 359 528 L234 528 C231 528 228 526 226 525 C226 522 226 520 227 517 L235 504 L106 25 L94 12 C91 9 91 7 92 4 C93 2 96 0 99 0 L218 0 C221 0 224 2 226 4 C226 7 226 9 224 12 L212 24 L237 117 L354 117 L380 24 L368 12 C366 9 366 7 367 4 C368 2 370 0 372 0 L493 0 C496 0 499 2 500 4 C501 7 500 9 499 12 L499 12 Z M428 46 L427 46 C425 46 423 47 423 48 L386 169 L204 169 L169 48 C168 47 166 45 163 46 C161 47 159 48 160 51 L284 477 C285 482 289 484 294 484 C298 484 302 483 303 477 L431 51 C432 48 431 47 428 46 L428 46 Z M294 474 L207 179 L383 179 L294 474 L294 474 Z M329 216 L263 216 L295 337 L329 216 Z M282 684 L269 619 C269 618 269 615 271 614 C272 612 275 611 276 611 L307 611 C309 611 311 612 313 614 L357 678 C357 679 357 681 357 683 C357 686 355 689 351 689 L289 689 C285 689 283 686 282 684 L282 684 Z M295 644 L305 673 C306 676 309 678 311 677 C314 676 316 673 315 670 L304 640 C304 638 301 636 300 636 C300 636 300 636 299 637 C296 638 294 641 295 644 L295 644 Z " />
<glyph glyph-name="Acircumflex" unicode="&#xc2;" horiz-adv-x="571" d="M499 12 L485 25 L356 504 L365 517 C366 520 366 522 365 525 C364 526 362 528 359 528 L234 528 C231 528 228 526 226 525 C226 522 226 520 227 517 L235 504 L106 25 L94 12 C91 9 91 7 92 4 C93 2 96 0 99 0 L218 0 C221 0 224 2 226 4 C226 7 226 9 224 12 L212 24 L237 117 L354 117 L380 24 L368 12 C366 9 366 7 367 4 C368 2 370 0 372 0 L493 0 C496 0 499 2 500 4 C501 7 500 9 499 12 L499 12 Z M428 46 L427 46 C425 46 423 47 423 48 L386 169 L204 169 L169 48 C168 47 166 45 163 46 C161 47 159 48 160 51 L284 477 C285 482 289 484 294 484 C298 484 302 483 303 477 L431 51 C432 48 431 47 428 46 L428 46 Z M294 474 L207 179 L383 179 L294 474 L294 474 Z M329 216 L263 216 L295 337 L329 216 Z M186 617 C187 614 190 612 193 612 L255 612 C257 612 260 613 260 615 L302 664 L331 616 C332 614 334 612 337 612 L401 612 C404 612 406 614 407 617 C408 618 407 621 407 623 L354 700 C353 702 350 704 348 704 L263 704 C261 704 259 703 258 701 L188 624 C185 622 185 618 186 617 L186 617 Z M234 637 L255 670 C266 684 283 693 301 693 C319 692 335 681 345 666 L362 637 C363 635 363 632 360 630 C359 630 358 629 357 629 C355 629 354 630 353 632 L336 661 C329 674 315 681 301 682 C286 683 272 676 263 663 L241 632 C240 629 236 629 235 630 C233 632 232 636 234 637 L234 637 Z " />
<glyph glyph-name="Atilde" unicode="&#xc3;" horiz-adv-x="571" d="M499 12 L485 25 L356 504 L365 517 C366 520 366 522 365 525 C364 526 362 528 359 528 L234 528 C231 528 228 526 226 525 C226 522 226 520 227 517 L235 504 L106 25 L94 12 C91 9 91 7 92 4 C93 2 96 0 99 0 L218 0 C221 0 224 2 226 4 C226 7 226 9 224 12 L212 24 L237 117 L354 117 L380 24 L368 12 C366 9 366 7 367 4 C368 2 370 0 372 0 L493 0 C496 0 499 2 500 4 C501 7 500 9 499 12 L499 12 Z M428 46 L427 46 C425 46 423 47 423 48 L386 169 L204 169 L169 48 C168 47 166 45 163 46 C161 47 159 48 160 51 L284 477 C285 482 289 484 294 484 C298 484 302 483 303 477 L431 51 C432 48 431 47 428 46 L428 46 Z M294 474 L207 179 L383 179 L294 474 L294 474 Z M329 216 L263 216 L295 337 L329 216 Z M334 703 C307 703 295 690 286 681 C281 676 277 670 270 670 C256 670 253 685 252 689 C252 693 249 695 245 695 L193 695 C191 695 189 695 188 693 C186 692 185 690 185 687 C186 682 188 659 200 637 C214 614 234 602 257 602 C283 602 294 613 304 623 C311 629 314 633 321 633 C329 633 334 629 337 624 C338 621 339 618 339 616 C340 612 344 610 346 610 L399 610 C401 610 403 611 405 612 C406 614 406 616 406 618 C406 625 404 647 390 668 C381 684 364 703 334 703 L334 703 Z M370 632 C368 632 365 634 364 636 C364 638 361 666 339 666 C322 666 312 657 302 648 C291 639 278 629 259 629 C228 629 217 658 216 672 C215 675 217 678 219 678 C222 678 225 676 225 673 C225 671 229 640 259 640 C275 640 285 647 295 656 C307 665 319 675 339 675 C363 675 372 651 374 638 C374 635 372 633 370 632 L370 632 Z " />
<glyph glyph-name="Adieresis" unicode="&#xc4;" horiz-adv-x="571" d="M499 12 L485 25 L356 504 L365 517 C366 520 366 522 365 525 C364 526 362 528 359 528 L234 528 C231 528 228 526 226 525 C226 522 226 520 227 517 L235 504 L106 25 L94 12 C91 9 91 7 92 4 C93 2 96 0 99 0 L218 0 C221 0 224 2 226 4 C226 7 226 9 224 12 L212 24 L237 117 L354 117 L380 24 L368 12 C366 9 366 7 367 4 C368 2 370 0 372 0 L493 0 C496 0 499 2 500 4 C501 7 500 9 499 12 L499 12 Z M428 46 L427 46 C425 46 423 47 423 48 L386 169 L204 169 L169 48 C168 47 166 45 163 46 C161 47 159 48 160 51 L284 477 C285 482 289 484 294 484 C298 484 302 483 303 477 L431 51 C432 48 431 47 428 46 L428 46 Z M294 474 L207 179 L383 179 L294 474 L294 474 Z M329 216 L263 216 L295 337 L329 216 Z M252 609 C273 609 290 628 290 649 C290 670 273 687 252 687 C230 687 212 670 212 649 C212 628 230 609 252 609 L252 609 Z M251 661 C257 661 262 655 262 650 C262 644 257 639 251 639 C244 639 241 644 241 650 C241 655 244 661 251 661 L251 661 Z M342 685 C321 685 304 668 304 647 C304 627 321 609 342 609 C364 609 381 627 381 647 C381 668 364 685 342 685 L342 685 Z M343 638 C338 638 332 643 332 648 C332 653 338 658 343 658 C349 658 354 653 354 648 C354 643 349 638 343 638 L343 638 Z " />
<glyph glyph-name="Aring" unicode="&#xc5;" horiz-adv-x="570" d="M270 559 C270 570 272 586 294 586 C313 586 320 576 321 559 C321 542 317 529 297 529 L294 529 C277 529 270 543 270 559 L270 559 Z M498 12 L485 25 L359 493 C360 494 360 494 360 495 C371 506 376 523 376 547 L376 568 C376 593 371 609 361 620 L359 622 C346 636 325 642 295 642 C265 642 244 636 231 620 C220 609 216 593 216 568 L216 547 C216 523 220 507 231 495 L233 493 L106 25 L93 12 C89 8 93 0 98 0 L218 0 C225 0 227 9 224 12 L212 24 L237 117 L354 117 L380 24 L368 12 C363 8 368 0 372 0 L493 0 C500 0 502 9 498 12 L498 12 Z M428 46 L427 46 C425 46 423 47 423 48 L386 169 L204 169 L169 48 C168 47 165 45 162 46 C160 47 159 48 159 51 L284 497 C256 500 238 516 238 565 C238 599 259 618 295 618 C332 618 353 597 353 558 C353 518 337 500 305 497 L431 51 C432 48 431 47 428 46 L428 46 Z M294 497 L294 496 L207 179 L383 179 L294 496 C294 496 294 497 294 497 L294 497 Z M294 506 L297 506 C320 506 343 512 343 558 C343 592 328 609 295 609 C275 609 248 601 248 565 C248 517 263 507 294 506 L294 506 Z M329 217 L329 216 L263 216 L263 217 L295 337 L329 217 Z " />
<glyph glyph-name="AE" unicode="&#xc6;" horiz-adv-x="733" d="M655 528 L297 528 C294 528 293 526 292 524 C290 522 291 518 293 517 L305 503 L106 25 L93 12 C91 10 91 7 92 4 C93 2 96 0 98 0 L218 0 C221 0 224 2 225 4 C226 7 226 10 224 12 L212 24 L251 117 L377 117 L377 25 L364 12 C363 10 362 7 363 4 C364 2 367 0 370 0 L655 0 C659 0 662 4 662 7 L662 106 C662 110 661 113 658 114 C657 114 656 115 655 115 C654 115 653 114 651 112 L637 100 L483 100 L483 218 L599 218 L611 207 C613 206 615 205 617 205 L619 205 C622 207 623 209 623 212 L623 327 C623 329 622 332 619 332 C618 333 617 333 617 333 C615 333 613 332 611 332 L599 319 L483 319 L483 428 L637 428 L651 416 C653 414 654 414 655 414 C656 414 657 414 658 414 C661 415 662 418 662 422 L662 522 C662 525 659 528 655 528 L655 528 Z M611 476 L431 476 L431 276 L579 276 C581 276 584 274 584 271 C584 269 581 266 579 266 L431 266 L431 56 L611 56 C615 56 617 55 617 51 C617 48 615 47 611 47 L427 47 C424 47 422 48 422 51 L422 164 L218 164 L170 48 C169 47 167 46 166 46 C165 46 164 46 163 47 C161 47 160 49 161 52 L343 483 C344 484 346 486 347 486 L611 486 C615 486 617 484 617 482 C617 479 615 476 611 476 L611 476 Z M223 174 L422 174 L422 476 L351 476 L223 174 Z M377 217 L292 217 L377 421 L377 217 Z " />
<glyph glyph-name="Ccedilla" unicode="&#xc7;" horiz-adv-x="526" d="M418 495 C389 525 341 539 275 539 C205 539 157 523 127 491 C103 465 91 427 91 372 L91 162 C91 107 103 70 127 44 L131 39 C154 16 188 3 235 -3 L235 -31 C235 -59 236 -75 244 -85 C244 -86 245 -86 245 -86 C254 -94 267 -96 288 -96 L293 -96 C296 -96 300 -97 302 -99 C303 -100 304 -103 304 -105 C304 -107 304 -110 294 -113 C286 -115 275 -115 268 -115 L257 -115 C256 -115 254 -116 252 -116 C251 -118 251 -120 251 -122 L251 -180 C251 -181 251 -183 252 -184 C253 -185 256 -186 257 -186 L296 -186 C327 -186 346 -181 359 -167 C371 -156 376 -138 376 -110 L376 -96 C376 -73 374 -55 366 -43 L363 -39 C350 -26 330 -24 313 -24 L306 -24 L306 -4 C359 1 397 16 421 44 C446 70 457 107 457 162 L457 213 C457 215 456 217 455 218 C453 218 451 219 449 219 L345 219 C342 219 339 218 337 216 C337 213 337 209 339 208 L351 195 L351 189 C351 162 346 141 336 127 C324 111 305 104 279 104 L269 104 C252 104 233 107 218 122 C206 134 197 156 197 189 L197 346 C197 373 202 394 213 408 C225 424 243 431 269 431 L279 431 C302 431 319 426 332 414 L332 413 C341 404 347 389 351 373 L338 362 C337 359 336 356 337 354 L338 351 C340 351 342 350 344 350 L449 350 C454 350 457 353 457 356 L457 372 C457 427 446 465 422 491 C420 492 419 494 418 495 L418 495 Z M398 395 C396 395 393 397 393 400 C393 408 389 481 275 481 C228 481 195 470 175 449 C149 424 149 389 149 362 L149 168 C149 129 158 103 175 85 C194 65 226 55 275 55 C320 55 352 65 371 83 C390 101 400 128 400 170 C400 173 402 175 405 175 C408 175 409 173 409 170 C409 125 400 96 379 76 C356 55 323 47 275 47 L275 -51 C276 -53 288 -53 293 -53 L298 -53 C312 -52 325 -52 334 -62 C342 -69 346 -83 346 -104 C346 -122 342 -134 333 -143 C324 -152 312 -153 299 -153 L285 -153 C281 -153 278 -150 279 -147 C280 -144 282 -143 285 -143 L292 -143 C303 -143 318 -143 327 -136 C332 -129 336 -119 336 -104 C336 -86 333 -74 328 -68 C320 -63 311 -63 298 -63 L293 -63 C277 -63 271 -63 268 -58 C264 -55 264 -51 264 -47 L264 47 C219 47 188 58 167 78 C148 98 140 126 140 168 L140 362 C140 389 140 428 167 457 C190 479 226 491 275 491 C321 491 356 479 379 456 C402 433 404 407 404 400 C404 397 401 395 398 395 L398 395 Z " />
<glyph glyph-name="Egrave" unicode="&#xc8;" horiz-adv-x="463" d="M106 25 L94 12 C91 10 91 7 92 4 C93 2 96 0 99 0 L385 0 C389 0 392 4 392 7 L392 106 C392 110 390 113 388 114 C387 114 386 115 385 115 C383 115 381 114 380 112 L368 100 L212 100 L212 218 L329 218 L341 207 C343 206 345 205 346 205 L349 205 C351 207 353 209 353 212 L353 327 C353 329 351 332 349 332 C348 333 347 333 346 333 C345 333 343 332 341 332 L329 319 L212 319 L212 428 L368 428 L380 416 C381 414 383 414 385 414 C386 414 387 414 388 414 C390 415 392 418 392 422 L392 522 C392 525 389 528 385 528 L99 528 C96 528 93 526 92 524 C91 522 91 518 94 517 L106 503 L106 25 Z M152 49 L152 480 C152 483 155 484 158 484 L342 484 C345 484 347 483 347 480 C347 477 345 474 342 474 L162 474 L162 275 L309 275 C312 275 313 272 313 269 C313 267 312 264 309 264 L162 264 L162 55 L342 55 C345 55 347 53 347 49 C347 47 345 46 342 46 L158 46 C155 46 152 47 152 49 L152 49 Z M246 693 L194 693 C192 693 189 691 188 689 C186 686 186 685 188 683 L225 615 C226 612 228 611 231 611 L256 611 C259 611 261 612 262 613 C263 615 264 618 263 619 L253 686 C253 690 250 693 246 693 L246 693 Z M238 637 C237 636 237 636 237 636 C235 636 233 638 232 640 L221 669 C219 671 221 674 224 676 C227 677 229 675 230 672 L241 644 C242 641 241 638 238 637 L238 637 Z " />
<glyph glyph-name="Eacute" unicode="&#xc9;" horiz-adv-x="463" d="M106 25 L94 12 C91 10 91 7 92 4 C93 2 96 0 99 0 L385 0 C389 0 392 4 392 7 L392 106 C392 110 390 113 388 114 C387 114 386 115 385 115 C383 115 381 114 380 112 L368 100 L212 100 L212 218 L329 218 L341 207 C343 206 345 205 346 205 L349 205 C351 207 353 209 353 212 L353 327 C353 329 351 332 349 332 C348 333 347 333 346 333 C345 333 343 332 341 332 L329 319 L212 319 L212 428 L368 428 L380 416 C381 414 383 414 385 414 C386 414 387 414 388 414 C390 415 392 418 392 422 L392 522 C392 525 389 528 385 528 L99 528 C96 528 93 526 92 524 C91 522 91 518 94 517 L106 503 L106 25 Z M152 49 L152 480 C152 483 155 484 158 484 L342 484 C345 484 347 483 347 480 C347 477 345 474 342 474 L162 474 L162 275 L309 275 C312 275 313 272 313 269 C313 267 312 264 309 264 L162 264 L162 55 L342 55 C345 55 347 53 347 49 C347 47 345 46 342 46 L158 46 C155 46 152 47 152 49 L152 49 Z M228 684 L215 619 C215 618 215 615 217 614 C218 612 221 611 222 611 L253 611 C255 611 257 612 259 614 L303 678 C303 679 303 681 303 683 C303 686 301 689 297 689 L235 689 C231 689 229 686 228 684 L228 684 Z M241 644 L251 673 C252 676 255 678 257 677 C260 676 262 673 261 670 L250 640 C250 638 247 636 246 636 C246 636 246 636 245 637 C242 638 240 641 241 644 L241 644 Z " />
<glyph glyph-name="Ecircumflex" unicode="&#xca;" horiz-adv-x="463" d="M106 25 L94 12 C91 10 91 7 92 4 C93 2 96 0 99 0 L385 0 C389 0 392 4 392 7 L392 106 C392 110 390 113 388 114 C387 114 386 115 385 115 C383 115 381 114 380 112 L368 100 L212 100 L212 218 L329 218 L341 207 C343 206 345 205 346 205 L349 205 C351 207 353 209 353 212 L353 327 C353 329 351 332 349 332 C348 333 347 333 346 333 C345 333 343 332 341 332 L329 319 L212 319 L212 428 L368 428 L380 416 C381 414 383 414 385 414 C386 414 387 414 388 414 C390 415 392 418 392 422 L392 522 C392 525 389 528 385 528 L99 528 C96 528 93 526 92 524 C91 522 91 518 94 517 L106 503 L106 25 Z M152 49 L152 480 C152 483 155 484 158 484 L342 484 C345 484 347 483 347 480 C347 477 345 474 342 474 L162 474 L162 275 L309 275 C312 275 313 272 313 269 C313 267 312 264 309 264 L162 264 L162 55 L342 55 C345 55 347 53 347 49 C347 47 345 46 342 46 L158 46 C155 46 152 47 152 49 L152 49 Z M131 617 C132 614 135 612 138 612 L200 612 C202 612 205 613 205 615 L247 664 L276 616 C277 614 279 612 282 612 L346 612 C349 612 351 614 352 617 C353 618 352 621 352 623 L299 700 C298 702 295 704 293 704 L208 704 C206 704 204 703 203 701 L133 624 C130 622 130 618 131 617 L131 617 Z M179 637 L200 670 C211 684 228 693 246 693 C264 692 280 681 290 666 L307 637 C308 635 308 632 305 630 C304 630 303 629 302 629 C300 629 299 630 298 632 L281 661 C274 674 260 681 246 682 C231 683 217 676 208 663 L186 632 C185 629 181 629 180 630 C178 632 177 636 179 637 L179 637 Z " />
<glyph glyph-name="Edieresis" unicode="&#xcb;" horiz-adv-x="463" d="M106 25 L94 12 C91 10 91 7 92 4 C93 2 96 0 99 0 L385 0 C389 0 392 4 392 7 L392 106 C392 110 390 113 388 114 C387 114 386 115 385 115 C383 115 381 114 380 112 L368 100 L212 100 L212 218 L329 218 L341 207 C343 206 345 205 346 205 L349 205 C351 207 353 209 353 212 L353 327 C353 329 351 332 349 332 C348 333 347 333 346 333 C345 333 343 332 341 332 L329 319 L212 319 L212 428 L368 428 L380 416 C381 414 383 414 385 414 C386 414 387 414 388 414 C390 415 392 418 392 422 L392 522 C392 525 389 528 385 528 L99 528 C96 528 93 526 92 524 C91 522 91 518 94 517 L106 503 L106 25 Z M152 49 L152 480 C152 483 155 484 158 484 L342 484 C345 484 347 483 347 480 C347 477 345 474 342 474 L162 474 L162 275 L309 275 C312 275 313 272 313 269 C313 267 312 264 309 264 L162 264 L162 55 L342 55 C345 55 347 53 347 49 C347 47 345 46 342 46 L158 46 C155 46 152 47 152 49 L152 49 Z M197 609 C218 609 235 628 235 649 C235 670 218 687 197 687 C175 687 157 670 157 649 C157 628 175 609 197 609 L197 609 Z M196 661 C202 661 207 655 207 650 C207 644 202 639 196 639 C189 639 186 644 186 650 C186 655 189 661 196 661 L196 661 Z M287 685 C266 685 249 668 249 647 C249 627 266 609 287 609 C309 609 326 627 326 647 C326 668 309 685 287 685 L287 685 Z M288 638 C283 638 277 643 277 648 C277 653 283 658 288 658 C294 658 299 653 299 648 C299 643 294 638 288 638 L288 638 Z " />
<glyph glyph-name="Igrave" unicode="&#xcc;" horiz-adv-x="296" d="M94 12 C91 10 91 7 92 4 C93 2 96 0 99 0 L218 0 C221 0 224 2 225 4 C226 7 226 10 224 12 L211 25 L211 503 L224 517 C225 517 226 519 226 522 C226 525 222 528 218 528 L99 528 C96 528 93 526 92 524 C91 522 91 518 94 517 L106 503 L106 25 L94 12 Z M154 480 C154 483 156 484 159 484 C161 484 163 483 163 480 L163 49 C163 47 161 46 159 46 C156 46 154 47 154 49 L154 480 Z M163 693 L111 693 C109 693 106 691 105 689 C103 686 103 685 105 683 L142 615 C143 612 145 611 148 611 L173 611 C176 611 178 612 179 613 C180 615 181 618 180 619 L170 686 C170 690 167 693 163 693 L163 693 Z M155 637 C154 636 154 636 154 636 C152 636 150 638 149 640 L138 669 C136 671 138 674 141 676 C144 677 146 675 147 672 L158 644 C159 641 158 638 155 637 L155 637 Z " />
<glyph glyph-name="Iacute" unicode="&#xcd;" horiz-adv-x="296" d="M94 12 C91 10 91 7 92 4 C93 2 96 0 99 0 L218 0 C221 0 224 2 225 4 C226 7 226 10 224 12 L211 25 L211 503 L224 517 C225 517 226 519 226 522 C226 525 222 528 218 528 L99 528 C96 528 93 526 92 524 C91 522 91 518 94 517 L106 503 L106 25 L94 12 Z M154 480 C154 483 156 484 159 484 C161 484 163 483 163 480 L163 49 C163 47 161 46 159 46 C156 46 154 47 154 49 L154 480 Z M145 684 L132 619 C132 618 132 615 134 614 C135 612 138 611 139 611 L170 611 C172 611 174 612 176 614 L220 678 C220 679 220 681 220 683 C220 686 218 689 214 689 L152 689 C148 689 146 686 145 684 L145 684 Z M158 644 L168 673 C169 676 172 678 174 677 C177 676 179 673 178 670 L167 640 C167 638 164 636 163 636 C163 636 163 636 162 637 C159 638 157 641 158 644 L158 644 Z " />
<glyph glyph-name="Icircumflex" unicode="&#xce;" horiz-adv-x="384" d="M94 12 C91 10 91 7 92 4 C93 2 96 0 99 0 L218 0 C221 0 224 2 225 4 C226 7 226 10 224 12 L211 25 L211 503 L224 517 C225 517 226 519 226 522 C226 525 222 528 218 528 L99 528 C96 528 93 526 92 524 C91 522 91 518 94 517 L106 503 L106 25 L94 12 Z M154 480 C154 483 156 484 159 484 C161 484 163 483 163 480 L163 49 C163 47 161 46 159 46 C156 46 154 47 154 49 L154 480 Z M49 617 C50 614 53 612 56 612 L118 612 C120 612 123 613 123 615 L165 664 L194 616 C195 614 197 612 200 612 L264 612 C267 612 269 614 270 617 C271 618 270 621 270 623 L217 700 C216 702 213 704 211 704 L126 704 C124 704 122 703 121 701 L51 624 C48 622 48 618 49 617 L49 617 Z M97 637 L118 670 C129 684 146 693 164 693 C182 692 198 681 208 666 L225 637 C226 635 226 632 223 630 C222 630 221 629 220 629 C218 629 217 630 216 632 L199 661 C192 674 178 681 164 682 C149 683 135 676 126 663 L104 632 C103 629 99 629 98 630 C96 632 95 636 97 637 L97 637 Z " />
<glyph glyph-name="Idieresis" unicode="&#xcf;" horiz-adv-x="330" d="M94 12 C91 10 91 7 92 4 C93 2 96 0 99 0 L218 0 C221 0 224 2 225 4 C226 7 226 10 224 12 L211 25 L211 503 L224 517 C225 517 226 519 226 522 C226 525 222 528 218 528 L99 528 C96 528 93 526 92 524 C91 522 91 518 94 517 L106 503 L106 25 L94 12 Z M154 480 C154 483 156 484 159 484 C161 484 163 483 163 480 L163 49 C163 47 161 46 159 46 C156 46 154 47 154 49 L154 480 Z M114 609 C135 609 152 628 152 649 C152 670 135 687 114 687 C92 687 74 670 74 649 C74 628 92 609 114 609 L114 609 Z M113 661 C119 661 124 655 124 650 C124 644 119 639 113 639 C106 639 103 644 103 650 C103 655 106 661 113 661 L113 661 Z M204 685 C183 685 166 668 166 647 C166 627 183 609 204 609 C226 609 243 627 243 647 C243 668 226 685 204 685 L204 685 Z M205 638 C200 638 194 643 194 648 C194 653 200 658 205 658 C211 658 216 653 216 648 C216 643 211 638 205 638 L205 638 Z " />
<glyph glyph-name="Eth" unicode="&#xd0;" horiz-adv-x="566" d="M338 528 L123 528 C122 528 119 526 117 524 C116 522 117 518 119 517 L131 503 L131 312 L98 312 C95 312 91 308 91 304 L91 235 C91 231 95 228 98 228 L131 228 L131 25 L119 12 C117 10 116 7 117 4 C119 2 122 0 123 0 L338 0 C389 0 428 13 455 41 C483 67 497 107 497 158 L497 370 C497 418 484 457 460 483 C433 513 392 528 338 528 L338 528 Z M450 152 C450 100 408 45 316 45 L186 45 C183 45 182 47 182 49 L182 265 L129 265 C126 265 123 268 123 270 C123 273 126 275 129 275 L182 275 L182 480 C182 483 183 484 186 484 L315 484 C406 484 450 442 450 357 L450 152 Z M315 475 L192 475 L192 275 L293 275 C294 275 296 273 296 270 C296 268 294 265 293 265 L192 265 L192 55 L316 55 C354 55 388 65 409 85 C430 103 441 126 441 152 L441 357 C441 437 400 475 315 475 L315 475 Z M390 182 C390 157 384 136 370 123 C355 107 335 100 310 100 L237 100 L237 228 L326 228 C330 228 332 231 332 235 L332 304 C332 308 330 312 326 312 L237 312 L237 428 L310 428 C337 428 358 422 371 408 C385 395 390 375 390 346 L390 182 Z " />
<glyph glyph-name="Ntilde" unicode="&#xd1;" horiz-adv-x="517" d="M445 4 C446 7 446 10 443 12 L431 25 L431 503 L443 517 C446 518 446 522 445 524 C444 526 441 528 438 528 L318 528 C315 528 313 526 312 524 C311 522 312 518 313 517 L325 503 L325 266 L213 524 C211 526 209 528 206 528 L99 528 C96 528 93 526 92 524 C91 522 91 518 94 517 L106 503 L106 25 L94 12 C91 10 91 7 92 4 C93 2 96 0 99 0 L218 0 C221 0 224 2 225 4 C226 7 226 10 224 12 L211 25 L211 267 L321 21 L313 12 C312 10 311 7 312 4 C313 2 315 0 318 0 L438 0 C441 0 444 2 445 4 L445 4 Z M382 48 C382 47 380 45 379 44 L377 44 C375 44 373 45 372 47 L164 459 L164 49 C164 47 161 46 159 46 C157 46 154 47 154 49 L154 480 C154 482 156 484 158 484 C160 484 162 484 163 482 L372 69 L372 480 C372 483 374 484 377 484 C380 484 382 483 382 480 L382 48 Z M306 712 C279 712 267 699 258 690 C253 685 249 679 242 679 C228 679 225 694 224 698 C224 702 221 704 217 704 L165 704 C163 704 161 704 160 702 C158 701 157 699 157 696 C158 691 160 668 172 646 C186 623 206 611 229 611 C255 611 266 622 276 632 C283 638 286 642 293 642 C301 642 306 638 309 633 C310 630 311 627 311 625 C312 621 316 619 318 619 L371 619 C373 619 375 620 377 621 C378 623 378 625 378 627 C378 634 376 656 362 677 C353 693 336 712 306 712 L306 712 Z M342 641 C340 641 337 643 336 645 C336 647 333 675 311 675 C294 675 284 666 274 657 C263 648 250 638 231 638 C200 638 189 667 188 681 C187 684 189 687 191 687 C194 687 197 685 197 682 C197 680 201 649 231 649 C247 649 257 656 267 665 C279 674 291 684 311 684 C335 684 344 660 346 647 C346 644 344 642 342 641 L342 641 Z " />
<glyph glyph-name="Ograve" unicode="&#xd2;" horiz-adv-x="527" d="M275 -8 C344 -8 391 8 422 40 C446 66 457 104 457 159 L457 370 C457 423 446 461 422 487 C392 520 344 535 275 535 C205 535 158 520 127 488 C104 461 91 423 91 370 L91 159 C91 104 104 66 127 40 C157 8 204 -8 275 -8 L275 -8 Z M141 364 C141 446 184 490 265 490 L286 490 C367 490 410 446 410 364 L410 166 C410 90 361 42 286 42 L265 42 C226 42 194 53 173 74 C151 97 141 128 141 166 L141 364 Z M265 52 L286 52 C319 52 347 63 368 81 C389 102 400 132 400 166 L400 364 C400 441 362 480 286 480 L265 480 C190 480 149 440 149 364 L149 166 C149 130 160 102 180 82 C200 62 228 52 265 52 L265 52 Z M198 185 L198 343 C198 370 202 390 213 406 C225 421 243 428 269 428 L279 428 C313 428 351 414 351 343 L351 185 C351 159 346 138 336 123 C324 107 305 100 279 100 L269 100 C236 100 198 115 198 185 L198 185 Z M278 693 L226 693 C224 693 221 691 220 689 C218 686 218 685 220 683 L257 615 C258 612 260 611 263 611 L288 611 C291 611 293 612 294 613 C295 615 296 618 295 619 L285 686 C285 690 282 693 278 693 L278 693 Z M270 637 C269 636 269 636 269 636 C267 636 265 638 264 640 L253 669 C251 671 253 674 256 676 C259 677 261 675 262 672 L273 644 C274 641 273 638 270 637 L270 637 Z " />
<glyph glyph-name="Oacute" unicode="&#xd3;" horiz-adv-x="527" d="M275 -8 C344 -8 391 8 422 40 C446 66 457 104 457 159 L457 370 C457 423 446 461 422 487 C392 520 344 535 275 535 C205 535 158 520 127 488 C104 461 91 423 91 370 L91 159 C91 104 104 66 127 40 C157 8 204 -8 275 -8 L275 -8 Z M141 364 C141 446 184 490 265 490 L286 490 C367 490 410 446 410 364 L410 166 C410 90 361 42 286 42 L265 42 C226 42 194 53 173 74 C151 97 141 128 141 166 L141 364 Z M265 52 L286 52 C319 52 347 63 368 81 C389 102 400 132 400 166 L400 364 C400 441 362 480 286 480 L265 480 C190 480 149 440 149 364 L149 166 C149 130 160 102 180 82 C200 62 228 52 265 52 L265 52 Z M198 185 L198 343 C198 370 202 390 213 406 C225 421 243 428 269 428 L279 428 C313 428 351 414 351 343 L351 185 C351 159 346 138 336 123 C324 107 305 100 279 100 L269 100 C236 100 198 115 198 185 L198 185 Z M261 684 L248 619 C248 618 248 615 250 614 C251 612 254 611 255 611 L286 611 C288 611 290 612 292 614 L336 678 C336 679 336 681 336 683 C336 686 334 689 330 689 L268 689 C264 689 262 686 261 684 L261 684 Z M274 644 L284 673 C285 676 288 678 290 677 C293 676 295 673 294 670 L283 640 C283 638 280 636 279 636 C279 636 279 636 278 637 C275 638 273 641 274 644 L274 644 Z " />
<glyph glyph-name="Ocircumflex" unicode="&#xd4;" horiz-adv-x="527" d="M275 -8 C344 -8 391 8 422 40 C446 66 457 104 457 159 L457 370 C457 423 446 461 422 487 C392 520 344 535 275 535 C205 535 158 520 127 488 C104 461 91 423 91 370 L91 159 C91 104 104 66 127 40 C157 8 204 -8 275 -8 L275 -8 Z M141 364 C141 446 184 490 265 490 L286 490 C367 490 410 446 410 364 L410 166 C410 90 361 42 286 42 L265 42 C226 42 194 53 173 74 C151 97 141 128 141 166 L141 364 Z M265 52 L286 52 C319 52 347 63 368 81 C389 102 400 132 400 166 L400 364 C400 441 362 480 286 480 L265 480 C190 480 149 440 149 364 L149 166 C149 130 160 102 180 82 C200 62 228 52 265 52 L265 52 Z M198 185 L198 343 C198 370 202 390 213 406 C225 421 243 428 269 428 L279 428 C313 428 351 414 351 343 L351 185 C351 159 346 138 336 123 C324 107 305 100 279 100 L269 100 C236 100 198 115 198 185 L198 185 Z M164 625 C165 622 168 620 171 620 L233 620 C235 620 238 621 238 623 L280 672 L309 624 C310 622 312 620 315 620 L379 620 C382 620 384 622 385 625 C386 626 385 629 385 631 L332 708 C331 710 328 712 326 712 L241 712 C239 712 237 711 236 709 L166 632 C163 630 163 626 164 625 L164 625 Z M212 645 L233 678 C244 692 261 701 279 701 C297 700 313 689 323 674 L340 645 C341 643 341 640 338 638 C337 638 336 637 335 637 C333 637 332 638 331 640 L314 669 C307 682 293 689 279 690 C264 691 250 684 241 671 L219 640 C218 637 214 637 213 638 C211 640 210 644 212 645 L212 645 Z " />
<glyph glyph-name="Otilde" unicode="&#xd5;" horiz-adv-x="527" d="M275 -8 C344 -8 391 8 422 40 C446 66 457 104 457 159 L457 370 C457 423 446 461 422 487 C392 520 344 535 275 535 C205 535 158 520 127 488 C104 461 91 423 91 370 L91 159 C91 104 104 66 127 40 C157 8 204 -8 275 -8 L275 -8 Z M141 364 C141 446 184 490 265 490 L286 490 C367 490 410 446 410 364 L410 166 C410 90 361 42 286 42 L265 42 C226 42 194 53 173 74 C151 97 141 128 141 166 L141 364 Z M265 52 L286 52 C319 52 347 63 368 81 C389 102 400 132 400 166 L400 364 C400 441 362 480 286 480 L265 480 C190 480 149 440 149 364 L149 166 C149 130 160 102 180 82 C200 62 228 52 265 52 L265 52 Z M198 185 L198 343 C198 370 202 390 213 406 C225 421 243 428 269 428 L279 428 C313 428 351 414 351 343 L351 185 C351 159 346 138 336 123 C324 107 305 100 279 100 L269 100 C236 100 198 115 198 185 L198 185 Z M312 712 C285 712 273 699 264 690 C259 685 255 679 248 679 C234 679 231 694 230 698 C230 702 227 704 223 704 L171 704 C169 704 167 704 166 702 C164 701 163 699 163 696 C164 691 166 668 178 646 C192 623 212 611 235 611 C261 611 272 622 282 632 C289 638 292 642 299 642 C307 642 312 638 315 633 C316 630 317 627 317 625 C318 621 322 619 324 619 L377 619 C379 619 381 620 383 621 C384 623 384 625 384 627 C384 634 382 656 368 677 C359 693 342 712 312 712 L312 712 Z M348 641 C346 641 343 643 342 645 C342 647 339 675 317 675 C300 675 290 666 280 657 C269 648 256 638 237 638 C206 638 195 667 194 681 C193 684 195 687 197 687 C200 687 203 685 203 682 C203 680 207 649 237 649 C253 649 263 656 273 665 C285 674 297 684 317 684 C341 684 350 660 352 647 C352 644 350 642 348 641 L348 641 Z " />
<glyph glyph-name="Odieresis" unicode="&#xd6;" horiz-adv-x="527" d="M275 -8 C344 -8 391 8 422 40 C446 66 457 104 457 159 L457 370 C457 423 446 461 422 487 C392 520 344 535 275 535 C205 535 158 520 127 488 C104 461 91 423 91 370 L91 159 C91 104 104 66 127 40 C157 8 204 -8 275 -8 L275 -8 Z M141 364 C141 446 184 490 265 490 L286 490 C367 490 410 446 410 364 L410 166 C410 90 361 42 286 42 L265 42 C226 42 194 53 173 74 C151 97 141 128 141 166 L141 364 Z M265 52 L286 52 C319 52 347 63 368 81 C389 102 400 132 400 166 L400 364 C400 441 362 480 286 480 L265 480 C190 480 149 440 149 364 L149 166 C149 130 160 102 180 82 C200 62 228 52 265 52 L265 52 Z M198 185 L198 343 C198 370 202 390 213 406 C225 421 243 428 269 428 L279 428 C313 428 351 414 351 343 L351 185 C351 159 346 138 336 123 C324 107 305 100 279 100 L269 100 C236 100 198 115 198 185 L198 185 Z M229 618 C250 618 267 637 267 658 C267 679 250 696 229 696 C207 696 189 679 189 658 C189 637 207 618 229 618 L229 618 Z M228 670 C234 670 239 664 239 659 C239 653 234 648 228 648 C221 648 218 653 218 659 C218 664 221 670 228 670 L228 670 Z M319 694 C298 694 281 677 281 656 C281 636 298 618 319 618 C341 618 358 636 358 656 C358 677 341 694 319 694 L319 694 Z M320 647 C315 647 309 652 309 657 C309 662 315 667 320 667 C326 667 331 662 331 657 C331 652 326 647 320 647 L320 647 Z " />
<glyph glyph-name="multiply" unicode="&#xd7;" horiz-adv-x="363" d="M293 318 C293 320 292 321 290 322 L239 373 C237 375 236 375 235 375 C233 375 231 375 229 373 L191 335 L154 372 C152 373 150 374 149 374 C147 374 145 373 143 372 L95 324 C93 322 93 320 93 319 C93 317 93 315 95 313 L132 276 L94 238 C91 235 91 231 94 228 L144 177 C146 176 148 175 149 175 C151 175 153 176 155 177 L193 216 L230 179 C232 177 234 176 235 176 C237 176 238 177 240 179 L289 227 C291 228 291 230 291 233 C291 235 291 236 289 237 L252 275 L290 313 C292 313 293 315 293 318 L293 318 Z M238 316 L198 275 C218 254 238 235 238 235 L232 226 C232 226 211 247 191 269 L149 226 C148 226 147 226 145 226 C144 226 142 226 142 226 C141 229 141 232 142 235 L183 275 L142 316 C141 318 141 321 142 323 C143 325 147 325 149 323 C150 322 170 303 191 282 L232 323 C234 325 237 325 238 323 C240 321 240 318 238 316 L238 316 Z " />
<glyph glyph-name="Oslash" unicode="&#xd8;" horiz-adv-x="526" d="M146 24 L123 -44 C123 -46 123 -48 124 -49 C126 -51 128 -53 131 -53 L221 -53 C225 -53 227 -50 228 -48 L242 -6 C252 -7 263 -8 275 -8 C344 -8 391 9 422 40 C446 66 457 105 457 159 L457 370 C457 431 442 474 408 500 L425 549 C426 551 425 553 424 555 C423 557 421 559 418 559 L328 559 C324 559 321 556 320 553 L313 534 C302 535 288 536 275 536 C205 536 158 521 127 488 C104 462 91 424 91 370 L91 159 C91 127 96 102 104 81 C112 56 126 38 146 24 L146 24 Z M143 363 C143 443 188 487 269 487 L289 487 C310 487 328 484 343 480 L353 511 C354 514 356 516 359 515 C362 514 363 510 363 508 L352 476 C393 458 414 420 414 363 L414 165 C414 89 365 40 289 40 L269 40 C248 40 229 44 212 50 L197 4 C197 2 194 0 192 0 C192 0 192 0 191 1 C188 2 186 4 187 7 L203 54 C193 59 184 66 177 72 C156 94 143 126 143 165 L143 363 Z M269 49 L289 49 C322 49 351 60 371 80 C393 100 405 129 405 165 L405 363 C405 415 386 450 349 466 L216 59 C231 53 249 49 269 49 L269 49 Z M206 64 L339 470 C325 475 309 478 289 478 L269 478 C194 478 154 438 154 363 L154 165 C154 128 164 100 183 81 C191 73 198 68 206 64 L206 64 Z M198 180 L198 344 C198 370 202 391 213 406 C225 421 243 429 269 429 L279 429 L198 180 Z M351 327 L351 185 C351 159 346 139 336 123 C324 108 305 101 279 101 L277 101 L351 327 Z " />
<glyph glyph-name="Ugrave" unicode="&#xd9;" horiz-adv-x="556" d="M106 503 L106 159 C106 104 117 66 142 40 C171 8 218 -8 289 -8 C358 -8 406 8 435 40 C460 66 471 104 471 159 L471 503 L484 517 C485 519 486 522 484 524 C484 526 482 528 479 528 L358 528 C355 528 353 526 352 524 C351 522 351 519 353 517 L366 503 L366 185 C366 158 361 138 351 123 C338 107 320 100 294 100 L284 100 C251 100 212 115 212 185 L212 343 L211 344 L211 503 L224 517 C225 518 226 520 226 522 C226 525 222 528 218 528 L99 528 C96 528 93 526 92 524 C91 522 91 519 94 517 L106 503 Z M152 477 C152 480 155 483 158 483 C160 483 162 480 162 477 L162 166 C162 130 173 102 192 82 C212 62 241 52 277 52 L297 52 C331 52 359 63 380 81 C402 102 413 132 413 166 L413 477 C413 480 414 483 418 483 C421 483 423 480 423 477 L423 166 C423 90 373 42 297 42 L277 42 C238 42 207 53 185 75 C164 97 152 128 152 166 L152 477 Z M293 693 L241 693 C239 693 236 691 235 689 C233 686 233 685 235 683 L272 615 C273 612 275 611 278 611 L303 611 C306 611 308 612 309 613 C310 615 311 618 310 619 L300 686 C300 690 297 693 293 693 L293 693 Z M285 637 C284 636 284 636 284 636 C282 636 280 638 279 640 L268 669 C266 671 268 674 271 676 C274 677 276 675 277 672 L288 644 C289 641 288 638 285 637 L285 637 Z " />
<glyph glyph-name="Uacute" unicode="&#xda;" horiz-adv-x="556" d="M106 503 L106 159 C106 104 117 66 142 40 C171 8 218 -8 289 -8 C358 -8 406 8 435 40 C460 66 471 104 471 159 L471 503 L484 517 C485 519 486 522 484 524 C484 526 482 528 479 528 L358 528 C355 528 353 526 352 524 C351 522 351 519 353 517 L366 503 L366 185 C366 158 361 138 351 123 C338 107 320 100 294 100 L284 100 C251 100 212 115 212 185 L212 343 L211 344 L211 503 L224 517 C225 518 226 520 226 522 C226 525 222 528 218 528 L99 528 C96 528 93 526 92 524 C91 522 91 519 94 517 L106 503 Z M152 477 C152 480 155 483 158 483 C160 483 162 480 162 477 L162 166 C162 130 173 102 192 82 C212 62 241 52 277 52 L297 52 C331 52 359 63 380 81 C402 102 413 132 413 166 L413 477 C413 480 414 483 418 483 C421 483 423 480 423 477 L423 166 C423 90 373 42 297 42 L277 42 C238 42 207 53 185 75 C164 97 152 128 152 166 L152 477 Z M274 684 L261 619 C261 618 261 615 263 614 C264 612 267 611 268 611 L299 611 C301 611 303 612 305 614 L349 678 C349 679 349 681 349 683 C349 686 347 689 343 689 L281 689 C277 689 275 686 274 684 L274 684 Z M287 644 L297 673 C298 676 301 678 303 677 C306 676 308 673 307 670 L296 640 C296 638 293 636 292 636 C292 636 292 636 291 637 C288 638 286 641 287 644 L287 644 Z " />
<glyph glyph-name="Ucircumflex" unicode="&#xdb;" horiz-adv-x="556" d="M106 503 L106 159 C106 104 117 66 142 40 C171 8 218 -8 289 -8 C358 -8 406 8 435 40 C460 66 471 104 471 159 L471 503 L484 517 C485 519 486 522 484 524 C484 526 482 528 479 528 L358 528 C355 528 353 526 352 524 C351 522 351 519 353 517 L366 503 L366 185 C366 158 361 138 351 123 C338 107 320 100 294 100 L284 100 C251 100 212 115 212 185 L212 343 L211 344 L211 503 L224 517 C225 518 226 520 226 522 C226 525 222 528 218 528 L99 528 C96 528 93 526 92 524 C91 522 91 519 94 517 L106 503 Z M152 477 C152 480 155 483 158 483 C160 483 162 480 162 477 L162 166 C162 130 173 102 192 82 C212 62 241 52 277 52 L297 52 C331 52 359 63 380 81 C402 102 413 132 413 166 L413 477 C413 480 414 483 418 483 C421 483 423 480 423 477 L423 166 C423 90 373 42 297 42 L277 42 C238 42 207 53 185 75 C164 97 152 128 152 166 L152 477 Z M196 617 C197 614 200 612 203 612 L265 612 C267 612 270 613 270 615 L312 664 L341 616 C342 614 344 612 347 612 L411 612 C414 612 416 614 417 617 C418 618 417 621 417 623 L364 700 C363 702 360 704 358 704 L273 704 C271 704 269 703 268 701 L198 624 C195 622 195 618 196 617 L196 617 Z M244 637 L265 670 C276 684 293 693 311 693 C329 692 345 681 355 666 L372 637 C373 635 373 632 370 630 C369 630 368 629 367 629 C365 629 364 630 363 632 L346 661 C339 674 325 681 311 682 C296 683 282 676 273 663 L251 632 C250 629 246 629 245 630 C243 632 242 636 244 637 L244 637 Z " />
<glyph glyph-name="Udieresis" unicode="&#xdc;" horiz-adv-x="556" d="M106 503 L106 159 C106 104 117 66 142 40 C171 8 218 -8 289 -8 C358 -8 406 8 435 40 C460 66 471 104 471 159 L471 503 L484 517 C485 519 486 522 484 524 C484 526 482 528 479 528 L358 528 C355 528 353 526 352 524 C351 522 351 519 353 517 L366 503 L366 185 C366 158 361 138 351 123 C338 107 320 100 294 100 L284 100 C251 100 212 115 212 185 L212 343 L211 344 L211 503 L224 517 C225 518 226 520 226 522 C226 525 222 528 218 528 L99 528 C96 528 93 526 92 524 C91 522 91 519 94 517 L106 503 Z M152 477 C152 480 155 483 158 483 C160 483 162 480 162 477 L162 166 C162 130 173 102 192 82 C212 62 241 52 277 52 L297 52 C331 52 359 63 380 81 C402 102 413 132 413 166 L413 477 C413 480 414 483 418 483 C421 483 423 480 423 477 L423 166 C423 90 373 42 297 42 L277 42 C238 42 207 53 185 75 C164 97 152 128 152 166 L152 477 Z M261 609 C282 609 299 628 299 649 C299 670 282 687 261 687 C239 687 221 670 221 649 C221 628 239 609 261 609 L261 609 Z M260 661 C266 661 271 655 271 650 C271 644 266 639 260 639 C253 639 250 644 250 650 C250 655 253 661 260 661 L260 661 Z M351 685 C330 685 313 668 313 647 C313 627 330 609 351 609 C373 609 390 627 390 647 C390 668 373 685 351 685 L351 685 Z M352 638 C347 638 341 643 341 648 C341 653 347 658 352 658 C358 658 363 653 363 648 C363 643 358 638 352 638 L352 638 Z " />
<glyph glyph-name="Yacute" unicode="&#xdd;" horiz-adv-x="519" d="M442 528 L321 528 C319 528 316 526 315 524 C313 522 314 518 316 517 L329 504 L271 390 L212 504 L224 517 C225 517 226 519 226 522 C226 525 222 528 218 528 L99 528 C96 528 93 526 92 524 C91 522 91 518 94 517 L106 503 L218 250 L218 25 L207 12 C204 9 204 7 205 4 C206 2 209 0 212 0 L332 0 C334 0 337 2 338 4 C339 7 338 9 337 12 L325 25 L325 250 L434 503 L447 517 C448 518 449 522 448 524 C447 526 445 528 442 528 L442 528 Z M375 476 L276 270 L276 49 C276 47 275 45 272 45 C269 45 267 47 267 49 L267 270 L165 476 C164 479 165 482 167 483 C170 484 173 483 174 481 L272 282 L367 481 C368 483 370 484 372 483 C375 483 376 479 375 476 L375 476 Z M256 684 L243 619 C243 618 243 615 245 614 C246 612 249 611 250 611 L281 611 C283 611 285 612 287 614 L331 678 C331 679 331 681 331 683 C331 686 329 689 325 689 L263 689 C259 689 257 686 256 684 L256 684 Z M269 644 L279 673 C280 676 283 678 285 677 C288 676 290 673 289 670 L278 640 C278 638 275 636 274 636 C274 636 274 636 273 637 C270 638 268 641 269 644 L269 644 Z " />
<glyph glyph-name="Thorn" unicode="&#xde;" horiz-adv-x="483" d="M256 425 L163 425 L163 147 L249 147 C299 147 351 158 351 240 L351 341 C351 366 342 425 256 425 L256 425 Z M306 260 C306 235 301 218 288 208 C276 198 256 192 224 192 L212 192 L212 381 L224 381 C257 381 276 377 289 367 C301 357 306 340 306 313 L306 260 L306 260 Z M268 482 L212 482 L212 503 L224 517 C226 518 226 522 226 524 C224 526 221 528 218 528 L99 528 C96 528 93 526 92 524 C91 522 91 518 94 517 L106 503 L106 503 L106 25 L106 25 L94 12 C91 10 91 7 92 4 C93 2 96 0 99 0 L218 0 C221 0 224 2 226 4 C226 7 226 10 224 12 L212 25 L212 92 L268 92 C316 92 353 106 379 135 C400 159 411 195 411 237 L411 337 C411 380 401 414 380 439 C356 466 319 482 268 482 L268 482 Z M361 240 C361 200 350 172 326 156 C308 142 284 137 249 137 L163 137 L163 50 C163 47 161 46 158 46 C156 46 153 47 153 50 L153 480 C153 483 156 484 158 484 C161 484 163 483 163 480 L163 435 L256 435 C281 435 361 428 361 341 L361 240 L361 240 Z " />
<glyph glyph-name="germandbls" unicode="&#xdf;" horiz-adv-x="526" d="M424 238 C409 257 393 268 380 276 C368 283 362 288 362 294 C362 298 365 303 372 310 C388 322 408 341 408 401 C408 437 395 466 371 489 C342 515 298 527 241 527 L99 527 C96 527 93 525 92 523 C91 521 91 517 94 516 L106 503 L106 24 L94 11 C91 9 91 6 92 4 C93 1 96 -1 99 -1 L204 -1 C209 -1 211 3 211 6 L211 423 L247 423 C257 423 272 422 283 416 C295 410 303 400 304 387 C305 374 303 363 296 354 C290 346 280 339 269 337 C255 333 243 325 237 312 C231 301 228 286 229 272 C231 260 235 248 241 239 C248 230 258 225 269 224 L269 224 C294 224 311 218 321 209 C332 199 338 182 338 160 C338 141 333 126 324 118 C314 109 301 105 281 105 C276 105 269 106 263 106 L262 106 C260 106 259 106 257 104 C256 104 255 102 255 99 L255 5 C255 2 257 -1 260 -2 C283 -6 304 -8 322 -8 C367 -8 400 4 423 28 C447 55 458 98 454 156 C451 190 441 218 424 238 L424 238 Z M370 59 C350 46 324 44 300 44 C297 44 294 47 294 48 C294 51 297 54 300 54 C322 54 346 55 363 67 C384 81 394 107 394 148 C394 186 374 214 358 230 C339 248 314 262 291 269 C286 271 281 276 280 281 C280 287 284 293 289 294 C308 303 350 329 350 400 C350 428 341 448 323 460 C308 469 287 474 258 474 L160 474 L160 47 C160 46 158 43 156 43 C152 43 150 46 150 47 L150 479 C150 482 152 484 156 484 L258 484 C302 484 360 475 360 400 C360 322 313 294 294 286 C291 285 291 283 291 282 C291 281 291 279 294 278 C319 272 346 256 365 237 C390 212 405 181 405 148 C405 104 392 75 370 59 L370 59 Z " />
<glyph glyph-name="agrave" unicode="&#xe0;" horiz-adv-x="571" d="M499 12 L485 25 L356 504 L365 517 C366 520 366 522 365 525 C364 526 362 528 359 528 L234 528 C231 528 228 526 226 525 C226 522 226 520 227 517 L235 504 L106 25 L94 12 C91 9 91 7 92 4 C93 2 96 0 99 0 L218 0 C221 0 224 2 226 4 C226 7 226 9 224 12 L212 24 L237 117 L354 117 L380 24 L368 12 C366 9 366 7 367 4 C368 2 370 0 372 0 L493 0 C496 0 499 2 500 4 C501 7 500 9 499 12 L499 12 Z M428 46 L427 46 C425 46 423 47 423 48 L386 169 L204 169 L169 48 C168 47 166 45 163 46 C161 47 159 48 160 51 L284 477 C285 482 289 484 294 484 C298 484 302 483 303 477 L431 51 C432 48 431 47 428 46 L428 46 Z M294 474 L207 179 L383 179 L294 474 L294 474 Z M329 216 L263 216 L295 337 L329 216 Z M300 693 L248 693 C246 693 243 691 242 689 C240 686 240 685 242 683 L279 615 C280 612 282 611 285 611 L310 611 C313 611 315 612 316 613 C317 615 318 618 317 619 L307 686 C307 690 304 693 300 693 L300 693 Z M292 637 C291 636 291 636 291 636 C289 636 287 638 286 640 L275 669 C273 671 275 674 278 676 C281 677 283 675 284 672 L295 644 C296 641 295 638 292 637 L292 637 Z " />
<glyph glyph-name="aacute" unicode="&#xe1;" horiz-adv-x="571" d="M499 12 L485 25 L356 504 L365 517 C366 520 366 522 365 525 C364 526 362 528 359 528 L234 528 C231 528 228 526 226 525 C226 522 226 520 227 517 L235 504 L106 25 L94 12 C91 9 91 7 92 4 C93 2 96 0 99 0 L218 0 C221 0 224 2 226 4 C226 7 226 9 224 12 L212 24 L237 117 L354 117 L380 24 L368 12 C366 9 366 7 367 4 C368 2 370 0 372 0 L493 0 C496 0 499 2 500 4 C501 7 500 9 499 12 L499 12 Z M428 46 L427 46 C425 46 423 47 423 48 L386 169 L204 169 L169 48 C168 47 166 45 163 46 C161 47 159 48 160 51 L284 477 C285 482 289 484 294 484 C298 484 302 483 303 477 L431 51 C432 48 431 47 428 46 L428 46 Z M294 474 L207 179 L383 179 L294 474 L294 474 Z M329 216 L263 216 L295 337 L329 216 Z M282 684 L269 619 C269 618 269 615 271 614 C272 612 275 611 276 611 L307 611 C309 611 311 612 313 614 L357 678 C357 679 357 681 357 683 C357 686 355 689 351 689 L289 689 C285 689 283 686 282 684 L282 684 Z M295 644 L305 673 C306 676 309 678 311 677 C314 676 316 673 315 670 L304 640 C304 638 301 636 300 636 C300 636 300 636 299 637 C296 638 294 641 295 644 L295 644 Z " />
<glyph glyph-name="acircumflex" unicode="&#xe2;" horiz-adv-x="571" d="M499 12 L485 25 L356 504 L365 517 C366 520 366 522 365 525 C364 526 362 528 359 528 L234 528 C231 528 228 526 226 525 C226 522 226 520 227 517 L235 504 L106 25 L94 12 C91 9 91 7 92 4 C93 2 96 0 99 0 L218 0 C221 0 224 2 226 4 C226 7 226 9 224 12 L212 24 L237 117 L354 117 L380 24 L368 12 C366 9 366 7 367 4 C368 2 370 0 372 0 L493 0 C496 0 499 2 500 4 C501 7 500 9 499 12 L499 12 Z M428 46 L427 46 C425 46 423 47 423 48 L386 169 L204 169 L169 48 C168 47 166 45 163 46 C161 47 159 48 160 51 L284 477 C285 482 289 484 294 484 C298 484 302 483 303 477 L431 51 C432 48 431 47 428 46 L428 46 Z M294 474 L207 179 L383 179 L294 474 L294 474 Z M329 216 L263 216 L295 337 L329 216 Z M186 617 C187 614 190 612 193 612 L255 612 C257 612 260 613 260 615 L302 664 L331 616 C332 614 334 612 337 612 L401 612 C404 612 406 614 407 617 C408 618 407 621 407 623 L354 700 C353 702 350 704 348 704 L263 704 C261 704 259 703 258 701 L188 624 C185 622 185 618 186 617 L186 617 Z M234 637 L255 670 C266 684 283 693 301 693 C319 692 335 681 345 666 L362 637 C363 635 363 632 360 630 C359 630 358 629 357 629 C355 629 354 630 353 632 L336 661 C329 674 315 681 301 682 C286 683 272 676 263 663 L241 632 C240 629 236 629 235 630 C233 632 232 636 234 637 L234 637 Z " />
<glyph glyph-name="atilde" unicode="&#xe3;" horiz-adv-x="571" d="M499 12 L485 25 L356 504 L365 517 C366 520 366 522 365 525 C364 526 362 528 359 528 L234 528 C231 528 228 526 226 525 C226 522 226 520 227 517 L235 504 L106 25 L94 12 C91 9 91 7 92 4 C93 2 96 0 99 0 L218 0 C221 0 224 2 226 4 C226 7 226 9 224 12 L212 24 L237 117 L354 117 L380 24 L368 12 C366 9 366 7 367 4 C368 2 370 0 372 0 L493 0 C496 0 499 2 500 4 C501 7 500 9 499 12 L499 12 Z M428 46 L427 46 C425 46 423 47 423 48 L386 169 L204 169 L169 48 C168 47 166 45 163 46 C161 47 159 48 160 51 L284 477 C285 482 289 484 294 484 C298 484 302 483 303 477 L431 51 C432 48 431 47 428 46 L428 46 Z M294 474 L207 179 L383 179 L294 474 L294 474 Z M329 216 L263 216 L295 337 L329 216 Z M334 703 C307 703 295 690 286 681 C281 676 277 670 270 670 C256 670 253 685 252 689 C252 693 249 695 245 695 L193 695 C191 695 189 695 188 693 C186 692 185 690 185 687 C186 682 188 659 200 637 C214 614 234 602 257 602 C283 602 294 613 304 623 C311 629 314 633 321 633 C329 633 334 629 337 624 C338 621 339 618 339 616 C340 612 344 610 346 610 L399 610 C401 610 403 611 405 612 C406 614 406 616 406 618 C406 625 404 647 390 668 C381 684 364 703 334 703 L334 703 Z M370 632 C368 632 365 634 364 636 C364 638 361 666 339 666 C322 666 312 657 302 648 C291 639 278 629 259 629 C228 629 217 658 216 672 C215 675 217 678 219 678 C222 678 225 676 225 673 C225 671 229 640 259 640 C275 640 285 647 295 656 C307 665 319 675 339 675 C363 675 372 651 374 638 C374 635 372 633 370 632 L370 632 Z " />
<glyph glyph-name="adieresis" unicode="&#xe4;" horiz-adv-x="571" d="M499 12 L485 25 L356 504 L365 517 C366 520 366 522 365 525 C364 526 362 528 359 528 L234 528 C231 528 228 526 226 525 C226 522 226 520 227 517 L235 504 L106 25 L94 12 C91 9 91 7 92 4 C93 2 96 0 99 0 L218 0 C221 0 224 2 226 4 C226 7 226 9 224 12 L212 24 L237 117 L354 117 L380 24 L368 12 C366 9 366 7 367 4 C368 2 370 0 372 0 L493 0 C496 0 499 2 500 4 C501 7 500 9 499 12 L499 12 Z M428 46 L427 46 C425 46 423 47 423 48 L386 169 L204 169 L169 48 C168 47 166 45 163 46 C161 47 159 48 160 51 L284 477 C285 482 289 484 294 484 C298 484 302 483 303 477 L431 51 C432 48 431 47 428 46 L428 46 Z M294 474 L207 179 L383 179 L294 474 L294 474 Z M329 216 L263 216 L295 337 L329 216 Z M252 609 C273 609 290 628 290 649 C290 670 273 687 252 687 C230 687 212 670 212 649 C212 628 230 609 252 609 L252 609 Z M251 661 C257 661 262 655 262 650 C262 644 257 639 251 639 C244 639 241 644 241 650 C241 655 244 661 251 661 L251 661 Z M342 685 C321 685 304 668 304 647 C304 627 321 609 342 609 C364 609 381 627 381 647 C381 668 364 685 342 685 L342 685 Z M343 638 C338 638 332 643 332 648 C332 653 338 658 343 658 C349 658 354 653 354 648 C354 643 349 638 343 638 L343 638 Z " />
<glyph glyph-name="aring" unicode="&#xe5;" horiz-adv-x="570" d="M270 559 C270 570 272 586 294 586 C313 586 320 576 321 559 C321 542 317 529 297 529 L294 529 C277 529 270 543 270 559 L270 559 Z M498 12 L485 25 L359 493 C360 494 360 494 360 495 C371 506 376 523 376 547 L376 568 C376 593 371 609 361 620 L359 622 C346 636 325 642 295 642 C265 642 244 636 231 620 C220 609 216 593 216 568 L216 547 C216 523 220 507 231 495 L233 493 L106 25 L93 12 C89 8 93 0 98 0 L218 0 C225 0 227 9 224 12 L212 24 L237 117 L354 117 L380 24 L368 12 C363 8 368 0 372 0 L493 0 C500 0 502 9 498 12 L498 12 Z M428 46 L427 46 C425 46 423 47 423 48 L386 169 L204 169 L169 48 C168 47 165 45 162 46 C160 47 159 48 159 51 L284 497 C256 500 238 516 238 565 C238 599 259 618 295 618 C332 618 353 597 353 558 C353 518 337 500 305 497 L431 51 C432 48 431 47 428 46 L428 46 Z M294 497 L294 496 L207 179 L383 179 L294 496 C294 496 294 497 294 497 L294 497 Z M294 506 L297 506 C320 506 343 512 343 558 C343 592 328 609 295 609 C275 609 248 601 248 565 C248 517 263 507 294 506 L294 506 Z M329 217 L329 216 L263 216 L263 217 L295 337 L329 217 Z " />
<glyph glyph-name="ae" unicode="&#xe6;" horiz-adv-x="733" d="M655 528 L297 528 C294 528 293 526 292 524 C290 522 291 518 293 517 L305 503 L106 25 L93 12 C91 10 91 7 92 4 C93 2 96 0 98 0 L218 0 C221 0 224 2 225 4 C226 7 226 10 224 12 L212 24 L251 117 L377 117 L377 25 L364 12 C363 10 362 7 363 4 C364 2 367 0 370 0 L655 0 C659 0 662 4 662 7 L662 106 C662 110 661 113 658 114 C657 114 656 115 655 115 C654 115 653 114 651 112 L637 100 L483 100 L483 218 L599 218 L611 207 C613 206 615 205 617 205 L619 205 C622 207 623 209 623 212 L623 327 C623 329 622 332 619 332 C618 333 617 333 617 333 C615 333 613 332 611 332 L599 319 L483 319 L483 428 L637 428 L651 416 C653 414 654 414 655 414 C656 414 657 414 658 414 C661 415 662 418 662 422 L662 522 C662 525 659 528 655 528 L655 528 Z M611 476 L431 476 L431 276 L579 276 C581 276 584 274 584 271 C584 269 581 266 579 266 L431 266 L431 56 L611 56 C615 56 617 55 617 51 C617 48 615 47 611 47 L427 47 C424 47 422 48 422 51 L422 164 L218 164 L170 48 C169 47 167 46 166 46 C165 46 164 46 163 47 C161 47 160 49 161 52 L343 483 C344 484 346 486 347 486 L611 486 C615 486 617 484 617 482 C617 479 615 476 611 476 L611 476 Z M223 174 L422 174 L422 476 L351 476 L223 174 Z M377 217 L292 217 L377 421 L377 217 Z " />
<glyph glyph-name="ccedilla" unicode="&#xe7;" horiz-adv-x="526" d="M418 495 C389 525 341 539 275 539 C205 539 157 523 127 491 C103 465 91 427 91 372 L91 162 C91 107 103 70 127 44 L131 39 C154 16 188 3 235 -3 L235 -31 C235 -59 236 -75 244 -85 C244 -86 245 -86 245 -86 C254 -94 267 -96 288 -96 L293 -96 C296 -96 300 -97 302 -99 C303 -100 304 -103 304 -105 C304 -107 304 -110 294 -113 C286 -115 275 -115 268 -115 L257 -115 C256 -115 254 -116 252 -116 C251 -118 251 -120 251 -122 L251 -180 C251 -181 251 -183 252 -184 C253 -185 256 -186 257 -186 L296 -186 C327 -186 346 -181 359 -167 C371 -156 376 -138 376 -110 L376 -96 C376 -73 374 -55 366 -43 L363 -39 C350 -26 330 -24 313 -24 L306 -24 L306 -4 C359 1 397 16 421 44 C446 70 457 107 457 162 L457 213 C457 215 456 217 455 218 C453 218 451 219 449 219 L345 219 C342 219 339 218 337 216 C337 213 337 209 339 208 L351 195 L351 189 C351 162 346 141 336 127 C324 111 305 104 279 104 L269 104 C252 104 233 107 218 122 C206 134 197 156 197 189 L197 346 C197 373 202 394 213 408 C225 424 243 431 269 431 L279 431 C302 431 319 426 332 414 L332 413 C341 404 347 389 351 373 L338 362 C337 359 336 356 337 354 L338 351 C340 351 342 350 344 350 L449 350 C454 350 457 353 457 356 L457 372 C457 427 446 465 422 491 C420 492 419 494 418 495 L418 495 Z M398 395 C396 395 393 397 393 400 C393 408 389 481 275 481 C228 481 195 470 175 449 C149 424 149 389 149 362 L149 168 C149 129 158 103 175 85 C194 65 226 55 275 55 C320 55 352 65 371 83 C390 101 400 128 400 170 C400 173 402 175 405 175 C408 175 409 173 409 170 C409 125 400 96 379 76 C356 55 323 47 275 47 L275 -51 C276 -53 288 -53 293 -53 L298 -53 C312 -52 325 -52 334 -62 C342 -69 346 -83 346 -104 C346 -122 342 -134 333 -143 C324 -152 312 -153 299 -153 L285 -153 C281 -153 278 -150 279 -147 C280 -144 282 -143 285 -143 L292 -143 C303 -143 318 -143 327 -136 C332 -129 336 -119 336 -104 C336 -86 333 -74 328 -68 C320 -63 311 -63 298 -63 L293 -63 C277 -63 271 -63 268 -58 C264 -55 264 -51 264 -47 L264 47 C219 47 188 58 167 78 C148 98 140 126 140 168 L140 362 C140 389 140 428 167 457 C190 479 226 491 275 491 C321 491 356 479 379 456 C402 433 404 407 404 400 C404 397 401 395 398 395 L398 395 Z " />
<glyph glyph-name="egrave" unicode="&#xe8;" horiz-adv-x="463" d="M106 25 L94 12 C91 10 91 7 92 4 C93 2 96 0 99 0 L385 0 C389 0 392 4 392 7 L392 106 C392 110 390 113 388 114 C387 114 386 115 385 115 C383 115 381 114 380 112 L368 100 L212 100 L212 218 L329 218 L341 207 C343 206 345 205 346 205 L349 205 C351 207 353 209 353 212 L353 327 C353 329 351 332 349 332 C348 333 347 333 346 333 C345 333 343 332 341 332 L329 319 L212 319 L212 428 L368 428 L380 416 C381 414 383 414 385 414 C386 414 387 414 388 414 C390 415 392 418 392 422 L392 522 C392 525 389 528 385 528 L99 528 C96 528 93 526 92 524 C91 522 91 518 94 517 L106 503 L106 25 Z M152 49 L152 480 C152 483 155 484 158 484 L342 484 C345 484 347 483 347 480 C347 477 345 474 342 474 L162 474 L162 275 L309 275 C312 275 313 272 313 269 C313 267 312 264 309 264 L162 264 L162 55 L342 55 C345 55 347 53 347 49 C347 47 345 46 342 46 L158 46 C155 46 152 47 152 49 L152 49 Z M246 693 L194 693 C192 693 189 691 188 689 C186 686 186 685 188 683 L225 615 C226 612 228 611 231 611 L256 611 C259 611 261 612 262 613 C263 615 264 618 263 619 L253 686 C253 690 250 693 246 693 L246 693 Z M238 637 C237 636 237 636 237 636 C235 636 233 638 232 640 L221 669 C219 671 221 674 224 676 C227 677 229 675 230 672 L241 644 C242 641 241 638 238 637 L238 637 Z " />
<glyph glyph-name="eacute" unicode="&#xe9;" horiz-adv-x="463" d="M106 25 L94 12 C91 10 91 7 92 4 C93 2 96 0 99 0 L385 0 C389 0 392 4 392 7 L392 106 C392 110 390 113 388 114 C387 114 386 115 385 115 C383 115 381 114 380 112 L368 100 L212 100 L212 218 L329 218 L341 207 C343 206 345 205 346 205 L349 205 C351 207 353 209 353 212 L353 327 C353 329 351 332 349 332 C348 333 347 333 346 333 C345 333 343 332 341 332 L329 319 L212 319 L212 428 L368 428 L380 416 C381 414 383 414 385 414 C386 414 387 414 388 414 C390 415 392 418 392 422 L392 522 C392 525 389 528 385 528 L99 528 C96 528 93 526 92 524 C91 522 91 518 94 517 L106 503 L106 25 Z M152 49 L152 480 C152 483 155 484 158 484 L342 484 C345 484 347 483 347 480 C347 477 345 474 342 474 L162 474 L162 275 L309 275 C312 275 313 272 313 269 C313 267 312 264 309 264 L162 264 L162 55 L342 55 C345 55 347 53 347 49 C347 47 345 46 342 46 L158 46 C155 46 152 47 152 49 L152 49 Z M228 684 L215 619 C215 618 215 615 217 614 C218 612 221 611 222 611 L253 611 C255 611 257 612 259 614 L303 678 C303 679 303 681 303 683 C303 686 301 689 297 689 L235 689 C231 689 229 686 228 684 L228 684 Z M241 644 L251 673 C252 676 255 678 257 677 C260 676 262 673 261 670 L250 640 C250 638 247 636 246 636 C246 636 246 636 245 637 C242 638 240 641 241 644 L241 644 Z " />
<glyph glyph-name="ecircumflex" unicode="&#xea;" horiz-adv-x="463" d="M106 25 L94 12 C91 10 91 7 92 4 C93 2 96 0 99 0 L385 0 C389 0 392 4 392 7 L392 106 C392 110 390 113 388 114 C387 114 386 115 385 115 C383 115 381 114 380 112 L368 100 L212 100 L212 218 L329 218 L341 207 C343 206 345 205 346 205 L349 205 C351 207 353 209 353 212 L353 327 C353 329 351 332 349 332 C348 333 347 333 346 333 C345 333 343 332 341 332 L329 319 L212 319 L212 428 L368 428 L380 416 C381 414 383 414 385 414 C386 414 387 414 388 414 C390 415 392 418 392 422 L392 522 C392 525 389 528 385 528 L99 528 C96 528 93 526 92 524 C91 522 91 518 94 517 L106 503 L106 25 Z M152 49 L152 480 C152 483 155 484 158 484 L342 484 C345 484 347 483 347 480 C347 477 345 474 342 474 L162 474 L162 275 L309 275 C312 275 313 272 313 269 C313 267 312 264 309 264 L162 264 L162 55 L342 55 C345 55 347 53 347 49 C347 47 345 46 342 46 L158 46 C155 46 152 47 152 49 L152 49 Z M131 617 C132 614 135 612 138 612 L200 612 C202 612 205 613 205 615 L247 664 L276 616 C277 614 279 612 282 612 L346 612 C349 612 351 614 352 617 C353 618 352 621 352 623 L299 700 C298 702 295 704 293 704 L208 704 C206 704 204 703 203 701 L133 624 C130 622 130 618 131 617 L131 617 Z M179 637 L200 670 C211 684 228 693 246 693 C264 692 280 681 290 666 L307 637 C308 635 308 632 305 630 C304 630 303 629 302 629 C300 629 299 630 298 632 L281 661 C274 674 260 681 246 682 C231 683 217 676 208 663 L186 632 C185 629 181 629 180 630 C178 632 177 636 179 637 L179 637 Z " />
<glyph glyph-name="edieresis" unicode="&#xeb;" horiz-adv-x="463" d="M106 25 L94 12 C91 10 91 7 92 4 C93 2 96 0 99 0 L385 0 C389 0 392 4 392 7 L392 106 C392 110 390 113 388 114 C387 114 386 115 385 115 C383 115 381 114 380 112 L368 100 L212 100 L212 218 L329 218 L341 207 C343 206 345 205 346 205 L349 205 C351 207 353 209 353 212 L353 327 C353 329 351 332 349 332 C348 333 347 333 346 333 C345 333 343 332 341 332 L329 319 L212 319 L212 428 L368 428 L380 416 C381 414 383 414 385 414 C386 414 387 414 388 414 C390 415 392 418 392 422 L392 522 C392 525 389 528 385 528 L99 528 C96 528 93 526 92 524 C91 522 91 518 94 517 L106 503 L106 25 Z M152 49 L152 480 C152 483 155 484 158 484 L342 484 C345 484 347 483 347 480 C347 477 345 474 342 474 L162 474 L162 275 L309 275 C312 275 313 272 313 269 C313 267 312 264 309 264 L162 264 L162 55 L342 55 C345 55 347 53 347 49 C347 47 345 46 342 46 L158 46 C155 46 152 47 152 49 L152 49 Z M197 609 C218 609 235 628 235 649 C235 670 218 687 197 687 C175 687 157 670 157 649 C157 628 175 609 197 609 L197 609 Z M196 661 C202 661 207 655 207 650 C207 644 202 639 196 639 C189 639 186 644 186 650 C186 655 189 661 196 661 L196 661 Z M287 685 C266 685 249 668 249 647 C249 627 266 609 287 609 C309 609 326 627 326 647 C326 668 309 685 287 685 L287 685 Z M288 638 C283 638 277 643 277 648 C277 653 283 658 288 658 C294 658 299 653 299 648 C299 643 294 638 288 638 L288 638 Z " />
<glyph glyph-name="igrave" unicode="&#xec;" horiz-adv-x="296" d="M94 12 C91 10 91 7 92 4 C93 2 96 0 99 0 L218 0 C221 0 224 2 225 4 C226 7 226 10 224 12 L211 25 L211 503 L224 517 C225 517 226 519 226 522 C226 525 222 528 218 528 L99 528 C96 528 93 526 92 524 C91 522 91 518 94 517 L106 503 L106 25 L94 12 Z M154 480 C154 483 156 484 159 484 C161 484 163 483 163 480 L163 49 C163 47 161 46 159 46 C156 46 154 47 154 49 L154 480 Z M163 693 L111 693 C109 693 106 691 105 689 C103 686 103 685 105 683 L142 615 C143 612 145 611 148 611 L173 611 C176 611 178 612 179 613 C180 615 181 618 180 619 L170 686 C170 690 167 693 163 693 L163 693 Z M155 637 C154 636 154 636 154 636 C152 636 150 638 149 640 L138 669 C136 671 138 674 141 676 C144 677 146 675 147 672 L158 644 C159 641 158 638 155 637 L155 637 Z " />
<glyph glyph-name="iacute" unicode="&#xed;" horiz-adv-x="296" d="M94 12 C91 10 91 7 92 4 C93 2 96 0 99 0 L218 0 C221 0 224 2 225 4 C226 7 226 10 224 12 L211 25 L211 503 L224 517 C225 517 226 519 226 522 C226 525 222 528 218 528 L99 528 C96 528 93 526 92 524 C91 522 91 518 94 517 L106 503 L106 25 L94 12 Z M154 480 C154 483 156 484 159 484 C161 484 163 483 163 480 L163 49 C163 47 161 46 159 46 C156 46 154 47 154 49 L154 480 Z M145 684 L132 619 C132 618 132 615 134 614 C135 612 138 611 139 611 L170 611 C172 611 174 612 176 614 L220 678 C220 679 220 681 220 683 C220 686 218 689 214 689 L152 689 C148 689 146 686 145 684 L145 684 Z M158 644 L168 673 C169 676 172 678 174 677 C177 676 179 673 178 670 L167 640 C167 638 164 636 163 636 C163 636 163 636 162 637 C159 638 157 641 158 644 L158 644 Z " />
<glyph glyph-name="icircumflex" unicode="&#xee;" horiz-adv-x="384" d="M94 12 C91 10 91 7 92 4 C93 2 96 0 99 0 L218 0 C221 0 224 2 225 4 C226 7 226 10 224 12 L211 25 L211 503 L224 517 C225 517 226 519 226 522 C226 525 222 528 218 528 L99 528 C96 528 93 526 92 524 C91 522 91 518 94 517 L106 503 L106 25 L94 12 Z M154 480 C154 483 156 484 159 484 C161 484 163 483 163 480 L163 49 C163 47 161 46 159 46 C156 46 154 47 154 49 L154 480 Z M49 617 C50 614 53 612 56 612 L118 612 C120 612 123 613 123 615 L165 664 L194 616 C195 614 197 612 200 612 L264 612 C267 612 269 614 270 617 C271 618 270 621 270 623 L217 700 C216 702 213 704 211 704 L126 704 C124 704 122 703 121 701 L51 624 C48 622 48 618 49 617 L49 617 Z M97 637 L118 670 C129 684 146 693 164 693 C182 692 198 681 208 666 L225 637 C226 635 226 632 223 630 C222 630 221 629 220 629 C218 629 217 630 216 632 L199 661 C192 674 178 681 164 682 C149 683 135 676 126 663 L104 632 C103 629 99 629 98 630 C96 632 95 636 97 637 L97 637 Z " />
<glyph glyph-name="idieresis" unicode="&#xef;" horiz-adv-x="330" d="M94 12 C91 10 91 7 92 4 C93 2 96 0 99 0 L218 0 C221 0 224 2 225 4 C226 7 226 10 224 12 L211 25 L211 503 L224 517 C225 517 226 519 226 522 C226 525 222 528 218 528 L99 528 C96 528 93 526 92 524 C91 522 91 518 94 517 L106 503 L106 25 L94 12 Z M154 480 C154 483 156 484 159 484 C161 484 163 483 163 480 L163 49 C163 47 161 46 159 46 C156 46 154 47 154 49 L154 480 Z M114 609 C135 609 152 628 152 649 C152 670 135 687 114 687 C92 687 74 670 74 649 C74 628 92 609 114 609 L114 609 Z M113 661 C119 661 124 655 124 650 C124 644 119 639 113 639 C106 639 103 644 103 650 C103 655 106 661 113 661 L113 661 Z M204 685 C183 685 166 668 166 647 C166 627 183 609 204 609 C226 609 243 627 243 647 C243 668 226 685 204 685 L204 685 Z M205 638 C200 638 194 643 194 648 C194 653 200 658 205 658 C211 658 216 653 216 648 C216 643 211 638 205 638 L205 638 Z " />
<glyph glyph-name="eth" unicode="&#xf0;" horiz-adv-x="566" d="M338 528 L123 528 C122 528 119 526 117 524 C116 522 117 518 119 517 L131 503 L131 312 L98 312 C95 312 91 308 91 304 L91 235 C91 231 95 228 98 228 L131 228 L131 25 L119 12 C117 10 116 7 117 4 C119 2 122 0 123 0 L338 0 C389 0 428 13 455 41 C483 67 497 107 497 158 L497 370 C497 418 484 457 460 483 C433 513 392 528 338 528 L338 528 Z M450 152 C450 100 408 45 316 45 L186 45 C183 45 182 47 182 49 L182 265 L129 265 C126 265 123 268 123 270 C123 273 126 275 129 275 L182 275 L182 480 C182 483 183 484 186 484 L315 484 C406 484 450 442 450 357 L450 152 Z M315 475 L192 475 L192 275 L293 275 C294 275 296 273 296 270 C296 268 294 265 293 265 L192 265 L192 55 L316 55 C354 55 388 65 409 85 C430 103 441 126 441 152 L441 357 C441 437 400 475 315 475 L315 475 Z M390 182 C390 157 384 136 370 123 C355 107 335 100 310 100 L237 100 L237 228 L326 228 C330 228 332 231 332 235 L332 304 C332 308 330 312 326 312 L237 312 L237 428 L310 428 C337 428 358 422 371 408 C385 395 390 375 390 346 L390 182 Z " />
<glyph glyph-name="ntilde" unicode="&#xf1;" horiz-adv-x="517" d="M445 4 C446 7 446 10 443 12 L431 25 L431 503 L443 517 C446 518 446 522 445 524 C444 526 441 528 438 528 L318 528 C315 528 313 526 312 524 C311 522 312 518 313 517 L325 503 L325 266 L213 524 C211 526 209 528 206 528 L99 528 C96 528 93 526 92 524 C91 522 91 518 94 517 L106 503 L106 25 L94 12 C91 10 91 7 92 4 C93 2 96 0 99 0 L218 0 C221 0 224 2 225 4 C226 7 226 10 224 12 L211 25 L211 267 L321 21 L313 12 C312 10 311 7 312 4 C313 2 315 0 318 0 L438 0 C441 0 444 2 445 4 L445 4 Z M382 48 C382 47 380 45 379 44 L377 44 C375 44 373 45 372 47 L164 459 L164 49 C164 47 161 46 159 46 C157 46 154 47 154 49 L154 480 C154 482 156 484 158 484 C160 484 162 484 163 482 L372 69 L372 480 C372 483 374 484 377 484 C380 484 382 483 382 480 L382 48 Z M306 712 C279 712 267 699 258 690 C253 685 249 679 242 679 C228 679 225 694 224 698 C224 702 221 704 217 704 L165 704 C163 704 161 704 160 702 C158 701 157 699 157 696 C158 691 160 668 172 646 C186 623 206 611 229 611 C255 611 266 622 276 632 C283 638 286 642 293 642 C301 642 306 638 309 633 C310 630 311 627 311 625 C312 621 316 619 318 619 L371 619 C373 619 375 620 377 621 C378 623 378 625 378 627 C378 634 376 656 362 677 C353 693 336 712 306 712 L306 712 Z M342 641 C340 641 337 643 336 645 C336 647 333 675 311 675 C294 675 284 666 274 657 C263 648 250 638 231 638 C200 638 189 667 188 681 C187 684 189 687 191 687 C194 687 197 685 197 682 C197 680 201 649 231 649 C247 649 257 656 267 665 C279 674 291 684 311 684 C335 684 344 660 346 647 C346 644 344 642 342 641 L342 641 Z " />
<glyph glyph-name="ograve" unicode="&#xf2;" horiz-adv-x="527" d="M275 -8 C344 -8 391 8 422 40 C446 66 457 104 457 159 L457 370 C457 423 446 461 422 487 C392 520 344 535 275 535 C205 535 158 520 127 488 C104 461 91 423 91 370 L91 159 C91 104 104 66 127 40 C157 8 204 -8 275 -8 L275 -8 Z M141 364 C141 446 184 490 265 490 L286 490 C367 490 410 446 410 364 L410 166 C410 90 361 42 286 42 L265 42 C226 42 194 53 173 74 C151 97 141 128 141 166 L141 364 Z M265 52 L286 52 C319 52 347 63 368 81 C389 102 400 132 400 166 L400 364 C400 441 362 480 286 480 L265 480 C190 480 149 440 149 364 L149 166 C149 130 160 102 180 82 C200 62 228 52 265 52 L265 52 Z M198 185 L198 343 C198 370 202 390 213 406 C225 421 243 428 269 428 L279 428 C313 428 351 414 351 343 L351 185 C351 159 346 138 336 123 C324 107 305 100 279 100 L269 100 C236 100 198 115 198 185 L198 185 Z M278 693 L226 693 C224 693 221 691 220 689 C218 686 218 685 220 683 L257 615 C258 612 260 611 263 611 L288 611 C291 611 293 612 294 613 C295 615 296 618 295 619 L285 686 C285 690 282 693 278 693 L278 693 Z M270 637 C269 636 269 636 269 636 C267 636 265 638 264 640 L253 669 C251 671 253 674 256 676 C259 677 261 675 262 672 L273 644 C274 641 273 638 270 637 L270 637 Z " />
<glyph glyph-name="oacute" unicode="&#xf3;" horiz-adv-x="527" d="M275 -8 C344 -8 391 8 422 40 C446 66 457 104 457 159 L457 370 C457 423 446 461 422 487 C392 520 344 535 275 535 C205 535 158 520 127 488 C104 461 91 423 91 370 L91 159 C91 104 104 66 127 40 C157 8 204 -8 275 -8 L275 -8 Z M141 364 C141 446 184 490 265 490 L286 490 C367 490 410 446 410 364 L410 166 C410 90 361 42 286 42 L265 42 C226 42 194 53 173 74 C151 97 141 128 141 166 L141 364 Z M265 52 L286 52 C319 52 347 63 368 81 C389 102 400 132 400 166 L400 364 C400 441 362 480 286 480 L265 480 C190 480 149 440 149 364 L149 166 C149 130 160 102 180 82 C200 62 228 52 265 52 L265 52 Z M198 185 L198 343 C198 370 202 390 213 406 C225 421 243 428 269 428 L279 428 C313 428 351 414 351 343 L351 185 C351 159 346 138 336 123 C324 107 305 100 279 100 L269 100 C236 100 198 115 198 185 L198 185 Z M261 684 L248 619 C248 618 248 615 250 614 C251 612 254 611 255 611 L286 611 C288 611 290 612 292 614 L336 678 C336 679 336 681 336 683 C336 686 334 689 330 689 L268 689 C264 689 262 686 261 684 L261 684 Z M274 644 L284 673 C285 676 288 678 290 677 C293 676 295 673 294 670 L283 640 C283 638 280 636 279 636 C279 636 279 636 278 637 C275 638 273 641 274 644 L274 644 Z " />
<glyph glyph-name="ocircumflex" unicode="&#xf4;" horiz-adv-x="527" d="M275 -8 C344 -8 391 8 422 40 C446 66 457 104 457 159 L457 370 C457 423 446 461 422 487 C392 520 344 535 275 535 C205 535 158 520 127 488 C104 461 91 423 91 370 L91 159 C91 104 104 66 127 40 C157 8 204 -8 275 -8 L275 -8 Z M141 364 C141 446 184 490 265 490 L286 490 C367 490 410 446 410 364 L410 166 C410 90 361 42 286 42 L265 42 C226 42 194 53 173 74 C151 97 141 128 141 166 L141 364 Z M265 52 L286 52 C319 52 347 63 368 81 C389 102 400 132 400 166 L400 364 C400 441 362 480 286 480 L265 480 C190 480 149 440 149 364 L149 166 C149 130 160 102 180 82 C200 62 228 52 265 52 L265 52 Z M198 185 L198 343 C198 370 202 390 213 406 C225 421 243 428 269 428 L279 428 C313 428 351 414 351 343 L351 185 C351 159 346 138 336 123 C324 107 305 100 279 100 L269 100 C236 100 198 115 198 185 L198 185 Z M164 625 C165 622 168 620 171 620 L233 620 C235 620 238 621 238 623 L280 672 L309 624 C310 622 312 620 315 620 L379 620 C382 620 384 622 385 625 C386 626 385 629 385 631 L332 708 C331 710 328 712 326 712 L241 712 C239 712 237 711 236 709 L166 632 C163 630 163 626 164 625 L164 625 Z M212 645 L233 678 C244 692 261 701 279 701 C297 700 313 689 323 674 L340 645 C341 643 341 640 338 638 C337 638 336 637 335 637 C333 637 332 638 331 640 L314 669 C307 682 293 689 279 690 C264 691 250 684 241 671 L219 640 C218 637 214 637 213 638 C211 640 210 644 212 645 L212 645 Z " />
<glyph glyph-name="otilde" unicode="&#xf5;" horiz-adv-x="527" d="M275 -8 C344 -8 391 8 422 40 C446 66 457 104 457 159 L457 370 C457 423 446 461 422 487 C392 520 344 535 275 535 C205 535 158 520 127 488 C104 461 91 423 91 370 L91 159 C91 104 104 66 127 40 C157 8 204 -8 275 -8 L275 -8 Z M141 364 C141 446 184 490 265 490 L286 490 C367 490 410 446 410 364 L410 166 C410 90 361 42 286 42 L265 42 C226 42 194 53 173 74 C151 97 141 128 141 166 L141 364 Z M265 52 L286 52 C319 52 347 63 368 81 C389 102 400 132 400 166 L400 364 C400 441 362 480 286 480 L265 480 C190 480 149 440 149 364 L149 166 C149 130 160 102 180 82 C200 62 228 52 265 52 L265 52 Z M198 185 L198 343 C198 370 202 390 213 406 C225 421 243 428 269 428 L279 428 C313 428 351 414 351 343 L351 185 C351 159 346 138 336 123 C324 107 305 100 279 100 L269 100 C236 100 198 115 198 185 L198 185 Z M312 712 C285 712 273 699 264 690 C259 685 255 679 248 679 C234 679 231 694 230 698 C230 702 227 704 223 704 L171 704 C169 704 167 704 166 702 C164 701 163 699 163 696 C164 691 166 668 178 646 C192 623 212 611 235 611 C261 611 272 622 282 632 C289 638 292 642 299 642 C307 642 312 638 315 633 C316 630 317 627 317 625 C318 621 322 619 324 619 L377 619 C379 619 381 620 383 621 C384 623 384 625 384 627 C384 634 382 656 368 677 C359 693 342 712 312 712 L312 712 Z M348 641 C346 641 343 643 342 645 C342 647 339 675 317 675 C300 675 290 666 280 657 C269 648 256 638 237 638 C206 638 195 667 194 681 C193 684 195 687 197 687 C200 687 203 685 203 682 C203 680 207 649 237 649 C253 649 263 656 273 665 C285 674 297 684 317 684 C341 684 350 660 352 647 C352 644 350 642 348 641 L348 641 Z " />
<glyph glyph-name="odieresis" unicode="&#xf6;" horiz-adv-x="527" d="M275 -8 C344 -8 391 8 422 40 C446 66 457 104 457 159 L457 370 C457 423 446 461 422 487 C392 520 344 535 275 535 C205 535 158 520 127 488 C104 461 91 423 91 370 L91 159 C91 104 104 66 127 40 C157 8 204 -8 275 -8 L275 -8 Z M141 364 C141 446 184 490 265 490 L286 490 C367 490 410 446 410 364 L410 166 C410 90 361 42 286 42 L265 42 C226 42 194 53 173 74 C151 97 141 128 141 166 L141 364 Z M265 52 L286 52 C319 52 347 63 368 81 C389 102 400 132 400 166 L400 364 C400 441 362 480 286 480 L265 480 C190 480 149 440 149 364 L149 166 C149 130 160 102 180 82 C200 62 228 52 265 52 L265 52 Z M198 185 L198 343 C198 370 202 390 213 406 C225 421 243 428 269 428 L279 428 C313 428 351 414 351 343 L351 185 C351 159 346 138 336 123 C324 107 305 100 279 100 L269 100 C236 100 198 115 198 185 L198 185 Z M229 618 C250 618 267 637 267 658 C267 679 250 696 229 696 C207 696 189 679 189 658 C189 637 207 618 229 618 L229 618 Z M228 670 C234 670 239 664 239 659 C239 653 234 648 228 648 C221 648 218 653 218 659 C218 664 221 670 228 670 L228 670 Z M319 694 C298 694 281 677 281 656 C281 636 298 618 319 618 C341 618 358 636 358 656 C358 677 341 694 319 694 L319 694 Z M320 647 C315 647 309 652 309 657 C309 662 315 667 320 667 C326 667 331 662 331 657 C331 652 326 647 320 647 L320 647 Z " />
<glyph glyph-name="divide" unicode="&#xf7;" horiz-adv-x="367" d="M237 175 C237 199 218 218 195 218 C171 218 152 199 152 175 C152 152 171 133 195 133 C218 133 237 152 237 175 L237 175 Z M183 177 C183 183 187 187 193 187 C199 187 203 183 203 177 C203 171 199 166 193 166 C187 166 183 171 183 177 L183 177 Z M237 375 C237 398 218 418 195 418 C171 418 152 398 152 375 C152 352 171 332 195 332 C218 332 237 352 237 375 L237 375 Z M183 377 C183 382 187 388 193 388 C199 388 203 382 203 377 C203 371 199 366 193 366 C187 366 183 371 183 377 L183 377 Z M291 317 L99 317 C95 317 91 313 91 311 L91 241 C91 237 95 235 99 235 L291 235 C294 235 297 237 297 241 L297 311 C297 313 294 317 291 317 L291 317 Z M256 269 L130 269 C127 269 124 271 124 274 C124 276 127 278 130 278 L256 278 C259 278 260 276 260 274 C260 271 259 269 256 269 L256 269 Z " />
<glyph glyph-name="oslash" unicode="&#xf8;" horiz-adv-x="526" d="M146 24 L123 -44 C123 -46 123 -48 124 -49 C126 -51 128 -53 131 -53 L221 -53 C225 -53 227 -50 228 -48 L242 -6 C252 -7 263 -8 275 -8 C344 -8 391 9 422 40 C446 66 457 105 457 159 L457 370 C457 431 442 474 408 500 L425 549 C426 551 425 553 424 555 C423 557 421 559 418 559 L328 559 C324 559 321 556 320 553 L313 534 C302 535 288 536 275 536 C205 536 158 521 127 488 C104 462 91 424 91 370 L91 159 C91 127 96 102 104 81 C112 56 126 38 146 24 L146 24 Z M143 363 C143 443 188 487 269 487 L289 487 C310 487 328 484 343 480 L353 511 C354 514 356 516 359 515 C362 514 363 510 363 508 L352 476 C393 458 414 420 414 363 L414 165 C414 89 365 40 289 40 L269 40 C248 40 229 44 212 50 L197 4 C197 2 194 0 192 0 C192 0 192 0 191 1 C188 2 186 4 187 7 L203 54 C193 59 184 66 177 72 C156 94 143 126 143 165 L143 363 Z M269 49 L289 49 C322 49 351 60 371 80 C393 100 405 129 405 165 L405 363 C405 415 386 450 349 466 L216 59 C231 53 249 49 269 49 L269 49 Z M206 64 L339 470 C325 475 309 478 289 478 L269 478 C194 478 154 438 154 363 L154 165 C154 128 164 100 183 81 C191 73 198 68 206 64 L206 64 Z M198 180 L198 344 C198 370 202 391 213 406 C225 421 243 429 269 429 L279 429 L198 180 Z M351 327 L351 185 C351 159 346 139 336 123 C324 108 305 101 279 101 L277 101 L351 327 Z " />
<glyph glyph-name="ugrave" unicode="&#xf9;" horiz-adv-x="556" d="M106 503 L106 159 C106 104 117 66 142 40 C171 8 218 -8 289 -8 C358 -8 406 8 435 40 C460 66 471 104 471 159 L471 503 L484 517 C485 519 486 522 484 524 C484 526 482 528 479 528 L358 528 C355 528 353 526 352 524 C351 522 351 519 353 517 L366 503 L366 185 C366 158 361 138 351 123 C338 107 320 100 294 100 L284 100 C251 100 212 115 212 185 L212 343 L211 344 L211 503 L224 517 C225 518 226 520 226 522 C226 525 222 528 218 528 L99 528 C96 528 93 526 92 524 C91 522 91 519 94 517 L106 503 Z M152 477 C152 480 155 483 158 483 C160 483 162 480 162 477 L162 166 C162 130 173 102 192 82 C212 62 241 52 277 52 L297 52 C331 52 359 63 380 81 C402 102 413 132 413 166 L413 477 C413 480 414 483 418 483 C421 483 423 480 423 477 L423 166 C423 90 373 42 297 42 L277 42 C238 42 207 53 185 75 C164 97 152 128 152 166 L152 477 Z M293 693 L241 693 C239 693 236 691 235 689 C233 686 233 685 235 683 L272 615 C273 612 275 611 278 611 L303 611 C306 611 308 612 309 613 C310 615 311 618 310 619 L300 686 C300 690 297 693 293 693 L293 693 Z M285 637 C284 636 284 636 284 636 C282 636 280 638 279 640 L268 669 C266 671 268 674 271 676 C274 677 276 675 277 672 L288 644 C289 641 288 638 285 637 L285 637 Z " />
<glyph glyph-name="uacute" unicode="&#xfa;" horiz-adv-x="556" d="M106 503 L106 159 C106 104 117 66 142 40 C171 8 218 -8 289 -8 C358 -8 406 8 435 40 C460 66 471 104 471 159 L471 503 L484 517 C485 519 486 522 484 524 C484 526 482 528 479 528 L358 528 C355 528 353 526 352 524 C351 522 351 519 353 517 L366 503 L366 185 C366 158 361 138 351 123 C338 107 320 100 294 100 L284 100 C251 100 212 115 212 185 L212 343 L211 344 L211 503 L224 517 C225 518 226 520 226 522 C226 525 222 528 218 528 L99 528 C96 528 93 526 92 524 C91 522 91 519 94 517 L106 503 Z M152 477 C152 480 155 483 158 483 C160 483 162 480 162 477 L162 166 C162 130 173 102 192 82 C212 62 241 52 277 52 L297 52 C331 52 359 63 380 81 C402 102 413 132 413 166 L413 477 C413 480 414 483 418 483 C421 483 423 480 423 477 L423 166 C423 90 373 42 297 42 L277 42 C238 42 207 53 185 75 C164 97 152 128 152 166 L152 477 Z M274 684 L261 619 C261 618 261 615 263 614 C264 612 267 611 268 611 L299 611 C301 611 303 612 305 614 L349 678 C349 679 349 681 349 683 C349 686 347 689 343 689 L281 689 C277 689 275 686 274 684 L274 684 Z M287 644 L297 673 C298 676 301 678 303 677 C306 676 308 673 307 670 L296 640 C296 638 293 636 292 636 C292 636 292 636 291 637 C288 638 286 641 287 644 L287 644 Z " />
<glyph glyph-name="ucircumflex" unicode="&#xfb;" horiz-adv-x="556" d="M106 503 L106 159 C106 104 117 66 142 40 C171 8 218 -8 289 -8 C358 -8 406 8 435 40 C460 66 471 104 471 159 L471 503 L484 517 C485 519 486 522 484 524 C484 526 482 528 479 528 L358 528 C355 528 353 526 352 524 C351 522 351 519 353 517 L366 503 L366 185 C366 158 361 138 351 123 C338 107 320 100 294 100 L284 100 C251 100 212 115 212 185 L212 343 L211 344 L211 503 L224 517 C225 518 226 520 226 522 C226 525 222 528 218 528 L99 528 C96 528 93 526 92 524 C91 522 91 519 94 517 L106 503 Z M152 477 C152 480 155 483 158 483 C160 483 162 480 162 477 L162 166 C162 130 173 102 192 82 C212 62 241 52 277 52 L297 52 C331 52 359 63 380 81 C402 102 413 132 413 166 L413 477 C413 480 414 483 418 483 C421 483 423 480 423 477 L423 166 C423 90 373 42 297 42 L277 42 C238 42 207 53 185 75 C164 97 152 128 152 166 L152 477 Z M196 617 C197 614 200 612 203 612 L265 612 C267 612 270 613 270 615 L312 664 L341 616 C342 614 344 612 347 612 L411 612 C414 612 416 614 417 617 C418 618 417 621 417 623 L364 700 C363 702 360 704 358 704 L273 704 C271 704 269 703 268 701 L198 624 C195 622 195 618 196 617 L196 617 Z M244 637 L265 670 C276 684 293 693 311 693 C329 692 345 681 355 666 L372 637 C373 635 373 632 370 630 C369 630 368 629 367 629 C365 629 364 630 363 632 L346 661 C339 674 325 681 311 682 C296 683 282 676 273 663 L251 632 C250 629 246 629 245 630 C243 632 242 636 244 637 L244 637 Z " />
</font>
</svg>
