<?xml version="1.0" encoding="UTF-8"?>
<svg xmlns="http://www.w3.org/2000/svg" xmlns:xlink="http://www.w3.org/1999/xlink" version="1.2" >
<font id="Burford Extras Set A">
<font-face  font-family="Burford" units-per-em="1000" ascent="706" descent="-294" font-style="normal" font-weight="400" font-stretch="normal" cap-height="619" x-height="450" underline-position="-75" underline-thickness="50" />
<missing-glyph  horiz-adv-x="500" d="" />
<glyph glyph-name="NULL" d="" />
<glyph glyph-name="CR" unicode="&#xd;" horiz-adv-x="500" d="" />
<glyph glyph-name="space" unicode="&#x20;" horiz-adv-x="500" d="" />
<glyph glyph-name="exclam" unicode="&#x21;" horiz-adv-x="561" d="M125 285 C134 285 143 290 147 298 L387 298 C376 280 371 255 370 235 C395 265 424 295 461 309 C424 325 393 353 370 384 C370 365 376 339 387 320 L147 320 C143 329 134 334 125 334 C111 334 100 323 100 309 C100 296 111 285 125 285 L125 285 Z " />
<glyph glyph-name="quotedbl" unicode="&#x22;" horiz-adv-x="1086" d="M985 363 C984 364 983 365 981 365 L969 365 C968 365 966 364 965 363 L940 319 L925 319 L948 359 C949 360 949 362 948 363 C947 364 946 365 944 365 L932 365 C931 365 929 364 928 363 L903 319 L890 319 L913 359 C914 360 914 362 913 363 C912 364 911 365 909 365 L897 365 C896 365 894 364 894 363 L868 319 L180 319 C194 331 207 346 218 363 C219 364 219 365 218 367 C218 368 216 369 215 369 L201 369 C200 369 198 368 198 367 C186 347 167 329 141 313 C140 312 139 311 139 310 C139 308 140 307 141 306 C164 292 184 273 197 252 C198 251 199 250 200 250 L214 250 C216 250 217 251 218 252 L218 256 C206 273 194 288 180 300 L868 300 L893 256 C894 255 895 254 896 254 L909 254 C911 254 913 256 913 258 C913 259 913 260 912 260 L889 300 L903 300 L928 256 C929 255 930 254 931 254 L944 254 C945 254 947 255 947 256 C948 257 948 259 947 260 L924 300 L940 300 L965 256 C966 255 967 254 968 254 L981 254 C982 254 984 254 984 256 C985 257 985 258 984 260 L961 300 L977 300 C979 300 981 302 981 304 L981 315 C981 316 981 317 980 318 C979 318 978 319 977 319 L961 319 L985 359 C986 360 986 362 985 363 L985 363 Z M102 306 C125 292 145 273 158 252 C159 251 160 250 161 250 L175 250 C177 250 178 251 179 252 L179 256 C164 279 148 296 129 310 C148 324 166 342 179 363 C180 364 180 366 179 367 C179 368 177 369 176 369 L162 369 C161 369 159 368 159 367 C147 347 128 329 102 313 C101 312 100 311 100 310 C100 308 101 307 102 306 L102 306 Z " />
<glyph glyph-name="numbersign" unicode="&#x23;" horiz-adv-x="517" d="M101 363 C100 362 100 360 101 359 L125 319 L109 319 C108 319 107 318 106 318 C105 317 105 316 105 315 L105 304 C105 302 107 300 109 300 L125 300 L102 260 C101 258 101 257 102 256 C102 254 104 254 105 254 L118 254 C119 254 120 255 121 256 L146 300 L162 300 L139 260 C138 259 138 257 139 256 C139 255 141 254 142 254 L155 254 C156 254 157 255 158 256 L183 300 L197 300 L174 260 C173 260 173 259 173 258 C173 256 175 254 177 254 L190 254 C191 254 192 255 193 256 L218 300 L376 300 C362 288 350 273 338 256 L338 252 C339 251 340 250 342 250 L356 250 C357 250 358 251 359 252 C372 273 392 292 415 306 C416 307 417 308 417 310 C417 311 416 312 415 313 C389 329 370 347 358 367 C358 368 356 369 355 369 L341 369 C340 369 338 368 338 367 C337 365 337 364 338 363 C349 346 362 331 376 319 L218 319 L192 363 C192 364 190 365 189 365 L177 365 C175 365 174 364 173 363 C172 362 172 360 173 359 L196 319 L183 319 L158 363 C157 364 155 365 154 365 L142 365 C140 365 139 364 138 363 C137 362 137 360 138 359 L161 319 L146 319 L121 363 C120 364 118 365 117 365 L105 365 C103 365 102 364 101 363 L101 363 Z " />
<glyph glyph-name="dollar" unicode="&#x24;" horiz-adv-x="517" d="M416 363 C415 364 414 365 412 365 L400 365 C399 365 397 364 396 363 L371 319 L356 319 L379 359 C380 360 380 362 379 363 C378 364 377 365 375 365 L363 365 C362 365 360 364 359 363 L334 319 L321 319 L344 359 C345 360 345 362 344 363 C343 364 342 365 340 365 L328 365 C327 365 325 364 325 363 L299 319 L141 319 C155 331 168 346 179 363 C180 364 180 365 179 367 C179 368 177 369 176 369 L162 369 C161 369 159 368 159 367 C147 347 128 329 102 313 C101 312 100 311 100 310 C100 308 101 307 102 306 C125 292 145 273 158 252 C159 251 160 250 161 250 L175 250 C177 250 178 251 179 252 L179 256 C167 273 155 288 141 300 L299 300 L324 256 C325 255 326 254 327 254 L340 254 C342 254 344 256 344 258 C344 259 344 260 343 260 L320 300 L334 300 L359 256 C360 255 361 254 362 254 L375 254 C376 254 378 255 378 256 C379 257 379 259 378 260 L355 300 L371 300 L396 256 C397 255 398 254 399 254 L412 254 C413 254 415 254 415 256 C416 257 416 258 415 260 L392 300 L408 300 C410 300 412 302 412 304 L412 315 C412 316 412 317 411 318 C410 318 409 319 408 319 L392 319 L416 359 C417 360 417 362 416 363 L416 363 Z " />
<glyph glyph-name="percent" unicode="&#x25;" horiz-adv-x="604" d="M477 309 C493 316 502 330 504 347 L441 347 C441 338 435 327 428 321 C421 314 412 313 403 313 L403 316 L182 316 L197 350 L100 310 L196 269 L182 303 L403 303 L403 306 C411 306 420 305 426 301 C434 295 440 282 441 272 L504 272 C503 288 493 304 477 309 L477 309 Z " />
<glyph glyph-name="ampersand" unicode="&#x26;" horiz-adv-x="975" d="M175 332 C140 313 117 283 106 239 C95 200 102 159 125 128 C146 97 179 79 218 77 C220 76 222 76 225 76 C274 76 316 115 319 165 C322 199 296 229 261 231 C238 233 217 215 216 192 C215 186 220 181 226 180 C232 180 237 184 237 190 C238 196 240 201 245 205 C249 208 254 210 260 210 C282 208 299 189 298 166 C295 126 260 95 219 98 C187 100 160 115 142 140 C124 166 118 200 127 233 C144 299 189 343 351 343 L864 343 C870 343 875 348 875 354 C875 360 870 364 864 364 L351 364 C270 364 214 354 175 332 L175 332 Z M479 542 C473 541 469 536 469 530 C470 524 475 520 481 520 C492 521 502 526 509 534 C516 542 519 553 519 564 C517 579 510 594 498 604 C486 615 471 620 455 619 C431 617 409 606 393 588 C378 570 370 547 371 523 C374 482 392 450 425 428 C459 405 510 393 576 393 L829 393 C835 393 840 398 840 404 C840 410 835 414 829 414 L576 414 C460 414 398 451 393 524 C392 542 398 560 410 574 C422 588 438 596 457 597 C467 598 476 595 484 588 C492 581 496 572 497 562 C497 557 496 552 492 548 C489 544 484 542 479 542 L479 542 Z " />
<glyph glyph-name="quotesingle" unicode="&#x27;" horiz-adv-x="1049" d="M949 344 L886 344 C886 335 880 324 873 318 C866 311 857 310 848 310 L848 312 L840 312 C835 313 828 313 819 313 C809 313 798 314 785 314 L741 316 C726 316 708 317 690 317 C672 317 652 318 632 318 C612 318 592 319 571 319 L382 319 C362 318 342 318 324 318 C306 318 288 317 272 317 C256 316 242 316 229 316 C222 315 216 315 210 315 L195 315 C190 314 185 314 181 314 L197 350 L100 310 L196 269 L181 305 L195 305 C199 305 205 304 210 304 C216 304 222 304 228 303 C241 303 256 302 272 302 L324 300 C342 300 361 299 381 299 C401 299 422 298 443 298 L475 298 C485 297 496 297 507 297 L632 297 C652 297 671 298 690 298 C708 298 725 298 741 299 C757 299 772 299 785 300 C798 300 809 300 819 301 L840 301 C845 302 848 302 848 302 L848 303 C856 303 865 302 871 298 C879 292 885 279 886 269 L949 269 C948 285 938 301 922 306 C938 313 947 327 949 344 L949 344 Z " />
<glyph glyph-name="parenleft" unicode="&#x28;" horiz-adv-x="1498" d="M175 332 C140 313 117 283 106 239 C95 200 102 159 125 128 C146 97 179 79 218 77 C220 76 222 76 225 76 C274 76 316 115 319 165 C322 199 296 229 261 231 C238 233 217 215 216 192 C215 186 220 181 226 180 C232 180 237 184 237 190 C238 196 240 201 245 205 C249 208 254 210 260 210 C282 208 299 189 298 166 C295 126 260 95 219 98 C187 100 160 115 142 140 C124 166 118 200 127 233 C144 299 189 343 351 343 L1387 343 C1393 343 1398 348 1398 354 C1398 360 1393 364 1387 364 L351 364 C270 364 214 354 175 332 L175 332 Z M479 542 C473 541 469 536 469 530 C470 524 475 520 481 520 C492 521 502 526 509 534 C516 542 519 553 519 564 C517 579 510 594 498 604 C486 615 471 620 455 619 C431 617 409 606 393 588 C378 570 370 547 371 523 C374 482 392 450 425 428 C459 405 510 393 576 393 L1352 393 C1358 393 1363 398 1363 404 C1363 410 1358 414 1352 414 L576 414 C460 414 398 451 393 524 C392 542 398 560 410 574 C422 588 438 596 457 597 C467 598 476 595 484 588 C492 581 496 572 497 562 C497 557 496 552 492 548 C489 544 484 542 479 542 L479 542 Z " />
<glyph glyph-name="parenright" unicode="&#x29;" horiz-adv-x="1498" d="M1323 332 C1284 354 1228 364 1147 364 L111 364 C105 364 100 360 100 354 C100 348 105 343 111 343 L1147 343 C1309 343 1354 299 1371 233 C1380 200 1374 166 1356 140 C1338 115 1311 100 1279 98 C1238 95 1203 126 1200 166 C1199 189 1216 208 1238 210 C1244 210 1249 208 1253 205 C1258 201 1260 196 1261 190 C1261 184 1266 180 1272 180 C1278 181 1283 186 1282 192 C1281 215 1260 233 1237 231 C1202 229 1176 199 1179 165 C1182 115 1224 76 1273 76 C1276 76 1278 76 1280 77 C1319 79 1352 97 1373 128 C1396 159 1403 200 1392 239 C1381 283 1358 313 1323 332 L1323 332 Z M1019 542 C1014 542 1009 544 1006 548 C1002 552 1001 557 1001 562 C1002 572 1006 581 1014 588 C1022 595 1031 598 1041 597 C1060 596 1076 588 1088 574 C1100 560 1106 542 1105 524 C1100 451 1038 414 922 414 L146 414 C140 414 135 410 135 404 C135 398 140 393 146 393 L922 393 C988 393 1039 405 1073 428 C1106 450 1124 482 1127 523 C1128 547 1120 570 1105 588 C1089 606 1067 617 1043 619 C1027 620 1012 615 1000 604 C988 594 981 579 979 564 C979 553 982 542 989 534 C996 526 1006 521 1017 520 C1023 520 1028 524 1029 530 C1029 536 1025 541 1019 542 L1019 542 Z " />
<glyph glyph-name="asterisk" unicode="&#x2a;" horiz-adv-x="974" d="M100 354 C100 348 105 343 111 343 L623 343 C786 343 831 299 848 233 C857 200 851 166 833 140 C815 115 787 100 755 98 C715 95 680 126 677 166 C675 189 692 208 715 210 C721 210 726 208 730 205 C734 201 737 196 737 190 C738 184 743 180 749 180 C755 181 759 186 759 192 C758 203 753 214 744 221 C736 228 725 232 713 231 C679 229 653 199 655 165 C659 115 701 76 750 76 C752 76 755 76 757 77 C795 79 828 97 850 128 C872 159 879 200 869 239 C857 283 835 313 800 332 C760 354 704 364 623 364 L111 364 C105 364 100 360 100 354 L100 354 Z M398 414 L145 414 C139 414 135 410 135 404 C135 398 139 393 145 393 L398 393 C465 393 516 405 550 428 C582 450 600 482 603 523 C605 547 597 570 581 588 C566 606 544 617 520 619 C504 620 488 615 476 604 C464 594 457 579 456 564 C455 553 459 542 466 534 C473 526 483 521 494 520 C500 520 505 524 505 530 C506 536 501 541 495 542 C490 542 486 544 482 548 C479 552 477 557 478 562 C478 572 483 581 491 588 C498 595 508 598 518 597 C536 596 553 588 565 574 C577 560 583 542 582 524 C577 451 515 414 398 414 L398 414 Z " />
<glyph glyph-name="plus" unicode="&#x2b;" horiz-adv-x="3171" d="M269 302 L2358 691 C2365 692 2370 699 2368 706 C2367 713 2360 718 2353 717 L264 328 C153 308 106 271 101 201 C98 169 109 140 130 119 C151 99 179 90 209 93 C210 94 212 94 214 94 C252 101 279 137 274 176 C273 190 266 202 255 210 C245 219 231 222 218 221 C211 220 205 213 206 206 C207 199 214 194 221 195 C227 195 234 194 239 189 C244 185 247 180 248 173 C251 147 232 123 206 120 C184 117 164 124 149 138 C133 153 125 175 127 199 C131 247 156 281 269 302 L269 302 Z M3070 418 C3073 450 3062 479 3041 500 C3020 520 2992 529 2962 526 C2943 523 2925 513 2913 498 C2900 482 2895 463 2897 443 C2900 415 2925 395 2953 398 C2960 399 2966 406 2965 413 C2964 420 2957 425 2950 424 C2937 423 2925 432 2923 446 C2922 459 2925 471 2933 481 C2941 492 2953 498 2965 499 C2987 502 3007 495 3022 481 C3038 466 3046 444 3044 420 C3040 372 3015 338 2902 317 L821 -70 C814 -72 809 -78 811 -86 C812 -93 819 -97 826 -96 L2907 291 C3018 311 3065 348 3070 418 L3070 418 Z M331 478 C325 502 339 527 363 533 C375 536 387 529 391 517 C392 512 389 508 384 506 C377 505 373 497 375 490 C377 483 384 479 391 481 C410 486 421 505 416 524 C409 550 383 565 357 558 C338 554 323 542 313 526 C304 509 301 490 306 472 C326 392 410 390 476 402 L2270 736 C2277 737 2282 744 2280 751 C2279 758 2272 763 2265 762 L471 428 C390 413 344 429 331 478 L331 478 Z M2787 113 C2794 114 2798 122 2796 129 C2794 136 2787 140 2780 138 C2771 136 2763 130 2759 122 C2754 114 2753 105 2755 95 C2761 71 2786 55 2811 60 L2814 60 C2833 65 2848 77 2858 93 C2867 110 2870 129 2865 147 C2845 227 2761 229 2695 217 L909 -115 C902 -117 898 -123 899 -131 C900 -138 907 -142 914 -141 L2700 191 C2781 206 2827 190 2840 140 C2843 129 2841 117 2835 107 C2829 96 2819 89 2808 86 C2796 83 2784 90 2780 102 C2780 104 2780 107 2781 109 C2783 111 2784 112 2787 113 L2787 113 Z " />
<glyph glyph-name="comma" unicode="&#x2c;" horiz-adv-x="1049" d="M949 309 C912 324 883 354 858 384 C860 363 864 339 876 320 L147 320 C143 329 134 334 125 334 C111 334 100 323 100 309 C100 296 111 285 125 285 C134 285 143 290 147 298 L875 298 C864 280 858 254 858 235 C881 266 912 294 949 309 L949 309 Z " />
<glyph glyph-name="hyphen" unicode="&#x2d;" horiz-adv-x="2576" d="M289 543 L2113 543 C2121 543 2127 549 2127 556 C2127 564 2121 569 2113 569 L289 569 C176 569 122 542 104 474 C96 444 102 413 119 388 C136 365 161 351 191 349 L196 349 C235 349 268 379 271 418 C272 432 267 445 258 455 C249 465 237 471 223 472 C216 473 210 467 209 460 C209 453 214 447 222 446 C228 446 234 443 238 438 C243 433 245 426 244 420 C242 393 219 373 193 375 C171 377 153 387 140 404 C128 421 124 445 130 467 C142 514 173 543 289 543 L289 543 Z M2472 145 C2480 175 2475 206 2458 231 C2441 254 2415 268 2386 270 C2366 272 2347 265 2332 252 C2317 239 2308 221 2306 201 C2304 173 2325 149 2353 147 C2361 146 2367 152 2367 159 C2368 166 2363 172 2355 173 C2342 174 2332 186 2332 199 C2333 212 2339 224 2349 232 C2359 241 2371 245 2384 244 C2406 242 2424 232 2436 215 C2449 198 2453 174 2447 152 C2434 105 2403 76 2288 76 L463 76 C456 76 450 70 450 63 C450 55 456 50 463 50 L2288 50 C2401 50 2454 77 2472 145 L2472 145 Z M382 705 C380 730 399 751 423 753 C436 753 447 744 447 732 C448 727 444 723 439 723 C432 722 427 716 427 709 C428 701 434 696 441 696 C460 698 475 714 474 734 C472 761 448 781 422 779 C403 778 385 769 373 755 C361 740 354 722 356 703 C361 621 443 603 511 603 L2035 603 C2042 603 2048 609 2048 617 C2048 624 2042 630 2035 630 L511 630 C428 630 386 654 382 705 L382 705 Z M2137 -104 C2145 -103 2150 -97 2150 -90 C2149 -82 2143 -77 2136 -77 C2126 -78 2118 -82 2112 -89 C2105 -96 2102 -105 2103 -115 C2105 -140 2126 -160 2152 -160 L2155 -160 C2174 -159 2191 -150 2204 -136 C2216 -121 2222 -103 2221 -84 C2215 -2 2134 16 2066 16 L542 16 C535 16 529 10 529 2 C529 -5 535 -11 542 -11 L2066 -11 C2149 -11 2191 -35 2195 -86 C2196 -98 2192 -109 2184 -118 C2176 -127 2165 -133 2153 -134 C2141 -134 2130 -125 2129 -113 C2129 -111 2130 -108 2132 -107 C2133 -105 2135 -104 2137 -104 L2137 -104 Z " />
<glyph glyph-name="period" unicode="&#x2e;" horiz-adv-x="1049" d="M924 285 C938 285 949 296 949 309 C949 323 938 334 924 334 C915 334 906 329 902 320 L174 320 C185 339 191 365 191 384 C168 353 137 325 100 309 C137 295 166 265 191 235 C190 255 185 280 174 298 L902 298 C906 290 915 285 924 285 L924 285 Z " />
<glyph glyph-name="slash" unicode="&#x2f;" horiz-adv-x="2557" d="M1279 285 C1289 285 1297 290 1301 298 L2383 298 C2372 280 2367 255 2366 235 C2391 265 2420 295 2457 309 C2420 325 2389 353 2366 384 C2366 365 2372 339 2383 320 L1301 320 C1297 328 1289 334 1279 334 C1270 334 1261 329 1257 320 L174 320 C185 339 191 365 191 384 C168 353 137 325 100 309 C137 295 166 265 191 235 C190 255 185 280 174 298 L1257 298 C1261 290 1270 285 1279 285 L1279 285 Z " />
<glyph glyph-name="zero" unicode="0" horiz-adv-x="2159" d="M104 313 L102 313 C101 313 101 313 101 312 L100 311 L100 308 C100 308 100 307 101 307 L101 306 L103 306 C103 305 103 305 104 305 L112 305 L118 304 C123 304 129 304 137 303 L174 301 L198 299 L1962 299 L1985 301 L2023 303 C2030 304 2036 304 2041 304 L2056 305 L2056 306 L2058 306 L2058 307 L2059 307 L2059 312 L2058 312 L2058 313 L2056 313 L2041 315 C2036 315 2030 315 2023 316 C2012 316 2000 317 1985 318 L1962 320 L198 320 L174 318 L137 316 C129 315 123 315 118 315 L112 314 L107 314 L104 313 Z " />
<glyph glyph-name="one" unicode="1" horiz-adv-x="2426" d="M2325 311 L2324 312 C2323 312 2323 313 2322 313 L2321 313 C2320 314 2319 314 2318 314 L2314 314 L2289 315 L2272 315 C2257 316 2240 316 2219 316 C2189 317 2152 318 2111 318 C2069 319 2021 320 1970 320 L1803 322 C1735 323 1674 323 1617 323 C1592 324 1565 324 1539 324 L903 324 C870 324 840 324 808 323 C752 323 691 323 622 322 L456 320 C368 319 279 318 206 316 C186 316 168 316 154 315 L136 315 L111 314 L107 314 C106 314 105 314 105 313 L103 313 L102 312 C101 312 101 312 101 311 C100 311 100 310 100 309 C100 309 100 308 101 308 C101 307 102 307 102 307 L103 306 C104 306 105 306 105 305 L109 305 C110 305 110 304 111 304 L136 304 C141 304 147 304 154 303 C167 303 185 303 206 302 L456 299 C510 298 567 297 622 297 C691 296 752 296 808 296 C840 295 871 295 903 295 L1007 295 C1068 295 1129 294 1188 294 L1244 294 C1301 294 1360 294 1418 295 L1539 295 C1563 295 1591 295 1617 296 C1674 296 1735 296 1803 297 C1859 297 1915 298 1970 299 C2021 299 2068 300 2111 301 C2152 301 2189 302 2219 302 C2240 303 2258 303 2272 303 C2278 304 2284 304 2289 304 L2314 304 C2315 304 2316 305 2316 305 L2320 305 C2321 306 2322 306 2322 306 C2323 306 2323 307 2324 307 L2326 309 C2326 310 2325 311 2325 311 L2325 311 Z " />
<glyph glyph-name="two" unicode="2" horiz-adv-x="2800" d="M2698 312 C2698 313 2698 313 2697 314 C2697 314 2696 314 2696 315 C2695 315 2694 316 2694 316 C2693 316 2692 316 2691 317 L2686 317 L2657 318 C2651 318 2644 319 2636 319 C2620 319 2600 320 2576 321 L2449 324 L2284 327 C2221 328 2156 329 2089 329 L1872 332 L1781 332 L1640 333 L1160 333 C1118 333 1077 333 1042 332 L927 332 L710 329 C645 329 579 328 515 327 L224 321 C200 320 180 319 163 319 L160 319 C153 319 147 318 142 318 L113 317 L108 317 C107 316 106 316 106 316 C105 316 105 315 104 315 C103 315 103 314 102 314 C102 313 101 313 101 312 C100 312 100 310 100 309 C100 308 100 307 101 306 C101 306 102 306 102 305 C102 305 103 304 104 304 C105 303 105 303 106 303 C106 303 107 302 108 302 L111 302 C111 302 112 301 113 301 L142 301 C148 300 155 300 163 300 L224 298 L515 292 L710 289 C790 289 861 288 927 287 L1042 287 C1077 286 1118 286 1160 286 L1371 286 L1400 285 L1436 286 L1686 286 L1781 287 L1872 287 L2089 289 L2284 292 L2449 295 L2576 298 L2637 300 C2644 300 2651 300 2657 301 L2686 301 C2687 301 2688 302 2689 302 L2691 302 C2692 302 2693 303 2694 303 C2694 303 2695 303 2696 304 L2698 306 C2699 307 2700 308 2700 309 C2700 310 2699 312 2698 312 L2698 312 Z " />
<glyph glyph-name="three" unicode="3" horiz-adv-x="1295" d="M104 313 L102 313 C102 313 101 313 101 312 C101 311 100 311 100 311 L100 308 L101 307 L101 306 L103 306 C103 305 104 305 104 305 L112 305 L118 304 C123 304 129 304 137 303 L174 301 L198 299 L1097 299 L1121 301 L1159 303 C1166 304 1172 304 1177 304 L1191 305 C1192 305 1192 305 1192 306 L1194 306 L1194 307 L1195 307 L1195 312 L1194 312 C1194 313 1194 313 1193 313 L1191 313 L1177 315 C1172 315 1166 315 1159 316 C1148 316 1135 317 1121 318 L1097 320 L198 320 L174 318 L137 316 C129 315 123 315 118 315 L112 314 L107 314 L104 313 Z " />
<glyph glyph-name="four" unicode="4" horiz-adv-x="3199" d="M3025 300 L3090 302 C3095 302 3099 305 3099 309 C3099 311 3098 313 3097 314 C3095 316 3093 317 3090 317 L3025 319 C2998 319 2964 320 2925 321 C2902 321 2878 321 2852 322 L2737 324 L2579 326 L2471 328 L2329 330 C2277 330 2226 331 2187 332 C2134 333 2090 334 2049 334 L2040 334 C2001 334 1961 334 1921 333 L1805 330 L1708 326 L1668 324 C1661 351 1637 370 1609 370 C1580 370 1556 350 1550 323 L1491 326 L1394 330 L1278 333 C1238 334 1198 334 1159 334 L1150 334 C1109 334 1065 333 1012 332 C973 331 922 330 870 330 L728 328 L620 326 L347 322 C321 321 297 321 274 321 C235 320 201 319 174 319 L109 317 C104 317 100 314 100 310 C100 308 101 306 102 304 C104 303 106 302 109 302 L174 300 C201 300 234 299 274 298 C296 298 321 298 347 297 L621 292 C656 292 692 291 728 291 L870 289 C922 289 973 288 1012 287 C1065 286 1109 285 1150 285 L1159 285 C1198 285 1238 285 1278 286 L1394 289 C1425 290 1457 291 1491 293 L1550 296 C1556 269 1580 249 1609 249 C1637 249 1661 268 1668 295 L1708 293 C1742 291 1774 290 1805 289 L1921 286 C1961 285 2001 285 2040 285 L2049 285 C2090 285 2133 286 2187 287 C2226 288 2277 289 2329 289 L2471 291 C2507 291 2543 292 2578 292 L2852 297 C2878 298 2903 298 2925 298 C2965 299 2998 300 3025 300 L3025 300 Z M1635 304 C1632 292 1621 283 1609 283 C1596 283 1585 292 1583 305 C1583 306 1582 307 1582 307 L1582 311 C1582 312 1583 313 1583 314 C1585 327 1596 336 1609 336 C1621 336 1632 327 1635 315 C1635 313 1636 311 1636 309 C1636 308 1635 306 1635 304 L1635 304 Z " />
<glyph glyph-name="five" unicode="5" horiz-adv-x="3190" d="M3083 316 L1708 332 L1707 332 C1695 332 1685 322 1685 309 C1685 297 1695 286 1708 286 L3083 302 C3087 302 3090 306 3090 309 C3090 313 3087 316 3083 316 L3083 316 Z M1482 332 L107 316 C103 316 100 313 100 309 C100 306 103 302 107 302 L1482 286 L1483 286 C1495 287 1505 297 1505 310 C1505 322 1495 332 1482 332 L1482 332 Z M1595 366 C1564 366 1539 341 1539 309 C1539 278 1564 253 1595 253 C1626 253 1652 278 1652 309 C1652 341 1626 366 1595 366 L1595 366 Z M1595 287 C1583 287 1573 297 1573 309 C1573 322 1583 332 1595 332 C1607 332 1618 322 1618 309 C1618 297 1607 287 1595 287 L1595 287 Z " />
<glyph glyph-name="six" unicode="6" horiz-adv-x="3326" d="M1573 314 C1572 314 1572 315 1572 315 C1571 315 1571 316 1571 316 C1570 316 1570 316 1569 317 L1566 317 L1550 318 C1547 319 1543 319 1540 319 L1538 319 C1529 319 1517 320 1504 321 L1338 327 C1302 328 1265 329 1228 329 L1105 332 L1040 332 C1020 333 997 333 973 333 L667 333 L621 332 L569 332 L446 329 C409 329 371 328 336 327 L242 324 L170 321 C157 320 145 319 136 319 C131 319 127 319 124 318 L108 317 L105 317 C104 316 104 316 103 316 C103 316 103 315 102 315 C102 314 101 314 101 314 L101 313 C100 312 100 311 100 309 C100 308 100 307 101 306 L101 305 L102 304 C103 304 103 303 103 303 C104 303 104 302 105 302 L108 302 L124 301 C127 300 131 300 136 300 C145 300 157 299 170 298 L242 295 L336 292 L446 289 C491 289 531 288 569 287 L621 287 L667 286 L973 286 C997 286 1020 286 1040 287 L1105 287 L1228 290 C1265 290 1302 291 1338 292 L1504 298 C1517 299 1529 300 1538 300 C1542 300 1546 300 1550 301 L1566 302 L1569 302 L1570 303 C1571 303 1571 304 1572 304 C1572 304 1572 305 1573 305 L1573 306 C1574 307 1574 308 1574 309 C1574 311 1574 312 1573 313 L1573 314 Z M3226 313 C3225 313 3225 313 3225 314 L3224 315 C3223 315 3223 316 3223 316 C3223 316 3222 316 3221 317 L3219 317 L3202 318 C3199 319 3195 319 3190 319 C3181 319 3169 320 3156 321 L3084 324 L2991 327 C2955 328 2918 329 2880 329 L2757 332 L2706 332 L2625 333 L2353 333 C2329 333 2306 333 2287 332 L2221 332 L2098 329 C2061 329 2024 328 1988 327 L1823 321 C1809 320 1798 319 1788 319 L1786 319 C1783 319 1779 319 1776 318 L1760 317 L1757 317 L1756 316 C1755 316 1755 315 1755 315 C1754 315 1754 314 1754 314 L1753 313 C1753 312 1752 311 1752 309 C1752 308 1753 307 1753 306 L1754 305 C1754 305 1754 304 1755 304 C1755 304 1755 303 1756 303 C1756 303 1756 302 1757 302 L1760 302 L1776 301 C1780 300 1784 300 1788 300 C1797 300 1809 299 1823 298 L1988 292 C2024 291 2061 290 2098 290 L2221 287 L2287 287 C2306 286 2329 286 2353 286 L2651 286 L2705 287 L2757 287 C2795 288 2835 289 2880 289 L2991 292 L3084 295 L3156 298 C3170 299 3182 300 3190 300 C3195 300 3199 300 3202 301 L3219 302 L3221 302 C3222 303 3223 303 3223 303 C3223 303 3223 304 3224 304 L3225 305 C3225 306 3225 306 3226 306 L3226 313 Z M1663 348 C1660 348 1657 347 1655 345 C1649 337 1636 324 1628 317 C1626 315 1624 313 1624 309 C1624 306 1626 304 1628 302 C1636 295 1649 282 1655 274 C1657 272 1660 271 1663 271 C1666 271 1669 272 1671 274 C1677 282 1690 295 1698 302 C1701 304 1702 306 1702 309 C1702 313 1701 315 1698 317 C1690 324 1677 337 1671 345 C1669 347 1666 348 1663 348 L1663 348 Z " />
<glyph glyph-name="seven" unicode="7" horiz-adv-x="2629" d="M1248 267 L1230 269 C1220 269 1207 270 1192 271 L1169 272 L198 272 L174 271 L137 268 C129 268 123 268 118 267 L104 266 L102 266 L102 265 L101 265 L101 264 L100 264 L100 260 L101 260 L101 259 L102 259 L102 258 L104 258 L118 257 C123 257 129 256 137 256 L174 253 L198 252 L1169 252 L1192 253 L1230 256 C1237 256 1243 257 1248 257 L1254 257 C1256 258 1258 258 1259 258 L1264 258 C1264 259 1264 259 1265 259 C1266 259 1266 260 1266 260 L1266 261 L1267 262 C1267 262 1267 263 1266 263 L1266 265 L1265 265 L1265 266 L1259 266 C1258 266 1256 267 1254 267 L1248 267 Z M1441 266 L1435 266 L1435 265 L1434 265 L1434 263 L1433 262 C1433 262 1434 262 1434 261 L1434 260 C1434 260 1434 259 1435 259 C1436 259 1436 259 1436 258 L1441 258 C1442 258 1444 258 1446 257 L1452 257 C1457 257 1463 256 1470 256 L1508 253 L1531 252 L2431 252 L2454 253 L2492 256 C2499 256 2505 257 2510 257 L2525 258 L2526 258 C2526 259 2527 259 2527 259 L2528 259 L2528 261 L2529 261 L2529 263 C2528 263 2528 263 2528 264 L2528 265 L2527 265 L2527 266 L2525 266 L2510 267 C2505 268 2499 268 2492 268 L2454 271 L2431 272 L1544 272 C1539 273 1535 273 1531 272 L1508 271 C1493 270 1480 269 1470 269 L1452 267 L1446 267 C1444 267 1442 266 1441 266 L1441 266 Z M1280 337 C1279 338 1277 337 1276 336 L1259 311 C1259 310 1258 309 1259 308 C1259 307 1260 306 1261 306 C1279 299 1294 291 1306 283 C1303 278 1302 271 1302 265 C1302 237 1324 215 1351 215 C1379 215 1401 237 1401 265 C1401 271 1400 278 1397 283 C1409 291 1424 299 1442 306 C1443 306 1444 307 1444 308 C1445 309 1444 310 1444 311 L1427 336 C1426 337 1424 338 1423 337 C1422 336 1402 324 1383 303 C1376 308 1368 312 1360 314 C1366 351 1380 377 1380 377 C1381 379 1380 380 1379 381 C1379 381 1364 392 1354 402 L1354 403 C1352 404 1351 404 1350 403 L1349 402 C1339 392 1325 381 1325 381 C1323 380 1323 379 1324 377 C1324 377 1337 351 1343 314 C1335 312 1327 308 1320 303 C1301 324 1281 336 1280 337 L1280 337 Z M1333 288 C1337 291 1341 293 1346 294 L1357 294 C1362 293 1367 291 1370 288 L1375 283 C1376 281 1378 279 1379 276 C1379 275 1379 274 1380 273 C1380 272 1380 271 1381 270 L1381 265 C1381 250 1370 238 1356 236 C1355 235 1354 235 1353 235 L1350 235 C1349 235 1348 235 1347 236 C1333 238 1322 250 1322 265 L1322 270 C1323 271 1323 272 1323 273 C1324 274 1324 275 1324 276 C1325 279 1327 281 1328 283 L1333 288 Z " />
<glyph glyph-name="eight" unicode="8" horiz-adv-x="2629" d="M1248 302 L1254 302 C1256 302 1258 303 1259 303 L1265 303 L1265 304 L1266 304 L1266 306 C1267 306 1267 307 1267 307 L1266 308 L1266 309 C1266 309 1266 310 1265 310 C1264 310 1264 310 1264 311 L1259 311 C1258 311 1256 311 1254 312 L1248 312 C1243 312 1237 313 1230 313 L1192 316 L1169 317 L198 317 L174 316 L137 313 C129 313 123 312 118 312 L104 311 L102 311 L102 310 L101 310 L101 309 L100 309 L100 305 L101 305 L101 304 L102 304 L102 303 L104 303 L118 302 C123 301 129 301 137 301 L174 298 L198 297 L1169 297 L1192 298 C1207 299 1220 300 1230 300 L1248 302 Z M1435 303 L1441 303 C1442 303 1444 302 1446 302 L1452 302 L1470 300 C1480 300 1493 299 1508 298 L1531 297 C1535 296 1539 296 1544 297 L2431 297 L2454 298 L2492 301 C2499 301 2505 301 2510 302 L2525 303 L2527 303 L2527 304 L2528 304 L2528 305 C2528 306 2528 306 2529 306 L2529 308 L2528 308 L2528 310 L2527 310 C2527 310 2526 310 2526 311 L2525 311 L2510 312 C2505 312 2499 313 2492 313 L2454 316 L2431 317 L1531 317 L1508 316 L1470 313 C1463 313 1457 312 1452 312 L1446 312 C1444 311 1442 311 1441 311 L1436 311 C1436 310 1436 310 1435 310 C1434 310 1434 309 1434 309 L1434 308 C1434 307 1433 307 1433 307 L1434 306 L1434 304 L1435 304 L1435 303 Z M1280 232 C1281 233 1301 245 1320 266 C1327 261 1335 257 1343 255 C1337 218 1324 192 1324 192 C1323 190 1323 189 1325 188 C1325 188 1339 177 1349 167 L1350 166 C1351 165 1352 165 1354 166 L1354 167 C1364 177 1379 188 1379 188 C1380 189 1381 190 1380 192 C1380 192 1366 218 1360 255 C1368 257 1376 261 1383 266 C1402 245 1422 233 1423 232 C1424 231 1426 232 1427 233 L1444 258 C1444 259 1445 260 1444 261 C1444 262 1443 263 1442 263 C1424 270 1409 278 1397 286 C1400 291 1401 298 1401 304 C1401 332 1379 354 1351 354 C1324 354 1302 332 1302 304 C1302 298 1303 291 1306 286 C1294 278 1279 270 1261 263 C1260 263 1259 262 1259 261 C1258 260 1259 259 1259 258 L1276 233 C1277 232 1279 231 1280 232 L1280 232 Z M1333 281 L1328 286 C1327 288 1325 290 1324 293 C1324 294 1324 295 1323 296 C1323 297 1323 298 1322 299 L1322 304 C1322 319 1333 331 1347 333 C1348 334 1349 334 1350 334 L1353 334 C1354 334 1355 334 1356 333 C1370 331 1381 319 1381 304 L1381 299 C1380 298 1380 297 1380 296 C1379 295 1379 294 1379 293 C1378 290 1376 288 1375 286 L1370 281 C1367 278 1362 276 1357 275 L1346 275 C1341 276 1337 278 1333 281 L1333 281 Z " />
<glyph glyph-name="nine" unicode="9" horiz-adv-x="883" d="M104 313 L102 313 C101 313 101 313 101 312 L100 311 L100 308 C100 308 100 307 101 307 L101 306 L103 306 C103 305 103 305 104 305 L112 305 L118 304 C123 304 129 304 137 303 L174 301 L198 299 L686 299 L709 301 L747 303 C754 304 760 304 765 304 L780 305 L780 306 L782 306 L782 307 L783 307 L783 312 L782 312 L782 313 L780 313 L765 315 C760 315 754 315 747 316 C736 316 724 317 709 318 L686 320 L198 320 L174 318 L137 316 C129 315 123 315 118 315 L112 314 L107 314 L104 313 Z " />
<glyph glyph-name="colon" unicode="&#x3a;" horiz-adv-x="1085" d="M100 256 C101 255 102 254 104 254 L116 254 C118 254 119 255 120 256 L146 300 L161 300 L137 260 L137 256 C138 255 139 254 141 254 L153 254 C155 254 156 255 157 256 L183 300 L196 300 L172 260 L172 256 C173 255 174 254 176 254 L188 254 C190 254 191 254 192 256 L218 300 L905 300 C891 288 878 273 867 256 C866 255 866 253 867 252 C868 251 869 250 870 250 L884 250 C886 250 887 251 888 252 C900 272 919 290 944 306 C946 307 946 308 946 309 C946 311 946 312 944 313 C921 327 902 346 888 367 C888 368 886 369 885 369 L871 369 C870 369 868 368 868 367 C867 366 867 364 868 363 C879 345 891 331 905 319 L217 319 L192 363 C192 364 190 365 189 365 L176 365 C175 365 174 364 173 363 C172 362 172 360 173 359 L196 319 L183 319 L157 363 C157 364 155 365 154 365 L141 365 C140 365 139 364 138 363 C137 362 137 360 138 359 L161 319 L146 319 L120 363 C120 364 118 365 117 365 L104 365 C103 365 102 364 101 363 C100 362 100 360 101 359 L124 319 L108 319 C106 319 104 317 104 315 L104 304 C104 303 104 302 105 301 C106 301 107 300 108 300 L124 300 L100 260 L100 256 Z M956 309 C937 295 920 277 906 256 C905 255 905 253 906 252 C907 251 908 250 909 250 L923 250 C925 250 926 251 927 252 C939 272 958 290 984 306 C985 306 985 308 985 309 C985 310 985 312 984 312 C960 327 941 346 927 367 C927 368 925 369 924 369 L910 369 C909 369 907 368 907 367 C906 366 906 364 907 363 C921 340 937 323 956 309 L956 309 Z " />
<glyph glyph-name="semicolon" unicode="&#x3b;" horiz-adv-x="1049" d="M853 350 L868 313 C865 314 860 314 855 314 C850 314 845 315 839 315 L821 315 C808 316 793 317 777 317 L726 319 C707 319 688 320 668 320 C648 320 627 321 606 321 L575 321 C564 321 553 321 543 322 L417 322 C397 321 378 321 360 321 C341 321 324 320 308 320 C292 320 277 319 264 319 C251 319 240 318 231 318 L209 318 C204 317 201 317 201 317 L201 315 C193 316 185 317 179 321 C171 327 164 340 163 350 L100 350 C102 334 111 318 127 312 C111 306 102 292 100 275 L163 274 C164 284 169 295 176 301 C183 308 192 309 201 309 L201 307 L209 307 C214 306 221 306 231 306 L264 304 C277 304 292 304 308 303 C324 303 341 302 360 302 C378 301 397 301 417 301 C437 300 458 300 479 300 L668 300 C688 300 707 301 725 301 C744 301 761 302 777 302 C793 302 808 303 821 303 C827 303 833 304 839 304 L854 304 C860 305 864 305 868 305 L853 269 L949 309 L853 350 Z " />
<glyph glyph-name="less" unicode="&#x3c;" horiz-adv-x="1070" d="M100 309 C100 300 107 293 116 293 L906 308 C891 298 877 285 866 270 C865 269 865 267 865 266 C866 264 867 264 869 264 L881 264 C882 264 884 264 884 265 C895 280 911 294 933 306 C935 307 935 308 935 309 C935 311 935 312 933 313 C913 324 896 338 884 354 C884 355 882 355 881 355 L869 355 C868 355 866 354 866 353 C865 352 865 350 866 349 C878 333 891 320 906 311 L116 325 C107 325 100 318 100 309 L100 309 Z M900 263 C899 262 899 260 899 259 C900 258 901 257 903 257 L915 257 C917 257 918 258 919 259 C929 276 945 292 968 306 C969 307 970 308 970 309 C970 311 969 312 968 313 C947 325 930 342 918 360 C918 361 916 362 915 362 L903 362 C902 362 900 361 900 360 C899 359 899 357 900 356 C912 336 926 321 942 309 L943 309 C926 297 911 281 900 263 L900 263 Z " />
<glyph glyph-name="equal" unicode="&#x3d;" horiz-adv-x="2589" d="M269 343 L2058 700 C2066 702 2070 709 2069 716 C2067 723 2060 727 2053 726 L264 368 C153 346 106 309 101 239 C99 208 111 178 133 157 C154 138 181 129 211 133 L216 134 C254 142 281 178 276 216 C274 230 267 242 256 250 C245 258 232 262 218 260 C211 260 207 253 207 245 C208 239 214 234 222 234 C228 235 235 234 240 230 C246 226 249 219 249 213 C252 186 234 162 208 159 C186 157 166 163 150 177 C135 191 127 214 128 237 C131 285 155 320 269 343 L269 343 Z M2488 380 C2490 411 2479 441 2457 462 C2436 481 2408 490 2379 486 C2359 484 2342 473 2330 458 C2317 442 2312 423 2314 403 C2318 375 2343 355 2371 359 C2379 359 2383 366 2382 373 C2382 380 2376 385 2368 385 C2355 383 2342 393 2340 406 C2338 419 2342 432 2350 441 C2358 452 2369 458 2382 460 C2404 462 2424 456 2439 442 C2455 428 2463 405 2462 382 C2458 333 2434 299 2321 276 L531 -81 C524 -83 520 -90 521 -97 C523 -104 529 -108 536 -107 L2326 251 C2437 273 2483 310 2488 380 L2488 380 Z M2208 70 C2216 73 2219 80 2218 87 C2216 94 2209 98 2202 97 C2192 94 2185 88 2181 80 C2175 72 2174 62 2177 53 C2184 29 2208 13 2234 18 L2237 19 C2255 24 2270 36 2280 52 C2289 69 2291 88 2287 106 C2265 186 2182 187 2115 174 L620 -125 C614 -126 609 -133 610 -141 C612 -148 619 -152 626 -151 L2120 148 C2202 164 2247 149 2261 99 C2265 88 2263 76 2257 66 C2251 55 2241 47 2230 44 C2218 42 2205 48 2202 60 C2202 62 2202 65 2204 66 C2204 69 2206 70 2208 70 L2208 70 Z M329 520 C322 544 336 568 359 575 C372 577 385 571 387 559 C389 554 386 549 381 548 C374 546 371 539 372 532 C374 525 381 521 388 522 C406 528 418 547 413 566 C406 592 378 607 353 600 C335 595 319 583 310 567 C301 550 298 531 303 513 C324 433 408 432 475 445 L1969 744 C1976 745 1981 752 1979 760 C1978 767 1971 771 1964 770 L470 471 C388 455 342 470 329 520 L329 520 Z " />
<glyph glyph-name="greater" unicode="&#x3e;" horiz-adv-x="1070" d="M953 325 L163 311 C179 321 193 334 204 349 C205 350 205 352 204 353 C203 354 202 355 201 355 L188 355 C187 355 186 355 185 354 C175 339 158 325 136 313 C135 312 134 311 134 309 C134 308 135 307 136 306 C157 295 174 281 185 265 C186 264 187 264 188 264 L200 264 C202 264 203 264 204 266 C205 267 204 269 204 270 C192 286 178 298 163 308 L953 293 L954 293 C963 294 970 301 970 310 C969 319 962 326 953 325 L953 325 Z M100 309 C100 308 101 307 102 306 C122 294 139 277 151 259 C152 258 153 257 154 257 L166 257 C168 257 169 258 170 259 C171 260 170 262 170 263 C157 283 143 298 127 309 C143 322 158 337 170 356 C171 357 171 359 170 360 C169 361 168 362 167 362 L154 362 C153 362 152 361 151 360 C141 343 124 327 102 313 C101 312 100 311 100 309 L100 309 Z " />
<glyph glyph-name="question" unicode="&#x3f;" horiz-adv-x="2104" d="M1051 348 C1048 348 1045 347 1043 345 C1037 337 1024 324 1016 317 L1014 315 L164 311 C179 320 192 333 204 349 C205 350 205 352 204 353 C204 354 202 355 201 355 L189 355 C188 355 186 355 186 354 C174 338 157 324 137 313 C135 312 135 311 135 309 C135 308 135 307 137 306 C159 294 175 280 186 265 C186 264 188 264 189 264 L201 264 C203 264 204 264 205 266 C205 267 205 269 204 270 C193 285 179 298 164 308 L1015 303 C1015 302 1015 302 1016 302 C1024 295 1037 282 1043 274 C1045 272 1048 271 1051 271 C1054 271 1057 272 1059 274 C1065 282 1078 295 1086 302 C1086 302 1087 302 1087 303 L1940 308 C1925 298 1911 285 1900 270 C1899 269 1899 267 1899 266 C1900 264 1901 264 1903 264 L1915 264 C1916 264 1918 264 1918 265 C1929 280 1945 294 1967 306 C1969 307 1969 308 1969 309 C1969 311 1969 312 1967 313 C1947 324 1930 338 1918 354 C1918 355 1916 355 1915 355 L1903 355 C1902 355 1900 354 1900 353 C1899 352 1899 350 1900 349 C1912 333 1925 320 1940 311 L1088 315 L1086 317 C1078 324 1065 337 1059 345 C1057 347 1054 348 1051 348 L1051 348 Z M1934 263 C1933 262 1933 260 1933 259 C1934 258 1935 257 1937 257 L1949 257 C1951 257 1952 258 1953 259 C1963 276 1979 292 2002 306 C2003 307 2004 308 2004 309 C2004 311 2003 312 2002 313 C1981 325 1964 342 1952 360 C1952 361 1950 362 1949 362 L1937 362 C1936 362 1934 361 1934 360 C1933 359 1933 357 1934 356 C1946 336 1960 321 1976 309 L1977 309 C1960 297 1945 281 1934 263 L1934 263 Z M170 263 C159 281 144 297 127 309 L128 309 C144 321 158 336 170 356 C171 357 171 359 170 360 C170 361 168 362 167 362 L155 362 C154 362 152 361 152 360 C140 342 123 325 102 313 C101 312 100 311 100 309 C100 308 101 307 102 306 C125 292 141 276 151 259 C152 258 153 257 155 257 L167 257 C169 257 170 258 171 259 C171 260 171 262 170 263 L170 263 Z " />
<glyph glyph-name="at" unicode="&#x40;" horiz-adv-x="561" d="M436 285 C450 285 461 296 461 309 C461 323 450 334 436 334 C427 334 418 329 414 320 L174 320 C185 339 191 365 191 384 C168 353 137 325 100 309 C137 295 166 265 191 235 C190 255 185 280 174 298 L414 298 C418 290 427 285 436 285 L436 285 Z " />
<glyph glyph-name="A" unicode="A" horiz-adv-x="1010" d="M888 561 L122 561 C110 561 100 551 100 539 C100 527 110 517 122 517 L888 517 C900 517 910 527 910 539 C910 551 900 561 888 561 L888 561 Z M888 44 L122 44 C110 44 100 34 100 22 C100 11 110 1 122 1 L888 1 C900 1 910 11 910 22 C910 34 900 44 888 44 L888 44 Z M438 361 C445 366 456 369 468 369 C487 369 495 358 502 351 L502 350 C502 350 503 350 503 349 C508 345 514 342 521 342 C526 342 532 344 536 347 C540 351 544 356 545 362 C546 368 545 375 541 380 C540 381 540 382 539 382 C531 392 509 417 468 417 C446 417 426 412 411 402 C390 388 379 368 379 344 C379 297 418 280 452 265 L466 258 C514 237 512 224 511 214 C510 202 504 185 476 185 C451 185 435 200 432 205 L428 209 C422 216 411 218 402 215 C401 215 399 214 397 213 C392 209 389 205 387 199 C385 193 386 186 390 180 C398 165 414 155 422 150 C423 150 423 149 423 149 C441 140 458 136 476 136 C486 136 507 138 526 151 C545 164 556 183 559 208 C562 230 556 251 541 267 C530 280 514 290 486 303 L472 309 C436 325 427 330 427 344 C427 351 431 357 438 361 L438 361 Z M333 367 C346 367 357 378 357 392 C357 405 346 416 333 416 L235 416 C222 416 211 405 211 392 L211 164 C211 151 222 140 235 140 L333 140 C346 140 357 151 357 164 C357 178 346 188 333 188 L259 188 L259 256 L315 256 C329 256 339 267 339 280 C339 294 329 305 315 305 L259 305 L259 367 L333 367 Z M643 140 C657 140 668 151 668 164 L668 367 L706 367 C719 367 730 378 730 391 C730 404 719 416 706 416 L642 416 C574 416 574 416 569 413 C563 411 559 406 556 400 C554 394 554 388 556 382 C560 373 568 367 578 367 L619 367 L619 164 C619 151 630 140 643 140 L643 140 Z M816 172 C816 191 802 205 783 205 C765 205 750 191 750 172 C750 154 765 139 783 139 C802 139 816 154 816 172 L816 172 Z " />
<glyph glyph-name="B" unicode="B" horiz-adv-x="1139" d="M1017 561 L122 561 C110 561 100 551 100 539 C100 527 110 517 122 517 L1017 517 C1029 517 1039 527 1039 539 C1039 551 1029 561 1017 561 L1017 561 Z M1017 44 L122 44 C110 44 100 34 100 22 C100 11 110 1 122 1 L1017 1 C1029 1 1039 11 1039 22 C1039 34 1029 44 1017 44 L1017 44 Z M495 164 L495 290 L565 153 C569 144 577 139 586 139 L587 139 C590 139 594 140 597 141 C605 146 611 154 611 164 L611 392 C611 405 600 416 586 416 C573 416 562 405 562 392 L562 265 L493 402 C489 410 480 416 471 416 C469 416 467 416 466 415 C454 413 446 403 446 392 L446 164 C446 151 457 140 471 140 C484 140 495 151 495 164 L495 164 Z M215 361 C222 366 233 369 245 369 C264 369 272 358 279 351 L279 350 C280 350 280 350 280 349 C285 345 291 342 298 342 C303 342 309 344 313 347 C317 351 321 356 322 362 C323 368 322 375 318 380 C317 381 317 382 316 382 C308 392 286 417 245 417 C223 417 203 412 188 402 C167 388 156 368 156 344 C156 297 195 280 229 265 L243 258 C291 237 289 224 288 214 C287 202 281 185 253 185 C228 185 212 200 209 205 C208 206 207 208 205 209 C199 216 188 218 179 215 C178 215 176 214 174 213 C163 205 160 191 167 180 C175 165 191 155 199 150 C200 150 200 149 201 149 C218 140 235 136 253 136 C264 136 284 138 304 151 C322 164 333 183 336 208 C339 230 333 251 318 267 C307 280 291 290 263 303 L249 309 C213 325 204 330 204 344 C204 351 208 357 215 361 L215 361 Z M696 359 C700 363 710 369 733 369 C773 369 774 350 774 348 C774 334 785 323 798 323 C812 323 823 334 823 348 C823 354 821 375 804 392 C788 409 764 417 733 417 C701 417 677 409 661 393 C640 371 640 343 640 327 L640 225 C640 197 647 177 661 162 C677 146 700 139 733 139 C765 139 787 146 803 160 C819 175 826 196 826 226 C826 239 816 250 802 250 C788 250 778 239 778 226 C778 211 775 201 770 196 C765 192 755 187 733 187 C714 187 702 190 696 196 C693 199 688 206 688 225 L688 327 C688 339 688 351 696 359 L696 359 Z M975 367 C988 367 999 378 999 392 C999 405 988 416 975 416 L877 416 C864 416 853 405 853 392 L853 164 C853 151 864 140 877 140 L975 140 C988 140 999 151 999 164 C999 178 989 188 975 188 L902 188 L902 256 L957 256 C971 256 982 267 982 280 C982 294 971 305 957 305 L902 305 L902 367 L975 367 Z M410 164 L410 392 C410 405 399 416 386 416 C373 416 362 405 362 392 L362 164 C362 151 373 140 386 140 C400 140 410 151 410 164 L410 164 Z " />
<glyph glyph-name="C" unicode="C" horiz-adv-x="1139" d="M224 399 C221 409 211 416 201 416 C198 416 196 416 193 415 C187 413 182 408 179 403 C176 397 176 390 178 385 L246 160 C249 148 259 140 272 140 C284 140 294 148 298 159 L335 258 L362 160 C362 158 363 156 364 155 C369 146 378 140 388 140 C401 140 411 148 414 160 L481 384 C483 391 483 398 479 404 C476 409 471 413 465 415 C462 416 460 416 458 416 C447 416 438 409 435 399 L389 246 L347 398 L347 399 C344 409 335 416 324 416 C321 416 319 416 316 415 C310 413 305 408 302 403 C300 397 299 391 301 385 L313 338 L274 234 L224 399 Z M122 517 L1017 517 C1029 517 1039 527 1039 539 C1039 551 1029 561 1017 561 L122 561 C110 561 100 551 100 539 C100 527 110 517 122 517 L122 517 Z M1017 44 L122 44 C110 44 100 34 100 22 C100 11 110 1 122 1 L1017 1 C1029 1 1039 11 1039 22 C1039 34 1029 44 1017 44 L1017 44 Z M950 140 C963 140 974 151 974 164 L974 392 C974 405 963 416 950 416 C936 416 926 405 926 392 L926 305 L850 305 L850 392 C850 405 839 416 826 416 C812 416 801 405 801 392 L801 164 C801 151 812 140 826 140 C839 140 850 151 850 164 L850 256 L926 256 L926 164 C926 151 936 140 950 140 L950 140 Z M686 140 C700 140 710 151 710 164 L710 367 L748 367 C761 367 773 378 773 391 C773 404 761 416 748 416 L685 416 C616 416 616 416 611 413 C606 411 601 406 599 400 C596 394 596 388 599 382 C602 373 611 367 621 367 L662 367 L662 164 C662 151 672 140 686 140 L686 140 Z M520 392 L520 164 C520 151 530 140 544 140 C558 140 568 151 568 164 L568 392 C568 405 557 416 544 416 C530 416 520 405 520 392 L520 392 Z " />
<glyph glyph-name="D" unicode="D" horiz-adv-x="1139" d="M641 138 C693 138 729 174 729 226 L729 331 C729 386 696 419 641 419 L630 419 C575 419 542 386 542 331 L542 226 C542 200 550 178 566 162 C581 146 604 138 630 138 L641 138 Z M1017 561 L122 561 C110 561 100 551 100 539 C100 527 110 517 122 517 L1017 517 C1029 517 1039 527 1039 539 C1039 551 1029 561 1017 561 L1017 561 Z M1017 44 L122 44 C110 44 100 34 100 22 C100 11 110 1 122 1 L1017 1 C1029 1 1039 11 1039 22 C1039 34 1029 44 1017 44 L1017 44 Z M513 291 L513 344 C513 397 472 416 436 416 L384 416 C371 416 360 404 360 391 L360 164 C360 151 371 140 384 140 C398 140 409 151 409 164 L409 215 L429 215 L459 153 C463 145 471 140 480 140 L481 140 C486 140 490 141 493 144 C497 146 501 150 503 154 C506 161 505 169 502 175 L478 224 L486 228 C504 241 513 262 513 291 L513 291 Z M939 140 C953 140 964 151 964 164 L964 392 C964 401 958 409 950 413 C947 415 943 416 939 416 C932 416 925 412 920 406 L860 335 L799 407 C797 410 795 412 792 413 C791 414 786 416 781 416 C778 416 775 415 772 414 C762 410 756 402 756 392 L756 164 C756 151 767 140 781 140 C794 140 805 151 805 164 L805 325 L842 282 C842 281 843 281 843 280 C848 276 854 273 860 273 C867 273 873 276 878 280 C878 281 879 281 879 282 L915 324 L915 164 C915 151 926 140 939 140 L939 140 Z M309 367 C322 367 333 378 333 392 C333 405 322 416 309 416 L212 416 C198 416 187 405 187 392 L187 164 C187 151 198 140 212 140 C225 140 236 151 236 164 L236 256 L292 256 C305 256 316 267 316 280 C316 294 305 305 292 305 L236 305 L236 367 L309 367 Z M641 187 L630 187 C616 187 607 190 600 197 C594 203 591 213 591 226 L591 331 C591 358 602 370 630 370 L641 370 C669 370 680 359 680 331 L680 226 C680 213 676 203 670 197 C663 190 653 187 641 187 L641 187 Z M465 344 L465 291 C465 269 459 263 432 263 L409 263 L409 367 L436 367 C462 367 465 356 465 344 L465 344 Z " />
<glyph glyph-name="E" unicode="E" horiz-adv-x="951" d="M705 140 C769 140 798 180 798 218 L798 326 C798 384 765 416 704 416 L637 416 C623 416 612 405 612 392 L612 164 C612 150 623 140 637 140 L705 140 Z M460 164 L460 290 L529 152 C534 144 542 139 551 139 L552 139 C555 139 559 140 562 141 C570 146 575 154 575 164 L575 392 C575 405 565 416 551 416 C538 416 527 405 527 392 L527 265 L458 402 C454 410 445 416 436 416 C434 416 432 416 430 415 C419 413 411 403 411 392 L411 164 C411 151 422 140 436 140 C449 140 460 151 460 164 L460 164 Z M829 561 L122 561 C110 561 100 551 100 539 C100 527 110 517 122 517 L829 517 C841 517 851 527 851 539 C851 551 841 561 829 561 L829 561 Z M829 44 L122 44 C110 44 100 34 100 22 C100 11 110 1 122 1 L829 1 C841 1 851 11 851 22 C851 34 841 44 829 44 L829 44 Z M201 141 C204 140 206 140 209 140 C219 140 229 147 232 157 L246 206 L310 206 L325 157 C328 147 337 140 347 140 L348 140 C351 140 353 140 355 141 C361 143 367 148 369 153 C372 159 373 166 371 171 L303 397 C299 409 289 416 277 416 C265 416 254 408 251 396 L186 172 C184 166 184 159 187 153 C190 148 195 143 201 141 L201 141 Z M661 188 L661 367 L704 367 C738 367 749 357 749 326 L749 218 C749 211 746 204 740 198 C733 192 721 188 705 188 L661 188 Z M260 254 L277 313 L295 254 L260 254 Z " />
<glyph glyph-name="F" unicode="F" horiz-adv-x="951" d="M829 561 L122 561 C110 561 100 551 100 539 C100 527 110 517 122 517 L829 517 C841 517 851 527 851 539 C851 551 841 561 829 561 L829 561 Z M829 44 L122 44 C110 44 100 34 100 22 C100 11 110 1 122 1 L829 1 C841 1 851 11 851 22 C851 34 841 44 829 44 L829 44 Z M403 416 C389 416 378 405 378 392 L378 164 C378 151 389 140 403 140 C416 140 427 151 427 164 L427 256 L503 256 L503 164 C503 151 513 140 527 140 C541 140 551 151 551 164 L551 392 C551 405 540 416 527 416 C513 416 503 405 503 392 L503 305 L427 305 L427 392 C427 405 416 416 403 416 L403 416 Z M709 367 C722 367 733 378 733 392 C733 405 722 416 709 416 L611 416 C598 416 586 405 586 392 L586 164 C586 151 597 140 611 140 L709 140 C722 140 733 151 733 164 C733 178 722 188 709 188 L635 188 L635 256 L691 256 C705 256 715 267 715 280 C715 294 705 305 691 305 L635 305 L635 367 L709 367 Z M263 140 C277 140 287 151 287 164 L287 367 L325 367 C339 367 350 378 350 391 C350 404 339 416 325 416 L262 416 C193 416 193 416 189 413 C183 411 178 406 176 400 C173 394 173 388 176 382 C179 373 188 367 198 367 L239 367 L239 164 C239 151 249 140 263 140 L263 140 Z " />
<glyph glyph-name="G" unicode="G" horiz-adv-x="735" d="M304 404 C289 413 273 414 258 414 L204 414 C191 414 180 403 180 390 L180 163 C180 149 191 139 204 139 L253 139 C256 138 259 138 261 138 C289 138 309 145 324 160 C340 175 348 198 348 226 C348 261 340 287 324 303 C330 314 333 329 333 346 C333 380 317 397 304 404 L304 404 Z M498 366 C511 366 523 377 523 390 C523 403 511 415 498 415 L400 415 C387 415 376 403 376 390 L376 163 C376 149 387 139 400 139 L498 139 C512 139 523 149 523 163 C523 176 512 187 498 187 L425 187 L425 255 L480 255 C494 255 505 265 505 279 C505 293 494 303 480 303 L425 303 L425 366 L498 366 Z M613 560 L122 560 C110 560 100 550 100 538 C100 526 110 516 122 516 L613 516 C625 516 635 526 635 538 C635 550 625 560 613 560 L613 560 Z M613 43 L122 43 C110 43 100 33 100 21 C100 9 110 -1 122 -1 L613 -1 C625 -1 635 9 635 21 C635 33 625 43 613 43 L613 43 Z M299 226 C299 212 296 201 291 195 C285 190 275 187 262 187 L229 187 L229 274 L266 274 C278 274 284 273 288 270 C292 267 299 257 299 226 L299 226 Z M229 323 L229 366 L258 366 C283 366 285 361 285 346 C285 336 283 328 280 326 C279 325 273 323 257 323 L229 323 Z " />
<glyph glyph-name="H" unicode="H" horiz-adv-x="735" d="M273 138 C324 138 361 174 361 226 L361 331 C361 386 328 419 273 419 L262 419 C207 419 174 386 174 331 L174 226 C174 200 182 178 198 162 C213 146 235 138 262 138 L273 138 Z M437 164 L437 290 L506 153 C510 144 519 139 528 139 L529 139 C532 139 536 140 539 141 C547 146 552 154 552 164 L552 392 C552 405 542 416 528 416 C515 416 504 405 504 392 L504 265 L435 402 C431 410 422 416 413 416 C411 416 409 416 407 415 C396 413 388 403 388 392 L388 164 C388 151 399 140 413 140 C426 140 437 151 437 164 L437 164 Z M613 561 L122 561 C110 561 100 551 100 539 C100 527 110 517 122 517 L613 517 C625 517 635 527 635 539 C635 551 625 561 613 561 L613 561 Z M613 44 L122 44 C110 44 100 34 100 22 C100 11 110 1 122 1 L613 1 C625 1 635 11 635 22 C635 34 625 44 613 44 L613 44 Z M273 187 L262 187 C248 187 238 190 232 197 C226 203 223 213 223 226 L223 331 C223 358 234 370 262 370 L273 370 C301 370 312 359 312 331 L312 226 C312 213 308 203 302 197 C295 190 285 187 273 187 L273 187 Z " />
<glyph glyph-name="I" unicode="I" horiz-adv-x="735" d="M304 406 C289 415 273 416 258 416 L204 416 C191 416 180 405 180 392 L180 164 C180 151 191 140 204 140 L261 140 C289 140 309 147 324 161 C340 176 348 199 348 227 C348 263 340 288 324 305 C330 316 333 330 333 348 C333 382 317 398 304 406 L304 406 Z M613 561 L122 561 C110 561 100 551 100 539 C100 527 110 517 122 517 L613 517 C625 517 635 527 635 539 C635 551 625 561 613 561 L613 561 Z M613 44 L122 44 C110 44 100 34 100 22 C100 11 110 1 122 1 L613 1 C625 1 635 11 635 22 C635 34 625 44 613 44 L613 44 Z M461 140 C474 140 485 151 485 164 L485 276 L535 380 C536 381 536 382 536 383 C541 396 534 410 521 414 C519 415 516 415 514 415 C504 415 495 409 491 401 L461 337 L429 401 C425 410 416 415 407 415 C404 415 402 415 399 414 C397 413 395 413 394 411 C384 405 380 394 384 383 C384 382 385 381 385 380 L437 276 L437 164 C437 150 447 140 461 140 L461 140 Z M299 227 C299 213 296 202 291 197 C285 191 275 188 262 188 L229 188 L229 276 L266 276 C278 276 284 275 288 271 C292 268 299 259 299 227 L299 227 Z M229 324 L229 367 L258 367 C283 367 285 362 285 348 C285 337 283 330 280 328 C279 326 273 324 257 324 L229 324 Z " />
<glyph glyph-name="J" unicode="J" horiz-adv-x="735" d="M454 138 C505 138 542 174 542 226 L542 331 C542 386 509 419 454 419 L443 419 C388 419 355 386 355 331 L355 226 C355 200 363 178 379 162 C394 146 416 138 443 138 L454 138 Z M613 561 L122 561 C110 561 100 551 100 539 C100 527 110 517 122 517 L613 517 C625 517 635 527 635 539 C635 551 625 561 613 561 L613 561 Z M613 44 L122 44 C110 44 100 34 100 22 C100 11 110 1 122 1 L613 1 C625 1 635 11 635 22 C635 34 625 44 613 44 L613 44 Z M263 140 C277 140 287 151 287 164 L287 367 L325 367 C339 367 350 378 350 391 C350 404 339 416 325 416 L262 416 C193 416 193 416 189 413 C183 411 178 406 176 400 C173 394 173 388 176 382 C179 373 188 367 198 367 L239 367 L239 164 C239 151 249 140 263 140 L263 140 Z M454 187 L443 187 C429 187 419 190 413 197 C407 203 404 213 404 226 L404 331 C404 358 415 370 443 370 L454 370 C482 370 493 359 493 331 L493 226 C493 213 489 203 483 197 C476 190 466 187 454 187 L454 187 Z " />
<glyph glyph-name="K" unicode="K" horiz-adv-x="735" d="M273 138 C324 138 361 174 361 226 L361 331 C361 386 328 419 273 419 L262 419 C207 419 174 386 174 331 L174 226 C174 200 182 178 198 162 C213 146 235 138 262 138 L273 138 Z M613 561 L122 561 C110 561 100 551 100 539 C100 527 110 517 122 517 L613 517 C625 517 635 527 635 539 C635 551 625 561 613 561 L613 561 Z M613 44 L122 44 C110 44 100 34 100 22 C100 11 110 1 122 1 L613 1 C625 1 635 11 635 22 C635 34 625 44 613 44 L613 44 Z M509 367 C523 367 534 378 534 392 C534 405 523 416 509 416 L412 416 C399 416 388 405 388 392 L388 164 C388 151 399 140 412 140 C426 140 437 151 437 164 L437 256 L492 256 C506 256 517 267 517 280 C517 294 506 305 492 305 L437 305 L437 367 L509 367 Z M273 187 L262 187 C248 187 238 190 232 197 C226 203 223 213 223 226 L223 331 C223 358 234 370 262 370 L273 370 C301 370 312 359 312 331 L312 226 C312 213 308 203 302 197 C295 190 285 187 273 187 L273 187 Z " />
<glyph glyph-name="L" unicode="L" horiz-adv-x="784" d="M351 405 C359 408 367 410 373 410 C382 410 387 407 391 404 L392 403 C398 400 405 403 409 408 C415 414 413 422 409 426 C409 427 408 427 407 427 C403 431 392 438 376 438 C365 438 354 435 342 429 C323 420 306 408 293 394 C277 376 268 357 268 337 C268 320 275 308 287 301 C298 294 313 294 326 294 L354 294 C377 295 392 293 397 287 C398 285 402 281 400 268 C395 226 363 207 349 200 C339 195 329 193 320 193 C308 193 301 197 300 199 L297 202 C292 205 286 204 281 201 C281 200 280 200 280 199 C274 193 275 186 278 181 C284 173 296 167 310 165 L316 165 C331 165 345 168 359 175 C368 180 385 190 401 208 C416 226 425 246 427 267 C430 289 424 304 409 313 C399 319 386 322 364 322 L342 322 C337 321 331 321 325 321 C297 321 295 328 295 339 C295 355 304 368 313 376 C322 387 336 397 351 405 L351 405 Z M113 110 L128 110 C155 110 183 114 214 122 C220 123 225 129 225 135 C225 139 224 142 221 145 C218 148 213 149 209 148 C180 140 153 137 128 137 L127 137 L127 226 C149 226 172 228 196 233 C202 235 207 241 207 247 C207 256 200 262 191 260 C169 255 148 253 127 253 L127 337 L128 337 C155 337 183 341 214 349 C220 351 225 357 225 363 C225 366 224 370 221 372 C218 375 213 377 209 375 C174 367 144 363 114 365 L113 365 C106 365 100 359 100 351 L100 124 C100 117 106 111 113 110 L113 110 Z M106 13 C106 7 111 2 117 2 L651 2 C657 2 662 7 662 13 C662 19 657 23 651 23 L117 23 C111 23 106 19 106 13 L106 13 Z M117 648 L651 648 C657 648 662 652 662 658 C662 664 657 669 651 669 L117 669 C111 669 106 664 106 658 C106 652 111 648 117 648 L117 648 Z M511 260 C513 257 517 255 521 255 C522 255 524 256 525 256 C531 258 535 264 535 270 L535 487 C557 494 576 499 587 502 C593 503 598 509 598 515 C598 519 596 522 594 525 C591 528 586 529 582 528 C561 523 540 517 517 508 C480 494 458 484 451 480 C450 479 450 479 449 479 C444 474 442 467 445 462 C448 456 455 453 462 456 L463 456 C465 458 484 467 509 477 L509 268 C509 264 510 262 511 260 L511 260 Z M117 546 L408 546 C414 546 419 551 419 557 C419 563 414 568 408 568 L117 568 C111 568 106 563 106 557 C106 551 111 546 117 546 L117 546 Z M651 125 L360 125 C354 125 349 120 349 114 C349 108 354 103 360 103 L651 103 C657 103 662 108 662 114 C662 120 657 125 651 125 L651 125 Z M640 305 C640 292 649 283 662 282 C668 282 674 285 678 289 C682 293 684 298 684 304 C684 316 674 326 662 327 C650 327 640 317 640 305 L640 305 Z M651 221 L598 221 C592 221 587 217 587 211 C587 205 592 200 598 200 L651 200 C657 200 662 205 662 211 C662 217 657 221 651 221 L651 221 Z M117 450 L170 450 C176 450 181 454 181 460 C181 466 176 471 170 471 L117 471 C111 471 106 466 106 460 C106 454 111 450 117 450 L117 450 Z M662 304 L662 305 L663 304 L662 304 Z " />
<glyph glyph-name="M" unicode="M" horiz-adv-x="1022" d="M408 156 C413 158 418 163 418 170 L418 350 L501 223 L508 212 C511 207 518 205 524 208 L525 208 C526 209 527 210 528 210 C531 214 533 218 533 222 L533 450 C533 457 528 463 521 463 C519 463 517 462 515 461 C510 459 506 453 506 448 L506 266 C476 311 446 357 416 404 C414 407 410 410 405 410 C402 410 400 409 398 407 C393 405 390 400 390 395 L390 168 C390 164 392 161 395 158 C397 156 400 155 403 155 C405 155 406 156 408 156 L408 156 Z M122 13 C122 7 126 2 132 2 L909 2 C915 2 920 7 920 13 C920 19 915 23 909 23 L132 23 C126 23 122 19 122 13 L122 13 Z M132 648 L909 648 C915 648 920 652 920 658 C920 664 915 669 909 669 L132 669 C126 669 122 664 122 658 C122 652 126 648 132 648 L132 648 Z M622 467 C632 481 648 493 670 501 C681 506 691 508 699 508 C716 508 718 496 718 491 C718 488 720 484 722 482 C725 479 731 478 735 479 C741 481 745 487 745 493 C745 504 741 519 728 527 C712 538 690 538 662 527 C635 516 614 501 600 482 C584 457 584 433 584 419 L584 316 C584 300 586 276 605 266 C610 262 617 261 625 261 C637 261 651 264 670 272 C699 283 717 295 730 311 C743 327 749 347 749 372 C749 379 743 385 736 385 C735 385 733 385 732 384 C726 382 722 377 722 370 C722 352 718 338 709 327 C700 315 685 306 662 297 C641 288 626 286 619 290 C617 291 611 294 611 319 L611 421 C611 434 611 451 622 467 L622 467 Z M168 210 C173 208 177 206 182 205 C228 192 234 181 232 161 C226 117 189 112 184 111 L176 111 C152 111 136 125 132 132 C132 133 131 134 131 134 C127 138 121 139 116 138 L113 136 C107 132 105 125 109 118 C115 109 125 99 138 92 L139 92 C152 86 164 83 176 83 C180 83 184 84 187 84 C197 85 215 90 232 105 C247 119 256 138 259 159 C261 179 256 196 242 207 C231 217 216 223 191 231 L177 235 C139 247 127 257 127 276 C127 287 132 296 142 303 C151 310 165 314 180 316 C182 317 185 317 188 317 C206 317 216 307 221 302 C222 302 222 301 222 301 C227 297 236 298 240 303 C245 308 246 315 242 321 C241 321 241 322 241 322 C234 328 218 343 189 343 L177 343 C163 341 143 336 127 325 C109 313 100 296 100 276 C100 235 135 220 168 210 L168 210 Z M900 551 L908 551 C912 551 915 553 918 555 C920 558 922 561 922 565 C922 572 916 578 908 579 L900 579 C871 579 840 576 808 570 C802 568 797 562 797 556 L797 328 C797 325 798 322 800 319 C803 317 806 315 810 315 C811 315 811 316 812 316 C843 321 872 324 900 324 L908 324 C912 324 915 326 918 328 C920 331 922 334 922 337 C922 345 916 351 908 351 C881 351 853 349 824 345 L824 434 C847 437 869 440 891 440 C898 440 904 446 904 454 C904 461 898 467 890 467 C869 467 847 465 824 461 L824 545 C850 549 876 551 900 551 L900 551 Z M132 546 L556 546 C562 546 567 551 567 557 C567 563 562 568 556 568 L132 568 C126 568 122 563 122 557 C122 551 126 546 132 546 L132 546 Z M909 125 L486 125 C480 125 475 120 475 114 C475 108 480 103 486 103 L909 103 C915 103 920 108 920 114 C920 120 915 125 909 125 L909 125 Z M323 123 C329 125 332 130 333 136 L333 364 C333 367 331 371 329 373 C325 376 320 378 316 376 C310 374 306 368 306 362 L306 134 C306 127 311 122 318 122 C320 122 321 122 323 123 L323 123 Z M132 450 L210 450 C216 450 221 454 221 460 C221 466 216 471 210 471 L132 471 C126 471 122 466 122 460 C122 454 126 450 132 450 L132 450 Z M909 221 L832 221 C826 221 821 217 821 211 C821 205 826 200 832 200 L909 200 C915 200 920 205 920 211 C920 217 915 221 909 221 L909 221 Z " />
<glyph glyph-name="N" unicode="N" horiz-adv-x="990" d="M126 332 C124 339 117 343 110 341 C106 340 103 338 102 334 C100 331 100 328 101 324 L169 103 C171 96 177 92 184 92 L186 92 C193 93 199 98 200 104 L250 248 L285 131 C285 130 286 129 286 128 C289 124 293 121 299 121 C301 121 302 121 304 122 C311 124 315 129 317 135 C337 212 359 294 384 386 C385 390 384 395 382 398 C379 401 376 403 372 403 L370 403 C364 402 359 398 358 391 L300 176 L250 347 C250 348 249 348 249 348 C247 353 243 357 237 357 C235 357 233 356 231 355 C225 351 222 345 224 339 L237 292 C219 239 202 189 185 142 C165 205 145 269 126 332 L126 332 Z M111 2 L879 2 C885 2 890 7 890 13 C890 19 885 23 879 23 L111 23 C105 23 100 19 100 13 C100 7 105 2 111 2 L111 2 Z M111 648 L879 648 C885 648 890 652 890 658 C890 664 885 669 879 669 L111 669 C105 669 100 664 100 658 C100 652 105 648 111 648 L111 648 Z M739 554 C738 554 737 554 736 553 C729 552 725 546 725 540 L725 312 C725 305 730 299 738 299 C739 299 740 300 741 300 C747 301 752 307 752 314 L752 418 C786 426 818 430 849 430 L849 328 C849 321 855 315 863 315 C866 315 870 316 872 318 C874 321 876 324 876 328 L876 555 C876 563 870 569 863 569 C855 569 849 563 849 555 L849 458 C818 457 786 453 752 446 L752 541 C752 548 746 554 739 554 L739 554 Z M589 254 C591 252 594 251 598 251 C599 251 601 251 603 252 C609 254 612 259 612 266 L612 483 L665 503 C670 505 674 511 674 517 C674 524 669 530 662 530 C660 530 659 529 657 529 C637 522 616 513 593 503 C532 477 529 475 527 473 L526 473 C521 469 519 461 522 456 C525 450 532 447 538 450 L539 450 C539 450 540 450 540 451 L585 471 L585 264 C585 259 587 256 589 254 L589 254 Z M111 546 L530 546 C536 546 541 551 541 557 C541 563 536 568 530 568 L111 568 C105 568 100 563 100 557 C100 551 105 546 111 546 L111 546 Z M460 103 L879 103 C885 103 890 108 890 114 C890 120 885 125 879 125 L460 125 C454 125 449 120 449 114 C449 108 454 103 460 103 L460 103 Z M461 187 C467 190 470 195 470 201 L470 428 C470 432 469 435 466 437 C463 441 457 442 452 440 C447 437 443 432 443 426 L443 198 C443 195 444 192 447 190 C449 187 452 186 455 186 C457 186 459 186 461 187 L461 187 Z M879 221 L802 221 C796 221 792 217 792 211 C792 205 796 200 802 200 L879 200 C885 200 890 205 890 211 C890 217 885 221 879 221 L879 221 Z M111 450 L187 450 C193 450 198 454 198 460 C198 466 193 471 187 471 L111 471 C105 471 100 466 100 460 C100 454 105 450 111 450 L111 450 Z " />
<glyph glyph-name="O" unicode="O" horiz-adv-x="998" d="M525 214 C536 214 549 218 564 224 C567 226 571 228 575 229 C619 250 647 290 647 334 L647 439 C647 456 644 470 637 480 C629 490 618 496 603 496 C592 496 580 493 566 486 C562 485 558 483 555 481 C509 460 482 420 482 374 L482 269 C482 238 495 225 505 219 C511 216 518 214 525 214 L525 214 Z M410 240 C425 256 432 276 432 300 L432 353 C432 392 405 397 394 397 C382 397 370 393 362 390 C343 382 327 376 310 371 C304 369 300 363 300 357 L300 129 C300 122 306 117 313 117 L317 117 C323 119 327 125 327 131 L327 196 C340 200 353 205 367 211 L398 161 C400 157 404 155 408 155 C410 155 412 155 414 156 L415 157 C416 157 417 158 418 159 C424 166 424 172 421 177 C411 192 402 208 392 224 C399 229 406 234 410 240 L410 240 Z M620 332 C620 316 615 300 605 286 C595 273 581 262 566 255 L555 250 C538 242 526 240 519 244 C512 247 509 257 509 271 L509 376 C509 412 528 439 564 456 C567 458 571 460 575 461 C585 466 594 469 601 469 C607 469 620 469 620 437 L620 332 Z M868 310 C876 310 882 316 882 323 L882 551 C882 556 879 560 874 563 C869 566 862 564 858 559 C836 533 812 504 788 472 C766 495 743 516 719 537 C717 539 716 539 714 540 L711 540 C708 540 705 539 703 538 C699 535 696 531 696 526 L696 298 C696 295 698 292 700 290 C702 287 705 286 709 286 C710 286 712 286 713 287 C719 288 723 294 723 300 L723 496 C743 479 762 461 780 442 C780 442 781 442 781 441 C784 439 788 438 791 438 C795 439 798 441 800 443 C800 443 800 444 801 444 C819 469 837 492 855 514 L855 323 C855 316 861 311 868 310 L868 310 Z M111 648 L888 648 C894 648 898 652 898 658 C898 664 894 669 888 669 L111 669 C105 669 100 664 100 658 C100 652 105 648 111 648 L111 648 Z M111 2 L888 2 C894 2 898 7 898 13 C898 19 894 23 888 23 L111 23 C105 23 100 19 100 13 C100 7 105 2 111 2 L111 2 Z M155 315 C182 315 210 318 240 324 C247 326 252 332 252 338 C252 345 246 351 238 351 L236 351 C207 345 181 342 155 342 C150 342 146 343 141 343 C134 343 127 337 127 329 L127 102 C127 95 133 89 140 89 L141 89 C148 89 154 94 154 102 L154 204 C176 204 199 206 223 210 C229 211 234 217 234 224 C234 231 229 237 221 237 L219 237 C197 233 175 231 154 231 L154 315 L155 315 Z M453 114 C453 108 458 103 464 103 L888 103 C894 103 898 108 898 114 C898 120 894 125 888 125 L464 125 C458 125 453 120 453 114 L453 114 Z M111 546 L534 546 C540 546 545 551 545 557 C545 563 540 568 534 568 L111 568 C105 568 100 563 100 557 C100 551 105 546 111 546 L111 546 Z M327 224 L327 349 C341 353 355 359 370 365 C378 368 386 370 391 370 C398 370 401 367 402 365 C404 361 405 357 405 351 L405 298 C405 267 391 249 358 236 C347 231 337 228 327 224 L327 224 Z M888 221 L810 221 C804 221 799 217 799 211 C799 205 804 200 810 200 L888 200 C894 200 898 205 898 211 C898 217 894 221 888 221 L888 221 Z M111 450 L188 450 C194 450 199 454 199 460 C199 466 194 471 188 471 L111 471 C105 471 100 466 100 460 C100 454 105 450 111 450 L111 450 Z " />
<glyph glyph-name="P" unicode="P" horiz-adv-x="796" d="M693 466 C693 520 661 549 608 540 C586 536 564 530 539 521 C533 519 529 514 529 508 L529 280 C529 276 530 273 532 271 C535 269 538 267 541 267 C543 267 544 268 546 268 C570 277 592 282 613 286 C663 294 693 321 693 357 L693 466 Z M556 499 C576 506 594 510 612 514 C617 514 621 515 626 515 C652 515 666 499 666 466 L666 358 C666 348 661 338 653 330 C644 322 629 316 609 313 C592 310 574 305 556 299 L556 499 Z M110 116 C111 116 113 115 115 115 C120 115 125 119 127 125 L144 181 C169 182 196 187 224 195 L241 147 C243 140 250 137 257 139 L258 140 C259 140 259 140 260 141 C266 145 268 152 266 157 L198 364 C196 370 190 374 184 374 L181 374 C174 373 169 367 167 361 C144 278 123 204 102 133 C99 127 103 119 110 116 L110 116 Z M340 176 C342 176 344 176 346 177 C350 179 355 184 355 190 L355 371 L388 322 L445 237 C449 232 456 230 461 232 L462 233 C463 233 464 234 465 235 C468 238 470 242 470 246 L470 474 C470 478 469 481 467 483 C463 487 457 488 452 486 C447 483 444 478 444 472 L444 290 L406 346 L353 424 C351 428 347 430 342 430 C340 430 337 429 335 428 C331 425 328 420 328 415 L328 188 C328 184 329 181 332 179 C334 177 337 176 340 176 L340 176 Z M114 34 C114 28 119 23 125 23 L686 23 C692 23 696 28 696 34 C696 40 692 45 686 45 L125 45 C119 45 114 40 114 34 L114 34 Z M125 609 L686 609 C692 609 696 614 696 620 C696 626 692 631 686 631 L125 631 C119 631 114 626 114 620 C114 614 119 609 125 609 L125 609 Z M457 541 C457 547 452 552 446 552 L140 552 C134 552 129 547 129 541 C129 535 134 530 140 530 L446 530 C452 530 457 535 457 541 L457 541 Z M353 114 C353 108 358 103 364 103 L670 103 C676 103 681 108 681 114 C681 120 676 125 670 125 L364 125 C358 125 353 120 353 114 L353 114 Z M151 208 C162 244 173 282 183 321 L216 220 C193 214 172 210 151 208 L151 208 Z M614 204 C608 204 603 199 603 193 C603 187 608 182 614 182 L670 182 C676 182 681 187 681 193 C681 199 676 204 670 204 L614 204 Z M140 472 C134 472 129 467 129 461 C129 455 134 451 140 451 L196 451 C202 451 207 455 207 461 C207 467 202 472 196 472 L140 472 Z " />
<glyph glyph-name="Q" unicode="Q" horiz-adv-x="743" d="M316 166 C319 166 321 167 322 168 C328 170 331 176 331 182 L331 288 L429 337 L429 241 C429 238 429 235 431 233 C434 228 441 226 447 229 C452 232 455 237 455 243 L455 470 C455 477 450 483 443 483 C441 483 439 482 438 481 C432 479 429 473 429 468 L429 366 C407 356 385 345 364 334 L331 318 L331 409 C331 416 326 421 319 421 C317 421 315 421 313 420 C308 417 304 412 304 406 L304 179 C304 172 310 166 316 166 L316 166 Z M623 499 L624 499 C631 499 637 505 637 512 C637 519 631 526 624 526 C593 528 560 525 523 514 C517 512 512 506 512 500 L512 272 C512 266 518 260 525 260 C526 260 528 260 529 261 C563 270 594 274 623 272 L624 272 C631 272 637 278 637 285 C637 292 632 298 624 299 C598 301 570 298 539 291 L539 379 C563 385 585 388 606 388 C614 388 620 394 620 402 C620 410 614 415 606 415 C585 415 563 413 539 407 L539 491 C570 498 597 501 623 499 L623 499 Z M116 34 C116 28 121 23 127 23 L632 23 C638 23 643 28 643 34 C643 40 638 45 632 45 L127 45 C121 45 116 40 116 34 L116 34 Z M127 609 L632 609 C638 609 643 614 643 620 C643 626 638 631 632 631 L127 631 C121 631 116 626 116 620 C116 614 121 609 127 609 L127 609 Z M112 339 L127 339 C140 339 153 340 165 341 L165 129 C165 125 166 122 168 121 C170 118 174 116 177 116 L180 116 C187 118 192 123 192 130 L192 346 C213 350 233 357 244 361 C250 363 254 369 254 375 C254 382 248 387 241 387 L237 387 C215 379 195 373 175 370 C154 367 137 365 126 365 C120 365 117 366 116 366 L113 366 C110 366 107 365 105 364 L101 358 C100 355 100 351 101 348 C103 343 107 339 112 339 L112 339 Z M427 541 C427 547 423 552 417 552 L141 552 C135 552 130 547 130 541 C130 535 135 530 141 530 L417 530 C423 530 427 535 427 541 L427 541 Z M332 114 C332 108 337 103 343 103 L618 103 C624 103 629 108 629 114 C629 120 624 125 618 125 L343 125 C337 125 332 120 332 114 L332 114 Z M568 204 C562 204 557 199 557 193 C557 187 562 182 568 182 L618 182 C624 182 629 187 629 193 C629 199 624 204 618 204 L568 204 Z M141 472 C135 472 130 467 130 461 C130 455 135 451 141 451 L192 451 C198 451 202 455 202 461 C202 467 198 472 192 472 L141 472 Z " />
<glyph glyph-name="R" unicode="R" horiz-adv-x="538" d="M113 147 L114 147 C130 148 147 151 166 156 C168 156 171 157 174 158 C186 161 210 171 227 195 C240 213 247 235 247 259 C247 295 237 317 219 325 C227 338 232 354 232 373 C232 404 217 413 204 415 C201 416 198 416 195 416 C186 416 176 413 167 411 L164 410 C146 405 129 402 113 401 C106 401 100 395 100 388 L100 160 C100 153 106 147 113 147 L113 147 Z M408 468 C415 468 421 474 421 481 C421 489 414 495 407 495 C377 493 346 485 305 469 C300 466 296 461 296 455 L296 227 C296 220 301 215 308 215 C310 215 312 215 314 216 C352 232 381 239 408 240 C415 241 421 247 421 254 C421 261 415 267 407 267 C382 266 355 260 323 248 L323 336 C349 346 371 352 391 355 C398 356 403 361 403 369 C403 377 397 383 388 382 C368 379 347 373 323 364 L323 447 C357 460 383 466 408 468 L408 468 Z M201 300 C203 300 205 300 207 299 C215 296 219 281 219 257 C219 239 215 222 206 210 C191 190 168 184 161 182 C149 179 138 176 127 175 L127 284 C143 286 160 290 179 296 C186 298 194 300 201 300 L201 300 Z M126 609 L427 609 C433 609 438 614 438 620 C438 626 433 631 427 631 L126 631 C120 631 115 626 115 620 C115 614 120 609 126 609 L126 609 Z M115 34 C115 28 120 23 126 23 L427 23 C433 23 438 28 438 34 C438 40 433 45 427 45 L126 45 C120 45 115 40 115 34 L115 34 Z M194 335 C191 332 184 325 163 318 C150 315 138 312 127 311 L127 375 C141 377 155 380 170 384 C179 387 187 389 194 389 C199 389 204 389 204 371 C204 354 201 343 194 335 L194 335 Z M310 541 C310 547 305 552 299 552 L135 552 C129 552 124 547 124 541 C124 535 129 530 135 530 L299 530 C305 530 310 535 310 541 L310 541 Z M255 103 L419 103 C425 103 429 108 429 114 C429 120 425 125 419 125 L255 125 C249 125 244 120 244 114 C244 108 249 103 255 103 L255 103 Z M389 204 C383 204 378 199 378 193 C378 187 383 182 389 182 L419 182 C425 182 429 187 429 193 C429 199 425 204 419 204 L389 204 Z M135 472 C129 472 124 467 124 461 C124 455 129 451 135 451 L165 451 C171 451 175 455 175 461 C175 467 171 472 165 472 L135 472 Z " />
<glyph glyph-name="S" unicode="S" horiz-adv-x="562" d="M156 153 C164 153 172 154 180 157 L191 160 C234 175 265 216 265 262 L265 366 C265 417 235 424 218 424 C208 424 197 422 184 418 L174 415 C124 400 100 371 100 325 L100 221 C100 197 107 178 121 165 C130 157 142 153 156 153 L156 153 Z M238 260 C238 243 232 227 223 214 C213 201 199 191 184 186 L174 183 C158 178 147 179 139 186 C129 195 127 210 127 221 L127 326 C127 359 143 377 180 388 L191 392 C201 395 210 397 216 397 C226 397 230 393 232 391 C236 385 238 376 238 364 L238 260 Z M456 490 C457 493 455 497 453 499 C450 502 447 503 443 503 L442 503 C435 503 430 496 430 489 L430 315 C396 375 365 426 339 466 C337 470 333 472 329 472 C326 472 323 472 321 470 C317 468 314 463 314 458 L314 230 C314 227 316 223 318 221 C320 219 323 218 326 218 C328 218 330 218 332 219 C336 221 341 226 341 232 L341 411 C368 368 399 315 431 255 C433 251 438 248 443 248 L445 248 C446 248 448 249 449 249 C454 252 456 257 456 262 L456 490 Z M150 609 L451 609 C457 609 462 614 462 620 C462 626 457 631 451 631 L150 631 C144 631 140 626 140 620 C140 614 144 609 150 609 L150 609 Z M140 34 C140 28 144 23 150 23 L451 23 C457 23 462 28 462 34 C462 40 457 45 451 45 L150 45 C144 45 140 40 140 34 L140 34 Z M279 103 L443 103 C449 103 454 108 454 114 C454 120 449 125 443 125 L279 125 C273 125 268 120 268 114 C268 108 273 103 279 103 L279 103 Z M334 541 C334 547 329 552 323 552 L159 552 C153 552 148 547 148 541 C148 535 153 530 159 530 L323 530 C329 530 334 535 334 541 L334 541 Z M443 204 L413 204 C407 204 402 199 402 193 C402 187 407 182 413 182 L443 182 C449 182 454 187 454 193 C454 199 449 204 443 204 L443 204 Z M159 472 C153 472 148 467 148 461 C148 455 153 451 159 451 L189 451 C195 451 200 455 200 461 C200 467 195 472 189 472 L159 472 Z " />
<glyph glyph-name="T" unicode="T" horiz-adv-x="540" d="M104 388 L104 160 C104 153 110 147 117 147 L118 147 C134 148 151 151 169 156 C172 156 174 157 177 158 C190 161 214 171 231 194 C243 212 250 234 250 258 C250 294 241 316 222 324 C231 337 235 353 235 372 C235 403 220 412 208 415 C205 416 202 416 198 416 C189 416 179 413 170 411 L168 410 C149 405 133 402 116 401 C109 401 104 395 104 388 L104 388 Z M414 490 L372 396 C360 417 346 440 331 464 C329 468 325 471 320 471 C317 471 315 469 312 468 C311 467 311 467 311 466 C306 462 305 456 307 451 C307 450 308 450 308 449 C328 417 344 389 360 362 L360 248 C360 241 366 235 373 235 C374 235 375 235 377 236 C382 237 387 243 387 249 L387 364 C405 407 422 445 438 479 L439 480 C440 484 440 488 438 491 C436 494 433 497 430 498 C423 500 416 496 414 490 L414 490 Z M204 300 C207 300 209 300 211 299 C219 295 223 280 223 256 C223 238 218 222 210 209 C196 190 174 184 165 182 C153 179 141 177 131 175 L131 284 C147 286 164 290 182 295 C189 298 198 300 204 300 L204 300 Z M111 609 L412 609 C418 609 422 614 422 620 C422 626 418 631 412 631 L111 631 C105 631 100 626 100 620 C100 614 105 609 111 609 L111 609 Z M111 23 L412 23 C418 23 422 28 422 34 C422 40 418 45 412 45 L111 45 C105 45 100 40 100 34 C100 28 105 23 111 23 L111 23 Z M198 335 C195 332 188 325 167 318 C154 315 142 312 131 311 L131 376 C144 377 159 380 174 384 C182 387 190 389 197 389 C202 389 208 389 208 370 C208 354 205 343 198 335 L198 335 Z M119 530 L283 530 C289 530 294 535 294 541 C294 547 289 552 283 552 L119 552 C113 552 108 547 108 541 C108 535 113 530 119 530 L119 530 Z M239 103 L403 103 C409 103 414 108 414 114 C414 120 409 125 403 125 L239 125 C233 125 228 120 228 114 C228 108 233 103 239 103 L239 103 Z M403 204 L373 204 C367 204 362 199 362 193 C362 187 367 182 373 182 L403 182 C409 182 414 187 414 193 C414 199 409 204 403 204 L403 204 Z M119 451 L149 451 C155 451 160 455 160 461 C160 467 155 472 149 472 L119 472 C113 472 108 467 108 461 C108 455 113 451 119 451 L119 451 Z " />
<glyph glyph-name="U" unicode="U" horiz-adv-x="546" d="M446 425 C446 468 425 493 391 493 C383 493 375 492 366 489 L355 486 C309 470 281 432 281 383 L281 279 C281 248 293 234 304 228 C310 224 319 222 328 222 C338 222 349 224 361 228 L372 231 C420 246 446 278 446 321 L446 425 Z M419 320 C419 304 414 291 404 280 C395 270 382 263 366 258 L355 254 C337 248 326 248 318 252 C311 256 308 266 308 281 L308 386 C308 422 327 448 361 460 L372 463 C379 465 385 466 390 466 C399 466 406 463 411 457 C416 450 419 439 419 425 L419 320 Z M113 373 L117 373 C124 374 143 376 165 382 L165 172 C165 168 166 165 167 164 C170 161 173 159 177 159 L181 159 C188 161 192 167 192 173 L192 390 C211 396 230 403 245 409 C250 412 254 418 254 423 C254 430 248 436 241 436 C240 436 238 436 236 435 C211 424 192 417 174 412 C153 407 126 400 114 400 C110 400 107 398 105 396 C103 395 102 393 101 391 C100 387 100 384 101 381 C103 376 108 373 113 373 L113 373 Z M132 609 L433 609 C439 609 444 614 444 620 C444 626 439 631 433 631 L132 631 C126 631 121 626 121 620 C121 614 126 609 132 609 L132 609 Z M121 34 C121 28 126 23 132 23 L433 23 C439 23 444 28 444 34 C444 40 439 45 433 45 L132 45 C126 45 121 40 121 34 L121 34 Z M250 114 C250 108 255 103 261 103 L425 103 C431 103 436 108 436 114 C436 120 431 125 425 125 L261 125 C255 125 250 120 250 114 L250 114 Z M316 541 C316 547 311 552 305 552 L141 552 C135 552 130 547 130 541 C130 535 135 530 141 530 L305 530 C311 530 316 535 316 541 L316 541 Z M425 182 C431 182 436 187 436 193 C436 199 431 204 425 204 L395 204 C389 204 384 199 384 193 C384 187 389 182 395 182 L425 182 Z M141 472 C135 472 130 467 130 461 C130 455 135 451 141 451 L171 451 C177 451 181 455 181 461 C181 467 177 472 171 472 L141 472 Z " />
<glyph glyph-name="V" unicode="V" horiz-adv-x="544" d="M156 153 C164 153 172 154 180 157 L191 160 C234 176 265 218 265 263 L265 368 C265 418 236 425 219 425 C209 425 197 423 184 418 L174 415 C123 399 100 371 100 325 L100 221 C100 197 107 178 121 165 C130 157 142 153 156 153 L156 153 Z M238 261 C238 244 232 228 222 215 C212 201 199 192 184 186 L174 183 C167 181 162 180 157 180 C149 180 143 182 139 186 C129 195 127 210 127 221 L127 326 C127 359 142 377 180 389 L191 392 C202 396 210 398 217 398 C226 398 230 394 232 391 C236 386 238 377 238 365 L238 261 Z M425 498 L424 498 C394 496 362 488 323 473 C318 471 314 465 314 459 L314 231 C314 224 319 219 326 219 C328 219 329 219 331 220 C337 222 341 228 341 233 L341 339 C367 349 388 355 409 358 C416 359 421 364 421 371 C421 379 415 385 408 385 L406 385 C386 382 365 376 341 368 L341 451 C373 463 400 469 425 471 C432 471 438 477 438 484 C438 492 432 498 425 498 L425 498 Z M132 609 L433 609 C439 609 444 614 444 620 C444 626 439 631 433 631 L132 631 C126 631 121 626 121 620 C121 614 126 609 132 609 L132 609 Z M121 34 C121 28 126 23 132 23 L433 23 C439 23 444 28 444 34 C444 40 439 45 433 45 L132 45 C126 45 121 40 121 34 L121 34 Z M315 541 C315 547 311 552 305 552 L141 552 C135 552 130 547 130 541 C130 535 135 530 141 530 L305 530 C311 530 315 535 315 541 L315 541 Z M250 114 C250 108 254 103 260 103 L424 103 C430 103 435 108 435 114 C435 120 430 125 424 125 L260 125 C254 125 250 120 250 114 L250 114 Z M424 204 L395 204 C389 204 384 199 384 193 C384 187 389 182 395 182 L424 182 C430 182 435 187 435 193 C435 199 430 204 424 204 L424 204 Z M141 472 C135 472 130 467 130 461 C130 455 135 451 141 451 L170 451 C176 451 181 455 181 461 C181 467 176 472 170 472 L141 472 Z " />
<glyph glyph-name="W" unicode="W" horiz-adv-x="1052" d="M951 406 C951 406 947 406 941 407 C938 408 934 408 930 408 C925 409 920 410 914 410 C903 411 889 413 872 414 L818 417 L754 420 C731 421 707 421 682 421 C657 421 631 420 605 419 L526 417 C500 417 473 416 447 416 C421 415 395 414 370 414 C345 413 321 412 298 412 L234 410 L138 407 C115 406 101 406 101 406 C101 406 100 405 100 404 L101 403 C101 403 115 402 138 402 L234 399 C254 398 276 397 298 397 L370 395 L447 393 C473 393 500 392 526 392 L605 389 C631 388 657 388 682 388 C707 388 731 388 754 389 C777 390 798 390 818 392 L872 395 C889 396 903 397 914 399 C920 399 925 400 930 400 L941 402 C947 402 951 403 951 403 C951 403 952 403 952 404 C952 405 952 406 951 406 L951 406 Z M951 311 C951 311 949 312 944 312 L926 315 C910 317 888 320 861 322 L817 325 C802 326 785 326 768 326 C751 326 734 325 716 324 C698 324 680 323 662 322 C644 322 626 321 609 321 C591 320 573 319 556 319 L508 317 L464 315 C451 315 438 314 427 314 L399 312 C383 311 374 311 374 311 C373 311 372 310 372 310 C372 309 373 308 374 308 C374 308 383 307 399 307 L427 305 C438 305 451 304 464 304 L508 302 L556 300 L609 298 C626 298 644 297 662 297 L716 294 C734 294 751 293 768 293 C785 293 802 293 817 294 L861 297 C888 299 910 301 926 304 L944 307 C949 307 951 308 951 308 C951 308 952 308 952 309 C952 310 952 311 951 311 L951 311 Z M952 214 C952 215 952 216 951 216 C951 216 949 217 946 217 L933 220 C921 223 904 225 884 227 L852 230 C841 231 829 231 816 231 C804 231 791 230 778 230 L738 227 C725 227 712 226 699 226 L661 224 L625 222 L592 220 C583 220 573 219 565 219 L544 217 C533 217 526 216 526 216 C525 216 525 215 525 215 C525 214 525 213 526 213 C526 213 533 212 544 212 L565 210 C573 210 583 209 592 209 L625 207 L661 205 C673 205 686 204 699 203 C712 203 725 202 738 202 C752 201 765 200 778 200 C791 199 804 198 816 198 C829 198 841 198 852 199 L884 202 C904 204 921 206 933 209 L946 212 C949 212 951 213 951 213 L952 214 Z " />
<glyph glyph-name="X" unicode="X" horiz-adv-x="1052" d="M951 406 C951 406 937 406 914 407 L818 410 L754 412 C731 412 707 413 682 414 C657 414 631 415 605 416 C579 416 553 417 526 417 L447 419 C421 420 395 421 370 421 C345 421 321 421 298 420 L234 417 L180 414 C164 413 149 411 138 410 C132 410 127 409 122 408 C118 408 114 408 111 407 C105 406 101 406 101 406 L100 405 C100 404 100 403 101 403 C101 403 105 402 111 402 L122 400 C127 400 132 399 138 399 C149 397 164 396 180 395 L234 392 C254 390 276 390 298 389 C321 388 345 388 370 388 C395 388 421 388 447 389 L526 392 C553 392 579 393 605 393 L682 395 L754 397 C776 397 798 398 818 399 L914 402 C937 402 951 403 951 403 C951 403 952 403 952 404 C952 405 952 406 951 406 L951 406 Z M678 311 C678 311 669 311 653 312 L625 314 C614 314 602 315 588 315 L544 317 L496 319 C479 319 461 320 444 321 C426 321 408 322 390 322 C372 323 354 324 336 324 C318 325 301 326 284 326 C267 326 251 326 235 325 L191 322 C164 320 142 317 126 315 L108 312 C104 312 101 311 101 311 L100 310 C100 309 100 308 101 308 C101 308 104 307 108 307 L126 304 C142 301 164 299 191 297 L235 294 C251 293 267 293 284 293 C301 293 318 294 336 294 L390 297 C408 297 426 298 444 298 L496 300 L544 302 L588 304 C602 304 614 305 625 305 L653 307 C669 307 678 308 678 308 C679 308 680 309 680 309 C680 310 679 311 678 311 L678 311 Z M106 212 L120 209 C131 206 148 204 168 202 L200 199 C211 198 223 198 236 198 C248 198 261 199 274 200 C287 200 300 201 314 202 C327 202 340 203 353 203 C366 204 379 205 392 205 L427 207 L460 209 C470 209 479 210 487 210 L508 212 C519 212 526 213 526 213 C527 213 527 214 527 214 C528 215 527 216 526 216 C526 216 519 217 508 217 L487 219 C479 219 470 220 460 220 L427 222 L392 224 L353 226 C340 226 327 227 314 227 L274 230 C261 230 248 231 236 231 C223 231 211 231 200 230 L168 227 C148 225 131 223 120 220 L106 217 C103 217 101 216 101 216 C101 216 100 216 100 215 C100 214 100 213 101 213 C101 213 103 212 106 212 L106 212 Z " />
<glyph glyph-name="Y" unicode="Y" horiz-adv-x="1076" d="M955 383 C961 383 966 386 970 390 C974 394 976 399 976 405 C975 416 966 425 955 425 L954 425 L105 409 C102 409 100 407 100 404 C100 402 102 399 105 399 L954 383 L955 383 Z M955 288 C967 289 976 298 976 310 C975 321 966 330 955 330 L954 330 L377 314 C375 314 372 312 372 309 C372 307 375 305 377 304 L954 288 L955 288 Z M954 236 L529 220 C527 219 525 217 525 215 C525 212 527 210 529 210 L954 194 L956 194 C961 194 966 196 970 200 C974 204 976 210 976 215 C975 227 966 236 954 236 L954 236 Z " />
<glyph glyph-name="Z" unicode="Z" horiz-adv-x="1076" d="M971 409 L122 425 L121 425 C115 425 110 423 106 419 C102 415 100 410 100 404 C100 393 110 383 121 383 L122 383 L971 399 C974 399 976 402 976 404 C976 407 974 409 971 409 L971 409 Z M699 314 L122 330 L121 330 C115 330 110 328 106 324 C102 320 100 314 100 309 C100 297 110 288 121 288 L122 288 L699 304 C701 305 703 307 703 309 C703 312 701 314 699 314 L699 314 Z M546 220 L122 236 L120 236 C115 235 109 233 106 229 C102 225 100 219 100 214 C100 202 110 194 121 194 L122 194 L546 210 C549 210 551 212 551 215 C551 217 549 219 546 220 L546 220 Z " />
<glyph glyph-name="bracketleft" unicode="&#x5b;" horiz-adv-x="1225" d="M1115 501 L291 501 C288 501 286 500 284 498 L103 316 C99 313 99 306 103 302 L284 121 C286 119 288 118 291 118 L1115 118 C1121 118 1125 123 1125 128 C1125 134 1121 138 1115 138 L766 138 L595 309 L766 481 L1115 481 C1121 481 1125 485 1125 491 C1125 496 1121 501 1115 501 L1115 501 Z M295 138 L124 309 L295 481 L358 481 L193 316 C190 313 190 306 193 302 L358 138 L295 138 Z M386 138 L215 309 L386 481 L448 481 L284 316 C280 313 280 306 284 302 L448 138 L386 138 Z M585 138 L414 309 L585 481 L629 481 L465 316 C461 313 461 306 465 302 L629 138 L585 138 Z " />
<glyph glyph-name="backslash" unicode="&#x5c;" horiz-adv-x="3257" d="M2966 501 L291 501 C288 501 286 500 284 498 L103 316 C99 313 99 306 103 302 L284 121 C286 119 288 118 291 118 L2966 118 C2969 118 2971 119 2973 121 L3154 302 C3158 306 3158 313 3154 316 L2973 498 C2971 500 2969 501 2966 501 L2966 501 Z M2491 481 L2663 309 L2491 138 L766 138 L595 309 L766 481 L2491 481 Z M295 138 L124 309 L295 481 L358 481 L193 316 C190 313 190 306 193 302 L358 138 L295 138 Z M386 138 L215 309 L386 481 L448 481 L284 316 C280 313 280 306 284 302 L448 138 L386 138 Z M2962 481 L3133 309 L2962 138 L2900 138 L3064 302 C3068 306 3068 313 3064 316 L2900 481 L2962 481 Z M2871 481 L3042 309 L2871 138 L2809 138 L2973 302 C2977 306 2977 313 2973 316 L2809 481 L2871 481 Z M2672 481 L2843 309 L2672 138 L2628 138 L2792 302 C2796 306 2796 313 2792 316 L2628 481 L2672 481 Z M585 138 L414 309 L585 481 L629 481 L465 316 C461 313 461 306 465 302 L629 138 L585 138 Z " />
<glyph glyph-name="bracketright" unicode="&#x5d;" horiz-adv-x="1225" d="M110 501 C104 501 100 496 100 491 C100 485 104 481 110 481 L459 481 L631 309 L459 138 L110 138 C104 138 100 134 100 128 C100 123 104 118 110 118 L934 118 C937 118 939 119 941 121 L1122 302 C1126 306 1126 313 1122 316 L941 498 C939 500 937 501 934 501 L110 501 Z M930 481 L1101 309 L930 138 L868 138 L1032 302 C1036 306 1036 313 1032 316 L868 481 L930 481 Z M839 481 L1010 309 L839 138 L777 138 L941 302 C945 306 945 313 941 316 L777 481 L839 481 Z M640 481 L811 309 L640 138 L596 138 L760 302 C764 306 764 313 760 316 L596 481 L640 481 Z " />
<glyph glyph-name="asciicircum" unicode="&#x5e;" horiz-adv-x="604" d="M127 309 C111 304 101 288 100 272 L163 272 C164 282 170 295 178 301 C184 305 193 306 201 306 L201 303 L422 303 L408 269 L504 310 L407 350 L422 316 L201 316 L201 313 C192 313 183 314 176 321 C169 327 163 338 163 347 L100 347 C102 330 111 316 127 309 L127 309 Z " />
<glyph glyph-name="underscore" unicode="&#x5f;" horiz-adv-x="3367" d="M288 543 L2513 543 C2520 543 2526 549 2526 556 C2526 564 2520 569 2513 569 L288 569 C175 569 122 542 104 474 C96 444 101 413 118 388 C135 365 161 351 190 349 L195 349 C234 349 267 379 270 418 C271 432 266 445 258 455 C249 465 236 471 223 472 C215 473 209 467 209 460 C208 453 214 447 221 446 C227 446 233 443 238 438 C242 433 244 426 244 420 C242 393 219 373 192 375 C170 377 152 387 140 404 C127 421 123 445 129 467 C142 514 173 543 288 543 L288 543 Z M3263 145 C3271 175 3266 206 3249 231 C3232 254 3206 268 3177 270 C3157 272 3138 265 3123 252 C3108 239 3099 221 3097 201 C3095 173 3116 149 3144 147 C3152 146 3158 152 3158 159 C3159 166 3154 172 3146 173 C3133 174 3123 186 3123 199 C3124 212 3130 224 3140 232 C3150 241 3162 245 3175 244 C3197 242 3215 232 3227 215 C3240 198 3244 174 3238 152 C3225 105 3194 76 3079 76 L863 76 C855 76 850 70 850 63 C850 55 855 50 863 50 L3079 50 C3192 50 3245 77 3263 145 L3263 145 Z M381 705 C380 730 398 751 423 753 C435 753 446 744 447 732 C447 727 443 723 439 723 C431 722 426 716 426 709 C427 701 433 696 440 696 C460 698 474 714 473 734 C471 761 448 781 421 779 C402 778 385 769 372 755 C360 740 354 722 355 703 C361 621 442 603 510 603 L2434 603 C2441 603 2447 609 2447 617 C2447 624 2441 630 2434 630 L510 630 C427 630 385 654 381 705 L381 705 Z M2928 -104 C2936 -103 2941 -97 2941 -90 C2940 -82 2934 -77 2927 -77 C2917 -78 2909 -82 2903 -89 C2896 -96 2893 -105 2894 -115 C2896 -140 2917 -160 2943 -160 L2946 -160 C2965 -159 2982 -150 2995 -136 C3007 -121 3013 -103 3012 -84 C3006 -2 2925 16 2857 16 L941 16 C934 16 928 10 928 2 C928 -5 934 -11 941 -11 L2857 -11 C2940 -11 2982 -35 2986 -86 C2987 -98 2983 -109 2975 -118 C2967 -127 2956 -133 2944 -134 C2932 -134 2921 -125 2920 -113 C2920 -111 2921 -108 2923 -107 C2924 -105 2926 -104 2928 -104 L2928 -104 Z " />
<glyph glyph-name="grave" unicode="&#x60;" horiz-adv-x="1585" d="M136 410 C125 409 116 407 109 406 C103 405 100 404 100 404 C100 404 103 404 109 403 L136 398 L178 392 L204 389 C206 388 208 388 211 388 L1374 388 C1377 388 1379 388 1381 389 L1407 392 L1449 398 L1476 403 C1482 404 1485 404 1485 404 C1485 404 1482 405 1476 406 C1469 407 1460 409 1449 410 L1407 417 L1381 420 C1379 420 1377 421 1374 421 C1372 421 1370 421 1367 420 L218 420 C215 421 213 421 211 421 C208 421 206 420 204 420 L178 417 L136 410 Z M462 293 L1123 293 C1126 293 1129 294 1133 293 L1137 293 C1139 293 1141 293 1142 294 L1160 297 C1171 299 1180 302 1188 303 L1206 308 C1211 309 1213 309 1213 309 C1213 309 1211 310 1206 311 L1188 316 C1180 317 1171 319 1160 322 L1142 325 C1141 325 1139 326 1137 326 L1133 326 C1129 325 1126 325 1123 325 L462 325 C459 325 456 325 452 326 L448 326 C446 326 444 325 443 325 L425 322 C414 319 405 317 397 316 L379 311 C374 310 372 309 372 309 C372 309 374 309 379 308 L397 303 C405 302 414 299 425 297 L443 294 C444 293 446 293 448 293 L452 293 C456 294 459 293 462 293 L462 293 Z M954 199 C957 199 959 199 962 198 L965 198 C966 198 967 199 969 199 L981 202 C989 205 997 207 1002 208 L1016 213 C1019 214 1021 215 1021 215 C1021 215 1019 215 1016 216 L1002 221 L981 227 L969 230 C967 231 966 231 965 231 L962 231 C959 230 957 231 954 231 L631 231 C628 231 626 230 623 231 L620 231 C619 231 618 231 616 230 L604 227 L583 221 L569 216 C566 215 564 215 564 215 C564 215 566 214 569 213 L583 208 C588 207 596 205 604 202 L616 199 C618 199 619 198 620 198 L623 198 C626 199 628 199 631 199 L954 199 Z " />
<glyph glyph-name="a" unicode="a" horiz-adv-x="990" d="M109 -92 C130 -97 151 -100 172 -100 C283 -100 393 -36 500 27 C624 99 752 173 875 143 C881 142 887 146 889 151 C890 157 886 163 881 164 C749 196 617 120 489 46 C366 -26 238 -101 114 -71 C109 -70 103 -73 101 -79 C100 -85 103 -91 109 -92 L109 -92 Z M109 425 C130 419 151 417 172 417 C283 417 393 481 500 543 C624 615 752 690 875 660 C881 659 887 662 889 668 C890 674 886 680 881 681 C749 713 617 636 489 562 C366 490 238 416 114 446 C109 447 103 443 101 438 C100 432 103 426 109 425 L109 425 Z M460 169 C445 160 433 158 426 158 C417 158 412 161 411 162 C410 164 409 165 407 165 C403 167 397 166 392 163 C392 162 391 162 391 161 C385 155 386 147 390 143 C397 135 408 131 423 130 L424 130 C440 131 456 136 471 145 C480 150 497 162 513 181 C527 200 536 221 539 242 C542 270 530 282 520 287 C512 291 503 293 491 293 C484 293 476 293 466 292 C462 291 457 290 452 290 C442 288 432 287 424 287 C408 287 406 292 406 301 C406 318 418 333 424 341 C434 353 449 365 463 374 C473 379 481 382 488 382 C495 382 499 379 503 377 C504 377 504 376 505 376 C510 374 517 376 521 382 C526 389 525 396 520 400 C520 401 519 401 518 401 C514 404 505 409 491 409 C480 409 467 405 453 397 C434 387 417 372 404 357 C388 338 380 318 380 299 C380 285 384 274 393 267 C400 262 409 259 423 259 C432 259 443 261 453 262 L467 264 C490 267 504 266 509 260 C512 257 513 251 512 243 C507 200 474 177 460 169 L460 169 Z M327 302 C332 304 336 310 336 316 C336 319 335 322 333 325 C329 328 323 329 319 327 C284 313 253 304 223 298 C217 297 211 291 211 285 L211 57 C211 54 213 50 215 48 C218 46 221 44 225 44 L227 44 C258 50 291 60 327 75 C332 77 336 82 336 88 C336 92 335 95 333 97 C329 101 324 102 319 100 C290 88 264 79 239 74 L239 162 C261 167 284 174 309 183 C315 186 319 191 319 197 C319 201 317 204 315 206 C312 210 306 211 301 209 C279 201 259 194 239 190 L239 274 C266 280 295 289 327 302 L327 302 Z M622 245 C624 242 628 240 632 240 C634 240 636 240 638 241 C643 244 647 249 647 255 L647 472 C669 482 689 490 699 494 C705 496 709 502 709 507 C709 514 703 520 696 520 C695 520 693 520 692 519 C672 512 651 503 627 492 C590 474 568 462 562 458 C561 458 561 457 560 457 C556 453 553 445 557 440 C560 434 567 431 574 435 L575 435 C577 437 597 448 620 460 L620 253 C620 250 621 247 622 245 L622 245 Z M772 329 C760 328 751 317 751 306 C751 300 753 295 757 291 C761 287 766 285 772 285 L775 285 C787 287 796 297 796 309 C796 322 785 331 772 329 L772 329 Z " />
<glyph glyph-name="b" unicode="b" horiz-adv-x="1119" d="M110 414 C131 409 153 407 174 407 C306 407 437 480 565 551 C710 631 860 714 1005 686 C1011 684 1017 688 1018 694 C1019 700 1015 706 1009 707 C856 737 703 652 554 570 C409 489 259 407 114 435 C108 436 102 432 101 426 C100 420 104 415 110 414 L110 414 Z M110 -103 C131 -107 153 -109 174 -109 C306 -109 437 -37 565 34 C710 114 860 197 1005 169 C1011 168 1017 172 1018 177 C1019 183 1015 189 1009 190 C856 220 703 135 554 53 C409 -27 259 -110 114 -82 C108 -81 102 -85 101 -90 C100 -96 104 -102 110 -103 L110 -103 Z M571 434 C566 432 563 426 563 421 L563 238 L472 367 C470 371 466 373 462 373 C459 373 456 372 454 370 C450 367 447 363 447 358 L447 130 C447 127 449 124 451 121 C453 119 456 118 459 118 C462 118 464 119 466 120 C470 122 474 127 474 133 L474 315 L550 206 L565 185 C569 180 576 178 582 182 L585 184 C588 187 590 191 590 195 L590 423 C590 427 589 430 586 432 C582 436 576 437 571 434 L571 434 Z M680 449 C689 463 706 476 727 486 C740 492 750 495 758 495 C773 495 775 484 775 479 C775 472 781 467 788 467 C789 467 791 467 792 468 C798 470 802 476 802 481 C802 492 797 507 784 515 C769 525 747 524 718 511 C692 499 671 482 657 463 C641 437 641 413 641 398 L641 296 C641 279 643 256 662 246 C667 244 673 243 679 243 C691 243 707 247 727 256 C756 270 774 282 787 299 C799 315 806 335 806 361 C806 368 800 373 793 373 L788 373 C783 370 779 365 779 359 C779 340 775 326 766 314 C757 302 742 292 718 281 C702 274 690 270 681 270 C679 270 677 270 675 271 C670 274 668 283 668 299 L668 401 C668 414 668 431 680 449 L680 449 Z M241 59 C237 58 234 58 231 58 C208 58 193 72 189 78 C189 79 188 80 188 81 C184 84 178 86 173 84 C172 84 171 83 170 83 C164 79 162 71 166 65 C172 55 182 45 195 39 C196 39 196 39 196 38 C208 33 219 31 231 31 C235 31 240 31 245 32 C254 34 272 39 289 55 C304 69 313 89 316 110 C318 131 313 147 299 158 C287 168 269 173 247 179 L234 183 C196 194 184 204 184 223 C184 234 189 243 199 250 C208 256 222 262 237 264 C240 265 244 265 247 265 C264 265 273 257 278 252 L279 251 C285 247 293 248 297 253 C302 258 303 266 298 271 C298 272 298 272 297 272 C291 278 276 292 249 292 C244 292 239 291 233 290 C220 288 200 283 184 272 C166 259 157 243 157 223 C157 182 190 167 225 157 C230 155 235 154 240 153 C287 141 291 131 289 112 C283 67 246 60 241 59 L241 59 Z M964 540 C968 540 972 542 975 544 C977 547 979 550 979 554 C979 561 973 567 966 568 C934 569 900 567 865 560 C859 559 854 553 854 546 L854 318 C854 315 855 312 857 310 C860 307 863 306 867 306 L869 306 C902 313 934 315 964 313 C968 313 972 315 975 317 C977 320 979 323 979 326 C979 334 973 339 966 340 C939 342 910 340 881 335 L881 424 C903 428 924 430 944 430 L947 430 C955 430 961 436 961 443 C961 451 955 457 947 457 L944 457 C924 457 903 455 881 451 L881 535 C910 540 938 542 964 540 L964 540 Z M372 332 C366 329 363 324 363 318 L363 90 C363 83 368 78 375 78 C377 78 379 78 381 79 C386 81 389 87 389 92 L389 320 C389 323 388 327 386 329 C382 333 377 334 372 332 L372 332 Z " />
<glyph glyph-name="c" unicode="c" horiz-adv-x="1119" d="M204 273 C202 279 197 282 191 282 C190 282 188 282 186 281 C180 279 176 271 178 265 L246 48 C248 42 254 38 261 38 L264 38 C271 39 276 44 278 50 L328 199 L362 86 L364 83 C366 79 371 76 376 76 C378 76 380 77 382 78 C388 80 393 85 394 91 L461 348 C463 354 460 358 459 360 C456 363 451 365 446 364 C440 363 436 358 435 353 C415 274 396 201 377 132 C360 189 343 243 327 298 C325 303 320 307 315 307 C312 307 310 306 307 304 C302 301 299 294 301 288 L315 243 L262 88 C242 149 223 212 204 273 L204 273 Z M110 411 C131 407 153 405 174 405 C306 405 437 478 565 548 C710 629 860 712 1005 683 C1011 682 1017 686 1018 692 C1019 698 1015 703 1009 705 C856 734 703 650 554 567 C409 487 259 404 114 433 C108 434 102 430 101 424 C100 418 104 412 110 411 L110 411 Z M110 -105 C131 -110 153 -112 174 -112 C306 -112 437 -39 565 32 C710 112 860 195 1005 167 C1011 165 1017 169 1018 175 C1019 181 1015 187 1009 188 C856 218 703 133 554 51 C409 -30 259 -113 114 -84 C108 -83 102 -87 101 -93 C100 -99 104 -104 110 -105 L110 -105 Z M930 315 C933 313 936 312 940 312 C948 312 953 317 953 325 L953 552 C953 556 952 559 949 562 C947 564 944 566 940 566 C932 566 927 560 927 552 L927 454 C895 453 863 447 829 438 L829 532 C829 539 823 545 816 545 C815 545 814 545 812 544 C807 542 802 536 802 530 L802 303 C802 296 808 290 815 290 C816 290 818 290 819 291 C825 293 829 298 829 305 L829 410 C864 420 896 425 927 427 L927 325 C927 321 928 318 930 315 L930 315 Z M666 235 C669 233 672 232 675 232 C677 232 679 232 681 233 C686 236 689 241 689 247 L689 465 L743 489 C748 491 752 497 752 503 C752 510 746 515 739 515 C737 515 736 515 734 514 C714 506 693 496 670 484 C609 453 605 450 604 449 L603 448 C599 444 596 437 599 431 C601 427 605 424 610 424 C612 424 614 425 616 426 L617 426 C617 426 617 427 618 427 C620 428 639 439 663 451 L663 244 C663 240 665 237 666 235 L666 235 Z M529 409 C524 406 521 400 521 395 L521 167 C521 160 526 155 533 155 C535 155 537 156 539 157 C544 160 547 165 547 170 L547 398 C547 401 546 404 544 407 C540 410 534 411 529 409 L529 409 Z " />
<glyph glyph-name="d" unicode="d" horiz-adv-x="1119" d="M626 463 L615 457 C569 432 543 392 543 345 L543 240 C543 209 556 196 567 191 C572 189 577 188 583 188 C595 188 609 192 625 201 L636 207 C680 230 708 272 708 316 L708 421 C708 470 679 475 667 475 C655 475 642 471 626 463 L626 463 Z M472 204 C486 221 493 241 493 265 L493 319 C493 356 468 360 458 360 C443 360 427 353 422 350 C403 341 387 333 370 326 C365 324 361 318 361 313 L361 85 C361 79 367 73 374 73 C375 73 377 73 379 74 C384 76 388 82 388 88 L388 153 L428 172 L459 125 C463 120 470 118 475 121 L476 121 L480 124 C485 131 485 137 481 142 L453 186 C460 192 467 198 472 204 L472 204 Z M110 410 C131 405 153 404 174 404 C306 404 437 476 565 547 C710 627 860 710 1005 682 C1011 681 1017 684 1018 690 C1019 696 1015 702 1009 703 C856 733 703 648 554 566 C409 486 259 403 114 431 C108 432 102 428 101 422 C100 416 104 411 110 410 L110 410 Z M110 -107 C131 -111 153 -113 174 -113 C306 -113 437 -40 565 30 C710 110 860 193 1005 165 C1011 164 1017 168 1018 174 C1019 179 1015 185 1009 186 C856 216 703 131 554 49 C409 -31 259 -114 114 -86 C108 -85 102 -88 101 -94 C100 -100 104 -106 110 -107 L110 -107 Z M681 313 C681 297 676 280 666 266 C656 252 642 240 626 231 L615 225 C599 216 587 213 579 217 C572 220 570 233 570 243 L570 347 C570 383 589 413 625 432 L636 438 C651 446 660 448 665 448 C670 448 681 448 681 418 L681 313 Z M930 310 C937 310 943 316 943 323 L943 550 C943 556 940 560 935 563 C929 565 922 563 919 558 C896 530 873 499 849 465 C827 486 804 505 779 525 C778 526 776 527 774 527 C770 528 766 527 763 524 C759 521 757 517 757 513 L757 285 C757 278 763 273 769 273 C771 273 773 273 775 274 C780 276 784 281 784 287 L784 485 C804 469 823 452 841 435 C842 435 842 434 842 434 C844 432 847 431 850 431 C851 431 852 431 853 432 C856 432 859 434 861 437 L862 437 C880 464 898 489 916 512 L916 323 C916 315 922 309 930 310 L930 310 Z M302 273 C308 275 313 281 312 287 C312 294 307 300 300 300 L296 300 C262 290 231 284 201 281 C194 281 188 275 188 268 L188 40 C188 33 194 27 201 27 L202 27 C210 28 215 33 215 40 L215 144 C237 146 261 151 285 157 C291 159 295 165 295 171 C295 178 290 184 283 184 L279 184 C257 178 236 174 215 171 L215 255 C243 258 272 264 302 273 L302 273 Z M388 182 L388 306 C402 312 416 318 431 326 C444 332 451 333 455 333 C460 333 462 331 463 329 C465 326 466 321 466 316 L466 263 C466 224 440 206 418 196 C407 191 398 186 388 182 L388 182 Z " />
<glyph glyph-name="e" unicode="e" horiz-adv-x="931" d="M692 532 C670 526 647 519 622 509 C618 507 613 502 613 495 L613 267 C613 260 619 255 625 255 C627 255 629 255 631 256 C655 266 677 273 698 278 C748 289 777 317 777 353 L777 462 C777 515 745 544 692 532 L692 532 Z M640 487 C660 495 679 501 697 506 C703 507 709 508 714 508 C738 508 750 492 750 462 L750 353 C750 343 746 333 737 325 C728 316 713 309 693 304 C676 300 659 295 640 288 L640 487 Z M264 322 C258 320 253 314 251 308 C228 222 207 144 186 70 C185 67 185 63 187 60 C189 56 192 54 196 53 L199 53 C205 53 210 57 212 63 C217 83 223 103 229 123 C254 128 281 137 309 149 C315 134 320 120 325 105 C328 98 336 95 342 98 L343 99 C344 99 345 100 345 100 C351 104 353 111 350 116 C326 185 304 250 283 313 C280 321 272 325 264 322 L264 322 Z M536 466 C531 463 528 458 528 453 L528 269 L474 343 C462 360 450 377 437 394 C435 398 431 400 427 400 C424 400 421 398 418 396 C415 394 412 389 412 384 L412 157 C412 153 413 150 416 148 C418 146 421 145 424 145 C427 145 429 145 431 147 C435 149 439 154 439 160 L439 343 L457 319 L530 217 C534 212 541 210 546 213 L547 214 L550 216 C552 218 555 222 555 227 L555 455 C555 462 549 468 543 468 C540 468 538 467 536 466 L536 466 Z M109 -80 C130 -85 150 -88 171 -88 C273 -88 373 -27 471 31 C585 99 703 170 817 140 C822 138 828 141 830 147 C831 153 828 159 822 161 C700 193 578 120 460 50 C346 -18 228 -89 115 -59 C109 -57 103 -60 101 -66 C100 -72 103 -78 109 -80 L109 -80 Z M109 437 C130 432 150 429 171 429 C273 429 373 489 471 548 C585 616 703 687 817 656 C822 655 828 658 830 664 C831 670 828 676 822 677 C700 710 578 637 460 567 C346 498 228 428 115 458 C109 460 103 456 101 450 C100 445 103 439 109 437 L109 437 Z M236 152 C247 190 257 229 268 269 L301 174 C278 164 257 157 236 152 L236 152 Z " />
<glyph glyph-name="f" unicode="f" horiz-adv-x="931" d="M109 -80 C130 -85 150 -88 171 -88 C273 -88 373 -27 471 31 C585 99 703 170 817 140 C822 138 828 141 830 147 C831 153 828 159 822 161 C700 193 578 120 460 50 C346 -18 228 -89 115 -59 C109 -57 103 -60 101 -66 C100 -72 103 -78 109 -80 L109 -80 Z M109 437 C130 432 150 429 171 429 C273 429 373 489 471 548 C585 616 703 687 817 656 C822 655 828 658 830 664 C831 670 828 676 822 677 C700 710 578 637 460 567 C346 498 228 428 115 458 C109 460 103 456 101 450 C100 445 103 439 109 437 L109 437 Z M506 204 C509 199 516 197 523 201 C527 204 530 209 530 214 L530 441 C530 448 525 454 518 454 C516 454 514 453 512 452 C507 449 504 444 504 439 L504 336 C489 328 474 319 460 310 L406 279 L406 368 C406 375 401 381 394 381 C392 381 389 380 387 379 C383 376 379 371 379 365 L379 138 C379 131 384 126 391 126 C394 126 396 126 398 128 C403 130 406 136 406 141 L406 248 C428 260 450 274 471 286 L504 306 L504 211 C504 209 504 206 506 204 L506 204 Z M701 506 C707 508 712 514 712 520 C712 528 706 533 699 533 L696 533 C665 526 633 515 596 497 C591 495 587 489 587 484 L587 256 C587 249 593 244 600 244 C602 244 604 244 605 245 C641 262 672 273 701 279 C707 281 712 286 712 293 C712 300 706 306 699 306 L696 306 C671 300 644 291 614 278 L614 365 C639 376 662 385 684 391 C690 393 695 398 695 405 C695 412 689 418 682 418 C681 418 679 418 678 417 C658 412 637 404 614 394 L614 476 C646 491 674 501 701 506 L701 506 Z M242 69 C245 66 248 64 252 64 L256 64 C262 66 266 72 266 78 L266 294 C288 301 309 310 320 314 C325 317 329 323 329 328 C329 335 323 341 316 341 C314 341 313 341 311 340 C289 330 269 323 249 317 C229 312 201 306 189 306 C185 306 182 305 180 303 C178 301 177 299 176 297 C175 294 175 290 176 287 C178 282 183 279 188 279 L193 279 C201 280 219 282 240 287 L240 77 C240 73 241 70 242 69 L242 69 Z " />
<glyph glyph-name="g" unicode="g" horiz-adv-x="714" d="M283 380 C281 381 279 381 277 381 C266 381 254 376 243 372 C225 365 207 360 191 355 C185 354 180 348 180 342 L180 114 C180 107 186 102 193 102 L196 102 C212 106 229 111 247 118 L254 121 C270 127 292 138 307 161 C320 179 327 201 327 225 C327 262 317 283 299 290 C307 303 312 319 312 339 C312 371 294 379 283 380 L283 380 Z M491 454 C496 456 501 462 501 468 C501 475 495 481 488 481 C486 481 485 480 484 480 C449 468 414 452 385 438 C380 436 376 430 376 424 L376 197 C376 193 377 190 379 188 C382 186 385 185 388 185 C390 185 392 185 394 186 C423 200 457 215 491 227 C497 229 501 234 501 240 C501 247 495 253 488 253 C487 253 485 253 484 252 C455 243 428 231 403 219 L403 306 C423 316 448 327 473 337 C479 339 483 344 483 350 C483 358 478 363 471 363 C469 363 467 363 466 362 C444 354 422 344 403 335 L403 417 C429 430 460 444 491 454 L491 454 Z M110 471 C115 470 119 470 124 470 C204 470 284 510 361 548 C441 586 523 627 602 622 C608 622 613 626 613 632 C614 638 609 643 603 644 C518 649 434 607 352 567 C273 528 191 488 111 492 C105 493 100 488 100 482 C100 476 104 471 110 471 L110 471 Z M110 -46 L124 -46 C204 -46 284 -7 361 31 C441 70 523 110 602 105 C608 105 613 110 613 116 C614 122 609 127 603 127 C518 132 434 90 352 50 C273 11 190 -29 111 -24 C105 -24 100 -29 100 -35 C100 -41 104 -46 110 -46 L110 -46 Z M207 241 C224 246 241 251 260 259 C268 262 276 265 283 265 L288 265 C295 262 299 247 299 223 C299 205 295 188 286 175 C273 157 252 148 240 144 C228 139 218 136 207 133 L207 241 Z M274 300 C271 297 264 289 242 280 L207 268 L207 332 C221 336 236 341 251 347 C260 350 269 354 276 354 C279 354 284 354 284 336 C284 320 281 309 274 300 L274 300 Z " />
<glyph glyph-name="h" unicode="h" horiz-adv-x="714" d="M258 381 L247 377 C199 358 174 325 174 280 L174 175 C174 151 181 133 196 122 C204 116 213 113 224 113 C234 113 244 115 255 120 C259 121 262 122 266 124 C310 142 339 185 339 230 L339 335 C339 383 312 390 296 390 C285 390 272 387 258 381 L258 381 Z M312 227 C312 211 306 194 297 180 C286 166 273 156 258 149 C254 148 251 147 247 145 C239 142 232 140 226 140 C220 140 216 142 212 144 C203 151 201 165 201 176 L201 281 C201 315 217 337 255 351 L266 356 C277 360 286 363 293 363 C301 363 305 360 306 357 C310 352 312 343 312 332 L312 227 Z M514 489 C508 488 504 482 504 475 L504 297 C471 352 439 401 413 439 C411 443 407 445 403 445 C400 445 397 444 395 442 C391 440 388 435 388 430 L388 203 C388 199 390 196 392 193 C394 191 397 190 400 190 C402 190 404 191 406 192 C411 194 415 199 415 205 L415 386 C442 345 474 295 505 240 C508 237 512 234 516 234 C518 234 519 234 520 235 L521 235 C522 235 523 236 524 237 C528 240 531 244 531 249 L531 477 C531 480 529 483 527 486 C524 489 519 490 514 489 L514 489 Z M110 471 C115 470 119 470 124 470 C204 470 284 510 361 548 C441 586 523 627 602 622 C608 622 613 626 613 632 C614 638 609 643 603 644 C518 649 434 607 352 567 C273 528 191 488 111 492 C105 493 100 488 100 482 C100 476 104 471 110 471 L110 471 Z M110 -46 L124 -46 C204 -46 284 -7 361 31 C441 70 523 110 602 105 C608 105 613 110 613 116 C614 122 609 127 603 127 C518 132 434 90 352 50 C273 11 191 -29 111 -24 C106 -24 100 -29 100 -35 C100 -41 104 -46 110 -46 L110 -46 Z " />
<glyph glyph-name="i" unicode="i" horiz-adv-x="714" d="M283 380 C281 381 279 381 277 381 C266 381 254 376 243 372 C225 365 207 360 191 355 C185 354 180 348 180 342 L180 114 C180 111 181 108 184 106 C186 103 189 102 193 102 L196 102 C212 106 229 111 247 118 L254 121 C270 127 292 138 307 161 C320 179 327 201 327 225 C327 262 317 283 299 290 C307 303 312 319 312 339 C312 371 294 379 283 380 L283 380 Z M110 471 C115 470 119 470 124 470 C204 470 284 510 361 548 C441 586 523 627 602 622 C608 622 613 626 613 632 C614 638 609 643 603 644 C518 649 434 607 352 567 C273 528 191 488 111 492 C105 493 100 488 100 482 C100 476 104 471 110 471 L110 471 Z M110 -46 L124 -46 C204 -46 284 -7 361 31 C441 70 523 110 602 105 C608 105 613 110 613 116 C614 122 609 127 603 127 C518 132 434 90 352 50 C273 11 191 -29 111 -24 C105 -24 100 -29 100 -35 C100 -41 104 -46 110 -46 L110 -46 Z M449 212 C451 212 452 212 454 213 C460 215 463 220 463 226 L463 341 L515 466 L515 468 C516 472 516 476 513 480 C511 483 508 485 504 485 L503 485 C497 485 492 481 490 475 L448 372 C436 392 423 412 407 436 C405 439 401 442 397 442 C394 442 391 441 388 438 C388 438 387 438 387 437 C383 433 381 427 383 422 C384 421 384 420 384 420 C405 389 421 362 437 338 L437 224 C437 217 442 212 449 212 L449 212 Z M207 241 C224 246 241 251 260 259 C268 262 276 265 283 265 L288 265 C295 262 299 247 299 223 C299 205 295 188 286 175 C273 157 252 148 240 144 C228 140 218 136 207 133 L207 241 Z M274 300 C271 297 264 289 242 280 L207 268 L207 332 C221 336 236 341 251 347 C260 350 269 354 276 354 C279 354 284 354 284 336 C284 320 281 309 274 300 L274 300 Z " />
<glyph glyph-name="j" unicode="j" horiz-adv-x="714" d="M439 465 L428 461 C381 440 355 401 355 353 L355 249 C355 218 367 204 378 198 C384 196 390 194 398 194 C409 194 422 197 436 204 L447 208 C493 228 520 265 520 308 L520 413 C520 467 487 473 473 473 C462 473 451 471 439 465 L439 465 Z M493 307 C493 290 487 275 478 263 C468 251 455 241 439 234 C435 232 431 231 428 229 C417 224 407 222 401 222 C397 222 394 222 392 224 C385 227 382 236 382 251 L382 356 C382 391 401 420 436 435 C440 437 444 438 447 440 C456 444 465 446 471 446 C477 446 493 446 493 411 L493 307 Z M110 471 C115 470 119 470 124 470 C204 470 284 510 361 548 C441 586 523 627 602 622 C608 622 613 626 613 632 C614 638 609 643 603 644 C518 649 434 607 352 567 C273 528 190 488 111 492 C105 493 100 488 100 482 C100 476 104 471 110 471 L110 471 Z M110 -46 L124 -46 C204 -46 284 -7 361 31 C441 70 523 110 602 105 C608 105 613 110 613 116 C614 122 609 127 603 127 C518 132 434 90 352 50 C273 11 191 -29 111 -24 C106 -24 100 -29 100 -35 C100 -41 104 -46 110 -46 L110 -46 Z M241 126 C243 123 247 121 251 121 C253 121 254 121 256 122 C262 124 265 129 265 136 L265 353 C289 362 311 372 319 376 C324 379 328 384 328 390 C328 397 322 402 315 402 C313 402 311 402 310 401 C285 390 265 381 247 374 C217 363 197 356 186 354 C184 354 181 353 179 350 C177 349 175 346 174 344 C174 341 174 338 175 335 C177 330 182 327 187 327 L190 327 C190 328 191 328 191 328 C192 328 193 328 195 329 C202 331 219 335 239 342 L239 134 C239 130 240 127 241 126 L241 126 Z " />
<glyph glyph-name="k" unicode="k" horiz-adv-x="714" d="M258 381 L247 377 C199 358 174 325 174 280 L174 175 C174 151 181 133 196 122 C204 116 213 113 224 113 C234 113 244 115 255 120 C259 121 262 122 266 124 C310 142 339 185 339 230 L339 335 C339 383 312 390 296 390 C285 390 272 387 258 381 L258 381 Z M312 227 C312 211 306 194 297 180 C286 166 273 156 258 149 C254 148 251 147 247 145 C239 142 232 140 226 140 C220 140 216 142 212 144 C203 151 201 165 201 176 L201 281 C201 315 217 337 255 351 L266 356 C277 360 286 363 293 363 C301 363 305 360 306 357 C310 352 312 343 312 332 L312 227 Z M502 458 C508 459 512 465 512 471 C512 479 506 484 499 484 L495 484 C459 473 423 456 397 444 C391 441 388 436 388 430 L388 202 C388 196 393 190 400 190 C402 190 404 191 406 192 C410 194 415 199 415 205 L415 312 C442 324 464 334 485 341 C491 343 495 348 495 355 C495 358 494 361 491 364 C488 367 483 368 478 367 C459 360 439 352 415 341 L415 423 C449 439 476 450 502 458 L502 458 Z M110 471 C115 470 119 470 124 470 C204 470 284 510 361 548 C441 586 523 627 602 622 C608 622 613 626 613 632 C614 638 609 643 603 644 C518 649 434 607 352 567 C273 528 191 488 111 492 C105 493 100 488 100 482 C100 476 104 471 110 471 L110 471 Z M110 -46 L124 -46 C204 -46 284 -7 361 31 C441 70 523 110 602 105 C608 105 613 110 613 116 C614 122 609 127 603 127 C518 132 434 90 352 50 C273 11 191 -29 111 -24 C106 -24 100 -29 100 -35 C100 -41 104 -46 110 -46 L110 -46 Z " />
<glyph glyph-name="l" unicode="l" horiz-adv-x="1001" d="M879 130 L112 -94 C103 -96 98 -106 101 -115 C103 -123 110 -128 117 -128 C119 -128 121 -128 122 -127 L888 96 C898 99 903 109 900 118 C897 127 888 132 879 130 L879 130 Z M879 646 L112 423 C103 420 98 411 101 402 C103 394 110 389 117 389 C119 389 121 389 122 390 L888 613 C898 616 903 625 900 635 C897 644 888 649 879 646 L879 646 Z M333 301 C342 303 348 312 348 321 C348 332 340 340 329 340 L323 340 L226 311 C217 309 210 300 210 291 L210 63 C210 53 219 44 230 44 C232 44 234 45 235 45 L333 74 C342 76 348 84 348 93 C348 104 340 113 329 113 C327 113 325 113 323 112 L251 91 L251 165 L316 184 C324 187 331 195 331 205 C331 215 322 224 312 224 C310 224 308 224 306 223 L251 207 L251 277 L333 301 Z M433 322 C433 322 433 323 434 323 C442 331 455 338 468 342 C473 343 477 344 481 344 C492 344 498 339 503 334 C503 334 504 334 504 333 C507 331 511 330 515 330 C521 330 527 332 531 337 C538 344 538 355 532 363 C531 364 531 365 530 365 C523 371 508 384 483 384 C475 384 467 383 459 380 C439 375 420 364 406 351 C388 334 379 313 379 292 C379 245 421 238 454 233 L468 231 C514 224 512 212 511 201 C507 167 481 154 466 150 C460 148 454 147 448 147 C433 147 424 154 423 156 L418 160 C412 165 403 165 396 160 C395 160 394 159 393 158 C385 151 384 140 390 132 C396 122 408 114 424 110 C424 110 425 110 425 109 C433 108 440 107 447 107 C457 107 467 109 476 111 C486 114 505 121 522 138 C538 154 548 174 550 197 C554 226 542 242 531 251 C520 260 504 266 476 271 L461 273 C422 279 419 282 419 294 C419 307 428 317 433 322 L433 322 Z M623 171 C627 166 632 163 638 163 C640 163 642 164 644 164 C653 167 659 175 659 184 L659 396 L706 409 C715 412 721 420 721 429 C721 440 712 449 702 449 C700 449 698 448 696 448 L633 429 C569 411 566 410 563 407 C555 402 552 391 556 383 C560 374 569 369 579 372 C580 372 581 373 581 373 L619 384 L619 183 C619 179 620 174 623 171 L623 171 Z M784 204 C798 208 808 221 808 236 C808 250 797 261 782 261 C780 261 777 261 774 260 C760 256 750 243 750 229 C750 214 761 203 776 203 C778 203 781 203 784 204 L784 204 Z " />
<glyph glyph-name="m" unicode="m" horiz-adv-x="1130" d="M1008 673 L112 412 C103 409 98 399 101 390 C103 382 110 378 117 378 L122 378 L1018 639 C1027 642 1032 652 1029 661 C1027 670 1017 675 1008 673 L1008 673 Z M1008 156 L112 -105 C103 -108 98 -117 101 -127 C103 -134 110 -139 117 -139 C119 -139 121 -139 122 -138 L1018 123 C1027 125 1032 135 1029 144 C1027 153 1017 159 1008 156 L1008 156 Z M471 103 C480 105 486 113 486 122 L486 276 L565 144 C569 137 578 133 587 135 L588 136 C590 136 592 137 593 139 C599 143 602 149 602 155 L602 384 C602 394 593 403 583 403 C581 403 579 403 577 402 C568 400 562 391 562 382 L562 228 L484 359 C481 365 474 369 467 369 C464 369 461 368 458 367 C451 363 446 356 446 348 L446 121 C446 115 449 110 453 106 C457 103 461 102 466 102 C467 102 469 102 471 103 L471 103 Z M690 382 C698 393 712 401 733 407 C742 410 750 412 757 412 C761 412 774 412 774 400 C774 395 776 389 780 386 C785 381 792 379 799 381 C808 384 814 392 814 402 C814 408 813 428 794 441 C785 448 773 452 759 452 C748 452 737 450 724 446 C694 437 672 424 658 406 C640 382 640 356 640 340 L640 238 C640 220 642 195 662 180 C671 174 682 171 695 171 C706 171 718 173 733 178 C763 186 783 198 797 215 C811 232 818 253 818 280 C818 291 809 300 798 300 C797 300 795 300 793 299 C784 296 778 288 778 279 C778 262 774 249 767 240 C758 230 744 222 724 216 C713 213 704 211 697 211 C692 211 688 212 686 213 C681 217 680 230 680 240 L680 342 C680 355 680 369 690 382 L690 382 Z M210 246 L211 246 C219 255 232 262 245 266 C250 267 254 268 258 268 C269 268 275 262 280 258 C280 257 281 257 281 257 C284 254 288 253 292 253 C298 253 304 256 308 260 C315 268 315 279 309 287 C308 287 308 288 307 289 C300 294 285 308 260 308 C252 308 244 306 236 304 C216 298 197 288 183 274 C165 257 156 237 156 216 C156 168 198 162 231 157 L245 155 C291 148 289 136 288 124 C284 90 258 78 243 74 C237 72 231 71 225 71 C210 71 201 77 200 79 C199 81 197 82 195 84 C189 88 180 88 173 84 L170 82 C162 74 161 63 167 55 C173 46 186 38 201 33 L202 33 C210 31 217 31 224 31 C234 31 244 32 253 35 C263 38 282 45 299 62 C315 78 325 98 328 121 C331 149 319 165 308 174 C297 184 281 190 253 195 L239 197 L238 197 C199 202 196 205 196 217 C196 231 205 241 210 246 L210 246 Z M975 477 C984 479 991 488 991 497 C991 508 982 516 971 516 C969 516 967 516 966 515 L868 487 C859 484 853 476 853 467 L853 239 C853 229 861 220 872 220 C874 220 876 221 878 221 L975 250 C984 252 991 260 991 269 C991 280 982 289 971 289 C969 289 968 288 966 288 L893 267 L893 341 L958 360 C967 363 973 371 973 380 C973 391 964 400 954 400 C952 400 950 400 948 399 L893 383 L893 453 L975 477 Z M387 78 C396 80 401 88 401 97 L401 325 C401 336 393 345 382 345 C381 345 379 344 377 344 C368 341 362 333 362 324 L362 96 C362 85 370 77 381 77 C383 77 385 77 387 78 L387 78 Z " />
<glyph glyph-name="n" unicode="n" horiz-adv-x="1130" d="M215 275 L215 276 C213 283 205 288 197 288 C193 288 190 287 187 285 C178 280 175 270 178 261 L246 56 C248 47 256 41 266 41 C268 41 270 42 272 42 C281 45 287 51 289 59 L333 188 L362 90 C362 88 363 87 364 85 C368 79 374 75 382 75 C384 75 386 75 388 76 C397 79 404 85 406 94 L473 339 C474 345 473 351 470 356 C466 361 461 363 454 363 C445 363 437 357 434 348 L383 161 L339 311 C339 311 338 311 338 312 C336 319 328 324 320 324 C317 324 313 323 310 321 C302 316 298 306 300 298 L313 254 L268 118 L215 275 Z M1008 154 L112 -107 C103 -110 98 -120 101 -129 C103 -137 110 -142 117 -142 C119 -142 121 -141 122 -141 L1018 120 C1027 123 1032 133 1029 142 C1027 151 1017 156 1008 154 L1008 154 Z M117 375 C119 375 121 375 122 376 L1018 637 C1027 640 1032 649 1029 659 C1027 668 1017 673 1008 670 L112 409 C103 407 98 397 101 388 C103 380 110 375 117 375 L117 375 Z M930 246 C934 240 942 238 950 240 C959 243 965 251 965 260 L965 487 C965 498 957 507 946 507 C944 507 942 506 941 506 C932 503 926 495 926 486 L926 390 L841 366 L841 451 C841 462 833 470 822 470 L816 470 C807 467 801 459 801 449 L801 222 C801 211 810 203 820 203 C822 203 824 203 826 204 C835 206 841 215 841 224 L841 324 L926 349 L926 259 C926 253 928 249 930 246 L930 246 Z M666 170 C669 165 675 162 681 162 C682 162 684 162 686 163 C695 166 701 174 701 183 L701 394 C720 399 737 404 749 408 C757 410 764 419 764 428 C764 439 755 447 744 447 L739 447 L676 428 C611 409 609 409 605 406 C598 401 595 390 598 382 C602 373 612 368 622 371 C623 371 623 371 624 372 L662 383 L662 182 C662 177 663 173 666 170 L666 170 Z M535 388 C526 385 520 377 520 367 L520 140 C520 129 528 121 539 121 C541 121 543 121 545 122 C553 124 559 132 559 141 L559 369 C559 380 551 388 540 388 L535 388 Z " />
<glyph glyph-name="o" unicode="o" horiz-adv-x="1130" d="M567 149 C576 142 588 139 601 139 C610 139 620 140 631 143 L641 146 C689 160 720 200 720 248 L720 353 C720 415 679 422 662 422 C653 422 643 420 632 417 L621 414 C571 399 542 362 542 311 L542 207 C542 174 555 157 566 149 L567 149 Z M1008 669 L112 408 C103 405 98 395 101 386 C103 379 110 374 117 374 L122 374 L1018 635 C1027 638 1032 648 1029 657 C1027 666 1017 671 1008 669 L1008 669 Z M1008 152 L112 -109 C103 -112 98 -121 101 -131 C103 -138 110 -143 117 -143 C119 -143 121 -143 122 -142 L1018 119 C1027 121 1032 131 1029 140 C1027 149 1017 155 1008 152 L1008 152 Z M505 250 L505 304 C505 338 485 358 453 358 C443 358 433 356 427 354 L375 339 C366 336 360 328 360 319 L360 92 C360 81 369 72 379 72 C381 72 383 72 385 73 C394 76 400 84 400 93 L400 153 L430 161 L459 110 C463 103 472 99 481 101 L482 102 C484 102 487 104 489 106 C497 114 497 124 493 131 L467 177 C473 180 477 184 481 188 C497 204 505 224 505 250 L505 250 Z M934 234 C936 234 938 235 940 235 C949 238 955 246 955 255 L955 483 C955 492 948 499 939 501 C938 502 937 502 935 502 C928 502 922 498 918 492 L853 395 L790 451 L782 455 L777 455 C773 455 769 454 766 452 C760 448 756 442 756 435 L756 207 C756 202 758 198 761 194 C765 190 770 188 775 188 C777 188 779 188 781 189 C790 192 796 199 796 209 L796 391 L843 349 C843 349 844 349 844 348 C847 346 851 345 856 345 L861 345 C865 347 869 349 872 353 L873 354 L915 417 L915 253 C915 243 923 234 934 234 L934 234 Z M309 279 C318 281 325 290 325 299 C325 309 316 318 305 318 C303 318 301 318 300 317 L202 289 C193 286 187 278 187 269 L187 41 C187 31 195 22 206 22 C208 22 210 22 212 23 C221 26 227 34 227 43 L227 143 L292 162 C301 165 307 173 307 182 C307 193 299 202 288 202 C286 202 284 202 282 201 L227 185 L227 255 L309 279 Z M680 351 L680 247 C680 232 675 218 667 208 C658 197 646 189 632 185 L621 182 C614 180 608 179 603 179 C598 179 594 180 590 182 C583 187 582 199 582 208 L582 313 C582 345 598 366 631 375 L641 378 C649 380 655 381 661 381 C668 381 680 381 680 351 L680 351 Z M400 194 L400 305 L437 316 C443 318 448 318 452 318 C458 318 465 318 465 302 L465 249 C465 219 449 208 423 200 L400 194 Z " />
<glyph glyph-name="p" unicode="p" horiz-adv-x="943" d="M637 175 L706 195 C763 212 789 255 789 289 L789 397 C789 418 784 466 730 466 C720 466 708 464 695 461 L627 441 C618 438 612 430 612 421 L612 193 C612 182 621 174 631 174 C633 174 635 174 637 175 L637 175 Z M436 117 C445 119 451 127 451 136 L451 290 L529 158 C533 152 539 149 546 149 L551 149 L552 150 C555 150 557 151 558 153 C564 157 567 163 567 170 L567 398 C567 409 558 417 548 417 C546 417 544 417 542 416 C533 414 527 405 527 396 L527 242 L449 373 C446 379 439 383 432 383 C429 383 426 382 423 381 C416 377 411 370 411 362 L411 135 C411 129 414 124 418 120 C422 117 426 116 430 116 C432 116 434 116 436 117 L436 117 Z M820 126 L112 -81 C103 -83 98 -93 101 -102 C103 -110 110 -115 117 -115 C119 -115 121 -115 122 -114 L830 92 C839 95 844 105 842 114 C839 123 829 128 820 126 L820 126 Z M820 642 L112 436 C103 433 98 424 101 414 C103 407 110 402 117 402 C119 402 121 402 122 403 L830 609 C839 612 844 621 842 631 C839 640 829 645 820 642 L820 642 Z M203 50 L204 50 C213 50 221 56 223 65 L224 65 L240 125 L310 146 L324 103 C327 95 334 90 342 90 C344 90 346 90 348 91 L349 91 L353 93 C361 98 365 108 362 117 L294 323 C291 332 283 337 274 337 C272 337 270 337 268 336 C259 334 253 327 251 318 L185 74 C184 69 185 63 188 58 C191 53 197 50 203 50 L203 50 Z M696 233 L652 220 L652 407 L705 422 C714 425 722 426 728 426 C737 426 749 426 749 396 L749 287 C749 278 745 267 737 258 C728 247 713 238 696 233 L696 233 Z M252 170 L274 254 L298 183 L252 170 Z " />
<glyph glyph-name="q" unicode="q" horiz-adv-x="943" d="M820 126 L112 -81 C103 -83 98 -93 101 -102 C103 -110 110 -115 117 -115 C119 -115 121 -115 122 -114 L830 92 C839 95 844 105 842 114 C839 123 829 128 820 126 L820 126 Z M820 642 L112 436 C103 433 98 424 101 414 C103 407 110 402 117 402 C119 402 121 402 122 403 L830 609 C839 612 844 621 842 631 C839 640 829 645 820 642 L820 642 Z M399 374 C397 374 395 373 393 373 C385 370 378 362 378 353 L378 126 C378 115 387 106 397 106 C399 106 401 107 403 107 C412 110 418 118 418 127 L418 227 L503 252 L503 162 C503 156 505 152 507 150 C511 144 520 141 528 143 C536 146 542 154 542 163 L542 391 C542 401 534 410 523 410 C521 410 520 410 518 409 C509 407 503 398 503 389 L503 294 L418 269 L418 354 C418 365 410 374 399 374 L399 374 Z M709 423 C718 426 724 434 724 444 C724 454 715 463 705 463 C703 463 701 463 699 462 L602 434 C593 431 586 423 586 413 L586 186 C586 175 595 167 605 167 C607 167 609 167 611 168 L709 196 C718 199 724 207 724 216 C724 227 716 235 705 235 L699 235 L626 213 L626 288 L691 307 C700 310 707 318 707 327 C707 338 698 347 687 347 C685 347 683 346 682 346 L626 330 L626 399 L709 423 Z M243 73 C246 68 252 65 258 65 C260 65 261 66 263 66 C273 69 278 77 278 86 L278 298 L326 311 C335 314 341 322 341 331 C341 342 332 351 321 351 C320 351 318 350 316 350 L253 331 C188 313 186 312 182 309 C175 304 172 293 176 285 C179 276 189 271 199 274 C200 274 200 275 201 275 L239 286 L239 85 C239 81 240 76 243 73 L243 73 Z " />
<glyph glyph-name="r" unicode="r" horiz-adv-x="727" d="M293 365 C289 367 284 367 279 367 C268 367 258 365 249 362 L195 346 C186 344 180 335 180 326 L180 99 C180 88 188 80 199 80 C201 80 203 80 205 81 L254 95 C257 95 259 96 262 97 C287 104 305 116 319 133 C332 150 340 173 340 199 C340 234 331 257 314 269 C321 282 325 297 325 315 C325 350 305 362 293 365 L293 365 Z M499 394 C507 396 514 405 514 414 C514 424 505 433 494 433 C492 433 491 433 489 432 L391 404 C382 401 376 393 376 384 L376 156 C376 145 384 137 395 137 C397 137 399 137 401 138 L499 166 C508 169 514 177 514 186 C514 197 505 206 495 206 C493 206 491 205 489 205 L416 183 L416 258 L481 277 C490 280 496 288 496 297 C496 308 488 317 477 317 C475 317 473 316 471 316 L416 300 L416 369 L499 394 Z M604 94 L112 -49 C103 -52 98 -62 101 -71 C103 -78 110 -83 117 -83 L122 -83 L614 61 C623 63 628 73 626 82 C623 92 613 97 604 94 L604 94 Z M604 611 L112 467 C103 465 98 455 101 446 C103 438 110 433 117 433 C119 433 121 434 122 434 L614 578 C623 580 628 590 626 599 C623 608 613 614 604 611 L604 611 Z M220 221 L267 235 C272 236 279 238 284 238 C286 238 288 238 290 237 C291 236 299 230 299 197 C299 181 295 167 288 157 C275 141 254 136 246 134 L245 134 L220 126 L220 221 Z M276 284 C274 282 269 276 248 270 L220 262 L220 312 L259 324 C267 326 273 327 277 327 C282 327 284 327 284 313 C284 295 280 288 276 284 L276 284 Z " />
<glyph glyph-name="s" unicode="s" horiz-adv-x="727" d="M199 101 C208 95 220 91 233 91 C242 91 252 93 262 96 L273 99 C321 113 352 153 352 201 L352 305 C352 367 311 374 294 374 C285 374 274 372 264 369 L253 366 C203 352 174 314 174 264 L174 159 C174 126 187 110 198 101 L199 101 Z M413 141 C422 144 428 152 428 161 L428 315 L506 183 C510 177 516 173 523 173 C525 173 527 174 528 174 L529 174 C531 175 534 176 535 178 C541 182 544 188 544 194 L544 422 C544 433 535 442 524 442 C523 442 521 442 519 441 C510 438 504 430 504 421 L504 267 L426 398 C423 404 416 408 409 408 C406 408 403 407 400 406 C393 402 388 395 388 387 L388 160 C388 154 391 148 395 145 C399 142 403 141 407 141 L413 141 Z M604 94 L112 -49 C103 -52 98 -62 101 -71 C103 -78 110 -83 117 -83 L122 -83 L614 61 C623 63 628 73 626 82 C623 92 613 97 604 94 L604 94 Z M604 611 L112 467 C103 465 98 455 101 446 C103 438 110 433 117 433 C119 433 121 434 122 434 L614 578 C623 580 628 590 626 599 C623 608 613 614 604 611 L604 611 Z M312 304 L312 199 C312 184 307 171 298 160 C290 149 278 142 264 138 L253 134 C246 132 240 131 234 131 C229 131 225 132 222 135 C215 140 214 151 214 161 L214 265 C214 297 230 318 262 327 L273 331 C281 333 287 334 292 334 C300 334 312 334 312 304 L312 304 Z " />
<glyph glyph-name="t" unicode="t" horiz-adv-x="727" d="M293 365 C289 367 284 367 279 367 C268 367 258 365 249 362 L195 346 C186 344 180 335 180 326 L180 99 C180 88 188 80 199 80 C201 80 203 80 205 81 L254 95 C257 95 259 96 262 97 C287 104 305 116 319 133 C332 150 340 173 340 199 C340 234 331 257 314 269 C321 282 325 297 325 315 C325 350 305 362 293 365 L293 365 Z M604 94 L112 -49 C103 -52 98 -62 101 -71 C103 -78 110 -83 117 -83 L122 -83 L614 61 C623 63 628 73 626 82 C623 92 613 97 604 94 L604 94 Z M604 611 L112 467 C103 465 98 455 101 446 C103 438 110 433 117 433 C119 433 121 434 122 434 L614 578 C623 580 628 590 626 599 C623 608 613 614 604 611 L604 611 Z M456 154 C458 154 460 155 461 155 C470 158 476 166 476 175 L476 288 L527 410 C528 410 528 411 528 411 C530 417 529 424 525 429 C522 434 517 437 511 437 C502 437 494 432 491 423 L454 336 L420 395 C417 402 410 406 403 406 C399 406 396 405 392 403 L389 400 C383 394 381 386 384 378 C384 377 384 376 385 375 L437 286 L437 174 C437 163 445 154 456 154 L456 154 Z M220 221 L267 235 C272 236 279 238 284 238 C286 238 288 238 290 237 C291 236 299 230 299 197 C299 181 295 167 288 157 C275 141 254 136 246 134 L245 134 L220 126 L220 221 Z M276 284 C274 282 269 276 248 270 L220 262 L220 312 L259 324 C267 326 273 327 277 327 C282 327 284 327 284 313 C284 295 280 288 276 284 L276 284 Z " />
<glyph glyph-name="u" unicode="u" horiz-adv-x="727" d="M380 154 C389 147 401 144 414 144 C423 144 433 145 443 148 L454 152 C502 166 533 206 533 254 L533 358 C533 420 492 427 475 427 C466 427 455 425 445 422 L434 419 C384 404 355 367 355 316 L355 212 C355 179 368 162 379 154 L380 154 Z M604 94 L112 -49 C103 -52 98 -62 101 -71 C103 -78 110 -83 117 -83 L122 -83 L614 61 C623 63 628 73 626 82 C623 92 613 97 604 94 L604 94 Z M604 611 L112 467 C103 465 98 455 101 446 C103 438 110 433 117 433 C119 433 121 434 122 434 L614 578 C623 580 628 590 626 599 C623 608 613 614 604 611 L604 611 Z M493 357 L493 252 C493 237 488 224 479 213 C471 202 459 195 445 190 L434 187 C420 183 409 183 403 187 C396 192 395 204 395 213 L395 318 C395 350 411 371 443 380 L454 383 C462 385 468 387 473 387 C481 387 493 387 493 357 L493 357 Z M243 104 C246 100 252 97 258 97 C260 97 261 97 263 98 C273 100 278 108 278 118 L278 329 C297 334 314 339 326 343 C335 345 341 354 341 363 C341 374 332 382 321 382 C320 382 318 382 316 381 L253 363 C188 344 186 343 182 341 C175 335 172 325 176 317 C179 308 189 303 199 306 L201 306 C204 308 221 312 239 318 L239 116 C239 112 240 108 243 104 L243 104 Z " />
<glyph glyph-name="v" unicode="v" horiz-adv-x="727" d="M199 101 C208 95 220 91 233 91 C242 91 252 93 262 96 L273 99 C321 113 352 153 352 201 L352 305 C352 367 311 374 294 374 C285 374 274 372 264 369 L253 366 C203 352 174 314 174 264 L174 159 C174 126 187 110 198 101 L199 101 Z M604 94 L112 -49 C103 -52 98 -62 101 -71 C103 -78 110 -83 117 -83 L122 -83 L614 61 C623 63 628 73 626 82 C623 92 613 97 604 94 L604 94 Z M604 611 L112 467 C103 465 98 455 101 446 C103 438 110 433 117 433 C119 433 121 434 122 434 L614 578 C623 580 628 590 626 599 C623 608 613 614 604 611 L604 611 Z M510 397 C519 399 525 408 525 417 C525 428 516 436 506 436 L500 436 L403 407 C394 405 388 396 388 387 L388 159 C388 149 396 140 407 140 C409 140 411 141 413 141 C422 144 428 152 428 161 L428 262 L493 281 C502 283 508 291 508 301 C508 312 499 320 489 320 C487 320 485 320 483 319 L428 303 L428 373 L510 397 Z M312 304 L312 199 C312 184 307 171 298 160 C290 150 278 142 264 138 L253 134 C246 132 240 131 234 131 C229 131 225 132 222 135 C215 140 214 151 214 161 L214 265 C214 297 230 318 262 327 L273 331 C281 333 287 334 292 334 C300 334 312 334 312 304 L312 304 Z " />
<glyph glyph-name="w" unicode="w" horiz-adv-x="1051" d="M512 392 L588 390 C614 389 639 388 663 388 C687 387 710 388 732 388 C743 388 754 389 764 389 C774 390 784 390 794 390 L847 393 L887 396 C889 396 890 396 892 397 C895 384 907 374 921 374 C937 374 951 388 951 404 C951 421 937 434 921 434 C907 434 895 425 892 412 C890 412 889 412 887 413 C876 413 862 414 847 416 C831 416 813 418 794 418 L764 420 L732 420 C710 421 687 421 663 421 L588 419 C563 418 538 417 512 417 L435 415 C410 415 385 414 361 413 C337 413 314 412 292 412 C270 411 249 410 230 410 L177 408 C162 408 148 408 137 407 C114 406 101 406 101 406 C101 406 100 405 100 404 L101 403 C101 403 114 402 137 402 L177 400 C193 400 211 399 230 399 L292 397 L361 395 C385 395 410 394 435 393 C461 393 486 392 512 392 L512 392 Z M374 308 C374 308 382 307 397 307 L425 305 C435 305 447 304 460 304 L547 300 C563 300 580 299 597 299 L648 297 C665 297 682 296 699 295 C716 295 733 294 749 293 L795 293 L837 295 L872 298 C879 298 886 299 892 300 C897 288 908 279 921 279 C937 279 951 293 951 309 C951 326 937 339 921 339 C908 339 897 331 892 319 C886 320 879 321 872 321 L837 324 L795 326 L749 326 C733 325 716 324 699 324 C682 323 665 322 648 322 L597 320 C580 320 563 319 547 318 L460 315 L425 313 C414 313 405 313 397 312 C382 311 374 311 374 311 C373 311 372 310 372 310 C372 309 373 308 374 308 L374 308 Z M526 213 C526 213 532 213 543 212 L588 209 L651 206 C663 205 675 204 687 204 L724 202 C737 202 749 201 761 201 L797 198 L830 198 C841 198 851 199 860 200 C870 200 878 201 886 202 C888 202 891 202 893 203 C898 192 908 185 921 185 C937 185 951 198 951 215 C951 231 937 245 921 245 C908 245 898 237 893 226 C891 227 888 227 886 227 L860 230 C851 230 841 231 830 231 L797 231 L761 228 C749 228 737 227 724 227 L687 225 C675 225 663 224 651 223 L588 220 L543 217 C532 217 526 216 526 216 C525 216 525 215 525 215 C525 214 525 213 526 213 L526 213 Z " />
<glyph glyph-name="x" unicode="x" horiz-adv-x="1051" d="M759 397 L821 399 C840 399 858 400 874 400 L914 402 C936 402 949 403 949 403 C950 403 951 403 951 404 C951 405 950 406 949 406 C949 406 936 406 914 407 C903 408 889 408 874 408 L821 410 C802 410 781 411 759 412 C737 412 714 413 690 413 C666 414 641 415 615 415 L539 417 C513 417 488 418 462 419 L388 421 C364 421 341 421 319 420 L287 420 L257 418 C237 418 220 416 204 416 C189 414 175 413 164 413 C162 412 160 412 159 412 C155 425 144 434 130 434 C113 434 100 421 100 404 C100 388 113 374 130 374 C144 374 155 384 159 397 C160 396 162 396 164 396 L204 393 L257 390 C266 390 276 390 287 389 C297 389 308 388 319 388 C341 388 364 387 388 388 C412 388 437 389 462 390 L539 392 C565 392 590 393 615 393 C641 394 666 395 690 395 L759 397 Z M626 305 L653 307 C668 307 677 308 677 308 C678 308 678 309 678 309 C678 310 678 311 677 311 C677 311 668 311 653 312 C646 313 637 313 626 313 L591 315 L503 318 C487 319 471 320 454 320 L403 322 C386 322 368 323 352 324 C335 324 318 325 302 326 L256 326 L214 324 L179 321 C171 321 164 320 158 319 C154 331 143 339 130 339 C113 339 100 326 100 309 C100 293 113 279 130 279 C143 279 154 288 158 300 C164 299 171 298 179 298 L214 295 L256 293 L302 293 C318 294 335 295 352 295 C368 296 386 297 403 297 L454 299 C471 299 487 300 503 300 L591 304 C604 304 616 305 626 305 L626 305 Z M508 217 L463 220 L399 223 C388 224 376 225 363 225 L327 227 C314 227 302 228 290 228 L254 231 L220 231 C210 231 200 230 190 230 L165 227 C162 227 160 227 158 226 C153 237 142 245 130 245 C113 245 100 231 100 215 C100 198 113 185 130 185 C142 185 153 192 158 203 C160 202 162 202 165 202 C173 201 181 200 190 200 C200 199 210 198 220 198 L254 198 L290 201 C302 201 314 202 327 202 L363 204 C376 204 388 205 399 206 L463 209 L508 212 C518 213 525 213 525 213 L526 214 C526 215 525 216 525 216 C525 216 518 217 508 217 L508 217 Z " />
<glyph glyph-name="y" unicode="y" horiz-adv-x="1049" d="M218 420 C216 421 213 421 211 421 C209 421 206 420 204 420 L178 417 L136 410 C125 409 116 407 109 406 C103 405 100 404 100 404 C100 404 103 404 109 403 L136 398 L178 392 L204 389 C206 388 209 388 211 388 L845 388 C854 390 863 391 871 392 L913 398 L940 403 C943 403 945 404 947 404 L947 405 C945 405 943 406 940 406 L913 411 C901 412 887 415 871 417 L845 420 C841 421 836 421 831 420 L218 420 Z M924 316 L896 322 L879 325 C875 326 872 326 869 326 C866 325 862 325 859 325 L463 325 C459 325 456 325 453 326 L448 326 C446 326 445 325 443 325 L426 322 C415 319 405 317 397 316 L379 311 C375 310 372 309 372 309 C372 309 375 309 379 308 L397 303 C405 302 415 299 426 297 L443 294 C445 293 446 293 448 293 L453 293 C456 294 459 293 463 293 L859 293 C862 293 866 294 869 293 C872 293 875 293 879 294 L896 297 L924 303 C940 307 949 309 949 309 C949 309 940 312 924 316 L924 316 Z M897 230 C895 231 893 231 890 231 C888 230 885 231 883 231 L591 231 C588 231 586 230 584 231 L580 231 C579 231 578 231 577 230 L564 227 C556 225 549 222 543 221 L529 216 C526 215 525 215 525 215 C525 215 526 214 529 213 L543 208 C549 207 556 205 564 202 L577 199 C578 199 579 198 580 198 L584 198 C586 199 588 199 591 199 L883 199 C885 199 888 199 890 198 C893 198 895 198 897 199 L910 202 L931 208 C943 212 949 215 949 215 L931 221 L910 227 L897 230 Z " />
<glyph glyph-name="z" unicode="z" horiz-adv-x="1049" d="M913 410 L871 417 L845 420 C843 420 841 421 838 421 C836 421 834 421 831 420 L218 420 C213 421 209 421 204 420 L178 417 C162 415 148 412 136 411 L109 406 C106 406 104 405 102 405 C101 404 101 404 100 404 L102 404 C104 404 106 403 109 403 L136 398 L178 392 C186 391 195 390 204 388 L838 388 C841 388 843 388 845 389 L871 392 L913 398 L940 403 C946 404 949 404 949 404 C949 404 946 405 940 406 C933 407 924 409 913 410 L913 410 Z M153 297 L171 294 C174 293 177 293 180 293 C183 294 187 293 190 293 L587 293 C590 293 593 294 597 293 L601 293 C603 293 605 293 606 294 L624 297 C635 299 644 302 652 303 L670 308 C675 309 677 309 677 309 C677 309 675 310 670 311 L652 316 C644 317 635 319 624 322 L606 325 C605 325 603 326 601 326 L597 326 C593 325 590 325 587 325 L190 325 C187 325 183 325 180 326 C177 326 174 326 171 325 L153 322 L125 316 C109 312 100 309 100 309 C100 309 109 307 125 303 L153 297 Z M139 202 L152 199 C154 198 157 198 159 198 C161 199 164 199 166 199 L458 199 C461 199 463 199 466 198 L469 198 C470 198 471 199 473 199 L485 202 C493 205 501 207 506 208 L520 213 C523 214 525 215 525 215 C525 215 523 215 520 216 L506 221 L485 227 L473 230 C471 231 470 231 469 231 L466 231 C463 230 461 231 458 231 L166 231 C164 231 161 230 159 231 C157 231 154 231 152 230 L139 227 L118 221 C107 217 100 215 100 215 C100 215 107 212 118 208 L139 202 Z " />
<glyph glyph-name="braceleft" unicode="&#x7b;" horiz-adv-x="1069" d="M960 414 L951 415 C949 415 946 416 944 416 C938 416 931 417 924 417 C895 420 861 422 827 424 L763 426 C736 427 713 428 691 428 C679 429 666 429 654 429 L653 429 C641 429 628 430 614 430 L438 430 L409 429 C399 429 388 429 378 428 C356 428 333 427 307 426 C285 426 263 425 242 424 C222 423 204 422 188 420 L146 417 C138 417 131 416 125 416 C123 416 121 415 119 415 L109 414 C104 414 100 409 100 404 C100 399 104 395 109 394 L119 393 L125 393 L146 391 L188 388 L242 385 L307 382 L378 380 L409 380 L455 379 C477 379 500 378 522 378 L544 378 C567 378 591 379 614 379 L654 379 C666 380 679 380 691 380 L763 382 L827 385 L923 391 L944 393 L951 393 L960 394 C965 395 969 399 969 404 C969 409 965 414 960 414 L960 414 Z M961 319 L954 320 C953 320 951 321 949 321 C946 321 941 322 936 323 L870 329 C855 330 841 331 826 331 L777 334 L751 334 C743 335 734 335 725 335 L603 335 L585 334 L565 334 L516 331 C501 331 486 330 472 329 L435 326 L406 323 C401 322 396 321 392 321 C390 321 389 320 387 320 L381 319 C376 319 372 314 372 309 C372 304 376 300 381 300 L388 299 C389 298 390 298 392 298 C396 298 401 297 406 296 L435 293 L472 290 L516 287 C533 287 549 286 564 285 L585 285 L604 284 L662 284 L671 283 L677 284 L725 284 C734 284 743 284 751 285 L777 285 C792 286 808 287 826 287 L870 290 L936 296 C941 297 946 298 949 298 C951 298 953 298 954 299 L961 300 C966 300 969 304 969 309 C969 314 966 319 961 319 L961 319 Z M962 224 C961 224 954 226 943 228 L894 234 C883 235 872 236 861 236 L825 239 L806 239 C801 240 794 240 787 240 L697 240 L684 239 L668 239 C657 238 646 237 632 237 L600 234 L572 231 L551 228 C542 226 533 224 531 224 C527 223 524 219 525 214 C525 209 528 206 533 205 C533 205 540 203 551 201 C557 201 564 199 573 198 L600 195 C610 194 621 193 632 193 L668 190 L684 190 L697 189 L787 189 C794 189 801 189 806 190 L825 190 L861 193 C872 193 883 194 894 195 L943 201 C954 203 961 205 961 205 C966 206 969 210 969 214 C969 219 966 223 962 224 L962 224 Z " />
<glyph glyph-name="bar" unicode="&#x7c;" horiz-adv-x="1821" d="M1704 414 L1688 415 C1684 415 1678 416 1675 416 C1663 416 1650 417 1637 417 C1583 420 1520 422 1456 424 L1337 426 C1287 427 1244 428 1203 428 C1180 429 1156 429 1134 429 L1132 429 C1109 429 1085 430 1059 430 L731 430 L676 429 C658 429 637 429 619 428 C578 428 535 427 486 426 C445 426 404 425 365 424 C328 423 294 422 264 420 L186 417 C171 417 158 416 147 416 C143 416 139 415 135 415 L117 414 C107 414 100 409 100 404 C100 399 107 395 117 394 L135 393 L147 393 L186 391 L264 388 L365 385 L486 382 L619 380 L676 380 L762 379 C803 379 846 378 887 378 L928 378 C971 378 1016 379 1059 379 L1134 379 C1156 380 1180 380 1203 380 L1337 382 L1456 385 L1635 391 L1675 393 L1688 393 L1704 394 C1714 395 1721 399 1721 404 C1721 409 1714 414 1704 414 L1704 414 Z M1453 319 L1439 320 C1438 320 1434 321 1430 321 C1425 321 1415 322 1406 323 L1283 329 C1255 330 1229 331 1201 331 L1109 334 L1061 334 C1046 335 1029 335 1012 335 L785 335 L751 334 L714 334 L622 331 C594 331 566 330 540 329 L471 326 L417 323 C408 322 398 321 391 321 C387 321 385 320 382 320 L371 319 C361 319 354 314 354 309 C354 304 361 300 371 300 L384 299 C385 298 387 298 391 298 C398 298 408 297 417 296 L471 293 L540 290 L622 287 C654 287 684 286 712 285 L751 285 L787 284 L895 284 L912 283 L923 284 L1012 284 C1029 284 1046 284 1061 285 L1109 285 C1137 286 1167 287 1201 287 L1283 290 L1406 296 C1415 297 1425 298 1430 298 C1434 298 1438 298 1439 299 L1453 300 C1462 300 1467 304 1467 309 C1467 314 1462 319 1453 319 L1453 319 Z M1205 224 C1204 224 1195 226 1179 228 L1112 234 C1097 235 1082 236 1067 236 L1018 239 L992 239 C985 240 975 240 966 240 L842 240 L824 239 L802 239 C787 238 772 237 753 237 L709 234 L671 231 L642 228 C630 226 617 224 615 224 C609 223 605 219 606 214 C606 209 610 206 617 205 C617 205 627 203 642 201 C650 201 660 199 672 198 L709 195 C723 194 738 193 753 193 L802 190 L824 190 L842 189 L966 189 C975 189 985 189 992 190 L1018 190 L1067 193 C1082 193 1097 194 1112 195 L1179 201 C1195 203 1204 205 1204 205 C1211 206 1215 210 1215 214 C1215 219 1211 223 1205 224 L1205 224 Z " />
<glyph glyph-name="braceright" unicode="&#x7d;" horiz-adv-x="1069" d="M960 414 L951 415 C949 415 946 416 944 416 C938 416 931 417 924 417 L881 420 C865 422 847 423 827 424 C806 425 784 426 763 426 C736 427 713 428 691 428 C681 429 671 429 661 429 L633 430 L455 430 C441 430 428 429 416 429 L415 429 C403 429 391 429 378 428 C357 428 333 427 307 426 L242 424 C208 422 174 420 146 417 C138 417 131 416 126 416 C123 416 121 415 119 415 L109 414 C104 414 100 409 100 404 C100 399 104 395 109 394 L119 393 L126 393 L146 391 L242 385 L307 382 L378 380 C391 380 403 380 415 379 L455 379 C478 379 502 378 525 378 L547 378 C569 378 592 379 614 379 L633 379 L660 380 L691 380 L763 382 L827 385 L881 388 L923 391 L944 393 L951 393 L960 394 C965 395 969 399 969 404 C969 409 965 414 960 414 L960 414 Z M688 319 L682 320 C680 320 679 321 677 321 C673 321 669 322 663 323 L635 326 L597 329 C583 330 568 331 554 331 L505 334 L484 334 L466 335 L344 335 C335 335 326 335 318 334 L292 334 L243 331 C229 331 214 330 199 329 L134 323 C128 322 124 321 120 321 C118 321 117 320 115 320 L109 319 C104 319 100 314 100 309 C100 304 104 300 109 300 L115 299 C117 298 118 298 120 298 C124 298 128 297 134 296 L199 290 L243 287 C261 287 277 286 292 285 L318 285 C326 284 335 284 344 284 L392 284 L398 283 L407 284 L466 284 L484 285 L505 285 C520 286 536 287 554 287 L597 290 L635 293 L663 296 C669 297 673 298 677 298 C679 298 680 298 682 299 L688 300 C693 300 697 304 697 309 C697 314 693 319 688 319 L688 319 Z M538 224 C536 224 527 226 518 228 L497 231 L469 234 L437 237 C424 237 412 238 401 239 L386 239 L372 240 L282 240 C276 240 269 240 263 239 L244 239 L208 236 C197 236 186 235 175 234 L127 228 C115 226 108 224 108 224 C103 223 100 219 100 214 C100 210 103 206 108 205 C108 205 115 203 127 201 L175 195 C186 194 197 193 208 193 L244 190 L263 190 C269 189 276 189 282 189 L372 189 L386 190 L401 190 L437 193 C448 193 459 194 469 195 L497 198 C505 199 512 201 518 201 L532 204 C537 205 545 206 545 215 C544 219 542 223 538 224 L538 224 Z " />
<glyph glyph-name="asciitilde" unicode="&#x7e;" horiz-adv-x="1842" d="M1330 392 C1356 392 1381 393 1407 393 C1432 394 1457 395 1481 395 L1550 397 L1612 399 C1631 399 1649 400 1665 400 L1705 402 C1728 402 1741 403 1741 403 L1742 404 C1742 405 1741 406 1741 406 C1741 406 1728 406 1705 407 C1694 408 1680 408 1665 408 L1612 410 C1593 410 1572 411 1550 412 C1528 412 1505 413 1481 413 C1457 414 1432 415 1407 415 L1330 417 C1304 417 1279 418 1254 419 L1179 421 C1155 421 1132 421 1110 420 L1078 420 L1048 418 C1029 418 1011 416 995 416 C980 414 966 413 955 413 C953 412 952 412 950 412 L949 413 C946 424 936 432 924 434 L921 434 C907 434 896 425 892 413 L892 412 C890 412 889 412 887 413 C876 413 862 414 847 416 C831 416 813 418 794 418 L764 420 L732 420 C710 421 687 421 663 421 L588 419 C563 418 538 417 512 417 L435 415 C410 415 385 414 361 413 C337 413 314 412 292 412 C270 411 249 410 230 410 L177 408 C162 408 148 408 137 407 C114 406 101 406 101 406 C101 406 100 405 100 404 L101 403 C101 403 114 402 137 402 L177 400 C193 400 211 399 230 399 L292 397 L361 395 C385 395 410 394 435 393 C461 393 486 392 512 392 L588 390 C614 389 639 388 663 388 C687 387 710 388 732 388 C743 388 754 389 764 389 C774 390 784 390 794 390 L847 393 L887 396 C889 396 890 396 892 397 C892 396 892 394 893 393 C896 385 903 378 912 375 C913 374 915 374 917 374 L924 374 C926 374 928 374 929 375 C938 377 946 385 949 393 C949 394 949 396 950 397 C952 396 953 396 955 396 L995 393 L1048 390 C1058 390 1068 390 1078 389 C1088 389 1099 388 1110 388 C1132 388 1155 387 1179 388 C1203 388 1228 389 1254 390 L1330 392 Z M1468 308 C1469 308 1470 309 1470 310 C1470 310 1469 311 1468 311 C1468 311 1460 311 1445 312 C1437 313 1428 313 1417 313 L1382 315 L1295 318 C1279 319 1262 320 1245 320 L1194 322 C1177 322 1160 323 1143 324 C1126 324 1109 325 1093 326 L1047 326 L1005 324 L970 321 C963 321 956 320 950 319 C945 331 934 339 921 339 C908 339 897 331 892 319 C886 320 879 321 872 321 L837 324 L795 326 L749 326 C733 325 716 324 699 324 C682 323 665 322 648 322 L597 320 C580 320 563 319 547 318 L460 315 L425 313 C414 313 405 313 397 312 C382 311 374 311 374 311 C373 311 372 310 372 310 C372 309 373 308 374 308 C374 308 382 307 397 307 L425 305 C435 305 447 304 460 304 L547 300 C563 300 580 299 597 299 L648 297 C665 297 682 296 699 295 C716 295 733 294 749 293 L795 293 L837 295 L872 298 C879 298 886 299 892 300 C893 296 895 293 897 290 L905 283 L911 280 C914 279 918 279 921 279 L924 279 C930 279 935 282 940 286 C944 289 947 294 950 300 C956 299 963 298 970 298 L1005 295 L1047 293 L1093 293 C1109 294 1126 295 1143 295 C1160 296 1177 297 1194 297 L1245 299 C1262 299 1279 300 1295 300 L1382 304 C1395 304 1407 305 1417 305 L1445 307 C1460 307 1468 308 1468 308 L1468 308 Z M1316 213 C1317 213 1317 214 1317 215 C1317 215 1317 216 1316 216 C1316 216 1310 217 1299 217 L1254 220 L1191 223 C1179 224 1167 225 1155 225 L1118 227 C1105 227 1093 228 1081 228 L1045 231 L1012 231 C1001 231 991 230 982 230 L956 227 C954 227 951 227 949 226 C945 234 938 241 929 244 C926 245 924 245 921 245 L917 245 C916 245 914 244 913 244 C904 241 897 234 893 226 C891 227 888 227 886 227 L860 230 C851 230 841 231 830 231 L797 231 L761 228 C749 228 737 227 724 227 L687 225 C675 225 663 224 651 223 L588 220 L543 217 C532 217 526 216 526 216 C525 216 525 215 525 215 C525 214 525 213 526 213 C526 213 532 213 543 212 L588 209 L651 206 C663 205 675 204 687 204 L724 202 C737 202 749 201 761 201 L797 198 L830 198 C841 198 851 199 860 200 C870 200 878 201 886 202 C888 202 891 202 893 203 C897 193 906 186 917 185 L924 185 C936 186 944 193 949 203 C951 202 954 202 956 202 C964 201 972 200 982 200 C991 199 1001 198 1012 198 L1045 198 L1081 201 C1093 201 1105 202 1118 202 L1155 204 C1167 204 1179 205 1191 206 L1254 209 L1299 212 C1310 213 1316 213 1316 213 L1316 213 Z " />
<glyph glyph-name="zcaron" unicode="&#x17e;" horiz-adv-x="1049" d="M913 410 L871 417 L845 420 C843 420 841 421 838 421 C836 421 834 421 831 420 L218 420 C213 421 209 421 204 420 L178 417 C162 415 148 412 136 411 L109 406 C106 406 104 405 102 405 C101 404 101 404 100 404 L102 404 C104 404 106 403 109 403 L136 398 L178 392 C186 391 195 390 204 388 L838 388 C841 388 843 388 845 389 L871 392 L913 398 L940 403 C946 404 949 404 949 404 C949 404 946 405 940 406 C933 407 924 409 913 410 L913 410 Z M153 297 L171 294 C174 293 177 293 180 293 C183 294 187 293 190 293 L587 293 C590 293 593 294 597 293 L601 293 C603 293 605 293 606 294 L624 297 C635 299 644 302 652 303 L670 308 C675 309 677 309 677 309 C677 309 675 310 670 311 L652 316 C644 317 635 319 624 322 L606 325 C605 325 603 326 601 326 L597 326 C593 325 590 325 587 325 L190 325 C187 325 183 325 180 326 C177 326 174 326 171 325 L153 322 L125 316 C109 312 100 309 100 309 C100 309 109 307 125 303 L153 297 Z M139 202 L152 199 C154 198 157 198 159 198 C161 199 164 199 166 199 L458 199 C461 199 463 199 466 198 L469 198 C470 198 471 199 473 199 L485 202 C493 205 501 207 506 208 L520 213 C523 214 525 215 525 215 C525 215 523 215 520 216 L506 221 L485 227 L473 230 C471 231 470 231 469 231 L466 231 C463 230 461 231 458 231 L166 231 C164 231 161 230 159 231 C157 231 154 231 152 230 L139 227 L118 221 C107 217 100 215 100 215 C100 215 107 212 118 208 L139 202 Z " />
<glyph glyph-name="quoteleft" unicode="&#x2018;" horiz-adv-x="1049" d="M949 344 L886 344 C886 335 880 324 873 318 C866 311 857 310 848 310 L848 312 L840 312 C835 313 828 313 819 313 C809 313 798 314 785 314 L741 316 C726 316 708 317 690 317 C672 317 652 318 632 318 C612 318 592 319 571 319 L382 319 C362 318 342 318 324 318 C306 318 288 317 272 317 C256 316 242 316 229 316 C222 315 216 315 210 315 L195 315 C190 314 185 314 181 314 L197 350 L100 310 L196 269 L181 305 L195 305 C199 305 205 304 210 304 C216 304 222 304 228 303 C241 303 256 302 272 302 L324 300 C342 300 361 299 381 299 C401 299 422 298 443 298 L475 298 C485 297 496 297 507 297 L632 297 C652 297 671 298 690 298 C708 298 725 298 741 299 C757 299 772 299 785 300 C798 300 809 300 819 301 L840 301 C845 302 848 302 848 302 L848 303 C856 303 865 302 871 298 C879 292 885 279 886 269 L949 269 C948 285 938 301 922 306 C938 313 947 327 949 344 L949 344 Z " />
<glyph glyph-name="quoteright" unicode="&#x2019;" horiz-adv-x="1049" d="M949 344 L886 344 C886 335 880 324 873 318 C866 311 857 310 848 310 L848 312 L840 312 C835 313 828 313 819 313 C809 313 798 314 785 314 L741 316 C726 316 708 317 690 317 C672 317 652 318 632 318 C612 318 592 319 571 319 L382 319 C362 318 342 318 324 318 C306 318 288 317 272 317 C256 316 242 316 229 316 C222 315 216 315 210 315 L195 315 C190 314 185 314 181 314 L197 350 L100 310 L196 269 L181 305 L195 305 C199 305 205 304 210 304 C216 304 222 304 228 303 C241 303 256 302 272 302 L324 300 C342 300 361 299 381 299 C401 299 422 298 443 298 L475 298 C485 297 496 297 507 297 L632 297 C652 297 671 298 690 298 C708 298 725 298 741 299 C757 299 772 299 785 300 C798 300 809 300 819 301 L840 301 C845 302 848 302 848 302 L848 303 C856 303 865 302 871 298 C879 292 885 279 886 269 L949 269 C948 285 938 301 922 306 C938 313 947 327 949 344 L949 344 Z " />
<glyph glyph-name="quotedblleft" unicode="&#x201c;" horiz-adv-x="1086" d="M985 363 C984 364 983 365 981 365 L969 365 C968 365 966 364 965 363 L940 319 L925 319 L948 359 C949 360 949 362 948 363 C947 364 946 365 944 365 L932 365 C931 365 929 364 928 363 L903 319 L890 319 L913 359 C914 360 914 362 913 363 C912 364 911 365 909 365 L897 365 C896 365 894 364 894 363 L868 319 L180 319 C194 331 207 346 218 363 C219 364 219 365 218 367 C218 368 216 369 215 369 L201 369 C200 369 198 368 198 367 C186 347 167 329 141 313 C140 312 139 311 139 310 C139 308 140 307 141 306 C164 292 184 273 197 252 C198 251 199 250 200 250 L214 250 C216 250 217 251 218 252 L218 256 C206 273 194 288 180 300 L868 300 L893 256 C894 255 895 254 896 254 L909 254 C911 254 913 256 913 258 C913 259 913 260 912 260 L889 300 L903 300 L928 256 C929 255 930 254 931 254 L944 254 C945 254 947 255 947 256 C948 257 948 259 947 260 L924 300 L940 300 L965 256 C966 255 967 254 968 254 L981 254 C982 254 984 254 984 256 C985 257 985 258 984 260 L961 300 L977 300 C979 300 981 302 981 304 L981 315 C981 316 981 317 980 318 C979 318 978 319 977 319 L961 319 L985 359 C986 360 986 362 985 363 L985 363 Z M102 306 C125 292 145 273 158 252 C159 251 160 250 161 250 L175 250 C177 250 178 251 179 252 L179 256 C164 279 148 296 129 310 C148 324 166 342 179 363 C180 364 180 366 179 367 C179 368 177 369 176 369 L162 369 C161 369 159 368 159 367 C147 347 128 329 102 313 C101 312 100 311 100 310 C100 308 101 307 102 306 L102 306 Z " />
<glyph glyph-name="quotedblright" unicode="&#x201d;" horiz-adv-x="1086" d="M985 363 C984 364 983 365 981 365 L969 365 C968 365 966 364 965 363 L940 319 L925 319 L948 359 C949 360 949 362 948 363 C947 364 946 365 944 365 L932 365 C931 365 929 364 928 363 L903 319 L890 319 L913 359 C914 360 914 362 913 363 C912 364 911 365 909 365 L897 365 C896 365 894 364 894 363 L868 319 L180 319 C194 331 207 346 218 363 C219 364 219 365 218 367 C218 368 216 369 215 369 L201 369 C200 369 198 368 198 367 C186 347 167 329 141 313 C140 312 139 311 139 310 C139 308 140 307 141 306 C164 292 184 273 197 252 C198 251 199 250 200 250 L214 250 C216 250 217 251 218 252 L218 256 C206 273 194 288 180 300 L868 300 L893 256 C894 255 895 254 896 254 L909 254 C911 254 913 256 913 258 C913 259 913 260 912 260 L889 300 L903 300 L928 256 C929 255 930 254 931 254 L944 254 C945 254 947 255 947 256 C948 257 948 259 947 260 L924 300 L940 300 L965 256 C966 255 967 254 968 254 L981 254 C982 254 984 254 984 256 C985 257 985 258 984 260 L961 300 L977 300 C979 300 981 302 981 304 L981 315 C981 316 981 317 980 318 C979 318 978 319 977 319 L961 319 L985 359 C986 360 986 362 985 363 L985 363 Z M102 306 C125 292 145 273 158 252 C159 251 160 250 161 250 L175 250 C177 250 178 251 179 252 L179 256 C164 279 148 296 129 310 C148 324 166 342 179 363 C180 364 180 366 179 367 C179 368 177 369 176 369 L162 369 C161 369 159 368 159 367 C147 347 128 329 102 313 C101 312 100 311 100 310 C100 308 101 307 102 306 L102 306 Z " />
</font>
</svg>
