<?xml version="1.0" encoding="UTF-8"?>
<svg xmlns="http://www.w3.org/2000/svg" xmlns:xlink="http://www.w3.org/1999/xlink" version="1.2" >
<font id="Burford Extrude A">
<font-face  font-family="Burford" units-per-em="1000" ascent="730" descent="-270" font-style="normal" font-weight="400" font-stretch="normal" cap-height="900" x-height="450" underline-position="-75" underline-thickness="50" />
<missing-glyph  horiz-adv-x="427" d="" />
<glyph glyph-name="NULL" d="" />
<glyph glyph-name="CR" unicode="&#xd;" horiz-adv-x="299" d="" />
<glyph glyph-name="space" unicode="&#x20;" horiz-adv-x="299" d="" />
<glyph glyph-name="exclam" unicode="&#x21;" horiz-adv-x="382" d="M98 64 C98 44 105 27 118 13 L153 -22 C166 -35 183 -43 202 -43 C242 -43 274 -11 274 28 C274 47 266 65 253 78 L218 113 C214 117 209 120 205 123 L243 123 C247 123 251 125 251 129 L272 485 L272 486 C272 488 271 490 269 491 L235 526 C233 528 231 529 229 529 L98 529 C97 529 95 528 93 526 C92 525 91 523 91 522 L113 165 C113 163 114 161 115 160 L145 130 C117 121 98 94 98 64 L98 64 Z " />
<glyph glyph-name="quotedbl" unicode="&#x22;" horiz-adv-x="289" d="M160 546 C158 544 158 542 158 541 L158 539 L150 547 C149 548 148 549 145 549 L98 549 C97 549 95 548 93 546 C92 544 91 542 91 541 L101 470 C101 469 102 467 104 466 L139 431 C140 430 141 429 143 429 L172 429 C175 429 178 431 179 435 L181 455 L205 431 C206 430 208 429 210 429 L238 429 C242 429 244 431 245 435 L255 505 L255 506 C255 508 254 510 252 511 L218 547 C217 548 214 549 212 549 L165 549 C163 549 161 548 160 546 L160 546 Z " />
<glyph glyph-name="numbersign" unicode="&#x23;" horiz-adv-x="605" d="M261 -29 L277 68 L315 68 L305 9 C305 6 306 4 307 3 L308 3 L343 -33 C345 -34 346 -35 348 -35 L440 -35 C443 -35 446 -32 446 -29 L463 68 L512 68 C516 68 518 71 519 74 L534 166 C534 167 534 170 533 172 L532 172 L497 208 C495 209 493 209 491 209 L485 209 L499 287 L548 287 C551 287 554 290 555 294 L569 385 C570 387 569 389 568 390 L533 427 C531 427 529 428 527 428 L522 428 L531 484 C531 486 531 489 529 491 L493 525 C492 527 491 528 489 528 L397 528 C394 528 390 525 390 522 L374 428 L336 428 L346 484 C346 486 346 489 344 491 L308 526 C307 527 305 528 303 528 L212 528 C208 528 205 525 204 522 L189 428 L149 428 C146 428 142 426 142 423 L127 331 C127 329 127 327 129 325 L165 290 C165 289 166 289 166 288 L154 209 L114 209 C110 209 106 207 106 203 L91 112 C91 110 92 107 93 106 L94 106 L129 71 C129 70 130 70 131 69 L121 9 C121 6 121 4 123 3 L123 2 L158 -33 C159 -34 161 -35 163 -35 L254 -35 C257 -35 260 -32 261 -29 L261 -29 Z M300 209 L313 287 L351 287 L338 209 L300 209 Z " />
<glyph glyph-name="dollar" unicode="&#x24;" horiz-adv-x="532" d="M270 99 C264 100 258 102 252 104 C247 106 238 108 236 114 L239 136 C240 142 233 147 229 150 C209 169 207 174 202 177 C200 178 199 180 197 180 C195 180 193 179 192 178 L188 175 C180 169 174 163 166 158 L109 114 L102 107 C99 106 98 104 98 101 C98 98 101 93 103 89 C107 77 115 65 123 55 C153 20 192 -14 234 -30 C236 -30 235 -34 235 -37 L235 -45 C235 -48 234 -53 237 -56 C260 -79 262 -82 266 -84 C268 -87 272 -91 275 -91 L341 -91 C345 -91 347 -91 350 -90 C354 -87 353 -82 353 -77 L353 -43 C353 -40 354 -41 354 -40 L397 -30 C417 -22 436 -10 452 7 C468 23 480 45 486 66 C494 89 499 115 497 140 C496 162 488 184 474 204 C466 213 458 221 449 230 C441 238 432 248 423 256 C388 292 342 312 296 332 C254 351 252 351 250 353 C246 354 245 354 245 357 C245 376 265 387 280 391 C292 395 304 395 315 393 C321 392 327 390 332 389 C337 388 341 386 346 383 C346 383 345 380 345 380 C344 375 342 370 342 367 C342 364 343 362 346 360 C371 332 376 326 382 325 C385 324 388 324 389 326 L406 336 L465 376 L477 384 C482 387 480 391 478 395 L469 412 C464 423 457 433 448 443 C440 452 431 461 423 470 L395 497 C382 508 368 516 353 522 L353 541 C353 542 351 544 351 545 C345 553 325 572 320 577 C317 579 314 582 311 582 L242 582 C237 582 235 579 235 576 L235 533 C235 530 235 531 232 531 C184 522 163 508 145 495 C110 468 90 426 91 382 C91 358 99 336 111 316 C124 295 142 279 160 262 C177 245 196 231 218 218 C238 206 261 197 285 187 L331 166 C332 165 332 164 337 161 C338 156 339 153 339 150 C339 127 326 108 303 103 C292 98 281 99 270 99 L270 99 Z " />
<glyph glyph-name="percent" unicode="&#x25;" horiz-adv-x="823" d="M455 87 L461 102 C466 79 478 57 494 40 C503 30 512 21 522 12 C530 4 538 -5 547 -12 C585 -40 635 -50 679 -38 C721 -27 756 4 773 42 C792 82 794 130 773 169 C771 175 768 180 765 184 C763 187 761 190 758 192 C756 194 753 197 752 199 L727 225 C719 233 712 240 702 247 C685 260 664 269 644 275 C601 284 554 277 517 255 L522 269 L602 485 C605 491 598 498 594 501 C579 516 576 520 569 525 C568 528 565 531 560 531 L484 531 C478 531 466 534 464 526 L420 407 C416 416 412 425 407 433 C405 438 402 442 398 446 C397 447 396 448 394 450 C393 452 390 454 389 456 L363 483 C354 491 346 500 336 507 C316 520 294 528 271 533 C226 540 178 530 142 502 C108 474 91 432 93 389 C95 367 101 345 112 324 C123 303 142 286 159 269 C172 256 184 243 200 234 C217 225 234 218 252 216 C287 209 325 217 355 236 L322 146 L275 16 L268 -2 C268 -3 267 -4 267 -5 C288 -30 293 -33 295 -37 C299 -40 303 -47 308 -47 L388 -47 C392 -47 405 -48 407 -42 L455 87 Z M646 141 C646 128 639 115 628 107 C622 104 617 101 610 100 L599 100 C596 101 599 110 598 110 C599 122 605 132 615 138 C619 141 625 142 631 143 C634 144 636 144 639 144 L644 144 C646 144 646 143 646 141 L646 141 Z M236 358 L236 367 C237 378 243 388 252 393 C257 397 263 399 269 400 C272 401 275 401 277 401 C278 401 280 401 281 400 C284 400 284 400 284 397 C284 385 277 371 267 364 C261 361 256 358 250 356 C247 356 243 355 240 356 C238 356 236 355 236 358 L236 358 Z " />
<glyph glyph-name="ampersand" unicode="&#x26;" horiz-adv-x="655" d="M315 -44 C343 -44 370 -44 396 -36 C408 -32 420 -29 431 -22 C432 -22 433 -21 435 -20 C438 -18 438 -18 440 -20 C441 -22 443 -25 446 -27 C448 -30 453 -36 458 -36 L607 -36 C611 -36 619 -38 620 -31 L620 -30 C622 -26 618 -22 615 -19 C611 -14 607 -11 602 -7 C597 -1 591 4 585 10 L538 57 L524 70 C522 72 519 74 517 77 C516 78 517 79 517 81 L519 85 C523 98 527 109 530 121 C536 145 540 170 540 195 C541 218 541 243 541 268 L541 285 C541 289 541 296 538 300 C534 304 529 309 525 312 L515 323 C510 327 508 330 504 333 C501 336 498 338 494 336 C492 335 491 334 490 334 C483 329 476 325 468 320 C447 307 427 294 406 280 C398 275 390 271 383 266 C380 264 380 260 380 256 C381 254 385 251 388 248 L395 240 C396 239 395 237 395 236 C395 223 395 209 392 197 L285 300 C275 312 265 326 261 342 C258 359 265 375 280 384 C293 390 306 392 320 392 C329 392 338 393 348 391 L353 377 L353 363 L351 357 C350 353 348 349 346 346 L346 342 C346 337 352 332 355 329 C359 326 363 321 367 318 C370 313 374 311 378 307 C381 303 387 297 392 301 L493 363 C495 364 497 367 497 369 C496 386 494 403 487 418 C484 425 482 431 477 438 L469 448 L465 451 C465 452 463 454 463 455 C445 472 429 491 408 505 C389 518 367 526 344 531 C320 535 294 536 270 534 C245 533 221 529 199 521 C178 513 158 502 143 485 C129 470 121 449 116 429 C113 406 114 382 120 360 C124 336 137 315 150 295 L153 293 C134 279 118 263 107 243 C98 219 94 195 93 170 C91 123 98 72 132 38 C144 24 158 11 171 -1 C183 -13 198 -22 213 -28 C245 -40 281 -44 315 -44 L315 -44 Z M293 99 L260 99 C256 99 243 99 242 104 C237 116 237 132 239 144 C241 150 243 156 246 161 C247 162 256 175 256 174 C259 176 260 179 262 180 C282 161 306 137 335 109 C322 103 308 99 293 99 L293 99 Z M621 -30 C621 -31 621 -31 620 -31 L620 -30 L621 -30 Z " />
<glyph glyph-name="quotesingle" unicode="&#x27;" horiz-adv-x="222" d="M143 438 L172 438 C175 438 178 440 179 444 L188 514 L188 516 C188 517 187 519 185 520 L150 556 C149 557 148 558 145 558 L98 558 C97 558 95 557 93 555 C92 554 91 551 91 550 L101 480 C101 478 102 476 104 475 L139 440 C140 439 141 438 143 438 L143 438 Z " />
<glyph glyph-name="parenleft" unicode="&#x28;" horiz-adv-x="380" d="M123 101 C141 50 166 9 200 -24 L235 -59 C249 -73 263 -85 279 -96 C281 -96 282 -97 284 -97 L286 -97 C287 -96 289 -95 290 -93 L345 -6 C346 -4 346 -1 345 1 C345 2 344 3 344 3 L309 38 C307 39 305 40 303 40 L286 40 C279 47 274 57 267 67 C252 90 239 115 231 141 C219 172 215 203 215 236 C215 268 219 300 231 332 C239 357 252 382 267 406 C290 443 313 465 318 469 L338 469 C341 469 344 471 345 474 C346 475 346 479 345 481 L290 568 C289 568 289 568 289 569 L253 604 C252 605 252 606 250 606 L249 606 C247 606 245 606 244 605 C190 569 149 516 123 446 C97 375 92 308 92 274 C92 239 97 172 123 101 L123 101 Z " />
<glyph glyph-name="parenright" unicode="&#x29;" horiz-adv-x="380" d="M170 103 C147 66 123 45 119 40 L98 40 C96 40 94 38 92 37 C91 34 91 31 92 29 L148 -58 C148 -58 148 -59 149 -59 L183 -94 C184 -96 186 -96 187 -97 L189 -97 C190 -97 192 -96 192 -96 C247 -60 288 -6 314 66 C341 137 345 204 345 238 C345 272 341 339 314 410 C295 459 271 501 238 534 L202 568 C189 582 174 594 158 605 C157 606 155 606 154 606 L152 606 C150 606 149 604 148 602 L92 516 C91 514 91 511 92 508 L129 472 C130 470 132 469 134 469 L150 469 C158 462 164 451 171 441 C185 417 198 392 207 367 C218 335 223 303 223 271 C223 239 218 207 207 175 C198 150 185 125 170 103 L170 103 Z " />
<glyph glyph-name="asterisk" unicode="&#x2a;" horiz-adv-x="303" d="M266 487 L248 513 L248 515 L212 550 C211 551 210 551 209 551 L207 551 C206 551 204 551 203 551 L200 548 L182 565 C181 567 180 568 177 568 L146 568 C142 568 140 564 140 560 L140 538 L121 551 C120 551 118 552 116 552 C115 552 112 551 111 549 L93 523 C91 521 91 517 94 515 L117 491 L95 476 C91 474 90 470 93 466 L110 441 C110 440 111 440 111 440 L146 405 C148 404 149 403 150 403 L151 403 C153 403 154 403 156 404 L159 406 L176 389 C178 388 180 387 181 387 L213 387 C217 387 219 389 219 394 L219 416 L237 404 C239 403 241 402 242 402 C244 402 246 404 248 406 L266 431 C268 433 268 438 265 440 L242 463 L264 478 C268 481 269 484 266 487 L266 487 Z " />
<glyph glyph-name="plus" unicode="&#x2b;" horiz-adv-x="368" d="M153 175 L189 140 C190 139 192 138 194 138 L266 138 C269 138 273 141 273 144 L273 199 L326 199 C329 199 332 201 332 206 L332 275 C332 277 332 278 330 279 L294 314 C294 316 293 317 290 317 L273 317 L273 336 C273 337 272 339 271 341 L235 376 C235 378 233 378 230 378 L158 378 C155 378 151 375 151 371 L151 317 L98 317 C95 317 91 313 91 311 L91 241 C91 239 92 237 94 236 L129 200 C130 199 132 199 134 199 L151 199 L151 180 C151 178 152 176 153 175 L153 175 Z " />
<glyph glyph-name="comma" unicode="&#x2c;" horiz-adv-x="303" d="M116 -75 L152 -111 C153 -112 156 -113 158 -113 L211 -113 C215 -113 218 -111 218 -108 L263 10 C265 16 266 22 266 28 C266 47 258 66 245 79 L210 114 C198 126 180 134 161 134 C122 134 89 103 89 64 C89 48 95 34 104 22 L110 13 L136 -11 L115 -68 C115 -70 115 -73 116 -75 L116 -75 Z " />
<glyph glyph-name="hyphen" unicode="&#x2d;" horiz-adv-x="367" d="M91 311 L91 241 C91 239 92 237 94 236 L129 200 C130 199 132 199 134 199 L326 199 C329 199 332 201 332 206 L332 275 C332 277 332 278 330 279 L294 314 C294 316 293 317 290 317 L98 317 C95 317 91 313 91 311 L91 311 Z " />
<glyph glyph-name="period" unicode="&#x2e;" horiz-adv-x="303" d="M212 114 C199 126 181 134 162 134 C123 134 91 103 91 64 C91 45 99 27 112 13 L148 -22 C161 -34 178 -42 198 -42 C236 -42 268 -10 268 28 C268 47 260 66 247 79 L212 114 Z " />
<glyph glyph-name="slash" unicode="&#x2f;" horiz-adv-x="463" d="M428 487 C429 493 422 499 418 502 C414 504 412 508 409 510 C408 511 402 517 402 518 C399 520 397 523 394 525 C392 528 389 531 386 531 L309 531 C303 531 291 534 288 526 L92 -2 C91 -3 91 -4 91 -5 C91 -10 95 -12 98 -14 L109 -26 C113 -30 116 -33 121 -37 C123 -40 127 -47 132 -47 L211 -47 C218 -47 229 -48 232 -42 L250 7 L294 124 C312 174 330 222 348 271 L397 403 L426 480 L428 487 Z " />
<glyph glyph-name="zero" unicode="0" horiz-adv-x="565" d="M469 448 L433 483 C419 499 401 510 380 519 C354 530 326 535 294 535 C261 535 234 529 208 519 C183 508 161 492 144 472 C127 451 114 427 105 397 C96 367 91 332 91 294 L91 233 C91 195 96 161 105 131 C114 101 127 76 144 55 L155 45 L190 9 C205 -6 223 -18 243 -27 C269 -38 297 -43 329 -43 C361 -43 389 -38 414 -28 C440 -16 461 -1 478 20 C495 40 508 65 517 95 C526 124 531 159 531 197 L531 260 C531 337 514 396 479 437 C476 441 473 445 469 448 L469 448 Z M362 131 C346 109 324 99 294 99 C280 99 269 103 257 108 C241 137 233 177 233 228 C233 284 242 327 260 354 C277 380 301 392 329 392 C345 392 357 389 369 385 C383 358 389 318 389 264 C389 200 380 158 362 131 L362 131 Z " />
<glyph glyph-name="one" unicode="1" horiz-adv-x="343" d="M98 341 L132 306 C133 305 134 304 136 304 C136 304 137 303 138 303 C141 303 142 305 143 308 L153 323 L153 25 L141 12 C139 10 138 7 140 4 C140 4 141 3 141 2 L176 -33 C177 -34 179 -35 181 -35 L301 -35 C303 -35 306 -33 307 -30 C309 -29 308 -26 306 -23 L294 -10 L294 468 L306 481 C308 483 309 485 307 488 C307 489 306 490 306 491 L270 525 C269 527 268 528 265 528 L158 528 C156 528 153 526 152 525 L93 444 C92 442 91 440 91 439 L95 346 C95 345 96 343 98 341 L98 341 Z " />
<glyph glyph-name="two" unicode="2" horiz-adv-x="510" d="M127 481 C104 455 91 423 93 390 C93 389 94 388 96 386 L131 351 C132 350 132 350 132 350 L232 293 C233 292 235 292 235 292 C237 292 238 293 240 294 C242 295 243 299 241 302 L234 317 C233 337 239 360 253 373 C264 387 279 392 297 392 C307 392 315 390 323 389 C329 375 329 362 322 349 C311 324 285 311 252 294 C226 278 197 263 166 237 C100 182 93 126 95 99 L95 7 C95 5 96 4 98 2 L132 -33 C134 -34 136 -35 138 -35 L448 -35 C452 -35 456 -32 456 -29 L456 78 C456 80 455 81 454 83 L418 118 C418 119 417 119 416 120 L413 120 C411 120 409 120 408 118 L396 106 L279 106 C291 114 305 123 322 133 C337 142 355 153 374 165 C446 214 481 271 475 337 C473 382 456 421 427 449 L391 484 C389 487 388 489 386 491 C353 520 311 535 261 535 C209 535 160 515 127 481 L127 481 Z " />
<glyph glyph-name="three" unicode="3" horiz-adv-x="490" d="M104 528 C99 528 96 525 96 522 L96 415 C96 413 97 411 98 410 L133 375 C134 374 135 373 136 373 C137 372 138 372 139 372 C141 372 142 373 143 374 L157 388 L210 388 L130 315 C129 314 128 313 128 311 L128 220 C128 218 129 218 130 217 L165 180 C166 180 166 180 166 180 C167 179 169 179 170 179 L173 179 C181 182 211 193 255 193 L257 193 C275 192 290 188 302 181 C305 175 308 166 308 159 C308 145 303 131 294 121 C281 106 264 99 243 99 C235 99 227 101 220 104 C219 106 218 108 218 109 L219 123 L219 123 C219 126 218 128 218 129 L182 164 C181 166 180 166 177 166 C175 166 174 166 173 165 L94 103 C92 101 90 98 92 95 C99 74 111 56 125 41 L161 6 C170 -3 180 -10 191 -17 C218 -33 252 -43 286 -43 C331 -43 371 -29 401 -5 C418 10 431 28 440 49 C450 72 455 100 455 130 C455 159 448 184 434 208 C429 218 422 226 413 235 L378 270 C371 277 363 284 354 290 L345 295 L438 388 C440 389 440 389 440 391 L440 485 C440 488 439 490 438 491 L403 525 C401 527 399 528 397 528 L104 528 Z " />
<glyph glyph-name="four" unicode="4" horiz-adv-x="528" d="M91 238 L91 149 C91 148 92 145 94 144 L129 109 C130 107 132 106 134 106 L289 106 L289 25 L277 12 C275 10 275 7 275 4 L277 2 L313 -33 C313 -34 315 -35 317 -35 L438 -35 C440 -35 443 -33 444 -30 C446 -29 445 -26 443 -23 L430 -10 L430 106 L468 106 L482 95 C483 93 484 92 486 92 C487 92 488 93 489 93 C491 94 493 97 493 100 L493 200 C493 201 492 203 491 205 L457 240 C455 242 453 243 451 243 L430 243 L430 467 L443 481 C445 483 446 485 444 488 C444 489 443 490 443 491 L407 525 C406 527 405 528 402 528 L294 528 C293 528 290 526 289 525 L93 242 C92 241 91 239 91 238 L91 238 Z M269 243 L289 274 L289 243 L269 243 Z " />
<glyph glyph-name="five" unicode="5" horiz-adv-x="496" d="M375 528 L104 528 C102 528 99 526 98 523 C97 521 98 518 99 517 L112 503 L112 244 C112 242 112 240 114 239 L149 203 L149 203 C151 202 152 201 154 201 L156 201 C166 204 192 210 251 218 C260 219 269 219 276 219 C288 219 298 218 307 217 C310 206 312 195 312 180 C312 163 311 141 301 124 C293 107 276 99 252 99 C243 99 236 101 229 104 C225 111 224 118 223 121 L226 132 L226 134 C226 136 226 138 225 140 L189 175 C188 176 186 177 183 177 C183 177 181 176 180 175 L96 116 C93 115 91 111 93 108 L94 105 C102 83 111 55 134 32 L170 -4 C199 -30 237 -44 293 -44 C321 -44 348 -39 370 -28 C390 -18 408 -4 423 14 C448 47 462 91 462 141 L462 154 C463 193 457 220 447 243 C441 255 434 265 425 275 L389 310 C378 321 363 332 344 340 C323 349 296 353 264 353 L252 353 L252 392 L392 392 L406 380 C407 379 408 378 410 378 C411 378 412 379 413 379 C415 380 417 382 417 386 L417 485 C417 487 416 489 415 491 L380 525 C379 527 377 528 375 528 L375 528 Z " />
<glyph glyph-name="six" unicode="6" horiz-adv-x="526" d="M275 535 L270 535 C213 535 168 520 138 491 C123 476 111 459 104 439 C96 418 91 394 91 369 L91 174 C91 118 106 74 133 44 C135 42 137 40 138 38 L174 4 C204 -28 249 -43 307 -43 L313 -43 C368 -43 413 -28 444 3 C460 18 472 37 480 58 C488 80 492 105 492 132 L492 151 C492 202 476 246 445 277 L409 312 C408 313 408 314 406 315 C397 323 389 331 378 337 L379 337 L479 387 C482 389 483 391 483 395 C474 415 464 433 448 448 L412 484 C406 491 397 498 389 503 C358 524 318 535 275 535 L275 535 Z M351 178 C351 157 344 138 330 123 C315 107 295 99 275 99 C261 99 250 102 239 106 C235 117 233 129 233 142 C233 164 240 183 254 199 C268 213 287 220 311 220 C323 220 334 218 344 214 C349 202 351 191 351 178 L351 178 Z M282 361 C270 361 259 361 248 359 C251 364 254 370 257 372 C269 386 286 391 310 391 C320 391 328 390 335 389 L333 380 C332 378 333 375 335 373 L366 343 L351 350 C330 357 306 361 282 361 L282 361 Z " />
<glyph glyph-name="seven" unicode="7" horiz-adv-x="447" d="M129 380 C130 380 131 379 132 379 C132 379 133 378 134 378 C136 378 138 379 139 380 L152 392 L247 392 L94 9 C93 8 93 5 95 4 C95 3 96 3 96 2 L131 -33 C132 -34 134 -35 136 -35 L257 -35 C260 -35 262 -33 264 -30 C265 -29 264 -26 262 -23 L251 -10 L412 393 L412 485 C412 487 411 489 410 491 L375 525 C373 527 371 528 370 528 L98 528 C95 528 91 525 91 521 L91 421 C91 419 92 417 94 415 L129 380 Z " />
<glyph glyph-name="eight" unicode="8" horiz-adv-x="526" d="M432 278 C449 304 458 333 458 363 C458 384 455 403 447 420 C440 433 431 446 422 457 L386 492 L380 498 C352 522 314 535 275 535 C234 535 197 522 169 498 C156 485 144 471 137 455 C129 437 125 418 125 398 C125 370 133 341 149 317 C112 286 91 237 91 179 L91 171 C91 114 106 69 137 39 L174 3 C204 -28 250 -43 310 -43 C337 -43 364 -39 388 -31 C409 -24 429 -12 445 3 C460 17 472 36 481 57 C488 79 492 104 492 130 L492 139 C492 192 475 236 443 269 L432 278 Z M330 123 C315 107 295 99 275 99 C261 99 250 102 238 106 C235 116 233 127 233 139 C233 160 240 179 254 192 C268 206 287 214 311 214 C323 214 335 211 345 207 C350 197 351 185 351 175 C351 155 344 136 330 123 L330 123 Z M275 356 C272 356 270 356 269 357 C268 359 268 361 268 363 C268 373 272 384 279 390 C287 397 297 401 310 401 L316 401 L316 398 C316 375 297 356 275 356 L275 356 Z " />
<glyph glyph-name="nine" unicode="9" horiz-adv-x="526" d="M450 448 L410 489 C380 520 335 535 276 535 L271 535 C217 535 171 519 140 489 C123 474 112 456 104 434 C96 412 91 388 91 360 L91 341 C91 290 107 246 140 215 L175 180 L178 177 C186 168 195 161 205 156 L205 155 L105 106 C102 104 101 100 102 97 C109 77 121 58 136 44 L171 8 C179 1 186 -6 195 -12 C226 -31 265 -43 310 -43 L313 -43 C371 -43 415 -29 446 1 C462 15 473 33 481 54 C488 74 492 98 492 123 L492 319 C492 374 478 418 450 448 L450 448 Z M330 294 C315 279 295 272 274 272 C260 272 250 275 239 278 C235 290 233 302 233 314 C233 335 240 354 254 370 C269 385 288 392 310 392 C322 392 334 389 345 386 C349 374 351 363 351 350 C351 329 344 308 330 294 L330 294 Z M302 131 C313 131 325 132 336 132 C333 127 330 123 327 119 C314 106 297 101 275 101 C264 101 256 102 249 104 L251 112 C251 115 251 117 249 119 L218 149 C222 147 227 144 234 142 C254 135 277 131 302 131 L302 131 Z " />
<glyph glyph-name="colon" unicode="&#x3a;" horiz-adv-x="303" d="M213 114 C200 126 182 134 163 134 C123 134 92 103 92 64 C92 45 100 27 113 13 L149 -22 C161 -34 179 -42 199 -42 C237 -42 269 -10 269 28 C269 47 260 66 248 79 L213 114 Z M92 269 C92 249 100 231 113 218 L149 183 C161 170 179 162 199 162 C237 162 269 194 269 233 C269 252 260 270 248 283 L213 318 C200 331 182 338 163 338 C123 338 92 307 92 269 L92 269 Z " />
<glyph glyph-name="semicolon" unicode="&#x3b;" horiz-adv-x="313" d="M209 -108 L250 -2 C252 2 253 4 254 8 L254 10 C256 16 256 22 256 28 C256 47 249 66 236 79 L200 114 C188 126 170 134 151 134 C112 134 81 103 81 64 C81 48 85 34 94 22 L101 13 L126 -11 L106 -68 C105 -70 105 -73 106 -75 L142 -111 C143 -112 146 -113 148 -113 L201 -113 C205 -113 208 -111 209 -108 L209 -108 Z M211 318 C199 331 180 338 161 338 C123 338 90 307 90 269 C90 249 98 231 111 218 L147 183 C160 170 177 162 197 162 C235 162 267 194 267 233 C267 252 259 270 246 283 L211 318 Z " />
<glyph glyph-name="less" unicode="&#x3c;" horiz-adv-x="376" d="M95 191 C97 188 100 185 103 183 L113 173 C115 170 118 166 122 164 C123 161 126 158 130 157 L330 62 C335 59 342 63 342 68 L342 160 C342 166 332 172 329 175 L316 188 C313 190 312 193 310 195 C308 198 304 200 302 201 L235 230 L244 236 L337 290 C340 291 342 294 342 295 L342 388 C342 392 334 397 331 401 C326 406 321 411 316 415 C312 419 303 433 295 428 C294 428 294 427 294 427 C289 424 285 422 279 419 L226 385 C187 361 149 336 109 312 L95 302 C93 301 91 298 91 295 L91 200 C91 198 91 193 95 191 L95 191 Z " />
<glyph glyph-name="equal" unicode="&#x3d;" horiz-adv-x="367" d="M129 141 C130 140 132 139 134 139 L326 139 C329 139 332 142 332 145 L332 215 C332 217 332 218 330 219 L306 243 L326 243 C329 243 332 247 332 251 L332 320 C332 321 332 324 330 325 L294 360 C294 362 293 363 290 363 L98 363 C95 363 91 359 91 355 L91 286 C91 284 92 282 94 281 L118 257 L98 257 C95 257 91 254 91 251 L91 181 C91 179 92 177 94 176 L129 141 Z " />
<glyph glyph-name="greater" unicode="&#x3e;" horiz-adv-x="376" d="M343 261 C342 267 334 272 331 275 L317 289 C315 292 313 294 311 295 L304 302 L104 428 C101 430 98 430 95 427 C92 425 93 420 93 416 L93 337 C93 332 91 327 96 324 C98 320 101 318 104 315 L114 306 L123 296 L130 290 L205 246 L98 201 C95 200 93 199 93 196 L93 106 C93 103 92 98 96 97 C99 91 104 88 107 85 L120 72 L125 66 C127 64 129 63 131 62 C132 61 136 61 139 62 C142 64 144 65 148 66 L200 90 C242 111 284 131 326 150 L338 157 C342 158 343 161 343 164 L343 261 Z " />
<glyph glyph-name="question" unicode="&#x3f;" horiz-adv-x="507" d="M95 374 L132 337 L227 289 L218 281 C194 265 180 243 173 217 C167 198 168 180 169 166 C169 164 170 162 172 161 L203 130 C176 120 158 94 158 64 C158 44 165 27 178 13 L213 -22 C226 -35 243 -43 262 -43 C302 -43 333 -11 333 28 C333 47 326 65 313 78 L277 113 C273 117 269 122 262 123 L309 123 C311 123 312 124 313 126 C314 128 315 130 315 132 C314 146 316 158 326 171 C336 184 355 200 392 221 C420 237 440 258 454 281 C468 304 474 331 472 359 C469 392 455 423 431 448 L396 483 L382 495 C350 521 305 535 258 535 C211 535 163 515 131 480 C104 450 90 414 92 380 C93 378 93 376 95 374 L95 374 Z M240 297 L233 317 C231 337 237 359 252 373 C262 387 278 393 296 393 C303 393 309 392 313 391 C314 382 313 371 311 361 C304 341 282 326 248 303 L240 297 Z " />
<glyph glyph-name="at" unicode="&#x40;" horiz-adv-x="633" d="M318 -44 C341 -44 364 -41 387 -35 C397 -31 408 -29 418 -22 C427 -17 437 -11 443 -3 C446 2 446 5 442 9 C440 12 437 14 435 18 C427 28 419 37 411 47 L390 69 C388 73 383 77 379 81 L368 92 C374 97 381 103 388 108 C404 93 419 72 440 64 C462 54 487 52 510 55 C534 57 554 66 569 84 C585 100 593 123 597 144 C601 167 600 192 600 217 L600 294 C600 341 593 390 563 429 C556 439 547 447 539 456 C529 465 521 474 511 483 C494 500 474 510 453 518 C414 533 373 534 332 534 C294 534 255 534 218 523 C196 517 175 507 157 492 C141 479 127 462 118 442 C97 397 93 346 93 297 C93 246 91 195 101 144 C105 121 112 98 123 76 C128 66 134 55 142 47 C149 38 159 29 167 21 C184 3 201 -13 224 -25 C246 -35 270 -40 294 -43 C303 -43 311 -44 318 -44 L318 -44 Z M253 387 L256 389 L261 393 C270 399 280 405 294 408 C295 408 300 410 303 411 L314 414 C323 414 332 415 340 415 C357 416 374 416 391 415 C416 414 442 408 465 397 C474 380 479 358 479 332 L479 218 C479 198 475 184 467 179 C467 210 468 243 469 275 C469 292 470 309 470 326 C471 333 471 342 471 350 C471 353 472 356 471 359 C470 363 467 363 465 366 L446 386 C445 388 442 389 440 390 C439 393 437 395 434 397 C432 399 430 399 427 399 L370 399 C367 399 363 397 363 392 L363 375 C350 389 332 396 313 398 C294 400 275 397 258 389 C256 389 253 387 253 387 L253 387 Z M282 77 C269 77 247 79 226 90 C223 97 220 103 218 108 C207 141 209 174 209 207 C209 241 209 276 216 311 C215 286 216 260 216 235 C216 212 215 188 222 165 C226 156 231 146 237 138 C245 129 255 121 263 113 C270 105 277 97 286 91 C294 86 304 84 314 83 C305 80 294 77 283 77 L282 77 Z M354 237 C354 236 352 234 351 232 L348 224 C346 219 342 216 338 211 C335 208 332 204 328 202 C325 200 323 200 320 200 L317 200 C316 201 316 203 316 206 C314 218 314 231 315 243 C316 252 318 260 322 268 C328 277 338 281 349 281 C351 281 354 282 354 279 L354 237 Z M261 393 L262 393 C262 392 260 390 258 389 L254 388 C255 388 256 389 256 389 L261 393 Z M254 388 C254 387 253 387 253 387 C253 387 254 387 254 388 L254 388 Z " />
<glyph glyph-name="A" unicode="A" horiz-adv-x="571" d="M94 2 L129 -33 C130 -34 132 -35 134 -35 L254 -35 C256 -35 259 -33 260 -30 C261 -29 260 -26 259 -23 L247 -11 L272 82 L364 82 L380 24 L368 12 C366 10 365 7 367 4 C367 4 368 3 368 2 L404 -33 C405 -34 406 -35 408 -35 L528 -35 C531 -35 534 -33 534 -30 C536 -29 535 -26 534 -23 L521 -10 L391 469 L400 483 C401 484 402 487 400 489 C400 490 399 491 399 491 L363 526 C363 527 361 528 359 528 L233 528 C230 528 228 526 226 525 C226 522 226 520 226 517 L235 504 L106 25 L93 12 C91 10 91 7 92 4 C92 4 93 3 94 2 L94 2 Z M329 217 L308 217 L318 254 L329 217 Z " />
<glyph glyph-name="B" unicode="B" horiz-adv-x="506" d="M93 12 C91 10 91 7 92 4 C92 4 93 3 94 2 L129 -33 C130 -34 132 -35 134 -35 L303 -35 C331 -35 351 -33 370 -29 C390 -25 408 -16 423 -5 C455 22 470 68 470 138 C470 202 457 249 427 277 L427 277 C438 298 443 324 443 356 C443 386 439 409 430 428 C425 440 418 449 410 457 L375 493 C370 498 365 502 359 505 C328 525 284 528 241 528 L99 528 C96 528 93 526 92 524 C91 522 91 518 94 517 L106 503 L106 25 L93 12 Z M303 121 C290 111 271 106 247 106 L247 209 L276 209 C283 209 289 209 295 210 C306 209 314 207 323 203 C326 195 328 185 328 175 C328 150 319 132 303 121 L303 121 Z M279 389 C287 389 294 388 300 388 L300 387 C300 359 286 353 261 351 L247 351 L247 388 L266 388 C271 389 275 389 279 389 L279 389 Z " />
<glyph glyph-name="C" unicode="C" horiz-adv-x="526" d="M131 36 L166 1 C196 -29 243 -44 310 -44 C379 -44 427 -28 457 4 C481 31 492 69 492 123 L492 174 C492 175 491 177 490 179 L455 214 C453 216 451 217 449 217 L345 217 C342 217 339 215 337 212 C337 209 337 206 339 204 L351 192 L351 185 C351 158 346 138 336 123 C324 107 305 100 279 100 L269 100 C259 100 250 101 239 105 C235 116 233 132 233 149 L233 308 C233 334 237 355 248 370 C260 385 278 393 304 393 L314 393 C327 393 337 391 346 389 C348 383 350 377 351 370 L338 358 C337 355 336 353 337 351 L338 348 L373 313 C375 312 377 311 379 311 L484 311 C489 311 492 313 492 318 L492 334 C492 389 481 426 457 452 L453 457 L418 491 C389 521 341 535 275 535 C205 535 157 520 127 487 C103 461 91 423 91 370 L91 158 C91 104 103 66 127 40 L131 36 Z " />
<glyph glyph-name="D" unicode="D" horiz-adv-x="542" d="M106 503 L106 25 L93 12 C91 10 91 7 92 4 C92 4 93 3 94 2 L129 -33 C130 -34 132 -35 134 -35 L348 -35 C398 -35 438 -22 465 5 C492 32 506 72 506 123 L506 335 C506 383 494 422 470 448 C468 449 467 451 465 452 L431 488 C404 515 364 528 313 528 L98 528 C96 528 93 526 92 524 C91 522 91 518 93 517 L106 503 Z M366 346 L366 182 C366 157 358 136 345 123 C331 107 310 100 284 100 L247 100 L247 393 L319 393 C335 393 349 390 360 388 C364 376 366 363 366 346 L366 346 Z " />
<glyph glyph-name="E" unicode="E" horiz-adv-x="463" d="M106 25 L93 12 C91 10 91 7 92 4 C92 4 93 3 94 2 L129 -33 C130 -34 132 -35 134 -35 L420 -35 C424 -35 427 -32 427 -29 L427 72 C427 73 427 75 425 77 L389 112 C389 113 389 114 388 114 C387 114 386 115 385 115 C383 115 381 114 380 112 L367 100 L247 100 L247 183 L363 183 L376 172 C378 170 380 169 381 169 C382 169 383 170 384 170 C387 171 389 174 389 177 L389 292 C389 294 388 294 387 295 L351 332 C351 332 350 332 349 332 C348 333 347 333 346 333 C344 333 342 332 341 332 L329 319 L247 319 L247 393 L403 393 L415 380 C416 380 418 379 420 379 C421 379 423 379 423 380 C426 380 427 383 427 386 L427 485 C427 488 427 490 425 491 L389 526 C389 527 387 528 385 528 L98 528 C96 528 93 526 92 524 C91 522 91 518 93 517 L106 503 L106 25 Z " />
<glyph glyph-name="F" unicode="F" horiz-adv-x="463" d="M93 12 C91 10 91 7 92 4 C92 4 93 3 94 2 L129 -33 C130 -34 132 -35 134 -35 L254 -35 C256 -35 259 -33 260 -30 C261 -29 260 -26 259 -23 L247 -10 L247 183 L363 183 L376 172 C378 170 380 169 381 169 C382 169 383 170 384 170 C387 171 389 174 389 177 L389 292 C389 294 388 294 387 295 L351 332 C351 332 350 332 349 332 C348 333 347 333 346 333 C344 333 342 332 341 332 L329 319 L247 319 L247 393 L403 393 L415 380 C416 380 418 379 420 379 C421 379 423 379 423 380 C426 380 427 383 427 386 L427 485 C427 488 427 490 425 491 L389 526 C389 527 387 528 385 528 L98 528 C96 528 93 526 92 524 C91 522 91 518 93 517 L106 503 L106 25 L93 12 Z " />
<glyph glyph-name="G" unicode="G" horiz-adv-x="527" d="M310 -44 C379 -44 427 -28 457 4 C481 31 492 69 492 123 L492 249 C492 251 491 253 490 254 L455 289 C453 291 451 292 449 292 L269 292 C264 292 260 288 260 284 L260 185 C260 183 261 181 263 180 L298 145 C299 144 300 143 301 143 C302 142 303 142 303 142 C305 142 307 143 309 145 L320 158 L350 158 C347 143 342 132 336 123 C324 107 305 100 279 100 L269 100 C259 100 250 101 239 105 C235 116 233 132 233 149 L233 308 C233 334 237 355 248 370 C260 385 278 393 304 393 L314 393 C327 393 336 391 346 389 L351 370 L337 358 C336 355 335 353 337 351 C337 350 337 349 338 348 L373 313 C374 312 376 311 379 311 L484 311 C489 311 492 313 492 318 L492 334 C492 389 481 426 457 452 L453 457 L417 491 C389 521 341 535 275 535 C205 535 157 520 127 487 C103 461 91 423 91 370 L91 158 C91 104 103 66 127 40 L131 36 L166 1 C196 -29 243 -44 310 -44 L310 -44 Z " />
<glyph glyph-name="H" unicode="H" horiz-adv-x="532" d="M106 24 L93 11 C91 9 91 7 92 4 C92 4 93 3 94 2 L129 -33 C130 -35 132 -36 134 -36 L254 -36 C256 -36 259 -34 260 -31 C261 -29 260 -26 259 -24 L247 -11 L247 184 L341 184 L341 24 L329 11 C327 9 327 7 328 4 C328 4 329 3 329 2 L364 -33 C365 -35 368 -36 370 -36 L489 -36 C491 -36 494 -34 496 -31 C497 -29 496 -26 494 -24 L483 -11 L483 467 L494 481 C495 483 496 484 496 485 C496 487 495 489 494 491 L459 525 C457 527 456 527 454 527 L333 527 C331 527 329 525 328 523 C327 521 327 518 329 516 L341 503 L341 319 L247 319 L247 467 L259 481 C260 483 261 485 260 488 L259 491 L224 525 C222 527 220 527 218 527 L98 527 C96 527 93 525 92 523 C91 521 91 518 93 516 L106 503 L106 24 Z " />
<glyph glyph-name="I" unicode="I" horiz-adv-x="296" d="M93 11 C91 9 91 7 92 4 C92 3 93 3 94 2 L129 -33 C130 -35 132 -36 134 -36 L254 -36 C256 -36 259 -34 260 -31 C261 -29 260 -26 259 -24 L247 -11 L247 467 L259 481 C260 483 260 484 260 485 C260 487 260 489 259 491 L224 525 C222 527 220 527 218 527 L98 527 C96 527 93 525 92 523 C91 521 91 518 93 516 L106 503 L106 24 L93 11 Z " />
<glyph glyph-name="J" unicode="J" horiz-adv-x="498" d="M142 41 L177 6 L190 -6 C218 -30 251 -43 285 -43 L304 -43 C343 -43 379 -29 406 -1 C433 27 448 64 448 101 L448 467 L461 481 C462 483 463 484 463 485 C463 487 462 489 461 491 L425 525 C424 527 423 527 421 527 L300 527 C297 527 294 525 294 523 C293 521 294 518 294 516 L308 503 L308 277 C308 276 307 276 307 275 L307 188 C307 160 303 138 294 123 C286 107 275 99 260 99 C254 99 248 100 243 102 C238 110 236 120 233 131 L235 147 C235 149 235 151 233 153 L198 188 C198 189 197 189 196 189 C195 190 194 191 192 191 C192 191 190 190 188 189 L95 122 C91 120 90 116 92 113 C105 85 123 61 142 41 L142 41 Z " />
<glyph glyph-name="K" unicode="K" horiz-adv-x="537" d="M93 11 C91 9 91 7 92 4 C92 4 93 3 94 2 L129 -33 C130 -35 132 -36 134 -36 L254 -36 C256 -36 259 -34 260 -31 C261 -29 260 -26 259 -24 L247 -11 L247 152 L272 187 L328 24 L315 11 C313 9 313 7 313 4 L315 2 L351 -33 C352 -35 354 -36 355 -36 L494 -36 C497 -36 500 -34 500 -31 C502 -29 501 -26 500 -24 L486 -10 L357 307 L472 466 L473 467 L484 481 C486 483 487 484 487 485 C487 487 486 489 484 491 L449 525 C448 527 446 527 445 527 L316 527 C313 527 312 525 310 523 C309 521 310 518 312 516 L322 504 L247 403 L247 467 L259 481 C260 483 261 485 260 488 L259 491 L224 525 C222 527 220 527 218 527 L98 527 C96 527 93 525 92 523 C91 521 91 518 93 516 L106 503 L106 24 L93 11 Z " />
<glyph glyph-name="L" unicode="L" horiz-adv-x="463" d="M93 12 C91 10 91 7 92 4 C92 4 93 3 94 2 L129 -33 C130 -34 132 -35 134 -35 L420 -35 C424 -35 427 -31 427 -29 L427 72 C427 74 427 76 425 78 L389 113 L388 115 C387 115 386 115 385 115 C383 115 381 115 380 113 L367 101 L247 101 L247 467 L259 481 C260 483 261 485 260 488 L259 491 L224 525 C222 527 220 528 218 528 L98 528 C96 528 93 526 92 523 C91 521 91 518 93 516 L106 503 L106 25 L93 12 Z " />
<glyph glyph-name="M" unicode="M" horiz-adv-x="596" d="M93 11 C91 9 91 7 92 4 C92 3 93 3 94 2 L129 -33 C130 -35 132 -36 134 -36 L254 -36 C256 -36 259 -34 260 -31 C261 -29 260 -26 259 -24 L247 -11 L247 285 L302 215 L303 214 C303 213 303 213 303 212 L338 177 C340 176 342 175 344 175 C346 175 348 176 350 178 L362 197 L406 258 L406 24 L393 11 C390 9 390 7 391 4 L428 -33 C430 -35 431 -36 433 -36 L553 -36 C557 -36 560 -34 560 -31 C560 -29 560 -26 559 -24 L546 -11 L546 467 L559 481 C560 483 560 485 560 488 C560 489 560 490 559 491 L523 525 C522 527 520 527 518 527 L410 527 C408 527 406 526 405 525 L317 396 L247 490 L247 491 L211 525 C210 527 209 527 207 527 L98 527 C96 527 93 525 92 523 C91 521 91 518 93 516 L106 503 L106 24 L93 11 Z " />
<glyph glyph-name="N" unicode="N" horiz-adv-x="517" d="M260 -31 C261 -29 260 -26 259 -24 L247 -11 L247 187 L321 21 L313 11 C312 9 311 7 312 4 L313 2 L348 -33 C350 -35 351 -36 353 -36 L473 -36 C476 -36 479 -34 480 -31 C481 -29 481 -26 478 -24 L465 -11 L465 467 L478 481 C481 483 481 485 480 488 C480 489 479 490 478 491 L443 525 C442 527 440 527 438 527 L318 527 C315 527 313 525 312 523 C311 521 312 518 313 516 L325 503 L325 312 L248 488 L246 491 L211 525 C209 527 208 527 206 527 L98 527 C96 527 93 525 92 523 C91 521 91 518 93 516 L106 503 L106 24 L93 11 C91 9 91 7 92 4 C92 4 93 3 94 2 L129 -33 C130 -35 132 -36 134 -36 L254 -36 C256 -36 259 -34 260 -31 L260 -31 Z " />
<glyph glyph-name="O" unicode="O" horiz-adv-x="527" d="M131 36 L166 0 C196 -29 243 -44 310 -44 C379 -44 427 -29 457 4 C481 30 492 68 492 123 L492 333 C492 388 481 425 457 451 L453 456 L417 491 C389 521 341 535 275 535 C205 535 157 519 127 487 C103 461 91 423 91 369 L91 158 C91 104 103 66 127 39 L131 36 Z M233 149 L233 307 C233 334 237 354 248 370 C260 385 278 392 304 392 L314 392 C325 392 334 391 345 389 C349 376 351 362 351 343 L351 184 C351 158 346 138 336 123 C324 107 305 99 279 99 L269 99 C259 99 250 101 239 104 C235 116 233 131 233 149 L233 149 Z " />
<glyph glyph-name="P" unicode="P" horiz-adv-x="483" d="M410 457 L374 492 C351 517 314 528 268 528 L98 528 C96 528 93 526 92 524 C91 522 91 519 93 517 L106 503 L106 25 L93 12 C91 10 91 8 92 5 C92 4 93 4 94 3 L129 -32 C130 -34 132 -35 134 -35 L254 -35 C256 -35 259 -33 260 -30 C261 -29 260 -25 259 -23 L247 -10 L247 104 L303 104 C351 104 389 119 414 147 C435 172 446 207 446 249 L446 350 C446 392 436 427 415 450 L410 457 Z M306 308 C306 281 300 265 288 255 C278 247 266 243 247 241 L247 393 L259 393 C277 393 293 391 303 389 C305 381 306 371 306 361 L306 308 Z " />
<glyph glyph-name="Q" unicode="Q" horiz-adv-x="526" d="M131 36 L166 1 C196 -29 243 -44 310 -44 L313 -44 L349 -79 C350 -81 351 -82 354 -82 L443 -82 C446 -82 448 -80 449 -77 C450 -75 450 -72 448 -70 L417 -24 C445 -11 465 9 476 34 C487 58 492 86 492 123 L492 333 C492 389 481 426 457 452 L453 457 L417 491 C389 521 341 535 275 535 C205 535 157 520 127 487 C103 461 91 423 91 370 L91 158 C91 104 103 66 127 40 L131 36 Z M233 149 L233 308 C233 334 237 355 248 370 C260 385 278 393 304 393 L314 393 C325 393 334 391 345 389 C349 376 351 362 351 343 L351 185 C351 158 346 138 336 123 C324 107 305 100 279 100 L269 100 C259 100 250 101 239 105 C235 116 233 132 233 149 L233 149 Z " />
<glyph glyph-name="R" unicode="R" horiz-adv-x="495" d="M260 -30 C261 -29 260 -25 259 -23 L247 -10 L247 104 L259 104 L295 24 L285 12 C282 10 282 7 283 4 C283 4 284 3 285 2 L320 -33 C321 -34 323 -35 325 -35 L451 -35 C455 -35 457 -33 458 -30 C459 -29 459 -26 457 -23 L444 -10 L382 123 C404 134 420 151 431 174 C441 195 446 219 446 249 L446 350 C446 392 436 427 415 450 L410 457 L374 492 C351 517 314 528 268 528 L98 528 C96 528 93 526 92 524 C91 522 91 519 93 517 L106 503 L106 25 L93 12 C91 10 91 8 92 5 C92 4 93 4 94 3 L129 -32 C130 -34 132 -35 134 -35 L254 -35 C256 -35 259 -33 260 -30 L260 -30 Z M259 393 C277 393 293 391 303 389 C305 381 306 371 306 361 L306 308 C306 281 300 265 288 255 C278 247 266 243 247 241 L247 393 L259 393 Z " />
<glyph glyph-name="S" unicode="S" horiz-adv-x="517" d="M223 -26 C251 -37 282 -43 317 -43 C385 -43 434 -21 465 23 C491 62 496 106 496 129 C497 161 488 186 468 210 C465 215 462 218 457 222 L423 258 C398 282 363 303 313 325 C284 337 260 347 244 355 L244 363 C245 370 252 379 263 385 C275 391 289 396 303 396 C309 396 313 395 318 394 C329 392 337 389 346 385 L343 370 C342 367 343 365 345 363 L380 328 C380 328 380 328 381 327 C382 326 383 326 385 326 C387 326 388 326 389 327 L476 384 C479 387 480 389 478 393 C474 402 467 414 459 427 C452 438 445 447 437 455 L402 491 L393 499 C364 523 328 535 281 535 C226 535 180 522 146 496 C111 469 92 432 91 389 C90 353 104 320 132 293 L167 257 L179 247 C203 226 237 208 280 190 C304 180 323 172 337 163 C339 158 340 153 339 147 C337 131 331 119 320 110 C310 104 295 99 277 99 C264 99 250 104 236 112 C236 113 235 114 235 114 L238 137 C238 140 237 141 237 142 L200 179 C200 179 200 179 200 180 C199 180 198 180 197 180 C195 180 193 180 192 179 L102 108 C99 106 98 104 99 101 C102 92 110 70 132 47 C132 47 133 47 134 47 L169 10 C184 -5 202 -16 223 -26 L223 -26 Z " />
<glyph glyph-name="T" unicode="T" horiz-adv-x="508" d="M129 380 C130 380 131 380 132 380 C132 379 133 379 134 379 C136 379 138 380 139 380 L151 393 L212 393 L212 25 L200 12 C199 10 198 7 199 4 L200 2 L235 -33 C237 -34 238 -35 240 -35 L360 -35 C363 -35 366 -33 367 -30 C368 -29 368 -26 365 -23 L353 -10 L353 393 L449 393 L462 380 C464 380 465 379 466 379 C467 379 468 379 469 380 C472 380 474 383 474 386 L474 485 C474 488 474 490 472 491 L437 526 C435 527 433 528 431 528 L98 528 C95 528 91 525 91 522 L91 422 C91 419 92 417 94 416 L129 380 Z " />
<glyph glyph-name="U" unicode="U" horiz-adv-x="556" d="M106 503 L106 158 C106 104 117 66 141 40 L180 1 C210 -29 257 -44 324 -44 C393 -44 441 -28 470 4 C495 31 506 69 506 123 L506 468 L519 482 C521 483 522 486 520 489 C520 490 519 491 519 491 L483 526 C483 527 481 528 479 528 L358 528 C355 528 353 526 352 524 C351 522 351 518 353 517 L366 503 L366 184 C366 158 361 138 351 123 C338 107 320 100 294 100 L284 100 C274 100 264 101 254 104 C250 116 247 131 247 149 L247 468 L259 482 C260 483 260 484 260 485 C260 488 260 490 259 491 L224 526 C222 527 220 528 218 528 L98 528 C96 528 93 526 92 524 C91 522 91 518 93 517 L106 503 Z " />
<glyph glyph-name="V" unicode="V" horiz-adv-x="570" d="M106 503 L235 24 L226 11 C225 9 225 6 226 4 C226 4 227 3 227 2 L262 -33 C264 -34 266 -35 268 -35 L393 -35 C396 -35 398 -34 400 -31 C401 -29 401 -27 399 -25 L391 -11 L521 467 L533 482 C535 483 535 486 534 489 C534 490 534 491 533 491 L498 526 C496 527 494 528 492 528 L372 528 C370 528 368 526 366 524 C365 522 366 518 368 517 L380 504 L309 239 L247 468 L259 482 C260 483 260 484 260 485 C260 488 260 490 259 491 L224 526 C222 527 220 528 218 528 L98 528 C96 528 93 526 92 524 C91 522 91 518 93 517 L106 503 Z " />
<glyph glyph-name="W" unicode="W" horiz-adv-x="785" d="M317 524 C315 522 316 518 318 517 L331 503 L363 385 L312 228 L247 468 L259 482 C260 483 261 486 260 489 C260 490 260 491 259 491 L224 526 C222 527 220 528 218 528 L98 528 C96 528 93 526 92 524 C91 522 91 518 93 517 L106 503 L235 24 L226 11 C226 9 226 6 226 4 C227 4 227 3 228 2 L263 -33 C264 -34 267 -35 269 -35 L366 -35 C369 -35 371 -33 372 -30 L431 131 L465 5 L466 2 L502 -33 C503 -34 505 -35 507 -35 L609 -35 C611 -35 614 -34 615 -31 C617 -29 616 -27 615 -25 L606 -11 L735 467 L748 482 C749 483 750 484 750 485 C750 488 749 490 748 491 L712 526 C712 527 710 528 708 528 L587 528 C585 528 582 526 581 524 C579 522 580 518 582 517 L594 504 L526 252 L479 468 L491 482 C492 483 493 486 492 489 C491 490 491 491 491 491 L456 526 C454 527 452 528 450 528 L323 528 C320 528 318 526 317 524 L317 524 Z " />
<glyph glyph-name="X" unicode="X" horiz-adv-x="560" d="M509 -10 L390 247 L487 468 L500 482 C502 483 502 486 501 489 C501 490 500 491 500 491 L465 526 C463 527 461 528 459 528 L339 528 C336 528 333 526 332 524 C332 522 332 518 334 517 L346 504 L300 403 L270 468 L281 482 C284 483 284 486 283 489 C283 490 282 491 281 491 L246 526 C244 527 243 528 241 528 L122 528 C119 528 116 526 115 524 C114 522 115 518 116 517 L128 503 L225 283 L106 26 L93 12 C91 10 91 7 92 4 C92 4 93 3 94 2 L129 -33 C130 -34 132 -35 134 -35 L254 -35 C256 -35 259 -33 260 -30 C261 -29 260 -26 259 -23 L247 -11 L316 138 L369 24 L356 12 C354 10 354 7 355 4 C355 4 356 3 356 2 L392 -33 C393 -34 395 -35 397 -35 L517 -35 C520 -35 522 -33 523 -30 C525 -29 524 -26 522 -23 L509 -10 Z " />
<glyph glyph-name="Y" unicode="Y" horiz-adv-x="519" d="M483 491 L446 526 C446 527 444 528 442 528 L321 528 C319 528 316 526 315 524 C313 522 314 518 316 517 L329 504 L279 407 L247 469 L259 482 C260 483 260 484 260 485 C260 488 260 490 259 491 L224 526 C222 527 220 528 218 528 L98 528 C96 528 93 526 92 524 C91 522 91 518 93 517 L106 503 L218 250 L218 25 L207 12 C204 10 204 7 205 4 C205 4 206 3 207 2 L242 -33 C243 -34 245 -35 247 -35 L367 -35 C370 -35 371 -33 373 -30 C374 -29 373 -26 371 -23 L360 -10 L360 215 L469 467 L483 482 C484 483 484 486 483 489 C483 490 483 491 483 491 L483 491 Z " />
<glyph glyph-name="Z" unicode="Z" horiz-adv-x="486" d="M98 528 C95 528 91 525 91 521 L91 422 C91 419 92 417 94 416 L129 380 C130 380 131 380 132 380 C132 379 133 379 134 379 C136 379 138 380 139 380 L151 393 L267 393 L94 99 C93 98 93 98 93 96 L93 7 C93 5 94 4 95 2 L130 -33 C132 -34 133 -35 135 -35 L445 -35 C448 -35 451 -32 451 -29 L451 72 C451 73 451 75 449 77 L414 112 C414 113 413 114 412 114 C411 114 410 115 409 115 C408 115 406 114 405 112 L391 100 L277 100 L449 393 C450 394 450 396 450 397 L450 485 C450 488 449 490 448 491 L413 526 C412 527 410 528 408 528 L98 528 Z " />
<glyph glyph-name="bracketleft" unicode="&#x5b;" horiz-adv-x="358" d="M106 587 L98 587 C96 587 93 585 92 583 C91 580 91 578 93 576 L106 563 L106 -35 L93 -48 C91 -49 91 -52 92 -55 C92 -56 93 -56 94 -57 L129 -92 C130 -94 132 -95 134 -95 L316 -95 C320 -95 323 -91 323 -88 L323 18 C323 20 322 21 321 23 L286 58 L284 60 L280 60 C278 60 277 60 276 58 L263 47 L247 47 L247 447 L298 447 L312 435 C312 434 314 433 316 433 L319 433 C321 435 323 438 323 440 L323 546 C323 548 322 550 321 551 L286 586 C285 587 283 588 280 588 L110 588 C109 588 108 588 106 587 L106 587 Z " />
<glyph glyph-name="backslash" unicode="&#x5c;" horiz-adv-x="464" d="M232 496 C231 497 231 498 230 498 L195 534 C193 534 192 535 190 535 L98 535 C97 535 94 534 93 533 C91 530 91 528 92 525 L288 -2 L290 -5 L325 -40 C327 -41 329 -42 330 -42 L422 -42 C423 -42 426 -41 427 -39 C428 -37 428 -34 427 -32 L232 496 Z " />
<glyph glyph-name="bracketright" unicode="&#x5d;" horiz-adv-x="358" d="M119 47 L106 58 C105 60 104 60 101 60 L98 60 C96 58 94 55 94 53 L94 -53 C94 -55 95 -56 97 -57 L132 -93 C132 -94 134 -95 137 -95 L319 -95 C321 -95 324 -92 325 -90 C327 -87 326 -85 324 -82 L312 -69 L312 528 L323 541 C325 542 326 543 326 545 C326 548 325 550 324 551 L288 585 C287 587 286 588 283 588 L101 588 C98 588 94 585 94 581 L94 475 C94 474 95 472 97 471 L132 435 L134 433 L137 433 C139 433 141 434 141 435 L154 447 L170 447 L170 47 L119 47 Z " />
<glyph glyph-name="asciicircum" unicode="&#x5e;" horiz-adv-x="494" d="M460 289 L365 489 C364 490 364 490 364 491 C364 491 363 491 363 491 L329 526 C329 526 328 526 328 527 C327 527 326 528 325 528 L225 528 C224 528 222 528 221 527 C220 527 220 526 220 526 L218 525 L93 325 C92 324 91 322 91 321 C91 320 92 319 92 318 C93 317 93 316 94 316 L129 281 C131 279 132 278 134 278 L226 278 C227 278 229 279 231 281 L232 282 L292 387 L319 319 C320 318 320 317 320 316 L356 281 C357 279 359 278 361 278 L453 278 C455 278 457 279 458 281 L459 282 C460 283 460 285 460 286 L460 289 Z " />
<glyph glyph-name="underscore" unicode="&#x5f;" horiz-adv-x="559" d="M517 -118 C521 -118 524 -115 524 -110 L524 -42 C524 -39 523 -38 522 -36 L510 -25 C506 -21 503 -16 499 -13 C496 -11 493 -8 491 -6 C488 -4 485 1 482 1 L99 1 C95 1 91 -3 91 -6 L91 -66 C91 -71 89 -79 95 -82 L104 -91 L115 -102 C117 -105 120 -108 123 -110 C124 -114 129 -118 132 -118 L517 -118 Z " />
<glyph glyph-name="grave" unicode="&#x60;" horiz-adv-x="238" d="M94 537 L131 469 C132 465 137 464 140 460 L150 449 C154 446 158 442 161 440 C163 436 166 431 171 431 L185 431 C191 431 196 431 200 432 C204 433 205 438 205 441 C203 448 202 455 201 462 L194 508 C193 513 185 518 182 522 L161 542 C159 544 157 549 152 549 L100 549 C94 549 91 542 94 537 L94 537 Z " />
<glyph glyph-name="a" unicode="a" horiz-adv-x="571" d="M94 2 L129 -33 C130 -34 132 -35 134 -35 L254 -35 C256 -35 259 -33 260 -30 C261 -29 260 -26 259 -23 L247 -11 L272 82 L364 82 L380 24 L368 12 C366 10 365 7 367 4 C367 4 368 3 368 2 L404 -33 C405 -34 406 -35 408 -35 L528 -35 C531 -35 534 -33 534 -30 C536 -29 535 -26 534 -23 L521 -10 L391 469 L400 483 C401 484 402 487 400 489 C400 490 399 491 399 491 L363 526 C363 527 361 528 359 528 L233 528 C230 528 228 526 226 525 C226 522 226 520 226 517 L235 504 L106 25 L93 12 C91 10 91 7 92 4 C92 4 93 3 94 2 L94 2 Z M329 217 L308 217 L318 254 L329 217 Z " />
<glyph glyph-name="b" unicode="b" horiz-adv-x="506" d="M93 12 C91 10 91 7 92 4 C92 4 93 3 94 2 L129 -33 C130 -34 132 -35 134 -35 L303 -35 C331 -35 351 -33 370 -29 C390 -25 408 -16 423 -5 C455 22 470 68 470 138 C470 202 457 249 427 277 L427 277 C438 298 443 324 443 356 C443 386 439 409 430 428 C425 440 418 449 410 457 L375 493 C370 498 365 502 359 505 C328 525 284 528 241 528 L99 528 C96 528 93 526 92 524 C91 522 91 518 94 517 L106 503 L106 25 L93 12 Z M303 121 C290 111 271 106 247 106 L247 209 L276 209 C283 209 289 209 295 210 C306 209 314 207 323 203 C326 195 328 185 328 175 C328 150 319 132 303 121 L303 121 Z M279 389 C287 389 294 388 300 388 L300 387 C300 359 286 353 261 351 L247 351 L247 388 L266 388 C271 389 275 389 279 389 L279 389 Z " />
<glyph glyph-name="c" unicode="c" horiz-adv-x="526" d="M131 36 L166 1 C196 -29 243 -44 310 -44 C379 -44 427 -28 457 4 C481 31 492 69 492 123 L492 174 C492 175 491 177 490 179 L455 214 C453 216 451 217 449 217 L345 217 C342 217 339 215 337 212 C337 209 337 206 339 204 L351 192 L351 185 C351 158 346 138 336 123 C324 107 305 100 279 100 L269 100 C259 100 250 101 239 105 C235 116 233 132 233 149 L233 308 C233 334 237 355 248 370 C260 385 278 393 304 393 L314 393 C327 393 337 391 346 389 C348 383 350 377 351 370 L338 358 C337 355 336 353 337 351 L338 348 L373 313 C375 312 377 311 379 311 L484 311 C489 311 492 313 492 318 L492 334 C492 389 481 426 457 452 L453 457 L418 491 C389 521 341 535 275 535 C205 535 157 520 127 487 C103 461 91 423 91 370 L91 158 C91 104 103 66 127 40 L131 36 Z " />
<glyph glyph-name="d" unicode="d" horiz-adv-x="542" d="M106 503 L106 25 L93 12 C91 10 91 7 92 4 C92 4 93 3 94 2 L129 -33 C130 -34 132 -35 134 -35 L348 -35 C398 -35 438 -22 465 5 C492 32 506 72 506 123 L506 335 C506 383 494 422 470 448 C468 449 467 451 465 452 L431 488 C404 515 364 528 313 528 L98 528 C96 528 93 526 92 524 C91 522 91 518 93 517 L106 503 Z M366 346 L366 182 C366 157 358 136 345 123 C331 107 310 100 284 100 L247 100 L247 393 L319 393 C335 393 349 390 360 388 C364 376 366 363 366 346 L366 346 Z " />
<glyph glyph-name="e" unicode="e" horiz-adv-x="463" d="M106 25 L93 12 C91 10 91 7 92 4 C92 4 93 3 94 2 L129 -33 C130 -34 132 -35 134 -35 L420 -35 C424 -35 427 -32 427 -29 L427 72 C427 73 427 75 425 77 L389 112 C389 113 389 114 388 114 C387 114 386 115 385 115 C383 115 381 114 380 112 L367 100 L247 100 L247 183 L363 183 L376 172 C378 170 380 169 381 169 C382 169 383 170 384 170 C387 171 389 174 389 177 L389 292 C389 294 388 294 387 295 L351 332 C351 332 350 332 349 332 C348 333 347 333 346 333 C344 333 342 332 341 332 L329 319 L247 319 L247 393 L403 393 L415 380 C416 380 418 379 420 379 C421 379 423 379 423 380 C426 380 427 383 427 386 L427 485 C427 488 427 490 425 491 L389 526 C389 527 387 528 385 528 L98 528 C96 528 93 526 92 524 C91 522 91 518 93 517 L106 503 L106 25 Z " />
<glyph glyph-name="f" unicode="f" horiz-adv-x="463" d="M93 12 C91 10 91 7 92 4 C92 4 93 3 94 2 L129 -33 C130 -34 132 -35 134 -35 L254 -35 C256 -35 259 -33 260 -30 C261 -29 260 -26 259 -23 L247 -10 L247 183 L363 183 L376 172 C378 170 380 169 381 169 C382 169 383 170 384 170 C387 171 389 174 389 177 L389 292 C389 294 388 294 387 295 L351 332 C351 332 350 332 349 332 C348 333 347 333 346 333 C344 333 342 332 341 332 L329 319 L247 319 L247 393 L403 393 L415 380 C416 380 418 379 420 379 C421 379 423 379 423 380 C426 380 427 383 427 386 L427 485 C427 488 427 490 425 491 L389 526 C389 527 387 528 385 528 L98 528 C96 528 93 526 92 524 C91 522 91 518 93 517 L106 503 L106 25 L93 12 Z " />
<glyph glyph-name="g" unicode="g" horiz-adv-x="527" d="M310 -44 C379 -44 427 -28 457 4 C481 31 492 69 492 123 L492 249 C492 251 491 253 490 254 L455 289 C453 291 451 292 449 292 L269 292 C264 292 260 288 260 284 L260 185 C260 183 261 181 263 180 L298 145 C299 144 300 143 301 143 C302 142 303 142 303 142 C305 142 307 143 309 145 L320 158 L350 158 C347 143 342 132 336 123 C324 107 305 100 279 100 L269 100 C259 100 250 101 239 105 C235 116 233 132 233 149 L233 308 C233 334 237 355 248 370 C260 385 278 393 304 393 L314 393 C327 393 336 391 346 389 L351 370 L337 358 C336 355 335 353 337 351 C337 350 337 349 338 348 L373 313 C374 312 376 311 379 311 L484 311 C489 311 492 313 492 318 L492 334 C492 389 481 426 457 452 L453 457 L417 491 C389 521 341 535 275 535 C205 535 157 520 127 487 C103 461 91 423 91 370 L91 158 C91 104 103 66 127 40 L131 36 L166 1 C196 -29 243 -44 310 -44 L310 -44 Z " />
<glyph glyph-name="h" unicode="h" horiz-adv-x="532" d="M106 24 L93 11 C91 9 91 7 92 4 C92 4 93 3 94 2 L129 -33 C130 -35 132 -36 134 -36 L254 -36 C256 -36 259 -34 260 -31 C261 -29 260 -26 259 -24 L247 -11 L247 184 L341 184 L341 24 L329 11 C327 9 327 7 328 4 C328 4 329 3 329 2 L364 -33 C365 -35 368 -36 370 -36 L489 -36 C491 -36 494 -34 496 -31 C497 -29 496 -26 494 -24 L483 -11 L483 467 L494 481 C495 483 496 484 496 485 C496 487 495 489 494 491 L459 525 C457 527 456 527 454 527 L333 527 C331 527 329 525 328 523 C327 521 327 518 329 516 L341 503 L341 319 L247 319 L247 467 L259 481 C260 483 261 485 260 488 L259 491 L224 525 C222 527 220 527 218 527 L98 527 C96 527 93 525 92 523 C91 521 91 518 93 516 L106 503 L106 24 Z " />
<glyph glyph-name="i" unicode="i" horiz-adv-x="296" d="M93 11 C91 9 91 7 92 4 C92 3 93 3 94 2 L129 -33 C130 -35 132 -36 134 -36 L254 -36 C256 -36 259 -34 260 -31 C261 -29 260 -26 259 -24 L247 -11 L247 467 L259 481 C260 483 260 484 260 485 C260 487 260 489 259 491 L224 525 C222 527 220 527 218 527 L98 527 C96 527 93 525 92 523 C91 521 91 518 93 516 L106 503 L106 24 L93 11 Z " />
<glyph glyph-name="j" unicode="j" horiz-adv-x="498" d="M142 41 L177 6 L190 -6 C218 -30 251 -43 285 -43 L304 -43 C343 -43 379 -29 406 -1 C433 27 448 64 448 101 L448 467 L461 481 C462 483 463 484 463 485 C463 487 462 489 461 491 L425 525 C424 527 423 527 421 527 L300 527 C297 527 294 525 294 523 C293 521 294 518 294 516 L308 503 L308 277 C308 276 307 276 307 275 L307 188 C307 160 303 138 294 123 C286 107 275 99 260 99 C254 99 248 100 243 102 C238 110 236 120 233 131 L235 147 C235 149 235 151 233 153 L198 188 C198 189 197 189 196 189 C195 190 194 191 192 191 C192 191 190 190 188 189 L95 122 C91 120 90 116 92 113 C105 85 123 61 142 41 L142 41 Z " />
<glyph glyph-name="k" unicode="k" horiz-adv-x="537" d="M93 11 C91 9 91 7 92 4 C92 4 93 3 94 2 L129 -33 C130 -35 132 -36 134 -36 L254 -36 C256 -36 259 -34 260 -31 C261 -29 260 -26 259 -24 L247 -11 L247 152 L272 187 L328 24 L315 11 C313 9 313 7 313 4 L315 2 L351 -33 C352 -35 354 -36 355 -36 L494 -36 C497 -36 500 -34 500 -31 C502 -29 501 -26 500 -24 L486 -10 L357 307 L472 466 L473 467 L484 481 C486 483 487 484 487 485 C487 487 486 489 484 491 L449 525 C448 527 446 527 445 527 L316 527 C313 527 312 525 310 523 C309 521 310 518 312 516 L322 504 L247 403 L247 467 L259 481 C260 483 261 485 260 488 L259 491 L224 525 C222 527 220 527 218 527 L98 527 C96 527 93 525 92 523 C91 521 91 518 93 516 L106 503 L106 24 L93 11 Z " />
<glyph glyph-name="l" unicode="l" horiz-adv-x="463" d="M93 12 C91 10 91 7 92 4 C92 4 93 3 94 2 L129 -33 C130 -34 132 -35 134 -35 L420 -35 C424 -35 427 -31 427 -29 L427 72 C427 74 427 76 425 78 L389 113 L388 115 C387 115 386 115 385 115 C383 115 381 115 380 113 L367 101 L247 101 L247 467 L259 481 C260 483 261 485 260 488 L259 491 L224 525 C222 527 220 528 218 528 L98 528 C96 528 93 526 92 523 C91 521 91 518 93 516 L106 503 L106 25 L93 12 Z " />
<glyph glyph-name="m" unicode="m" horiz-adv-x="596" d="M93 11 C91 9 91 7 92 4 C92 3 93 3 94 2 L129 -33 C130 -35 132 -36 134 -36 L254 -36 C256 -36 259 -34 260 -31 C261 -29 260 -26 259 -24 L247 -11 L247 285 L302 215 L303 214 C303 213 303 213 303 212 L338 177 C340 176 342 175 344 175 C346 175 348 176 350 178 L362 197 L406 258 L406 24 L393 11 C390 9 390 7 391 4 L428 -33 C430 -35 431 -36 433 -36 L553 -36 C557 -36 560 -34 560 -31 C560 -29 560 -26 559 -24 L546 -11 L546 467 L559 481 C560 483 560 485 560 488 C560 489 560 490 559 491 L523 525 C522 527 520 527 518 527 L410 527 C408 527 406 526 405 525 L317 396 L247 490 L247 491 L211 525 C210 527 209 527 207 527 L98 527 C96 527 93 525 92 523 C91 521 91 518 93 516 L106 503 L106 24 L93 11 Z " />
<glyph glyph-name="n" unicode="n" horiz-adv-x="517" d="M260 -31 C261 -29 260 -26 259 -24 L247 -11 L247 187 L321 21 L313 11 C312 9 311 7 312 4 L313 2 L348 -33 C350 -35 351 -36 353 -36 L473 -36 C476 -36 479 -34 480 -31 C481 -29 481 -26 478 -24 L465 -11 L465 467 L478 481 C481 483 481 485 480 488 C480 489 479 490 478 491 L443 525 C442 527 440 527 438 527 L318 527 C315 527 313 525 312 523 C311 521 312 518 313 516 L325 503 L325 312 L248 488 L246 491 L211 525 C209 527 208 527 206 527 L98 527 C96 527 93 525 92 523 C91 521 91 518 93 516 L106 503 L106 24 L93 11 C91 9 91 7 92 4 C92 4 93 3 94 2 L129 -33 C130 -35 132 -36 134 -36 L254 -36 C256 -36 259 -34 260 -31 L260 -31 Z " />
<glyph glyph-name="o" unicode="o" horiz-adv-x="527" d="M131 36 L166 0 C196 -29 243 -44 310 -44 C379 -44 427 -29 457 4 C481 30 492 68 492 123 L492 333 C492 388 481 425 457 451 L453 456 L417 491 C389 521 341 535 275 535 C205 535 157 519 127 487 C103 461 91 423 91 369 L91 158 C91 104 103 66 127 39 L131 36 Z M233 149 L233 307 C233 334 237 354 248 370 C260 385 278 392 304 392 L314 392 C325 392 334 391 345 389 C349 376 351 362 351 343 L351 184 C351 158 346 138 336 123 C324 107 305 99 279 99 L269 99 C259 99 250 101 239 104 C235 116 233 131 233 149 L233 149 Z " />
<glyph glyph-name="p" unicode="p" horiz-adv-x="483" d="M410 457 L374 492 C351 517 314 528 268 528 L98 528 C96 528 93 526 92 524 C91 522 91 519 93 517 L106 503 L106 25 L93 12 C91 10 91 8 92 5 C92 4 93 4 94 3 L129 -32 C130 -34 132 -35 134 -35 L254 -35 C256 -35 259 -33 260 -30 C261 -29 260 -25 259 -23 L247 -10 L247 104 L303 104 C351 104 389 119 414 147 C435 172 446 207 446 249 L446 350 C446 392 436 427 415 450 L410 457 Z M306 308 C306 281 300 265 288 255 C278 247 266 243 247 241 L247 393 L259 393 C277 393 293 391 303 389 C305 381 306 371 306 361 L306 308 Z " />
<glyph glyph-name="q" unicode="q" horiz-adv-x="526" d="M131 36 L166 1 C196 -29 243 -44 310 -44 L313 -44 L349 -79 C350 -81 351 -82 354 -82 L443 -82 C446 -82 448 -80 449 -77 C450 -75 450 -72 448 -70 L417 -24 C445 -11 465 9 476 34 C487 58 492 86 492 123 L492 333 C492 389 481 426 457 452 L453 457 L417 491 C389 521 341 535 275 535 C205 535 157 520 127 487 C103 461 91 423 91 370 L91 158 C91 104 103 66 127 40 L131 36 Z M233 149 L233 308 C233 334 237 355 248 370 C260 385 278 393 304 393 L314 393 C325 393 334 391 345 389 C349 376 351 362 351 343 L351 185 C351 158 346 138 336 123 C324 107 305 100 279 100 L269 100 C259 100 250 101 239 105 C235 116 233 132 233 149 L233 149 Z " />
<glyph glyph-name="r" unicode="r" horiz-adv-x="495" d="M260 -30 C261 -29 260 -25 259 -23 L247 -10 L247 104 L259 104 L295 24 L285 12 C282 10 282 7 283 4 C283 4 284 3 285 2 L320 -33 C321 -34 323 -35 325 -35 L451 -35 C455 -35 457 -33 458 -30 C459 -29 459 -26 457 -23 L444 -10 L382 123 C404 134 420 151 431 174 C441 195 446 219 446 249 L446 350 C446 392 436 427 415 450 L410 457 L374 492 C351 517 314 528 268 528 L98 528 C96 528 93 526 92 524 C91 522 91 519 93 517 L106 503 L106 25 L93 12 C91 10 91 8 92 5 C92 4 93 4 94 3 L129 -32 C130 -34 132 -35 134 -35 L254 -35 C256 -35 259 -33 260 -30 L260 -30 Z M259 393 C277 393 293 391 303 389 C305 381 306 371 306 361 L306 308 C306 281 300 265 288 255 C278 247 266 243 247 241 L247 393 L259 393 Z " />
<glyph glyph-name="s" unicode="s" horiz-adv-x="517" d="M223 -26 C251 -37 282 -43 317 -43 C385 -43 434 -21 465 23 C491 62 496 106 496 129 C497 161 488 186 468 210 C465 215 462 218 457 222 L423 258 C398 282 363 303 313 325 C284 337 260 347 244 355 L244 363 C245 370 252 379 263 385 C275 391 289 396 303 396 C309 396 313 395 318 394 C329 392 337 389 346 385 L343 370 C342 367 343 365 345 363 L380 328 C380 328 380 328 381 327 C382 326 383 326 385 326 C387 326 388 326 389 327 L476 384 C479 387 480 389 478 393 C474 402 467 414 459 427 C452 438 445 447 437 455 L402 491 L393 499 C364 523 328 535 281 535 C226 535 180 522 146 496 C111 469 92 432 91 389 C90 353 104 320 132 293 L167 257 L179 247 C203 226 237 208 280 190 C304 180 323 172 337 163 C339 158 340 153 339 147 C337 131 331 119 320 110 C310 104 295 99 277 99 C264 99 250 104 236 112 C236 113 235 114 235 114 L238 137 C238 140 237 141 237 142 L200 179 C200 179 200 179 200 180 C199 180 198 180 197 180 C195 180 193 180 192 179 L102 108 C99 106 98 104 99 101 C102 92 110 70 132 47 C132 47 133 47 134 47 L169 10 C184 -5 202 -16 223 -26 L223 -26 Z " />
<glyph glyph-name="t" unicode="t" horiz-adv-x="508" d="M129 380 C130 380 131 380 132 380 C132 379 133 379 134 379 C136 379 138 380 139 380 L151 393 L212 393 L212 25 L200 12 C199 10 198 7 199 4 L200 2 L235 -33 C237 -34 238 -35 240 -35 L360 -35 C363 -35 366 -33 367 -30 C368 -29 368 -26 365 -23 L353 -10 L353 393 L449 393 L462 380 C464 380 465 379 466 379 C467 379 468 379 469 380 C472 380 474 383 474 386 L474 485 C474 488 474 490 472 491 L437 526 C435 527 433 528 431 528 L98 528 C95 528 91 525 91 522 L91 422 C91 419 92 417 94 416 L129 380 Z " />
<glyph glyph-name="u" unicode="u" horiz-adv-x="556" d="M106 503 L106 158 C106 104 117 66 141 40 L180 1 C210 -29 257 -44 324 -44 C393 -44 441 -28 470 4 C495 31 506 69 506 123 L506 468 L519 482 C521 483 522 486 520 489 C520 490 519 491 519 491 L483 526 C483 527 481 528 479 528 L358 528 C355 528 353 526 352 524 C351 522 351 518 353 517 L366 503 L366 184 C366 158 361 138 351 123 C338 107 320 100 294 100 L284 100 C274 100 264 101 254 104 C250 116 247 131 247 149 L247 468 L259 482 C260 483 260 484 260 485 C260 488 260 490 259 491 L224 526 C222 527 220 528 218 528 L98 528 C96 528 93 526 92 524 C91 522 91 518 93 517 L106 503 Z " />
<glyph glyph-name="v" unicode="v" horiz-adv-x="570" d="M106 503 L235 24 L226 11 C225 9 225 6 226 4 C226 4 227 3 227 2 L262 -33 C264 -34 266 -35 268 -35 L393 -35 C396 -35 398 -34 400 -31 C401 -29 401 -27 399 -25 L391 -11 L521 467 L533 482 C535 483 535 486 534 489 C534 490 534 491 533 491 L498 526 C496 527 494 528 492 528 L372 528 C370 528 368 526 366 524 C365 522 366 518 368 517 L380 504 L309 239 L247 468 L259 482 C260 483 260 484 260 485 C260 488 260 490 259 491 L224 526 C222 527 220 528 218 528 L98 528 C96 528 93 526 92 524 C91 522 91 518 93 517 L106 503 Z " />
<glyph glyph-name="w" unicode="w" horiz-adv-x="785" d="M317 524 C315 522 316 518 318 517 L331 503 L363 385 L312 228 L247 468 L259 482 C260 483 261 486 260 489 C260 490 260 491 259 491 L224 526 C222 527 220 528 218 528 L98 528 C96 528 93 526 92 524 C91 522 91 518 93 517 L106 503 L235 24 L226 11 C226 9 226 6 226 4 C227 4 227 3 228 2 L263 -33 C264 -34 267 -35 269 -35 L366 -35 C369 -35 371 -33 372 -30 L431 131 L465 5 L466 2 L502 -33 C503 -34 505 -35 507 -35 L609 -35 C611 -35 614 -34 615 -31 C617 -29 616 -27 615 -25 L606 -11 L735 467 L748 482 C749 483 750 484 750 485 C750 488 749 490 748 491 L712 526 C712 527 710 528 708 528 L587 528 C585 528 582 526 581 524 C579 522 580 518 582 517 L594 504 L526 252 L479 468 L491 482 C492 483 493 486 492 489 C491 490 491 491 491 491 L456 526 C454 527 452 528 450 528 L323 528 C320 528 318 526 317 524 L317 524 Z " />
<glyph glyph-name="x" unicode="x" horiz-adv-x="560" d="M509 -10 L390 247 L487 468 L500 482 C502 483 502 486 501 489 C501 490 500 491 500 491 L465 526 C463 527 461 528 459 528 L339 528 C336 528 333 526 332 524 C332 522 332 518 334 517 L346 504 L300 403 L270 468 L281 482 C284 483 284 486 283 489 C283 490 282 491 281 491 L246 526 C244 527 243 528 241 528 L122 528 C119 528 116 526 115 524 C114 522 115 518 116 517 L128 503 L225 283 L106 26 L93 12 C91 10 91 7 92 4 C92 4 93 3 94 2 L129 -33 C130 -34 132 -35 134 -35 L254 -35 C256 -35 259 -33 260 -30 C261 -29 260 -26 259 -23 L247 -11 L316 138 L369 24 L356 12 C354 10 354 7 355 4 C355 4 356 3 356 2 L392 -33 C393 -34 395 -35 397 -35 L517 -35 C520 -35 522 -33 523 -30 C525 -29 524 -26 522 -23 L509 -10 Z " />
<glyph glyph-name="y" unicode="y" horiz-adv-x="519" d="M483 491 L446 526 C446 527 444 528 442 528 L321 528 C319 528 316 526 315 524 C313 522 314 518 316 517 L329 504 L279 407 L247 469 L259 482 C260 483 260 484 260 485 C260 488 260 490 259 491 L224 526 C222 527 220 528 218 528 L98 528 C96 528 93 526 92 524 C91 522 91 518 93 517 L106 503 L218 250 L218 25 L207 12 C204 10 204 7 205 4 C205 4 206 3 207 2 L242 -33 C243 -34 245 -35 247 -35 L367 -35 C370 -35 371 -33 373 -30 C374 -29 373 -26 371 -23 L360 -10 L360 215 L469 467 L483 482 C484 483 484 486 483 489 C483 490 483 491 483 491 L483 491 Z " />
<glyph glyph-name="z" unicode="z" horiz-adv-x="486" d="M98 528 C95 528 91 525 91 521 L91 422 C91 419 92 417 94 416 L129 380 C130 380 131 380 132 380 C132 379 133 379 134 379 C136 379 138 380 139 380 L151 393 L267 393 L94 99 C93 98 93 98 93 96 L93 7 C93 5 94 4 95 2 L130 -33 C132 -34 133 -35 135 -35 L445 -35 C448 -35 451 -32 451 -29 L451 72 C451 73 451 75 449 77 L414 112 C414 113 413 114 412 114 C411 114 410 115 409 115 C408 115 406 114 405 112 L391 100 L277 100 L449 393 C450 394 450 396 450 397 L450 485 C450 488 449 490 448 491 L413 526 C412 527 410 528 408 528 L98 528 Z " />
<glyph glyph-name="braceleft" unicode="&#x7b;" horiz-adv-x="351" d="M101 247 C112 234 118 209 119 178 C120 146 115 107 106 63 C103 43 103 24 106 6 C109 -11 116 -27 126 -39 L132 -47 L167 -82 C185 -99 210 -108 241 -108 L310 -108 C313 -108 316 -105 316 -102 L316 8 C316 9 315 11 314 12 L279 47 C278 47 277 48 277 48 C276 49 275 49 275 49 C273 49 271 48 269 47 L256 35 L244 35 C243 41 244 47 245 53 L252 77 C256 98 263 121 262 145 C262 175 254 200 237 224 C254 247 262 273 262 302 C263 328 256 350 252 370 C249 379 247 388 245 395 C242 412 244 427 253 437 C258 444 267 447 277 447 L292 447 L304 435 C306 434 308 433 310 433 L312 433 C314 435 316 438 316 440 L316 549 C316 551 315 553 314 554 L279 589 C277 591 276 592 275 592 L205 592 C172 592 144 579 126 558 C116 544 109 530 106 512 C103 495 103 476 106 456 C115 410 120 371 119 341 C118 303 109 277 94 264 C92 263 91 261 91 259 C91 257 92 256 94 254 L101 247 Z " />
<glyph glyph-name="bar" unicode="&#x7c;" horiz-adv-x="267" d="M234 523 C231 528 226 532 222 535 C218 540 213 545 208 549 C205 551 203 555 200 557 C198 560 195 563 192 563 L100 563 C96 563 92 560 92 557 L92 -30 C92 -34 91 -40 96 -44 C98 -48 102 -49 104 -52 C107 -56 111 -60 115 -64 C118 -66 121 -69 123 -72 C125 -74 130 -79 133 -79 L216 -79 C221 -79 234 -82 234 -72 L234 523 Z " />
<glyph glyph-name="braceright" unicode="&#x7d;" horiz-adv-x="351" d="M316 218 C318 219 319 221 319 224 C319 226 318 227 317 229 L311 236 C298 250 293 273 292 305 C291 337 294 375 304 421 C308 440 309 459 305 477 C302 494 294 509 285 522 L278 528 L243 564 C225 582 200 592 170 592 L101 592 C98 592 94 588 94 585 L94 475 C94 474 95 472 97 470 L133 433 L137 433 C139 433 141 434 141 435 L155 447 L166 447 C166 442 166 436 165 430 C164 423 161 414 159 406 C154 386 148 363 148 337 C148 308 157 283 175 259 C157 236 148 210 148 181 C148 156 154 132 159 113 C161 104 164 96 165 88 C168 70 166 55 158 47 C152 39 143 35 133 35 L119 35 L106 47 C105 48 104 49 101 49 C100 49 99 49 98 48 C96 47 94 46 94 43 L94 -66 C94 -68 95 -70 97 -71 L132 -107 C132 -107 134 -108 137 -108 L205 -108 C238 -108 266 -97 285 -74 C294 -62 302 -48 305 -29 C309 -12 308 7 304 27 C294 72 291 111 292 142 C293 180 301 206 316 218 L316 218 Z " />
<glyph glyph-name="asciitilde" unicode="&#x7e;" horiz-adv-x="507" d="M118 231 C130 214 146 200 161 185 C175 170 192 158 212 152 C233 147 256 147 277 153 C287 157 296 161 305 166 C308 168 329 184 329 183 C332 184 335 185 338 185 L358 166 C361 163 364 160 368 158 C370 154 373 149 377 149 L460 149 C464 149 468 149 471 152 C474 155 473 158 473 161 C471 179 466 196 460 212 C457 219 453 226 448 235 L441 244 L437 249 C436 250 433 252 433 253 L408 277 C402 285 394 293 385 299 C367 312 346 317 324 317 C302 316 280 312 262 298 C255 294 248 286 239 281 L235 278 C233 277 229 277 227 278 C225 281 220 285 218 288 L213 294 C211 294 209 296 208 298 L199 308 C195 311 192 316 187 316 L100 316 C91 316 93 304 94 298 C95 289 97 280 99 271 C104 259 107 248 114 237 L118 231 Z M115 236 C114 237 113 237 113 239 C113 238 114 237 114 237 C115 237 115 236 115 236 L115 236 Z " />
<glyph glyph-name="exclamdown" unicode="&#xa1;" horiz-adv-x="382" d="M252 202 C252 204 252 206 251 207 L219 237 C248 247 268 274 268 304 C268 324 260 341 247 354 L212 389 C199 402 181 410 162 410 C123 410 91 379 91 339 C91 320 99 303 112 290 L148 254 C151 251 156 247 160 244 L123 244 C118 244 115 242 115 237 L94 -118 L94 -119 C94 -121 94 -124 96 -124 L131 -159 C132 -161 134 -162 136 -162 L267 -162 C269 -162 270 -161 272 -159 C273 -159 274 -156 274 -154 L252 202 Z " />
<glyph glyph-name="cent" unicode="&#xa2;" horiz-adv-x="464" d="M429 276 C429 294 428 314 423 332 C420 342 416 351 411 359 L404 370 L398 376 C397 378 394 380 393 381 C373 400 355 423 330 434 C328 435 325 437 321 438 C320 439 320 440 320 441 L320 470 C320 475 313 481 310 484 C304 489 300 494 294 499 C293 500 290 503 287 506 C285 508 282 512 277 512 L209 512 C205 512 201 509 201 505 L201 448 C201 446 200 446 199 446 C199 446 197 446 196 446 L186 444 C166 440 145 431 129 416 C113 402 104 383 98 363 C91 338 92 313 92 289 L92 210 C92 187 94 164 102 142 C105 132 111 123 118 114 C125 104 135 96 142 87 C151 80 160 70 169 64 C179 55 189 50 200 47 C202 47 201 46 201 43 L201 13 C201 11 201 8 204 5 C207 2 210 -1 214 -4 C218 -7 220 -11 225 -14 L233 -23 C235 -26 238 -30 243 -30 L309 -30 C312 -30 314 -30 317 -29 C321 -26 320 -19 320 -13 L320 38 C322 38 324 38 326 39 C349 43 371 50 389 65 C406 79 417 98 423 119 C427 135 429 151 429 167 C430 177 429 186 429 196 L429 209 C429 212 430 218 427 218 L405 242 C401 243 399 247 397 250 C394 252 391 256 388 256 L303 256 C296 256 294 247 297 243 L307 234 C307 210 303 183 282 169 C272 162 260 161 248 161 C238 161 229 161 219 163 C215 180 216 199 216 217 L216 255 C216 277 219 303 241 316 C252 323 263 325 275 325 C284 325 294 325 302 322 L304 312 L297 304 C295 303 294 301 294 298 C294 294 300 291 303 287 C307 283 312 279 314 275 C318 272 321 268 326 265 C329 261 332 257 336 257 L409 257 C414 257 419 256 423 257 C431 258 429 270 429 276 L429 276 Z " />
<glyph glyph-name="sterling" unicode="&#xa3;" horiz-adv-x="544" d="M509 175 C509 176 508 178 508 178 C500 185 492 195 484 201 C482 203 480 207 477 209 C474 212 472 216 467 216 L362 216 C355 216 352 207 356 202 L370 190 L370 184 C370 166 367 148 358 131 C348 112 330 103 309 100 C296 98 285 99 273 99 L268 99 C265 99 266 100 266 103 L266 170 C266 173 268 172 269 172 L329 172 C333 172 343 171 343 179 L343 270 C343 276 335 281 332 285 L317 298 L311 306 C307 309 304 313 301 313 L267 313 C268 335 270 360 285 378 C291 386 300 391 311 392 C316 392 322 392 329 391 C331 391 334 391 337 390 C338 388 339 384 340 380 C340 375 338 370 338 364 C338 362 339 359 341 357 C345 353 349 350 352 346 L365 334 C370 329 377 318 386 323 L399 333 L459 376 L479 390 C484 394 482 399 480 404 L470 420 C465 430 457 440 448 448 L423 474 C414 483 406 491 397 499 C378 514 355 524 332 529 C314 534 296 534 278 534 L269 534 C225 534 182 513 156 478 C142 461 132 440 128 419 C125 406 125 394 125 381 L125 316 C125 314 125 313 123 313 L98 313 C95 313 91 310 91 306 L91 218 C91 214 91 209 95 207 C97 204 99 202 102 200 C104 197 107 194 110 192 C115 186 120 180 125 176 L125 8 C125 4 124 2 128 -1 C131 -5 134 -7 137 -10 L148 -21 C150 -23 153 -27 157 -29 C158 -31 162 -36 166 -36 L322 -36 C368 -36 416 -32 456 -7 C483 11 499 40 505 72 C508 88 509 105 509 123 L509 164 C509 167 510 172 509 175 L509 175 Z " />
<glyph glyph-name="currency" unicode="&#xa4;" horiz-adv-x="577" d="M446 486 L397 439 C371 448 337 453 299 453 C260 453 226 448 200 439 L188 451 L152 486 C151 488 149 489 148 489 C145 489 143 488 142 486 L94 438 C92 437 91 435 91 432 C91 431 92 429 94 428 L129 392 L137 385 C123 360 116 329 116 287 L116 237 C116 196 123 164 137 140 L94 97 C90 94 90 89 94 86 L178 3 C180 1 181 0 183 0 C184 0 186 1 188 3 L236 50 C262 41 294 36 334 36 C373 36 406 41 432 50 L481 3 C483 1 484 0 485 0 C487 0 489 1 491 3 L540 51 C542 54 542 58 540 61 L497 104 C510 129 517 161 517 201 L517 252 C517 294 510 325 497 350 L540 392 C542 396 542 400 540 403 L456 486 C454 488 452 489 450 489 C448 489 447 488 446 486 L446 486 Z M376 264 L376 260 C376 235 370 216 360 201 C348 186 329 179 304 179 L294 179 C284 179 275 180 264 183 C260 195 257 209 257 226 L257 229 C257 255 263 275 274 288 C286 303 304 312 329 312 L339 312 C349 312 359 310 369 306 C373 295 376 281 376 264 L376 264 Z " />
<glyph glyph-name="yen" unicode="&#xa5;" horiz-adv-x="518" d="M469 468 L483 482 C483 483 484 484 484 486 C484 488 483 490 483 491 L446 526 C446 527 444 528 442 528 L321 528 C319 528 316 526 315 524 C313 522 314 519 316 517 L329 504 L279 408 L247 469 L259 482 C260 483 261 486 260 489 L259 491 L224 526 C222 527 220 528 218 528 L98 528 C96 528 93 526 92 524 C91 522 91 519 93 517 L106 503 L198 297 L176 297 C172 297 168 294 168 291 L168 221 C168 219 169 218 171 217 L195 192 L176 192 C172 192 168 190 168 185 L168 116 C168 115 169 113 171 111 L206 76 C208 75 209 74 211 74 L218 74 L218 25 L207 12 C204 10 204 7 205 4 C205 4 206 3 207 3 L242 -33 C243 -34 245 -35 247 -35 L367 -35 C370 -35 371 -33 373 -30 C374 -29 373 -25 371 -23 L360 -10 L360 74 L403 74 C406 74 409 77 409 81 L409 150 C409 152 408 154 408 155 L384 180 L403 180 C406 180 409 182 409 186 L409 256 C409 257 408 259 408 260 L389 279 L469 468 Z " />
<glyph glyph-name="brokenbar" unicode="&#xa6;" horiz-adv-x="267" d="M233 -71 L233 194 C233 196 232 198 231 199 L195 235 C194 235 192 236 190 236 L98 236 C95 236 91 234 91 229 L91 -36 C91 -38 92 -39 94 -40 L129 -76 C130 -77 132 -78 134 -78 L226 -78 C229 -78 233 -74 233 -71 L233 -71 Z M190 564 L98 564 C95 564 91 560 91 558 L91 293 C91 291 92 289 94 287 L129 252 C130 252 132 251 134 251 L226 251 C229 251 233 253 233 257 L233 522 C233 524 232 525 231 526 L195 562 C194 563 192 564 190 564 L190 564 Z " />
<glyph glyph-name="section" unicode="&#xa7;" horiz-adv-x="542" d="M474 287 L439 322 C419 342 389 361 350 378 C328 387 312 394 298 400 L298 403 C300 417 326 429 347 429 C351 429 354 428 359 428 C364 427 370 426 373 423 L372 416 C371 414 372 411 374 409 L409 374 C410 373 410 373 411 373 C412 372 414 371 414 371 C416 371 417 372 419 373 L489 420 C491 422 492 426 491 428 C484 444 473 464 457 480 L422 515 C420 517 417 519 414 521 C390 542 361 551 322 551 C277 551 237 541 210 519 C181 498 166 466 165 430 C165 414 167 399 174 386 C149 377 129 363 115 345 C100 326 92 303 91 276 C90 247 103 220 125 197 L161 161 L170 153 C191 136 218 121 254 106 C271 99 285 93 295 87 C296 84 296 81 295 77 C294 64 290 54 280 47 C272 41 260 38 246 38 C237 38 226 41 218 46 L219 61 C219 64 219 65 218 66 L182 102 C182 103 181 103 181 104 C180 104 179 104 178 104 C176 104 175 104 174 103 L100 47 C98 44 98 41 98 38 C100 30 107 12 124 -5 C125 -6 126 -6 126 -7 L162 -42 C175 -55 190 -65 207 -72 C229 -82 256 -86 285 -86 C340 -86 381 -67 407 -31 C428 0 432 37 432 56 C433 65 432 73 431 81 C459 94 481 116 493 146 C503 171 506 197 506 209 C507 235 500 257 483 277 L474 287 Z M332 200 C328 200 322 201 317 204 L286 218 L275 222 C254 231 237 238 225 244 L225 250 C226 264 252 275 274 275 C277 275 281 275 286 275 C290 274 303 269 326 260 L328 259 C345 253 358 246 370 240 C370 237 370 235 370 231 C368 217 354 200 332 200 L332 200 Z " />
<glyph glyph-name="dieresis" unicode="&#xa8;" horiz-adv-x="330" d="M166 525 C158 533 151 540 141 542 C131 545 121 543 112 540 C94 529 86 505 96 486 C101 476 111 468 119 460 C127 452 135 442 145 436 C164 425 190 431 200 451 C202 456 204 461 204 465 C210 461 216 455 221 448 C226 444 233 438 239 434 C252 428 269 430 279 439 C292 447 297 461 295 475 C294 483 292 489 287 494 L278 503 C277 505 275 506 275 508 L270 511 C256 525 243 543 221 543 C200 543 184 527 183 508 C177 513 172 519 166 525 L166 525 Z " />
<glyph glyph-name="copyright" unicode="&#xa9;" horiz-adv-x="538" d="M264 465 C218 465 175 447 142 414 C109 382 91 338 91 294 L91 243 C91 197 109 154 142 122 L178 85 C210 53 253 35 299 35 L330 35 C376 35 419 53 452 85 C484 118 503 161 503 208 L503 258 C503 303 484 347 452 380 L416 414 C384 447 340 465 294 465 L264 465 Z M318 289 L334 272 L321 272 C319 272 316 270 315 268 C313 265 314 262 316 260 L320 257 L320 254 C320 227 310 218 282 218 L275 218 C275 219 275 223 275 226 L275 244 C275 257 277 268 282 275 C288 285 297 289 312 289 L318 289 Z M199 183 L237 145 L240 142 C230 145 220 149 211 156 C206 164 201 174 199 183 C199 183 199 183 199 183 L199 183 Z M393 329 L360 362 C369 359 375 354 383 351 C388 344 390 336 393 329 L393 329 Z M399 247 L393 253 L399 253 L399 247 Z " />
<glyph glyph-name="ordfeminine" unicode="&#xaa;" horiz-adv-x="274" d="M47 337 L64 319 C65 319 66 318 67 318 L127 318 C128 318 129 319 130 321 C130 321 130 323 129 324 L123 330 L136 377 L182 377 L190 348 L184 342 C183 341 182 339 183 338 C183 338 184 337 184 337 L202 319 C202 319 203 318 204 318 L264 318 C265 318 267 319 267 321 C268 321 267 323 267 324 L260 331 L195 570 L200 577 C200 578 201 579 200 580 C200 581 199 581 199 581 L181 599 C181 599 180 600 179 600 L116 600 C115 600 114 599 113 598 C113 597 113 596 113 594 L117 588 L53 348 L46 342 C45 341 45 339 46 338 C46 338 46 337 47 337 L47 337 Z M164 444 L154 444 L159 463 L164 444 Z " />
<glyph glyph-name="guillemotleft" unicode="&#xab;" horiz-adv-x="568" d="M497 428 C496 429 495 429 495 430 C493 430 492 431 491 431 C490 431 489 430 487 429 L341 333 L341 389 C341 389 340 391 339 393 L304 428 C303 429 303 429 303 430 C301 430 300 431 299 431 C297 431 296 430 294 429 L95 298 C93 296 91 294 91 293 L91 236 C91 235 92 233 94 231 L129 196 C129 195 130 195 130 195 L331 64 C332 64 332 64 334 64 C335 64 337 64 337 64 C340 65 341 67 341 70 L341 161 C341 163 340 165 339 166 L304 201 L302 203 L224 238 L284 266 L284 236 C284 235 285 233 286 231 L321 196 C321 195 322 195 322 195 L522 64 C524 64 525 64 526 64 C527 64 529 64 530 64 C533 65 534 67 534 70 L534 161 C534 163 533 165 532 166 L497 201 L494 203 L416 238 L529 291 C532 292 534 294 534 296 L534 389 C534 389 533 391 532 393 L497 428 Z " />
<glyph glyph-name="logicalnot" unicode="&#xac;" horiz-adv-x="433" d="M397 308 L362 344 C360 345 358 346 356 346 L98 346 C95 346 91 342 91 338 L91 269 C91 268 92 266 94 264 L129 229 C130 227 132 227 134 227 L280 227 L280 206 C280 204 281 202 282 201 L318 166 C319 165 320 164 322 164 L391 164 C396 164 398 167 398 171 L398 303 C398 305 397 307 397 308 L397 308 Z " />
<glyph glyph-name="uni00AD" unicode="&#xad;" horiz-adv-x="367" d="M91 311 L91 241 C91 239 92 237 94 236 L129 200 C130 199 132 199 134 199 L326 199 C329 199 332 201 332 206 L332 275 C332 277 332 278 330 279 L294 314 C294 316 293 317 290 317 L98 317 C95 317 91 313 91 311 L91 311 Z " />
<glyph glyph-name="registered" unicode="&#xae;" horiz-adv-x="474" d="M394 223 C424 255 440 295 440 339 C440 383 424 425 394 456 L391 459 L355 494 C327 523 288 540 248 540 C207 540 167 522 138 491 C107 460 91 419 91 374 C91 331 107 290 138 258 L141 256 L176 220 C205 191 243 175 284 175 C325 175 364 192 394 223 L394 223 Z M335 441 C346 423 352 403 352 381 L352 372 C352 347 343 321 328 302 L324 308 C337 317 344 332 344 352 L344 373 C344 391 338 406 329 414 L294 449 C292 452 289 454 286 456 C303 456 320 450 335 441 L335 441 Z M180 337 L180 346 C180 365 184 383 193 399 L193 302 C191 300 191 297 192 294 C192 294 192 294 193 294 L218 268 C210 270 203 274 197 277 C185 294 180 316 180 337 L180 337 Z M271 266 L271 267 L270 267 L270 286 L286 270 C281 269 276 267 271 266 L271 266 Z " />
<glyph glyph-name="macron" unicode="&#xaf;" horiz-adv-x="367" d="M91 532 L91 479 C91 476 92 474 94 474 L129 438 C130 437 132 436 134 436 L326 436 C329 436 332 440 332 443 L332 497 C332 499 332 500 330 502 L294 537 C294 538 293 539 290 539 L98 539 C95 539 91 536 91 532 L91 532 Z " />
<glyph glyph-name="degree" unicode="&#xb0;" horiz-adv-x="322" d="M288 470 C288 494 283 510 272 522 C272 523 271 524 270 524 L235 560 C222 573 201 579 172 579 C142 579 121 572 107 559 C97 546 91 529 91 505 L91 484 C91 460 97 444 107 431 C107 431 108 431 109 430 L144 395 C158 381 178 375 208 375 C237 375 259 382 272 397 C283 408 288 425 288 448 L288 470 L288 470 Z M182 467 C183 476 186 484 198 487 C197 479 193 470 182 467 L182 467 Z " />
<glyph glyph-name="plusminus" unicode="&#xb1;" horiz-adv-x="367" d="M332 89 L332 159 C332 161 332 162 330 164 L294 199 C294 200 293 200 290 200 L273 200 L273 244 L326 244 C329 244 332 248 332 252 L332 320 C332 322 332 324 330 326 L294 361 C294 362 293 363 290 363 L273 363 L273 381 C273 384 272 386 271 387 L235 423 C235 423 233 424 230 424 L158 424 C155 424 151 421 151 417 L151 363 L98 363 C95 363 91 360 91 355 L91 286 C91 285 92 283 94 282 L129 246 C130 245 132 244 134 244 L151 244 L151 226 C151 224 152 221 153 220 L173 200 L98 200 C95 200 91 199 91 194 L91 124 C91 123 92 122 94 121 L129 85 C130 84 132 83 134 83 L326 83 C329 83 332 85 332 89 L332 89 Z " />
<glyph glyph-name="twosuperior" unicode="&#xb2;" horiz-adv-x="274" d="M63 576 C52 563 45 547 46 531 C46 530 47 530 48 529 L65 511 C66 511 66 511 66 511 L116 482 C116 482 117 482 117 482 C118 482 119 482 120 483 C121 483 121 485 120 487 L117 494 C116 504 119 516 126 522 C132 529 139 532 148 532 C153 532 157 531 161 530 C164 523 164 517 161 510 C155 498 142 491 126 483 C113 475 98 467 83 454 C50 427 46 399 47 385 L47 339 C47 338 48 338 49 337 L66 319 C67 319 68 318 69 318 L224 318 C226 318 228 320 228 321 L228 375 C228 376 227 376 227 377 L209 395 C209 395 208 395 208 396 L206 396 C205 396 204 396 204 395 L198 389 L139 389 C145 393 152 397 161 402 C168 407 177 412 187 418 C223 443 240 471 237 504 C236 527 228 546 213 560 L195 578 C194 579 194 580 193 581 C176 596 155 603 130 603 C104 603 80 593 63 576 L63 576 Z " />
<glyph glyph-name="threesuperior" unicode="&#xb3;" horiz-adv-x="263" d="M52 600 C49 600 48 598 48 597 L48 543 C48 542 48 541 49 541 L66 523 C67 523 67 522 68 522 C68 522 69 522 69 522 C70 522 71 522 71 523 L78 530 L105 530 L65 493 C64 493 64 492 64 491 L64 446 C64 445 64 445 65 444 L82 426 C83 426 83 426 83 426 C83 425 84 425 85 425 L86 425 C90 427 105 432 127 432 L128 432 C137 432 145 430 151 426 C152 423 154 419 154 415 C154 408 151 401 147 396 C140 389 132 385 121 385 C117 385 113 386 110 388 C109 389 109 390 109 390 L109 397 L109 397 C109 399 109 400 109 400 L91 418 C90 419 90 419 88 419 C87 419 87 419 86 418 L47 387 C46 386 45 385 46 383 C49 373 55 364 62 356 L80 339 C85 334 90 331 95 327 C109 319 126 314 143 314 C165 314 185 321 200 333 C209 341 215 350 220 360 C225 372 227 386 227 401 C227 415 224 428 217 440 C214 445 211 449 206 453 L189 471 C185 474 181 478 177 481 L172 483 L219 530 C220 530 220 530 220 531 L220 578 C220 580 219 581 219 581 L201 598 C200 599 199 600 198 600 L52 600 Z " />
<glyph glyph-name="acute" unicode="&#xb4;" horiz-adv-x="251" d="M189 534 C186 537 183 539 182 541 C180 542 178 545 175 545 L119 545 C114 545 107 546 106 540 C104 529 102 518 99 507 C98 500 97 492 95 484 C94 482 92 477 93 474 C92 470 96 466 98 465 L106 457 C108 454 111 452 114 449 C116 447 119 444 122 442 C123 440 125 437 128 435 C132 431 138 431 142 431 L158 431 C162 431 169 431 172 435 L216 500 C220 505 209 513 205 517 L191 533 C190 533 189 534 189 534 L189 534 Z " />
<glyph glyph-name="mu" unicode="&#xb5;" horiz-adv-x="596" d="M93 11 C91 9 91 7 92 4 C92 3 93 3 94 2 L129 -33 C130 -35 132 -36 134 -36 L254 -36 C256 -36 259 -34 260 -31 C261 -29 260 -26 259 -24 L247 -11 L247 285 L302 215 L303 214 C303 213 303 213 303 212 L338 177 C340 176 342 175 344 175 C346 175 348 176 350 178 L362 197 L406 258 L406 24 L393 11 C390 9 390 7 391 4 L428 -33 C430 -35 431 -36 433 -36 L553 -36 C557 -36 560 -34 560 -31 C560 -29 560 -26 559 -24 L546 -11 L546 467 L559 481 C560 483 560 485 560 488 C560 489 560 490 559 491 L523 525 C522 527 520 527 518 527 L410 527 C408 527 406 526 405 525 L317 396 L247 490 L247 491 L211 525 C210 527 209 527 207 527 L98 527 C96 527 93 525 92 523 C91 521 91 518 93 516 L106 503 L106 24 L93 11 Z " />
<glyph glyph-name="paragraph" unicode="&#xb6;" horiz-adv-x="583" d="M395 -30 C397 -29 396 -26 394 -23 L381 -10 L381 2 L416 -33 C418 -34 420 -35 422 -35 L542 -35 C544 -35 547 -33 548 -30 C549 -29 549 -26 546 -23 L534 -10 L534 468 L546 481 C548 483 549 484 549 485 C549 487 548 490 546 491 L511 525 C510 527 508 528 506 528 L224 528 C224 528 223 528 222 527 C176 525 142 510 120 483 C101 459 91 426 91 384 L91 283 C91 241 104 206 124 182 C126 180 128 178 130 177 L165 141 C183 123 209 110 241 106 L241 25 L228 12 C226 10 226 7 226 4 C227 4 228 3 228 2 L264 -33 C265 -34 267 -35 269 -35 L389 -35 C391 -35 394 -33 395 -30 L395 -30 Z M393 393 L393 25 L381 12 L381 393 L393 393 Z " />
<glyph glyph-name="periodcentered" unicode="&#xb7;" horiz-adv-x="303" d="M212 327 C199 339 181 347 162 347 C123 347 91 316 91 277 C91 258 99 240 112 226 L148 191 C161 179 178 171 198 171 C236 171 268 203 268 241 C268 260 260 279 247 292 L212 327 Z " />
<glyph glyph-name="cedilla" unicode="&#xb8;" horiz-adv-x="304" d="M131 -102 L115 -102 C113 -102 110 -103 109 -105 C107 -105 106 -107 106 -109 L106 -167 C106 -169 107 -171 109 -172 L144 -208 C146 -209 148 -210 149 -210 L190 -210 C218 -210 238 -203 252 -191 C263 -179 269 -160 269 -133 L269 -118 C269 -95 267 -77 258 -65 L255 -61 L218 -26 C213 -20 206 -16 198 -14 C198 -13 198 -13 197 -13 L161 22 C161 23 158 24 157 24 L98 24 C95 24 91 21 91 17 L91 -20 C91 -47 93 -63 101 -72 C102 -73 102 -73 103 -73 L131 -102 Z " />
<glyph glyph-name="onesuperior" unicode="&#xb9;" horiz-adv-x="189" d="M49 506 L66 489 C66 488 67 488 68 488 C68 488 68 487 69 487 C70 487 71 488 71 490 L76 497 L76 348 L70 342 C69 341 69 339 70 338 C70 338 70 337 70 337 L88 319 C88 319 89 318 90 318 L150 318 C151 318 153 319 153 321 C154 321 154 323 153 324 L147 331 L147 570 L153 576 C154 577 154 578 153 580 C153 580 153 581 153 581 L135 598 C134 599 134 600 132 600 L79 600 C78 600 76 599 76 598 L46 558 C46 557 45 556 45 555 L47 509 C47 508 48 507 49 506 L49 506 Z " />
<glyph glyph-name="ordmasculine" unicode="&#xba;" horiz-adv-x="322" d="M288 470 C288 494 283 510 272 522 C272 523 271 524 270 524 L235 560 C222 573 201 579 172 579 C142 579 121 572 107 559 C97 546 91 529 91 505 L91 484 C91 460 97 444 107 431 C107 431 108 431 109 430 L144 395 C158 381 178 375 208 375 C237 375 259 382 272 397 C283 408 288 425 288 448 L288 470 L288 470 Z M182 467 C183 476 186 484 198 487 C197 479 193 470 182 467 L182 467 Z " />
<glyph glyph-name="guillemotright" unicode="&#xbb;" horiz-adv-x="568" d="M284 105 C284 104 285 102 286 100 L321 65 C321 65 322 64 323 64 C324 64 325 64 327 64 C328 64 329 64 330 64 L530 195 C533 196 534 199 534 200 L534 257 C534 259 533 260 532 262 L497 297 C496 297 496 298 495 298 L294 429 C294 430 293 430 291 430 C290 430 289 430 287 429 C286 428 284 426 284 423 L284 332 C284 330 285 329 286 328 L321 292 C322 292 322 291 323 291 L401 255 L341 227 L341 257 C341 259 340 260 339 262 L304 297 C303 297 303 298 303 298 L103 429 C102 430 100 430 98 430 C98 430 97 430 95 429 C93 428 91 426 91 423 L91 332 C91 330 92 329 94 328 L129 292 C130 292 130 291 131 291 L209 255 L96 202 C93 201 91 199 91 197 L91 105 C91 104 92 102 94 100 L129 65 C129 65 130 64 131 64 C132 64 132 64 134 64 C135 64 137 64 138 64 L284 159 L284 105 Z " />
<glyph glyph-name="onequarter" unicode="&#xbc;" horiz-adv-x="876" d="M597 487 C598 493 591 499 587 502 C583 504 581 508 578 510 C577 511 571 517 571 518 C568 520 566 523 563 525 C561 528 558 531 555 531 L478 531 C472 531 460 534 457 526 L261 -2 C260 -3 260 -4 260 -5 C260 -10 264 -12 267 -14 L278 -26 C282 -30 285 -33 290 -37 C292 -40 296 -47 301 -47 L380 -47 C387 -47 398 -48 401 -42 L419 7 L463 124 C481 174 499 222 517 271 L566 403 L595 480 L597 487 Z M73 389 L99 362 C100 362 100 361 102 361 C102 361 103 360 103 360 C106 360 106 362 107 364 L115 375 L115 152 L106 142 C104 140 103 138 105 136 C105 136 106 135 106 134 L132 108 C133 107 134 107 136 107 L226 107 C227 107 229 108 230 110 C232 111 231 113 229 116 L220 125 L220 484 L229 494 C231 495 232 497 230 499 C230 500 229 500 229 501 L202 527 C202 528 201 529 199 529 L118 529 C117 529 115 527 114 527 L70 466 C69 464 68 463 68 462 L71 392 C71 392 72 390 73 389 L73 389 Z M539 178 L539 112 C539 111 540 109 541 108 L568 82 C568 80 570 79 571 79 L688 79 L688 19 L679 9 C677 7 677 5 677 3 L679 1 L706 -25 C706 -26 707 -26 709 -26 L799 -26 C801 -26 803 -25 804 -23 C805 -22 805 -20 803 -17 L793 -8 L793 79 L822 79 L832 71 C833 70 834 69 835 69 C836 69 837 70 838 70 C839 70 841 73 841 75 L841 150 C841 151 840 152 839 154 L814 180 C812 181 811 182 809 182 L793 182 L793 350 L803 361 C805 362 805 364 804 366 C804 367 803 367 803 368 L776 394 C775 395 775 396 772 396 L691 396 C691 396 688 394 688 394 L541 181 C540 181 539 179 539 178 L539 178 Z M673 182 L688 205 L688 182 L673 182 Z " />
<glyph glyph-name="onehalf" unicode="&#xbd;" horiz-adv-x="908" d="M597 487 C598 493 591 499 587 502 C583 504 581 508 578 510 C577 511 571 517 571 518 C568 520 566 523 563 525 C561 528 558 531 555 531 L478 531 C472 531 460 534 457 526 L261 -2 C260 -3 260 -4 260 -5 C260 -10 264 -12 267 -14 L278 -26 C282 -30 285 -33 290 -37 C292 -40 296 -47 301 -47 L380 -47 C387 -47 398 -48 401 -42 L419 7 L463 124 C481 174 499 222 517 271 L566 403 L595 480 L597 487 Z M73 389 L99 362 C100 362 100 361 102 361 C102 361 103 360 103 360 C106 360 106 362 107 364 L115 375 L115 152 L106 142 C104 140 103 138 105 136 C105 136 106 135 106 134 L132 108 C133 107 134 107 136 107 L226 107 C227 107 229 108 230 110 C232 111 231 113 229 116 L220 125 L220 484 L229 494 C231 495 232 497 230 499 C230 500 229 500 229 501 L202 527 C202 528 201 529 199 529 L118 529 C117 529 115 527 114 527 L70 466 C69 464 68 463 68 462 L71 392 C71 392 72 390 73 389 L73 389 Z M612 361 C595 341 585 317 587 292 C587 292 587 291 589 289 L615 263 C616 262 616 262 616 262 L691 220 C692 219 693 219 693 219 C695 219 695 220 697 220 C698 221 699 224 698 226 L692 238 C692 253 696 270 707 280 C715 290 726 294 740 294 C747 294 753 292 759 292 C764 281 764 271 758 262 C750 243 731 233 706 220 C686 208 665 197 641 178 C592 136 587 94 588 74 L588 5 C588 4 589 3 590 1 L616 -25 C617 -26 619 -26 620 -26 L853 -26 C856 -26 859 -24 859 -22 L859 58 C859 60 858 61 857 62 L830 88 C830 89 830 89 829 90 L827 90 C825 90 824 90 823 88 L814 79 L726 79 C735 85 746 92 758 100 C770 106 783 115 797 124 C851 160 878 203 873 253 C872 286 859 316 837 337 L810 363 C809 365 808 367 806 368 C782 390 750 401 713 401 C674 401 637 386 612 361 L612 361 Z " />
<glyph glyph-name="threequarters" unicode="&#xbe;" horiz-adv-x="947" d="M671 487 C672 493 665 499 661 502 C657 504 655 508 652 510 C651 511 645 517 645 518 C642 520 640 523 637 525 C635 528 632 531 629 531 L552 531 C546 531 534 534 531 526 L335 -2 C334 -3 334 -4 334 -5 C334 -10 338 -12 341 -14 L352 -26 C356 -30 359 -33 364 -37 C366 -40 370 -47 375 -47 L454 -47 C461 -47 472 -48 475 -42 L493 7 L537 124 C555 174 573 222 591 271 L640 403 L669 480 L671 487 Z M78 529 C74 529 72 527 72 524 L72 444 C72 443 73 441 73 440 L100 414 C100 413 101 413 102 413 C103 412 103 412 104 412 C106 412 106 413 107 413 L118 424 L157 424 L97 369 C97 368 96 368 96 366 L96 298 C96 296 97 296 97 296 L124 268 C124 268 124 268 124 268 C125 267 127 267 127 267 L130 267 C136 269 158 278 191 278 L193 278 C206 277 217 274 226 269 C229 264 231 257 231 252 C231 242 227 231 220 224 C211 212 198 207 182 207 C176 207 170 209 165 211 C164 212 163 214 163 215 L164 225 L164 225 C164 227 163 229 163 230 L136 256 C136 257 135 257 133 257 C131 257 130 257 130 257 L70 210 C69 209 67 206 69 204 C74 188 83 175 94 164 L121 137 C127 131 135 125 143 120 C163 108 189 101 214 101 C248 101 278 111 301 129 C313 140 323 154 330 170 C337 187 341 208 341 230 C341 252 336 271 325 289 C322 296 316 302 310 309 L283 335 C278 341 272 346 265 350 L259 354 L328 424 C330 425 330 425 330 426 L330 497 C330 499 329 500 328 501 L302 527 C301 528 299 529 298 529 L78 529 Z M610 178 L610 112 C610 111 611 109 612 108 L639 82 C639 80 641 79 642 79 L759 79 L759 19 L750 9 C748 7 748 5 748 3 L750 1 L777 -25 C777 -26 778 -26 780 -26 L870 -26 C872 -26 874 -25 875 -23 C876 -22 876 -20 874 -17 L864 -8 L864 79 L893 79 L903 71 C904 70 905 69 906 69 C907 69 908 70 909 70 C910 70 912 73 912 75 L912 150 C912 151 911 152 910 154 L885 180 C883 181 882 182 880 182 L864 182 L864 350 L874 361 C876 362 876 364 875 366 C875 367 874 367 874 368 L847 394 C846 395 846 396 843 396 L762 396 C762 396 759 394 759 394 L612 181 C611 181 610 179 610 178 L610 178 Z M744 182 L759 205 L759 182 L744 182 Z " />
<glyph glyph-name="questiondown" unicode="&#xbf;" horiz-adv-x="507" d="M471 -35 L434 2 L338 50 L349 58 C371 74 388 97 393 123 C398 142 397 160 397 174 C397 175 396 177 395 178 L363 210 C389 219 409 246 409 276 C409 295 401 313 389 327 L353 362 C340 374 322 382 303 382 C264 382 233 351 233 312 C233 293 241 275 253 261 L289 226 C294 222 298 218 303 216 L257 216 C256 216 254 215 253 213 C252 212 251 209 251 208 C252 194 250 181 240 168 C230 155 210 140 175 118 C146 102 125 82 112 59 C98 35 91 9 94 -20 C97 -53 111 -84 135 -107 L171 -143 C175 -148 180 -151 183 -156 C217 -181 260 -196 308 -196 C354 -196 403 -175 435 -141 C462 -111 475 -75 474 -39 C474 -38 473 -36 471 -35 L471 -35 Z M326 42 L334 22 C335 2 329 -20 314 -34 C303 -48 287 -53 269 -53 C263 -53 257 -53 252 -51 C252 -43 252 -32 256 -22 C261 -2 285 13 319 37 L326 42 Z " />
<glyph glyph-name="Agrave" unicode="&#xc0;" horiz-adv-x="571" d="M94 2 L129 -33 C130 -34 132 -35 134 -35 L254 -35 C256 -35 259 -33 260 -30 C261 -29 260 -26 259 -23 L247 -11 L272 82 L364 82 L380 24 L368 12 C366 10 365 7 367 4 C367 4 368 3 368 2 L404 -33 C405 -34 406 -35 408 -35 L528 -35 C531 -35 534 -33 534 -30 C536 -29 535 -26 534 -23 L521 -10 L391 469 L400 483 C401 484 402 487 400 489 C400 490 399 491 399 491 L363 526 C363 527 361 528 359 528 L233 528 C230 528 228 526 226 525 C226 522 226 520 226 517 L235 504 L106 25 L93 12 C91 10 91 7 92 4 C92 4 93 3 94 2 L94 2 Z M329 217 L308 217 L318 254 L329 217 Z M340 655 L305 691 C303 692 301 693 299 693 L247 693 C246 693 243 691 241 689 C240 686 240 685 241 683 L278 615 L315 578 C315 576 318 575 320 575 L346 575 C348 575 349 576 350 578 C352 580 352 582 352 584 L341 652 C341 653 341 654 340 655 L340 655 Z " />
<glyph glyph-name="Aacute" unicode="&#xc1;" horiz-adv-x="571" d="M94 2 L129 -33 C130 -34 132 -35 134 -35 L254 -35 C256 -35 259 -33 260 -30 C261 -29 260 -26 259 -23 L247 -11 L272 82 L364 82 L380 24 L368 12 C366 10 365 7 367 4 C367 4 368 3 368 2 L404 -33 C405 -34 406 -35 408 -35 L528 -35 C531 -35 534 -33 534 -30 C536 -29 535 -26 534 -23 L521 -10 L391 469 L400 483 C401 484 402 487 400 489 C400 490 399 491 399 491 L363 526 C363 527 361 528 359 528 L233 528 C230 528 228 526 226 525 C226 522 226 520 226 517 L235 504 L106 25 L93 12 C91 10 91 7 92 4 C92 4 93 3 94 2 L94 2 Z M329 217 L308 217 L318 254 L329 217 Z M282 684 L269 619 C269 618 269 616 271 614 C271 613 271 613 272 613 L307 578 C308 576 310 575 312 575 L342 575 C344 575 347 577 348 579 L392 644 C393 644 394 646 394 647 C394 649 393 651 392 652 L356 687 C355 688 353 689 351 689 L289 689 C286 689 283 686 282 684 L282 684 Z " />
<glyph glyph-name="Acircumflex" unicode="&#xc2;" horiz-adv-x="571" d="M94 2 L129 -33 C130 -34 132 -35 134 -35 L254 -35 C256 -35 259 -33 260 -30 C261 -29 260 -26 259 -23 L247 -11 L272 82 L364 82 L380 24 L368 12 C366 10 365 7 367 4 C367 4 368 3 368 2 L404 -33 C405 -34 406 -35 408 -35 L528 -35 C531 -35 534 -33 534 -30 C536 -29 535 -26 534 -23 L521 -10 L391 469 L400 483 C401 484 402 487 400 489 C400 490 399 491 399 491 L363 526 C363 527 361 528 359 528 L233 528 C230 528 228 526 226 525 C226 522 226 520 226 517 L235 504 L106 25 L93 12 C91 10 91 7 92 4 C92 4 93 3 94 2 L94 2 Z M329 217 L308 217 L318 254 L329 217 Z M191 625 C185 621 187 616 191 612 C193 610 196 607 198 604 C201 601 205 597 209 593 C213 591 216 586 218 584 C220 581 225 577 228 577 L284 577 C288 577 294 576 298 580 L324 611 L330 618 L332 615 L341 605 C346 601 349 598 352 594 C355 591 359 586 363 584 C365 581 369 577 372 577 L427 577 C433 577 444 576 445 583 C445 585 444 588 442 590 L419 624 L396 658 C391 663 388 668 383 673 C378 678 372 684 367 689 L358 697 C355 700 354 704 350 704 L269 704 C266 704 262 704 260 701 L191 625 Z " />
<glyph glyph-name="Atilde" unicode="&#xc3;" horiz-adv-x="571" d="M94 2 L129 -33 C130 -34 132 -35 134 -35 L254 -35 C256 -35 259 -33 260 -30 C261 -29 260 -26 259 -23 L247 -11 L272 82 L364 82 L380 24 L368 12 C366 10 365 7 367 4 C367 4 368 3 368 2 L404 -33 C405 -34 406 -35 408 -35 L528 -35 C531 -35 534 -33 534 -30 C536 -29 535 -26 534 -23 L521 -10 L391 469 L400 483 C401 484 402 487 400 489 C400 490 399 491 399 491 L363 526 C363 527 361 528 359 528 L233 528 C230 528 228 526 226 525 C226 522 226 520 226 517 L235 504 L106 25 L93 12 C91 10 91 7 92 4 C92 4 93 3 94 2 L94 2 Z M329 217 L308 217 L318 254 L329 217 Z M443 599 C440 616 431 634 420 647 C418 648 414 652 412 654 L392 673 C387 680 380 686 373 691 C360 701 342 704 326 701 C317 700 310 696 303 691 C295 686 291 680 285 675 C283 674 277 669 276 671 C274 675 270 678 267 681 L259 689 C255 691 253 695 250 695 L198 695 C185 695 192 675 192 669 C195 657 199 646 205 635 C212 625 219 617 228 609 C236 600 245 591 255 583 C272 567 296 563 318 570 C329 574 337 581 345 589 C348 592 351 595 356 597 C357 597 358 598 359 598 L363 594 C364 592 366 590 369 589 L377 581 C379 578 381 575 385 575 L428 575 C433 575 442 573 445 579 C446 582 445 585 445 589 C445 592 444 595 443 599 L443 599 Z " />
<glyph glyph-name="Adieresis" unicode="&#xc4;" horiz-adv-x="571" d="M94 2 L129 -33 C130 -34 132 -35 134 -35 L254 -35 C256 -35 259 -33 260 -30 C261 -29 260 -26 259 -23 L247 -11 L272 82 L364 82 L380 24 L368 12 C366 10 365 7 367 4 C367 4 368 3 368 2 L404 -33 C405 -34 406 -35 408 -35 L528 -35 C531 -35 534 -33 534 -30 C536 -29 535 -26 534 -23 L521 -10 L391 469 L400 483 C401 484 402 487 400 489 C400 490 399 491 399 491 L363 526 C363 527 361 528 359 528 L233 528 C230 528 228 526 226 525 C226 522 226 520 226 517 L235 504 L106 25 L93 12 C91 10 91 7 92 4 C92 4 93 3 94 2 L94 2 Z M329 217 L308 217 L318 254 L329 217 Z M416 613 C416 625 413 634 406 642 L370 677 C363 684 354 687 342 687 C321 687 304 671 304 652 L279 677 C271 684 262 687 252 687 C230 687 212 670 212 649 C212 638 217 628 224 622 L260 586 C266 579 276 575 287 575 C307 575 324 591 325 611 L350 586 C358 579 367 575 378 575 C399 575 416 592 416 613 L416 613 Z " />
<glyph glyph-name="Aring" unicode="&#xc5;" horiz-adv-x="570" d="M517 -9 L390 458 C390 459 390 459 391 459 C403 471 407 488 407 512 L407 534 C407 557 403 573 392 585 L361 619 L361 620 L359 622 C346 636 325 642 295 642 C265 642 244 636 231 620 C220 609 216 593 216 568 L216 547 C216 523 219 507 231 495 L232 493 L106 25 L93 12 C91 10 91 7 92 4 C92 4 93 3 93 3 L124 -33 C125 -34 128 -35 130 -35 L250 -35 C252 -35 255 -33 256 -30 C257 -29 256 -26 255 -24 L243 -10 L268 82 L364 82 L380 24 L368 12 C366 10 365 7 367 4 C367 4 367 3 368 3 L398 -33 L399 -33 C400 -34 402 -35 405 -35 L524 -35 C526 -35 529 -33 530 -30 C532 -29 531 -26 529 -24 L517 -9 Z M329 217 L303 217 L316 261 L329 217 Z M301 530 C303 540 307 550 321 551 C320 541 316 531 301 530 L301 530 Z " />
<glyph glyph-name="AE" unicode="&#xc6;" horiz-adv-x="733" d="M661 526 C659 527 657 528 655 528 L297 528 C294 528 293 526 292 524 C290 522 291 518 293 517 L305 503 L106 25 L93 12 C91 10 91 7 92 4 C92 4 93 3 94 2 L129 -33 C130 -34 132 -35 134 -35 L254 -35 C256 -35 259 -33 260 -30 C261 -29 260 -26 259 -23 L247 -11 L286 82 L377 82 L377 25 L364 12 C363 10 362 7 363 4 C363 4 364 3 364 2 L400 -33 C401 -34 403 -35 406 -35 L691 -35 C695 -35 697 -32 697 -29 L697 72 C697 73 696 75 696 77 L661 112 C660 113 659 114 658 114 C657 114 656 115 655 115 C654 115 653 114 651 112 L637 100 L517 100 L517 183 L635 183 L647 172 C648 170 650 169 653 169 C654 169 654 170 655 170 C657 171 659 174 659 177 L659 291 C659 294 658 294 656 295 L621 332 C620 332 619 332 619 332 C618 333 617 333 617 333 C615 333 613 332 611 332 L599 319 L517 319 L517 393 L674 393 L686 380 C688 380 689 379 691 379 C692 379 693 379 693 380 C696 380 697 383 697 386 L697 485 C697 488 696 490 696 491 L661 526 Z M377 300 L377 217 L342 217 L377 300 Z " />
<glyph glyph-name="Ccedilla" unicode="&#xc7;" horiz-adv-x="526" d="M453 460 L418 495 C389 525 341 539 275 539 C205 539 157 523 127 491 C103 465 91 427 91 372 L91 162 C91 107 103 70 127 44 L131 39 L166 4 C183 -13 206 -25 235 -31 C235 -59 236 -75 244 -85 C244 -86 245 -86 245 -86 L274 -115 L257 -115 C256 -115 254 -116 252 -116 C251 -118 251 -120 251 -122 L251 -180 C251 -181 251 -183 252 -184 L287 -219 C289 -221 291 -222 293 -222 L332 -222 C362 -222 381 -217 394 -203 C406 -191 412 -173 412 -145 L412 -131 C412 -107 409 -90 401 -78 L397 -73 L363 -39 L362 -39 C362 -38 361 -37 360 -37 C403 -30 434 -15 457 8 C481 35 492 72 492 126 L492 177 C492 180 491 181 490 182 L455 218 C453 218 451 219 449 219 L345 219 C342 219 339 218 337 216 C337 213 337 209 339 208 L351 195 L351 189 C351 162 346 141 336 127 C324 111 305 104 279 104 L269 104 C259 104 250 105 239 108 C235 120 233 135 233 154 L233 312 C233 337 237 359 248 372 C260 389 278 397 304 397 L314 397 C327 397 337 395 346 391 C348 387 350 380 351 373 L338 362 C337 359 336 356 337 354 L338 351 L373 316 C375 314 377 314 379 314 L484 314 C489 314 492 317 492 321 L492 337 C492 391 481 429 457 456 L453 460 Z " />
<glyph glyph-name="Egrave" unicode="&#xc8;" horiz-adv-x="463" d="M106 25 L93 12 C91 10 91 7 92 4 C92 4 93 3 94 2 L129 -33 C130 -34 132 -35 134 -35 L420 -35 C424 -35 427 -32 427 -29 L427 72 C427 73 427 75 425 77 L389 112 C389 113 389 114 388 114 C387 114 386 115 385 115 C383 115 381 114 380 112 L367 100 L247 100 L247 183 L363 183 L376 172 C378 170 380 169 381 169 C382 169 383 170 384 170 C387 171 389 174 389 177 L389 292 C389 294 388 294 387 295 L351 332 C351 332 350 332 349 332 C348 333 347 333 346 333 C344 333 342 332 341 332 L329 319 L247 319 L247 393 L403 393 L415 380 C416 380 418 379 420 379 C421 379 423 379 423 380 C426 380 427 383 427 386 L427 485 C427 488 427 490 425 491 L389 526 C389 527 387 528 385 528 L98 528 C96 528 93 526 92 524 C91 522 91 518 93 517 L106 503 L106 25 Z M286 655 L251 691 C249 692 247 693 245 693 L193 693 C192 693 189 691 187 689 C186 686 186 685 187 683 L224 615 L261 578 C261 576 264 575 266 575 L292 575 C294 575 295 576 296 578 C298 580 298 582 298 584 L287 652 C287 653 287 654 286 655 L286 655 Z " />
<glyph glyph-name="Eacute" unicode="&#xc9;" horiz-adv-x="463" d="M106 25 L93 12 C91 10 91 7 92 4 C92 4 93 3 94 2 L129 -33 C130 -34 132 -35 134 -35 L420 -35 C424 -35 427 -32 427 -29 L427 72 C427 73 427 75 425 77 L389 112 C389 113 389 114 388 114 C387 114 386 115 385 115 C383 115 381 114 380 112 L367 100 L247 100 L247 183 L363 183 L376 172 C378 170 380 169 381 169 C382 169 383 170 384 170 C387 171 389 174 389 177 L389 292 C389 294 388 294 387 295 L351 332 C351 332 350 332 349 332 C348 333 347 333 346 333 C344 333 342 332 341 332 L329 319 L247 319 L247 393 L403 393 L415 380 C416 380 418 379 420 379 C421 379 423 379 423 380 C426 380 427 383 427 386 L427 485 C427 488 427 490 425 491 L389 526 C389 527 387 528 385 528 L98 528 C96 528 93 526 92 524 C91 522 91 518 93 517 L106 503 L106 25 Z M228 684 L215 619 C215 618 215 616 217 614 C217 613 217 613 218 613 L253 578 C254 576 256 575 258 575 L288 575 C290 575 293 577 294 579 L338 644 C339 644 340 646 340 647 C340 649 339 651 338 652 L302 687 C301 688 299 689 297 689 L235 689 C232 689 229 686 228 684 L228 684 Z " />
<glyph glyph-name="Ecircumflex" unicode="&#xca;" horiz-adv-x="463" d="M106 25 L93 12 C91 10 91 7 92 4 C92 4 93 3 94 2 L129 -33 C130 -34 132 -35 134 -35 L420 -35 C424 -35 427 -32 427 -29 L427 72 C427 73 427 75 425 77 L389 112 C389 113 389 114 388 114 C387 114 386 115 385 115 C383 115 381 114 380 112 L367 100 L247 100 L247 183 L363 183 L376 172 C378 170 380 169 381 169 C382 169 383 170 384 170 C387 171 389 174 389 177 L389 292 C389 294 388 294 387 295 L351 332 C351 332 350 332 349 332 C348 333 347 333 346 333 C344 333 342 332 341 332 L329 319 L247 319 L247 393 L403 393 L415 380 C416 380 418 379 420 379 C421 379 423 379 423 380 C426 380 427 383 427 386 L427 485 C427 488 427 490 425 491 L389 526 C389 527 387 528 385 528 L98 528 C96 528 93 526 92 524 C91 522 91 518 93 517 L106 503 L106 25 Z M136 625 C130 621 132 616 136 612 C138 610 141 607 143 604 C146 601 150 597 154 593 C158 591 161 586 163 584 C165 581 170 577 173 577 L229 577 C233 577 239 576 243 580 L269 611 L275 618 L277 615 L286 605 C291 601 294 598 297 594 C300 591 304 586 308 584 C310 581 314 577 317 577 L372 577 C378 577 389 576 390 583 C390 585 389 588 387 590 L364 624 L341 658 C336 663 333 668 328 673 C323 678 317 684 312 689 L303 697 C300 700 299 704 295 704 L214 704 C211 704 207 704 205 701 L136 625 Z " />
<glyph glyph-name="Edieresis" unicode="&#xcb;" horiz-adv-x="463" d="M106 25 L93 12 C91 10 91 7 92 4 C92 4 93 3 94 2 L129 -33 C130 -34 132 -35 134 -35 L420 -35 C424 -35 427 -32 427 -29 L427 72 C427 73 427 75 425 77 L389 112 C389 113 389 114 388 114 C387 114 386 115 385 115 C383 115 381 114 380 112 L367 100 L247 100 L247 183 L363 183 L376 172 C378 170 380 169 381 169 C382 169 383 170 384 170 C387 171 389 174 389 177 L389 292 C389 294 388 294 387 295 L351 332 C351 332 350 332 349 332 C348 333 347 333 346 333 C344 333 342 332 341 332 L329 319 L247 319 L247 393 L403 393 L415 380 C416 380 418 379 420 379 C421 379 423 379 423 380 C426 380 427 383 427 386 L427 485 C427 488 427 490 425 491 L389 526 C389 527 387 528 385 528 L98 528 C96 528 93 526 92 524 C91 522 91 518 93 517 L106 503 L106 25 Z M361 613 C361 625 358 634 351 642 L315 677 C308 684 299 687 287 687 C266 687 249 671 249 652 L224 677 C216 684 207 687 197 687 C175 687 157 670 157 649 C157 638 162 628 169 622 L205 586 C211 579 221 575 232 575 C252 575 269 591 270 611 L295 586 C303 579 312 575 323 575 C344 575 361 592 361 613 L361 613 Z " />
<glyph glyph-name="Igrave" unicode="&#xcc;" horiz-adv-x="296" d="M93 11 C91 9 91 7 92 4 C92 3 93 3 94 2 L129 -33 C130 -35 132 -36 134 -36 L254 -36 C256 -36 259 -34 260 -31 C261 -29 260 -26 259 -24 L247 -11 L247 467 L259 481 C260 483 260 484 260 485 C260 487 260 489 259 491 L224 525 C222 527 220 527 218 527 L98 527 C96 527 93 525 92 523 C91 521 91 518 93 516 L106 503 L106 24 L93 11 Z M203 655 L168 691 C166 692 164 693 162 693 L110 693 C109 693 106 691 104 689 C103 686 103 685 104 683 L141 615 L178 578 C178 576 181 575 183 575 L209 575 C211 575 212 576 213 578 C215 580 215 582 215 584 L204 652 C204 653 204 654 203 655 L203 655 Z " />
<glyph glyph-name="Iacute" unicode="&#xcd;" horiz-adv-x="296" d="M93 11 C91 9 91 7 92 4 C92 3 93 3 94 2 L129 -33 C130 -35 132 -36 134 -36 L254 -36 C256 -36 259 -34 260 -31 C261 -29 260 -26 259 -24 L247 -11 L247 467 L259 481 C260 483 260 484 260 485 C260 487 260 489 259 491 L224 525 C222 527 220 527 218 527 L98 527 C96 527 93 525 92 523 C91 521 91 518 93 516 L106 503 L106 24 L93 11 Z M145 684 L132 619 C132 618 132 616 134 614 C134 613 134 613 135 613 L170 578 C171 576 173 575 175 575 L205 575 C207 575 210 577 211 579 L255 644 C256 644 257 646 257 647 C257 649 256 651 255 652 L219 687 C218 688 216 689 214 689 L152 689 C149 689 146 686 145 684 L145 684 Z " />
<glyph glyph-name="Icircumflex" unicode="&#xce;" horiz-adv-x="384" d="M93 11 C91 9 91 7 92 4 C92 3 93 3 94 2 L129 -33 C130 -35 132 -36 134 -36 L254 -36 C256 -36 259 -34 260 -31 C261 -29 260 -26 259 -24 L247 -11 L247 467 L259 481 C260 483 260 484 260 485 C260 487 260 489 259 491 L224 525 C222 527 220 527 218 527 L98 527 C96 527 93 525 92 523 C91 521 91 518 93 516 L106 503 L106 24 L93 11 Z M54 625 C48 621 50 616 54 612 C56 610 59 607 61 604 C64 601 68 597 72 593 C76 591 79 586 81 584 C83 581 88 577 91 577 L147 577 C151 577 157 576 161 580 L187 611 L193 618 L195 615 L204 605 C209 601 212 598 215 594 C218 591 222 586 226 584 C228 581 232 577 235 577 L290 577 C296 577 307 576 308 583 C308 585 307 588 305 590 L282 624 L259 658 C254 663 251 668 246 673 C241 678 235 684 230 689 L221 697 C218 700 217 704 213 704 L132 704 C129 704 125 704 123 701 L54 625 Z " />
<glyph glyph-name="Idieresis" unicode="&#xcf;" horiz-adv-x="330" d="M93 11 C91 9 91 7 92 4 C92 3 93 3 94 2 L129 -33 C130 -35 132 -36 134 -36 L254 -36 C256 -36 259 -34 260 -31 C261 -29 260 -26 259 -24 L247 -11 L247 467 L259 481 C260 483 260 484 260 485 C260 487 260 489 259 491 L224 525 C222 527 220 527 218 527 L98 527 C96 527 93 525 92 523 C91 521 91 518 93 516 L106 503 L106 24 L93 11 Z M278 613 C278 625 275 634 268 642 L232 677 C225 684 216 687 204 687 C183 687 166 671 166 652 L141 677 C133 684 124 687 114 687 C92 687 74 670 74 649 C74 638 79 628 86 622 L122 586 C128 579 138 575 149 575 C169 575 186 591 187 611 L212 586 C220 579 229 575 240 575 C261 575 278 592 278 613 L278 613 Z " />
<glyph glyph-name="Eth" unicode="&#xd0;" horiz-adv-x="566" d="M491 452 L456 488 C429 515 389 528 338 528 L123 528 C122 528 119 526 117 524 C116 522 117 518 119 517 L131 503 L131 312 L98 312 C95 312 91 308 91 304 L91 235 C91 234 92 232 94 230 L131 193 L131 25 L119 12 C117 10 116 7 117 4 L119 2 L154 -33 C156 -34 158 -35 159 -35 L373 -35 C424 -35 464 -22 491 5 C518 32 532 72 532 123 L532 335 C532 383 520 422 495 448 C494 449 492 451 491 452 L491 452 Z M390 182 C390 157 384 136 370 123 C355 107 335 100 310 100 L272 100 L272 192 L361 192 C365 192 369 196 369 200 L369 269 C369 271 368 273 366 274 L331 310 C329 311 328 312 326 312 L272 312 L272 393 L345 393 C361 393 373 390 385 388 C389 376 390 363 390 346 L390 182 Z " />
<glyph glyph-name="Ntilde" unicode="&#xd1;" horiz-adv-x="517" d="M260 -31 C261 -29 260 -26 259 -24 L247 -11 L247 187 L321 21 L313 11 C312 9 311 7 312 4 L313 2 L348 -33 C350 -35 351 -36 353 -36 L473 -36 C476 -36 479 -34 480 -31 C481 -29 481 -26 478 -24 L465 -11 L465 467 L478 481 C481 483 481 485 480 488 C480 489 479 490 478 491 L443 525 C442 527 440 527 438 527 L318 527 C315 527 313 525 312 523 C311 521 312 518 313 516 L325 503 L325 312 L248 488 L246 491 L211 525 C209 527 208 527 206 527 L98 527 C96 527 93 525 92 523 C91 521 91 518 93 516 L106 503 L106 24 L93 11 C91 9 91 7 92 4 C92 4 93 3 94 2 L129 -33 C130 -35 132 -36 134 -36 L254 -36 C256 -36 259 -34 260 -31 L260 -31 Z M415 608 C412 625 403 643 392 656 C390 657 386 661 384 663 L364 682 C359 689 352 695 345 700 C332 710 314 713 298 710 C289 709 282 705 275 700 C267 695 263 689 257 684 C255 683 249 678 248 680 C246 684 242 687 239 690 L231 698 C227 700 225 704 222 704 L170 704 C157 704 164 684 164 678 C167 666 171 655 177 644 C184 634 191 626 200 618 C208 609 217 600 227 592 C244 576 268 572 290 579 C301 583 309 590 317 598 C320 601 323 604 328 606 C329 606 330 607 331 607 L335 603 C336 601 338 599 341 598 L349 590 C351 587 353 584 357 584 L400 584 C405 584 414 582 417 588 C418 591 417 594 417 598 C417 601 416 604 415 608 L415 608 Z " />
<glyph glyph-name="Ograve" unicode="&#xd2;" horiz-adv-x="527" d="M131 36 L166 0 C196 -29 243 -44 310 -44 C379 -44 427 -29 457 4 C481 30 492 68 492 123 L492 333 C492 388 481 425 457 451 L453 456 L417 491 C389 521 341 535 275 535 C205 535 157 519 127 487 C103 461 91 423 91 369 L91 158 C91 104 103 66 127 39 L131 36 Z M233 149 L233 307 C233 334 237 354 248 370 C260 385 278 392 304 392 L314 392 C325 392 334 391 345 389 C349 376 351 362 351 343 L351 184 C351 158 346 138 336 123 C324 107 305 99 279 99 L269 99 C259 99 250 101 239 104 C235 116 233 131 233 149 L233 149 Z M318 655 L283 691 C281 692 279 693 277 693 L225 693 C224 693 221 691 219 689 C218 686 218 685 219 683 L256 615 L293 578 C293 576 296 575 298 575 L324 575 C326 575 327 576 328 578 C330 580 330 582 330 584 L319 652 C319 653 319 654 318 655 L318 655 Z " />
<glyph glyph-name="Oacute" unicode="&#xd3;" horiz-adv-x="527" d="M131 36 L166 0 C196 -29 243 -44 310 -44 C379 -44 427 -29 457 4 C481 30 492 68 492 123 L492 333 C492 388 481 425 457 451 L453 456 L417 491 C389 521 341 535 275 535 C205 535 157 519 127 487 C103 461 91 423 91 369 L91 158 C91 104 103 66 127 39 L131 36 Z M233 149 L233 307 C233 334 237 354 248 370 C260 385 278 392 304 392 L314 392 C325 392 334 391 345 389 C349 376 351 362 351 343 L351 184 C351 158 346 138 336 123 C324 107 305 99 279 99 L269 99 C259 99 250 101 239 104 C235 116 233 131 233 149 L233 149 Z M261 684 L248 619 C248 618 248 616 250 614 C250 613 250 613 251 613 L286 578 C287 576 289 575 291 575 L321 575 C323 575 326 577 327 579 L371 644 C372 644 373 646 373 647 C373 649 372 651 371 652 L335 687 C334 688 332 689 330 689 L268 689 C265 689 262 686 261 684 L261 684 Z " />
<glyph glyph-name="Ocircumflex" unicode="&#xd4;" horiz-adv-x="527" d="M131 36 L166 0 C196 -29 243 -44 310 -44 C379 -44 427 -29 457 4 C481 30 492 68 492 123 L492 333 C492 388 481 425 457 451 L453 456 L417 491 C389 521 341 535 275 535 C205 535 157 519 127 487 C103 461 91 423 91 369 L91 158 C91 104 103 66 127 39 L131 36 Z M233 149 L233 307 C233 334 237 354 248 370 C260 385 278 392 304 392 L314 392 C325 392 334 391 345 389 C349 376 351 362 351 343 L351 184 C351 158 346 138 336 123 C324 107 305 99 279 99 L269 99 C259 99 250 101 239 104 C235 116 233 131 233 149 L233 149 Z M169 633 C163 629 165 624 169 620 C171 618 174 615 176 612 C179 609 183 605 187 601 C191 599 194 594 196 592 C198 589 203 585 206 585 L262 585 C266 585 272 584 276 588 L302 619 L308 626 L310 623 L319 613 C324 609 327 606 330 602 C333 599 337 594 341 592 C343 589 347 585 350 585 L405 585 C411 585 422 584 423 591 C423 593 422 596 420 598 L397 632 L374 666 C369 671 366 676 361 681 C356 686 350 692 345 697 L336 705 C333 708 332 712 328 712 L247 712 C244 712 240 712 238 709 L169 633 Z " />
<glyph glyph-name="Otilde" unicode="&#xd5;" horiz-adv-x="527" d="M131 36 L166 0 C196 -29 243 -44 310 -44 C379 -44 427 -29 457 4 C481 30 492 68 492 123 L492 333 C492 388 481 425 457 451 L453 456 L417 491 C389 521 341 535 275 535 C205 535 157 519 127 487 C103 461 91 423 91 369 L91 158 C91 104 103 66 127 39 L131 36 Z M233 149 L233 307 C233 334 237 354 248 370 C260 385 278 392 304 392 L314 392 C325 392 334 391 345 389 C349 376 351 362 351 343 L351 184 C351 158 346 138 336 123 C324 107 305 99 279 99 L269 99 C259 99 250 101 239 104 C235 116 233 131 233 149 L233 149 Z M421 608 C418 625 409 643 398 656 C396 657 392 661 390 663 L370 682 C365 689 358 695 351 700 C338 710 320 713 304 710 C295 709 288 705 281 700 C273 695 269 689 263 684 C261 683 255 678 254 680 C252 684 248 687 245 690 L237 698 C233 700 231 704 228 704 L176 704 C163 704 170 684 170 678 C173 666 177 655 183 644 C190 634 197 626 206 618 C214 609 223 600 233 592 C250 576 274 572 296 579 C307 583 315 590 323 598 C326 601 329 604 334 606 C335 606 336 607 337 607 L341 603 C342 601 344 599 347 598 L355 590 C357 587 359 584 363 584 L406 584 C411 584 420 582 423 588 C424 591 423 594 423 598 C423 601 422 604 421 608 L421 608 Z " />
<glyph glyph-name="Odieresis" unicode="&#xd6;" horiz-adv-x="527" d="M131 36 L166 0 C196 -29 243 -44 310 -44 C379 -44 427 -29 457 4 C481 30 492 68 492 123 L492 333 C492 388 481 425 457 451 L453 456 L417 491 C389 521 341 535 275 535 C205 535 157 519 127 487 C103 461 91 423 91 369 L91 158 C91 104 103 66 127 39 L131 36 Z M233 149 L233 307 C233 334 237 354 248 370 C260 385 278 392 304 392 L314 392 C325 392 334 391 345 389 C349 376 351 362 351 343 L351 184 C351 158 346 138 336 123 C324 107 305 99 279 99 L269 99 C259 99 250 101 239 104 C235 116 233 131 233 149 L233 149 Z M393 622 C393 634 390 643 383 651 L347 686 C340 693 331 696 319 696 C298 696 281 680 281 661 L256 686 C248 693 239 696 229 696 C207 696 189 679 189 658 C189 647 194 637 201 631 L237 595 C243 588 253 584 264 584 C284 584 301 600 302 620 L327 595 C335 588 344 584 355 584 C376 584 393 601 393 622 L393 622 Z " />
<glyph glyph-name="multiply" unicode="&#xd7;" horiz-adv-x="363" d="M329 282 C329 285 328 286 326 287 L291 323 L240 373 C238 375 237 375 235 375 C234 375 232 375 230 373 L192 335 L190 337 L155 372 C153 373 151 374 149 374 C148 374 145 373 144 372 L96 324 C94 322 93 320 93 319 C93 317 94 315 96 313 L131 278 L132 276 L95 238 C91 235 91 231 95 228 L130 193 L180 142 C182 141 183 141 185 141 C187 141 189 141 191 142 L229 180 L231 179 L266 142 C268 142 269 141 271 141 C273 141 275 142 276 142 L325 192 C327 193 328 195 328 197 C328 199 327 200 325 201 L290 237 L288 239 L326 277 C328 278 329 280 329 282 L329 282 Z " />
<glyph glyph-name="Oslash" unicode="&#xd8;" horiz-adv-x="526" d="M131 37 L145 22 L123 -44 C123 -47 123 -48 124 -49 C124 -50 124 -50 125 -50 L161 -86 C162 -87 164 -88 166 -88 L256 -88 C260 -88 262 -86 263 -83 L277 -42 C287 -43 298 -43 310 -43 C379 -43 427 -28 457 5 C481 31 492 69 492 123 L492 334 C492 390 480 430 453 457 L445 465 L460 513 C461 516 461 518 459 520 C459 520 458 520 458 521 L423 556 C422 558 420 558 418 558 L327 558 C324 558 321 556 320 553 L313 534 C302 535 288 536 275 536 C205 536 157 520 127 488 C103 462 91 423 91 370 L91 159 C91 127 96 102 104 81 C109 64 119 48 131 37 L131 37 Z M248 370 C253 376 258 380 265 385 L233 286 L233 308 C233 335 237 355 248 370 L248 370 Z M336 123 L330 117 L351 183 C351 158 346 138 336 123 L336 123 Z " />
<glyph glyph-name="Ugrave" unicode="&#xd9;" horiz-adv-x="556" d="M106 503 L106 158 C106 104 117 66 141 40 L180 1 C210 -29 257 -44 324 -44 C393 -44 441 -28 470 4 C495 31 506 69 506 123 L506 468 L519 482 C521 483 522 486 520 489 C520 490 519 491 519 491 L483 526 C483 527 481 528 479 528 L358 528 C355 528 353 526 352 524 C351 522 351 518 353 517 L366 503 L366 184 C366 158 361 138 351 123 C338 107 320 100 294 100 L284 100 C274 100 264 101 254 104 C250 116 247 131 247 149 L247 468 L259 482 C260 483 260 484 260 485 C260 488 260 490 259 491 L224 526 C222 527 220 528 218 528 L98 528 C96 528 93 526 92 524 C91 522 91 518 93 517 L106 503 Z M333 655 L298 691 C296 692 294 693 292 693 L240 693 C239 693 236 691 234 689 C233 686 233 685 234 683 L271 615 L308 578 C308 576 311 575 313 575 L339 575 C341 575 342 576 343 578 C345 580 345 582 345 584 L334 652 C334 653 334 654 333 655 L333 655 Z " />
<glyph glyph-name="Uacute" unicode="&#xda;" horiz-adv-x="556" d="M106 503 L106 158 C106 104 117 66 141 40 L180 1 C210 -29 257 -44 324 -44 C393 -44 441 -28 470 4 C495 31 506 69 506 123 L506 468 L519 482 C521 483 522 486 520 489 C520 490 519 491 519 491 L483 526 C483 527 481 528 479 528 L358 528 C355 528 353 526 352 524 C351 522 351 518 353 517 L366 503 L366 184 C366 158 361 138 351 123 C338 107 320 100 294 100 L284 100 C274 100 264 101 254 104 C250 116 247 131 247 149 L247 468 L259 482 C260 483 260 484 260 485 C260 488 260 490 259 491 L224 526 C222 527 220 528 218 528 L98 528 C96 528 93 526 92 524 C91 522 91 518 93 517 L106 503 Z M274 684 L261 619 C261 618 261 616 263 614 C263 613 263 613 264 613 L299 578 C300 576 302 575 304 575 L334 575 C336 575 339 577 340 579 L384 644 C385 644 386 646 386 647 C386 649 385 651 384 652 L348 687 C347 688 345 689 343 689 L281 689 C278 689 275 686 274 684 L274 684 Z " />
<glyph glyph-name="Ucircumflex" unicode="&#xdb;" horiz-adv-x="556" d="M106 503 L106 158 C106 104 117 66 141 40 L180 1 C210 -29 257 -44 324 -44 C393 -44 441 -28 470 4 C495 31 506 69 506 123 L506 468 L519 482 C521 483 522 486 520 489 C520 490 519 491 519 491 L483 526 C483 527 481 528 479 528 L358 528 C355 528 353 526 352 524 C351 522 351 518 353 517 L366 503 L366 184 C366 158 361 138 351 123 C338 107 320 100 294 100 L284 100 C274 100 264 101 254 104 C250 116 247 131 247 149 L247 468 L259 482 C260 483 260 484 260 485 C260 488 260 490 259 491 L224 526 C222 527 220 528 218 528 L98 528 C96 528 93 526 92 524 C91 522 91 518 93 517 L106 503 Z M183 625 C177 621 179 616 183 612 C185 610 188 607 190 604 C193 601 197 597 201 593 C205 591 208 586 210 584 C212 581 217 577 220 577 L276 577 C280 577 286 576 290 580 L316 611 L322 618 L324 615 L333 605 C338 601 341 598 344 594 C347 591 351 586 355 584 C357 581 361 577 364 577 L419 577 C425 577 436 576 437 583 C437 585 436 588 434 590 L411 624 L388 658 C383 663 380 668 375 673 C370 678 364 684 359 689 L350 697 C347 700 346 704 342 704 L261 704 C258 704 254 704 252 701 L183 625 Z " />
<glyph glyph-name="Udieresis" unicode="&#xdc;" horiz-adv-x="556" d="M106 503 L106 158 C106 104 117 66 141 40 L180 1 C210 -29 257 -44 324 -44 C393 -44 441 -28 470 4 C495 31 506 69 506 123 L506 468 L519 482 C521 483 522 486 520 489 C520 490 519 491 519 491 L483 526 C483 527 481 528 479 528 L358 528 C355 528 353 526 352 524 C351 522 351 518 353 517 L366 503 L366 184 C366 158 361 138 351 123 C338 107 320 100 294 100 L284 100 C274 100 264 101 254 104 C250 116 247 131 247 149 L247 468 L259 482 C260 483 260 484 260 485 C260 488 260 490 259 491 L224 526 C222 527 220 528 218 528 L98 528 C96 528 93 526 92 524 C91 522 91 518 93 517 L106 503 Z M408 613 C408 625 405 634 398 642 L362 677 C355 684 346 687 334 687 C313 687 296 671 296 652 L271 677 C263 684 254 687 244 687 C222 687 204 670 204 649 C204 638 209 628 216 622 L252 586 C258 579 268 575 279 575 C299 575 316 591 317 611 L342 586 C350 579 359 575 370 575 C391 575 408 592 408 613 L408 613 Z " />
<glyph glyph-name="Yacute" unicode="&#xdd;" horiz-adv-x="519" d="M483 491 L446 526 C446 527 444 528 442 528 L321 528 C319 528 316 526 315 524 C313 522 314 518 316 517 L329 504 L279 407 L247 469 L259 482 C260 483 260 484 260 485 C260 488 260 490 259 491 L224 526 C222 527 220 528 218 528 L98 528 C96 528 93 526 92 524 C91 522 91 518 93 517 L106 503 L218 250 L218 25 L207 12 C204 10 204 7 205 4 C205 4 206 3 207 2 L242 -33 C243 -34 245 -35 247 -35 L367 -35 C370 -35 371 -33 373 -30 C374 -29 373 -26 371 -23 L360 -10 L360 215 L469 467 L483 482 C484 483 484 486 483 489 C483 490 483 491 483 491 L483 491 Z M256 684 L243 619 C243 618 243 616 245 614 C245 613 245 613 246 613 L281 578 C282 576 284 575 286 575 L316 575 C318 575 321 577 322 579 L366 644 C367 644 368 646 368 647 C368 649 367 651 366 652 L330 687 C329 688 327 689 325 689 L263 689 C260 689 257 686 256 684 L256 684 Z " />
<glyph glyph-name="Thorn" unicode="&#xde;" horiz-adv-x="483" d="M410 409 L374 445 C351 469 314 482 268 482 L259 482 C260 483 261 486 260 489 L224 525 C222 527 220 528 218 528 L98 528 C96 528 93 526 92 524 C91 522 91 518 93 517 L106 503 L106 25 L93 12 C91 10 91 7 92 4 C92 4 93 3 94 3 L129 -33 C130 -34 132 -35 134 -35 L254 -35 C256 -35 259 -33 260 -30 C261 -29 260 -26 259 -23 L247 -10 L247 57 L303 57 C351 57 389 71 414 99 C435 123 446 159 446 200 L446 302 C446 346 436 380 415 404 L410 409 Z M306 260 C306 235 300 218 288 208 C278 200 266 196 247 193 L247 346 L259 346 C277 346 293 345 303 341 C305 333 306 324 306 313 L306 260 Z " />
<glyph glyph-name="germandbls" unicode="&#xdf;" horiz-adv-x="526" d="M374 -43 C406 -40 437 -30 458 -8 C457 -10 454 -12 452 -13 C457 -9 462 -5 465 1 C464 -2 461 -5 458 -8 C484 21 491 62 491 98 C491 120 489 142 483 162 C479 173 474 182 469 191 C466 196 464 199 460 203 C459 205 457 207 456 209 C455 210 452 212 451 214 C442 223 433 232 424 241 C420 245 415 250 411 253 C409 256 407 257 406 259 C404 260 403 260 402 261 C399 263 399 263 401 266 C404 270 408 274 412 277 C416 281 421 286 424 290 C431 299 436 310 440 320 C446 343 446 369 442 391 C437 414 427 434 410 450 C401 460 392 468 383 478 C374 486 366 494 355 501 C336 513 313 521 291 524 C266 527 241 527 217 527 C190 527 164 527 138 527 C127 527 117 527 106 527 C104 527 98 528 95 525 C91 522 91 517 95 514 L106 502 C106 398 106 294 106 192 C106 155 106 118 106 81 C106 63 106 45 106 27 C106 24 106 24 105 22 C104 21 103 20 101 18 C99 15 97 13 95 11 C93 9 92 8 92 5 C92 1 98 -3 100 -6 C104 -10 108 -13 112 -18 C115 -22 119 -25 123 -29 C125 -30 129 -36 133 -36 C159 -36 184 -36 210 -36 C217 -36 222 -36 228 -36 C234 -36 241 -38 245 -34 C249 -30 248 -24 248 -20 C248 -13 248 -7 248 0 C248 52 248 104 248 157 C248 181 248 207 248 232 C256 223 264 215 273 206 C280 199 288 192 299 190 C305 188 311 189 316 188 C322 188 329 187 334 184 C338 183 338 172 338 168 C339 161 339 156 338 149 C337 139 334 128 328 121 C320 113 311 108 300 106 C288 104 276 105 264 106 C259 106 256 104 256 98 C256 91 256 85 256 78 C256 64 256 49 256 36 C256 29 256 22 256 15 C256 10 254 2 259 -2 C261 -5 266 -9 269 -11 C273 -15 276 -19 280 -23 C284 -27 287 -30 291 -33 C294 -37 298 -38 303 -39 C327 -42 351 -45 374 -43 C373 -43 372 -43 371 -43 C372 -43 373 -43 374 -43 C406 -40 370 -43 374 -43 L374 -43 Z M248 388 C267 388 286 389 305 386 C307 371 301 355 290 346 C284 341 276 338 269 337 C260 334 254 331 248 326 C248 346 248 367 248 388 L248 388 Z " />
<glyph glyph-name="agrave" unicode="&#xe0;" horiz-adv-x="571" d="M94 2 L129 -33 C130 -34 132 -35 134 -35 L254 -35 C256 -35 259 -33 260 -30 C261 -29 260 -26 259 -23 L247 -11 L272 82 L364 82 L380 24 L368 12 C366 10 365 7 367 4 C367 4 368 3 368 2 L404 -33 C405 -34 406 -35 408 -35 L528 -35 C531 -35 534 -33 534 -30 C536 -29 535 -26 534 -23 L521 -10 L391 469 L400 483 C401 484 402 487 400 489 C400 490 399 491 399 491 L363 526 C363 527 361 528 359 528 L233 528 C230 528 228 526 226 525 C226 522 226 520 226 517 L235 504 L106 25 L93 12 C91 10 91 7 92 4 C92 4 93 3 94 2 L94 2 Z M329 217 L308 217 L318 254 L329 217 Z M340 655 L305 691 C303 692 301 693 299 693 L247 693 C246 693 243 691 241 689 C240 686 240 685 241 683 L278 615 L315 578 C315 576 318 575 320 575 L346 575 C348 575 349 576 350 578 C352 580 352 582 352 584 L341 652 C341 653 341 654 340 655 L340 655 Z " />
<glyph glyph-name="aacute" unicode="&#xe1;" horiz-adv-x="571" d="M94 2 L129 -33 C130 -34 132 -35 134 -35 L254 -35 C256 -35 259 -33 260 -30 C261 -29 260 -26 259 -23 L247 -11 L272 82 L364 82 L380 24 L368 12 C366 10 365 7 367 4 C367 4 368 3 368 2 L404 -33 C405 -34 406 -35 408 -35 L528 -35 C531 -35 534 -33 534 -30 C536 -29 535 -26 534 -23 L521 -10 L391 469 L400 483 C401 484 402 487 400 489 C400 490 399 491 399 491 L363 526 C363 527 361 528 359 528 L233 528 C230 528 228 526 226 525 C226 522 226 520 226 517 L235 504 L106 25 L93 12 C91 10 91 7 92 4 C92 4 93 3 94 2 L94 2 Z M329 217 L308 217 L318 254 L329 217 Z M282 684 L269 619 C269 618 269 616 271 614 C271 613 271 613 272 613 L307 578 C308 576 310 575 312 575 L342 575 C344 575 347 577 348 579 L392 644 C393 644 394 646 394 647 C394 649 393 651 392 652 L356 687 C355 688 353 689 351 689 L289 689 C286 689 283 686 282 684 L282 684 Z " />
<glyph glyph-name="acircumflex" unicode="&#xe2;" horiz-adv-x="571" d="M94 2 L129 -33 C130 -34 132 -35 134 -35 L254 -35 C256 -35 259 -33 260 -30 C261 -29 260 -26 259 -23 L247 -11 L272 82 L364 82 L380 24 L368 12 C366 10 365 7 367 4 C367 4 368 3 368 2 L404 -33 C405 -34 406 -35 408 -35 L528 -35 C531 -35 534 -33 534 -30 C536 -29 535 -26 534 -23 L521 -10 L391 469 L400 483 C401 484 402 487 400 489 C400 490 399 491 399 491 L363 526 C363 527 361 528 359 528 L233 528 C230 528 228 526 226 525 C226 522 226 520 226 517 L235 504 L106 25 L93 12 C91 10 91 7 92 4 C92 4 93 3 94 2 L94 2 Z M329 217 L308 217 L318 254 L329 217 Z M191 625 C185 621 187 616 191 612 C193 610 196 607 198 604 C201 601 205 597 209 593 C213 591 216 586 218 584 C220 581 225 577 228 577 L284 577 C288 577 294 576 298 580 L324 611 L330 618 L332 615 L341 605 C346 601 349 598 352 594 C355 591 359 586 363 584 C365 581 369 577 372 577 L427 577 C433 577 444 576 445 583 C445 585 444 588 442 590 L419 624 L396 658 C391 663 388 668 383 673 C378 678 372 684 367 689 L358 697 C355 700 354 704 350 704 L269 704 C266 704 262 704 260 701 L191 625 Z " />
<glyph glyph-name="atilde" unicode="&#xe3;" horiz-adv-x="571" d="M94 2 L129 -33 C130 -34 132 -35 134 -35 L254 -35 C256 -35 259 -33 260 -30 C261 -29 260 -26 259 -23 L247 -11 L272 82 L364 82 L380 24 L368 12 C366 10 365 7 367 4 C367 4 368 3 368 2 L404 -33 C405 -34 406 -35 408 -35 L528 -35 C531 -35 534 -33 534 -30 C536 -29 535 -26 534 -23 L521 -10 L391 469 L400 483 C401 484 402 487 400 489 C400 490 399 491 399 491 L363 526 C363 527 361 528 359 528 L233 528 C230 528 228 526 226 525 C226 522 226 520 226 517 L235 504 L106 25 L93 12 C91 10 91 7 92 4 C92 4 93 3 94 2 L94 2 Z M329 217 L308 217 L318 254 L329 217 Z M443 599 C440 616 431 634 420 647 C418 648 414 652 412 654 L392 673 C387 680 380 686 373 691 C360 701 342 704 326 701 C317 700 310 696 303 691 C295 686 291 680 285 675 C283 674 277 669 276 671 C274 675 270 678 267 681 L259 689 C255 691 253 695 250 695 L198 695 C185 695 192 675 192 669 C195 657 199 646 205 635 C212 625 219 617 228 609 C236 600 245 591 255 583 C272 567 296 563 318 570 C329 574 337 581 345 589 C348 592 351 595 356 597 C357 597 358 598 359 598 L363 594 C364 592 366 590 369 589 L377 581 C379 578 381 575 385 575 L428 575 C433 575 442 573 445 579 C446 582 445 585 445 589 C445 592 444 595 443 599 L443 599 Z " />
<glyph glyph-name="adieresis" unicode="&#xe4;" horiz-adv-x="571" d="M94 2 L129 -33 C130 -34 132 -35 134 -35 L254 -35 C256 -35 259 -33 260 -30 C261 -29 260 -26 259 -23 L247 -11 L272 82 L364 82 L380 24 L368 12 C366 10 365 7 367 4 C367 4 368 3 368 2 L404 -33 C405 -34 406 -35 408 -35 L528 -35 C531 -35 534 -33 534 -30 C536 -29 535 -26 534 -23 L521 -10 L391 469 L400 483 C401 484 402 487 400 489 C400 490 399 491 399 491 L363 526 C363 527 361 528 359 528 L233 528 C230 528 228 526 226 525 C226 522 226 520 226 517 L235 504 L106 25 L93 12 C91 10 91 7 92 4 C92 4 93 3 94 2 L94 2 Z M329 217 L308 217 L318 254 L329 217 Z M416 613 C416 625 413 634 406 642 L370 677 C363 684 354 687 342 687 C321 687 304 671 304 652 L279 677 C271 684 262 687 252 687 C230 687 212 670 212 649 C212 638 217 628 224 622 L260 586 C266 579 276 575 287 575 C307 575 324 591 325 611 L350 586 C358 579 367 575 378 575 C399 575 416 592 416 613 L416 613 Z " />
<glyph glyph-name="aring" unicode="&#xe5;" horiz-adv-x="570" d="M517 -9 L390 458 C390 459 390 459 391 459 C403 471 407 488 407 512 L407 534 C407 557 403 573 392 585 L361 619 L361 620 L359 622 C346 636 325 642 295 642 C265 642 244 636 231 620 C220 609 216 593 216 568 L216 547 C216 523 219 507 231 495 L232 493 L106 25 L93 12 C91 10 91 7 92 4 C92 4 93 3 93 3 L124 -33 C125 -34 128 -35 130 -35 L250 -35 C252 -35 255 -33 256 -30 C257 -29 256 -26 255 -24 L243 -10 L268 82 L364 82 L380 24 L368 12 C366 10 365 7 367 4 C367 4 367 3 368 3 L398 -33 L399 -33 C400 -34 402 -35 405 -35 L524 -35 C526 -35 529 -33 530 -30 C532 -29 531 -26 529 -24 L517 -9 Z M329 217 L303 217 L316 261 L329 217 Z M301 530 C303 540 307 550 321 551 C320 541 316 531 301 530 L301 530 Z " />
<glyph glyph-name="ae" unicode="&#xe6;" horiz-adv-x="733" d="M661 526 C659 527 657 528 655 528 L297 528 C294 528 293 526 292 524 C290 522 291 518 293 517 L305 503 L106 25 L93 12 C91 10 91 7 92 4 C92 4 93 3 94 2 L129 -33 C130 -34 132 -35 134 -35 L254 -35 C256 -35 259 -33 260 -30 C261 -29 260 -26 259 -23 L247 -11 L286 82 L377 82 L377 25 L364 12 C363 10 362 7 363 4 C363 4 364 3 364 2 L400 -33 C401 -34 403 -35 406 -35 L691 -35 C695 -35 697 -32 697 -29 L697 72 C697 73 696 75 696 77 L661 112 C660 113 659 114 658 114 C657 114 656 115 655 115 C654 115 653 114 651 112 L637 100 L517 100 L517 183 L635 183 L647 172 C648 170 650 169 653 169 C654 169 654 170 655 170 C657 171 659 174 659 177 L659 291 C659 294 658 294 656 295 L621 332 C620 332 619 332 619 332 C618 333 617 333 617 333 C615 333 613 332 611 332 L599 319 L517 319 L517 393 L674 393 L686 380 C688 380 689 379 691 379 C692 379 693 379 693 380 C696 380 697 383 697 386 L697 485 C697 488 696 490 696 491 L661 526 Z M377 300 L377 217 L342 217 L377 300 Z " />
<glyph glyph-name="ccedilla" unicode="&#xe7;" horiz-adv-x="526" d="M453 460 L418 495 C389 525 341 539 275 539 C205 539 157 523 127 491 C103 465 91 427 91 372 L91 162 C91 107 103 70 127 44 L131 39 L166 4 C183 -13 206 -25 235 -31 C235 -59 236 -75 244 -85 C244 -86 245 -86 245 -86 L274 -115 L257 -115 C256 -115 254 -116 252 -116 C251 -118 251 -120 251 -122 L251 -180 C251 -181 251 -183 252 -184 L287 -219 C289 -221 291 -222 293 -222 L332 -222 C362 -222 381 -217 394 -203 C406 -191 412 -173 412 -145 L412 -131 C412 -107 409 -90 401 -78 L397 -73 L363 -39 L362 -39 C362 -38 361 -37 360 -37 C403 -30 434 -15 457 8 C481 35 492 72 492 126 L492 177 C492 180 491 181 490 182 L455 218 C453 218 451 219 449 219 L345 219 C342 219 339 218 337 216 C337 213 337 209 339 208 L351 195 L351 189 C351 162 346 141 336 127 C324 111 305 104 279 104 L269 104 C259 104 250 105 239 108 C235 120 233 135 233 154 L233 312 C233 337 237 359 248 372 C260 389 278 397 304 397 L314 397 C327 397 337 395 346 391 C348 387 350 380 351 373 L338 362 C337 359 336 356 337 354 L338 351 L373 316 C375 314 377 314 379 314 L484 314 C489 314 492 317 492 321 L492 337 C492 391 481 429 457 456 L453 460 Z " />
<glyph glyph-name="egrave" unicode="&#xe8;" horiz-adv-x="463" d="M106 25 L93 12 C91 10 91 7 92 4 C92 4 93 3 94 2 L129 -33 C130 -34 132 -35 134 -35 L420 -35 C424 -35 427 -32 427 -29 L427 72 C427 73 427 75 425 77 L389 112 C389 113 389 114 388 114 C387 114 386 115 385 115 C383 115 381 114 380 112 L367 100 L247 100 L247 183 L363 183 L376 172 C378 170 380 169 381 169 C382 169 383 170 384 170 C387 171 389 174 389 177 L389 292 C389 294 388 294 387 295 L351 332 C351 332 350 332 349 332 C348 333 347 333 346 333 C344 333 342 332 341 332 L329 319 L247 319 L247 393 L403 393 L415 380 C416 380 418 379 420 379 C421 379 423 379 423 380 C426 380 427 383 427 386 L427 485 C427 488 427 490 425 491 L389 526 C389 527 387 528 385 528 L98 528 C96 528 93 526 92 524 C91 522 91 518 93 517 L106 503 L106 25 Z M286 655 L251 691 C249 692 247 693 245 693 L193 693 C192 693 189 691 187 689 C186 686 186 685 187 683 L224 615 L261 578 C261 576 264 575 266 575 L292 575 C294 575 295 576 296 578 C298 580 298 582 298 584 L287 652 C287 653 287 654 286 655 L286 655 Z " />
<glyph glyph-name="eacute" unicode="&#xe9;" horiz-adv-x="463" d="M106 25 L93 12 C91 10 91 7 92 4 C92 4 93 3 94 2 L129 -33 C130 -34 132 -35 134 -35 L420 -35 C424 -35 427 -32 427 -29 L427 72 C427 73 427 75 425 77 L389 112 C389 113 389 114 388 114 C387 114 386 115 385 115 C383 115 381 114 380 112 L367 100 L247 100 L247 183 L363 183 L376 172 C378 170 380 169 381 169 C382 169 383 170 384 170 C387 171 389 174 389 177 L389 292 C389 294 388 294 387 295 L351 332 C351 332 350 332 349 332 C348 333 347 333 346 333 C344 333 342 332 341 332 L329 319 L247 319 L247 393 L403 393 L415 380 C416 380 418 379 420 379 C421 379 423 379 423 380 C426 380 427 383 427 386 L427 485 C427 488 427 490 425 491 L389 526 C389 527 387 528 385 528 L98 528 C96 528 93 526 92 524 C91 522 91 518 93 517 L106 503 L106 25 Z M228 684 L215 619 C215 618 215 616 217 614 C217 613 217 613 218 613 L253 578 C254 576 256 575 258 575 L288 575 C290 575 293 577 294 579 L338 644 C339 644 340 646 340 647 C340 649 339 651 338 652 L302 687 C301 688 299 689 297 689 L235 689 C232 689 229 686 228 684 L228 684 Z " />
<glyph glyph-name="ecircumflex" unicode="&#xea;" horiz-adv-x="463" d="M106 25 L93 12 C91 10 91 7 92 4 C92 4 93 3 94 2 L129 -33 C130 -34 132 -35 134 -35 L420 -35 C424 -35 427 -32 427 -29 L427 72 C427 73 427 75 425 77 L389 112 C389 113 389 114 388 114 C387 114 386 115 385 115 C383 115 381 114 380 112 L367 100 L247 100 L247 183 L363 183 L376 172 C378 170 380 169 381 169 C382 169 383 170 384 170 C387 171 389 174 389 177 L389 292 C389 294 388 294 387 295 L351 332 C351 332 350 332 349 332 C348 333 347 333 346 333 C344 333 342 332 341 332 L329 319 L247 319 L247 393 L403 393 L415 380 C416 380 418 379 420 379 C421 379 423 379 423 380 C426 380 427 383 427 386 L427 485 C427 488 427 490 425 491 L389 526 C389 527 387 528 385 528 L98 528 C96 528 93 526 92 524 C91 522 91 518 93 517 L106 503 L106 25 Z M136 625 C130 621 132 616 136 612 C138 610 141 607 143 604 C146 601 150 597 154 593 C158 591 161 586 163 584 C165 581 170 577 173 577 L229 577 C233 577 239 576 243 580 L269 611 L275 618 L277 615 L286 605 C291 601 294 598 297 594 C300 591 304 586 308 584 C310 581 314 577 317 577 L372 577 C378 577 389 576 390 583 C390 585 389 588 387 590 L364 624 L341 658 C336 663 333 668 328 673 C323 678 317 684 312 689 L303 697 C300 700 299 704 295 704 L214 704 C211 704 207 704 205 701 L136 625 Z " />
<glyph glyph-name="edieresis" unicode="&#xeb;" horiz-adv-x="463" d="M106 25 L93 12 C91 10 91 7 92 4 C92 4 93 3 94 2 L129 -33 C130 -34 132 -35 134 -35 L420 -35 C424 -35 427 -32 427 -29 L427 72 C427 73 427 75 425 77 L389 112 C389 113 389 114 388 114 C387 114 386 115 385 115 C383 115 381 114 380 112 L367 100 L247 100 L247 183 L363 183 L376 172 C378 170 380 169 381 169 C382 169 383 170 384 170 C387 171 389 174 389 177 L389 292 C389 294 388 294 387 295 L351 332 C351 332 350 332 349 332 C348 333 347 333 346 333 C344 333 342 332 341 332 L329 319 L247 319 L247 393 L403 393 L415 380 C416 380 418 379 420 379 C421 379 423 379 423 380 C426 380 427 383 427 386 L427 485 C427 488 427 490 425 491 L389 526 C389 527 387 528 385 528 L98 528 C96 528 93 526 92 524 C91 522 91 518 93 517 L106 503 L106 25 Z M361 613 C361 625 358 634 351 642 L315 677 C308 684 299 687 287 687 C266 687 249 671 249 652 L224 677 C216 684 207 687 197 687 C175 687 157 670 157 649 C157 638 162 628 169 622 L205 586 C211 579 221 575 232 575 C252 575 269 591 270 611 L295 586 C303 579 312 575 323 575 C344 575 361 592 361 613 L361 613 Z " />
<glyph glyph-name="igrave" unicode="&#xec;" horiz-adv-x="296" d="M93 11 C91 9 91 7 92 4 C92 3 93 3 94 2 L129 -33 C130 -35 132 -36 134 -36 L254 -36 C256 -36 259 -34 260 -31 C261 -29 260 -26 259 -24 L247 -11 L247 467 L259 481 C260 483 260 484 260 485 C260 487 260 489 259 491 L224 525 C222 527 220 527 218 527 L98 527 C96 527 93 525 92 523 C91 521 91 518 93 516 L106 503 L106 24 L93 11 Z M203 655 L168 691 C166 692 164 693 162 693 L110 693 C109 693 106 691 104 689 C103 686 103 685 104 683 L141 615 L178 578 C178 576 181 575 183 575 L209 575 C211 575 212 576 213 578 C215 580 215 582 215 584 L204 652 C204 653 204 654 203 655 L203 655 Z " />
<glyph glyph-name="iacute" unicode="&#xed;" horiz-adv-x="296" d="M93 11 C91 9 91 7 92 4 C92 3 93 3 94 2 L129 -33 C130 -35 132 -36 134 -36 L254 -36 C256 -36 259 -34 260 -31 C261 -29 260 -26 259 -24 L247 -11 L247 467 L259 481 C260 483 260 484 260 485 C260 487 260 489 259 491 L224 525 C222 527 220 527 218 527 L98 527 C96 527 93 525 92 523 C91 521 91 518 93 516 L106 503 L106 24 L93 11 Z M145 684 L132 619 C132 618 132 616 134 614 C134 613 134 613 135 613 L170 578 C171 576 173 575 175 575 L205 575 C207 575 210 577 211 579 L255 644 C256 644 257 646 257 647 C257 649 256 651 255 652 L219 687 C218 688 216 689 214 689 L152 689 C149 689 146 686 145 684 L145 684 Z " />
<glyph glyph-name="icircumflex" unicode="&#xee;" horiz-adv-x="384" d="M93 11 C91 9 91 7 92 4 C92 3 93 3 94 2 L129 -33 C130 -35 132 -36 134 -36 L254 -36 C256 -36 259 -34 260 -31 C261 -29 260 -26 259 -24 L247 -11 L247 467 L259 481 C260 483 260 484 260 485 C260 487 260 489 259 491 L224 525 C222 527 220 527 218 527 L98 527 C96 527 93 525 92 523 C91 521 91 518 93 516 L106 503 L106 24 L93 11 Z M54 625 C48 621 50 616 54 612 C56 610 59 607 61 604 C64 601 68 597 72 593 C76 591 79 586 81 584 C83 581 88 577 91 577 L147 577 C151 577 157 576 161 580 L187 611 L193 618 L195 615 L204 605 C209 601 212 598 215 594 C218 591 222 586 226 584 C228 581 232 577 235 577 L290 577 C296 577 307 576 308 583 C308 585 307 588 305 590 L282 624 L259 658 C254 663 251 668 246 673 C241 678 235 684 230 689 L221 697 C218 700 217 704 213 704 L132 704 C129 704 125 704 123 701 L54 625 Z " />
<glyph glyph-name="idieresis" unicode="&#xef;" horiz-adv-x="330" d="M93 11 C91 9 91 7 92 4 C92 3 93 3 94 2 L129 -33 C130 -35 132 -36 134 -36 L254 -36 C256 -36 259 -34 260 -31 C261 -29 260 -26 259 -24 L247 -11 L247 467 L259 481 C260 483 260 484 260 485 C260 487 260 489 259 491 L224 525 C222 527 220 527 218 527 L98 527 C96 527 93 525 92 523 C91 521 91 518 93 516 L106 503 L106 24 L93 11 Z M278 613 C278 625 275 634 268 642 L232 677 C225 684 216 687 204 687 C183 687 166 671 166 652 L141 677 C133 684 124 687 114 687 C92 687 74 670 74 649 C74 638 79 628 86 622 L122 586 C128 579 138 575 149 575 C169 575 186 591 187 611 L212 586 C220 579 229 575 240 575 C261 575 278 592 278 613 L278 613 Z " />
<glyph glyph-name="eth" unicode="&#xf0;" horiz-adv-x="566" d="M491 452 L456 488 C429 515 389 528 338 528 L123 528 C122 528 119 526 117 524 C116 522 117 518 119 517 L131 503 L131 312 L98 312 C95 312 91 308 91 304 L91 235 C91 234 92 232 94 230 L131 193 L131 25 L119 12 C117 10 116 7 117 4 L119 2 L154 -33 C156 -34 158 -35 159 -35 L373 -35 C424 -35 464 -22 491 5 C518 32 532 72 532 123 L532 335 C532 383 520 422 495 448 C494 449 492 451 491 452 L491 452 Z M390 182 C390 157 384 136 370 123 C355 107 335 100 310 100 L272 100 L272 192 L361 192 C365 192 369 196 369 200 L369 269 C369 271 368 273 366 274 L331 310 C329 311 328 312 326 312 L272 312 L272 393 L345 393 C361 393 373 390 385 388 C389 376 390 363 390 346 L390 182 Z " />
<glyph glyph-name="ntilde" unicode="&#xf1;" horiz-adv-x="517" d="M260 -31 C261 -29 260 -26 259 -24 L247 -11 L247 187 L321 21 L313 11 C312 9 311 7 312 4 L313 2 L348 -33 C350 -35 351 -36 353 -36 L473 -36 C476 -36 479 -34 480 -31 C481 -29 481 -26 478 -24 L465 -11 L465 467 L478 481 C481 483 481 485 480 488 C480 489 479 490 478 491 L443 525 C442 527 440 527 438 527 L318 527 C315 527 313 525 312 523 C311 521 312 518 313 516 L325 503 L325 312 L248 488 L246 491 L211 525 C209 527 208 527 206 527 L98 527 C96 527 93 525 92 523 C91 521 91 518 93 516 L106 503 L106 24 L93 11 C91 9 91 7 92 4 C92 4 93 3 94 2 L129 -33 C130 -35 132 -36 134 -36 L254 -36 C256 -36 259 -34 260 -31 L260 -31 Z M415 608 C412 625 403 643 392 656 C390 657 386 661 384 663 L364 682 C359 689 352 695 345 700 C332 710 314 713 298 710 C289 709 282 705 275 700 C267 695 263 689 257 684 C255 683 249 678 248 680 C246 684 242 687 239 690 L231 698 C227 700 225 704 222 704 L170 704 C157 704 164 684 164 678 C167 666 171 655 177 644 C184 634 191 626 200 618 C208 609 217 600 227 592 C244 576 268 572 290 579 C301 583 309 590 317 598 C320 601 323 604 328 606 C329 606 330 607 331 607 L335 603 C336 601 338 599 341 598 L349 590 C351 587 353 584 357 584 L400 584 C405 584 414 582 417 588 C418 591 417 594 417 598 C417 601 416 604 415 608 L415 608 Z " />
<glyph glyph-name="ograve" unicode="&#xf2;" horiz-adv-x="527" d="M131 36 L166 0 C196 -29 243 -44 310 -44 C379 -44 427 -29 457 4 C481 30 492 68 492 123 L492 333 C492 388 481 425 457 451 L453 456 L417 491 C389 521 341 535 275 535 C205 535 157 519 127 487 C103 461 91 423 91 369 L91 158 C91 104 103 66 127 39 L131 36 Z M233 149 L233 307 C233 334 237 354 248 370 C260 385 278 392 304 392 L314 392 C325 392 334 391 345 389 C349 376 351 362 351 343 L351 184 C351 158 346 138 336 123 C324 107 305 99 279 99 L269 99 C259 99 250 101 239 104 C235 116 233 131 233 149 L233 149 Z M318 655 L283 691 C281 692 279 693 277 693 L225 693 C224 693 221 691 219 689 C218 686 218 685 219 683 L256 615 L293 578 C293 576 296 575 298 575 L324 575 C326 575 327 576 328 578 C330 580 330 582 330 584 L319 652 C319 653 319 654 318 655 L318 655 Z " />
<glyph glyph-name="oacute" unicode="&#xf3;" horiz-adv-x="527" d="M131 36 L166 0 C196 -29 243 -44 310 -44 C379 -44 427 -29 457 4 C481 30 492 68 492 123 L492 333 C492 388 481 425 457 451 L453 456 L417 491 C389 521 341 535 275 535 C205 535 157 519 127 487 C103 461 91 423 91 369 L91 158 C91 104 103 66 127 39 L131 36 Z M233 149 L233 307 C233 334 237 354 248 370 C260 385 278 392 304 392 L314 392 C325 392 334 391 345 389 C349 376 351 362 351 343 L351 184 C351 158 346 138 336 123 C324 107 305 99 279 99 L269 99 C259 99 250 101 239 104 C235 116 233 131 233 149 L233 149 Z M261 684 L248 619 C248 618 248 616 250 614 C250 613 250 613 251 613 L286 578 C287 576 289 575 291 575 L321 575 C323 575 326 577 327 579 L371 644 C372 644 373 646 373 647 C373 649 372 651 371 652 L335 687 C334 688 332 689 330 689 L268 689 C265 689 262 686 261 684 L261 684 Z " />
<glyph glyph-name="ocircumflex" unicode="&#xf4;" horiz-adv-x="527" d="M131 36 L166 0 C196 -29 243 -44 310 -44 C379 -44 427 -29 457 4 C481 30 492 68 492 123 L492 333 C492 388 481 425 457 451 L453 456 L417 491 C389 521 341 535 275 535 C205 535 157 519 127 487 C103 461 91 423 91 369 L91 158 C91 104 103 66 127 39 L131 36 Z M233 149 L233 307 C233 334 237 354 248 370 C260 385 278 392 304 392 L314 392 C325 392 334 391 345 389 C349 376 351 362 351 343 L351 184 C351 158 346 138 336 123 C324 107 305 99 279 99 L269 99 C259 99 250 101 239 104 C235 116 233 131 233 149 L233 149 Z M169 633 C163 629 165 624 169 620 C171 618 174 615 176 612 C179 609 183 605 187 601 C191 599 194 594 196 592 C198 589 203 585 206 585 L262 585 C266 585 272 584 276 588 L302 619 L308 626 L310 623 L319 613 C324 609 327 606 330 602 C333 599 337 594 341 592 C343 589 347 585 350 585 L405 585 C411 585 422 584 423 591 C423 593 422 596 420 598 L397 632 L374 666 C369 671 366 676 361 681 C356 686 350 692 345 697 L336 705 C333 708 332 712 328 712 L247 712 C244 712 240 712 238 709 L169 633 Z " />
<glyph glyph-name="otilde" unicode="&#xf5;" horiz-adv-x="527" d="M131 36 L166 0 C196 -29 243 -44 310 -44 C379 -44 427 -29 457 4 C481 30 492 68 492 123 L492 333 C492 388 481 425 457 451 L453 456 L417 491 C389 521 341 535 275 535 C205 535 157 519 127 487 C103 461 91 423 91 369 L91 158 C91 104 103 66 127 39 L131 36 Z M233 149 L233 307 C233 334 237 354 248 370 C260 385 278 392 304 392 L314 392 C325 392 334 391 345 389 C349 376 351 362 351 343 L351 184 C351 158 346 138 336 123 C324 107 305 99 279 99 L269 99 C259 99 250 101 239 104 C235 116 233 131 233 149 L233 149 Z M421 608 C418 625 409 643 398 656 C396 657 392 661 390 663 L370 682 C365 689 358 695 351 700 C338 710 320 713 304 710 C295 709 288 705 281 700 C273 695 269 689 263 684 C261 683 255 678 254 680 C252 684 248 687 245 690 L237 698 C233 700 231 704 228 704 L176 704 C163 704 170 684 170 678 C173 666 177 655 183 644 C190 634 197 626 206 618 C214 609 223 600 233 592 C250 576 274 572 296 579 C307 583 315 590 323 598 C326 601 329 604 334 606 C335 606 336 607 337 607 L341 603 C342 601 344 599 347 598 L355 590 C357 587 359 584 363 584 L406 584 C411 584 420 582 423 588 C424 591 423 594 423 598 C423 601 422 604 421 608 L421 608 Z " />
<glyph glyph-name="odieresis" unicode="&#xf6;" horiz-adv-x="527" d="M131 36 L166 0 C196 -29 243 -44 310 -44 C379 -44 427 -29 457 4 C481 30 492 68 492 123 L492 333 C492 388 481 425 457 451 L453 456 L417 491 C389 521 341 535 275 535 C205 535 157 519 127 487 C103 461 91 423 91 369 L91 158 C91 104 103 66 127 39 L131 36 Z M233 149 L233 307 C233 334 237 354 248 370 C260 385 278 392 304 392 L314 392 C325 392 334 391 345 389 C349 376 351 362 351 343 L351 184 C351 158 346 138 336 123 C324 107 305 99 279 99 L269 99 C259 99 250 101 239 104 C235 116 233 131 233 149 L233 149 Z M393 622 C393 634 390 643 383 651 L347 686 C340 693 331 696 319 696 C298 696 281 680 281 661 L256 686 C248 693 239 696 229 696 C207 696 189 679 189 658 C189 647 194 637 201 631 L237 595 C243 588 253 584 264 584 C284 584 301 600 302 620 L327 595 C335 588 344 584 355 584 C376 584 393 601 393 622 L393 622 Z " />
<glyph glyph-name="divide" unicode="&#xf7;" horiz-adv-x="367" d="M294 314 C294 316 293 317 290 317 L265 317 C269 324 272 332 272 340 C272 352 268 363 260 370 L224 406 C217 413 206 418 194 418 C171 418 152 399 152 375 C152 363 157 353 164 346 L192 317 L98 317 C95 317 91 313 91 311 L91 241 C91 239 92 237 94 236 L129 200 C130 199 132 199 134 199 L159 199 C155 192 152 183 152 175 C152 164 157 153 164 145 L200 110 C208 103 218 98 230 98 C253 98 272 117 272 141 C272 152 268 162 260 170 L232 199 L326 199 C329 199 332 201 332 206 L332 275 C332 277 332 278 330 279 L294 314 Z " />
<glyph glyph-name="oslash" unicode="&#xf8;" horiz-adv-x="526" d="M131 37 L145 22 L123 -44 C123 -47 123 -48 124 -49 C124 -50 124 -50 125 -50 L161 -86 C162 -87 164 -88 166 -88 L256 -88 C260 -88 262 -86 263 -83 L277 -42 C287 -43 298 -43 310 -43 C379 -43 427 -28 457 5 C481 31 492 69 492 123 L492 334 C492 390 480 430 453 457 L445 465 L460 513 C461 516 461 518 459 520 C459 520 458 520 458 521 L423 556 C422 558 420 558 418 558 L327 558 C324 558 321 556 320 553 L313 534 C302 535 288 536 275 536 C205 536 157 520 127 488 C103 462 91 423 91 370 L91 159 C91 127 96 102 104 81 C109 64 119 48 131 37 L131 37 Z M248 370 C253 376 258 380 265 385 L233 286 L233 308 C233 335 237 355 248 370 L248 370 Z M336 123 L330 117 L351 183 C351 158 346 138 336 123 L336 123 Z " />
<glyph glyph-name="ugrave" unicode="&#xf9;" horiz-adv-x="556" d="M106 503 L106 158 C106 104 117 66 141 40 L180 1 C210 -29 257 -44 324 -44 C393 -44 441 -28 470 4 C495 31 506 69 506 123 L506 468 L519 482 C521 483 522 486 520 489 C520 490 519 491 519 491 L483 526 C483 527 481 528 479 528 L358 528 C355 528 353 526 352 524 C351 522 351 518 353 517 L366 503 L366 184 C366 158 361 138 351 123 C338 107 320 100 294 100 L284 100 C274 100 264 101 254 104 C250 116 247 131 247 149 L247 468 L259 482 C260 483 260 484 260 485 C260 488 260 490 259 491 L224 526 C222 527 220 528 218 528 L98 528 C96 528 93 526 92 524 C91 522 91 518 93 517 L106 503 Z M333 655 L298 691 C296 692 294 693 292 693 L240 693 C239 693 236 691 234 689 C233 686 233 685 234 683 L271 615 L308 578 C308 576 311 575 313 575 L339 575 C341 575 342 576 343 578 C345 580 345 582 345 584 L334 652 C334 653 334 654 333 655 L333 655 Z " />
<glyph glyph-name="uacute" unicode="&#xfa;" horiz-adv-x="556" d="M106 503 L106 158 C106 104 117 66 141 40 L180 1 C210 -29 257 -44 324 -44 C393 -44 441 -28 470 4 C495 31 506 69 506 123 L506 468 L519 482 C521 483 522 486 520 489 C520 490 519 491 519 491 L483 526 C483 527 481 528 479 528 L358 528 C355 528 353 526 352 524 C351 522 351 518 353 517 L366 503 L366 184 C366 158 361 138 351 123 C338 107 320 100 294 100 L284 100 C274 100 264 101 254 104 C250 116 247 131 247 149 L247 468 L259 482 C260 483 260 484 260 485 C260 488 260 490 259 491 L224 526 C222 527 220 528 218 528 L98 528 C96 528 93 526 92 524 C91 522 91 518 93 517 L106 503 Z M274 684 L261 619 C261 618 261 616 263 614 C263 613 263 613 264 613 L299 578 C300 576 302 575 304 575 L334 575 C336 575 339 577 340 579 L384 644 C385 644 386 646 386 647 C386 649 385 651 384 652 L348 687 C347 688 345 689 343 689 L281 689 C278 689 275 686 274 684 L274 684 Z " />
<glyph glyph-name="ucircumflex" unicode="&#xfb;" horiz-adv-x="556" d="M106 503 L106 158 C106 104 117 66 141 40 L180 1 C210 -29 257 -44 324 -44 C393 -44 441 -28 470 4 C495 31 506 69 506 123 L506 468 L519 482 C521 483 522 486 520 489 C520 490 519 491 519 491 L483 526 C483 527 481 528 479 528 L358 528 C355 528 353 526 352 524 C351 522 351 518 353 517 L366 503 L366 184 C366 158 361 138 351 123 C338 107 320 100 294 100 L284 100 C274 100 264 101 254 104 C250 116 247 131 247 149 L247 468 L259 482 C260 483 260 484 260 485 C260 488 260 490 259 491 L224 526 C222 527 220 528 218 528 L98 528 C96 528 93 526 92 524 C91 522 91 518 93 517 L106 503 Z M201 625 C195 621 197 616 201 612 C203 610 206 607 208 604 C211 601 215 597 219 593 C223 591 226 586 228 584 C230 581 235 577 238 577 L294 577 C298 577 304 576 308 580 L334 611 L340 618 L342 615 L351 605 C356 601 359 598 362 594 C365 591 369 586 373 584 C375 581 379 577 382 577 L437 577 C443 577 454 576 455 583 C455 585 454 588 452 590 L429 624 L406 658 C401 663 398 668 393 673 C388 678 382 684 377 689 L368 697 C365 700 364 704 360 704 L279 704 C276 704 272 704 270 701 L201 625 Z " />
<glyph glyph-name="udieresis" unicode="&#xfc;" horiz-adv-x="556" d="M106 503 L106 158 C106 104 117 66 141 40 L180 1 C210 -29 257 -44 324 -44 C393 -44 441 -28 470 4 C495 31 506 69 506 123 L506 468 L519 482 C521 483 522 486 520 489 C520 490 519 491 519 491 L483 526 C483 527 481 528 479 528 L358 528 C355 528 353 526 352 524 C351 522 351 518 353 517 L366 503 L366 184 C366 158 361 138 351 123 C338 107 320 100 294 100 L284 100 C274 100 264 101 254 104 C250 116 247 131 247 149 L247 468 L259 482 C260 483 260 484 260 485 C260 488 260 490 259 491 L224 526 C222 527 220 528 218 528 L98 528 C96 528 93 526 92 524 C91 522 91 518 93 517 L106 503 Z M425 613 C425 625 422 634 415 642 L379 677 C372 684 363 687 351 687 C330 687 313 671 313 652 L288 677 C280 684 271 687 261 687 C239 687 221 670 221 649 C221 638 226 628 233 622 L269 586 C275 579 285 575 296 575 C316 575 333 591 334 611 L359 586 C367 579 376 575 387 575 C408 575 425 592 425 613 L425 613 Z " />
<glyph glyph-name="yacute" unicode="&#xfd;" horiz-adv-x="519" d="M483 491 L446 526 C446 527 444 528 442 528 L321 528 C319 528 316 526 315 524 C313 522 314 518 316 517 L329 504 L279 407 L247 469 L259 482 C260 483 260 484 260 485 C260 488 260 490 259 491 L224 526 C222 527 220 528 218 528 L98 528 C96 528 93 526 92 524 C91 522 91 518 93 517 L106 503 L218 250 L218 25 L207 12 C204 10 204 7 205 4 C205 4 206 3 207 2 L242 -33 C243 -34 245 -35 247 -35 L367 -35 C370 -35 371 -33 373 -30 C374 -29 373 -26 371 -23 L360 -10 L360 215 L469 467 L483 482 C484 483 484 486 483 489 C483 490 483 491 483 491 L483 491 Z M256 684 L243 619 C243 618 243 616 245 614 C245 613 245 613 246 613 L281 578 C282 576 284 575 286 575 L316 575 C318 575 321 577 322 579 L366 644 C367 644 368 646 368 647 C368 649 367 651 366 652 L330 687 C329 688 327 689 325 689 L263 689 C260 689 257 686 256 684 L256 684 Z " />
<glyph glyph-name="thorn" unicode="&#xfe;" horiz-adv-x="483" d="M410 409 L374 445 C351 469 314 482 268 482 L259 482 C260 483 261 486 260 489 L224 525 C222 527 220 528 218 528 L98 528 C96 528 93 526 92 524 C91 522 91 518 93 517 L106 503 L106 25 L93 12 C91 10 91 7 92 4 C92 4 93 3 94 3 L129 -33 C130 -34 132 -35 134 -35 L254 -35 C256 -35 259 -33 260 -30 C261 -29 260 -26 259 -23 L247 -10 L247 57 L303 57 C351 57 389 71 414 99 C435 123 446 159 446 200 L446 302 C446 346 436 380 415 404 L410 409 Z M306 260 C306 235 300 218 288 208 C278 200 266 196 247 193 L247 346 L259 346 C277 346 293 345 303 341 C305 333 306 324 306 313 L306 260 Z " />
<glyph glyph-name="ydieresis" unicode="&#xff;" horiz-adv-x="519" d="M483 491 L446 526 C446 527 444 528 442 528 L321 528 C319 528 316 526 315 524 C313 522 314 518 316 517 L329 504 L279 407 L247 469 L259 482 C260 483 260 484 260 485 C260 488 260 490 259 491 L224 526 C222 527 220 528 218 528 L98 528 C96 528 93 526 92 524 C91 522 91 518 93 517 L106 503 L218 250 L218 25 L207 12 C204 10 204 7 205 4 C205 4 206 3 207 2 L242 -33 C243 -34 245 -35 247 -35 L367 -35 C370 -35 371 -33 373 -30 C374 -29 373 -26 371 -23 L360 -10 L360 215 L469 467 L483 482 C484 483 484 486 483 489 C483 490 483 491 483 491 L483 491 Z M390 613 C390 625 387 634 380 642 L344 677 C337 684 328 687 316 687 C295 687 278 671 278 652 L253 677 C245 684 236 687 226 687 C204 687 186 670 186 649 C186 638 191 628 198 622 L234 586 C240 579 250 575 261 575 C281 575 298 591 299 611 L324 586 C332 579 341 575 352 575 C373 575 390 592 390 613 L390 613 Z " />
<glyph glyph-name="Amacron" unicode="&#x100;" horiz-adv-x="571" d="M94 2 L129 -33 C130 -34 132 -35 134 -35 L254 -35 C256 -35 259 -33 260 -30 C261 -29 260 -26 259 -23 L247 -11 L272 82 L364 82 L380 24 L368 12 C366 10 365 7 367 4 C367 4 368 3 368 2 L404 -33 C405 -34 406 -35 408 -35 L528 -35 C531 -35 534 -33 534 -30 C536 -29 535 -26 534 -23 L521 -10 L391 469 L400 483 C401 484 402 487 400 489 C400 490 399 491 399 491 L363 526 C363 527 361 528 359 528 L233 528 C230 528 228 526 226 525 C226 522 226 520 226 517 L235 504 L106 25 L93 12 C91 10 91 7 92 4 C92 4 93 3 94 2 L94 2 Z M329 217 L308 217 L318 254 L329 217 Z M433 644 C433 644 432 647 432 646 L421 658 L409 669 C406 670 404 674 402 677 C398 679 395 683 393 683 L201 683 C197 683 193 680 193 676 L193 628 C193 624 192 618 197 615 C199 611 203 609 205 607 C208 603 212 599 216 595 C219 592 222 590 224 587 C226 584 231 580 234 580 L418 580 C424 580 434 578 434 587 L434 641 C434 642 434 644 433 644 L433 644 Z " />
<glyph glyph-name="amacron" unicode="&#x101;" horiz-adv-x="571" d="M94 2 L129 -33 C130 -34 132 -35 134 -35 L254 -35 C256 -35 259 -33 260 -30 C261 -29 260 -26 259 -23 L247 -11 L272 82 L364 82 L380 24 L368 12 C366 10 365 7 367 4 C367 4 368 3 368 2 L404 -33 C405 -34 406 -35 408 -35 L528 -35 C531 -35 534 -33 534 -30 C536 -29 535 -26 534 -23 L521 -10 L391 469 L400 483 C401 484 402 487 400 489 C400 490 399 491 399 491 L363 526 C363 527 361 528 359 528 L233 528 C230 528 228 526 226 525 C226 522 226 520 226 517 L235 504 L106 25 L93 12 C91 10 91 7 92 4 C92 4 93 3 94 2 L94 2 Z M329 217 L308 217 L318 254 L329 217 Z M433 644 C433 644 432 647 432 646 L421 658 L409 669 C406 670 404 674 402 677 C398 679 395 683 393 683 L201 683 C197 683 193 680 193 676 L193 628 C193 624 192 618 197 615 C199 611 203 609 205 607 C208 603 212 599 216 595 C219 592 222 590 224 587 C226 584 231 580 234 580 L418 580 C424 580 434 578 434 587 L434 641 C434 642 434 644 433 644 L433 644 Z " />
<glyph glyph-name="Abreve" unicode="&#x102;" horiz-adv-x="571" d="M94 2 L129 -33 C130 -34 132 -35 134 -35 L254 -35 C256 -35 259 -33 260 -30 C261 -29 260 -26 259 -23 L247 -11 L272 82 L364 82 L380 24 L368 12 C366 10 365 7 367 4 C367 4 368 3 368 2 L404 -33 C405 -34 406 -35 408 -35 L528 -35 C531 -35 534 -33 534 -30 C536 -29 535 -26 534 -23 L521 -10 L391 469 L400 483 C401 484 402 487 400 489 C400 490 399 491 399 491 L363 526 C363 527 361 528 359 528 L233 528 C230 528 228 526 226 525 C226 522 226 520 226 517 L235 504 L106 25 L93 12 C91 10 91 7 92 4 C92 4 93 3 94 2 L94 2 Z M329 217 L308 217 L318 254 L329 217 Z M228 620 C240 608 252 594 265 583 C277 572 292 566 307 563 C339 558 375 563 398 587 C405 595 412 605 418 616 C421 627 424 639 425 652 C426 655 426 660 421 662 C419 666 416 668 412 671 C410 674 407 678 404 680 C402 683 399 686 396 687 C393 691 390 695 387 696 C385 697 384 698 382 698 L319 698 C311 698 313 689 311 685 C309 679 306 675 300 673 C299 673 298 673 297 675 C295 676 294 677 293 678 L285 686 C283 688 281 690 278 693 C276 695 273 698 270 698 L206 698 C199 698 199 689 199 685 C200 676 202 668 205 661 C209 647 214 634 224 624 L228 620 Z M401 591 C401 590 400 588 398 587 L401 591 Z M394 584 L398 587 C397 585 396 584 394 584 L394 584 Z " />
<glyph glyph-name="abreve" unicode="&#x103;" horiz-adv-x="571" d="M94 2 L129 -33 C130 -34 132 -35 134 -35 L254 -35 C256 -35 259 -33 260 -30 C261 -29 260 -26 259 -23 L247 -11 L272 82 L364 82 L380 24 L368 12 C366 10 365 7 367 4 C367 4 368 3 368 2 L404 -33 C405 -34 406 -35 408 -35 L528 -35 C531 -35 534 -33 534 -30 C536 -29 535 -26 534 -23 L521 -10 L391 469 L400 483 C401 484 402 487 400 489 C400 490 399 491 399 491 L363 526 C363 527 361 528 359 528 L233 528 C230 528 228 526 226 525 C226 522 226 520 226 517 L235 504 L106 25 L93 12 C91 10 91 7 92 4 C92 4 93 3 94 2 L94 2 Z M329 217 L308 217 L318 254 L329 217 Z M228 620 C240 608 252 594 265 583 C277 572 292 566 307 563 C339 558 375 563 398 587 C405 595 412 605 418 616 C421 627 424 639 425 652 C426 655 426 660 421 662 C419 666 416 668 412 671 C410 674 407 678 404 680 C402 683 399 686 396 687 C393 691 390 695 387 696 C385 697 384 698 382 698 L319 698 C311 698 313 689 311 685 C309 679 306 675 300 673 C299 673 298 673 297 675 C295 676 294 677 293 678 L285 686 C283 688 281 690 278 693 C276 695 273 698 270 698 L206 698 C199 698 199 689 199 685 C200 676 202 668 205 661 C209 647 214 634 224 624 L228 620 Z M401 591 C401 590 400 588 398 587 L401 591 Z M394 584 L398 587 C397 585 396 584 394 584 L394 584 Z " />
<glyph glyph-name="Aogonek" unicode="&#x104;" horiz-adv-x="570" d="M521 -10 L391 469 L400 483 C401 484 402 487 400 489 C400 490 399 491 399 491 L363 526 C363 527 361 528 359 528 L233 528 C230 528 228 526 226 525 C226 522 226 520 226 517 L235 504 L106 25 L93 12 C91 10 91 7 92 4 C92 4 93 3 94 2 L129 -33 C130 -34 132 -35 134 -35 L254 -35 C256 -35 259 -33 260 -30 C261 -29 260 -26 259 -23 L247 -11 L272 82 L364 82 L380 24 L368 12 C366 10 365 7 367 4 C367 4 368 3 368 2 L393 -24 C377 -24 357 -26 345 -38 L341 -42 C332 -54 331 -72 331 -95 L331 -109 C331 -137 336 -156 348 -167 L349 -167 L384 -202 C397 -216 416 -221 446 -221 L484 -221 C487 -221 489 -220 490 -219 C491 -219 492 -217 492 -215 L492 -157 C492 -155 491 -153 490 -151 L469 -131 C483 -130 491 -127 497 -122 L499 -120 C506 -110 508 -94 508 -67 L508 -35 L528 -35 C531 -35 534 -33 534 -30 C536 -29 535 -26 534 -23 L521 -10 Z M329 217 L308 217 L318 254 L329 217 Z " />
<glyph glyph-name="aogonek" unicode="&#x105;" horiz-adv-x="570" d="M521 -10 L391 469 L400 483 C401 484 402 487 400 489 C400 490 399 491 399 491 L363 526 C363 527 361 528 359 528 L233 528 C230 528 228 526 226 525 C226 522 226 520 226 517 L235 504 L106 25 L93 12 C91 10 91 7 92 4 C92 4 93 3 94 2 L129 -33 C130 -34 132 -35 134 -35 L254 -35 C256 -35 259 -33 260 -30 C261 -29 260 -26 259 -23 L247 -11 L272 82 L364 82 L380 24 L368 12 C366 10 365 7 367 4 C367 4 368 3 368 2 L393 -24 C377 -24 357 -26 345 -38 L341 -42 C332 -54 331 -72 331 -95 L331 -109 C331 -137 336 -156 348 -167 L349 -167 L384 -202 C397 -216 416 -221 446 -221 L484 -221 C487 -221 489 -220 490 -219 C491 -219 492 -217 492 -215 L492 -157 C492 -155 491 -153 490 -151 L469 -131 C483 -130 491 -127 497 -122 L499 -120 C506 -110 508 -94 508 -67 L508 -35 L528 -35 C531 -35 534 -33 534 -30 C536 -29 535 -26 534 -23 L521 -10 Z M329 217 L308 217 L318 254 L329 217 Z " />
<glyph glyph-name="Cacute" unicode="&#x106;" horiz-adv-x="526" d="M131 36 L166 1 C196 -29 243 -44 310 -44 C379 -44 427 -28 457 4 C481 31 492 69 492 123 L492 174 C492 175 491 177 490 179 L455 214 C453 216 451 217 449 217 L345 217 C342 217 339 215 337 212 C337 209 337 206 339 204 L351 192 L351 185 C351 158 346 138 336 123 C324 107 305 100 279 100 L269 100 C259 100 250 101 239 105 C235 116 233 132 233 149 L233 308 C233 334 237 355 248 370 C260 385 278 393 304 393 L314 393 C327 393 337 391 346 389 C348 383 350 377 351 370 L338 358 C337 355 336 353 337 351 L338 348 L373 313 C375 312 377 311 379 311 L484 311 C489 311 492 313 492 318 L492 334 C492 389 481 426 457 452 L453 457 L418 491 C389 521 341 535 275 535 C205 535 157 520 127 487 C103 461 91 423 91 370 L91 158 C91 104 103 66 127 40 L131 36 Z M256 684 L243 619 C243 618 243 616 245 614 C245 613 245 613 246 613 L281 578 C282 576 284 575 286 575 L316 575 C318 575 321 577 322 579 L366 644 C367 644 368 646 368 647 C368 649 367 651 366 652 L330 687 C329 688 327 689 325 689 L263 689 C260 689 257 686 256 684 L256 684 Z " />
<glyph glyph-name="cacute" unicode="&#x107;" horiz-adv-x="526" d="M131 36 L166 1 C196 -29 243 -44 310 -44 C379 -44 427 -28 457 4 C481 31 492 69 492 123 L492 174 C492 175 491 177 490 179 L455 214 C453 216 451 217 449 217 L345 217 C342 217 339 215 337 212 C337 209 337 206 339 204 L351 192 L351 185 C351 158 346 138 336 123 C324 107 305 100 279 100 L269 100 C259 100 250 101 239 105 C235 116 233 132 233 149 L233 308 C233 334 237 355 248 370 C260 385 278 393 304 393 L314 393 C327 393 337 391 346 389 C348 383 350 377 351 370 L338 358 C337 355 336 353 337 351 L338 348 L373 313 C375 312 377 311 379 311 L484 311 C489 311 492 313 492 318 L492 334 C492 389 481 426 457 452 L453 457 L418 491 C389 521 341 535 275 535 C205 535 157 520 127 487 C103 461 91 423 91 370 L91 158 C91 104 103 66 127 40 L131 36 Z M256 684 L243 619 C243 618 243 616 245 614 C245 613 245 613 246 613 L281 578 C282 576 284 575 286 575 L316 575 C318 575 321 577 322 579 L366 644 C367 644 368 646 368 647 C368 649 367 651 366 652 L330 687 C329 688 327 689 325 689 L263 689 C260 689 257 686 256 684 L256 684 Z " />
<glyph glyph-name="Ccircumflex" unicode="&#x108;" horiz-adv-x="526" d="M131 36 L166 1 C196 -29 243 -44 310 -44 C379 -44 427 -28 457 4 C481 31 492 69 492 123 L492 174 C492 175 491 177 490 179 L455 214 C453 216 451 217 449 217 L345 217 C342 217 339 215 337 212 C337 209 337 206 339 204 L351 192 L351 185 C351 158 346 138 336 123 C324 107 305 100 279 100 L269 100 C259 100 250 101 239 105 C235 116 233 132 233 149 L233 308 C233 334 237 355 248 370 C260 385 278 393 304 393 L314 393 C327 393 337 391 346 389 C348 383 350 377 351 370 L338 358 C337 355 336 353 337 351 L338 348 L373 313 C375 312 377 311 379 311 L484 311 C489 311 492 313 492 318 L492 334 C492 389 481 426 457 452 L453 457 L418 491 C389 521 341 535 275 535 C205 535 157 520 127 487 C103 461 91 423 91 370 L91 158 C91 104 103 66 127 40 L131 36 Z M157 616 C151 612 153 607 157 603 C159 601 162 598 164 595 C167 592 171 588 175 584 C179 582 182 577 184 575 C186 572 191 568 194 568 L250 568 C254 568 260 567 264 571 L290 602 L296 609 L298 606 L307 596 C312 592 315 589 318 585 C321 582 325 577 329 575 C331 572 335 568 338 568 L393 568 C399 568 410 567 411 574 C411 576 410 579 408 581 L385 615 L362 649 C357 654 354 659 349 664 C344 669 338 675 333 680 L324 688 C321 691 320 695 316 695 L235 695 C232 695 228 695 226 692 L157 616 Z " />
<glyph glyph-name="ccircumflex" unicode="&#x109;" horiz-adv-x="526" d="M131 36 L166 1 C196 -29 243 -44 310 -44 C379 -44 427 -28 457 4 C481 31 492 69 492 123 L492 174 C492 175 491 177 490 179 L455 214 C453 216 451 217 449 217 L345 217 C342 217 339 215 337 212 C337 209 337 206 339 204 L351 192 L351 185 C351 158 346 138 336 123 C324 107 305 100 279 100 L269 100 C259 100 250 101 239 105 C235 116 233 132 233 149 L233 308 C233 334 237 355 248 370 C260 385 278 393 304 393 L314 393 C327 393 337 391 346 389 C348 383 350 377 351 370 L338 358 C337 355 336 353 337 351 L338 348 L373 313 C375 312 377 311 379 311 L484 311 C489 311 492 313 492 318 L492 334 C492 389 481 426 457 452 L453 457 L418 491 C389 521 341 535 275 535 C205 535 157 520 127 487 C103 461 91 423 91 370 L91 158 C91 104 103 66 127 40 L131 36 Z M157 616 C151 612 153 607 157 603 C159 601 162 598 164 595 C167 592 171 588 175 584 C179 582 182 577 184 575 C186 572 191 568 194 568 L250 568 C254 568 260 567 264 571 L290 602 L296 609 L298 606 L307 596 C312 592 315 589 318 585 C321 582 325 577 329 575 C331 572 335 568 338 568 L393 568 C399 568 410 567 411 574 C411 576 410 579 408 581 L385 615 L362 649 C357 654 354 659 349 664 C344 669 338 675 333 680 L324 688 C321 691 320 695 316 695 L235 695 C232 695 228 695 226 692 L157 616 Z " />
<glyph glyph-name="Cdotaccent" unicode="&#x10a;" horiz-adv-x="526" d="M131 36 L166 1 C196 -29 243 -44 310 -44 C379 -44 427 -28 457 4 C481 31 492 69 492 123 L492 174 C492 175 491 177 490 179 L455 214 C453 216 451 217 449 217 L345 217 C342 217 339 215 337 212 C337 209 337 206 339 204 L351 192 L351 185 C351 158 346 138 336 123 C324 107 305 100 279 100 L269 100 C259 100 250 101 239 105 C235 116 233 132 233 149 L233 308 C233 334 237 355 248 370 C260 385 278 393 304 393 L314 393 C327 393 337 391 346 389 C348 383 350 377 351 370 L338 358 C337 355 336 353 337 351 L338 348 L373 313 C375 312 377 311 379 311 L484 311 C489 311 492 313 492 318 L492 334 C492 389 481 426 457 452 L453 457 L418 491 C389 521 341 535 275 535 C205 535 157 520 127 487 C103 461 91 423 91 370 L91 158 C91 104 103 66 127 40 L131 36 Z M327 710 C314 722 296 730 277 730 C238 730 206 699 206 660 C206 641 214 623 227 609 L263 574 C276 562 293 554 313 554 C351 554 383 586 383 624 C383 643 375 662 362 675 L327 710 Z " />
<glyph glyph-name="cdotaccent" unicode="&#x10b;" horiz-adv-x="526" d="M131 36 L166 1 C196 -29 243 -44 310 -44 C379 -44 427 -28 457 4 C481 31 492 69 492 123 L492 174 C492 175 491 177 490 179 L455 214 C453 216 451 217 449 217 L345 217 C342 217 339 215 337 212 C337 209 337 206 339 204 L351 192 L351 185 C351 158 346 138 336 123 C324 107 305 100 279 100 L269 100 C259 100 250 101 239 105 C235 116 233 132 233 149 L233 308 C233 334 237 355 248 370 C260 385 278 393 304 393 L314 393 C327 393 337 391 346 389 C348 383 350 377 351 370 L338 358 C337 355 336 353 337 351 L338 348 L373 313 C375 312 377 311 379 311 L484 311 C489 311 492 313 492 318 L492 334 C492 389 481 426 457 452 L453 457 L418 491 C389 521 341 535 275 535 C205 535 157 520 127 487 C103 461 91 423 91 370 L91 158 C91 104 103 66 127 40 L131 36 Z M327 710 C314 722 296 730 277 730 C238 730 206 699 206 660 C206 641 214 623 227 609 L263 574 C276 562 293 554 313 554 C351 554 383 586 383 624 C383 643 375 662 362 675 L327 710 Z " />
<glyph glyph-name="Ccaron" unicode="&#x10c;" horiz-adv-x="526" d="M131 36 L166 1 C196 -29 243 -44 310 -44 C379 -44 427 -28 457 4 C481 31 492 69 492 123 L492 174 C492 175 491 177 490 179 L455 214 C453 216 451 217 449 217 L345 217 C342 217 339 215 337 212 C337 209 337 206 339 204 L351 192 L351 185 C351 158 346 138 336 123 C324 107 305 100 279 100 L269 100 C259 100 250 101 239 105 C235 116 233 132 233 149 L233 308 C233 334 237 355 248 370 C260 385 278 393 304 393 L314 393 C327 393 337 391 346 389 C348 383 350 377 351 370 L338 358 C337 355 336 353 337 351 L338 348 L373 313 C375 312 377 311 379 311 L484 311 C489 311 492 313 492 318 L492 334 C492 389 481 426 457 452 L453 457 L418 491 C389 521 341 535 275 535 C205 535 157 520 127 487 C103 461 91 423 91 370 L91 158 C91 104 103 66 127 40 L131 36 Z M220 606 L221 606 L256 570 C257 569 259 568 261 568 L345 568 C348 568 350 569 351 571 L412 647 C414 648 414 650 414 652 C414 653 413 655 412 657 L377 692 C376 694 374 695 372 695 L308 695 C306 695 303 693 302 691 L273 649 L267 656 L267 657 L231 692 C231 694 229 695 226 695 L163 695 C161 695 158 693 157 690 C156 687 156 685 158 683 L220 606 Z " />
<glyph glyph-name="ccaron" unicode="&#x10d;" horiz-adv-x="526" d="M131 36 L166 1 C196 -29 243 -44 310 -44 C379 -44 427 -28 457 4 C481 31 492 69 492 123 L492 174 C492 175 491 177 490 179 L455 214 C453 216 451 217 449 217 L345 217 C342 217 339 215 337 212 C337 209 337 206 339 204 L351 192 L351 185 C351 158 346 138 336 123 C324 107 305 100 279 100 L269 100 C259 100 250 101 239 105 C235 116 233 132 233 149 L233 308 C233 334 237 355 248 370 C260 385 278 393 304 393 L314 393 C327 393 337 391 346 389 C348 383 350 377 351 370 L338 358 C337 355 336 353 337 351 L338 348 L373 313 C375 312 377 311 379 311 L484 311 C489 311 492 313 492 318 L492 334 C492 389 481 426 457 452 L453 457 L418 491 C389 521 341 535 275 535 C205 535 157 520 127 487 C103 461 91 423 91 370 L91 158 C91 104 103 66 127 40 L131 36 Z M220 606 L221 606 L256 570 C257 569 259 568 261 568 L345 568 C348 568 350 569 351 571 L412 647 C414 648 414 650 414 652 C414 653 413 655 412 657 L377 692 C376 694 374 695 372 695 L308 695 C306 695 303 693 302 691 L273 649 L267 656 L267 657 L231 692 C231 694 229 695 226 695 L163 695 C161 695 158 693 157 690 C156 687 156 685 158 683 L220 606 Z " />
<glyph glyph-name="Dcaron" unicode="&#x10e;" horiz-adv-x="542" d="M106 503 L106 25 L93 12 C91 10 91 7 92 4 C92 4 93 3 94 2 L129 -33 C130 -34 132 -35 134 -35 L348 -35 C398 -35 438 -22 465 5 C492 32 506 72 506 123 L506 335 C506 383 494 422 470 448 C468 449 467 451 465 452 L431 488 C404 515 364 528 313 528 L98 528 C96 528 93 526 92 524 C91 522 91 518 93 517 L106 503 Z M366 346 L366 182 C366 157 358 136 345 123 C331 107 310 100 284 100 L247 100 L247 393 L319 393 C335 393 349 390 360 388 C364 376 366 363 366 346 L366 346 Z M216 606 L217 606 L252 570 C253 569 255 568 257 568 L341 568 C344 568 346 569 347 571 L408 647 C410 648 410 650 410 652 C410 653 409 655 408 657 L373 692 C372 694 370 695 368 695 L304 695 C302 695 299 693 298 691 L269 649 L263 656 L263 657 L227 692 C227 694 225 695 222 695 L159 695 C157 695 154 693 153 690 C152 687 152 685 154 683 L216 606 Z " />
<glyph glyph-name="dcaron" unicode="&#x10f;" horiz-adv-x="542" d="M106 503 L106 25 L93 12 C91 10 91 7 92 4 C92 4 93 3 94 2 L129 -33 C130 -34 132 -35 134 -35 L348 -35 C398 -35 438 -22 465 5 C492 32 506 72 506 123 L506 335 C506 383 494 422 470 448 C468 449 467 451 465 452 L431 488 C404 515 364 528 313 528 L98 528 C96 528 93 526 92 524 C91 522 91 518 93 517 L106 503 Z M366 346 L366 182 C366 157 358 136 345 123 C331 107 310 100 284 100 L247 100 L247 393 L319 393 C335 393 349 390 360 388 C364 376 366 363 366 346 L366 346 Z M216 606 L217 606 L252 570 C253 569 255 568 257 568 L341 568 C344 568 346 569 347 571 L408 647 C410 648 410 650 410 652 C410 653 409 655 408 657 L373 692 C372 694 370 695 368 695 L304 695 C302 695 299 693 298 691 L269 649 L263 656 L263 657 L227 692 C227 694 225 695 222 695 L159 695 C157 695 154 693 153 690 C152 687 152 685 154 683 L216 606 Z " />
<glyph glyph-name="Dcroat" unicode="&#x110;" horiz-adv-x="567" d="M491 452 L456 488 C429 515 389 528 338 528 L123 528 C122 528 119 526 117 524 C116 522 117 518 119 517 L131 503 L131 312 L98 312 C95 312 91 308 91 304 L91 235 C91 234 92 232 94 230 L131 193 L131 25 L119 12 C117 10 116 7 117 4 L119 2 L154 -33 C156 -34 158 -35 159 -35 L373 -35 C424 -35 464 -22 491 5 C518 32 532 72 532 123 L532 335 C532 383 520 422 495 448 C494 449 492 451 491 452 L491 452 Z M390 182 C390 157 384 136 370 123 C355 107 335 100 310 100 L272 100 L272 192 L361 192 C365 192 369 196 369 200 L369 269 C369 271 368 273 366 274 L331 310 C329 311 328 312 326 312 L272 312 L272 393 L345 393 C361 393 373 390 385 388 C389 376 390 363 390 346 L390 182 Z " />
<glyph glyph-name="dcroat" unicode="&#x111;" horiz-adv-x="566" d="M491 452 L456 488 C429 515 389 528 338 528 L123 528 C122 528 119 526 117 524 C116 522 117 518 119 517 L131 503 L131 312 L98 312 C95 312 91 308 91 304 L91 235 C91 234 92 232 94 230 L131 193 L131 25 L119 12 C117 10 116 7 117 4 L119 2 L154 -33 C156 -34 158 -35 159 -35 L373 -35 C424 -35 464 -22 491 5 C518 32 532 72 532 123 L532 335 C532 383 520 422 495 448 C494 449 492 451 491 452 L491 452 Z M390 182 C390 157 384 136 370 123 C355 107 335 100 310 100 L272 100 L272 192 L361 192 C365 192 369 196 369 200 L369 269 C369 271 368 273 366 274 L331 310 C329 311 328 312 326 312 L272 312 L272 393 L345 393 C361 393 373 390 385 388 C389 376 390 363 390 346 L390 182 Z " />
<glyph glyph-name="Emacron" unicode="&#x112;" horiz-adv-x="463" d="M106 25 L93 12 C91 10 91 7 92 4 C92 4 93 3 94 2 L129 -33 C130 -34 132 -35 134 -35 L420 -35 C424 -35 427 -32 427 -29 L427 72 C427 73 427 75 425 77 L389 112 C389 113 389 114 388 114 C387 114 386 115 385 115 C383 115 381 114 380 112 L367 100 L247 100 L247 183 L363 183 L376 172 C378 170 380 169 381 169 C382 169 383 170 384 170 C387 171 389 174 389 177 L389 292 C389 294 388 294 387 295 L351 332 C351 332 350 332 349 332 C348 333 347 333 346 333 C344 333 342 332 341 332 L329 319 L247 319 L247 393 L403 393 L415 380 C416 380 418 379 420 379 C421 379 423 379 423 380 C426 380 427 383 427 386 L427 485 C427 488 427 490 425 491 L389 526 C389 527 387 528 385 528 L98 528 C96 528 93 526 92 524 C91 522 91 518 93 517 L106 503 L106 25 Z M388 644 C388 644 387 647 387 646 L376 658 L364 669 C361 670 359 674 357 677 C353 679 350 683 348 683 L156 683 C152 683 148 680 148 676 L148 628 C148 624 147 618 152 615 C154 611 158 609 160 607 C163 603 167 599 171 595 C174 592 177 590 179 587 C181 584 186 580 189 580 L373 580 C379 580 389 578 389 587 L389 641 C389 642 389 644 388 644 L388 644 Z " />
<glyph glyph-name="emacron" unicode="&#x113;" horiz-adv-x="463" d="M106 25 L93 12 C91 10 91 7 92 4 C92 4 93 3 94 2 L129 -33 C130 -34 132 -35 134 -35 L420 -35 C424 -35 427 -32 427 -29 L427 72 C427 73 427 75 425 77 L389 112 C389 113 389 114 388 114 C387 114 386 115 385 115 C383 115 381 114 380 112 L367 100 L247 100 L247 183 L363 183 L376 172 C378 170 380 169 381 169 C382 169 383 170 384 170 C387 171 389 174 389 177 L389 292 C389 294 388 294 387 295 L351 332 C351 332 350 332 349 332 C348 333 347 333 346 333 C344 333 342 332 341 332 L329 319 L247 319 L247 393 L403 393 L415 380 C416 380 418 379 420 379 C421 379 423 379 423 380 C426 380 427 383 427 386 L427 485 C427 488 427 490 425 491 L389 526 C389 527 387 528 385 528 L98 528 C96 528 93 526 92 524 C91 522 91 518 93 517 L106 503 L106 25 Z M388 644 C388 644 387 647 387 646 L376 658 L364 669 C361 670 359 674 357 677 C353 679 350 683 348 683 L156 683 C152 683 148 680 148 676 L148 628 C148 624 147 618 152 615 C154 611 158 609 160 607 C163 603 167 599 171 595 C174 592 177 590 179 587 C181 584 186 580 189 580 L373 580 C379 580 389 578 389 587 L389 641 C389 642 389 644 388 644 L388 644 Z " />
<glyph glyph-name="Ebreve" unicode="&#x114;" horiz-adv-x="463" d="M106 25 L93 12 C91 10 91 7 92 4 C92 4 93 3 94 2 L129 -33 C130 -34 132 -35 134 -35 L420 -35 C424 -35 427 -32 427 -29 L427 72 C427 73 427 75 425 77 L389 112 C389 113 389 114 388 114 C387 114 386 115 385 115 C383 115 381 114 380 112 L367 100 L247 100 L247 183 L363 183 L376 172 C378 170 380 169 381 169 C382 169 383 170 384 170 C387 171 389 174 389 177 L389 292 C389 294 388 294 387 295 L351 332 C351 332 350 332 349 332 C348 333 347 333 346 333 C344 333 342 332 341 332 L329 319 L247 319 L247 393 L403 393 L415 380 C416 380 418 379 420 379 C421 379 423 379 423 380 C426 380 427 383 427 386 L427 485 C427 488 427 490 425 491 L389 526 C389 527 387 528 385 528 L98 528 C96 528 93 526 92 524 C91 522 91 518 93 517 L106 503 L106 25 Z M172 620 C184 608 196 594 209 583 C221 572 236 566 251 563 C283 558 319 563 342 587 C349 595 356 605 362 616 C365 627 368 639 369 652 C370 655 370 660 365 662 C363 666 360 668 356 671 C354 674 351 678 348 680 C346 683 343 686 340 687 C337 691 334 695 331 696 C329 697 328 698 326 698 L263 698 C255 698 257 689 255 685 C253 679 250 675 244 673 C243 673 242 673 241 675 C239 676 238 677 237 678 L229 686 C227 688 225 690 222 693 C220 695 217 698 214 698 L150 698 C143 698 143 689 143 685 C144 676 146 668 149 661 C153 647 158 634 168 624 L172 620 Z M345 591 C345 590 344 588 342 587 L345 591 Z M338 584 L342 587 C341 585 340 584 338 584 L338 584 Z " />
<glyph glyph-name="ebreve" unicode="&#x115;" horiz-adv-x="463" d="M106 25 L93 12 C91 10 91 7 92 4 C92 4 93 3 94 2 L129 -33 C130 -34 132 -35 134 -35 L420 -35 C424 -35 427 -32 427 -29 L427 72 C427 73 427 75 425 77 L389 112 C389 113 389 114 388 114 C387 114 386 115 385 115 C383 115 381 114 380 112 L367 100 L247 100 L247 183 L363 183 L376 172 C378 170 380 169 381 169 C382 169 383 170 384 170 C387 171 389 174 389 177 L389 292 C389 294 388 294 387 295 L351 332 C351 332 350 332 349 332 C348 333 347 333 346 333 C344 333 342 332 341 332 L329 319 L247 319 L247 393 L403 393 L415 380 C416 380 418 379 420 379 C421 379 423 379 423 380 C426 380 427 383 427 386 L427 485 C427 488 427 490 425 491 L389 526 C389 527 387 528 385 528 L98 528 C96 528 93 526 92 524 C91 522 91 518 93 517 L106 503 L106 25 Z M172 620 C184 608 196 594 209 583 C221 572 236 566 251 563 C283 558 319 563 342 587 C349 595 356 605 362 616 C365 627 368 639 369 652 C370 655 370 660 365 662 C363 666 360 668 356 671 C354 674 351 678 348 680 C346 683 343 686 340 687 C337 691 334 695 331 696 C329 697 328 698 326 698 L263 698 C255 698 257 689 255 685 C253 679 250 675 244 673 C243 673 242 673 241 675 C239 676 238 677 237 678 L229 686 C227 688 225 690 222 693 C220 695 217 698 214 698 L150 698 C143 698 143 689 143 685 C144 676 146 668 149 661 C153 647 158 634 168 624 L172 620 Z M345 591 C345 590 344 588 342 587 L345 591 Z M338 584 L342 587 C341 585 340 584 338 584 L338 584 Z " />
<glyph glyph-name="Edotaccent" unicode="&#x116;" horiz-adv-x="463" d="M106 25 L93 12 C91 10 91 7 92 4 C92 4 93 3 94 2 L129 -33 C130 -34 132 -35 134 -35 L420 -35 C424 -35 427 -32 427 -29 L427 72 C427 73 427 75 425 77 L389 112 C389 113 389 114 388 114 C387 114 386 115 385 115 C383 115 381 114 380 112 L367 100 L247 100 L247 183 L363 183 L376 172 C378 170 380 169 381 169 C382 169 383 170 384 170 C387 171 389 174 389 177 L389 292 C389 294 388 294 387 295 L351 332 C351 332 350 332 349 332 C348 333 347 333 346 333 C344 333 342 332 341 332 L329 319 L247 319 L247 393 L403 393 L415 380 C416 380 418 379 420 379 C421 379 423 379 423 380 C426 380 427 383 427 386 L427 485 C427 488 427 490 425 491 L389 526 C389 527 387 528 385 528 L98 528 C96 528 93 526 92 524 C91 522 91 518 93 517 L106 503 L106 25 Z M289 710 C276 722 258 730 239 730 C200 730 168 699 168 660 C168 641 176 623 189 609 L225 574 C238 562 255 554 275 554 C313 554 345 586 345 624 C345 643 337 662 324 675 L289 710 Z " />
<glyph glyph-name="edotaccent" unicode="&#x117;" horiz-adv-x="463" d="M106 25 L93 12 C91 10 91 7 92 4 C92 4 93 3 94 2 L129 -33 C130 -34 132 -35 134 -35 L420 -35 C424 -35 427 -32 427 -29 L427 72 C427 73 427 75 425 77 L389 112 C389 113 389 114 388 114 C387 114 386 115 385 115 C383 115 381 114 380 112 L367 100 L247 100 L247 183 L363 183 L376 172 C378 170 380 169 381 169 C382 169 383 170 384 170 C387 171 389 174 389 177 L389 292 C389 294 388 294 387 295 L351 332 C351 332 350 332 349 332 C348 333 347 333 346 333 C344 333 342 332 341 332 L329 319 L247 319 L247 393 L403 393 L415 380 C416 380 418 379 420 379 C421 379 423 379 423 380 C426 380 427 383 427 386 L427 485 C427 488 427 490 425 491 L389 526 C389 527 387 528 385 528 L98 528 C96 528 93 526 92 524 C91 522 91 518 93 517 L106 503 L106 25 Z M289 710 C276 722 258 730 239 730 C200 730 168 699 168 660 C168 641 176 623 189 609 L225 574 C238 562 255 554 275 554 C313 554 345 586 345 624 C345 643 337 662 324 675 L289 710 Z " />
<glyph glyph-name="Eogonek" unicode="&#x118;" horiz-adv-x="463" d="M389 526 C389 527 387 528 385 528 L98 528 C96 528 93 526 92 524 C91 522 91 518 93 517 L106 503 L106 25 L93 12 C91 10 91 7 92 4 C92 4 93 3 94 2 L129 -33 C130 -34 132 -35 134 -35 L151 -35 L148 -38 L144 -42 C136 -54 134 -72 134 -95 L134 -109 C134 -137 140 -156 151 -167 L152 -167 L187 -202 C200 -216 219 -221 249 -221 L288 -221 C291 -221 293 -220 294 -219 C294 -219 295 -217 295 -215 L295 -157 C295 -155 294 -153 294 -151 L273 -131 C286 -130 294 -127 300 -122 L302 -120 C310 -110 312 -94 312 -67 L312 -35 L420 -35 C424 -35 427 -32 427 -29 L427 72 C427 73 427 75 425 77 L389 112 L388 114 C387 114 386 115 385 115 C383 115 381 114 380 112 L367 100 L247 100 L247 183 L363 183 L376 172 C378 170 380 169 381 169 C382 169 383 170 384 170 C387 171 389 174 389 177 L389 291 C389 294 388 294 387 295 L351 332 C351 332 350 332 349 332 C348 333 347 333 346 333 C344 333 342 332 341 332 L329 319 L247 319 L247 393 L403 393 L415 380 C416 380 418 379 420 379 C421 379 423 379 423 380 C426 380 427 383 427 386 L427 485 C427 488 427 490 425 491 L389 526 Z " />
<glyph glyph-name="eogonek" unicode="&#x119;" horiz-adv-x="463" d="M389 526 C389 527 387 528 385 528 L98 528 C96 528 93 526 92 524 C91 522 91 518 93 517 L106 503 L106 25 L93 12 C91 10 91 7 92 4 C92 4 93 3 94 2 L129 -33 C130 -34 132 -35 134 -35 L151 -35 L148 -38 L144 -42 C136 -54 134 -72 134 -95 L134 -109 C134 -137 140 -156 151 -167 L152 -167 L187 -202 C200 -216 219 -221 249 -221 L288 -221 C291 -221 293 -220 294 -219 C294 -219 295 -217 295 -215 L295 -157 C295 -155 294 -153 294 -151 L273 -131 C286 -130 294 -127 300 -122 L302 -120 C310 -110 312 -94 312 -67 L312 -35 L420 -35 C424 -35 427 -32 427 -29 L427 72 C427 73 427 75 425 77 L389 112 L388 114 C387 114 386 115 385 115 C383 115 381 114 380 112 L367 100 L247 100 L247 183 L363 183 L376 172 C378 170 380 169 381 169 C382 169 383 170 384 170 C387 171 389 174 389 177 L389 291 C389 294 388 294 387 295 L351 332 C351 332 350 332 349 332 C348 333 347 333 346 333 C344 333 342 332 341 332 L329 319 L247 319 L247 393 L403 393 L415 380 C416 380 418 379 420 379 C421 379 423 379 423 380 C426 380 427 383 427 386 L427 485 C427 488 427 490 425 491 L389 526 Z " />
<glyph glyph-name="Ecaron" unicode="&#x11a;" horiz-adv-x="463" d="M106 25 L93 12 C91 10 91 7 92 4 C92 4 93 3 94 2 L129 -33 C130 -34 132 -35 134 -35 L420 -35 C424 -35 427 -32 427 -29 L427 72 C427 73 427 75 425 77 L389 112 C389 113 389 114 388 114 C387 114 386 115 385 115 C383 115 381 114 380 112 L367 100 L247 100 L247 183 L363 183 L376 172 C378 170 380 169 381 169 C382 169 383 170 384 170 C387 171 389 174 389 177 L389 292 C389 294 388 294 387 295 L351 332 C351 332 350 332 349 332 C348 333 347 333 346 333 C344 333 342 332 341 332 L329 319 L247 319 L247 393 L403 393 L415 380 C416 380 418 379 420 379 C421 379 423 379 423 380 C426 380 427 383 427 386 L427 485 C427 488 427 490 425 491 L389 526 C389 527 387 528 385 528 L98 528 C96 528 93 526 92 524 C91 522 91 518 93 517 L106 503 L106 25 Z M202 606 L203 606 L238 570 C239 569 241 568 243 568 L327 568 C330 568 332 569 333 571 L394 647 C396 648 396 650 396 652 C396 653 395 655 394 657 L359 692 C358 694 356 695 354 695 L290 695 C288 695 285 693 284 691 L255 649 L249 656 L249 657 L213 692 C213 694 211 695 208 695 L145 695 C143 695 140 693 139 690 C138 687 138 685 140 683 L202 606 Z " />
<glyph glyph-name="ecaron" unicode="&#x11b;" horiz-adv-x="463" d="M106 25 L93 12 C91 10 91 7 92 4 C92 4 93 3 94 2 L129 -33 C130 -34 132 -35 134 -35 L420 -35 C424 -35 427 -32 427 -29 L427 72 C427 73 427 75 425 77 L389 112 C389 113 389 114 388 114 C387 114 386 115 385 115 C383 115 381 114 380 112 L367 100 L247 100 L247 183 L363 183 L376 172 C378 170 380 169 381 169 C382 169 383 170 384 170 C387 171 389 174 389 177 L389 292 C389 294 388 294 387 295 L351 332 C351 332 350 332 349 332 C348 333 347 333 346 333 C344 333 342 332 341 332 L329 319 L247 319 L247 393 L403 393 L415 380 C416 380 418 379 420 379 C421 379 423 379 423 380 C426 380 427 383 427 386 L427 485 C427 488 427 490 425 491 L389 526 C389 527 387 528 385 528 L98 528 C96 528 93 526 92 524 C91 522 91 518 93 517 L106 503 L106 25 Z M202 606 L203 606 L238 570 C239 569 241 568 243 568 L327 568 C330 568 332 569 333 571 L394 647 C396 648 396 650 396 652 C396 653 395 655 394 657 L359 692 C358 694 356 695 354 695 L290 695 C288 695 285 693 284 691 L255 649 L249 656 L249 657 L213 692 C213 694 211 695 208 695 L145 695 C143 695 140 693 139 690 C138 687 138 685 140 683 L202 606 Z " />
<glyph glyph-name="Gcircumflex" unicode="&#x11c;" horiz-adv-x="527" d="M310 -44 C379 -44 427 -28 457 4 C481 31 492 69 492 123 L492 249 C492 251 491 253 490 254 L455 289 C453 291 451 292 449 292 L269 292 C264 292 260 288 260 284 L260 185 C260 183 261 181 263 180 L298 145 C299 144 300 143 301 143 C302 142 303 142 303 142 C305 142 307 143 309 145 L320 158 L350 158 C347 143 342 132 336 123 C324 107 305 100 279 100 L269 100 C259 100 250 101 239 105 C235 116 233 132 233 149 L233 308 C233 334 237 355 248 370 C260 385 278 393 304 393 L314 393 C327 393 336 391 346 389 L351 370 L337 358 C336 355 335 353 337 351 C337 350 337 349 338 348 L373 313 C374 312 376 311 379 311 L484 311 C489 311 492 313 492 318 L492 334 C492 389 481 426 457 452 L453 457 L417 491 C389 521 341 535 275 535 C205 535 157 520 127 487 C103 461 91 423 91 370 L91 158 C91 104 103 66 127 40 L131 36 L166 1 C196 -29 243 -44 310 -44 L310 -44 Z M166 616 C160 612 162 607 166 603 C168 601 171 598 173 595 C176 592 180 588 184 584 C188 582 191 577 193 575 C195 572 200 568 203 568 L259 568 C263 568 269 567 273 571 L299 602 L305 609 L307 606 L316 596 C321 592 324 589 327 585 C330 582 334 577 338 575 C340 572 344 568 347 568 L402 568 C408 568 419 567 420 574 C420 576 419 579 417 581 L394 615 L371 649 C366 654 363 659 358 664 C353 669 347 675 342 680 L333 688 C330 691 329 695 325 695 L244 695 C241 695 237 695 235 692 L166 616 Z " />
<glyph glyph-name="gcircumflex" unicode="&#x11d;" horiz-adv-x="527" d="M310 -44 C379 -44 427 -28 457 4 C481 31 492 69 492 123 L492 249 C492 251 491 253 490 254 L455 289 C453 291 451 292 449 292 L269 292 C264 292 260 288 260 284 L260 185 C260 183 261 181 263 180 L298 145 C299 144 300 143 301 143 C302 142 303 142 303 142 C305 142 307 143 309 145 L320 158 L350 158 C347 143 342 132 336 123 C324 107 305 100 279 100 L269 100 C259 100 250 101 239 105 C235 116 233 132 233 149 L233 308 C233 334 237 355 248 370 C260 385 278 393 304 393 L314 393 C327 393 336 391 346 389 L351 370 L337 358 C336 355 335 353 337 351 C337 350 337 349 338 348 L373 313 C374 312 376 311 379 311 L484 311 C489 311 492 313 492 318 L492 334 C492 389 481 426 457 452 L453 457 L417 491 C389 521 341 535 275 535 C205 535 157 520 127 487 C103 461 91 423 91 370 L91 158 C91 104 103 66 127 40 L131 36 L166 1 C196 -29 243 -44 310 -44 L310 -44 Z M166 616 C160 612 162 607 166 603 C168 601 171 598 173 595 C176 592 180 588 184 584 C188 582 191 577 193 575 C195 572 200 568 203 568 L259 568 C263 568 269 567 273 571 L299 602 L305 609 L307 606 L316 596 C321 592 324 589 327 585 C330 582 334 577 338 575 C340 572 344 568 347 568 L402 568 C408 568 419 567 420 574 C420 576 419 579 417 581 L394 615 L371 649 C366 654 363 659 358 664 C353 669 347 675 342 680 L333 688 C330 691 329 695 325 695 L244 695 C241 695 237 695 235 692 L166 616 Z " />
<glyph glyph-name="Gbreve" unicode="&#x11e;" horiz-adv-x="527" d="M310 -44 C379 -44 427 -28 457 4 C481 31 492 69 492 123 L492 249 C492 251 491 253 490 254 L455 289 C453 291 451 292 449 292 L269 292 C264 292 260 288 260 284 L260 185 C260 183 261 181 263 180 L298 145 C299 144 300 143 301 143 C302 142 303 142 303 142 C305 142 307 143 309 145 L320 158 L350 158 C347 143 342 132 336 123 C324 107 305 100 279 100 L269 100 C259 100 250 101 239 105 C235 116 233 132 233 149 L233 308 C233 334 237 355 248 370 C260 385 278 393 304 393 L314 393 C327 393 336 391 346 389 L351 370 L337 358 C336 355 335 353 337 351 C337 350 337 349 338 348 L373 313 C374 312 376 311 379 311 L484 311 C489 311 492 313 492 318 L492 334 C492 389 481 426 457 452 L453 457 L417 491 C389 521 341 535 275 535 C205 535 157 520 127 487 C103 461 91 423 91 370 L91 158 C91 104 103 66 127 40 L131 36 L166 1 C196 -29 243 -44 310 -44 L310 -44 Z M205 620 C217 608 229 594 242 583 C254 572 269 566 284 563 C316 558 352 563 375 587 C382 595 389 605 395 616 C398 627 401 639 402 652 C403 655 403 660 398 662 C396 666 393 668 389 671 C387 674 384 678 381 680 C379 683 376 686 373 687 C370 691 367 695 364 696 C362 697 361 698 359 698 L296 698 C288 698 290 689 288 685 C286 679 283 675 277 673 C276 673 275 673 274 675 C272 676 271 677 270 678 L262 686 C260 688 258 690 255 693 C253 695 250 698 247 698 L183 698 C176 698 176 689 176 685 C177 676 179 668 182 661 C186 647 191 634 201 624 L205 620 Z M378 591 C378 590 377 588 375 587 L378 591 Z M371 584 L375 587 C374 585 373 584 371 584 L371 584 Z " />
<glyph glyph-name="gbreve" unicode="&#x11f;" horiz-adv-x="527" d="M310 -44 C379 -44 427 -28 457 4 C481 31 492 69 492 123 L492 249 C492 251 491 253 490 254 L455 289 C453 291 451 292 449 292 L269 292 C264 292 260 288 260 284 L260 185 C260 183 261 181 263 180 L298 145 C299 144 300 143 301 143 C302 142 303 142 303 142 C305 142 307 143 309 145 L320 158 L350 158 C347 143 342 132 336 123 C324 107 305 100 279 100 L269 100 C259 100 250 101 239 105 C235 116 233 132 233 149 L233 308 C233 334 237 355 248 370 C260 385 278 393 304 393 L314 393 C327 393 336 391 346 389 L351 370 L337 358 C336 355 335 353 337 351 C337 350 337 349 338 348 L373 313 C374 312 376 311 379 311 L484 311 C489 311 492 313 492 318 L492 334 C492 389 481 426 457 452 L453 457 L417 491 C389 521 341 535 275 535 C205 535 157 520 127 487 C103 461 91 423 91 370 L91 158 C91 104 103 66 127 40 L131 36 L166 1 C196 -29 243 -44 310 -44 L310 -44 Z M205 620 C217 608 229 594 242 583 C254 572 269 566 284 563 C316 558 352 563 375 587 C382 595 389 605 395 616 C398 627 401 639 402 652 C403 655 403 660 398 662 C396 666 393 668 389 671 C387 674 384 678 381 680 C379 683 376 686 373 687 C370 691 367 695 364 696 C362 697 361 698 359 698 L296 698 C288 698 290 689 288 685 C286 679 283 675 277 673 C276 673 275 673 274 675 C272 676 271 677 270 678 L262 686 C260 688 258 690 255 693 C253 695 250 698 247 698 L183 698 C176 698 176 689 176 685 C177 676 179 668 182 661 C186 647 191 634 201 624 L205 620 Z M378 591 C378 590 377 588 375 587 L378 591 Z M371 584 L375 587 C374 585 373 584 371 584 L371 584 Z " />
<glyph glyph-name="Gdotaccent" unicode="&#x120;" horiz-adv-x="527" d="M310 -44 C379 -44 427 -28 457 4 C481 31 492 69 492 123 L492 249 C492 251 491 253 490 254 L455 289 C453 291 451 292 449 292 L269 292 C264 292 260 288 260 284 L260 185 C260 183 261 181 263 180 L298 145 C299 144 300 143 301 143 C302 142 303 142 303 142 C305 142 307 143 309 145 L320 158 L350 158 C347 143 342 132 336 123 C324 107 305 100 279 100 L269 100 C259 100 250 101 239 105 C235 116 233 132 233 149 L233 308 C233 334 237 355 248 370 C260 385 278 393 304 393 L314 393 C327 393 336 391 346 389 L351 370 L337 358 C336 355 335 353 337 351 C337 350 337 349 338 348 L373 313 C374 312 376 311 379 311 L484 311 C489 311 492 313 492 318 L492 334 C492 389 481 426 457 452 L453 457 L417 491 C389 521 341 535 275 535 C205 535 157 520 127 487 C103 461 91 423 91 370 L91 158 C91 104 103 66 127 40 L131 36 L166 1 C196 -29 243 -44 310 -44 L310 -44 Z M330 710 C317 722 299 730 280 730 C241 730 209 699 209 660 C209 641 217 623 230 609 L266 574 C279 562 296 554 316 554 C354 554 386 586 386 624 C386 643 378 662 365 675 L330 710 Z " />
<glyph glyph-name="gdotaccent" unicode="&#x121;" horiz-adv-x="527" d="M310 -44 C379 -44 427 -28 457 4 C481 31 492 69 492 123 L492 249 C492 251 491 253 490 254 L455 289 C453 291 451 292 449 292 L269 292 C264 292 260 288 260 284 L260 185 C260 183 261 181 263 180 L298 145 C299 144 300 143 301 143 C302 142 303 142 303 142 C305 142 307 143 309 145 L320 158 L350 158 C347 143 342 132 336 123 C324 107 305 100 279 100 L269 100 C259 100 250 101 239 105 C235 116 233 132 233 149 L233 308 C233 334 237 355 248 370 C260 385 278 393 304 393 L314 393 C327 393 336 391 346 389 L351 370 L337 358 C336 355 335 353 337 351 C337 350 337 349 338 348 L373 313 C374 312 376 311 379 311 L484 311 C489 311 492 313 492 318 L492 334 C492 389 481 426 457 452 L453 457 L417 491 C389 521 341 535 275 535 C205 535 157 520 127 487 C103 461 91 423 91 370 L91 158 C91 104 103 66 127 40 L131 36 L166 1 C196 -29 243 -44 310 -44 L310 -44 Z M330 710 C317 722 299 730 280 730 C241 730 209 699 209 660 C209 641 217 623 230 609 L266 574 C279 562 296 554 316 554 C354 554 386 586 386 624 C386 643 378 662 365 675 L330 710 Z " />
<glyph glyph-name="uni0122" unicode="&#x122;" horiz-adv-x="527" d="M310 -44 C379 -44 427 -28 457 4 C481 31 492 69 492 123 L492 249 C492 251 491 253 490 254 L455 289 C453 291 451 292 449 292 L269 292 C264 292 260 288 260 284 L260 185 C260 183 261 181 263 180 L298 145 C299 144 300 143 301 143 C302 142 303 142 303 142 C305 142 307 143 309 145 L320 158 L350 158 C347 143 342 132 336 123 C324 107 305 100 279 100 L269 100 C259 100 250 101 239 105 C235 116 233 132 233 149 L233 308 C233 334 237 355 248 370 C260 385 278 393 304 393 L314 393 C327 393 336 391 346 389 L351 370 L337 358 C336 355 335 353 337 351 C337 350 337 349 338 348 L373 313 C374 312 376 311 379 311 L484 311 C489 311 492 313 492 318 L492 334 C492 389 481 426 457 452 L453 457 L417 491 C389 521 341 535 275 535 C205 535 157 520 127 487 C103 461 91 423 91 370 L91 158 C91 104 103 66 127 40 L131 36 L166 1 C196 -29 243 -44 310 -44 L310 -44 Z M231 -264 L267 -300 C268 -301 271 -302 273 -302 L326 -302 C330 -302 333 -300 333 -297 L378 -179 C380 -173 381 -167 381 -161 C381 -142 373 -123 360 -110 L325 -75 C313 -63 295 -55 276 -55 C237 -55 204 -86 204 -125 C204 -141 210 -155 219 -167 L225 -176 L251 -200 L230 -257 C230 -259 230 -262 231 -264 L231 -264 Z " />
<glyph glyph-name="uni0123" unicode="&#x123;" horiz-adv-x="527" d="M310 -44 C379 -44 427 -28 457 4 C481 31 492 69 492 123 L492 249 C492 251 491 253 490 254 L455 289 C453 291 451 292 449 292 L269 292 C264 292 260 288 260 284 L260 185 C260 183 261 181 263 180 L298 145 C299 144 300 143 301 143 C302 142 303 142 303 142 C305 142 307 143 309 145 L320 158 L350 158 C347 143 342 132 336 123 C324 107 305 100 279 100 L269 100 C259 100 250 101 239 105 C235 116 233 132 233 149 L233 308 C233 334 237 355 248 370 C260 385 278 393 304 393 L314 393 C327 393 336 391 346 389 L351 370 L337 358 C336 355 335 353 337 351 C337 350 337 349 338 348 L373 313 C374 312 376 311 379 311 L484 311 C489 311 492 313 492 318 L492 334 C492 389 481 426 457 452 L453 457 L417 491 C389 521 341 535 275 535 C205 535 157 520 127 487 C103 461 91 423 91 370 L91 158 C91 104 103 66 127 40 L131 36 L166 1 C196 -29 243 -44 310 -44 L310 -44 Z M231 -264 L267 -300 C268 -301 271 -302 273 -302 L326 -302 C330 -302 333 -300 333 -297 L378 -179 C380 -173 381 -167 381 -161 C381 -142 373 -123 360 -110 L325 -75 C313 -63 295 -55 276 -55 C237 -55 204 -86 204 -125 C204 -141 210 -155 219 -167 L225 -176 L251 -200 L230 -257 C230 -259 230 -262 231 -264 L231 -264 Z " />
<glyph glyph-name="Hcircumflex" unicode="&#x124;" horiz-adv-x="532" d="M106 24 L93 11 C91 9 91 7 92 4 C92 4 93 3 94 2 L129 -33 C130 -35 132 -36 134 -36 L254 -36 C256 -36 259 -34 260 -31 C261 -29 260 -26 259 -24 L247 -11 L247 184 L341 184 L341 24 L329 11 C327 9 327 7 328 4 C328 4 329 3 329 2 L364 -33 C365 -35 368 -36 370 -36 L489 -36 C491 -36 494 -34 496 -31 C497 -29 496 -26 494 -24 L483 -11 L483 467 L494 481 C495 483 496 484 496 485 C496 487 495 489 494 491 L459 525 C457 527 456 527 454 527 L333 527 C331 527 329 525 328 523 C327 521 327 518 329 516 L341 503 L341 319 L247 319 L247 467 L259 481 C260 483 261 485 260 488 L259 491 L224 525 C222 527 220 527 218 527 L98 527 C96 527 93 525 92 523 C91 521 91 518 93 516 L106 503 L106 24 Z M168 616 C162 612 164 607 168 603 C170 601 173 598 175 595 C178 592 182 588 186 584 C190 582 193 577 195 575 C197 572 202 568 205 568 L261 568 C265 568 271 567 275 571 L301 602 L307 609 L309 606 L318 596 C323 592 326 589 329 585 C332 582 336 577 340 575 C342 572 346 568 349 568 L404 568 C410 568 421 567 422 574 C422 576 421 579 419 581 L396 615 L373 649 C368 654 365 659 360 664 C355 669 349 675 344 680 L335 688 C332 691 331 695 327 695 L246 695 C243 695 239 695 237 692 L168 616 Z " />
<glyph glyph-name="hcircumflex" unicode="&#x125;" horiz-adv-x="532" d="M106 24 L93 11 C91 9 91 7 92 4 C92 4 93 3 94 2 L129 -33 C130 -35 132 -36 134 -36 L254 -36 C256 -36 259 -34 260 -31 C261 -29 260 -26 259 -24 L247 -11 L247 184 L341 184 L341 24 L329 11 C327 9 327 7 328 4 C328 4 329 3 329 2 L364 -33 C365 -35 368 -36 370 -36 L489 -36 C491 -36 494 -34 496 -31 C497 -29 496 -26 494 -24 L483 -11 L483 467 L494 481 C495 483 496 484 496 485 C496 487 495 489 494 491 L459 525 C457 527 456 527 454 527 L333 527 C331 527 329 525 328 523 C327 521 327 518 329 516 L341 503 L341 319 L247 319 L247 467 L259 481 C260 483 261 485 260 488 L259 491 L224 525 C222 527 220 527 218 527 L98 527 C96 527 93 525 92 523 C91 521 91 518 93 516 L106 503 L106 24 Z M168 616 C162 612 164 607 168 603 C170 601 173 598 175 595 C178 592 182 588 186 584 C190 582 193 577 195 575 C197 572 202 568 205 568 L261 568 C265 568 271 567 275 571 L301 602 L307 609 L309 606 L318 596 C323 592 326 589 329 585 C332 582 336 577 340 575 C342 572 346 568 349 568 L404 568 C410 568 421 567 422 574 C422 576 421 579 419 581 L396 615 L373 649 C368 654 365 659 360 664 C355 669 349 675 344 680 L335 688 C332 691 331 695 327 695 L246 695 C243 695 239 695 237 692 L168 616 Z " />
<glyph glyph-name="Hbar" unicode="&#x126;" horiz-adv-x="593" d="M552 404 L522 439 C520 440 518 441 517 441 L508 441 L508 468 L521 481 C522 483 523 484 523 485 C523 487 522 489 522 491 L490 525 C489 527 487 528 484 528 L365 528 C363 528 360 526 358 524 C357 522 358 518 360 517 L371 502 L371 441 L274 441 L274 468 L286 481 C288 483 288 485 287 488 C287 489 286 490 286 491 L255 525 C254 527 252 528 250 528 L130 528 C127 528 124 526 123 524 C123 522 123 518 124 517 L137 502 L137 441 L98 441 C95 441 91 438 91 434 L91 365 C91 363 92 362 93 360 L124 325 C125 323 127 322 130 322 L137 322 L137 25 L124 12 C123 9 123 7 123 4 C123 4 123 3 124 3 L156 -33 C158 -35 159 -36 161 -36 L281 -36 C284 -36 286 -34 287 -31 C288 -29 288 -26 286 -24 L274 -10 L274 185 L371 185 L371 25 L360 12 C358 9 357 7 358 4 C359 4 359 3 360 3 L390 -33 C392 -35 394 -36 396 -36 L517 -36 C519 -36 522 -34 522 -31 C523 -29 523 -26 522 -24 L508 -10 L508 322 L547 322 C551 322 554 326 554 330 L554 398 C554 400 554 402 552 404 L552 404 Z M371 322 L371 320 L274 320 L274 322 L371 322 Z " />
<glyph glyph-name="hbar" unicode="&#x127;" horiz-adv-x="593" d="M552 404 L522 439 C520 440 518 441 517 441 L508 441 L508 468 L521 481 C522 483 523 484 523 485 C523 487 522 489 522 491 L490 525 C489 527 487 528 484 528 L365 528 C363 528 360 526 358 524 C357 522 358 518 360 517 L371 502 L371 441 L274 441 L274 468 L286 481 C288 483 288 485 287 488 C287 489 286 490 286 491 L255 525 C254 527 252 528 250 528 L130 528 C127 528 124 526 123 524 C123 522 123 518 124 517 L137 502 L137 441 L98 441 C95 441 91 438 91 434 L91 365 C91 363 92 362 93 360 L124 325 C125 323 127 322 130 322 L137 322 L137 25 L124 12 C123 9 123 7 123 4 C123 4 123 3 124 3 L156 -33 C158 -35 159 -36 161 -36 L281 -36 C284 -36 286 -34 287 -31 C288 -29 288 -26 286 -24 L274 -10 L274 185 L371 185 L371 25 L360 12 C358 9 357 7 358 4 C359 4 359 3 360 3 L390 -33 C392 -35 394 -36 396 -36 L517 -36 C519 -36 522 -34 522 -31 C523 -29 523 -26 522 -24 L508 -10 L508 322 L547 322 C551 322 554 326 554 330 L554 398 C554 400 554 402 552 404 L552 404 Z M371 322 L371 320 L274 320 L274 322 L371 322 Z " />
<glyph glyph-name="Itilde" unicode="&#x128;" horiz-adv-x="384" d="M93 11 C91 9 91 7 92 4 C92 3 93 3 94 2 L129 -33 C130 -35 132 -36 134 -36 L254 -36 C256 -36 259 -34 260 -31 C261 -29 260 -26 259 -24 L247 -11 L247 467 L259 481 C260 483 260 484 260 485 C260 487 260 489 259 491 L224 525 C222 527 220 527 218 527 L98 527 C96 527 93 525 92 523 C91 521 91 518 93 516 L106 503 L106 24 L93 11 Z M309 599 C306 616 297 634 286 647 C284 648 280 652 278 654 L258 673 C253 680 246 686 239 691 C226 701 208 704 192 701 C183 700 176 696 169 691 C161 686 157 680 151 675 C149 674 143 669 142 671 C140 675 136 678 133 681 L125 689 C121 691 119 695 116 695 L64 695 C51 695 58 675 58 669 C61 657 65 646 71 635 C78 625 85 617 94 609 C102 600 111 591 121 583 C138 567 162 563 184 570 C195 574 203 581 211 589 C214 592 217 595 222 597 C223 597 224 598 225 598 L229 594 C230 592 232 590 235 589 L243 581 C245 578 247 575 251 575 L294 575 C299 575 308 573 311 579 C312 582 311 585 311 589 C311 592 310 595 309 599 L309 599 Z " />
<glyph glyph-name="itilde" unicode="&#x129;" horiz-adv-x="384" d="M93 11 C91 9 91 7 92 4 C92 3 93 3 94 2 L129 -33 C130 -35 132 -36 134 -36 L254 -36 C256 -36 259 -34 260 -31 C261 -29 260 -26 259 -24 L247 -11 L247 467 L259 481 C260 483 260 484 260 485 C260 487 260 489 259 491 L224 525 C222 527 220 527 218 527 L98 527 C96 527 93 525 92 523 C91 521 91 518 93 516 L106 503 L106 24 L93 11 Z M309 599 C306 616 297 634 286 647 C284 648 280 652 278 654 L258 673 C253 680 246 686 239 691 C226 701 208 704 192 701 C183 700 176 696 169 691 C161 686 157 680 151 675 C149 674 143 669 142 671 C140 675 136 678 133 681 L125 689 C121 691 119 695 116 695 L64 695 C51 695 58 675 58 669 C61 657 65 646 71 635 C78 625 85 617 94 609 C102 600 111 591 121 583 C138 567 162 563 184 570 C195 574 203 581 211 589 C214 592 217 595 222 597 C223 597 224 598 225 598 L229 594 C230 592 232 590 235 589 L243 581 C245 578 247 575 251 575 L294 575 C299 575 308 573 311 579 C312 582 311 585 311 589 C311 592 310 595 309 599 L309 599 Z " />
<glyph glyph-name="Imacron" unicode="&#x12a;" horiz-adv-x="367" d="M93 11 C91 9 91 7 92 4 C92 3 93 3 94 2 L129 -33 C130 -35 132 -36 134 -36 L254 -36 C256 -36 259 -34 260 -31 C261 -29 260 -26 259 -24 L247 -11 L247 467 L259 481 C260 483 260 484 260 485 C260 487 260 489 259 491 L224 525 C222 527 220 527 218 527 L98 527 C96 527 93 525 92 523 C91 521 91 518 93 516 L106 503 L106 24 L93 11 Z M53 676 L53 623 C53 620 54 618 56 618 L91 582 C92 581 94 580 96 580 L288 580 C291 580 294 584 294 587 L294 641 C294 643 294 644 292 646 L256 681 C256 682 255 683 252 683 L60 683 C57 683 53 680 53 676 L53 676 Z " />
</font>
</svg>
