<?xml version="1.0" encoding="UTF-8"?>
<svg xmlns="http://www.w3.org/2000/svg" xmlns:xlink="http://www.w3.org/1999/xlink" version="1.2" >
<font id="Burford Base">
<font-face  font-family="Burford" units-per-em="1000" ascent="730" descent="-270" font-style="normal" font-weight="400" font-stretch="normal" cap-height="900" x-height="450" underline-position="-75" underline-thickness="50" />
<missing-glyph  horiz-adv-x="427" d="" />
<glyph glyph-name="NULL" d="" />
<glyph glyph-name="CR" unicode="&#xd;" horiz-adv-x="299" d="" />
<glyph glyph-name="space" unicode="&#x20;" horiz-adv-x="299" d="" />
<glyph glyph-name="exclam" unicode="&#x21;" horiz-adv-x="382" d="M120 158 L208 158 C212 158 215 161 215 165 L236 522 C236 525 234 529 229 529 L98 529 C97 529 95 528 93 526 C92 525 91 523 91 522 L113 165 C113 161 116 158 120 158 L120 158 Z M167 134 C129 134 98 103 98 64 C98 25 129 -7 167 -7 C207 -7 238 25 238 64 C238 103 207 134 167 134 L167 134 Z " />
<glyph glyph-name="quotedbl" unicode="&#x22;" horiz-adv-x="289" d="M146 549 L99 549 C94 549 91 544 91 541 L101 470 C102 466 104 465 108 465 L137 465 C141 465 142 466 143 470 L153 541 C153 545 149 549 146 549 L146 549 Z M210 470 L219 541 C219 545 217 549 212 549 L165 549 C161 549 158 544 158 541 L167 470 C168 466 171 465 175 465 L202 465 C207 465 209 466 210 470 L210 470 Z " />
<glyph glyph-name="numbersign" unicode="&#x23;" horiz-adv-x="605" d="M306 9 C304 4 309 0 313 0 L405 0 C408 0 410 3 411 6 L427 104 L477 104 C481 104 483 106 484 109 L499 200 C500 205 496 209 491 209 L445 209 L464 322 L512 322 C516 322 519 325 520 329 L534 420 C534 425 531 428 527 428 L481 428 L496 520 C496 525 492 528 489 528 L397 528 C394 528 390 525 390 522 L375 428 L294 428 L311 520 C311 525 307 528 303 528 L212 528 C209 528 205 525 204 522 L189 428 L149 428 C146 428 142 426 142 423 L127 331 C127 326 131 322 134 322 L172 322 L154 209 L114 209 C110 209 106 207 106 203 L91 112 C91 106 95 104 99 104 L136 104 L121 9 C121 4 123 0 127 0 L218 0 C222 0 226 3 226 6 L242 104 L321 104 L306 9 Z M259 209 L277 322 L357 322 L338 209 L259 209 Z " />
<glyph glyph-name="dollar" unicode="&#x24;" horiz-adv-x="532" d="M313 324 C269 343 240 355 225 366 C210 376 208 385 209 397 C210 406 218 413 227 420 C239 427 254 430 269 430 C274 430 277 429 283 428 C323 422 342 392 346 387 L343 369 C342 366 343 363 346 362 C346 361 348 360 350 360 C351 360 352 361 353 362 L440 419 C444 421 445 425 443 427 C434 446 422 470 402 490 C379 512 351 525 318 532 L318 576 C318 579 314 582 311 582 L242 582 C237 582 235 579 235 576 L235 531 C192 524 158 508 132 484 C106 459 92 426 91 388 C90 347 107 312 143 281 C168 260 201 242 245 225 C281 210 304 199 320 185 C334 174 341 161 339 146 C337 130 331 118 320 109 C310 103 295 99 277 99 C263 99 248 104 234 113 C218 122 208 134 199 149 L203 172 C203 175 201 177 200 179 C199 180 198 180 196 180 C195 180 193 179 192 178 L102 107 C99 106 98 103 99 100 C101 93 107 75 123 55 C136 42 150 29 166 20 C186 9 209 0 235 -5 L235 -48 C235 -53 237 -56 242 -56 L311 -56 C314 -56 318 -53 318 -48 L318 -5 C371 2 410 26 434 66 C457 103 460 142 461 164 C462 195 453 220 432 245 C409 274 370 299 313 324 L313 324 Z " />
<glyph glyph-name="percent" unicode="&#x25;" horiz-adv-x="823" d="M389 398 C389 419 386 438 378 455 C370 471 360 485 346 498 C319 522 281 534 240 534 C200 534 162 522 135 498 C122 484 111 470 104 454 C96 437 91 418 91 397 C91 315 158 249 240 249 C280 249 318 264 346 293 C373 321 389 358 389 398 L389 398 Z M708 241 C680 265 643 278 602 278 C561 278 525 265 498 241 C484 229 473 215 465 198 C457 180 454 161 454 142 C454 59 521 -8 602 -8 C642 -8 679 8 708 37 C736 65 751 103 751 142 C751 162 748 181 739 199 C732 215 722 229 708 241 L708 241 Z M560 531 L468 531 C465 531 464 529 462 526 L266 -2 C263 -7 269 -11 273 -11 L363 -11 C366 -11 370 -10 370 -7 L566 521 C570 525 562 531 560 531 L560 531 Z M240 356 C218 356 199 375 199 398 C199 408 202 418 210 426 C218 432 229 436 240 436 C252 436 263 432 271 426 C277 419 282 408 282 398 C282 375 263 356 240 356 L240 356 Z M602 100 C579 100 560 119 560 142 C560 152 565 162 573 169 C580 176 591 180 602 180 C615 180 625 176 633 169 C640 162 645 153 645 142 C645 119 626 100 602 100 L602 100 Z " />
<glyph glyph-name="ampersand" unicode="&#x26;" horiz-adv-x="655" d="M479 112 C494 149 503 194 503 239 L503 330 C503 332 502 335 500 337 C496 337 495 338 492 336 L381 266 C376 263 378 257 381 254 L393 246 L393 226 C393 217 392 206 390 197 L256 326 C242 340 232 354 227 369 C223 380 222 391 226 401 C234 418 254 428 279 428 L300 428 C327 428 343 412 351 378 L351 363 L345 346 C343 339 351 332 354 337 L456 398 C458 399 459 402 459 409 C459 427 456 445 448 459 C440 474 429 488 415 500 C386 522 344 535 294 535 C235 535 189 523 159 501 C128 479 113 446 113 402 C113 363 124 329 152 294 C130 278 115 261 106 241 C96 219 91 194 91 159 C91 106 104 66 129 40 C143 24 163 12 186 4 C212 -5 243 -9 278 -9 L303 -9 C349 -9 389 5 420 30 L428 22 L417 11 C413 7 417 -1 423 -1 L578 -1 C584 -1 586 8 582 11 L479 112 Z M336 110 C322 104 307 99 291 99 L263 99 C243 99 228 104 218 115 C207 127 200 143 200 166 C200 195 221 212 226 216 L336 110 Z " />
<glyph glyph-name="quotesingle" unicode="&#x27;" horiz-adv-x="222" d="M146 557 L99 557 C94 557 91 552 91 549 L101 479 C102 474 104 472 108 472 L137 472 C141 472 142 474 143 479 L153 549 C153 554 149 557 146 557 L146 557 Z " />
<glyph glyph-name="parenleft" unicode="&#x28;" horiz-adv-x="380" d="M303 40 L282 40 C277 45 254 66 231 103 C216 125 203 150 195 175 C183 207 179 239 179 271 C179 303 183 335 195 367 C203 392 216 417 231 441 C254 478 277 501 282 505 L303 505 C308 505 312 512 309 516 L254 602 C252 607 247 607 243 605 C190 569 149 516 123 446 C96 374 92 308 92 274 C92 239 96 172 123 101 C149 29 190 -25 243 -60 C247 -62 252 -63 254 -58 L309 29 C312 34 308 40 303 40 L303 40 Z " />
<glyph glyph-name="parenright" unicode="&#x29;" horiz-adv-x="380" d="M99 40 C92 40 89 33 93 29 L148 -58 C149 -62 156 -62 158 -60 C212 -25 253 29 279 101 C306 172 310 239 310 274 C310 308 306 374 279 446 C253 516 212 569 158 605 C155 608 149 605 148 602 L93 516 C88 510 95 505 99 505 L119 505 C123 501 147 478 171 441 C185 417 199 392 207 367 C218 335 223 303 223 271 C223 238 218 207 207 175 C199 150 185 125 171 103 C147 66 123 45 120 40 L99 40 Z " />
<glyph glyph-name="asterisk" unicode="&#x2a;" horiz-adv-x="303" d="M139 560 L139 538 L121 551 C116 553 113 552 110 549 L93 523 C90 521 91 517 95 514 L122 495 L95 476 C91 474 90 470 92 466 L110 441 C111 440 113 439 115 438 C117 438 119 439 120 440 L139 452 L139 429 C139 425 142 423 146 423 L177 423 C181 423 183 425 183 429 L183 451 L202 439 C205 437 210 438 212 440 L230 465 C233 469 232 474 228 476 L200 495 L228 513 C232 516 233 520 230 523 L213 549 C211 552 205 552 202 551 L183 538 L183 560 C183 564 181 568 177 568 L146 568 C142 568 139 564 139 560 L139 560 Z " />
<glyph glyph-name="plus" unicode="&#x2b;" horiz-adv-x="368" d="M151 180 C151 176 155 173 159 173 L231 173 C235 173 237 176 237 180 L237 235 L291 235 C294 235 297 237 297 241 L297 311 C297 313 294 317 291 317 L237 317 L237 371 C237 375 235 378 231 378 L159 378 C155 378 151 375 151 371 L151 317 L99 317 C95 317 91 313 91 311 L91 241 C91 237 95 235 99 235 L151 235 L151 180 L151 180 Z " />
<glyph glyph-name="comma" unicode="&#x2c;" horiz-adv-x="303" d="M161 134 C122 134 89 103 89 64 C89 48 95 34 104 22 C112 10 124 1 140 -4 L115 -68 C114 -73 115 -78 122 -78 L176 -78 C179 -78 181 -76 183 -73 L228 46 C230 51 231 57 231 64 C231 103 199 134 161 134 L161 134 Z " />
<glyph glyph-name="hyphen" unicode="&#x2d;" horiz-adv-x="367" d="M291 317 L99 317 C95 317 91 313 91 311 L91 241 C91 237 95 235 99 235 L291 235 C294 235 297 237 297 241 L297 311 C297 313 294 317 291 317 L291 317 Z " />
<glyph glyph-name="period" unicode="&#x2e;" horiz-adv-x="303" d="M161 -7 C200 -7 233 25 233 64 C233 103 200 134 161 134 C123 134 91 103 91 64 C91 25 123 -7 161 -7 L161 -7 Z " />
<glyph glyph-name="slash" unicode="&#x2f;" horiz-adv-x="463" d="M197 -7 L392 521 C393 525 391 531 386 531 L294 531 C293 531 290 529 288 526 L92 -2 C89 -7 95 -11 99 -11 L190 -11 C192 -11 195 -10 197 -7 L197 -7 Z " />
<glyph glyph-name="zero" unicode="0" horiz-adv-x="565" d="M144 55 C161 35 183 19 208 9 C233 -3 261 -8 294 -8 C325 -8 354 -3 379 9 C404 19 425 34 443 55 C460 75 473 101 483 130 C491 160 496 194 496 233 L496 294 C496 371 478 431 444 473 C427 493 406 508 380 519 C354 529 326 535 294 535 C261 535 233 529 208 519 C183 508 161 492 144 472 C127 451 114 427 105 397 C96 367 91 332 91 294 L91 233 C91 194 96 160 105 131 C114 101 127 75 144 55 L144 55 Z M294 428 C324 428 346 418 362 397 C380 370 389 327 389 263 C389 200 380 158 362 131 C346 109 324 99 294 99 C266 99 242 113 226 138 C207 166 198 209 198 263 C198 319 207 362 226 389 C242 414 266 428 294 428 L294 428 Z " />
<glyph glyph-name="one" unicode="1" horiz-adv-x="343" d="M108 343 L120 362 L153 396 L153 25 L141 12 C136 8 141 0 145 0 L266 0 C272 0 275 9 271 12 L258 25 L258 503 L271 516 C275 521 272 527 266 527 L158 527 C156 527 154 526 152 525 L93 443 C92 442 91 440 91 439 L95 346 C95 338 105 337 108 343 L108 343 Z " />
<glyph glyph-name="two" unicode="2" horiz-adv-x="510" d="M97 385 L196 328 C200 326 209 331 205 337 L198 352 C196 373 203 395 218 409 C228 422 243 428 261 428 C285 428 305 416 317 398 C328 382 329 365 321 349 C310 324 284 311 252 294 C225 278 196 263 166 237 C99 182 92 126 95 98 L95 7 C95 4 98 0 102 0 L413 0 C416 0 420 4 420 7 L420 113 C420 119 410 123 408 118 L395 106 L218 106 C219 128 246 144 286 168 C302 178 320 188 337 200 C409 249 444 306 440 371 C436 421 417 462 385 491 C352 520 310 535 260 535 C209 535 159 515 126 481 C103 455 91 423 92 390 C93 389 94 386 97 385 L97 385 Z " />
<glyph glyph-name="three" unicode="3" horiz-adv-x="490" d="M155 19 C183 2 217 -8 251 -8 C295 -8 337 6 366 31 C383 47 396 64 406 85 C414 107 420 135 420 165 C420 194 413 220 399 243 C389 260 373 276 354 289 C329 307 303 314 294 317 L403 423 C404 423 405 425 405 427 L405 522 C405 525 401 528 397 528 L104 528 C99 528 96 525 96 522 L96 415 C96 409 105 405 107 410 L121 423 L250 423 L130 315 C129 314 128 313 128 311 L128 220 C128 217 135 212 138 215 C146 218 176 228 218 228 L222 228 C253 228 275 214 286 202 C295 192 308 175 308 159 C308 145 303 131 294 120 C281 106 264 99 243 99 C224 99 208 106 196 123 C187 132 183 142 183 145 L184 158 C184 163 181 166 177 166 C175 166 175 166 94 103 C92 101 90 98 92 95 C104 64 124 37 155 19 L155 19 Z " />
<glyph glyph-name="four" unicode="4" horiz-adv-x="528" d="M99 142 L290 142 L290 25 L277 12 C273 8 277 0 282 0 L403 0 C408 0 411 9 408 12 L395 25 L395 142 L433 142 L446 130 C450 125 458 130 458 135 L458 235 C458 239 456 242 451 242 L395 242 L395 503 L408 516 C411 521 408 527 403 527 L294 527 C293 527 290 526 289 525 L93 242 C92 241 91 239 91 238 L91 149 C91 145 95 142 99 142 L99 142 Z M211 242 L290 363 L290 242 L211 242 Z " />
<glyph glyph-name="five" unicode="5" horiz-adv-x="496" d="M93 105 C101 82 111 54 134 31 C161 5 201 -9 256 -9 C286 -9 312 -3 334 8 C354 18 372 31 388 50 C412 82 426 126 426 175 L426 189 C427 228 422 256 411 278 C398 305 376 326 343 340 C322 349 295 353 263 353 C249 353 233 352 217 351 L217 428 L356 428 L370 415 C373 411 381 415 381 421 L381 521 C381 525 378 527 374 527 L104 527 C97 527 96 520 98 516 L111 503 L111 243 C111 239 115 237 120 237 C130 239 156 245 214 253 C223 255 233 256 240 256 C268 256 286 248 297 233 C307 220 311 204 311 180 C311 163 310 141 301 124 C292 107 275 99 252 99 C228 99 211 108 199 127 C191 141 188 152 187 156 L191 167 L191 169 C191 175 183 180 180 175 L95 116 C92 115 91 111 92 108 L93 105 Z " />
<glyph glyph-name="six" unicode="6" horiz-adv-x="526" d="M445 93 C453 115 457 141 457 167 L457 186 C457 239 440 284 407 315 C390 330 371 342 351 350 C330 357 307 361 282 361 C253 361 226 357 203 351 C204 377 211 396 222 408 C235 421 252 427 275 427 C313 427 326 410 336 396 L333 380 C333 374 339 369 344 372 L444 422 C446 423 448 427 447 431 C436 460 416 485 389 503 C358 524 319 535 275 535 L270 535 C213 535 168 520 138 491 C123 476 111 459 104 439 C96 418 91 394 91 369 L91 173 C91 118 106 74 133 44 C164 9 210 -8 272 -8 L277 -8 C332 -8 378 9 408 38 C425 53 437 72 445 93 L445 93 Z M351 178 C351 157 344 138 330 123 C315 107 295 99 275 99 C252 99 233 106 218 121 C204 135 198 155 198 178 C198 199 205 219 218 234 C233 248 252 256 275 256 C297 256 317 248 331 234 C345 218 351 199 351 178 L351 178 Z " />
<glyph glyph-name="seven" unicode="7" horiz-adv-x="447" d="M99 414 C101 414 103 414 104 415 L116 428 L261 428 L94 9 C91 5 98 0 101 0 L222 0 C229 0 232 8 227 12 L216 25 L377 429 L377 521 C377 525 374 527 370 527 L99 527 C95 527 91 525 91 521 L91 421 C91 418 93 415 99 414 L99 414 Z " />
<glyph glyph-name="eight" unicode="8" horiz-adv-x="526" d="M275 -8 C303 -8 329 -4 351 4 C374 12 393 23 409 38 C425 53 437 71 445 92 C453 114 457 139 457 166 L457 175 C457 233 436 281 397 313 C414 338 423 369 423 398 C423 419 420 438 412 455 C405 471 393 485 380 498 C352 522 315 535 275 535 C235 535 197 522 169 498 C156 485 144 471 138 455 C129 437 125 418 125 398 C125 370 134 341 149 317 C112 286 91 237 91 178 L91 171 C91 113 107 68 139 38 C169 8 215 -8 275 -8 L275 -8 Z M198 175 C198 195 204 215 218 227 C233 241 252 249 275 249 C297 249 317 241 331 227 C345 214 351 195 351 175 C351 155 344 136 330 122 C315 107 295 99 275 99 C252 99 233 106 218 120 C204 133 198 152 198 175 L198 175 Z M233 398 C233 409 237 419 244 426 C252 432 262 437 275 437 C286 437 296 432 304 426 C312 419 316 409 316 398 C316 375 297 356 275 356 C252 356 233 375 233 398 L233 398 Z " />
<glyph glyph-name="nine" unicode="9" horiz-adv-x="526" d="M142 212 C158 198 177 185 198 178 C218 170 242 166 267 166 C295 166 322 170 346 176 C345 150 337 132 327 119 C314 106 297 101 275 101 C235 101 223 117 213 132 L216 148 C216 153 209 159 205 155 L105 106 C103 104 101 100 102 97 C113 66 132 42 160 24 C191 4 230 -8 275 -8 L278 -8 C336 -8 380 8 411 37 C427 50 438 68 446 89 C453 109 457 133 457 159 L457 354 C457 409 443 453 415 484 C385 518 338 535 277 535 L272 535 C217 535 171 519 141 489 C123 474 112 456 104 434 C96 412 91 388 91 360 L91 341 C91 288 109 243 142 212 L142 212 Z M274 272 C252 272 232 279 218 294 C204 309 197 329 197 350 C197 370 205 389 218 405 C234 420 253 427 275 427 C296 427 316 421 330 406 C345 392 351 372 351 350 C351 329 344 308 330 294 C316 279 296 272 274 272 L274 272 Z " />
<glyph glyph-name="colon" unicode="&#x3a;" horiz-adv-x="303" d="M162 134 C123 134 92 103 92 64 C92 25 123 -7 162 -7 C200 -7 233 25 233 64 C233 103 200 134 162 134 L162 134 Z M162 338 C123 338 92 307 92 269 C92 229 123 198 162 198 C200 198 233 229 233 269 C233 307 200 338 162 338 L162 338 Z " />
<glyph glyph-name="semicolon" unicode="&#x3b;" horiz-adv-x="313" d="M112 -78 L166 -78 C169 -78 173 -76 174 -73 L215 33 L218 44 L218 46 C220 51 221 57 221 64 C221 103 190 134 151 134 C112 134 81 103 81 64 C81 48 85 34 94 22 C104 10 115 1 130 -4 L106 -68 C104 -73 106 -78 112 -78 L112 -78 Z M161 198 C200 198 232 229 232 269 C232 307 200 338 161 338 C123 338 90 307 90 269 C90 229 123 198 161 198 L161 198 Z " />
<glyph glyph-name="less" unicode="&#x3c;" horiz-adv-x="376" d="M96 192 L295 97 C301 96 306 98 306 104 L306 196 C306 199 304 200 302 201 L178 253 L303 325 C305 326 306 329 306 331 L306 423 C306 427 299 431 295 428 L95 302 C93 301 91 298 91 295 L91 199 C91 196 93 193 96 192 L96 192 Z " />
<glyph glyph-name="equal" unicode="&#x3d;" horiz-adv-x="367" d="M291 363 L99 363 C95 363 91 359 91 354 L91 286 C91 282 95 278 99 278 L291 278 C294 278 297 282 297 286 L297 354 C297 359 294 363 291 363 L291 363 Z M291 257 L99 257 C95 257 91 254 91 250 L91 181 C91 177 95 174 99 174 L291 174 C294 174 297 177 297 181 L297 250 C297 254 294 257 291 257 L291 257 Z " />
<glyph glyph-name="greater" unicode="&#x3e;" horiz-adv-x="376" d="M305 199 L305 295 C305 298 304 301 303 302 L102 428 C98 432 91 426 91 423 L91 331 C91 329 92 326 95 325 L219 253 L96 201 C93 200 91 199 91 196 L91 104 C91 97 97 97 101 97 L302 192 C304 193 305 196 305 199 L305 199 Z " />
<glyph glyph-name="question" unicode="&#x3f;" horiz-adv-x="507" d="M419 316 C433 340 440 367 437 395 C434 433 414 469 382 495 C350 521 306 535 258 535 C211 535 163 515 131 480 C104 450 90 414 93 380 C93 377 94 374 97 373 L196 322 C201 320 209 325 205 332 L197 353 C196 373 202 395 217 409 C227 422 243 428 261 428 C282 428 297 423 307 410 C315 398 317 380 311 361 C304 341 282 326 248 303 C238 296 228 289 218 281 C194 265 180 243 173 217 C168 198 168 180 169 166 C170 162 173 160 177 160 L273 160 C277 160 280 163 280 166 C279 181 281 193 291 206 C301 220 320 235 356 256 C385 274 406 294 419 316 L419 316 Z M227 134 C189 134 158 103 158 64 C158 25 189 -7 227 -7 C267 -7 298 25 298 64 C298 103 267 134 227 134 L227 134 Z " />
<glyph glyph-name="at" unicode="&#x40;" horiz-adv-x="633" d="M383 14 C396 22 404 29 406 33 C408 37 408 40 406 43 L356 102 C353 105 349 105 346 103 C337 95 312 77 281 77 L280 77 C264 77 234 81 209 103 C184 123 172 158 172 201 L172 277 C172 343 184 389 211 416 C234 440 266 451 313 451 L330 451 C379 451 414 443 438 427 C465 408 477 377 477 333 L477 218 C477 187 469 175 452 175 C435 175 431 183 431 219 C431 252 433 370 434 392 C434 397 431 399 427 399 L369 399 C365 399 362 397 362 392 L362 375 C360 378 357 380 354 383 C337 396 314 399 298 399 C272 399 250 389 235 371 C220 354 214 332 214 307 L214 219 C214 192 218 168 228 151 C240 129 260 118 288 118 C319 118 337 131 348 142 C352 146 355 152 359 158 C365 134 375 118 390 106 C407 95 428 89 458 89 C494 89 522 103 540 127 C555 149 563 180 563 218 L563 333 C563 413 537 470 484 502 C465 515 440 523 413 528 C391 533 369 534 342 534 L311 534 C232 534 180 518 145 484 C126 465 114 442 105 412 C96 382 91 347 91 303 L91 232 C91 143 109 81 145 43 C176 9 221 -8 283 -8 C312 -8 352 -5 383 14 L383 14 Z M315 200 C303 200 294 204 287 214 C281 223 277 237 277 257 L277 270 C277 312 296 316 313 316 C321 316 332 313 340 307 C348 303 353 295 353 293 L353 237 C352 235 348 226 342 218 C336 209 327 200 315 200 L315 200 Z " />
<glyph glyph-name="A" unicode="A" horiz-adv-x="571" d="M99 0 L218 0 C226 0 226 8 224 12 L212 24 L237 117 L354 117 L380 24 L368 12 C364 7 367 0 372 0 L493 0 C500 0 501 8 499 12 L485 25 L356 504 L365 517 C367 522 365 528 359 528 L234 528 C226 528 224 522 227 517 L235 504 L106 25 L94 12 C89 7 93 0 99 0 L99 0 Z M263 216 L295 337 L329 216 L263 216 Z " />
<glyph glyph-name="B" unicode="B" horiz-adv-x="506" d="M94 12 C89 7 93 0 99 0 L269 0 C294 0 316 2 334 6 C355 11 372 19 388 30 C420 57 435 104 435 173 C435 238 422 284 392 313 C403 333 408 360 408 391 C408 421 404 445 395 464 C388 482 375 495 359 505 C329 525 284 528 241 528 L99 528 C92 528 89 521 94 517 L106 503 L106 25 L94 12 Z M260 245 C281 243 297 237 309 226 C321 214 328 197 328 175 C328 150 320 132 303 121 C290 110 269 105 242 105 L212 105 L212 244 L241 244 C248 244 254 245 260 245 L260 245 Z M261 351 L212 351 L212 423 L244 423 C262 423 276 423 286 417 C298 410 300 397 300 387 C300 359 286 353 261 351 L261 351 Z " />
<glyph glyph-name="C" unicode="C" horiz-adv-x="526" d="M275 -8 C344 -8 391 8 422 40 C446 66 457 104 457 159 L457 209 C457 213 454 217 449 217 L345 217 C338 217 336 208 339 204 L352 192 L352 185 C352 158 346 138 336 123 C324 107 305 100 279 100 L269 100 C237 100 198 115 198 185 L198 343 C198 370 202 390 213 405 C225 421 243 428 269 428 L279 428 C302 428 320 423 332 409 C341 400 348 387 351 370 L338 358 C335 353 337 346 344 346 L449 346 C454 346 457 349 457 353 L457 370 C457 424 446 462 422 488 C392 520 345 535 275 535 C205 535 158 520 127 488 C104 461 91 423 91 370 L91 159 C91 104 104 66 127 40 C157 8 205 -8 275 -8 L275 -8 Z " />
<glyph glyph-name="D" unicode="D" horiz-adv-x="542" d="M106 503 L106 25 L94 12 C89 7 93 0 99 0 L313 0 C363 0 403 13 430 41 C457 67 471 107 471 158 L471 370 C471 418 459 457 435 483 C408 513 367 528 313 528 L99 528 C92 528 89 520 94 517 L106 503 Z M284 428 C313 428 333 422 346 408 C360 395 366 375 366 346 L366 182 C366 157 359 136 345 122 C331 107 310 100 284 100 L212 100 L212 428 L284 428 Z " />
<glyph glyph-name="E" unicode="E" horiz-adv-x="463" d="M385 0 C389 0 392 4 392 7 L392 106 C392 113 383 118 380 112 L368 100 L212 100 L212 218 L329 218 L341 207 C346 204 353 206 353 212 L353 327 C353 333 346 333 341 332 L329 319 L212 319 L212 428 L368 428 L380 416 C385 410 392 416 392 422 L392 522 C392 525 389 528 385 528 L99 528 C92 528 89 520 94 517 L106 503 L106 25 L94 12 C89 8 93 0 99 0 L385 0 Z " />
<glyph glyph-name="F" unicode="F" horiz-adv-x="463" d="M212 25 L212 218 L329 218 L341 207 C346 204 353 206 353 212 L353 327 C353 333 346 333 341 332 L329 319 L212 319 L212 428 L368 428 L380 416 C385 410 392 416 392 422 L392 522 C392 525 389 528 385 528 L99 528 C92 528 89 520 94 517 L106 503 L106 25 L94 12 C89 8 93 0 99 0 L218 0 C226 0 228 8 224 12 L212 25 Z " />
<glyph glyph-name="G" unicode="G" horiz-adv-x="527" d="M457 370 C457 424 446 461 422 488 C392 520 344 535 275 535 C205 535 158 520 127 488 C104 461 91 423 91 370 L91 159 C91 104 104 66 127 40 C157 8 204 -8 275 -8 C344 -8 391 8 422 40 C446 66 457 104 457 159 L457 285 C457 288 454 292 449 292 L269 292 C264 292 260 288 260 285 L260 185 C260 180 270 175 273 180 L286 192 L351 192 L351 185 C351 158 346 138 336 123 C324 107 305 100 279 100 L269 100 C236 100 198 115 198 185 L198 343 C198 370 202 390 213 405 C225 421 243 428 269 428 L279 428 C302 428 319 423 332 409 C341 400 347 387 351 370 L338 358 C333 353 337 346 344 346 L449 346 C454 346 457 349 457 353 L457 370 Z " />
<glyph glyph-name="H" unicode="H" horiz-adv-x="532" d="M106 25 L94 12 C89 8 93 0 99 0 L218 0 C225 0 227 9 224 12 L211 25 L211 220 L341 220 L341 25 L329 12 C324 8 329 0 334 0 L454 0 C460 0 463 9 459 12 L446 25 L446 503 L459 517 C464 521 459 528 454 528 L334 528 C328 528 324 520 329 517 L341 503 L341 320 L211 320 L211 503 L224 517 C228 521 224 528 218 528 L99 528 C92 528 89 520 94 517 L106 503 L106 25 Z " />
<glyph glyph-name="I" unicode="I" horiz-adv-x="296" d="M94 12 C89 8 93 0 99 0 L218 0 C225 0 227 9 224 12 L211 25 L211 503 L224 517 C228 521 224 528 218 528 L99 528 C92 528 89 520 94 517 L106 503 L106 25 L94 12 Z " />
<glyph glyph-name="J" unicode="J" horiz-adv-x="498" d="M420 528 L300 528 C293 528 293 521 294 517 L307 504 L307 189 C307 161 303 139 294 123 C286 108 275 100 260 100 C227 100 209 119 198 166 L199 183 C199 187 196 192 192 192 C191 192 189 191 188 190 L94 123 C91 121 90 117 92 114 C107 81 130 51 154 29 C183 6 216 -7 249 -7 L269 -7 C307 -7 343 9 370 36 C397 64 413 99 413 138 L413 504 L425 517 C427 522 427 528 420 528 L420 528 Z " />
<glyph glyph-name="K" unicode="K" horiz-adv-x="537" d="M451 25 L322 343 L437 503 L449 517 C455 520 449 528 445 528 L316 528 C310 528 307 521 312 517 L322 504 L211 355 L211 503 L224 517 C228 521 224 528 218 528 L99 528 C92 528 89 520 94 517 L106 503 L106 25 L94 12 C89 8 93 0 99 0 L218 0 C225 0 227 9 224 12 L211 25 L211 188 L252 244 L328 24 L315 12 C312 8 314 0 320 0 L459 0 C465 0 467 9 465 12 L451 25 Z " />
<glyph glyph-name="L" unicode="L" horiz-adv-x="463" d="M380 113 L367 101 L211 101 L211 503 L224 516 C227 521 225 527 218 527 L99 527 C92 527 89 520 94 516 L106 503 L106 25 L94 12 C89 8 93 0 99 0 L385 0 C389 0 391 4 391 7 L391 107 C391 114 383 116 380 113 L380 113 Z " />
<glyph glyph-name="M" unicode="M" horiz-adv-x="596" d="M94 12 C89 8 93 0 99 0 L218 0 C225 0 227 9 224 12 L211 25 L211 331 L302 216 L303 214 C308 209 312 210 314 214 L406 344 L406 25 L393 12 C389 8 392 0 398 0 L518 0 C525 0 527 8 523 12 L511 25 L511 503 L523 517 C528 522 524 528 518 528 L410 528 C408 528 406 527 405 525 L313 389 L212 525 C211 527 209 528 207 528 L99 528 C92 528 89 520 94 517 L106 503 L106 25 L94 12 Z " />
<glyph glyph-name="N" unicode="N" horiz-adv-x="517" d="M106 25 L94 12 C89 8 93 0 99 0 L218 0 C225 0 227 9 224 12 L211 25 L211 267 L321 21 L313 12 C309 8 312 0 318 0 L438 0 C445 0 448 9 443 12 L431 25 L431 503 L443 517 C448 521 444 528 438 528 L318 528 C312 528 309 521 313 517 L325 503 L325 266 L213 524 C211 526 209 528 206 528 L99 528 C92 528 89 520 94 517 L106 503 L106 25 Z " />
<glyph glyph-name="O" unicode="O" horiz-adv-x="527" d="M275 -8 C344 -8 391 8 422 40 C446 66 457 104 457 159 L457 370 C457 423 446 461 422 487 C392 520 344 535 275 535 C205 535 158 520 127 488 C104 461 91 423 91 370 L91 159 C91 104 104 66 127 40 C157 8 204 -8 275 -8 L275 -8 Z M351 343 L351 185 C351 159 346 138 336 123 C324 107 305 100 279 100 L269 100 C236 100 198 115 198 185 L198 343 C198 370 202 390 213 406 C225 421 243 428 269 428 L279 428 C313 428 351 414 351 343 L351 343 Z " />
<glyph glyph-name="P" unicode="P" horiz-adv-x="483" d="M211 140 L268 140 C316 140 353 153 378 181 C400 206 411 241 411 283 L411 384 C411 427 401 462 380 485 C356 514 318 528 268 528 L99 528 C92 528 89 520 94 517 L106 503 L106 25 L94 12 C89 7 93 0 99 0 L218 0 C226 0 226 8 224 12 L211 25 L211 140 Z M211 239 L211 427 L224 427 C257 427 276 423 288 414 C301 405 306 388 306 360 L306 307 C306 281 301 265 288 255 C275 244 256 239 224 239 L211 239 Z " />
<glyph glyph-name="Q" unicode="Q" horiz-adv-x="526" d="M289 -8 L313 -43 C313 -45 316 -46 318 -46 L408 -46 C414 -46 417 -39 414 -34 L382 12 C409 25 429 44 441 70 C451 93 457 123 457 159 L457 370 C457 423 446 461 422 487 C392 520 345 535 275 535 C205 535 158 520 127 488 C104 461 91 423 91 370 L91 159 C91 104 104 66 127 40 C157 8 204 -8 275 -8 L289 -8 Z M351 343 L351 185 C351 159 346 138 336 123 C324 107 305 100 279 100 L269 100 C236 100 198 115 198 185 L198 343 C198 370 202 390 213 406 C225 421 243 428 269 428 L279 428 C313 428 351 414 351 343 L351 343 Z " />
<glyph glyph-name="R" unicode="R" horiz-adv-x="495" d="M106 503 L106 25 L94 12 C89 8 93 0 99 0 L218 0 C225 0 231 5 224 12 L211 25 L211 140 L242 140 L295 24 L285 11 C279 6 285 -1 290 -1 L416 -1 C423 -1 427 8 422 11 L408 25 L347 158 C369 168 385 186 396 209 C406 229 411 255 411 283 L411 384 C411 427 401 462 380 485 C356 514 318 528 268 528 L99 528 C92 528 89 520 94 517 L106 503 Z M211 239 L211 428 L224 428 C257 428 276 424 288 414 C301 405 306 388 306 360 L306 308 C306 281 301 265 288 255 C275 244 256 239 224 239 L211 239 Z " />
<glyph glyph-name="S" unicode="S" horiz-adv-x="517" d="M143 281 C168 260 201 242 245 225 C281 210 304 199 320 185 C334 173 341 161 339 146 C337 130 331 118 320 109 C310 103 295 99 277 99 C263 99 248 104 234 113 C218 122 208 134 200 149 L203 171 C203 180 197 180 192 178 L102 107 C99 105 98 103 99 100 C102 91 110 69 132 47 C147 30 166 19 188 9 C215 -3 246 -8 282 -8 C349 -8 398 14 429 58 C456 96 460 141 461 163 C462 195 453 220 433 244 C409 274 370 299 313 324 C269 343 240 355 225 366 C210 376 208 385 209 397 C210 406 218 413 227 420 C239 426 254 430 269 430 C274 430 277 429 283 428 C323 422 342 392 346 387 L343 369 C340 363 349 357 353 362 L440 419 C444 421 445 425 443 427 C439 436 432 448 424 462 C414 476 405 487 393 498 C364 522 328 534 281 534 C226 534 180 521 146 495 C111 468 92 431 91 388 C90 347 107 312 143 281 L143 281 Z " />
<glyph glyph-name="T" unicode="T" horiz-adv-x="508" d="M104 416 L116 428 L212 428 L212 25 L200 12 C196 8 199 0 205 0 L325 0 C332 0 335 9 330 12 L318 25 L318 428 L414 428 L427 416 C431 412 439 416 439 422 L439 522 C439 525 436 528 431 528 L99 528 C95 528 91 525 91 522 L91 422 C91 416 101 411 104 416 L104 416 Z " />
<glyph glyph-name="U" unicode="U" horiz-adv-x="556" d="M106 503 L106 159 C106 104 117 66 142 40 C171 8 218 -8 289 -8 C358 -8 406 8 435 40 C460 66 471 104 471 159 L471 503 L484 517 C487 522 484 528 479 528 L358 528 C351 528 351 521 353 517 L366 503 L366 185 C366 158 361 138 351 123 C338 107 320 100 294 100 L284 100 C251 100 212 115 212 185 L211 503 L224 517 C226 522 226 528 218 528 L99 528 C92 528 89 521 94 517 L106 503 Z " />
<glyph glyph-name="V" unicode="V" horiz-adv-x="570" d="M106 503 L235 24 L226 11 C225 6 226 0 233 0 L358 0 C365 0 368 7 364 11 L356 24 L485 503 L498 517 C503 521 499 528 492 528 L372 528 C366 528 363 521 368 517 L380 504 L295 192 L212 504 L224 517 C228 521 224 528 218 528 L99 528 C92 528 89 520 94 517 L106 503 Z " />
<glyph glyph-name="W" unicode="W" horiz-adv-x="785" d="M579 11 L571 24 L700 503 L713 517 C717 521 713 528 708 528 L587 528 C581 528 579 520 582 517 L594 504 L512 197 L444 503 L456 517 C460 521 457 528 450 528 L323 528 C317 528 314 520 318 517 L331 503 L363 385 L297 184 L212 504 L224 517 C228 521 224 528 218 528 L99 528 C92 528 89 520 94 517 L106 503 L235 24 L227 11 C224 6 227 0 234 0 L331 0 C333 0 336 2 337 4 L410 207 L465 5 C465 3 468 0 472 0 L574 0 C579 0 581 7 579 11 L579 11 Z " />
<glyph glyph-name="X" unicode="X" horiz-adv-x="560" d="M99 0 L218 0 C225 0 227 9 224 12 L212 24 L286 183 L291 190 L294 183 L369 24 L356 12 C352 8 356 0 362 0 L483 0 C488 0 491 9 487 12 L474 26 L355 283 L452 503 L465 517 C469 522 465 528 459 528 L339 528 C332 528 330 521 334 517 L346 504 L291 382 L235 504 L246 517 C252 521 246 528 241 528 L122 528 C115 528 112 521 116 517 L128 503 L225 283 L106 26 L94 12 C89 8 93 0 99 0 L99 0 Z " />
<glyph glyph-name="Y" unicode="Y" horiz-adv-x="519" d="M106 503 L218 250 L218 25 L207 12 C201 7 206 0 212 0 L332 0 C339 0 339 8 337 12 L325 25 L325 250 L434 503 L447 517 C451 521 447 528 442 528 L321 528 C315 528 313 520 316 517 L329 504 L271 390 L212 504 L224 517 C228 521 224 528 218 528 L99 528 C92 528 89 520 94 517 L106 503 Z " />
<glyph glyph-name="Z" unicode="Z" horiz-adv-x="486" d="M104 416 L116 428 L287 428 L94 99 C93 98 93 98 93 96 L93 7 C93 4 97 0 100 0 L409 0 C414 0 416 4 416 7 L416 106 C416 114 408 116 405 112 L392 100 L221 100 L414 429 C414 430 415 431 415 432 L415 522 C415 523 414 525 413 526 C412 527 410 528 99 528 C95 528 91 525 91 521 L91 422 C91 415 101 410 104 416 L104 416 Z " />
<glyph glyph-name="bracketleft" unicode="&#x5b;" horiz-adv-x="358" d="M280 588 L99 587 C91 587 89 579 94 576 L106 563 L106 -35 L94 -48 C89 -52 93 -59 99 -59 L280 -60 C285 -60 288 -56 288 -52 L288 53 C288 58 278 63 276 58 L263 47 L211 47 L211 483 L263 483 L276 471 C279 465 288 470 288 475 L288 581 C288 585 285 588 280 588 L280 588 Z " />
<glyph glyph-name="backslash" unicode="&#x5c;" horiz-adv-x="464" d="M392 3 L197 531 C196 534 193 535 190 535 L99 535 C94 534 89 530 92 525 L288 -2 C290 -5 293 -7 294 -7 L387 -7 C390 -6 394 -2 392 3 L392 3 Z " />
<glyph glyph-name="bracketright" unicode="&#x5d;" horiz-adv-x="358" d="M276 -34 L276 563 L288 577 C293 580 288 588 283 588 L101 588 C97 588 94 585 94 581 L94 475 C94 467 103 467 106 471 L119 483 L170 483 L170 47 L119 47 L106 58 C102 63 94 58 94 53 L94 -52 C94 -56 97 -60 101 -60 L283 -60 C290 -60 292 -50 288 -48 L276 -34 Z " />
<glyph glyph-name="asciicircum" unicode="&#x5e;" horiz-adv-x="494" d="M323 528 L225 528 C223 528 221 527 218 525 L93 325 C89 320 94 313 99 313 L191 313 C194 313 195 316 197 318 L268 443 L319 319 C320 316 323 313 326 313 L418 313 C423 313 427 320 424 324 L329 525 C329 526 326 528 323 528 L323 528 Z " />
<glyph glyph-name="underscore" unicode="&#x5f;" horiz-adv-x="559" d="M489 -75 L489 -6 C489 -3 485 1 482 1 L99 1 C95 1 91 -3 91 -6 L91 -75 C91 -80 95 -82 99 -82 L482 -82 C485 -82 489 -80 489 -75 L489 -75 Z " />
<glyph glyph-name="grave" unicode="&#x60;" horiz-adv-x="238" d="M130 471 C131 468 133 467 136 467 L161 467 C166 468 171 471 168 475 L158 542 C158 546 155 549 151 549 L99 549 C94 548 89 542 93 539 L130 471 L130 471 Z " />
<glyph glyph-name="a" unicode="a" horiz-adv-x="571" d="M99 0 L218 0 C226 0 226 8 224 12 L212 24 L237 117 L354 117 L380 24 L368 12 C364 7 367 0 372 0 L493 0 C500 0 501 8 499 12 L485 25 L356 504 L365 517 C367 522 365 528 359 528 L234 528 C226 528 224 522 227 517 L235 504 L106 25 L94 12 C89 7 93 0 99 0 L99 0 Z M263 216 L295 337 L329 216 L263 216 Z " />
<glyph glyph-name="b" unicode="b" horiz-adv-x="506" d="M94 12 C89 7 93 0 99 0 L269 0 C294 0 316 2 334 6 C355 11 372 19 388 30 C420 57 435 104 435 173 C435 238 422 284 392 313 C403 333 408 360 408 391 C408 421 404 445 395 464 C388 482 375 495 359 505 C329 525 284 528 241 528 L99 528 C92 528 89 521 94 517 L106 503 L106 25 L94 12 Z M260 245 C281 243 297 237 309 226 C321 214 328 197 328 175 C328 150 320 132 303 121 C290 110 269 105 242 105 L212 105 L212 244 L241 244 C248 244 254 245 260 245 L260 245 Z M261 351 L212 351 L212 423 L244 423 C262 423 276 423 286 417 C298 410 300 397 300 387 C300 359 286 353 261 351 L261 351 Z " />
<glyph glyph-name="c" unicode="c" horiz-adv-x="526" d="M275 -8 C344 -8 391 8 422 40 C446 66 457 104 457 159 L457 209 C457 213 454 217 449 217 L345 217 C338 217 336 208 339 204 L352 192 L352 185 C352 158 346 138 336 123 C324 107 305 100 279 100 L269 100 C237 100 198 115 198 185 L198 343 C198 370 202 390 213 405 C225 421 243 428 269 428 L279 428 C302 428 320 423 332 409 C341 400 348 387 351 370 L338 358 C335 353 337 346 344 346 L449 346 C454 346 457 349 457 353 L457 370 C457 424 446 462 422 488 C392 520 345 535 275 535 C205 535 158 520 127 488 C104 461 91 423 91 370 L91 159 C91 104 104 66 127 40 C157 8 205 -8 275 -8 L275 -8 Z " />
<glyph glyph-name="d" unicode="d" horiz-adv-x="542" d="M106 503 L106 25 L94 12 C89 7 93 0 99 0 L313 0 C363 0 403 13 430 41 C457 67 471 107 471 158 L471 370 C471 418 459 457 435 483 C408 513 367 528 313 528 L99 528 C92 528 89 520 94 517 L106 503 Z M284 428 C313 428 333 422 346 408 C360 395 366 375 366 346 L366 182 C366 157 359 136 345 122 C331 107 310 100 284 100 L212 100 L212 428 L284 428 Z " />
<glyph glyph-name="e" unicode="e" horiz-adv-x="463" d="M385 0 C389 0 392 4 392 7 L392 106 C392 113 383 118 380 112 L368 100 L212 100 L212 218 L329 218 L341 207 C346 204 353 206 353 212 L353 327 C353 333 346 333 341 332 L329 319 L212 319 L212 428 L368 428 L380 416 C385 410 392 416 392 422 L392 522 C392 525 389 528 385 528 L99 528 C92 528 89 520 94 517 L106 503 L106 25 L94 12 C89 8 93 0 99 0 L385 0 Z " />
<glyph glyph-name="f" unicode="f" horiz-adv-x="463" d="M212 25 L212 218 L329 218 L341 207 C346 204 353 206 353 212 L353 327 C353 333 346 333 341 332 L329 319 L212 319 L212 428 L368 428 L380 416 C385 410 392 416 392 422 L392 522 C392 525 389 528 385 528 L99 528 C92 528 89 520 94 517 L106 503 L106 25 L94 12 C89 8 93 0 99 0 L218 0 C226 0 228 8 224 12 L212 25 Z " />
<glyph glyph-name="g" unicode="g" horiz-adv-x="527" d="M457 370 C457 424 446 461 422 488 C392 520 344 535 275 535 C205 535 158 520 127 488 C104 461 91 423 91 370 L91 159 C91 104 104 66 127 40 C157 8 204 -8 275 -8 C344 -8 391 8 422 40 C446 66 457 104 457 159 L457 285 C457 288 454 292 449 292 L269 292 C264 292 260 288 260 285 L260 185 C260 180 270 175 273 180 L286 192 L351 192 L351 185 C351 158 346 138 336 123 C324 107 305 100 279 100 L269 100 C236 100 198 115 198 185 L198 343 C198 370 202 390 213 405 C225 421 243 428 269 428 L279 428 C302 428 319 423 332 409 C341 400 347 387 351 370 L338 358 C333 353 337 346 344 346 L449 346 C454 346 457 349 457 353 L457 370 Z " />
<glyph glyph-name="h" unicode="h" horiz-adv-x="532" d="M106 25 L94 12 C89 8 93 0 99 0 L218 0 C225 0 227 9 224 12 L211 25 L211 220 L341 220 L341 25 L329 12 C324 8 329 0 334 0 L454 0 C460 0 463 9 459 12 L446 25 L446 503 L459 517 C464 521 459 528 454 528 L334 528 C328 528 324 520 329 517 L341 503 L341 320 L211 320 L211 503 L224 517 C228 521 224 528 218 528 L99 528 C92 528 89 520 94 517 L106 503 L106 25 Z " />
<glyph glyph-name="i" unicode="i" horiz-adv-x="296" d="M94 12 C89 8 93 0 99 0 L218 0 C225 0 227 9 224 12 L211 25 L211 503 L224 517 C228 521 224 528 218 528 L99 528 C92 528 89 520 94 517 L106 503 L106 25 L94 12 Z " />
<glyph glyph-name="j" unicode="j" horiz-adv-x="498" d="M420 528 L300 528 C293 528 293 521 294 517 L307 504 L307 189 C307 161 303 139 294 123 C286 108 275 100 260 100 C227 100 209 119 198 166 L199 183 C199 187 196 192 192 192 C191 192 189 191 188 190 L94 123 C91 121 90 117 92 114 C107 81 130 51 154 29 C183 6 216 -7 249 -7 L269 -7 C307 -7 343 9 370 36 C397 64 413 99 413 138 L413 504 L425 517 C427 522 427 528 420 528 L420 528 Z " />
<glyph glyph-name="k" unicode="k" horiz-adv-x="537" d="M451 25 L322 343 L437 503 L449 517 C455 520 449 528 445 528 L316 528 C310 528 307 521 312 517 L322 504 L211 355 L211 503 L224 517 C228 521 224 528 218 528 L99 528 C92 528 89 520 94 517 L106 503 L106 25 L94 12 C89 8 93 0 99 0 L218 0 C225 0 227 9 224 12 L211 25 L211 188 L252 244 L328 24 L315 12 C312 8 314 0 320 0 L459 0 C465 0 467 9 465 12 L451 25 Z " />
<glyph glyph-name="l" unicode="l" horiz-adv-x="463" d="M380 113 L367 101 L211 101 L211 503 L224 516 C227 521 225 527 218 527 L99 527 C92 527 89 520 94 516 L106 503 L106 25 L94 12 C89 8 93 0 99 0 L385 0 C389 0 391 4 391 7 L391 107 C391 114 383 116 380 113 L380 113 Z " />
<glyph glyph-name="m" unicode="m" horiz-adv-x="596" d="M94 12 C89 8 93 0 99 0 L218 0 C225 0 227 9 224 12 L211 25 L211 331 L302 216 L303 214 C308 209 312 210 314 214 L406 344 L406 25 L393 12 C389 8 392 0 398 0 L518 0 C525 0 527 8 523 12 L511 25 L511 503 L523 517 C528 522 524 528 518 528 L410 528 C408 528 406 527 405 525 L313 389 L212 525 C211 527 209 528 207 528 L99 528 C92 528 89 520 94 517 L106 503 L106 25 L94 12 Z " />
<glyph glyph-name="n" unicode="n" horiz-adv-x="517" d="M106 25 L94 12 C89 8 93 0 99 0 L218 0 C225 0 227 9 224 12 L211 25 L211 267 L321 21 L313 12 C309 8 312 0 318 0 L438 0 C445 0 448 9 443 12 L431 25 L431 503 L443 517 C448 521 444 528 438 528 L318 528 C312 528 309 521 313 517 L325 503 L325 266 L213 524 C211 526 209 528 206 528 L99 528 C92 528 89 520 94 517 L106 503 L106 25 Z " />
<glyph glyph-name="o" unicode="o" horiz-adv-x="527" d="M275 -8 C344 -8 391 8 422 40 C446 66 457 104 457 159 L457 370 C457 423 446 461 422 487 C392 520 344 535 275 535 C205 535 158 520 127 488 C104 461 91 423 91 370 L91 159 C91 104 104 66 127 40 C157 8 204 -8 275 -8 L275 -8 Z M351 343 L351 185 C351 159 346 138 336 123 C324 107 305 100 279 100 L269 100 C236 100 198 115 198 185 L198 343 C198 370 202 390 213 406 C225 421 243 428 269 428 L279 428 C313 428 351 414 351 343 L351 343 Z " />
<glyph glyph-name="p" unicode="p" horiz-adv-x="483" d="M211 140 L268 140 C316 140 353 153 378 181 C400 206 411 241 411 283 L411 384 C411 427 401 462 380 485 C356 514 318 528 268 528 L99 528 C92 528 89 520 94 517 L106 503 L106 25 L94 12 C89 7 93 0 99 0 L218 0 C226 0 226 8 224 12 L211 25 L211 140 Z M211 239 L211 427 L224 427 C257 427 276 423 288 414 C301 405 306 388 306 360 L306 307 C306 281 301 265 288 255 C275 244 256 239 224 239 L211 239 Z " />
<glyph glyph-name="q" unicode="q" horiz-adv-x="526" d="M289 -8 L313 -43 C313 -45 316 -46 318 -46 L408 -46 C414 -46 417 -39 414 -34 L382 12 C409 25 429 44 441 70 C451 93 457 123 457 159 L457 370 C457 423 446 461 422 487 C392 520 345 535 275 535 C205 535 158 520 127 488 C104 461 91 423 91 370 L91 159 C91 104 104 66 127 40 C157 8 204 -8 275 -8 L289 -8 Z M351 343 L351 185 C351 159 346 138 336 123 C324 107 305 100 279 100 L269 100 C236 100 198 115 198 185 L198 343 C198 370 202 390 213 406 C225 421 243 428 269 428 L279 428 C313 428 351 414 351 343 L351 343 Z " />
<glyph glyph-name="r" unicode="r" horiz-adv-x="495" d="M106 503 L106 25 L94 12 C89 8 93 0 99 0 L218 0 C225 0 231 5 224 12 L211 25 L211 140 L242 140 L295 24 L285 11 C279 6 285 -1 290 -1 L416 -1 C423 -1 427 8 422 11 L408 25 L347 158 C369 168 385 186 396 209 C406 229 411 255 411 283 L411 384 C411 427 401 462 380 485 C356 514 318 528 268 528 L99 528 C92 528 89 520 94 517 L106 503 Z M211 239 L211 428 L224 428 C257 428 276 424 288 414 C301 405 306 388 306 360 L306 308 C306 281 301 265 288 255 C275 244 256 239 224 239 L211 239 Z " />
<glyph glyph-name="s" unicode="s" horiz-adv-x="517" d="M143 281 C168 260 201 242 245 225 C281 210 304 199 320 185 C334 173 341 161 339 146 C337 130 331 118 320 109 C310 103 295 99 277 99 C263 99 248 104 234 113 C218 122 208 134 200 149 L203 171 C203 180 197 180 192 178 L102 107 C99 105 98 103 99 100 C102 91 110 69 132 47 C147 30 166 19 188 9 C215 -3 246 -8 282 -8 C349 -8 398 14 429 58 C456 96 460 141 461 163 C462 195 453 220 433 244 C409 274 370 299 313 324 C269 343 240 355 225 366 C210 376 208 385 209 397 C210 406 218 413 227 420 C239 426 254 430 269 430 C274 430 277 429 283 428 C323 422 342 392 346 387 L343 369 C340 363 349 357 353 362 L440 419 C444 421 445 425 443 427 C439 436 432 448 424 462 C414 476 405 487 393 498 C364 522 328 534 281 534 C226 534 180 521 146 495 C111 468 92 431 91 388 C90 347 107 312 143 281 L143 281 Z " />
<glyph glyph-name="t" unicode="t" horiz-adv-x="508" d="M104 416 L116 428 L212 428 L212 25 L200 12 C196 8 199 0 205 0 L325 0 C332 0 335 9 330 12 L318 25 L318 428 L414 428 L427 416 C431 412 439 416 439 422 L439 522 C439 525 436 528 431 528 L99 528 C95 528 91 525 91 522 L91 422 C91 416 101 411 104 416 L104 416 Z " />
<glyph glyph-name="u" unicode="u" horiz-adv-x="556" d="M106 503 L106 159 C106 104 117 66 142 40 C171 8 218 -8 289 -8 C358 -8 406 8 435 40 C460 66 471 104 471 159 L471 503 L484 517 C487 522 484 528 479 528 L358 528 C351 528 351 521 353 517 L366 503 L366 185 C366 158 361 138 351 123 C338 107 320 100 294 100 L284 100 C251 100 212 115 212 185 L211 503 L224 517 C226 522 226 528 218 528 L99 528 C92 528 89 521 94 517 L106 503 Z " />
<glyph glyph-name="v" unicode="v" horiz-adv-x="570" d="M106 503 L235 24 L226 11 C225 6 226 0 233 0 L358 0 C365 0 368 7 364 11 L356 24 L485 503 L498 517 C503 521 499 528 492 528 L372 528 C366 528 363 521 368 517 L380 504 L295 192 L212 504 L224 517 C228 521 224 528 218 528 L99 528 C92 528 89 520 94 517 L106 503 Z " />
<glyph glyph-name="w" unicode="w" horiz-adv-x="785" d="M579 11 L571 24 L700 503 L713 517 C717 521 713 528 708 528 L587 528 C581 528 579 520 582 517 L594 504 L512 197 L444 503 L456 517 C460 521 457 528 450 528 L323 528 C317 528 314 520 318 517 L331 503 L363 385 L297 184 L212 504 L224 517 C228 521 224 528 218 528 L99 528 C92 528 89 520 94 517 L106 503 L235 24 L227 11 C224 6 227 0 234 0 L331 0 C333 0 336 2 337 4 L410 207 L465 5 C465 3 468 0 472 0 L574 0 C579 0 581 7 579 11 L579 11 Z " />
<glyph glyph-name="x" unicode="x" horiz-adv-x="560" d="M99 0 L218 0 C225 0 227 9 224 12 L212 24 L286 183 L291 190 L294 183 L369 24 L356 12 C352 8 356 0 362 0 L483 0 C488 0 491 9 487 12 L474 26 L355 283 L452 503 L465 517 C469 522 465 528 459 528 L339 528 C332 528 330 521 334 517 L346 504 L291 382 L235 504 L246 517 C252 521 246 528 241 528 L122 528 C115 528 112 521 116 517 L128 503 L225 283 L106 26 L94 12 C89 8 93 0 99 0 L99 0 Z " />
<glyph glyph-name="y" unicode="y" horiz-adv-x="519" d="M106 503 L218 250 L218 25 L207 12 C201 7 206 0 212 0 L332 0 C339 0 339 8 337 12 L325 25 L325 250 L434 503 L447 517 C451 521 447 528 442 528 L321 528 C315 528 313 520 316 517 L329 504 L271 390 L212 504 L224 517 C228 521 224 528 218 528 L99 528 C92 528 89 520 94 517 L106 503 Z " />
<glyph glyph-name="z" unicode="z" horiz-adv-x="486" d="M104 416 L116 428 L287 428 L94 99 C93 98 93 98 93 96 L93 7 C93 4 97 0 100 0 L409 0 C414 0 416 4 416 7 L416 106 C416 114 408 116 405 112 L392 100 L221 100 L414 429 C414 430 415 431 415 432 L415 522 C415 523 414 525 413 526 C412 527 410 528 99 528 C95 528 91 525 91 521 L91 422 C91 415 101 410 104 416 L104 416 Z " />
<glyph glyph-name="braceleft" unicode="&#x7b;" horiz-adv-x="351" d="M274 592 L205 592 C172 592 144 579 125 558 C115 544 108 530 105 512 C102 495 103 476 106 456 C115 411 120 371 119 341 C118 303 109 277 94 265 C91 262 90 256 94 254 C109 241 118 216 119 178 C120 146 115 107 106 63 C103 43 102 24 105 6 C108 -11 115 -27 125 -39 C144 -62 172 -73 205 -73 L274 -73 C277 -73 281 -70 281 -66 L281 43 C281 48 273 51 269 47 L256 36 L241 36 C231 36 223 39 218 47 C209 55 207 71 210 88 C211 96 214 104 216 113 C221 132 227 156 227 181 C227 210 218 236 200 259 C218 283 227 309 227 337 C227 363 221 386 216 406 C214 414 211 423 210 430 C207 448 209 463 218 472 C223 480 231 483 241 483 L256 483 L269 470 C274 465 281 470 281 475 L281 585 C281 588 277 592 274 592 L274 592 Z " />
<glyph glyph-name="bar" unicode="&#x7c;" horiz-adv-x="267" d="M99 563 C95 563 91 560 91 557 L91 -37 C91 -40 95 -44 99 -44 L191 -44 C194 -44 198 -40 198 -37 L198 557 C198 560 194 563 191 563 L99 563 L99 563 Z " />
<glyph glyph-name="braceright" unicode="&#x7d;" horiz-adv-x="351" d="M170 592 L101 592 C97 592 94 588 94 585 L94 475 C94 468 102 468 106 470 L119 483 L133 483 C143 483 152 480 158 472 C166 463 168 448 165 430 L159 406 C154 386 148 363 148 337 C148 309 157 283 174 259 C157 236 148 210 148 181 C148 156 154 132 159 113 C161 104 163 96 165 88 C168 71 166 55 158 47 C152 39 143 36 133 36 L119 36 L106 47 C101 50 94 48 94 43 L94 -66 C94 -70 97 -73 101 -73 L170 -73 C203 -73 231 -62 249 -39 C259 -27 266 -11 269 6 C273 24 273 43 269 63 C259 107 255 146 256 178 C256 216 265 241 281 254 C286 256 284 262 281 265 C265 277 256 303 256 341 C255 371 259 411 269 456 C273 476 273 495 269 512 C266 530 259 544 249 558 C231 579 203 592 170 592 L170 592 Z " />
<glyph glyph-name="asciitilde" unicode="&#x7e;" horiz-adv-x="507" d="M276 209 C286 216 293 221 304 221 C316 221 325 216 330 205 L335 191 C335 187 338 185 342 185 L429 184 C432 184 436 190 436 192 C435 218 426 247 412 269 C397 291 371 317 325 317 C283 317 265 303 251 291 C241 283 235 277 222 277 C210 277 201 283 197 294 C194 300 193 306 192 310 C192 313 189 316 185 316 L98 316 C94 316 91 312 91 309 C92 283 102 254 116 233 C131 210 158 183 205 183 C245 183 262 198 276 209 L276 209 Z " />
<glyph glyph-name="exclamdown" unicode="&#xa1;" horiz-adv-x="382" d="M210 245 L122 245 C118 245 115 242 115 238 L94 -119 C94 -122 96 -126 101 -126 L232 -126 C233 -126 235 -125 237 -123 C238 -122 239 -120 239 -119 L217 238 C217 242 214 245 210 245 L210 245 Z M163 269 C201 269 232 300 232 339 C232 378 201 410 163 410 C123 410 92 378 92 339 C92 300 123 269 163 269 L163 269 Z " />
<glyph glyph-name="cent" unicode="&#xa2;" horiz-adv-x="464" d="M393 312 C393 351 387 380 371 401 C353 426 325 440 284 446 L284 505 C284 509 281 512 277 512 L208 512 C204 512 200 509 200 505 L200 446 C160 440 132 426 114 401 C99 379 91 351 91 312 L91 209 C91 169 98 141 114 120 C132 94 160 80 200 73 L200 12 C200 9 204 5 208 5 L277 5 C281 5 284 9 284 12 L284 73 C325 80 353 94 371 120 C387 141 393 169 393 209 L393 249 C393 253 389 256 387 256 L302 256 C294 256 294 248 296 243 L306 235 L306 230 C306 207 301 190 292 178 C281 166 267 161 247 161 L238 161 C211 161 180 173 180 230 L180 291 C180 313 183 331 194 343 C203 354 218 360 238 360 L247 360 C278 360 298 344 303 312 L296 304 C292 299 295 293 302 293 L387 293 C389 293 393 295 393 299 L393 312 Z " />
<glyph glyph-name="sterling" unicode="&#xa3;" horiz-adv-x="544" d="M467 216 L362 216 C354 216 354 208 356 203 L370 191 L370 184 C370 158 363 138 353 123 C341 106 322 99 297 99 L231 99 L231 207 L301 207 C304 207 308 210 308 215 L308 306 C308 310 304 313 301 313 L231 313 L231 339 C231 367 235 389 243 405 C252 420 263 427 277 427 L278 427 C293 427 304 427 314 422 C326 415 334 403 341 382 L338 365 C338 359 346 354 350 359 L444 426 C446 428 447 431 446 435 C414 500 359 534 289 534 L269 534 C231 534 195 520 167 492 C141 465 125 429 125 390 L125 313 L98 313 C95 313 91 310 91 306 L91 215 C91 210 95 207 98 207 L125 207 L125 6 C125 3 128 -1 132 -1 L292 -1 C362 -1 409 13 439 43 C463 68 474 105 474 158 L474 209 C474 213 471 216 467 216 L467 216 Z " />
<glyph glyph-name="currency" unicode="&#xa4;" horiz-adv-x="577" d="M397 86 L446 38 C448 35 453 35 456 38 L504 86 C507 89 507 94 504 97 L461 140 C474 164 482 196 482 237 L482 287 C482 329 475 360 461 385 L504 428 C507 431 507 435 504 438 L456 486 C452 490 448 489 446 486 L397 439 C371 448 337 453 299 453 C260 453 226 448 200 439 L152 486 C151 488 149 489 148 489 C145 489 143 488 94 438 C90 435 90 430 94 428 L137 385 C123 360 116 329 116 287 L116 237 C116 196 123 164 137 140 L94 97 C90 94 90 89 94 86 L142 38 C144 35 151 35 152 38 L200 86 C226 76 260 71 299 71 C337 71 371 76 397 86 L397 86 Z M376 264 L376 260 C376 235 370 216 360 201 C348 186 329 179 304 179 L294 179 C276 179 257 183 243 197 C231 209 222 229 221 260 L221 264 C222 290 227 311 238 324 C251 338 269 346 294 346 L304 346 C321 346 340 342 354 329 C367 315 375 295 376 264 L376 264 Z " />
<glyph glyph-name="yen" unicode="&#xa5;" horiz-adv-x="518" d="M442 528 L321 528 C314 528 313 521 316 517 L329 504 L271 390 L212 504 L224 517 C227 522 225 528 218 528 L98 528 C91 528 90 521 93 517 L106 503 L198 297 L176 297 C172 297 168 294 168 291 L168 221 C168 218 173 215 176 215 L218 215 L218 192 L176 192 C172 192 168 190 168 185 L168 116 C168 112 173 109 176 109 L218 109 L218 25 L207 12 C202 9 206 0 211 0 L332 0 C337 0 340 9 337 12 L324 25 L324 109 L368 109 C371 109 374 113 374 116 L374 185 C374 190 370 192 368 192 L324 192 L324 215 L368 215 C371 215 374 218 374 221 L374 291 C374 294 370 297 368 297 L346 297 L434 503 L446 517 C450 521 448 528 442 528 L442 528 Z " />
<glyph glyph-name="brokenbar" unicode="&#xa6;" horiz-adv-x="267" d="M98 286 L190 286 C194 286 198 289 198 293 L198 558 C198 560 197 560 195 562 C194 563 192 564 190 564 L98 564 C95 564 91 560 91 558 L91 293 C91 291 92 289 94 287 C95 286 97 286 98 286 L98 286 Z M91 -36 C91 -38 92 -39 94 -40 C95 -42 97 -43 98 -43 L190 -43 C194 -43 198 -39 198 -36 L198 229 C198 231 197 233 195 235 C194 235 192 236 190 236 L98 236 C95 236 91 234 91 229 L91 -36 Z " />
<glyph glyph-name="section" unicode="&#xa7;" horiz-adv-x="542" d="M371 4 C393 35 397 72 397 91 C397 101 397 108 396 116 C424 130 446 151 457 181 C468 207 471 232 471 244 C472 270 465 293 448 312 L439 322 C419 342 389 361 350 378 C309 395 286 406 275 414 L269 418 C263 424 262 429 263 438 C265 453 291 465 312 465 C315 465 320 465 323 464 C343 460 355 450 364 442 C370 436 373 431 374 428 L372 416 C371 411 378 404 383 408 L453 455 C457 457 457 461 456 465 C448 480 438 499 422 515 C420 517 417 519 414 521 C390 542 361 551 322 551 C277 551 237 541 210 519 C181 498 166 466 165 430 C165 414 167 399 174 386 C149 377 129 363 115 345 C100 326 92 303 91 276 C90 247 103 220 125 197 L135 188 C155 171 183 156 218 141 C248 130 268 120 279 109 L285 105 C294 96 297 87 295 77 C294 64 290 54 280 47 C272 41 260 38 246 38 C235 38 221 43 209 49 C204 53 200 57 196 62 C190 66 185 72 182 80 L184 96 C183 102 179 107 174 103 L100 47 C98 44 98 41 98 38 C100 30 107 12 124 -5 C125 -6 126 -6 126 -7 C140 -20 155 -29 172 -37 C194 -47 219 -50 249 -50 C305 -50 346 -32 371 4 L371 4 Z M370 231 C368 217 354 200 332 200 C328 200 322 201 317 204 L286 218 L275 222 C237 238 216 249 202 257 C200 259 199 260 198 262 C190 269 189 276 190 285 C192 299 218 312 238 312 C242 312 246 311 250 311 C281 305 330 282 353 262 C354 261 356 260 358 258 C367 250 371 240 370 231 L370 231 Z " />
<glyph glyph-name="dieresis" unicode="&#xa8;" horiz-adv-x="330" d="M91 505 C91 484 109 465 131 465 C152 465 169 484 169 505 C169 526 152 543 131 543 C109 543 91 526 91 505 L91 505 Z M221 465 C243 465 260 484 260 505 C260 526 243 543 221 543 C200 543 183 526 183 505 C183 484 200 465 221 465 L221 465 Z " />
<glyph glyph-name="copyright" unicode="&#xa9;" horiz-adv-x="538" d="M294 465 L264 465 C218 465 175 447 142 414 C109 382 91 338 91 294 L91 243 C91 197 109 154 142 122 C175 88 218 70 264 70 L294 70 C340 70 384 88 416 122 C448 154 466 197 466 243 L466 294 C466 338 448 382 416 414 C384 447 340 465 294 465 L294 465 Z M399 293 L399 249 C399 219 389 192 367 171 C346 149 319 139 289 139 L269 139 C240 139 213 149 192 171 C171 192 159 219 159 249 L159 293 C159 321 171 350 192 370 C213 390 240 403 269 403 L289 403 C319 403 346 390 367 370 C389 350 399 321 399 293 L399 293 Z M360 362 C345 377 318 384 279 384 C242 384 216 375 200 358 C186 344 180 323 180 294 L180 247 C180 218 186 198 199 183 L201 180 C218 164 243 157 279 157 C317 157 344 164 359 179 C372 192 379 211 379 240 L379 265 C379 269 374 272 371 272 L321 272 C314 272 313 264 320 257 L320 254 C320 227 310 218 282 218 L276 218 C265 218 256 220 251 226 L248 230 C242 237 239 248 239 261 L239 279 C239 293 242 303 246 311 C252 320 262 324 276 324 L282 324 C297 324 306 322 312 316 C315 313 317 309 318 303 C312 295 316 288 321 288 L371 288 C375 288 379 292 379 295 C379 331 372 349 360 362 L360 362 Z " />
<glyph glyph-name="ordfeminine" unicode="&#xaa;" horiz-adv-x="274" d="M49 336 L109 336 C113 336 113 340 112 342 L106 348 L118 394 L177 394 L190 348 L184 342 C182 339 183 336 186 336 L246 336 C250 336 250 340 249 342 L242 348 L178 588 L182 594 C183 597 182 600 179 600 L117 600 C113 600 112 597 113 594 L117 588 L53 348 L47 342 C44 339 46 336 49 336 L49 336 Z M131 444 L147 504 L164 444 L131 444 Z " />
<glyph glyph-name="guillemotleft" unicode="&#xab;" horiz-adv-x="568" d="M95 230 L294 99 C300 98 306 99 306 105 L306 197 C306 199 304 202 302 202 L167 264 L302 326 C304 327 306 329 306 332 L306 423 C306 429 299 431 294 429 L95 298 C93 296 91 294 91 293 L91 236 C91 235 92 233 94 231 C94 231 94 230 95 230 L95 230 Z M487 429 L287 298 C286 296 284 294 284 293 L284 236 C284 235 286 230 287 230 L487 99 C492 98 499 99 499 105 L499 197 C499 199 497 202 494 202 L360 264 L494 326 C497 327 499 329 499 332 L499 423 C499 430 491 431 487 429 L487 429 Z " />
<glyph glyph-name="logicalnot" unicode="&#xac;" horiz-adv-x="433" d="M356 346 L99 346 C95 346 91 342 91 338 L91 269 C91 265 95 262 99 262 L280 262 L280 206 C280 202 284 199 287 199 L356 199 C361 199 363 202 363 206 L363 338 C363 342 361 346 356 346 L356 346 Z " />
<glyph glyph-name="uni00AD" unicode="&#xad;" horiz-adv-x="367" d="M291 317 L99 317 C95 317 91 313 91 311 L91 241 C91 237 95 235 99 235 L291 235 C294 235 297 237 297 241 L297 311 C297 313 294 317 291 317 L291 317 Z " />
<glyph glyph-name="registered" unicode="&#xae;" horiz-adv-x="474" d="M248 210 C338 210 405 291 405 374 C405 465 336 540 248 540 C158 540 91 457 91 374 C91 286 162 210 248 210 L248 210 Z M188 471 C206 484 226 491 248 491 C277 491 303 478 321 459 C341 438 352 410 352 381 L352 372 C352 346 342 318 324 297 C303 276 277 262 248 262 C220 262 199 274 175 294 C155 318 144 346 144 372 L144 381 C144 416 161 451 188 471 L188 471 Z M193 452 L193 302 C191 297 192 291 198 291 L231 291 C234 291 236 293 237 294 C237 297 237 300 235 302 L235 332 L249 332 L262 302 C261 300 260 297 261 294 C263 294 265 291 268 291 L303 291 C310 291 312 298 309 302 L308 303 L289 343 C302 352 308 368 308 388 L308 408 C308 427 303 440 294 449 C285 459 271 464 253 464 L198 464 C192 464 189 456 193 452 L193 452 Z M235 376 L235 426 L237 426 C250 426 257 424 261 420 C265 416 266 411 266 403 L266 399 C266 381 259 376 237 376 L235 376 Z " />
<glyph glyph-name="macron" unicode="&#xaf;" horiz-adv-x="367" d="M91 532 L91 478 C91 474 95 471 99 471 L291 471 C294 471 297 474 297 478 L297 532 C297 536 294 539 291 539 L99 539 C95 539 91 536 91 532 L91 532 Z " />
<glyph glyph-name="degree" unicode="&#xb0;" horiz-adv-x="322" d="M253 505 C253 529 248 546 237 558 C224 572 202 579 173 579 C142 579 121 572 107 559 C97 546 91 529 91 505 L91 484 C91 460 97 444 107 431 C121 417 142 410 173 410 C202 410 224 417 237 431 C248 444 253 460 253 484 L253 505 L253 505 Z M192 517 C197 512 199 504 199 495 C199 483 196 466 175 466 L170 466 C166 466 160 467 155 471 C149 475 146 484 146 495 C146 507 149 523 170 523 L175 523 C182 523 188 522 192 517 L192 517 Z " />
<glyph glyph-name="plusminus" unicode="&#xb1;" horiz-adv-x="367" d="M297 124 L297 194 C297 199 294 200 291 200 L99 200 C95 200 91 199 91 194 L91 124 C91 122 95 118 99 118 L291 118 C294 118 297 122 297 124 L297 124 Z M91 355 L91 286 C91 283 95 279 99 279 L151 279 L151 226 C151 221 155 218 159 218 L231 218 C235 218 237 221 237 226 L237 279 L291 279 C294 279 297 283 297 286 L297 355 C297 360 294 363 291 363 L237 363 L237 417 C237 421 235 424 231 424 L159 424 C155 424 151 421 151 417 L151 363 L99 363 C95 363 91 360 91 355 L91 355 Z " />
<glyph glyph-name="twosuperior" unicode="&#xb2;" horiz-adv-x="274" d="M48 528 L98 500 C100 499 104 501 102 504 L99 512 C98 522 101 533 109 540 C114 547 121 550 130 550 C142 550 152 544 158 535 C164 527 164 518 160 510 C155 498 142 491 126 483 C112 475 98 467 83 454 C49 427 46 399 47 385 L47 339 C47 338 49 336 51 336 L206 336 C208 336 210 338 210 339 L210 392 C210 395 205 397 204 395 L197 389 L109 389 C109 400 123 408 143 420 C151 425 160 430 168 436 C204 460 222 489 220 521 C218 546 208 567 192 581 C176 596 155 603 130 603 C104 603 79 593 63 576 C51 563 45 547 46 531 C46 530 47 529 48 528 L48 528 Z " />
<glyph glyph-name="threesuperior" unicode="&#xb3;" horiz-adv-x="263" d="M77 345 C91 337 108 332 125 332 C147 332 168 339 183 351 C191 359 198 368 203 378 C207 389 210 403 210 418 C210 433 206 446 199 457 C194 466 186 474 177 480 C164 489 151 493 147 494 L201 547 C202 547 202 548 202 549 L202 597 C202 598 200 600 198 600 L52 600 C49 600 48 598 48 597 L48 543 C48 540 52 538 53 541 L60 547 L125 547 L65 493 C64 493 64 492 64 491 L64 446 C64 444 67 442 69 443 C73 445 88 450 109 450 L111 450 C126 450 137 443 143 437 C147 432 154 423 154 415 C154 408 151 401 147 396 C140 389 132 385 121 385 C112 385 104 389 98 397 C93 402 91 407 91 408 L92 415 C92 417 90 419 88 419 C87 419 87 419 47 387 C46 386 45 385 46 383 C52 368 62 354 77 345 L77 345 Z " />
<glyph glyph-name="acute" unicode="&#xb4;" horiz-adv-x="251" d="M105 540 L92 475 C92 470 96 467 99 467 L130 467 C132 467 134 468 136 470 L180 534 C180 535 180 537 180 539 C180 542 178 545 174 545 L112 545 C108 545 106 542 105 540 L105 540 Z " />
<glyph glyph-name="mu" unicode="&#xb5;" horiz-adv-x="596" d="M94 12 C89 8 93 0 99 0 L218 0 C225 0 227 9 224 12 L211 25 L211 331 L302 216 L303 214 C308 209 312 210 314 214 L406 344 L406 25 L393 12 C389 8 392 0 398 0 L518 0 C525 0 527 8 523 12 L511 25 L511 503 L523 517 C528 522 524 528 518 528 L410 528 C408 528 406 527 405 525 L313 389 L212 525 C211 527 209 528 207 528 L99 528 C92 528 89 520 94 517 L106 503 L106 25 L94 12 Z " />
<glyph glyph-name="paragraph" unicode="&#xb6;" horiz-adv-x="583" d="M500 503 L511 517 C517 520 511 528 506 528 C224 528 223 528 222 527 C176 525 142 510 120 483 C101 459 91 426 91 384 L91 283 C91 241 104 206 124 182 C126 180 128 178 130 177 C155 152 190 140 236 140 L241 140 L241 25 L228 12 C224 8 229 0 234 0 L353 0 C360 0 363 9 358 12 L346 25 L346 428 L393 428 L393 25 L381 12 C380 10 379 7 380 4 C383 1 385 0 387 0 L506 0 C513 0 516 8 511 12 L500 25 L500 503 Z " />
<glyph glyph-name="periodcentered" unicode="&#xb7;" horiz-adv-x="303" d="M161 206 C200 206 233 238 233 277 C233 316 200 347 161 347 C123 347 91 316 91 277 C91 238 123 206 161 206 L161 206 Z " />
<glyph glyph-name="cedilla" unicode="&#xb8;" horiz-adv-x="304" d="M171 -12 L164 -12 L164 17 C164 21 161 24 157 24 L99 24 C95 24 91 21 91 17 L91 -20 C91 -47 93 -63 102 -73 C109 -82 123 -84 145 -84 L149 -84 C158 -84 161 -86 161 -92 C161 -94 161 -98 151 -100 C143 -103 132 -103 124 -103 C123 -103 121 -103 118 -102 C108 -105 107 -106 107 -109 L107 -167 C107 -171 110 -175 115 -175 L155 -175 C183 -175 203 -168 217 -156 C228 -143 234 -124 234 -98 L234 -83 C234 -60 232 -42 223 -30 C211 -13 189 -12 171 -12 L171 -12 Z " />
<glyph glyph-name="onesuperior" unicode="&#xb9;" horiz-adv-x="189" d="M54 507 L60 517 L76 534 L76 348 L70 342 C68 340 70 336 72 336 L133 336 C136 336 137 340 135 342 L129 348 L129 587 L135 594 C137 596 136 599 133 599 L79 599 C78 599 77 599 76 598 L46 557 C46 557 45 556 45 555 L47 509 C47 505 52 504 54 507 L54 507 Z " />
<glyph glyph-name="ordmasculine" unicode="&#xba;" horiz-adv-x="322" d="M253 505 C253 529 248 546 237 558 C224 572 202 579 173 579 C142 579 121 572 107 559 C97 546 91 529 91 505 L91 484 C91 460 97 444 107 431 C121 417 142 410 173 410 C202 410 224 417 237 431 C248 444 253 460 253 484 L253 505 L253 505 Z M192 517 C197 512 199 504 199 495 C199 483 196 466 175 466 L170 466 C166 466 160 467 155 471 C149 475 146 484 146 495 C146 507 149 523 170 523 L175 523 C182 523 188 522 192 517 L192 517 Z " />
<glyph glyph-name="guillemotright" unicode="&#xbb;" horiz-adv-x="568" d="M306 236 L306 293 C306 294 304 298 303 298 L103 429 C98 433 91 427 91 423 L91 332 C91 330 92 329 94 328 C94 327 95 327 96 326 L230 264 L96 202 C93 201 91 199 91 197 L91 105 C91 98 98 99 103 99 L303 230 C305 231 306 234 306 236 L306 236 Z M288 202 C286 201 284 199 284 197 L284 105 C284 98 291 99 294 99 L495 230 C498 231 499 234 499 236 L499 293 C499 294 497 298 495 298 L294 429 C291 433 284 427 284 423 L284 332 C284 330 285 329 286 328 C286 327 287 327 423 264 L288 202 Z " />
<glyph glyph-name="onequarter" unicode="&#xbc;" horiz-adv-x="876" d="M366 -7 L561 521 C562 525 560 531 555 531 L463 531 C462 531 459 529 457 526 L261 -2 C258 -7 264 -11 268 -11 L359 -11 C361 -11 364 -10 366 -7 L366 -7 Z M81 390 L90 404 L115 430 L115 152 L106 142 C102 139 106 133 109 133 L199 133 C204 133 206 140 203 142 L193 152 L193 510 L203 520 C206 524 204 528 199 528 L118 528 C117 528 115 527 114 527 L70 465 C69 464 68 463 68 462 L71 392 C71 386 79 386 81 390 L81 390 Z M545 106 L688 106 L688 19 L679 9 C676 6 679 0 682 0 L773 0 C777 0 779 7 777 9 L767 19 L767 106 L796 106 L805 97 C808 94 814 97 814 101 L814 176 C814 179 813 181 809 181 L767 181 L767 377 L777 387 C779 391 777 395 773 395 L691 395 C691 395 688 394 688 394 L541 181 C540 181 539 179 539 178 L539 112 C539 109 542 106 545 106 L545 106 Z M629 181 L688 272 L688 181 L629 181 Z " />
<glyph glyph-name="onehalf" unicode="&#xbd;" horiz-adv-x="908" d="M366 -7 L561 521 C562 525 560 531 555 531 L463 531 C462 531 459 529 457 526 L261 -2 C258 -7 264 -11 268 -11 L359 -11 C361 -11 364 -10 366 -7 L366 -7 Z M81 390 L90 404 L115 430 L115 152 L106 142 C102 139 106 133 109 133 L199 133 C204 133 206 140 203 142 L193 152 L193 510 L203 520 C206 524 204 528 199 528 L118 528 C117 528 115 527 114 527 L70 465 C69 464 68 463 68 462 L71 392 C71 386 79 386 81 390 L81 390 Z M590 289 L664 246 C667 244 674 248 671 253 L665 264 C664 280 669 296 680 307 C688 316 699 321 713 321 C731 321 746 312 755 298 C763 286 764 274 758 262 C749 243 730 233 706 220 C686 208 664 197 641 178 C591 136 586 94 588 73 L588 5 C588 3 590 0 593 0 L827 0 C829 0 832 3 832 5 L832 85 C832 89 824 92 823 88 L813 79 L680 79 C681 96 701 108 731 126 C743 133 757 141 770 150 C824 187 850 229 847 278 C844 316 830 346 806 368 C781 390 749 401 712 401 C674 401 636 386 611 361 C594 341 585 317 586 292 C587 292 587 289 590 289 L590 289 Z " />
<glyph glyph-name="threequarters" unicode="&#xbe;" horiz-adv-x="947" d="M440 -7 L635 521 C636 525 634 531 629 531 L537 531 C536 531 533 529 531 526 L335 -2 C332 -7 338 -11 342 -11 L433 -11 C435 -11 438 -10 440 -7 L440 -7 Z M116 147 C137 134 163 127 188 127 C221 127 253 137 274 156 C287 168 297 181 304 197 C310 213 315 234 315 257 C315 278 310 298 299 315 C292 328 280 340 265 350 C247 363 227 368 220 371 L302 450 C303 450 304 452 304 453 L304 524 C304 527 301 529 298 529 L78 529 C74 529 72 527 72 524 L72 444 C72 440 79 437 80 440 L91 450 L187 450 L97 369 C97 368 96 368 96 366 L96 298 C96 296 101 292 103 294 C109 296 132 304 163 304 L166 304 C190 304 206 293 214 284 C221 277 231 264 231 252 C231 242 227 231 220 223 C211 212 198 207 182 207 C168 207 156 212 147 225 C140 232 137 239 137 242 L138 251 C138 255 136 257 133 257 C131 257 131 257 70 210 C69 209 67 206 69 204 C78 181 93 161 116 147 L116 147 Z M616 106 L759 106 L759 19 L750 9 C747 6 750 0 753 0 L844 0 C848 0 850 7 848 9 L838 19 L838 106 L867 106 L876 97 C879 94 885 97 885 101 L885 176 C885 179 884 181 880 181 L838 181 L838 377 L848 387 C850 391 848 395 844 395 L762 395 C762 395 759 394 759 394 L612 181 C611 181 610 179 610 178 L610 112 C610 109 613 106 616 106 L616 106 Z M700 181 L759 272 L759 181 L700 181 Z " />
<glyph glyph-name="questiondown" unicode="&#xbf;" horiz-adv-x="507" d="M112 60 C98 36 91 9 94 -19 C97 -57 117 -93 149 -119 C181 -145 225 -159 273 -159 C320 -159 368 -139 400 -104 C427 -74 441 -38 438 -4 C438 -1 437 2 434 3 L335 54 C330 56 322 51 326 44 L334 23 C335 3 329 -19 314 -33 C304 -46 288 -52 270 -52 C249 -52 234 -47 224 -34 C216 -22 214 -4 220 15 C227 35 249 50 283 73 C293 80 303 87 313 95 C337 111 351 133 358 159 C363 178 363 196 362 210 C361 214 358 216 354 216 L258 216 C254 216 251 213 251 210 C252 195 250 183 240 170 C230 156 211 141 175 120 C146 102 125 82 112 60 L112 60 Z M304 242 C342 242 373 273 373 312 C373 351 342 383 304 383 C264 383 233 351 233 312 C233 273 264 242 304 242 L304 242 Z " />
<glyph glyph-name="Agrave" unicode="&#xc0;" horiz-adv-x="571" d="M99 0 L218 0 C226 0 226 8 224 12 L212 24 L237 117 L354 117 L380 24 L368 12 C364 7 367 0 372 0 L493 0 C500 0 501 8 499 12 L485 25 L356 504 L365 517 C367 522 365 528 359 528 L234 528 C226 528 224 522 227 517 L235 504 L106 25 L94 12 C89 7 93 0 99 0 L99 0 Z M263 216 L295 337 L329 216 L263 216 Z M279 615 C280 612 282 611 285 611 L310 611 C313 611 315 612 316 613 C317 615 318 618 317 619 L307 686 C307 690 304 693 300 693 L248 693 C246 693 243 691 242 689 C240 686 240 685 242 683 L279 615 L279 615 Z " />
<glyph glyph-name="Aacute" unicode="&#xc1;" horiz-adv-x="571" d="M99 0 L218 0 C226 0 226 8 224 12 L212 24 L237 117 L354 117 L380 24 L368 12 C364 7 367 0 372 0 L493 0 C500 0 501 8 499 12 L485 25 L356 504 L365 517 C367 522 365 528 359 528 L234 528 C226 528 224 522 227 517 L235 504 L106 25 L94 12 C89 7 93 0 99 0 L99 0 Z M263 216 L295 337 L329 216 L263 216 Z M282 684 L269 619 C269 618 269 615 271 614 C272 612 275 611 276 611 L307 611 C309 611 311 612 313 614 L357 678 C357 679 357 681 357 683 C357 686 355 689 351 689 L289 689 C285 689 283 686 282 684 L282 684 Z " />
<glyph glyph-name="Acircumflex" unicode="&#xc2;" horiz-adv-x="571" d="M99 0 L218 0 C226 0 226 8 224 12 L212 24 L237 117 L354 117 L380 24 L368 12 C364 7 367 0 372 0 L493 0 C500 0 501 8 499 12 L485 25 L356 504 L365 517 C367 522 365 528 359 528 L234 528 C226 528 224 522 227 517 L235 504 L106 25 L94 12 C89 7 93 0 99 0 L99 0 Z M263 216 L295 337 L329 216 L263 216 Z M193 612 L255 612 C257 612 260 613 260 615 L302 664 L302 664 L331 616 C332 614 334 612 337 612 L401 612 C404 612 406 614 407 617 C408 618 407 621 407 623 L354 700 C353 702 350 704 348 704 L329 704 L284 704 L263 704 C261 704 259 703 258 701 L188 624 C185 622 185 618 186 617 C187 614 190 612 193 612 L193 612 Z " />
<glyph glyph-name="Atilde" unicode="&#xc3;" horiz-adv-x="571" d="M99 0 L218 0 C226 0 226 8 224 12 L212 24 L237 117 L354 117 L380 24 L368 12 C364 7 367 0 372 0 L493 0 C500 0 501 8 499 12 L485 25 L356 504 L365 517 C367 522 365 528 359 528 L234 528 C226 528 224 522 227 517 L235 504 L106 25 L94 12 C89 7 93 0 99 0 L99 0 Z M263 216 L295 337 L329 216 L263 216 Z M334 703 C307 703 295 690 286 681 C281 676 277 670 270 670 C256 670 253 685 252 689 C252 693 249 695 245 695 L193 695 C191 695 189 695 188 693 C186 692 185 690 185 687 C186 682 188 659 200 637 C214 614 234 602 257 602 C283 602 294 613 304 623 C311 629 314 633 321 633 C329 633 334 629 337 624 C338 621 339 618 339 616 C340 612 344 610 346 610 L399 610 C399 610 399 610 399 610 C401 610 403 611 405 612 C406 614 406 616 406 618 C406 625 404 647 390 668 C381 684 364 703 334 703 L334 703 Z " />
<glyph glyph-name="Adieresis" unicode="&#xc4;" horiz-adv-x="571" d="M99 0 L218 0 C226 0 226 8 224 12 L212 24 L237 117 L354 117 L380 24 L368 12 C364 7 367 0 372 0 L493 0 C500 0 501 8 499 12 L485 25 L356 504 L365 517 C367 522 365 528 359 528 L234 528 C226 528 224 522 227 517 L235 504 L106 25 L94 12 C89 7 93 0 99 0 L99 0 Z M263 216 L295 337 L329 216 L263 216 Z M212 649 C212 628 230 609 252 609 C273 609 290 628 290 649 C290 670 273 687 252 687 C230 687 212 670 212 649 L212 649 Z M342 609 C364 609 381 628 381 649 C381 670 364 687 342 687 C321 687 304 670 304 649 C304 628 321 609 342 609 L342 609 Z " />
<glyph glyph-name="Aring" unicode="&#xc5;" horiz-adv-x="570" d="M499 12 L486 25 L360 494 C361 494 361 494 361 495 C371 507 377 523 377 547 L377 568 C377 593 371 609 362 620 L360 622 C346 636 326 642 296 642 C266 642 245 636 232 620 C221 609 217 593 217 568 L217 547 C217 523 221 507 232 495 C233 494 233 494 233 493 L106 25 L94 12 C89 8 94 0 99 0 L219 0 C226 0 228 9 225 12 L213 24 L237 117 L355 117 L380 24 L369 12 C364 8 369 0 373 0 L493 0 C500 0 503 9 499 12 L499 12 Z M264 217 L296 337 L329 217 L264 217 Z M294 586 L298 586 C306 586 312 585 315 580 C316 580 316 579 316 579 C320 575 322 568 322 559 C322 546 320 529 298 529 L294 529 C291 529 284 530 278 534 L277 535 C273 541 271 548 271 559 C271 570 273 586 294 586 L294 586 Z " />
<glyph glyph-name="AE" unicode="&#xc6;" horiz-adv-x="733" d="M377 117 L377 25 L364 12 C360 8 364 0 370 0 L655 0 C659 0 662 4 662 7 L662 106 C662 114 655 116 651 112 L637 100 L483 100 L483 218 L599 218 L611 207 C618 203 623 204 623 212 L623 327 C623 334 615 333 611 332 L599 319 L483 319 L483 428 L637 428 L651 416 C655 411 662 415 662 422 L662 522 C662 525 659 528 655 528 L297 528 C292 528 289 520 293 517 L305 503 L106 25 L93 12 C89 8 93 0 98 0 L218 0 C225 0 227 9 224 12 L212 24 L251 117 L377 117 Z M377 421 L377 217 L292 217 L377 421 Z " />
<glyph glyph-name="Ccedilla" unicode="&#xc7;" horiz-adv-x="526" d="M418 495 C389 525 341 539 275 539 C205 539 157 523 127 491 C103 465 91 427 91 372 L91 162 C91 107 103 70 127 44 L131 39 C154 16 188 3 235 -3 L235 -31 C235 -59 236 -75 244 -85 C244 -86 245 -86 245 -86 C254 -94 267 -96 288 -96 L293 -96 C296 -96 300 -97 302 -99 C303 -100 304 -103 304 -105 C304 -107 304 -110 294 -113 C286 -115 275 -115 268 -115 L257 -115 C253 -115 251 -118 251 -122 L251 -180 C251 -184 254 -186 257 -186 L296 -186 C327 -186 346 -181 359 -167 C371 -156 376 -138 376 -110 L376 -96 C376 -73 374 -55 366 -43 L363 -39 C350 -26 330 -24 313 -24 L306 -24 L306 -4 C359 1 397 16 421 44 C446 70 457 107 457 162 L457 213 C457 217 453 219 449 219 L345 219 C337 219 335 212 339 208 L351 195 L351 189 C351 162 346 141 336 127 C324 111 305 104 279 104 L269 104 C252 104 233 107 218 122 C206 134 197 156 197 189 L197 346 C197 373 202 394 213 408 C225 424 243 431 269 431 L279 431 C302 431 319 426 332 414 L332 413 C341 404 347 389 351 373 L338 362 C335 356 337 350 344 350 L449 350 C454 350 457 353 457 356 L457 372 C457 427 446 465 422 491 C420 492 419 494 418 495 L418 495 Z " />
<glyph glyph-name="Egrave" unicode="&#xc8;" horiz-adv-x="463" d="M385 0 C389 0 392 4 392 7 L392 106 C392 113 383 118 380 112 L368 100 L212 100 L212 218 L329 218 L341 207 C346 204 353 206 353 212 L353 327 C353 333 346 333 341 332 L329 319 L212 319 L212 428 L368 428 L380 416 C385 410 392 416 392 422 L392 522 C392 525 389 528 385 528 L99 528 C92 528 89 520 94 517 L106 503 L106 25 L94 12 C89 8 93 0 99 0 L385 0 Z M225 615 C226 612 228 611 231 611 L256 611 C259 611 261 612 262 613 C263 615 264 618 263 619 L253 686 C253 690 250 693 246 693 L194 693 C192 693 189 691 188 689 C186 686 186 685 188 683 L225 615 L225 615 Z " />
<glyph glyph-name="Eacute" unicode="&#xc9;" horiz-adv-x="463" d="M385 0 C389 0 392 4 392 7 L392 106 C392 113 383 118 380 112 L368 100 L212 100 L212 218 L329 218 L341 207 C346 204 353 206 353 212 L353 327 C353 333 346 333 341 332 L329 319 L212 319 L212 428 L368 428 L380 416 C385 410 392 416 392 422 L392 522 C392 525 389 528 385 528 L99 528 C92 528 89 520 94 517 L106 503 L106 25 L94 12 C89 8 93 0 99 0 L385 0 Z M228 684 L215 619 C215 618 215 615 217 614 C218 612 221 611 222 611 L253 611 C255 611 257 612 259 614 L303 678 C303 679 303 681 303 683 C303 686 301 689 297 689 L235 689 C231 689 229 686 228 684 L228 684 Z " />
<glyph glyph-name="Ecircumflex" unicode="&#xca;" horiz-adv-x="463" d="M385 0 C389 0 392 4 392 7 L392 106 C392 113 383 118 380 112 L368 100 L212 100 L212 218 L329 218 L341 207 C346 204 353 206 353 212 L353 327 C353 333 346 333 341 332 L329 319 L212 319 L212 428 L368 428 L380 416 C385 410 392 416 392 422 L392 522 C392 525 389 528 385 528 L99 528 C92 528 89 520 94 517 L106 503 L106 25 L94 12 C89 8 93 0 99 0 L385 0 Z M138 612 L200 612 C202 612 205 613 205 615 L247 664 L247 664 L276 616 C277 614 279 612 282 612 L346 612 C349 612 351 614 352 617 C353 618 352 621 352 623 L299 700 C298 702 295 704 293 704 L274 704 L229 704 L208 704 C206 704 204 703 203 701 L133 624 C130 622 130 618 131 617 C132 614 135 612 138 612 L138 612 Z " />
<glyph glyph-name="Edieresis" unicode="&#xcb;" horiz-adv-x="463" d="M385 0 C389 0 392 4 392 7 L392 106 C392 113 383 118 380 112 L368 100 L212 100 L212 218 L329 218 L341 207 C346 204 353 206 353 212 L353 327 C353 333 346 333 341 332 L329 319 L212 319 L212 428 L368 428 L380 416 C385 410 392 416 392 422 L392 522 C392 525 389 528 385 528 L99 528 C92 528 89 520 94 517 L106 503 L106 25 L94 12 C89 8 93 0 99 0 L385 0 Z M157 649 C157 628 175 609 197 609 C218 609 235 628 235 649 C235 670 218 687 197 687 C175 687 157 670 157 649 L157 649 Z M287 609 C309 609 326 628 326 649 C326 670 309 687 287 687 C266 687 249 670 249 649 C249 628 266 609 287 609 L287 609 Z " />
<glyph glyph-name="Igrave" unicode="&#xcc;" horiz-adv-x="296" d="M94 12 C89 8 93 0 99 0 L218 0 C225 0 227 9 224 12 L211 25 L211 503 L224 517 C228 521 224 528 218 528 L99 528 C92 528 89 520 94 517 L106 503 L106 25 L94 12 Z M142 615 C143 612 145 611 148 611 L173 611 C176 611 178 612 179 613 C180 615 181 618 180 619 L170 686 C170 690 167 693 163 693 L111 693 C109 693 106 691 105 689 C103 686 103 685 105 683 L142 615 L142 615 Z " />
<glyph glyph-name="Iacute" unicode="&#xcd;" horiz-adv-x="296" d="M94 12 C89 8 93 0 99 0 L218 0 C225 0 227 9 224 12 L211 25 L211 503 L224 517 C228 521 224 528 218 528 L99 528 C92 528 89 520 94 517 L106 503 L106 25 L94 12 Z M145 684 L132 619 C132 618 132 615 134 614 C135 612 138 611 139 611 L170 611 C172 611 174 612 176 614 L220 678 C220 679 220 681 220 683 C220 686 218 689 214 689 L152 689 C148 689 146 686 145 684 L145 684 Z " />
<glyph glyph-name="Icircumflex" unicode="&#xce;" horiz-adv-x="384" d="M94 12 C89 8 93 0 99 0 L218 0 C225 0 227 9 224 12 L211 25 L211 503 L224 517 C228 521 224 528 218 528 L99 528 C92 528 89 520 94 517 L106 503 L106 25 L94 12 Z M56 612 L118 612 C120 612 123 613 123 615 L165 664 L165 664 L194 616 C195 614 197 612 200 612 L264 612 C267 612 269 614 270 617 C271 618 270 621 270 623 L217 700 C216 702 213 704 211 704 L192 704 L147 704 L126 704 C124 704 122 703 121 701 L51 624 C48 622 48 618 49 617 C50 614 53 612 56 612 L56 612 Z " />
<glyph glyph-name="Idieresis" unicode="&#xcf;" horiz-adv-x="330" d="M94 12 C89 8 93 0 99 0 L218 0 C225 0 227 9 224 12 L211 25 L211 503 L224 517 C228 521 224 528 218 528 L99 528 C92 528 89 520 94 517 L106 503 L106 25 L94 12 Z M74 649 C74 628 92 609 114 609 C135 609 152 628 152 649 C152 670 135 687 114 687 C92 687 74 670 74 649 L74 649 Z M204 609 C226 609 243 628 243 649 C243 670 226 687 204 687 C183 687 166 670 166 649 C166 628 183 609 204 609 L204 609 Z " />
<glyph glyph-name="Eth" unicode="&#xd0;" horiz-adv-x="566" d="M123 0 L338 0 C389 0 428 13 455 41 C483 67 497 107 497 158 L497 370 C497 418 484 457 460 483 L456 488 C429 515 389 528 338 528 L123 528 C117 528 115 521 119 517 L131 503 L131 312 L98 312 C95 312 91 308 91 304 L91 235 C91 231 96 228 98 228 L131 228 L131 25 L119 12 C115 8 118 0 123 0 L123 0 Z M332 235 L332 304 C332 309 329 312 326 312 L237 312 L237 428 L310 428 C337 428 358 422 371 408 C385 395 390 375 390 346 L390 182 C390 157 384 136 370 123 C355 107 335 100 310 100 L237 100 L237 228 L326 228 C330 228 332 231 332 235 L332 235 Z " />
<glyph glyph-name="Ntilde" unicode="&#xd1;" horiz-adv-x="517" d="M106 25 L94 12 C89 8 93 0 99 0 L218 0 C225 0 227 9 224 12 L211 25 L211 267 L321 21 L313 12 C309 8 312 0 318 0 L438 0 C445 0 448 9 443 12 L431 25 L431 503 L443 517 C448 521 444 528 438 528 L318 528 C312 528 309 521 313 517 L325 503 L325 266 L213 524 C211 526 209 528 206 528 L99 528 C92 528 89 520 94 517 L106 503 L106 25 Z M306 712 C279 712 267 699 258 690 C253 685 249 679 242 679 C228 679 225 694 224 698 C224 702 221 704 217 704 L165 704 C163 704 161 704 160 702 C158 701 157 699 157 696 C158 691 160 668 172 646 C186 623 206 611 229 611 C255 611 266 622 276 632 C283 638 286 642 293 642 C301 642 306 638 309 633 C310 630 311 627 311 625 C312 621 316 619 318 619 L371 619 C371 619 371 619 371 619 C373 619 375 620 377 621 C378 623 378 625 378 627 C378 634 376 656 362 677 C353 693 336 712 306 712 L306 712 Z " />
<glyph glyph-name="Ograve" unicode="&#xd2;" horiz-adv-x="527" d="M275 -8 C344 -8 391 8 422 40 C446 66 457 104 457 159 L457 370 C457 423 446 461 422 487 C392 520 344 535 275 535 C205 535 158 520 127 488 C104 461 91 423 91 370 L91 159 C91 104 104 66 127 40 C157 8 204 -8 275 -8 L275 -8 Z M351 343 L351 185 C351 159 346 138 336 123 C324 107 305 100 279 100 L269 100 C236 100 198 115 198 185 L198 343 C198 370 202 390 213 406 C225 421 243 428 269 428 L279 428 C313 428 351 414 351 343 L351 343 Z M257 615 C258 612 260 611 263 611 L288 611 C291 611 293 612 294 613 C295 615 296 618 295 619 L285 686 C285 690 282 693 278 693 L226 693 C224 693 221 691 220 689 C218 686 218 685 220 683 L257 615 L257 615 Z " />
<glyph glyph-name="Oacute" unicode="&#xd3;" horiz-adv-x="527" d="M275 -8 C344 -8 391 8 422 40 C446 66 457 104 457 159 L457 370 C457 423 446 461 422 487 C392 520 344 535 275 535 C205 535 158 520 127 488 C104 461 91 423 91 370 L91 159 C91 104 104 66 127 40 C157 8 204 -8 275 -8 L275 -8 Z M351 343 L351 185 C351 159 346 138 336 123 C324 107 305 100 279 100 L269 100 C236 100 198 115 198 185 L198 343 C198 370 202 390 213 406 C225 421 243 428 269 428 L279 428 C313 428 351 414 351 343 L351 343 Z M261 684 L248 619 C248 618 248 615 250 614 C251 612 254 611 255 611 L286 611 C288 611 290 612 292 614 L336 678 C336 679 336 681 336 683 C336 686 334 689 330 689 L268 689 C264 689 262 686 261 684 L261 684 Z " />
<glyph glyph-name="Ocircumflex" unicode="&#xd4;" horiz-adv-x="527" d="M275 -8 C344 -8 391 8 422 40 C446 66 457 104 457 159 L457 370 C457 423 446 461 422 487 C392 520 344 535 275 535 C205 535 158 520 127 488 C104 461 91 423 91 370 L91 159 C91 104 104 66 127 40 C157 8 204 -8 275 -8 L275 -8 Z M351 343 L351 185 C351 159 346 138 336 123 C324 107 305 100 279 100 L269 100 C236 100 198 115 198 185 L198 343 C198 370 202 390 213 406 C225 421 243 428 269 428 L279 428 C313 428 351 414 351 343 L351 343 Z M171 620 L233 620 C235 620 238 621 238 623 L280 672 L280 672 L309 624 C310 622 312 620 315 620 L379 620 C382 620 384 622 385 625 C386 626 385 629 385 631 L332 708 C331 710 328 712 326 712 L307 712 L262 712 L241 712 C239 712 237 711 236 709 L166 632 C163 630 163 626 164 625 C165 622 168 620 171 620 L171 620 Z " />
<glyph glyph-name="Otilde" unicode="&#xd5;" horiz-adv-x="527" d="M275 -8 C344 -8 391 8 422 40 C446 66 457 104 457 159 L457 370 C457 423 446 461 422 487 C392 520 344 535 275 535 C205 535 158 520 127 488 C104 461 91 423 91 370 L91 159 C91 104 104 66 127 40 C157 8 204 -8 275 -8 L275 -8 Z M351 343 L351 185 C351 159 346 138 336 123 C324 107 305 100 279 100 L269 100 C236 100 198 115 198 185 L198 343 C198 370 202 390 213 406 C225 421 243 428 269 428 L279 428 C313 428 351 414 351 343 L351 343 Z M312 712 C285 712 273 699 264 690 C259 685 255 679 248 679 C234 679 231 694 230 698 C230 702 227 704 223 704 L171 704 C169 704 167 704 166 702 C164 701 163 699 163 696 C164 691 166 668 178 646 C192 623 212 611 235 611 C261 611 272 622 282 632 C289 638 292 642 299 642 C307 642 312 638 315 633 C316 630 317 627 317 625 C318 621 322 619 324 619 L377 619 C377 619 377 619 377 619 C379 619 381 620 383 621 C384 623 384 625 384 627 C384 634 382 656 368 677 C359 693 342 712 312 712 L312 712 Z " />
<glyph glyph-name="Odieresis" unicode="&#xd6;" horiz-adv-x="527" d="M275 -8 C344 -8 391 8 422 40 C446 66 457 104 457 159 L457 370 C457 423 446 461 422 487 C392 520 344 535 275 535 C205 535 158 520 127 488 C104 461 91 423 91 370 L91 159 C91 104 104 66 127 40 C157 8 204 -8 275 -8 L275 -8 Z M351 343 L351 185 C351 159 346 138 336 123 C324 107 305 100 279 100 L269 100 C236 100 198 115 198 185 L198 343 C198 370 202 390 213 406 C225 421 243 428 269 428 L279 428 C313 428 351 414 351 343 L351 343 Z M189 658 C189 637 207 618 229 618 C250 618 267 637 267 658 C267 679 250 696 229 696 C207 696 189 679 189 658 L189 658 Z M319 618 C341 618 358 637 358 658 C358 679 341 696 319 696 C298 696 281 679 281 658 C281 637 298 618 319 618 L319 618 Z " />
<glyph glyph-name="multiply" unicode="&#xd7;" horiz-adv-x="363" d="M154 372 C152 373 150 374 149 374 C147 374 145 373 143 372 L95 324 C92 321 92 316 95 313 L132 276 L94 238 C91 235 91 231 94 228 L144 177 C149 175 151 175 155 177 L193 216 L230 179 C234 175 237 176 240 179 L289 227 C292 229 292 236 289 237 L252 275 L290 313 C294 315 294 320 290 322 L239 373 C237 376 232 376 229 373 L191 335 L154 372 Z " />
<glyph glyph-name="Oslash" unicode="&#xd8;" horiz-adv-x="526" d="M228 -48 L242 -6 C252 -7 263 -8 275 -8 C344 -8 391 9 422 40 C446 66 457 105 457 159 L457 370 C457 431 442 474 408 500 L425 549 C427 553 423 559 418 559 L328 559 C324 559 321 556 320 553 L313 534 C302 535 288 536 275 536 C205 536 158 521 127 488 C104 462 91 424 91 370 L91 159 C91 127 96 102 104 81 C112 56 126 38 146 24 L123 -44 C123 -48 126 -53 131 -53 L221 -53 C225 -53 227 -50 228 -48 L228 -48 Z M277 101 L351 327 L351 270 L351 185 C351 159 346 139 336 123 C324 108 305 101 279 101 L277 101 L277 101 Z M198 270 L198 344 C198 370 202 391 213 406 C225 421 243 429 269 429 L279 429 L198 180 C198 181 198 183 198 185 L198 270 L198 270 Z " />
<glyph glyph-name="Ugrave" unicode="&#xd9;" horiz-adv-x="556" d="M106 503 L106 159 C106 104 117 66 142 40 C171 8 218 -8 289 -8 C358 -8 406 8 435 40 C460 66 471 104 471 159 L471 503 L484 517 C487 522 484 528 479 528 L358 528 C351 528 351 521 353 517 L366 503 L366 185 C366 158 361 138 351 123 C338 107 320 100 294 100 L284 100 C251 100 212 115 212 185 L211 503 L224 517 C226 522 226 528 218 528 L99 528 C92 528 89 521 94 517 L106 503 Z M272 615 C273 612 275 611 278 611 L303 611 C306 611 308 612 309 613 C310 615 311 618 310 619 L300 686 C300 690 297 693 293 693 L241 693 C239 693 236 691 235 689 C233 686 233 685 235 683 L272 615 L272 615 Z " />
<glyph glyph-name="Uacute" unicode="&#xda;" horiz-adv-x="556" d="M106 503 L106 159 C106 104 117 66 142 40 C171 8 218 -8 289 -8 C358 -8 406 8 435 40 C460 66 471 104 471 159 L471 503 L484 517 C487 522 484 528 479 528 L358 528 C351 528 351 521 353 517 L366 503 L366 185 C366 158 361 138 351 123 C338 107 320 100 294 100 L284 100 C251 100 212 115 212 185 L211 503 L224 517 C226 522 226 528 218 528 L99 528 C92 528 89 521 94 517 L106 503 Z M274 684 L261 619 C261 618 261 615 263 614 C264 612 267 611 268 611 L299 611 C301 611 303 612 305 614 L349 678 C349 679 349 681 349 683 C349 686 347 689 343 689 L281 689 C277 689 275 686 274 684 L274 684 Z " />
<glyph glyph-name="Ucircumflex" unicode="&#xdb;" horiz-adv-x="556" d="M106 503 L106 159 C106 104 117 66 142 40 C171 8 218 -8 289 -8 C358 -8 406 8 435 40 C460 66 471 104 471 159 L471 503 L484 517 C487 522 484 528 479 528 L358 528 C351 528 351 521 353 517 L366 503 L366 185 C366 158 361 138 351 123 C338 107 320 100 294 100 L284 100 C251 100 212 115 212 185 L211 503 L224 517 C226 522 226 528 218 528 L99 528 C92 528 89 521 94 517 L106 503 Z M185 612 L247 612 C249 612 252 613 252 615 L294 664 L294 664 L323 616 C324 614 326 612 329 612 L393 612 C396 612 398 614 399 617 C400 618 399 621 399 623 L346 700 C345 702 342 704 340 704 L321 704 L276 704 L255 704 C253 704 251 703 250 701 L180 624 C177 622 177 618 178 617 C179 614 182 612 185 612 L185 612 Z " />
<glyph glyph-name="Udieresis" unicode="&#xdc;" horiz-adv-x="556" d="M106 503 L106 159 C106 104 117 66 142 40 C171 8 218 -8 289 -8 C358 -8 406 8 435 40 C460 66 471 104 471 159 L471 503 L484 517 C487 522 484 528 479 528 L358 528 C351 528 351 521 353 517 L366 503 L366 185 C366 158 361 138 351 123 C338 107 320 100 294 100 L284 100 C251 100 212 115 212 185 L211 503 L224 517 C226 522 226 528 218 528 L99 528 C92 528 89 521 94 517 L106 503 Z M204 649 C204 628 222 609 244 609 C265 609 282 628 282 649 C282 670 265 687 244 687 C222 687 204 670 204 649 L204 649 Z M334 609 C356 609 373 628 373 649 C373 670 356 687 334 687 C313 687 296 670 296 649 C296 628 313 609 334 609 L334 609 Z " />
<glyph glyph-name="Yacute" unicode="&#xdd;" horiz-adv-x="519" d="M106 503 L218 250 L218 25 L207 12 C201 7 206 0 212 0 L332 0 C339 0 339 8 337 12 L325 25 L325 250 L434 503 L447 517 C451 521 447 528 442 528 L321 528 C315 528 313 520 316 517 L329 504 L271 390 L212 504 L224 517 C228 521 224 528 218 528 L99 528 C92 528 89 520 94 517 L106 503 Z M256 684 L243 619 C243 618 243 615 245 614 C246 612 249 611 250 611 L281 611 C283 611 285 612 287 614 L331 678 C331 679 331 681 331 683 C331 686 329 689 325 689 L263 689 C259 689 257 686 256 684 L256 684 Z " />
<glyph glyph-name="Thorn" unicode="&#xde;" horiz-adv-x="483" d="M212 25 L212 92 L268 92 C316 92 353 106 379 135 C400 159 411 195 411 237 L411 337 C411 380 401 414 380 439 C356 466 319 482 268 482 L212 482 L212 503 L224 517 C228 521 225 528 218 528 L99 528 C92 528 89 520 94 517 L106 503 L106 25 L94 12 C89 8 93 0 99 0 L218 0 C226 0 228 8 224 12 L212 25 Z M306 260 C306 235 301 218 288 208 C276 198 256 192 224 192 L212 192 L212 381 L224 381 C257 381 276 377 289 367 C301 357 306 340 306 313 L306 260 Z " />
<glyph glyph-name="germandbls" unicode="&#xdf;" horiz-adv-x="526" d="M423 28 C447 55 458 98 454 156 C451 190 441 218 424 238 C409 257 393 268 380 276 C368 283 362 288 362 294 C362 298 365 303 372 310 C388 322 408 341 408 401 C408 437 395 466 371 489 C342 515 298 527 241 527 L99 527 C92 527 89 519 94 516 L106 503 L106 24 L94 11 C89 7 93 -1 99 -1 L204 -1 C209 -1 211 3 211 6 L211 423 L247 423 C257 423 272 422 283 416 C295 410 303 400 304 387 C305 374 303 363 296 354 C290 346 280 339 269 337 C255 333 243 325 237 312 C231 301 228 286 229 272 C231 260 235 248 241 239 C248 230 258 225 269 224 C294 224 311 218 321 209 C332 199 338 182 338 160 C338 141 333 126 324 118 C314 109 301 105 281 105 C276 105 269 106 263 106 C258 106 255 104 255 99 L255 5 C255 2 257 -1 260 -2 C283 -6 304 -8 322 -8 C367 -8 400 4 423 28 L423 28 Z " />
<glyph glyph-name="agrave" unicode="&#xe0;" horiz-adv-x="571" d="M99 0 L218 0 C226 0 226 8 224 12 L212 24 L237 117 L354 117 L380 24 L368 12 C364 7 367 0 372 0 L493 0 C500 0 501 8 499 12 L485 25 L356 504 L365 517 C367 522 365 528 359 528 L234 528 C226 528 224 522 227 517 L235 504 L106 25 L94 12 C89 7 93 0 99 0 L99 0 Z M263 216 L295 337 L329 216 L263 216 Z M279 615 C280 612 282 611 285 611 L310 611 C313 611 315 612 316 613 C317 615 318 618 317 619 L307 686 C307 690 304 693 300 693 L248 693 C246 693 243 691 242 689 C240 686 240 685 242 683 L279 615 L279 615 Z " />
<glyph glyph-name="aacute" unicode="&#xe1;" horiz-adv-x="571" d="M99 0 L218 0 C226 0 226 8 224 12 L212 24 L237 117 L354 117 L380 24 L368 12 C364 7 367 0 372 0 L493 0 C500 0 501 8 499 12 L485 25 L356 504 L365 517 C367 522 365 528 359 528 L234 528 C226 528 224 522 227 517 L235 504 L106 25 L94 12 C89 7 93 0 99 0 L99 0 Z M263 216 L295 337 L329 216 L263 216 Z M282 684 L269 619 C269 618 269 615 271 614 C272 612 275 611 276 611 L307 611 C309 611 311 612 313 614 L357 678 C357 679 357 681 357 683 C357 686 355 689 351 689 L289 689 C285 689 283 686 282 684 L282 684 Z " />
<glyph glyph-name="acircumflex" unicode="&#xe2;" horiz-adv-x="571" d="M99 0 L218 0 C226 0 226 8 224 12 L212 24 L237 117 L354 117 L380 24 L368 12 C364 7 367 0 372 0 L493 0 C500 0 501 8 499 12 L485 25 L356 504 L365 517 C367 522 365 528 359 528 L234 528 C226 528 224 522 227 517 L235 504 L106 25 L94 12 C89 7 93 0 99 0 L99 0 Z M263 216 L295 337 L329 216 L263 216 Z M193 612 L255 612 C257 612 260 613 260 615 L302 664 L302 664 L331 616 C332 614 334 612 337 612 L401 612 C404 612 406 614 407 617 C408 618 407 621 407 623 L354 700 C353 702 350 704 348 704 L329 704 L284 704 L263 704 C261 704 259 703 258 701 L188 624 C185 622 185 618 186 617 C187 614 190 612 193 612 L193 612 Z " />
<glyph glyph-name="atilde" unicode="&#xe3;" horiz-adv-x="571" d="M99 0 L218 0 C226 0 226 8 224 12 L212 24 L237 117 L354 117 L380 24 L368 12 C364 7 367 0 372 0 L493 0 C500 0 501 8 499 12 L485 25 L356 504 L365 517 C367 522 365 528 359 528 L234 528 C226 528 224 522 227 517 L235 504 L106 25 L94 12 C89 7 93 0 99 0 L99 0 Z M263 216 L295 337 L329 216 L263 216 Z M334 703 C307 703 295 690 286 681 C281 676 277 670 270 670 C256 670 253 685 252 689 C252 693 249 695 245 695 L193 695 C191 695 189 695 188 693 C186 692 185 690 185 687 C186 682 188 659 200 637 C214 614 234 602 257 602 C283 602 294 613 304 623 C311 629 314 633 321 633 C329 633 334 629 337 624 C338 621 339 618 339 616 C340 612 344 610 346 610 L399 610 C399 610 399 610 399 610 C401 610 403 611 405 612 C406 614 406 616 406 618 C406 625 404 647 390 668 C381 684 364 703 334 703 L334 703 Z " />
<glyph glyph-name="adieresis" unicode="&#xe4;" horiz-adv-x="571" d="M99 0 L218 0 C226 0 226 8 224 12 L212 24 L237 117 L354 117 L380 24 L368 12 C364 7 367 0 372 0 L493 0 C500 0 501 8 499 12 L485 25 L356 504 L365 517 C367 522 365 528 359 528 L234 528 C226 528 224 522 227 517 L235 504 L106 25 L94 12 C89 7 93 0 99 0 L99 0 Z M263 216 L295 337 L329 216 L263 216 Z M212 649 C212 628 230 609 252 609 C273 609 290 628 290 649 C290 670 273 687 252 687 C230 687 212 670 212 649 L212 649 Z M342 609 C364 609 381 628 381 649 C381 670 364 687 342 687 C321 687 304 670 304 649 C304 628 321 609 342 609 L342 609 Z " />
<glyph glyph-name="aring" unicode="&#xe5;" horiz-adv-x="570" d="M499 12 L486 25 L360 494 C361 494 361 494 361 495 C371 507 377 523 377 547 L377 568 C377 593 371 609 362 620 L360 622 C346 636 326 642 296 642 C266 642 245 636 232 620 C221 609 217 593 217 568 L217 547 C217 523 221 507 232 495 C233 494 233 494 233 493 L106 25 L94 12 C89 8 94 0 99 0 L219 0 C226 0 228 9 225 12 L213 24 L237 117 L355 117 L380 24 L369 12 C364 8 369 0 373 0 L493 0 C500 0 503 9 499 12 L499 12 Z M264 217 L296 337 L329 217 L264 217 Z M294 586 L298 586 C306 586 312 585 315 580 C316 580 316 579 316 579 C320 575 322 568 322 559 C322 546 320 529 298 529 L294 529 C291 529 284 530 278 534 L277 535 C273 541 271 548 271 559 C271 570 273 586 294 586 L294 586 Z " />
<glyph glyph-name="ae" unicode="&#xe6;" horiz-adv-x="733" d="M377 117 L377 25 L364 12 C360 8 364 0 370 0 L655 0 C659 0 662 4 662 7 L662 106 C662 114 655 116 651 112 L637 100 L483 100 L483 218 L599 218 L611 207 C618 203 623 204 623 212 L623 327 C623 334 615 333 611 332 L599 319 L483 319 L483 428 L637 428 L651 416 C655 411 662 415 662 422 L662 522 C662 525 659 528 655 528 L297 528 C292 528 289 520 293 517 L305 503 L106 25 L93 12 C89 8 93 0 98 0 L218 0 C225 0 227 9 224 12 L212 24 L251 117 L377 117 Z M377 421 L377 217 L292 217 L377 421 Z " />
<glyph glyph-name="ccedilla" unicode="&#xe7;" horiz-adv-x="526" d="M418 495 C389 525 341 539 275 539 C205 539 157 523 127 491 C103 465 91 427 91 372 L91 162 C91 107 103 70 127 44 L131 39 C154 16 188 3 235 -3 L235 -31 C235 -59 236 -75 244 -85 C244 -86 245 -86 245 -86 C254 -94 267 -96 288 -96 L293 -96 C296 -96 300 -97 302 -99 C303 -100 304 -103 304 -105 C304 -107 304 -110 294 -113 C286 -115 275 -115 268 -115 L257 -115 C253 -115 251 -118 251 -122 L251 -180 C251 -184 254 -186 257 -186 L296 -186 C327 -186 346 -181 359 -167 C371 -156 376 -138 376 -110 L376 -96 C376 -73 374 -55 366 -43 L363 -39 C350 -26 330 -24 313 -24 L306 -24 L306 -4 C359 1 397 16 421 44 C446 70 457 107 457 162 L457 213 C457 217 453 219 449 219 L345 219 C337 219 335 212 339 208 L351 195 L351 189 C351 162 346 141 336 127 C324 111 305 104 279 104 L269 104 C252 104 233 107 218 122 C206 134 197 156 197 189 L197 346 C197 373 202 394 213 408 C225 424 243 431 269 431 L279 431 C302 431 319 426 332 414 L332 413 C341 404 347 389 351 373 L338 362 C335 356 337 350 344 350 L449 350 C454 350 457 353 457 356 L457 372 C457 427 446 465 422 491 C420 492 419 494 418 495 L418 495 Z " />
<glyph glyph-name="egrave" unicode="&#xe8;" horiz-adv-x="463" d="M385 0 C389 0 392 4 392 7 L392 106 C392 113 383 118 380 112 L368 100 L212 100 L212 218 L329 218 L341 207 C346 204 353 206 353 212 L353 327 C353 333 346 333 341 332 L329 319 L212 319 L212 428 L368 428 L380 416 C385 410 392 416 392 422 L392 522 C392 525 389 528 385 528 L99 528 C92 528 89 520 94 517 L106 503 L106 25 L94 12 C89 8 93 0 99 0 L385 0 Z M225 615 C226 612 228 611 231 611 L256 611 C259 611 261 612 262 613 C263 615 264 618 263 619 L253 686 C253 690 250 693 246 693 L194 693 C192 693 189 691 188 689 C186 686 186 685 188 683 L225 615 L225 615 Z " />
<glyph glyph-name="eacute" unicode="&#xe9;" horiz-adv-x="463" d="M385 0 C389 0 392 4 392 7 L392 106 C392 113 383 118 380 112 L368 100 L212 100 L212 218 L329 218 L341 207 C346 204 353 206 353 212 L353 327 C353 333 346 333 341 332 L329 319 L212 319 L212 428 L368 428 L380 416 C385 410 392 416 392 422 L392 522 C392 525 389 528 385 528 L99 528 C92 528 89 520 94 517 L106 503 L106 25 L94 12 C89 8 93 0 99 0 L385 0 Z M228 684 L215 619 C215 618 215 615 217 614 C218 612 221 611 222 611 L253 611 C255 611 257 612 259 614 L303 678 C303 679 303 681 303 683 C303 686 301 689 297 689 L235 689 C231 689 229 686 228 684 L228 684 Z " />
<glyph glyph-name="ecircumflex" unicode="&#xea;" horiz-adv-x="463" d="M385 0 C389 0 392 4 392 7 L392 106 C392 113 383 118 380 112 L368 100 L212 100 L212 218 L329 218 L341 207 C346 204 353 206 353 212 L353 327 C353 333 346 333 341 332 L329 319 L212 319 L212 428 L368 428 L380 416 C385 410 392 416 392 422 L392 522 C392 525 389 528 385 528 L99 528 C92 528 89 520 94 517 L106 503 L106 25 L94 12 C89 8 93 0 99 0 L385 0 Z M138 612 L200 612 C202 612 205 613 205 615 L247 664 L247 664 L276 616 C277 614 279 612 282 612 L346 612 C349 612 351 614 352 617 C353 618 352 621 352 623 L299 700 C298 702 295 704 293 704 L274 704 L229 704 L208 704 C206 704 204 703 203 701 L133 624 C130 622 130 618 131 617 C132 614 135 612 138 612 L138 612 Z " />
<glyph glyph-name="edieresis" unicode="&#xeb;" horiz-adv-x="463" d="M385 0 C389 0 392 4 392 7 L392 106 C392 113 383 118 380 112 L368 100 L212 100 L212 218 L329 218 L341 207 C346 204 353 206 353 212 L353 327 C353 333 346 333 341 332 L329 319 L212 319 L212 428 L368 428 L380 416 C385 410 392 416 392 422 L392 522 C392 525 389 528 385 528 L99 528 C92 528 89 520 94 517 L106 503 L106 25 L94 12 C89 8 93 0 99 0 L385 0 Z M157 649 C157 628 175 609 197 609 C218 609 235 628 235 649 C235 670 218 687 197 687 C175 687 157 670 157 649 L157 649 Z M287 609 C309 609 326 628 326 649 C326 670 309 687 287 687 C266 687 249 670 249 649 C249 628 266 609 287 609 L287 609 Z " />
<glyph glyph-name="igrave" unicode="&#xec;" horiz-adv-x="296" d="M94 12 C89 8 93 0 99 0 L218 0 C225 0 227 9 224 12 L211 25 L211 503 L224 517 C228 521 224 528 218 528 L99 528 C92 528 89 520 94 517 L106 503 L106 25 L94 12 Z M142 615 C143 612 145 611 148 611 L173 611 C176 611 178 612 179 613 C180 615 181 618 180 619 L170 686 C170 690 167 693 163 693 L111 693 C109 693 106 691 105 689 C103 686 103 685 105 683 L142 615 L142 615 Z " />
<glyph glyph-name="iacute" unicode="&#xed;" horiz-adv-x="296" d="M94 12 C89 8 93 0 99 0 L218 0 C225 0 227 9 224 12 L211 25 L211 503 L224 517 C228 521 224 528 218 528 L99 528 C92 528 89 520 94 517 L106 503 L106 25 L94 12 Z M145 684 L132 619 C132 618 132 615 134 614 C135 612 138 611 139 611 L170 611 C172 611 174 612 176 614 L220 678 C220 679 220 681 220 683 C220 686 218 689 214 689 L152 689 C148 689 146 686 145 684 L145 684 Z " />
<glyph glyph-name="icircumflex" unicode="&#xee;" horiz-adv-x="384" d="M94 12 C89 8 93 0 99 0 L218 0 C225 0 227 9 224 12 L211 25 L211 503 L224 517 C228 521 224 528 218 528 L99 528 C92 528 89 520 94 517 L106 503 L106 25 L94 12 Z M56 612 L118 612 C120 612 123 613 123 615 L165 664 L165 664 L194 616 C195 614 197 612 200 612 L264 612 C267 612 269 614 270 617 C271 618 270 621 270 623 L217 700 C216 702 213 704 211 704 L192 704 L147 704 L126 704 C124 704 122 703 121 701 L51 624 C48 622 48 618 49 617 C50 614 53 612 56 612 L56 612 Z " />
<glyph glyph-name="idieresis" unicode="&#xef;" horiz-adv-x="330" d="M94 12 C89 8 93 0 99 0 L218 0 C225 0 227 9 224 12 L211 25 L211 503 L224 517 C228 521 224 528 218 528 L99 528 C92 528 89 520 94 517 L106 503 L106 25 L94 12 Z M74 649 C74 628 92 609 114 609 C135 609 152 628 152 649 C152 670 135 687 114 687 C92 687 74 670 74 649 L74 649 Z M204 609 C226 609 243 628 243 649 C243 670 226 687 204 687 C183 687 166 670 166 649 C166 628 183 609 204 609 L204 609 Z " />
<glyph glyph-name="eth" unicode="&#xf0;" horiz-adv-x="566" d="M123 0 L338 0 C389 0 428 13 455 41 C483 67 497 107 497 158 L497 370 C497 418 484 457 460 483 L456 488 C429 515 389 528 338 528 L123 528 C117 528 115 521 119 517 L131 503 L131 312 L98 312 C95 312 91 308 91 304 L91 235 C91 231 96 228 98 228 L131 228 L131 25 L119 12 C115 8 118 0 123 0 L123 0 Z M332 235 L332 304 C332 309 329 312 326 312 L237 312 L237 428 L310 428 C337 428 358 422 371 408 C385 395 390 375 390 346 L390 182 C390 157 384 136 370 123 C355 107 335 100 310 100 L237 100 L237 228 L326 228 C330 228 332 231 332 235 L332 235 Z " />
<glyph glyph-name="ntilde" unicode="&#xf1;" horiz-adv-x="517" d="M106 25 L94 12 C89 8 93 0 99 0 L218 0 C225 0 227 9 224 12 L211 25 L211 267 L321 21 L313 12 C309 8 312 0 318 0 L438 0 C445 0 448 9 443 12 L431 25 L431 503 L443 517 C448 521 444 528 438 528 L318 528 C312 528 309 521 313 517 L325 503 L325 266 L213 524 C211 526 209 528 206 528 L99 528 C92 528 89 520 94 517 L106 503 L106 25 Z M306 712 C279 712 267 699 258 690 C253 685 249 679 242 679 C228 679 225 694 224 698 C224 702 221 704 217 704 L165 704 C163 704 161 704 160 702 C158 701 157 699 157 696 C158 691 160 668 172 646 C186 623 206 611 229 611 C255 611 266 622 276 632 C283 638 286 642 293 642 C301 642 306 638 309 633 C310 630 311 627 311 625 C312 621 316 619 318 619 L371 619 C371 619 371 619 371 619 C373 619 375 620 377 621 C378 623 378 625 378 627 C378 634 376 656 362 677 C353 693 336 712 306 712 L306 712 Z " />
<glyph glyph-name="ograve" unicode="&#xf2;" horiz-adv-x="527" d="M275 -8 C344 -8 391 8 422 40 C446 66 457 104 457 159 L457 370 C457 423 446 461 422 487 C392 520 344 535 275 535 C205 535 158 520 127 488 C104 461 91 423 91 370 L91 159 C91 104 104 66 127 40 C157 8 204 -8 275 -8 L275 -8 Z M351 343 L351 185 C351 159 346 138 336 123 C324 107 305 100 279 100 L269 100 C236 100 198 115 198 185 L198 343 C198 370 202 390 213 406 C225 421 243 428 269 428 L279 428 C313 428 351 414 351 343 L351 343 Z M257 615 C258 612 260 611 263 611 L288 611 C291 611 293 612 294 613 C295 615 296 618 295 619 L285 686 C285 690 282 693 278 693 L226 693 C224 693 221 691 220 689 C218 686 218 685 220 683 L257 615 L257 615 Z " />
<glyph glyph-name="oacute" unicode="&#xf3;" horiz-adv-x="527" d="M275 -8 C344 -8 391 8 422 40 C446 66 457 104 457 159 L457 370 C457 423 446 461 422 487 C392 520 344 535 275 535 C205 535 158 520 127 488 C104 461 91 423 91 370 L91 159 C91 104 104 66 127 40 C157 8 204 -8 275 -8 L275 -8 Z M351 343 L351 185 C351 159 346 138 336 123 C324 107 305 100 279 100 L269 100 C236 100 198 115 198 185 L198 343 C198 370 202 390 213 406 C225 421 243 428 269 428 L279 428 C313 428 351 414 351 343 L351 343 Z M261 684 L248 619 C248 618 248 615 250 614 C251 612 254 611 255 611 L286 611 C288 611 290 612 292 614 L336 678 C336 679 336 681 336 683 C336 686 334 689 330 689 L268 689 C264 689 262 686 261 684 L261 684 Z " />
<glyph glyph-name="ocircumflex" unicode="&#xf4;" horiz-adv-x="527" d="M275 -8 C344 -8 391 8 422 40 C446 66 457 104 457 159 L457 370 C457 423 446 461 422 487 C392 520 344 535 275 535 C205 535 158 520 127 488 C104 461 91 423 91 370 L91 159 C91 104 104 66 127 40 C157 8 204 -8 275 -8 L275 -8 Z M351 343 L351 185 C351 159 346 138 336 123 C324 107 305 100 279 100 L269 100 C236 100 198 115 198 185 L198 343 C198 370 202 390 213 406 C225 421 243 428 269 428 L279 428 C313 428 351 414 351 343 L351 343 Z M171 620 L233 620 C235 620 238 621 238 623 L280 672 L280 672 L309 624 C310 622 312 620 315 620 L379 620 C382 620 384 622 385 625 C386 626 385 629 385 631 L332 708 C331 710 328 712 326 712 L307 712 L262 712 L241 712 C239 712 237 711 236 709 L166 632 C163 630 163 626 164 625 C165 622 168 620 171 620 L171 620 Z " />
<glyph glyph-name="otilde" unicode="&#xf5;" horiz-adv-x="527" d="M275 -8 C344 -8 391 8 422 40 C446 66 457 104 457 159 L457 370 C457 423 446 461 422 487 C392 520 344 535 275 535 C205 535 158 520 127 488 C104 461 91 423 91 370 L91 159 C91 104 104 66 127 40 C157 8 204 -8 275 -8 L275 -8 Z M351 343 L351 185 C351 159 346 138 336 123 C324 107 305 100 279 100 L269 100 C236 100 198 115 198 185 L198 343 C198 370 202 390 213 406 C225 421 243 428 269 428 L279 428 C313 428 351 414 351 343 L351 343 Z M312 712 C285 712 273 699 264 690 C259 685 255 679 248 679 C234 679 231 694 230 698 C230 702 227 704 223 704 L171 704 C169 704 167 704 166 702 C164 701 163 699 163 696 C164 691 166 668 178 646 C192 623 212 611 235 611 C261 611 272 622 282 632 C289 638 292 642 299 642 C307 642 312 638 315 633 C316 630 317 627 317 625 C318 621 322 619 324 619 L377 619 C377 619 377 619 377 619 C379 619 381 620 383 621 C384 623 384 625 384 627 C384 634 382 656 368 677 C359 693 342 712 312 712 L312 712 Z " />
<glyph glyph-name="odieresis" unicode="&#xf6;" horiz-adv-x="527" d="M275 -8 C344 -8 391 8 422 40 C446 66 457 104 457 159 L457 370 C457 423 446 461 422 487 C392 520 344 535 275 535 C205 535 158 520 127 488 C104 461 91 423 91 370 L91 159 C91 104 104 66 127 40 C157 8 204 -8 275 -8 L275 -8 Z M351 343 L351 185 C351 159 346 138 336 123 C324 107 305 100 279 100 L269 100 C236 100 198 115 198 185 L198 343 C198 370 202 390 213 406 C225 421 243 428 269 428 L279 428 C313 428 351 414 351 343 L351 343 Z M189 658 C189 637 207 618 229 618 C250 618 267 637 267 658 C267 679 250 696 229 696 C207 696 189 679 189 658 L189 658 Z M319 618 C341 618 358 637 358 658 C358 679 341 696 319 696 C298 696 281 679 281 658 C281 637 298 618 319 618 L319 618 Z " />
<glyph glyph-name="divide" unicode="&#xf7;" horiz-adv-x="367" d="M237 375 C237 398 218 418 195 418 C171 418 152 398 152 375 C152 352 171 332 195 332 C218 332 237 352 237 375 L237 375 Z M237 175 C237 199 218 218 195 218 C171 218 152 199 152 175 C152 152 171 133 195 133 C218 133 237 152 237 175 L237 175 Z M297 241 L297 311 C297 313 294 317 291 317 L99 317 C95 317 91 313 91 311 L91 241 C91 237 95 235 99 235 L291 235 C294 235 297 237 297 241 L297 241 Z " />
<glyph glyph-name="oslash" unicode="&#xf8;" horiz-adv-x="526" d="M228 -48 L242 -6 C252 -7 263 -8 275 -8 C344 -8 391 9 422 40 C446 66 457 105 457 159 L457 370 C457 431 442 474 408 500 L425 549 C427 553 423 559 418 559 L328 559 C324 559 321 556 320 553 L313 534 C302 535 288 536 275 536 C205 536 158 521 127 488 C104 462 91 424 91 370 L91 159 C91 127 96 102 104 81 C112 56 126 38 146 24 L123 -44 C123 -48 126 -53 131 -53 L221 -53 C225 -53 227 -50 228 -48 L228 -48 Z M277 101 L351 327 L351 270 L351 185 C351 159 346 139 336 123 C324 108 305 101 279 101 L277 101 L277 101 Z M198 270 L198 344 C198 370 202 391 213 406 C225 421 243 429 269 429 L279 429 L198 180 C198 181 198 183 198 185 L198 270 L198 270 Z " />
<glyph glyph-name="ugrave" unicode="&#xf9;" horiz-adv-x="556" d="M106 503 L106 159 C106 104 117 66 142 40 C171 8 218 -8 289 -8 C358 -8 406 8 435 40 C460 66 471 104 471 159 L471 503 L484 517 C487 522 484 528 479 528 L358 528 C351 528 351 521 353 517 L366 503 L366 185 C366 158 361 138 351 123 C338 107 320 100 294 100 L284 100 C251 100 212 115 212 185 L211 503 L224 517 C226 522 226 528 218 528 L99 528 C92 528 89 521 94 517 L106 503 Z M272 615 C273 612 275 611 278 611 L303 611 C306 611 308 612 309 613 C310 615 311 618 310 619 L300 686 C300 690 297 693 293 693 L241 693 C239 693 236 691 235 689 C233 686 233 685 235 683 L272 615 L272 615 Z " />
<glyph glyph-name="uacute" unicode="&#xfa;" horiz-adv-x="556" d="M106 503 L106 159 C106 104 117 66 142 40 C171 8 218 -8 289 -8 C358 -8 406 8 435 40 C460 66 471 104 471 159 L471 503 L484 517 C487 522 484 528 479 528 L358 528 C351 528 351 521 353 517 L366 503 L366 185 C366 158 361 138 351 123 C338 107 320 100 294 100 L284 100 C251 100 212 115 212 185 L211 503 L224 517 C226 522 226 528 218 528 L99 528 C92 528 89 521 94 517 L106 503 Z M274 684 L261 619 C261 618 261 615 263 614 C264 612 267 611 268 611 L299 611 C301 611 303 612 305 614 L349 678 C349 679 349 681 349 683 C349 686 347 689 343 689 L281 689 C277 689 275 686 274 684 L274 684 Z " />
<glyph glyph-name="ucircumflex" unicode="&#xfb;" horiz-adv-x="556" d="M106 503 L106 159 C106 104 117 66 142 40 C171 8 218 -8 289 -8 C358 -8 406 8 435 40 C460 66 471 104 471 159 L471 503 L484 517 C487 522 484 528 479 528 L358 528 C351 528 351 521 353 517 L366 503 L366 185 C366 158 361 138 351 123 C338 107 320 100 294 100 L284 100 C251 100 212 115 212 185 L211 503 L224 517 C226 522 226 528 218 528 L99 528 C92 528 89 521 94 517 L106 503 Z M203 612 L265 612 C267 612 270 613 270 615 L312 664 L312 664 L341 616 C342 614 344 612 347 612 L411 612 C414 612 416 614 417 617 C418 618 417 621 417 623 L364 700 C363 702 360 704 358 704 L339 704 L294 704 L273 704 C271 704 269 703 268 701 L198 624 C195 622 195 618 196 617 C197 614 200 612 203 612 L203 612 Z " />
<glyph glyph-name="udieresis" unicode="&#xfc;" horiz-adv-x="556" d="M106 503 L106 159 C106 104 117 66 142 40 C171 8 218 -8 289 -8 C358 -8 406 8 435 40 C460 66 471 104 471 159 L471 503 L484 517 C487 522 484 528 479 528 L358 528 C351 528 351 521 353 517 L366 503 L366 185 C366 158 361 138 351 123 C338 107 320 100 294 100 L284 100 C251 100 212 115 212 185 L211 503 L224 517 C226 522 226 528 218 528 L99 528 C92 528 89 521 94 517 L106 503 Z M221 649 C221 628 239 609 261 609 C282 609 299 628 299 649 C299 670 282 687 261 687 C239 687 221 670 221 649 L221 649 Z M351 609 C373 609 390 628 390 649 C390 670 373 687 351 687 C330 687 313 670 313 649 C313 628 330 609 351 609 L351 609 Z " />
<glyph glyph-name="yacute" unicode="&#xfd;" horiz-adv-x="519" d="M106 503 L218 250 L218 25 L207 12 C201 7 206 0 212 0 L332 0 C339 0 339 8 337 12 L325 25 L325 250 L434 503 L447 517 C451 521 447 528 442 528 L321 528 C315 528 313 520 316 517 L329 504 L271 390 L212 504 L224 517 C228 521 224 528 218 528 L99 528 C92 528 89 520 94 517 L106 503 Z M256 684 L243 619 C243 618 243 615 245 614 C246 612 249 611 250 611 L281 611 C283 611 285 612 287 614 L331 678 C331 679 331 681 331 683 C331 686 329 689 325 689 L263 689 C259 689 257 686 256 684 L256 684 Z " />
<glyph glyph-name="thorn" unicode="&#xfe;" horiz-adv-x="483" d="M212 25 L212 92 L268 92 C316 92 353 106 379 135 C400 159 411 195 411 237 L411 337 C411 380 401 414 380 439 C356 466 319 482 268 482 L212 482 L212 503 L224 517 C228 521 225 528 218 528 L99 528 C92 528 89 520 94 517 L106 503 L106 25 L94 12 C89 8 93 0 99 0 L218 0 C226 0 228 8 224 12 L212 25 Z M306 260 C306 235 301 218 288 208 C276 198 256 192 224 192 L212 192 L212 381 L224 381 C257 381 276 377 289 367 C301 357 306 340 306 313 L306 260 Z " />
<glyph glyph-name="ydieresis" unicode="&#xff;" horiz-adv-x="519" d="M106 503 L218 250 L218 25 L207 12 C201 7 206 0 212 0 L332 0 C339 0 339 8 337 12 L325 25 L325 250 L434 503 L447 517 C451 521 447 528 442 528 L321 528 C315 528 313 520 316 517 L329 504 L271 390 L212 504 L224 517 C228 521 224 528 218 528 L99 528 C92 528 89 520 94 517 L106 503 Z M186 649 C186 628 204 609 226 609 C247 609 264 628 264 649 C264 670 247 687 226 687 C204 687 186 670 186 649 L186 649 Z M316 609 C338 609 355 628 355 649 C355 670 338 687 316 687 C295 687 278 670 278 649 C278 628 295 609 316 609 L316 609 Z " />
<glyph glyph-name="Amacron" unicode="&#x100;" horiz-adv-x="571" d="M99 0 L218 0 C226 0 226 8 224 12 L212 24 L237 117 L354 117 L380 24 L368 12 C364 7 367 0 372 0 L493 0 C500 0 501 8 499 12 L485 25 L356 504 L365 517 C367 522 365 528 359 528 L234 528 C226 528 224 522 227 517 L235 504 L106 25 L94 12 C89 7 93 0 99 0 L99 0 Z M263 216 L295 337 L329 216 L263 216 Z M192 676 L192 622 C192 618 196 615 200 615 L392 615 C395 615 398 618 398 622 L398 676 C398 680 395 683 392 683 L200 683 C196 683 192 680 192 676 L192 676 Z " />
<glyph glyph-name="amacron" unicode="&#x101;" horiz-adv-x="571" d="M99 0 L218 0 C226 0 226 8 224 12 L212 24 L237 117 L354 117 L380 24 L368 12 C364 7 367 0 372 0 L493 0 C500 0 501 8 499 12 L485 25 L356 504 L365 517 C367 522 365 528 359 528 L234 528 C226 528 224 522 227 517 L235 504 L106 25 L94 12 C89 7 93 0 99 0 L99 0 Z M263 216 L295 337 L329 216 L263 216 Z M192 676 L192 622 C192 618 196 615 200 615 L392 615 C395 615 398 618 398 622 L398 676 C398 680 395 683 392 683 L200 683 C196 683 192 680 192 676 L192 676 Z " />
<glyph glyph-name="Abreve" unicode="&#x102;" horiz-adv-x="571" d="M99 0 L218 0 C226 0 226 8 224 12 L212 24 L237 117 L354 117 L380 24 L368 12 C364 7 367 0 372 0 L493 0 C500 0 501 8 499 12 L485 25 L356 504 L365 517 C367 522 365 528 359 528 L234 528 C226 528 224 522 227 517 L235 504 L106 25 L94 12 C89 7 93 0 99 0 L99 0 Z M263 216 L295 337 L329 216 L263 216 Z M319 698 C316 698 312 695 312 691 C312 687 311 682 307 678 C305 675 300 673 295 673 C290 673 286 675 282 678 C279 682 278 687 277 691 C277 695 274 698 270 698 L206 698 C205 698 203 697 201 695 C200 694 199 692 199 690 C200 678 205 645 228 622 C244 605 267 596 295 596 C324 596 346 605 363 622 C385 645 390 678 390 690 C391 692 390 695 388 695 C387 697 384 698 383 698 L319 698 L319 698 Z " />
<glyph glyph-name="abreve" unicode="&#x103;" horiz-adv-x="571" d="M99 0 L218 0 C226 0 226 8 224 12 L212 24 L237 117 L354 117 L380 24 L368 12 C364 7 367 0 372 0 L493 0 C500 0 501 8 499 12 L485 25 L356 504 L365 517 C367 522 365 528 359 528 L234 528 C226 528 224 522 227 517 L235 504 L106 25 L94 12 C89 7 93 0 99 0 L99 0 Z M263 216 L295 337 L329 216 L263 216 Z M319 698 C316 698 312 695 312 691 C312 687 311 682 307 678 C305 675 300 673 295 673 C290 673 286 675 282 678 C279 682 278 687 277 691 C277 695 274 698 270 698 L206 698 C205 698 203 697 201 695 C200 694 199 692 199 690 C200 678 205 645 228 622 C244 605 267 596 295 596 C324 596 346 605 363 622 C385 645 390 678 390 690 C391 692 390 695 388 695 C387 697 384 698 383 698 L319 698 L319 698 Z " />
<glyph glyph-name="Aogonek" unicode="&#x104;" horiz-adv-x="570" d="M485 25 L356 504 L365 517 C367 522 365 528 359 528 L233 528 C226 528 225 522 226 517 L235 504 L106 25 L93 12 C89 8 93 0 98 0 L218 0 C225 0 227 9 224 12 L212 24 L237 117 L354 117 L380 24 L368 12 C363 8 368 0 372 0 L400 0 L400 -24 L393 -24 C377 -24 357 -26 345 -38 L341 -42 C332 -54 331 -72 331 -95 L331 -109 C331 -137 336 -156 348 -167 C361 -181 380 -186 410 -186 L449 -186 C454 -186 457 -182 457 -180 L457 -122 C457 -117 453 -115 449 -115 L440 -115 C431 -115 421 -115 413 -112 C403 -110 403 -106 403 -105 C403 -102 404 -100 405 -99 C407 -97 410 -96 414 -96 L419 -96 C440 -96 453 -94 462 -86 L463 -85 C471 -75 473 -58 473 -31 L473 0 L493 0 C500 0 502 9 498 12 L485 25 Z M263 217 L295 337 L329 217 L263 217 Z " />
<glyph glyph-name="aogonek" unicode="&#x105;" horiz-adv-x="570" d="M485 25 L356 504 L365 517 C367 522 365 528 359 528 L233 528 C226 528 225 522 226 517 L235 504 L106 25 L93 12 C89 8 93 0 98 0 L218 0 C225 0 227 9 224 12 L212 24 L237 117 L354 117 L380 24 L368 12 C363 8 368 0 372 0 L400 0 L400 -24 L393 -24 C377 -24 357 -26 345 -38 L341 -42 C332 -54 331 -72 331 -95 L331 -109 C331 -137 336 -156 348 -167 C361 -181 380 -186 410 -186 L449 -186 C454 -186 457 -182 457 -180 L457 -122 C457 -113 445 -115 440 -115 C431 -115 421 -115 413 -112 C405 -110 400 -105 405 -99 C407 -97 410 -96 414 -96 L419 -96 C440 -96 453 -94 462 -86 L463 -85 C471 -75 473 -58 473 -31 L473 0 L493 0 C500 0 502 9 498 12 L485 25 Z M263 217 L295 337 L329 217 L263 217 Z " />
<glyph glyph-name="Cacute" unicode="&#x106;" horiz-adv-x="526" d="M275 -8 C344 -8 391 8 422 40 C446 66 457 104 457 159 L457 209 C457 213 454 217 449 217 L345 217 C338 217 336 208 339 204 L352 192 L352 185 C352 158 346 138 336 123 C324 107 305 100 279 100 L269 100 C237 100 198 115 198 185 L198 343 C198 370 202 390 213 405 C225 421 243 428 269 428 L279 428 C302 428 320 423 332 409 C341 400 348 387 351 370 L338 358 C335 353 337 346 344 346 L449 346 C454 346 457 349 457 353 L457 370 C457 424 446 462 422 488 C392 520 345 535 275 535 C205 535 158 520 127 488 C104 461 91 423 91 370 L91 159 C91 104 104 66 127 40 C157 8 205 -8 275 -8 L275 -8 Z M256 684 L243 619 C243 618 243 615 245 614 C246 612 249 611 250 611 L281 611 C283 611 285 612 287 614 L331 678 C331 679 331 681 331 683 C331 686 329 689 325 689 L263 689 C259 689 257 686 256 684 L256 684 Z " />
<glyph glyph-name="cacute" unicode="&#x107;" horiz-adv-x="526" d="M275 -8 C344 -8 391 8 422 40 C446 66 457 104 457 159 L457 209 C457 213 454 217 449 217 L345 217 C338 217 336 208 339 204 L352 192 L352 185 C352 158 346 138 336 123 C324 107 305 100 279 100 L269 100 C237 100 198 115 198 185 L198 343 C198 370 202 390 213 405 C225 421 243 428 269 428 L279 428 C302 428 320 423 332 409 C341 400 348 387 351 370 L338 358 C335 353 337 346 344 346 L449 346 C454 346 457 349 457 353 L457 370 C457 424 446 462 422 488 C392 520 345 535 275 535 C205 535 158 520 127 488 C104 461 91 423 91 370 L91 159 C91 104 104 66 127 40 C157 8 205 -8 275 -8 L275 -8 Z M256 684 L243 619 C243 618 243 615 245 614 C246 612 249 611 250 611 L281 611 C283 611 285 612 287 614 L331 678 C331 679 331 681 331 683 C331 686 329 689 325 689 L263 689 C259 689 257 686 256 684 L256 684 Z " />
<glyph glyph-name="Ccircumflex" unicode="&#x108;" horiz-adv-x="526" d="M275 -8 C344 -8 391 8 422 40 C446 66 457 104 457 159 L457 209 C457 213 454 217 449 217 L345 217 C338 217 336 208 339 204 L352 192 L352 185 C352 158 346 138 336 123 C324 107 305 100 279 100 L269 100 C237 100 198 115 198 185 L198 343 C198 370 202 390 213 405 C225 421 243 428 269 428 L279 428 C302 428 320 423 332 409 C341 400 348 387 351 370 L338 358 C335 353 337 346 344 346 L449 346 C454 346 457 349 457 353 L457 370 C457 424 446 462 422 488 C392 520 345 535 275 535 C205 535 158 520 127 488 C104 461 91 423 91 370 L91 159 C91 104 104 66 127 40 C157 8 205 -8 275 -8 L275 -8 Z M159 603 L221 603 C223 603 226 604 226 606 L268 655 L268 655 L297 607 C298 605 300 603 303 603 L367 603 C370 603 372 605 373 608 C374 609 373 612 373 614 L320 691 C319 693 316 695 314 695 L295 695 L250 695 L229 695 C227 695 225 694 224 692 L154 615 C151 613 151 609 152 608 C153 605 156 603 159 603 L159 603 Z " />
<glyph glyph-name="ccircumflex" unicode="&#x109;" horiz-adv-x="526" d="M275 -8 C344 -8 391 8 422 40 C446 66 457 104 457 159 L457 209 C457 213 454 217 449 217 L345 217 C338 217 336 208 339 204 L352 192 L352 185 C352 158 346 138 336 123 C324 107 305 100 279 100 L269 100 C237 100 198 115 198 185 L198 343 C198 370 202 390 213 405 C225 421 243 428 269 428 L279 428 C302 428 320 423 332 409 C341 400 348 387 351 370 L338 358 C335 353 337 346 344 346 L449 346 C454 346 457 349 457 353 L457 370 C457 424 446 462 422 488 C392 520 345 535 275 535 C205 535 158 520 127 488 C104 461 91 423 91 370 L91 159 C91 104 104 66 127 40 C157 8 205 -8 275 -8 L275 -8 Z M159 603 L221 603 C223 603 226 604 226 606 L268 655 L268 655 L297 607 C298 605 300 603 303 603 L367 603 C370 603 372 605 373 608 C374 609 373 612 373 614 L320 691 C319 693 316 695 314 695 L295 695 L250 695 L229 695 C227 695 225 694 224 692 L154 615 C151 613 151 609 152 608 C153 605 156 603 159 603 L159 603 Z " />
<glyph glyph-name="Cdotaccent" unicode="&#x10a;" horiz-adv-x="526" d="M275 -8 C344 -8 391 8 422 40 C446 66 457 104 457 159 L457 209 C457 213 454 217 449 217 L345 217 C338 217 336 208 339 204 L352 192 L352 185 C352 158 346 138 336 123 C324 107 305 100 279 100 L269 100 C237 100 198 115 198 185 L198 343 C198 370 202 390 213 405 C225 421 243 428 269 428 L279 428 C302 428 320 423 332 409 C341 400 348 387 351 370 L338 358 C335 353 337 346 344 346 L449 346 C454 346 457 349 457 353 L457 370 C457 424 446 462 422 488 C392 520 345 535 275 535 C205 535 158 520 127 488 C104 461 91 423 91 370 L91 159 C91 104 104 66 127 40 C157 8 205 -8 275 -8 L275 -8 Z M276 589 C315 589 348 621 348 660 C348 699 315 730 276 730 C238 730 206 699 206 660 C206 621 238 589 276 589 L276 589 Z " />
<glyph glyph-name="cdotaccent" unicode="&#x10b;" horiz-adv-x="526" d="M275 -8 C344 -8 391 8 422 40 C446 66 457 104 457 159 L457 209 C457 213 454 217 449 217 L345 217 C338 217 336 208 339 204 L352 192 L352 185 C352 158 346 138 336 123 C324 107 305 100 279 100 L269 100 C237 100 198 115 198 185 L198 343 C198 370 202 390 213 405 C225 421 243 428 269 428 L279 428 C302 428 320 423 332 409 C341 400 348 387 351 370 L338 358 C335 353 337 346 344 346 L449 346 C454 346 457 349 457 353 L457 370 C457 424 446 462 422 488 C392 520 345 535 275 535 C205 535 158 520 127 488 C104 461 91 423 91 370 L91 159 C91 104 104 66 127 40 C157 8 205 -8 275 -8 L275 -8 Z M276 589 C315 589 348 621 348 660 C348 699 315 730 276 730 C238 730 206 699 206 660 C206 621 238 589 276 589 L276 589 Z " />
<glyph glyph-name="Ccaron" unicode="&#x10c;" horiz-adv-x="526" d="M275 -8 C344 -8 391 8 422 40 C446 66 457 104 457 159 L457 209 C457 213 454 217 449 217 L345 217 C338 217 336 208 339 204 L352 192 L352 185 C352 158 346 138 336 123 C324 107 305 100 279 100 L269 100 C237 100 198 115 198 185 L198 343 C198 370 202 390 213 405 C225 421 243 428 269 428 L279 428 C302 428 320 423 332 409 C341 400 348 387 351 370 L338 358 C335 353 337 346 344 346 L449 346 C454 346 457 349 457 353 L457 370 C457 424 446 462 422 488 C392 520 345 535 275 535 C205 535 158 520 127 488 C104 461 91 423 91 370 L91 159 C91 104 104 66 127 40 C157 8 205 -8 275 -8 L275 -8 Z M372 695 L308 695 C306 695 304 693 302 691 L267 643 L232 691 C231 693 229 695 226 695 L163 695 C161 695 158 693 157 690 C156 687 156 685 158 683 L220 606 C222 604 223 603 225 603 L310 603 C313 603 315 604 316 606 L377 683 C378 684 378 685 378 686 C378 691 376 695 372 695 L372 695 Z " />
<glyph glyph-name="ccaron" unicode="&#x10d;" horiz-adv-x="526" d="M275 -8 C344 -8 391 8 422 40 C446 66 457 104 457 159 L457 209 C457 213 454 217 449 217 L345 217 C338 217 336 208 339 204 L352 192 L352 185 C352 158 346 138 336 123 C324 107 305 100 279 100 L269 100 C237 100 198 115 198 185 L198 343 C198 370 202 390 213 405 C225 421 243 428 269 428 L279 428 C302 428 320 423 332 409 C341 400 348 387 351 370 L338 358 C335 353 337 346 344 346 L449 346 C454 346 457 349 457 353 L457 370 C457 424 446 462 422 488 C392 520 345 535 275 535 C205 535 158 520 127 488 C104 461 91 423 91 370 L91 159 C91 104 104 66 127 40 C157 8 205 -8 275 -8 L275 -8 Z M372 695 L308 695 C306 695 304 693 302 691 L267 643 L232 691 C231 693 229 695 226 695 L163 695 C161 695 158 693 157 690 C156 687 156 685 158 683 L220 606 C222 604 223 603 225 603 L310 603 C313 603 315 604 316 606 L377 683 C378 684 378 685 378 686 C378 691 376 695 372 695 L372 695 Z " />
<glyph glyph-name="Dcaron" unicode="&#x10e;" horiz-adv-x="542" d="M106 503 L106 25 L94 12 C89 7 93 0 99 0 L313 0 C363 0 403 13 430 41 C457 67 471 107 471 158 L471 370 C471 418 459 457 435 483 C408 513 367 528 313 528 L99 528 C92 528 89 520 94 517 L106 503 Z M284 428 C313 428 333 422 346 408 C360 395 366 375 366 346 L366 182 C366 157 359 136 345 122 C331 107 310 100 284 100 L212 100 L212 428 L284 428 Z M368 695 L304 695 C302 695 300 693 298 691 L263 643 L228 691 C227 693 225 695 222 695 L159 695 C157 695 154 693 153 690 C152 687 152 685 154 683 L216 606 C218 604 219 603 221 603 L306 603 C309 603 311 604 312 606 L373 683 C374 684 374 685 374 686 C374 691 372 695 368 695 L368 695 Z " />
<glyph glyph-name="dcaron" unicode="&#x10f;" horiz-adv-x="542" d="M106 503 L106 25 L94 12 C89 7 93 0 99 0 L313 0 C363 0 403 13 430 41 C457 67 471 107 471 158 L471 370 C471 418 459 457 435 483 C408 513 367 528 313 528 L99 528 C92 528 89 520 94 517 L106 503 Z M284 428 C313 428 333 422 346 408 C360 395 366 375 366 346 L366 182 C366 157 359 136 345 122 C331 107 310 100 284 100 L212 100 L212 428 L284 428 Z M368 695 L304 695 C302 695 300 693 298 691 L263 643 L228 691 C227 693 225 695 222 695 L159 695 C157 695 154 693 153 690 C152 687 152 685 154 683 L216 606 C218 604 219 603 221 603 L306 603 C309 603 311 604 312 606 L373 683 C374 684 374 685 374 686 C374 691 372 695 368 695 L368 695 Z " />
<glyph glyph-name="Dcroat" unicode="&#x110;" horiz-adv-x="567" d="M123 0 L338 0 C389 0 428 13 455 41 C483 67 497 107 497 158 L497 370 C497 418 484 457 460 483 L456 488 C429 515 389 528 338 528 L123 528 C117 528 115 521 119 517 L131 503 L131 312 L98 312 C95 312 91 308 91 304 L91 235 C91 231 96 228 98 228 L131 228 L131 25 L119 12 C115 8 118 0 123 0 L123 0 Z M332 235 L332 304 C332 309 329 312 326 312 L237 312 L237 428 L310 428 C337 428 358 422 371 408 C385 395 390 375 390 346 L390 182 C390 157 384 136 370 123 C355 107 335 100 310 100 L237 100 L237 228 L326 228 C330 228 332 231 332 235 L332 235 Z " />
<glyph glyph-name="dcroat" unicode="&#x111;" horiz-adv-x="567" d="M123 0 L338 0 C389 0 428 13 455 41 C483 67 497 107 497 158 L497 370 C497 418 484 457 460 483 L456 488 C429 515 389 528 338 528 L123 528 C117 528 115 521 119 517 L131 503 L131 312 L98 312 C95 312 91 308 91 304 L91 235 C91 231 96 228 98 228 L131 228 L131 25 L119 12 C115 8 118 0 123 0 L123 0 Z M332 235 L332 304 C332 309 329 312 326 312 L237 312 L237 428 L310 428 C337 428 358 422 371 408 C385 395 390 375 390 346 L390 182 C390 157 384 136 370 123 C355 107 335 100 310 100 L237 100 L237 228 L326 228 C330 228 332 231 332 235 L332 235 Z " />
<glyph glyph-name="Emacron" unicode="&#x112;" horiz-adv-x="463" d="M385 0 C389 0 392 4 392 7 L392 106 C392 113 383 118 380 112 L368 100 L212 100 L212 218 L329 218 L341 207 C346 204 353 206 353 212 L353 327 C353 333 346 333 341 332 L329 319 L212 319 L212 428 L368 428 L380 416 C385 410 392 416 392 422 L392 522 C392 525 389 528 385 528 L99 528 C92 528 89 520 94 517 L106 503 L106 25 L94 12 C89 8 93 0 99 0 L385 0 Z M147 676 L147 622 C147 618 151 615 155 615 L347 615 C350 615 353 618 353 622 L353 676 C353 680 350 683 347 683 L155 683 C151 683 147 680 147 676 L147 676 Z " />
<glyph glyph-name="emacron" unicode="&#x113;" horiz-adv-x="463" d="M385 0 C389 0 392 4 392 7 L392 106 C392 113 383 118 380 112 L368 100 L212 100 L212 218 L329 218 L341 207 C346 204 353 206 353 212 L353 327 C353 333 346 333 341 332 L329 319 L212 319 L212 428 L368 428 L380 416 C385 410 392 416 392 422 L392 522 C392 525 389 528 385 528 L99 528 C92 528 89 520 94 517 L106 503 L106 25 L94 12 C89 8 93 0 99 0 L385 0 Z M147 676 L147 622 C147 618 151 615 155 615 L347 615 C350 615 353 618 353 622 L353 676 C353 680 350 683 347 683 L155 683 C151 683 147 680 147 676 L147 676 Z " />
<glyph glyph-name="Ebreve" unicode="&#x114;" horiz-adv-x="463" d="M385 0 C389 0 392 4 392 7 L392 106 C392 113 383 118 380 112 L368 100 L212 100 L212 218 L329 218 L341 207 C346 204 353 206 353 212 L353 327 C353 333 346 333 341 332 L329 319 L212 319 L212 428 L368 428 L380 416 C385 410 392 416 392 422 L392 522 C392 525 389 528 385 528 L99 528 C92 528 89 520 94 517 L106 503 L106 25 L94 12 C89 8 93 0 99 0 L385 0 Z M263 698 C260 698 256 695 256 691 C256 687 255 682 251 678 C249 675 244 673 239 673 C234 673 230 675 226 678 C223 682 222 687 221 691 C221 695 218 698 214 698 L150 698 C149 698 147 697 145 695 C144 694 143 692 143 690 C144 678 149 645 172 622 C188 605 211 596 239 596 C268 596 290 605 307 622 C329 645 334 678 334 690 C335 692 334 695 332 695 C331 697 328 698 327 698 L263 698 L263 698 Z " />
<glyph glyph-name="ebreve" unicode="&#x115;" horiz-adv-x="463" d="M385 0 C389 0 392 4 392 7 L392 106 C392 113 383 118 380 112 L368 100 L212 100 L212 218 L329 218 L341 207 C346 204 353 206 353 212 L353 327 C353 333 346 333 341 332 L329 319 L212 319 L212 428 L368 428 L380 416 C385 410 392 416 392 422 L392 522 C392 525 389 528 385 528 L99 528 C92 528 89 520 94 517 L106 503 L106 25 L94 12 C89 8 93 0 99 0 L385 0 Z M263 698 C260 698 256 695 256 691 C256 687 255 682 251 678 C249 675 244 673 239 673 C234 673 230 675 226 678 C223 682 222 687 221 691 C221 695 218 698 214 698 L150 698 C149 698 147 697 145 695 C144 694 143 692 143 690 C144 678 149 645 172 622 C188 605 211 596 239 596 C268 596 290 605 307 622 C329 645 334 678 334 690 C335 692 334 695 332 695 C331 697 328 698 327 698 L263 698 L263 698 Z " />
<glyph glyph-name="Edotaccent" unicode="&#x116;" horiz-adv-x="463" d="M385 0 C389 0 392 4 392 7 L392 106 C392 113 383 118 380 112 L368 100 L212 100 L212 218 L329 218 L341 207 C346 204 353 206 353 212 L353 327 C353 333 346 333 341 332 L329 319 L212 319 L212 428 L368 428 L380 416 C385 410 392 416 392 422 L392 522 C392 525 389 528 385 528 L99 528 C92 528 89 520 94 517 L106 503 L106 25 L94 12 C89 8 93 0 99 0 L385 0 Z M238 589 C277 589 310 621 310 660 C310 699 277 730 238 730 C200 730 168 699 168 660 C168 621 200 589 238 589 L238 589 Z " />
<glyph glyph-name="edotaccent" unicode="&#x117;" horiz-adv-x="463" d="M385 0 C389 0 392 4 392 7 L392 106 C392 113 383 118 380 112 L368 100 L212 100 L212 218 L329 218 L341 207 C346 204 353 206 353 212 L353 327 C353 333 346 333 341 332 L329 319 L212 319 L212 428 L368 428 L380 416 C385 410 392 416 392 422 L392 522 C392 525 389 528 385 528 L99 528 C92 528 89 520 94 517 L106 503 L106 25 L94 12 C89 8 93 0 99 0 L385 0 Z M238 589 C277 589 310 621 310 660 C310 699 277 730 238 730 C200 730 168 699 168 660 C168 621 200 589 238 589 L238 589 Z " />
<glyph glyph-name="Eogonek" unicode="&#x118;" horiz-adv-x="463" d="M385 528 L98 528 C92 528 89 520 93 517 L106 503 L106 25 L93 12 C89 8 93 0 98 0 L203 0 L203 -24 L197 -24 C180 -24 161 -26 148 -38 L144 -42 C136 -54 134 -72 134 -95 L134 -109 C134 -137 140 -156 151 -167 C164 -181 183 -186 214 -186 L253 -186 C257 -186 260 -183 260 -180 L260 -122 C260 -116 256 -115 253 -115 L243 -115 C235 -115 224 -115 217 -112 C206 -110 206 -106 206 -105 C206 -97 213 -96 218 -96 C243 -96 256 -94 265 -86 L266 -85 C275 -75 276 -58 276 -31 L276 0 L385 0 C389 0 391 4 391 7 L391 106 C391 114 384 116 380 112 L367 100 L211 100 L211 218 L329 218 L341 207 C346 202 353 207 353 212 L353 327 C353 333 345 335 341 332 L329 319 L211 319 L211 428 L367 428 L380 416 C385 411 391 415 391 422 L391 522 C391 525 389 528 385 528 L385 528 Z " />
<glyph glyph-name="eogonek" unicode="&#x119;" horiz-adv-x="463" d="M385 528 L98 528 C92 528 89 520 93 517 L106 503 L106 25 L93 12 C89 8 93 0 98 0 L203 0 L203 -24 L197 -24 C180 -24 161 -26 148 -38 L144 -42 C136 -54 134 -72 134 -95 L134 -109 C134 -137 140 -156 151 -167 C164 -181 183 -186 214 -186 L253 -186 C257 -186 260 -183 260 -180 L260 -122 C260 -116 256 -115 253 -115 L243 -115 C235 -115 224 -115 217 -112 C206 -110 206 -106 206 -105 C206 -97 213 -96 218 -96 C243 -96 256 -94 265 -86 L266 -85 C275 -75 276 -58 276 -31 L276 0 L385 0 C389 0 391 4 391 7 L391 106 C391 114 384 116 380 112 L367 100 L211 100 L211 218 L329 218 L341 207 C346 202 353 207 353 212 L353 327 C353 333 345 335 341 332 L329 319 L211 319 L211 428 L367 428 L380 416 C385 411 391 415 391 422 L391 522 C391 525 389 528 385 528 L385 528 Z " />
<glyph glyph-name="Ecaron" unicode="&#x11a;" horiz-adv-x="463" d="M385 0 C389 0 392 4 392 7 L392 106 C392 113 383 118 380 112 L368 100 L212 100 L212 218 L329 218 L341 207 C346 204 353 206 353 212 L353 327 C353 333 346 333 341 332 L329 319 L212 319 L212 428 L368 428 L380 416 C385 410 392 416 392 422 L392 522 C392 525 389 528 385 528 L99 528 C92 528 89 520 94 517 L106 503 L106 25 L94 12 C89 8 93 0 99 0 L385 0 Z M354 695 L290 695 C288 695 286 693 284 691 L249 643 L214 691 C213 693 211 695 208 695 L145 695 C143 695 140 693 139 690 C138 687 138 685 140 683 L202 606 C204 604 205 603 207 603 L292 603 C295 603 297 604 298 606 L359 683 C360 684 360 685 360 686 C360 691 358 695 354 695 L354 695 Z " />
<glyph glyph-name="ecaron" unicode="&#x11b;" horiz-adv-x="463" d="M385 0 C389 0 392 4 392 7 L392 106 C392 113 383 118 380 112 L368 100 L212 100 L212 218 L329 218 L341 207 C346 204 353 206 353 212 L353 327 C353 333 346 333 341 332 L329 319 L212 319 L212 428 L368 428 L380 416 C385 410 392 416 392 422 L392 522 C392 525 389 528 385 528 L99 528 C92 528 89 520 94 517 L106 503 L106 25 L94 12 C89 8 93 0 99 0 L385 0 Z M354 695 L290 695 C288 695 286 693 284 691 L249 643 L214 691 C213 693 211 695 208 695 L145 695 C143 695 140 693 139 690 C138 687 138 685 140 683 L202 606 C204 604 205 603 207 603 L292 603 C295 603 297 604 298 606 L359 683 C360 684 360 685 360 686 C360 691 358 695 354 695 L354 695 Z " />
<glyph glyph-name="Gcircumflex" unicode="&#x11c;" horiz-adv-x="527" d="M457 370 C457 424 446 461 422 488 C392 520 344 535 275 535 C205 535 158 520 127 488 C104 461 91 423 91 370 L91 159 C91 104 104 66 127 40 C157 8 204 -8 275 -8 C344 -8 391 8 422 40 C446 66 457 104 457 159 L457 285 C457 288 454 292 449 292 L269 292 C264 292 260 288 260 285 L260 185 C260 180 270 175 273 180 L286 192 L351 192 L351 185 C351 158 346 138 336 123 C324 107 305 100 279 100 L269 100 C236 100 198 115 198 185 L198 343 C198 370 202 390 213 405 C225 421 243 428 269 428 L279 428 C302 428 319 423 332 409 C341 400 347 387 351 370 L338 358 C333 353 337 346 344 346 L449 346 C454 346 457 349 457 353 L457 370 Z M168 603 L230 603 C232 603 235 604 235 606 L277 655 L277 655 L306 607 C307 605 309 603 312 603 L376 603 C379 603 381 605 382 608 C383 609 382 612 382 614 L329 691 C328 693 325 695 323 695 L304 695 L259 695 L238 695 C236 695 234 694 233 692 L163 615 C160 613 160 609 161 608 C162 605 165 603 168 603 L168 603 Z " />
<glyph glyph-name="gcircumflex" unicode="&#x11d;" horiz-adv-x="527" d="M457 370 C457 424 446 461 422 488 C392 520 344 535 275 535 C205 535 158 520 127 488 C104 461 91 423 91 370 L91 159 C91 104 104 66 127 40 C157 8 204 -8 275 -8 C344 -8 391 8 422 40 C446 66 457 104 457 159 L457 285 C457 288 454 292 449 292 L269 292 C264 292 260 288 260 285 L260 185 C260 180 270 175 273 180 L286 192 L351 192 L351 185 C351 158 346 138 336 123 C324 107 305 100 279 100 L269 100 C236 100 198 115 198 185 L198 343 C198 370 202 390 213 405 C225 421 243 428 269 428 L279 428 C302 428 319 423 332 409 C341 400 347 387 351 370 L338 358 C333 353 337 346 344 346 L449 346 C454 346 457 349 457 353 L457 370 Z M168 603 L230 603 C232 603 235 604 235 606 L277 655 L277 655 L306 607 C307 605 309 603 312 603 L376 603 C379 603 381 605 382 608 C383 609 382 612 382 614 L329 691 C328 693 325 695 323 695 L304 695 L259 695 L238 695 C236 695 234 694 233 692 L163 615 C160 613 160 609 161 608 C162 605 165 603 168 603 L168 603 Z " />
<glyph glyph-name="Gbreve" unicode="&#x11e;" horiz-adv-x="527" d="M457 370 C457 424 446 461 422 488 C392 520 344 535 275 535 C205 535 158 520 127 488 C104 461 91 423 91 370 L91 159 C91 104 104 66 127 40 C157 8 204 -8 275 -8 C344 -8 391 8 422 40 C446 66 457 104 457 159 L457 285 C457 288 454 292 449 292 L269 292 C264 292 260 288 260 285 L260 185 C260 180 270 175 273 180 L286 192 L351 192 L351 185 C351 158 346 138 336 123 C324 107 305 100 279 100 L269 100 C236 100 198 115 198 185 L198 343 C198 370 202 390 213 405 C225 421 243 428 269 428 L279 428 C302 428 319 423 332 409 C341 400 347 387 351 370 L338 358 C333 353 337 346 344 346 L449 346 C454 346 457 349 457 353 L457 370 Z M296 698 C293 698 289 695 289 691 C289 687 288 682 284 678 C282 675 277 673 272 673 C267 673 263 675 259 678 C256 682 255 687 254 691 C254 695 251 698 247 698 L183 698 C182 698 180 697 178 695 C177 694 176 692 176 690 C177 678 182 645 205 622 C221 605 244 596 272 596 C301 596 323 605 340 622 C362 645 367 678 367 690 C368 692 367 695 365 695 C364 697 361 698 360 698 L296 698 L296 698 Z " />
<glyph glyph-name="gbreve" unicode="&#x11f;" horiz-adv-x="527" d="M457 370 C457 424 446 461 422 488 C392 520 344 535 275 535 C205 535 158 520 127 488 C104 461 91 423 91 370 L91 159 C91 104 104 66 127 40 C157 8 204 -8 275 -8 C344 -8 391 8 422 40 C446 66 457 104 457 159 L457 285 C457 288 454 292 449 292 L269 292 C264 292 260 288 260 285 L260 185 C260 180 270 175 273 180 L286 192 L351 192 L351 185 C351 158 346 138 336 123 C324 107 305 100 279 100 L269 100 C236 100 198 115 198 185 L198 343 C198 370 202 390 213 405 C225 421 243 428 269 428 L279 428 C302 428 319 423 332 409 C341 400 347 387 351 370 L338 358 C333 353 337 346 344 346 L449 346 C454 346 457 349 457 353 L457 370 Z M296 698 C293 698 289 695 289 691 C289 687 288 682 284 678 C282 675 277 673 272 673 C267 673 263 675 259 678 C256 682 255 687 254 691 C254 695 251 698 247 698 L183 698 C182 698 180 697 178 695 C177 694 176 692 176 690 C177 678 182 645 205 622 C221 605 244 596 272 596 C301 596 323 605 340 622 C362 645 367 678 367 690 C368 692 367 695 365 695 C364 697 361 698 360 698 L296 698 L296 698 Z " />
<glyph glyph-name="Gdotaccent" unicode="&#x120;" horiz-adv-x="527" d="M457 370 C457 424 446 461 422 488 C392 520 344 535 275 535 C205 535 158 520 127 488 C104 461 91 423 91 370 L91 159 C91 104 104 66 127 40 C157 8 204 -8 275 -8 C344 -8 391 8 422 40 C446 66 457 104 457 159 L457 285 C457 288 454 292 449 292 L269 292 C264 292 260 288 260 285 L260 185 C260 180 270 175 273 180 L286 192 L351 192 L351 185 C351 158 346 138 336 123 C324 107 305 100 279 100 L269 100 C236 100 198 115 198 185 L198 343 C198 370 202 390 213 405 C225 421 243 428 269 428 L279 428 C302 428 319 423 332 409 C341 400 347 387 351 370 L338 358 C333 353 337 346 344 346 L449 346 C454 346 457 349 457 353 L457 370 Z M279 589 C318 589 351 621 351 660 C351 699 318 730 279 730 C241 730 209 699 209 660 C209 621 241 589 279 589 L279 589 Z " />
<glyph glyph-name="gdotaccent" unicode="&#x121;" horiz-adv-x="527" d="M457 370 C457 424 446 461 422 488 C392 520 344 535 275 535 C205 535 158 520 127 488 C104 461 91 423 91 370 L91 159 C91 104 104 66 127 40 C157 8 204 -8 275 -8 C344 -8 391 8 422 40 C446 66 457 104 457 159 L457 285 C457 288 454 292 449 292 L269 292 C264 292 260 288 260 285 L260 185 C260 180 270 175 273 180 L286 192 L351 192 L351 185 C351 158 346 138 336 123 C324 107 305 100 279 100 L269 100 C236 100 198 115 198 185 L198 343 C198 370 202 390 213 405 C225 421 243 428 269 428 L279 428 C302 428 319 423 332 409 C341 400 347 387 351 370 L338 358 C333 353 337 346 344 346 L449 346 C454 346 457 349 457 353 L457 370 Z M279 589 C318 589 351 621 351 660 C351 699 318 730 279 730 C241 730 209 699 209 660 C209 621 241 589 279 589 L279 589 Z " />
<glyph glyph-name="uni0122" unicode="&#x122;" horiz-adv-x="527" d="M457 370 C457 424 446 461 422 488 C392 520 344 535 275 535 C205 535 158 520 127 488 C104 461 91 423 91 370 L91 159 C91 104 104 66 127 40 C157 8 204 -8 275 -8 C344 -8 391 8 422 40 C446 66 457 104 457 159 L457 285 C457 288 454 292 449 292 L269 292 C264 292 260 288 260 285 L260 185 C260 180 270 175 273 180 L286 192 L351 192 L351 185 C351 158 346 138 336 123 C324 107 305 100 279 100 L269 100 C236 100 198 115 198 185 L198 343 C198 370 202 390 213 405 C225 421 243 428 269 428 L279 428 C302 428 319 423 332 409 C341 400 347 387 351 370 L338 358 C333 353 337 346 344 346 L449 346 C454 346 457 349 457 353 L457 370 Z M276 -55 C237 -55 204 -86 204 -125 C204 -141 210 -155 219 -167 C227 -179 239 -188 255 -193 L230 -257 C229 -262 230 -267 237 -267 L291 -267 C294 -267 296 -265 298 -262 L343 -143 C345 -138 346 -132 346 -125 C346 -86 314 -55 276 -55 L276 -55 Z " />
<glyph glyph-name="uni0123" unicode="&#x123;" horiz-adv-x="527" d="M457 370 C457 424 446 461 422 488 C392 520 344 535 275 535 C205 535 158 520 127 488 C104 461 91 423 91 370 L91 159 C91 104 104 66 127 40 C157 8 204 -8 275 -8 C344 -8 391 8 422 40 C446 66 457 104 457 159 L457 285 C457 288 454 292 449 292 L269 292 C264 292 260 288 260 285 L260 185 C260 180 270 175 273 180 L286 192 L351 192 L351 185 C351 158 346 138 336 123 C324 107 305 100 279 100 L269 100 C236 100 198 115 198 185 L198 343 C198 370 202 390 213 405 C225 421 243 428 269 428 L279 428 C302 428 319 423 332 409 C341 400 347 387 351 370 L338 358 C333 353 337 346 344 346 L449 346 C454 346 457 349 457 353 L457 370 Z M276 -55 C237 -55 204 -86 204 -125 C204 -141 210 -155 219 -167 C227 -179 239 -188 255 -193 L230 -257 C229 -262 230 -267 237 -267 L291 -267 C294 -267 296 -265 298 -262 L343 -143 C345 -138 346 -132 346 -125 C346 -86 314 -55 276 -55 L276 -55 Z " />
<glyph glyph-name="Hcircumflex" unicode="&#x124;" horiz-adv-x="532" d="M106 25 L94 12 C89 8 93 0 99 0 L218 0 C225 0 227 9 224 12 L211 25 L211 220 L341 220 L341 25 L329 12 C324 8 329 0 334 0 L454 0 C460 0 463 9 459 12 L446 25 L446 503 L459 517 C464 521 459 528 454 528 L334 528 C328 528 324 520 329 517 L341 503 L341 320 L211 320 L211 503 L224 517 C228 521 224 528 218 528 L99 528 C92 528 89 520 94 517 L106 503 L106 25 Z M170 603 L232 603 C234 603 237 604 237 606 L279 655 L279 655 L308 607 C309 605 311 603 314 603 L378 603 C381 603 383 605 384 608 C385 609 384 612 384 614 L331 691 C330 693 327 695 325 695 L306 695 L261 695 L240 695 C238 695 236 694 235 692 L165 615 C162 613 162 609 163 608 C164 605 167 603 170 603 L170 603 Z " />
<glyph glyph-name="hcircumflex" unicode="&#x125;" horiz-adv-x="532" d="M106 25 L94 12 C89 8 93 0 99 0 L218 0 C225 0 227 9 224 12 L211 25 L211 220 L341 220 L341 25 L329 12 C324 8 329 0 334 0 L454 0 C460 0 463 9 459 12 L446 25 L446 503 L459 517 C464 521 459 528 454 528 L334 528 C328 528 324 520 329 517 L341 503 L341 320 L211 320 L211 503 L224 517 C228 521 224 528 218 528 L99 528 C92 528 89 520 94 517 L106 503 L106 25 Z M170 603 L232 603 C234 603 237 604 237 606 L279 655 L279 655 L308 607 C309 605 311 603 314 603 L378 603 C381 603 383 605 384 608 C385 609 384 612 384 614 L331 691 C330 693 327 695 325 695 L306 695 L261 695 L240 695 C238 695 236 694 235 692 L165 615 C162 613 162 609 163 608 C164 605 167 603 170 603 L170 603 Z " />
<glyph glyph-name="Hbar" unicode="&#x126;" horiz-adv-x="593" d="M517 441 L478 441 L478 503 L490 517 C495 520 490 528 484 528 L365 528 C358 528 355 521 360 517 L371 503 L371 441 L243 441 L243 503 L255 517 C259 521 256 528 250 528 L130 528 C123 528 121 521 124 517 L137 503 L137 441 L98 441 C95 441 91 438 91 434 L91 365 C91 361 96 358 98 358 L137 358 L137 25 L124 12 C122 7 123 0 130 0 L250 0 C257 0 257 8 255 12 L243 25 L243 220 L371 220 L371 25 L360 12 C356 7 359 0 365 0 L484 0 C492 0 492 8 490 12 L478 25 L478 358 L517 358 C520 358 523 361 523 365 L523 434 C523 438 519 441 517 441 L517 441 Z M371 320 L243 320 L243 358 L371 358 L371 320 Z " />
<glyph glyph-name="hbar" unicode="&#x127;" horiz-adv-x="593" d="M517 441 L478 441 L478 503 L490 517 C495 520 490 528 484 528 L365 528 C358 528 355 521 360 517 L371 503 L371 441 L243 441 L243 503 L255 517 C259 521 256 528 250 528 L130 528 C123 528 121 521 124 517 L137 503 L137 441 L98 441 C95 441 91 438 91 434 L91 365 C91 361 96 358 98 358 L137 358 L137 25 L124 12 C122 7 123 0 130 0 L250 0 C257 0 257 8 255 12 L243 25 L243 220 L371 220 L371 25 L360 12 C356 7 359 0 365 0 L484 0 C492 0 492 8 490 12 L478 25 L478 358 L517 358 C520 358 523 361 523 365 L523 434 C523 438 519 441 517 441 L517 441 Z M371 320 L243 320 L243 358 L371 358 L371 320 Z " />
<glyph glyph-name="Itilde" unicode="&#x128;" horiz-adv-x="384" d="M94 12 C89 8 93 0 99 0 L218 0 C225 0 227 9 224 12 L211 25 L211 503 L224 517 C228 521 224 528 218 528 L99 528 C92 528 89 520 94 517 L106 503 L106 25 L94 12 Z M200 703 C173 703 161 690 152 681 C147 676 143 670 136 670 C122 670 119 685 118 689 C118 693 115 695 111 695 L59 695 C57 695 55 695 54 693 C52 692 51 690 51 687 C52 682 54 659 66 637 C80 614 100 602 123 602 C149 602 160 613 170 623 C177 629 180 633 187 633 C195 633 200 629 203 624 C204 621 205 618 205 616 C206 612 210 610 212 610 L265 610 C265 610 265 610 265 610 C267 610 269 611 271 612 C272 614 272 616 272 618 C272 625 270 647 256 668 C247 684 230 703 200 703 L200 703 Z " />
<glyph glyph-name="itilde" unicode="&#x129;" horiz-adv-x="384" d="M94 12 C89 8 93 0 99 0 L218 0 C225 0 227 9 224 12 L211 25 L211 503 L224 517 C228 521 224 528 218 528 L99 528 C92 528 89 520 94 517 L106 503 L106 25 L94 12 Z M200 703 C173 703 161 690 152 681 C147 676 143 670 136 670 C122 670 119 685 118 689 C118 693 115 695 111 695 L59 695 C57 695 55 695 54 693 C52 692 51 690 51 687 C52 682 54 659 66 637 C80 614 100 602 123 602 C149 602 160 613 170 623 C177 629 180 633 187 633 C195 633 200 629 203 624 C204 621 205 618 205 616 C206 612 210 610 212 610 L265 610 C265 610 265 610 265 610 C267 610 269 611 271 612 C272 614 272 616 272 618 C272 625 270 647 256 668 C247 684 230 703 200 703 L200 703 Z " />
<glyph glyph-name="Imacron" unicode="&#x12a;" horiz-adv-x="367" d="M94 12 C89 8 93 0 99 0 L218 0 C225 0 227 9 224 12 L211 25 L211 503 L224 517 C228 521 224 528 218 528 L99 528 C92 528 89 520 94 517 L106 503 L106 25 L94 12 Z M53 676 L53 622 C53 618 57 615 61 615 L253 615 C256 615 259 618 259 622 L259 676 C259 680 256 683 253 683 L61 683 C57 683 53 680 53 676 L53 676 Z " />
<glyph glyph-name="imacron" unicode="&#x12b;" horiz-adv-x="367" d="M94 12 C89 8 93 0 99 0 L218 0 C225 0 227 9 224 12 L211 25 L211 503 L224 517 C228 521 224 528 218 528 L99 528 C92 528 89 520 94 517 L106 503 L106 25 L94 12 Z M53 676 L53 622 C53 618 57 615 61 615 L253 615 C256 615 259 618 259 622 L259 676 C259 680 256 683 253 683 L61 683 C57 683 53 680 53 676 L53 676 Z " />
<glyph glyph-name="Ibreve" unicode="&#x12c;" horiz-adv-x="353" d="M94 12 C89 8 93 0 99 0 L218 0 C225 0 227 9 224 12 L211 25 L211 503 L224 517 C228 521 224 528 218 528 L99 528 C92 528 89 520 94 517 L106 503 L106 25 L94 12 Z M181 698 C178 698 174 695 174 691 C174 687 173 682 169 678 C167 675 162 673 157 673 C152 673 148 675 144 678 C141 682 140 687 139 691 C139 695 136 698 132 698 L68 698 C67 698 65 697 63 695 C62 694 61 692 61 690 C62 678 67 645 90 622 C106 605 129 596 157 596 C186 596 208 605 225 622 C247 645 252 678 252 690 C253 692 252 695 250 695 C249 697 246 698 245 698 L181 698 L181 698 Z " />
<glyph glyph-name="ibreve" unicode="&#x12d;" horiz-adv-x="353" d="M94 12 C89 8 93 0 99 0 L218 0 C225 0 227 9 224 12 L211 25 L211 503 L224 517 C228 521 224 528 218 528 L99 528 C92 528 89 520 94 517 L106 503 L106 25 L94 12 Z M181 698 C178 698 174 695 174 691 C174 687 173 682 169 678 C167 675 162 673 157 673 C152 673 148 675 144 678 C141 682 140 687 139 691 C139 695 136 698 132 698 L68 698 C67 698 65 697 63 695 C62 694 61 692 61 690 C62 678 67 645 90 622 C106 605 129 596 157 596 C186 596 208 605 225 622 C247 645 252 678 252 690 C253 692 252 695 250 695 C249 697 246 698 245 698 L181 698 L181 698 Z " />
<glyph glyph-name="Iogonek" unicode="&#x12e;" horiz-adv-x="332" d="M260 517 C265 521 260 528 256 528 L135 528 C129 528 126 520 130 517 L142 503 L142 25 L130 12 C125 8 130 0 135 0 L161 0 L161 -24 L154 -24 C138 -24 118 -26 106 -38 L103 -42 C93 -54 91 -72 91 -95 L91 -109 C91 -137 98 -156 109 -167 C123 -181 142 -186 171 -186 L211 -186 C216 -186 218 -182 218 -180 L218 -122 C218 -117 214 -115 211 -115 L200 -115 C192 -115 182 -115 174 -112 C163 -110 163 -106 163 -105 C163 -97 171 -96 176 -96 C200 -96 215 -94 222 -86 C223 -86 223 -85 224 -85 C232 -75 234 -58 234 -31 L234 0 L256 0 C261 0 264 9 260 12 L248 25 L248 503 L260 517 Z " />
<glyph glyph-name="iogonek" unicode="&#x12f;" horiz-adv-x="332" d="M260 517 C265 521 260 528 256 528 L135 528 C129 528 126 520 130 517 L142 503 L142 25 L130 12 C125 8 130 0 135 0 L161 0 L161 -24 L154 -24 C138 -24 118 -26 106 -38 L103 -42 C93 -54 91 -72 91 -95 L91 -109 C91 -137 98 -156 109 -167 C123 -181 142 -186 171 -186 L211 -186 C216 -186 218 -182 218 -180 L218 -122 C218 -117 214 -115 211 -115 L200 -115 C192 -115 182 -115 174 -112 C163 -110 163 -106 163 -105 C163 -97 171 -96 176 -96 C200 -96 215 -94 222 -86 C223 -86 223 -85 224 -85 C232 -75 234 -58 234 -31 L234 0 L256 0 C261 0 264 9 260 12 L248 25 L248 503 L260 517 Z " />
<glyph glyph-name="Idotaccent" unicode="&#x130;" horiz-adv-x="306" d="M94 12 C89 8 93 0 99 0 L218 0 C225 0 227 9 224 12 L211 25 L211 503 L224 517 C228 521 224 528 218 528 L99 528 C92 528 89 520 94 517 L106 503 L106 25 L94 12 Z M165 589 C204 589 237 621 237 660 C237 699 204 730 165 730 C127 730 95 699 95 660 C95 621 127 589 165 589 L165 589 Z " />
<glyph glyph-name="dotlessi" unicode="&#x131;" horiz-adv-x="306" d="M94 12 C89 8 93 0 99 0 L218 0 C225 0 227 9 224 12 L211 25 L211 503 L224 517 C228 521 224 528 218 528 L99 528 C92 528 89 520 94 517 L106 503 L106 25 L94 12 Z M165 589 C204 589 237 621 237 660 C237 699 204 730 165 730 C127 730 95 699 95 660 C95 621 127 589 165 589 L165 589 Z " />
<glyph glyph-name="IJ" unicode="&#x132;" horiz-adv-x="669" d="M94 12 C89 8 93 0 99 0 L218 0 C225 0 227 9 224 12 L211 25 L211 503 L224 517 C228 521 224 528 218 528 L99 528 C92 528 89 520 94 517 L106 503 L106 25 L94 12 Z M591 528 L471 528 C464 528 464 521 465 517 L478 504 L478 189 C478 161 474 139 465 123 C457 108 446 100 431 100 C398 100 380 119 369 166 L370 183 C370 187 367 192 363 192 C362 192 360 191 359 190 L265 123 C262 121 261 117 263 114 C278 81 301 51 325 29 C354 6 387 -7 420 -7 L440 -7 C478 -7 514 9 541 36 C568 64 584 99 584 138 L584 504 L596 517 C598 522 598 528 591 528 L591 528 Z " />
<glyph glyph-name="ij" unicode="&#x133;" horiz-adv-x="669" d="M94 12 C89 8 93 0 99 0 L218 0 C225 0 227 9 224 12 L211 25 L211 503 L224 517 C228 521 224 528 218 528 L99 528 C92 528 89 520 94 517 L106 503 L106 25 L94 12 Z M591 528 L471 528 C464 528 464 521 465 517 L478 504 L478 189 C478 161 474 139 465 123 C457 108 446 100 431 100 C398 100 380 119 369 166 L370 183 C370 187 367 192 363 192 C362 192 360 191 359 190 L265 123 C262 121 261 117 263 114 C278 81 301 51 325 29 C354 6 387 -7 420 -7 L440 -7 C478 -7 514 9 541 36 C568 64 584 99 584 138 L584 504 L596 517 C598 522 598 528 591 528 L591 528 Z " />
<glyph glyph-name="Jcircumflex" unicode="&#x134;" horiz-adv-x="498" d="M420 528 L300 528 C293 528 293 521 294 517 L307 504 L307 189 C307 161 303 139 294 123 C286 108 275 100 260 100 C227 100 209 119 198 166 L199 183 C199 187 196 192 192 192 C191 192 189 191 188 190 L94 123 C91 121 90 117 92 114 C107 81 130 51 154 29 C183 6 216 -7 249 -7 L269 -7 C307 -7 343 9 370 36 C397 64 413 99 413 138 L413 504 L425 517 C427 522 427 528 420 528 L420 528 Z M213 603 L275 603 C277 603 280 604 280 606 L322 655 L322 655 L351 607 C352 605 354 603 357 603 L421 603 C424 603 426 605 427 608 C428 609 427 612 427 614 L374 691 C373 693 370 695 368 695 L349 695 L304 695 L283 695 C281 695 279 694 278 692 L208 615 C205 613 205 609 206 608 C207 605 210 603 213 603 L213 603 Z " />
<glyph glyph-name="jcircumflex" unicode="&#x135;" horiz-adv-x="498" d="M420 528 L300 528 C293 528 293 521 294 517 L307 504 L307 189 C307 161 303 139 294 123 C286 108 275 100 260 100 C227 100 209 119 198 166 L199 183 C199 187 196 192 192 192 C191 192 189 191 188 190 L94 123 C91 121 90 117 92 114 C107 81 130 51 154 29 C183 6 216 -7 249 -7 L269 -7 C307 -7 343 9 370 36 C397 64 413 99 413 138 L413 504 L425 517 C427 522 427 528 420 528 L420 528 Z M213 603 L275 603 C277 603 280 604 280 606 L322 655 L322 655 L351 607 C352 605 354 603 357 603 L421 603 C424 603 426 605 427 608 C428 609 427 612 427 614 L374 691 C373 693 370 695 368 695 L349 695 L304 695 L283 695 C281 695 279 694 278 692 L208 615 C205 613 205 609 206 608 C207 605 210 603 213 603 L213 603 Z " />
<glyph glyph-name="uni0136" unicode="&#x136;" horiz-adv-x="537" d="M451 25 L322 343 L437 503 L449 517 C455 520 449 528 445 528 L316 528 C310 528 307 521 312 517 L322 504 L211 355 L211 503 L224 517 C228 521 224 528 218 528 L99 528 C92 528 89 520 94 517 L106 503 L106 25 L94 12 C89 8 93 0 99 0 L218 0 C225 0 227 9 224 12 L211 25 L211 188 L252 244 L328 24 L315 12 C312 8 314 0 320 0 L459 0 C465 0 467 9 465 12 L451 25 Z M269 -58 C230 -58 197 -89 197 -128 C197 -144 203 -158 212 -170 C220 -182 232 -191 248 -196 L223 -260 C222 -265 223 -270 230 -270 L284 -270 C287 -270 289 -268 291 -265 L336 -146 C338 -141 339 -135 339 -128 C339 -89 307 -58 269 -58 L269 -58 Z " />
<glyph glyph-name="uni0137" unicode="&#x137;" horiz-adv-x="537" d="M451 25 L322 343 L437 503 L449 517 C455 520 449 528 445 528 L316 528 C310 528 307 521 312 517 L322 504 L211 355 L211 503 L224 517 C228 521 224 528 218 528 L99 528 C92 528 89 520 94 517 L106 503 L106 25 L94 12 C89 8 93 0 99 0 L218 0 C225 0 227 9 224 12 L211 25 L211 188 L252 244 L328 24 L315 12 C312 8 314 0 320 0 L459 0 C465 0 467 9 465 12 L451 25 Z M269 -58 C230 -58 197 -89 197 -128 C197 -144 203 -158 212 -170 C220 -182 232 -191 248 -196 L223 -260 C222 -265 223 -270 230 -270 L284 -270 C287 -270 289 -268 291 -265 L336 -146 C338 -141 339 -135 339 -128 C339 -89 307 -58 269 -58 L269 -58 Z " />
<glyph glyph-name="kgreenlandic" unicode="&#x138;" horiz-adv-x="537" d="M451 25 L322 343 L437 503 L438 503 L449 517 C451 517 451 519 451 522 C451 525 448 528 445 528 L316 528 C313 528 312 526 310 524 C309 522 310 518 312 517 L322 504 L211 355 L211 503 L224 517 C226 518 226 522 225 524 C224 526 221 528 218 528 L99 528 C96 528 93 526 92 524 C91 522 91 518 94 517 L106 503 L106 25 L94 12 C91 10 91 7 92 4 C93 2 96 0 99 0 L218 0 C221 0 224 2 225 4 C226 7 226 10 224 12 L211 25 L211 188 L252 244 L328 24 L315 12 C313 10 313 7 313 4 C315 2 318 0 320 0 L459 0 C462 0 465 2 465 4 C466 7 465 10 465 12 L451 25 Z " />
<glyph glyph-name="Lacute" unicode="&#x139;" horiz-adv-x="463" d="M380 113 L367 101 L211 101 L211 503 L224 516 C227 521 225 527 218 527 L99 527 C92 527 89 520 94 516 L106 503 L106 25 L94 12 C89 8 93 0 99 0 L385 0 C389 0 391 4 391 7 L391 107 C391 114 383 116 380 113 L380 113 Z M172 684 L159 619 C159 618 159 615 161 614 C162 612 165 611 166 611 L197 611 C199 611 201 612 203 614 L247 678 C247 679 247 681 247 683 C247 686 245 689 241 689 L179 689 C175 689 173 686 172 684 L172 684 Z " />
<glyph glyph-name="lacute" unicode="&#x13a;" horiz-adv-x="463" d="M380 113 L367 101 L211 101 L211 503 L224 516 C227 521 225 527 218 527 L99 527 C92 527 89 520 94 516 L106 503 L106 25 L94 12 C89 8 93 0 99 0 L385 0 C389 0 391 4 391 7 L391 107 C391 114 383 116 380 113 L380 113 Z M172 684 L159 619 C159 618 159 615 161 614 C162 612 165 611 166 611 L197 611 C199 611 201 612 203 614 L247 678 C247 679 247 681 247 683 C247 686 245 689 241 689 L179 689 C175 689 173 686 172 684 L172 684 Z " />
<glyph glyph-name="uni013B" unicode="&#x13b;" horiz-adv-x="463" d="M380 113 L367 101 L211 101 L211 503 L224 516 C227 521 225 527 218 527 L99 527 C92 527 89 520 94 516 L106 503 L106 25 L94 12 C89 8 93 0 99 0 L385 0 C389 0 391 4 391 7 L391 107 C391 114 383 116 380 113 L380 113 Z M236 -56 C197 -56 164 -87 164 -126 C164 -142 170 -156 179 -168 C187 -180 199 -189 215 -194 L190 -258 C189 -263 190 -268 197 -268 L251 -268 C254 -268 256 -266 258 -263 L303 -144 C305 -139 306 -133 306 -126 C306 -87 274 -56 236 -56 L236 -56 Z " />
<glyph glyph-name="uni013C" unicode="&#x13c;" horiz-adv-x="463" d="M380 113 L367 101 L211 101 L211 503 L224 516 C227 521 225 527 218 527 L99 527 C92 527 89 520 94 516 L106 503 L106 25 L94 12 C89 8 93 0 99 0 L385 0 C389 0 391 4 391 7 L391 107 C391 114 383 116 380 113 L380 113 Z M236 -56 C197 -56 164 -87 164 -126 C164 -142 170 -156 179 -168 C187 -180 199 -189 215 -194 L190 -258 C189 -263 190 -268 197 -268 L251 -268 C254 -268 256 -266 258 -263 L303 -144 C305 -139 306 -133 306 -126 C306 -87 274 -56 236 -56 L236 -56 Z " />
<glyph glyph-name="Lcaron" unicode="&#x13d;" horiz-adv-x="463" d="M380 113 L367 101 L211 101 L211 503 L224 516 C227 521 225 527 218 527 L99 527 C92 527 89 520 94 516 L106 503 L106 25 L94 12 C89 8 93 0 99 0 L385 0 C389 0 391 4 391 7 L391 107 C391 114 383 116 380 113 L380 113 Z M307 691 L243 691 C241 691 239 689 237 687 L202 639 L167 687 C166 689 164 691 161 691 L98 691 C96 691 93 689 92 686 C91 683 91 681 93 679 L155 602 C157 600 158 599 160 599 L245 599 C248 599 250 600 251 602 L312 679 C313 680 313 681 313 682 C313 687 311 691 307 691 L307 691 Z " />
<glyph glyph-name="lcaron" unicode="&#x13e;" horiz-adv-x="463" d="M380 113 L367 101 L211 101 L211 503 L224 516 C227 521 225 527 218 527 L99 527 C92 527 89 520 94 516 L106 503 L106 25 L94 12 C89 8 93 0 99 0 L385 0 C389 0 391 4 391 7 L391 107 C391 114 383 116 380 113 L380 113 Z M307 691 L243 691 C241 691 239 689 237 687 L202 639 L167 687 C166 689 164 691 161 691 L98 691 C96 691 93 689 92 686 C91 683 91 681 93 679 L155 602 C157 600 158 599 160 599 L245 599 C248 599 250 600 251 602 L312 679 C313 680 313 681 313 682 C313 687 311 691 307 691 L307 691 Z " />
<glyph glyph-name="Ldot" unicode="&#x13f;" horiz-adv-x="495" d="M380 113 L367 101 L211 101 L211 503 L224 516 C227 521 225 527 218 527 L99 527 C92 527 89 520 94 516 L106 503 L106 25 L94 12 C89 8 93 0 99 0 L385 0 C389 0 391 4 391 7 L391 107 C391 114 383 116 380 113 L380 113 Z M353 255 C392 255 425 287 425 326 C425 365 392 396 353 396 C315 396 283 365 283 326 C283 287 315 255 353 255 L353 255 Z " />
<glyph glyph-name="ldot" unicode="&#x140;" horiz-adv-x="495" d="M380 113 L367 101 L211 101 L211 503 L224 516 C227 521 225 527 218 527 L99 527 C92 527 89 520 94 516 L106 503 L106 25 L94 12 C89 8 93 0 99 0 L385 0 C389 0 391 4 391 7 L391 107 C391 114 383 116 380 113 L380 113 Z M353 255 C392 255 425 287 425 326 C425 365 392 396 353 396 C315 396 283 365 283 326 C283 287 315 255 353 255 L353 255 Z " />
<glyph glyph-name="Lslash" unicode="&#x141;" horiz-adv-x="560" d="M479 113 L465 101 L311 101 L311 288 L421 452 C421 457 419 460 415 460 L324 460 C321 460 318 457 316 455 L311 446 L311 503 L322 517 C328 521 323 528 317 528 L198 528 C192 527 188 521 192 517 L204 503 L204 289 L93 123 C89 119 93 113 97 113 L188 113 C191 113 194 115 196 118 L204 131 L204 25 L192 12 C188 8 192 0 198 0 L484 0 C487 0 491 4 491 8 L491 108 C491 115 482 118 479 113 L479 113 Z " />
<glyph glyph-name="lslash" unicode="&#x142;" horiz-adv-x="560" d="M479 113 L465 101 L311 101 L311 288 L421 452 C421 457 419 460 415 460 L324 460 C321 460 318 457 316 455 L311 446 L311 503 L322 517 C328 521 323 528 317 528 L198 528 C192 527 188 521 192 517 L204 503 L204 289 L93 123 C91 121 91 118 92 116 C93 114 95 113 97 113 L188 113 C191 113 194 115 196 118 L204 131 L204 25 L192 12 C188 8 192 0 198 0 L484 0 C487 0 491 4 491 8 L491 108 C491 115 482 118 479 113 L479 113 Z " />
<glyph glyph-name="Nacute" unicode="&#x143;" horiz-adv-x="517" d="M106 25 L94 12 C89 8 93 0 99 0 L218 0 C225 0 227 9 224 12 L211 25 L211 267 L321 21 L313 12 C309 8 312 0 318 0 L438 0 C445 0 448 9 443 12 L431 25 L431 503 L443 517 C448 521 444 528 438 528 L318 528 C312 528 309 521 313 517 L325 503 L325 266 L213 524 C211 526 209 528 206 528 L99 528 C92 528 89 520 94 517 L106 503 L106 25 Z M256 684 L243 619 C243 618 243 615 245 614 C246 612 249 611 250 611 L281 611 C283 611 285 612 287 614 L331 678 C331 679 331 681 331 683 C331 686 329 689 325 689 L263 689 C259 689 257 686 256 684 L256 684 Z " />
<glyph glyph-name="nacute" unicode="&#x144;" horiz-adv-x="517" d="M106 25 L94 12 C89 8 93 0 99 0 L218 0 C225 0 227 9 224 12 L211 25 L211 267 L321 21 L313 12 C309 8 312 0 318 0 L438 0 C445 0 448 9 443 12 L431 25 L431 503 L443 517 C448 521 444 528 438 528 L318 528 C312 528 309 521 313 517 L325 503 L325 266 L213 524 C211 526 209 528 206 528 L99 528 C92 528 89 520 94 517 L106 503 L106 25 Z M256 684 L243 619 C243 618 243 615 245 614 C246 612 249 611 250 611 L281 611 C283 611 285 612 287 614 L331 678 C331 679 331 681 331 683 C331 686 329 689 325 689 L263 689 C259 689 257 686 256 684 L256 684 Z " />
<glyph glyph-name="uni0145" unicode="&#x145;" horiz-adv-x="517" d="M106 25 L94 12 C89 8 93 0 99 0 L218 0 C225 0 227 9 224 12 L211 25 L211 267 L321 21 L313 12 C309 8 312 0 318 0 L438 0 C445 0 448 9 443 12 L431 25 L431 503 L443 517 C448 521 444 528 438 528 L318 528 C312 528 309 521 313 517 L325 503 L325 266 L213 524 C211 526 209 528 206 528 L99 528 C92 528 89 520 94 517 L106 503 L106 25 Z M276 -58 C237 -58 204 -89 204 -128 C204 -144 210 -158 219 -170 C227 -182 239 -191 255 -196 L230 -260 C229 -265 230 -270 237 -270 L291 -270 C294 -270 296 -268 298 -265 L343 -146 C345 -141 346 -135 346 -128 C346 -89 314 -58 276 -58 L276 -58 Z " />
<glyph glyph-name="uni0146" unicode="&#x146;" horiz-adv-x="517" d="M106 25 L94 12 C89 8 93 0 99 0 L218 0 C225 0 227 9 224 12 L211 25 L211 267 L321 21 L313 12 C309 8 312 0 318 0 L438 0 C445 0 448 9 443 12 L431 25 L431 503 L443 517 C448 521 444 528 438 528 L318 528 C312 528 309 521 313 517 L325 503 L325 266 L213 524 C211 526 209 528 206 528 L99 528 C92 528 89 520 94 517 L106 503 L106 25 Z M276 -58 C237 -58 204 -89 204 -128 C204 -144 210 -158 219 -170 C227 -182 239 -191 255 -196 L230 -260 C229 -265 230 -270 237 -270 L291 -270 C294 -270 296 -268 298 -265 L343 -146 C345 -141 346 -135 346 -128 C346 -89 314 -58 276 -58 L276 -58 Z " />
<glyph glyph-name="Ncaron" unicode="&#x147;" horiz-adv-x="517" d="M106 25 L94 12 C89 8 93 0 99 0 L218 0 C225 0 227 9 224 12 L211 25 L211 267 L321 21 L313 12 C309 8 312 0 318 0 L438 0 C445 0 448 9 443 12 L431 25 L431 503 L443 517 C448 521 444 528 438 528 L318 528 C312 528 309 521 313 517 L325 503 L325 266 L213 524 C211 526 209 528 206 528 L99 528 C92 528 89 520 94 517 L106 503 L106 25 Z M371 695 L307 695 C305 695 303 693 301 691 L266 643 L231 691 C230 693 228 695 225 695 L162 695 C160 695 157 693 156 690 C155 687 155 685 157 683 L219 606 C221 604 222 603 224 603 L309 603 C312 603 314 604 315 606 L376 683 C377 684 377 685 377 686 C377 691 375 695 371 695 L371 695 Z " />
<glyph glyph-name="ncaron" unicode="&#x148;" horiz-adv-x="517" d="M106 25 L94 12 C89 8 93 0 99 0 L218 0 C225 0 227 9 224 12 L211 25 L211 267 L321 21 L313 12 C309 8 312 0 318 0 L438 0 C445 0 448 9 443 12 L431 25 L431 503 L443 517 C448 521 444 528 438 528 L318 528 C312 528 309 521 313 517 L325 503 L325 266 L213 524 C211 526 209 528 206 528 L99 528 C92 528 89 520 94 517 L106 503 L106 25 Z M371 695 L307 695 C305 695 303 693 301 691 L266 643 L231 691 C230 693 228 695 225 695 L162 695 C160 695 157 693 156 690 C155 687 155 685 157 683 L219 606 C221 604 222 603 224 603 L309 603 C312 603 314 604 315 606 L376 683 C377 684 377 685 377 686 C377 691 375 695 371 695 L371 695 Z " />
<glyph glyph-name="napostrophe" unicode="&#x149;" horiz-adv-x="546" d="M106 25 L94 12 C89 8 93 0 99 0 L218 0 C225 0 227 9 224 12 L211 25 L211 267 L321 21 L313 12 C309 8 312 0 318 0 L438 0 C445 0 448 9 443 12 L431 25 L431 503 L443 517 C448 521 444 528 438 528 L318 528 C312 528 309 521 313 517 L325 503 L325 266 L213 524 C211 526 209 528 206 528 L99 528 C92 528 89 520 94 517 L106 503 L106 25 Z M116 659 L69 659 C64 659 61 654 61 651 L71 581 C72 576 74 574 78 574 L107 574 C111 574 112 576 113 581 L123 651 C123 656 119 659 116 659 L116 659 Z " />
<glyph glyph-name="Eng" unicode="&#x14a;" horiz-adv-x="516" d="M439 528 L318 528 C312 528 310 520 313 517 L326 503 L326 266 L213 524 C211 526 209 528 206 528 L99 528 C92 528 89 520 94 517 L106 503 L106 25 L94 12 C89 8 93 0 99 0 L218 0 C226 0 228 8 224 12 L212 25 L212 267 L325 12 L325 6 C325 -22 321 -45 313 -60 C304 -75 294 -83 277 -83 C263 -83 246 -80 233 -59 L235 -44 C235 -37 228 -34 223 -37 L137 -99 C133 -103 133 -107 135 -109 C142 -119 161 -143 176 -156 C204 -179 235 -190 267 -190 L287 -190 C325 -190 362 -175 389 -147 C416 -120 431 -84 431 -46 L431 503 L443 517 C448 520 444 528 439 528 L439 528 Z " />
<glyph glyph-name="eng" unicode="&#x14b;" horiz-adv-x="516" d="M439 528 L318 528 C312 528 310 520 313 517 L326 503 L326 266 L213 524 C211 526 209 528 206 528 L99 528 C92 528 89 520 94 517 L106 503 L106 25 L94 12 C89 8 93 0 99 0 L218 0 C226 0 228 8 224 12 L212 25 L212 267 L325 12 L325 6 C325 -22 321 -45 313 -60 C304 -75 294 -83 277 -83 C263 -83 246 -80 233 -59 L235 -44 C235 -37 228 -34 223 -37 L137 -99 C133 -103 133 -107 135 -109 C142 -119 161 -143 176 -156 C204 -179 235 -190 267 -190 L287 -190 C325 -190 362 -175 389 -147 C416 -120 431 -84 431 -46 L431 503 L443 517 C448 520 444 528 439 528 L439 528 Z " />
<glyph glyph-name="Omacron" unicode="&#x14c;" horiz-adv-x="527" d="M275 -8 C344 -8 391 8 422 40 C446 66 457 104 457 159 L457 370 C457 423 446 461 422 487 C392 520 344 535 275 535 C205 535 158 520 127 488 C104 461 91 423 91 370 L91 159 C91 104 104 66 127 40 C157 8 204 -8 275 -8 L275 -8 Z M351 343 L351 185 C351 159 346 138 336 123 C324 107 305 100 279 100 L269 100 C236 100 198 115 198 185 L198 343 C198 370 202 390 213 406 C225 421 243 428 269 428 L279 428 C313 428 351 414 351 343 L351 343 Z M173 676 L173 622 C173 618 177 615 181 615 L373 615 C376 615 379 618 379 622 L379 676 C379 680 376 683 373 683 L181 683 C177 683 173 680 173 676 L173 676 Z " />
<glyph glyph-name="omacron" unicode="&#x14d;" horiz-adv-x="527" d="M275 -8 C344 -8 391 8 422 40 C446 66 457 104 457 159 L457 370 C457 423 446 461 422 487 C392 520 344 535 275 535 C205 535 158 520 127 488 C104 461 91 423 91 370 L91 159 C91 104 104 66 127 40 C157 8 204 -8 275 -8 L275 -8 Z M351 343 L351 185 C351 159 346 138 336 123 C324 107 305 100 279 100 L269 100 C236 100 198 115 198 185 L198 343 C198 370 202 390 213 406 C225 421 243 428 269 428 L279 428 C313 428 351 414 351 343 L351 343 Z M173 676 L173 622 C173 618 177 615 181 615 L373 615 C376 615 379 618 379 622 L379 676 C379 680 376 683 373 683 L181 683 C177 683 173 680 173 676 L173 676 Z " />
<glyph glyph-name="Obreve" unicode="&#x14e;" horiz-adv-x="527" d="M275 -8 C344 -8 391 8 422 40 C446 66 457 104 457 159 L457 370 C457 423 446 461 422 487 C392 520 344 535 275 535 C205 535 158 520 127 488 C104 461 91 423 91 370 L91 159 C91 104 104 66 127 40 C157 8 204 -8 275 -8 L275 -8 Z M351 343 L351 185 C351 159 346 138 336 123 C324 107 305 100 279 100 L269 100 C236 100 198 115 198 185 L198 343 C198 370 202 390 213 406 C225 421 243 428 269 428 L279 428 C313 428 351 414 351 343 L351 343 Z M303 698 C300 698 296 695 296 691 C296 687 295 682 291 678 C289 675 284 673 279 673 C274 673 270 675 266 678 C263 682 262 687 261 691 C261 695 258 698 254 698 L190 698 C189 698 187 697 185 695 C184 694 183 692 183 690 C184 678 189 645 212 622 C228 605 251 596 279 596 C308 596 330 605 347 622 C369 645 374 678 374 690 C375 692 374 695 372 695 C371 697 368 698 367 698 L303 698 L303 698 Z " />
<glyph glyph-name="obreve" unicode="&#x14f;" horiz-adv-x="527" d="M275 -8 C344 -8 391 8 422 40 C446 66 457 104 457 159 L457 370 C457 423 446 461 422 487 C392 520 344 535 275 535 C205 535 158 520 127 488 C104 461 91 423 91 370 L91 159 C91 104 104 66 127 40 C157 8 204 -8 275 -8 L275 -8 Z M351 343 L351 185 C351 159 346 138 336 123 C324 107 305 100 279 100 L269 100 C236 100 198 115 198 185 L198 343 C198 370 202 390 213 406 C225 421 243 428 269 428 L279 428 C313 428 351 414 351 343 L351 343 Z M303 698 C300 698 296 695 296 691 C296 687 295 682 291 678 C289 675 284 673 279 673 C274 673 270 675 266 678 C263 682 262 687 261 691 C261 695 258 698 254 698 L190 698 C189 698 187 697 185 695 C184 694 183 692 183 690 C184 678 189 645 212 622 C228 605 251 596 279 596 C308 596 330 605 347 622 C369 645 374 678 374 690 C375 692 374 695 372 695 C371 697 368 698 367 698 L303 698 L303 698 Z " />
<glyph glyph-name="Ohungarumlaut" unicode="&#x150;" horiz-adv-x="527" d="M275 -8 C344 -8 391 8 422 40 C446 66 457 104 457 159 L457 370 C457 423 446 461 422 487 C392 520 344 535 275 535 C205 535 158 520 127 488 C104 461 91 423 91 370 L91 159 C91 104 104 66 127 40 C157 8 204 -8 275 -8 L275 -8 Z M351 343 L351 185 C351 159 346 138 336 123 C324 107 305 100 279 100 L269 100 C236 100 198 115 198 185 L198 343 C198 370 202 390 213 406 C225 421 243 428 269 428 L279 428 C313 428 351 414 351 343 L351 343 Z M227 609 L254 609 C258 609 260 609 261 612 L289 683 C289 684 289 685 289 686 C289 689 286 693 283 693 L283 693 L235 693 C232 693 229 690 229 686 L219 616 C219 614 220 612 221 610 C223 609 225 609 227 609 L227 609 Z M349 693 L303 693 C299 693 295 690 295 686 L286 616 C286 614 287 612 288 610 C289 609 291 609 293 609 L321 609 C324 609 327 609 328 612 L355 683 C356 684 356 685 356 686 C356 689 353 693 349 693 L349 693 L349 693 Z " />
<glyph glyph-name="ohungarumlaut" unicode="&#x151;" horiz-adv-x="527" d="M275 -8 C344 -8 391 8 422 40 C446 66 457 104 457 159 L457 370 C457 423 446 461 422 487 C392 520 344 535 275 535 C205 535 158 520 127 488 C104 461 91 423 91 370 L91 159 C91 104 104 66 127 40 C157 8 204 -8 275 -8 L275 -8 Z M351 343 L351 185 C351 159 346 138 336 123 C324 107 305 100 279 100 L269 100 C236 100 198 115 198 185 L198 343 C198 370 202 390 213 406 C225 421 243 428 269 428 L279 428 C313 428 351 414 351 343 L351 343 Z M227 609 L254 609 C258 609 260 609 261 612 L289 683 C289 684 289 685 289 686 C289 689 286 693 283 693 L283 693 L235 693 C232 693 229 690 229 686 L219 616 C219 614 220 612 221 610 C223 609 225 609 227 609 L227 609 Z M349 693 L303 693 C299 693 295 690 295 686 L286 616 C286 614 287 612 288 610 C289 609 291 609 293 609 L321 609 C324 609 327 609 328 612 L355 683 C356 684 356 685 356 686 C356 689 353 693 349 693 L349 693 L349 693 Z " />
<glyph glyph-name="OE" unicode="&#x152;" horiz-adv-x="707" d="M250 0 L630 0 C635 0 636 4 636 7 L636 106 C636 115 629 116 625 112 L613 100 L457 100 L457 218 L574 218 L586 207 C591 202 598 207 598 212 L598 327 C598 333 590 335 586 332 L574 319 L457 319 L457 428 L613 428 L625 416 C630 411 636 415 636 422 L636 522 C636 525 634 528 630 528 L250 528 C196 528 155 513 128 483 C104 457 91 418 91 370 L91 158 C91 107 105 68 132 41 C160 13 199 0 250 0 L250 0 Z M351 100 L278 100 C253 100 233 107 218 122 C218 122 218 122 218 123 C204 136 197 157 197 182 L197 346 C197 375 203 395 217 408 C230 422 251 428 278 428 L351 428 L351 100 Z " />
<glyph glyph-name="oe" unicode="&#x153;" horiz-adv-x="707" d="M250 0 L630 0 C635 0 636 4 636 7 L636 106 C636 115 629 116 625 112 L613 100 L457 100 L457 218 L574 218 L586 207 C591 202 598 207 598 212 L598 327 C598 333 590 335 586 332 L574 319 L457 319 L457 428 L613 428 L625 416 C630 411 636 415 636 422 L636 522 C636 525 634 528 630 528 L250 528 C196 528 155 513 128 483 C104 457 91 418 91 370 L91 158 C91 107 105 68 132 41 C160 13 199 0 250 0 L250 0 Z M351 100 L278 100 C253 100 233 107 218 122 C218 122 218 122 218 123 C204 136 197 157 197 182 L197 346 C197 375 203 395 217 408 C230 422 251 428 278 428 L351 428 L351 100 Z " />
<glyph glyph-name="Racute" unicode="&#x154;" horiz-adv-x="495" d="M106 503 L106 25 L94 12 C89 8 93 0 99 0 L218 0 C225 0 231 5 224 12 L211 25 L211 140 L242 140 L295 24 L285 11 C279 6 285 -1 290 -1 L416 -1 C423 -1 427 8 422 11 L408 25 L347 158 C369 168 385 186 396 209 C406 229 411 255 411 283 L411 384 C411 427 401 462 380 485 C356 514 318 528 268 528 L99 528 C92 528 89 520 94 517 L106 503 Z M211 239 L211 428 L224 428 C257 428 276 424 288 414 C301 405 306 388 306 360 L306 308 C306 281 301 265 288 255 C275 244 256 239 224 239 L211 239 Z M228 684 L215 619 C215 618 215 615 217 614 C218 612 221 611 222 611 L253 611 C255 611 257 612 259 614 L303 678 C303 679 303 681 303 683 C303 686 301 689 297 689 L235 689 C231 689 229 686 228 684 L228 684 Z " />
<glyph glyph-name="racute" unicode="&#x155;" horiz-adv-x="495" d="M106 503 L106 25 L94 12 C89 8 93 0 99 0 L218 0 C225 0 231 5 224 12 L211 25 L211 140 L242 140 L295 24 L285 11 C279 6 285 -1 290 -1 L416 -1 C423 -1 427 8 422 11 L408 25 L347 158 C369 168 385 186 396 209 C406 229 411 255 411 283 L411 384 C411 427 401 462 380 485 C356 514 318 528 268 528 L99 528 C92 528 89 520 94 517 L106 503 Z M211 239 L211 428 L224 428 C257 428 276 424 288 414 C301 405 306 388 306 360 L306 308 C306 281 301 265 288 255 C275 244 256 239 224 239 L211 239 Z M228 684 L215 619 C215 618 215 615 217 614 C218 612 221 611 222 611 L253 611 C255 611 257 612 259 614 L303 678 C303 679 303 681 303 683 C303 686 301 689 297 689 L235 689 C231 689 229 686 228 684 L228 684 Z " />
<glyph glyph-name="uni0156" unicode="&#x156;" horiz-adv-x="495" d="M106 503 L106 25 L94 12 C89 8 93 0 99 0 L218 0 C225 0 231 5 224 12 L211 25 L211 140 L242 140 L295 24 L285 11 C279 6 285 -1 290 -1 L416 -1 C423 -1 427 8 422 11 L408 25 L347 158 C369 168 385 186 396 209 C406 229 411 255 411 283 L411 384 C411 427 401 462 380 485 C356 514 318 528 268 528 L99 528 C92 528 89 520 94 517 L106 503 Z M211 239 L211 428 L224 428 C257 428 276 424 288 414 C301 405 306 388 306 360 L306 308 C306 281 301 265 288 255 C275 244 256 239 224 239 L211 239 Z M262 -56 C223 -56 190 -87 190 -126 C190 -142 196 -156 205 -168 C213 -180 225 -189 241 -194 L216 -258 C215 -263 216 -268 223 -268 L277 -268 C280 -268 282 -266 284 -263 L329 -144 C331 -139 332 -133 332 -126 C332 -87 300 -56 262 -56 L262 -56 Z " />
<glyph glyph-name="uni0157" unicode="&#x157;" horiz-adv-x="495" d="M106 503 L106 25 L94 12 C89 8 93 0 99 0 L218 0 C225 0 231 5 224 12 L211 25 L211 140 L242 140 L295 24 L285 11 C279 6 285 -1 290 -1 L416 -1 C423 -1 427 8 422 11 L408 25 L347 158 C369 168 385 186 396 209 C406 229 411 255 411 283 L411 384 C411 427 401 462 380 485 C356 514 318 528 268 528 L99 528 C92 528 89 520 94 517 L106 503 Z M211 239 L211 428 L224 428 C257 428 276 424 288 414 C301 405 306 388 306 360 L306 308 C306 281 301 265 288 255 C275 244 256 239 224 239 L211 239 Z M262 -56 C223 -56 190 -87 190 -126 C190 -142 196 -156 205 -168 C213 -180 225 -189 241 -194 L216 -258 C215 -263 216 -268 223 -268 L277 -268 C280 -268 282 -266 284 -263 L329 -144 C331 -139 332 -133 332 -126 C332 -87 300 -56 262 -56 L262 -56 Z " />
<glyph glyph-name="Rcaron" unicode="&#x158;" horiz-adv-x="495" d="M106 503 L106 25 L94 12 C89 8 93 0 99 0 L218 0 C225 0 231 5 224 12 L211 25 L211 140 L242 140 L295 24 L285 11 C279 6 285 -1 290 -1 L416 -1 C423 -1 427 8 422 11 L408 25 L347 158 C369 168 385 186 396 209 C406 229 411 255 411 283 L411 384 C411 427 401 462 380 485 C356 514 318 528 268 528 L99 528 C92 528 89 520 94 517 L106 503 Z M211 239 L211 428 L224 428 C257 428 276 424 288 414 C301 405 306 388 306 360 L306 308 C306 281 301 265 288 255 C275 244 256 239 224 239 L211 239 Z M349 695 L285 695 C283 695 281 693 279 691 L244 643 L209 691 C208 693 206 695 203 695 L140 695 C138 695 135 693 134 690 C133 687 133 685 135 683 L197 606 C199 604 200 603 202 603 L287 603 C290 603 292 604 293 606 L354 683 C355 684 355 685 355 686 C355 691 353 695 349 695 L349 695 Z " />
<glyph glyph-name="rcaron" unicode="&#x159;" horiz-adv-x="495" d="M106 503 L106 25 L94 12 C89 8 93 0 99 0 L218 0 C225 0 231 5 224 12 L211 25 L211 140 L242 140 L295 24 L285 11 C279 6 285 -1 290 -1 L416 -1 C423 -1 427 8 422 11 L408 25 L347 158 C369 168 385 186 396 209 C406 229 411 255 411 283 L411 384 C411 427 401 462 380 485 C356 514 318 528 268 528 L99 528 C92 528 89 520 94 517 L106 503 Z M211 239 L211 428 L224 428 C257 428 276 424 288 414 C301 405 306 388 306 360 L306 308 C306 281 301 265 288 255 C275 244 256 239 224 239 L211 239 Z M349 695 L285 695 C283 695 281 693 279 691 L244 643 L209 691 C208 693 206 695 203 695 L140 695 C138 695 135 693 134 690 C133 687 133 685 135 683 L197 606 C199 604 200 603 202 603 L287 603 C290 603 292 604 293 606 L354 683 C355 684 355 685 355 686 C355 691 353 695 349 695 L349 695 Z " />
<glyph glyph-name="Sacute" unicode="&#x15a;" horiz-adv-x="531" d="M143 281 C168 260 201 242 245 225 C281 210 304 199 320 185 C334 173 341 161 339 146 C337 130 331 118 320 109 C310 103 295 99 277 99 C263 99 248 104 234 113 C218 122 208 134 200 149 L203 171 C203 180 197 180 192 178 L102 107 C99 105 98 103 99 100 C102 91 110 69 132 47 C147 30 166 19 188 9 C215 -3 246 -8 282 -8 C349 -8 398 14 429 58 C456 96 460 141 461 163 C462 195 453 220 433 244 C409 274 370 299 313 324 C269 343 240 355 225 366 C210 376 208 385 209 397 C210 406 218 413 227 420 C239 426 254 430 269 430 C274 430 277 429 283 428 C323 422 342 392 346 387 L343 369 C340 363 349 357 353 362 L440 419 C444 421 445 425 443 427 C439 436 432 448 424 462 C414 476 405 487 393 498 C364 522 328 534 281 534 C226 534 180 521 146 495 C111 468 92 431 91 388 C90 347 107 312 143 281 L143 281 Z M258 684 L245 619 C245 618 245 615 247 614 C248 612 251 611 252 611 L283 611 C285 611 287 612 289 614 L333 678 C333 679 333 681 333 683 C333 686 331 689 327 689 L265 689 C261 689 259 686 258 684 L258 684 Z " />
<glyph glyph-name="sacute" unicode="&#x15b;" horiz-adv-x="531" d="M143 281 C168 260 201 242 245 225 C281 210 304 199 320 185 C334 173 341 161 339 146 C337 130 331 118 320 109 C310 103 295 99 277 99 C263 99 248 104 234 113 C218 122 208 134 200 149 L203 171 C203 180 197 180 192 178 L102 107 C99 105 98 103 99 100 C102 91 110 69 132 47 C147 30 166 19 188 9 C215 -3 246 -8 282 -8 C349 -8 398 14 429 58 C456 96 460 141 461 163 C462 195 453 220 433 244 C409 274 370 299 313 324 C269 343 240 355 225 366 C210 376 208 385 209 397 C210 406 218 413 227 420 C239 426 254 430 269 430 C274 430 277 429 283 428 C323 422 342 392 346 387 L343 369 C340 363 349 357 353 362 L440 419 C444 421 445 425 443 427 C439 436 432 448 424 462 C414 476 405 487 393 498 C364 522 328 534 281 534 C226 534 180 521 146 495 C111 468 92 431 91 388 C90 347 107 312 143 281 L143 281 Z M258 684 L245 619 C245 618 245 615 247 614 C248 612 251 611 252 611 L283 611 C285 611 287 612 289 614 L333 678 C333 679 333 681 333 683 C333 686 331 689 327 689 L265 689 C261 689 259 686 258 684 L258 684 Z " />
<glyph glyph-name="Scircumflex" unicode="&#x15c;" horiz-adv-x="531" d="M143 281 C168 260 201 242 245 225 C281 210 304 199 320 185 C334 173 341 161 339 146 C337 130 331 118 320 109 C310 103 295 99 277 99 C263 99 248 104 234 113 C218 122 208 134 200 149 L203 171 C203 180 197 180 192 178 L102 107 C99 105 98 103 99 100 C102 91 110 69 132 47 C147 30 166 19 188 9 C215 -3 246 -8 282 -8 C349 -8 398 14 429 58 C456 96 460 141 461 163 C462 195 453 220 433 244 C409 274 370 299 313 324 C269 343 240 355 225 366 C210 376 208 385 209 397 C210 406 218 413 227 420 C239 426 254 430 269 430 C274 430 277 429 283 428 C323 422 342 392 346 387 L343 369 C340 363 349 357 353 362 L440 419 C444 421 445 425 443 427 C439 436 432 448 424 462 C414 476 405 487 393 498 C364 522 328 534 281 534 C226 534 180 521 146 495 C111 468 92 431 91 388 C90 347 107 312 143 281 L143 281 Z M172 603 L234 603 C236 603 239 604 239 606 L281 655 L281 655 L310 607 C311 605 313 603 316 603 L380 603 C383 603 385 605 386 608 C387 609 386 612 386 614 L333 691 C332 693 329 695 327 695 L308 695 L263 695 L242 695 C240 695 238 694 237 692 L167 615 C164 613 164 609 165 608 C166 605 169 603 172 603 L172 603 Z " />
<glyph glyph-name="scircumflex" unicode="&#x15d;" horiz-adv-x="531" d="M143 281 C168 260 201 242 245 225 C281 210 304 199 320 185 C334 173 341 161 339 146 C337 130 331 118 320 109 C310 103 295 99 277 99 C263 99 248 104 234 113 C218 122 208 134 200 149 L203 171 C203 180 197 180 192 178 L102 107 C99 105 98 103 99 100 C102 91 110 69 132 47 C147 30 166 19 188 9 C215 -3 246 -8 282 -8 C349 -8 398 14 429 58 C456 96 460 141 461 163 C462 195 453 220 433 244 C409 274 370 299 313 324 C269 343 240 355 225 366 C210 376 208 385 209 397 C210 406 218 413 227 420 C239 426 254 430 269 430 C274 430 277 429 283 428 C323 422 342 392 346 387 L343 369 C340 363 349 357 353 362 L440 419 C444 421 445 425 443 427 C439 436 432 448 424 462 C414 476 405 487 393 498 C364 522 328 534 281 534 C226 534 180 521 146 495 C111 468 92 431 91 388 C90 347 107 312 143 281 L143 281 Z M172 603 L234 603 C236 603 239 604 239 606 L281 655 L281 655 L310 607 C311 605 313 603 316 603 L380 603 C383 603 385 605 386 608 C387 609 386 612 386 614 L333 691 C332 693 329 695 327 695 L308 695 L263 695 L242 695 C240 695 238 694 237 692 L167 615 C164 613 164 609 165 608 C166 605 169 603 172 603 L172 603 Z " />
<glyph glyph-name="Scedilla" unicode="&#x15e;" horiz-adv-x="532" d="M433 257 L423 269 C398 294 363 315 313 336 C269 355 240 368 225 378 L218 385 C209 392 209 399 209 409 C210 417 218 426 227 431 C239 439 254 442 269 442 C274 442 277 442 283 441 C306 437 322 425 332 414 C340 408 345 401 346 398 L343 380 C341 375 350 370 353 373 L440 431 C444 432 445 437 443 440 C439 448 432 462 424 474 C417 484 409 494 402 502 L393 509 C364 534 328 547 281 547 C226 547 180 534 146 507 C111 482 92 444 91 400 C90 364 104 332 132 304 C136 300 140 296 143 294 C168 273 201 254 245 237 C281 223 304 210 320 198 L326 192 C336 182 340 171 339 158 C337 142 331 130 320 123 C310 115 295 111 277 111 C263 111 248 116 234 124 C227 129 221 133 217 139 C209 145 204 153 200 161 L203 183 C203 192 197 192 192 191 L102 120 C99 118 98 115 99 112 C102 104 110 82 132 60 L134 57 C149 42 167 29 188 21 C206 13 226 9 247 6 L247 -21 C247 -48 249 -64 256 -73 C257 -73 257 -74 258 -74 C266 -83 279 -85 301 -85 C308 -82 317 -86 317 -93 C317 -95 317 -99 307 -101 C298 -103 288 -103 280 -103 L269 -103 C265 -103 262 -107 262 -110 L262 -167 C262 -172 267 -176 269 -176 L310 -176 C338 -176 358 -169 371 -157 C383 -143 389 -125 389 -99 L389 -84 C389 -61 388 -43 378 -30 C377 -29 376 -28 374 -27 C363 -13 343 -12 327 -12 L319 -12 L319 7 C368 13 405 35 429 70 C456 107 460 153 461 176 C462 207 453 234 433 257 L433 257 Z " />
<glyph glyph-name="scedilla" unicode="&#x15f;" horiz-adv-x="532" d="M433 257 L423 269 C398 294 363 315 313 336 C269 355 240 368 225 378 L218 385 C209 392 209 399 209 409 C210 417 218 426 227 431 C239 439 254 442 269 442 C274 442 277 442 283 441 C306 437 322 425 332 414 C340 408 345 401 346 398 L343 380 C341 375 350 370 353 373 L440 431 C444 432 445 437 443 440 C439 448 432 462 424 474 C417 484 409 494 402 502 L393 509 C364 534 328 547 281 547 C226 547 180 534 146 507 C111 482 92 444 91 400 C90 364 104 332 132 304 C136 300 140 296 143 294 C168 273 201 254 245 237 C281 223 304 210 320 198 L326 192 C336 182 340 171 339 158 C337 142 331 130 320 123 C310 115 295 111 277 111 C263 111 248 116 234 124 C227 129 221 133 217 139 C209 145 204 153 200 161 L203 183 C203 192 197 192 192 191 L102 120 C99 118 98 115 99 112 C102 104 110 82 132 60 L134 57 C149 42 167 29 188 21 C206 13 226 9 247 6 L247 -21 C247 -48 249 -64 256 -73 C257 -73 257 -74 258 -74 C266 -83 279 -85 301 -85 C308 -82 317 -86 317 -93 C317 -95 317 -99 307 -101 C298 -103 288 -103 280 -103 L269 -103 C265 -103 262 -107 262 -110 L262 -167 C262 -172 267 -176 269 -176 L310 -176 C338 -176 358 -169 371 -157 C383 -143 389 -125 389 -99 L389 -84 C389 -61 388 -43 378 -30 C377 -29 376 -28 374 -27 C363 -13 343 -12 327 -12 L319 -12 L319 7 C368 13 405 35 429 70 C456 107 460 153 461 176 C462 207 453 234 433 257 L433 257 Z " />
<glyph glyph-name="Scaron" unicode="&#x160;" horiz-adv-x="531" d="M143 281 C168 260 201 242 245 225 C281 210 304 199 320 185 C334 173 341 161 339 146 C337 130 331 118 320 109 C310 103 295 99 277 99 C263 99 248 104 234 113 C218 122 208 134 200 149 L203 171 C203 180 197 180 192 178 L102 107 C99 105 98 103 99 100 C102 91 110 69 132 47 C147 30 166 19 188 9 C215 -3 246 -8 282 -8 C349 -8 398 14 429 58 C456 96 460 141 461 163 C462 195 453 220 433 244 C409 274 370 299 313 324 C269 343 240 355 225 366 C210 376 208 385 209 397 C210 406 218 413 227 420 C239 426 254 430 269 430 C274 430 277 429 283 428 C323 422 342 392 346 387 L343 369 C340 363 349 357 353 362 L440 419 C444 421 445 425 443 427 C439 436 432 448 424 462 C414 476 405 487 393 498 C364 522 328 534 281 534 C226 534 180 521 146 495 C111 468 92 431 91 388 C90 347 107 312 143 281 L143 281 Z M377 695 L313 695 C311 695 309 693 307 691 L272 643 L237 691 C236 693 234 695 231 695 L168 695 C166 695 163 693 162 690 C161 687 161 685 163 683 L225 606 C227 604 228 603 230 603 L315 603 C318 603 320 604 321 606 L382 683 C383 684 383 685 383 686 C383 691 381 695 377 695 L377 695 Z " />
<glyph glyph-name="scaron" unicode="&#x161;" horiz-adv-x="531" d="M143 281 C168 260 201 242 245 225 C281 210 304 199 320 185 C334 173 341 161 339 146 C337 130 331 118 320 109 C310 103 295 99 277 99 C263 99 248 104 234 113 C218 122 208 134 200 149 L203 171 C203 180 197 180 192 178 L102 107 C99 105 98 103 99 100 C102 91 110 69 132 47 C147 30 166 19 188 9 C215 -3 246 -8 282 -8 C349 -8 398 14 429 58 C456 96 460 141 461 163 C462 195 453 220 433 244 C409 274 370 299 313 324 C269 343 240 355 225 366 C210 376 208 385 209 397 C210 406 218 413 227 420 C239 426 254 430 269 430 C274 430 277 429 283 428 C323 422 342 392 346 387 L343 369 C340 363 349 357 353 362 L440 419 C444 421 445 425 443 427 C439 436 432 448 424 462 C414 476 405 487 393 498 C364 522 328 534 281 534 C226 534 180 521 146 495 C111 468 92 431 91 388 C90 347 107 312 143 281 L143 281 Z M377 695 L313 695 C311 695 309 693 307 691 L272 643 L237 691 C236 693 234 695 231 695 L168 695 C166 695 163 693 162 690 C161 687 161 685 163 683 L225 606 C227 604 228 603 230 603 L315 603 C318 603 320 604 321 606 L382 683 C383 684 383 685 383 686 C383 691 381 695 377 695 L377 695 Z " />
<glyph glyph-name="uni0162" unicode="&#x162;" horiz-adv-x="508" d="M104 416 L116 428 L212 428 L212 25 L200 12 C196 8 199 0 205 0 L325 0 C332 0 335 9 330 12 L318 25 L318 428 L414 428 L427 416 C431 412 439 416 439 422 L439 522 C439 525 436 528 431 528 L99 528 C95 528 91 525 91 522 L91 422 C91 416 101 411 104 416 L104 416 Z M255 -44 C216 -44 183 -75 183 -114 C183 -130 189 -144 198 -156 C206 -168 218 -177 234 -182 L209 -246 C208 -251 209 -256 216 -256 L270 -256 C273 -256 275 -254 277 -251 L322 -132 C324 -127 325 -121 325 -114 C325 -75 293 -44 255 -44 L255 -44 Z " />
<glyph glyph-name="uni0163" unicode="&#x163;" horiz-adv-x="508" d="M104 416 L116 428 L212 428 L212 25 L200 12 C196 8 199 0 205 0 L325 0 C332 0 335 9 330 12 L318 25 L318 428 L414 428 L427 416 C431 412 439 416 439 422 L439 522 C439 525 436 528 431 528 L99 528 C95 528 91 525 91 522 L91 422 C91 416 101 411 104 416 L104 416 Z M255 -44 C216 -44 183 -75 183 -114 C183 -130 189 -144 198 -156 C206 -168 218 -177 234 -182 L209 -246 C208 -251 209 -256 216 -256 L270 -256 C273 -256 275 -254 277 -251 L322 -132 C324 -127 325 -121 325 -114 C325 -75 293 -44 255 -44 L255 -44 Z " />
<glyph glyph-name="Tcaron" unicode="&#x164;" horiz-adv-x="508" d="M104 416 L116 428 L212 428 L212 25 L200 12 C196 8 199 0 205 0 L325 0 C332 0 335 9 330 12 L318 25 L318 428 L414 428 L427 416 C431 412 439 416 439 422 L439 522 C439 525 436 528 431 528 L99 528 C95 528 91 525 91 522 L91 422 C91 416 101 411 104 416 L104 416 Z M371 695 L307 695 C305 695 303 693 301 691 L266 643 L231 691 C230 693 228 695 225 695 L162 695 C160 695 157 693 156 690 C155 687 155 685 157 683 L219 606 C221 604 222 603 224 603 L309 603 C312 603 314 604 315 606 L376 683 C377 684 377 685 377 686 C377 691 375 695 371 695 L371 695 Z " />
<glyph glyph-name="tcaron" unicode="&#x165;" horiz-adv-x="508" d="M104 416 L116 428 L212 428 L212 25 L200 12 C196 8 199 0 205 0 L325 0 C332 0 335 9 330 12 L318 25 L318 428 L414 428 L427 416 C431 412 439 416 439 422 L439 522 C439 525 436 528 431 528 L99 528 C95 528 91 525 91 522 L91 422 C91 416 101 411 104 416 L104 416 Z M371 695 L307 695 C305 695 303 693 301 691 L266 643 L231 691 C230 693 228 695 225 695 L162 695 C160 695 157 693 156 690 C155 687 155 685 157 683 L219 606 C221 604 222 603 224 603 L309 603 C312 603 314 604 315 606 L376 683 C377 684 377 685 377 686 C377 691 375 695 371 695 L371 695 Z " />
<glyph glyph-name="Tbar" unicode="&#x166;" horiz-adv-x="508" d="M431 528 L98 528 C95 528 91 525 91 522 L91 422 C91 415 101 411 104 416 L116 428 L212 428 L212 328 L134 328 C130 328 127 324 127 320 L127 252 C127 247 131 243 134 243 L212 243 L212 25 L200 12 C196 8 199 0 205 0 L325 0 C332 0 334 8 330 12 L318 25 L318 243 L396 243 C400 243 404 247 404 252 L404 320 C404 324 399 328 396 328 L318 328 L318 428 L414 428 L427 416 C431 411 439 415 439 422 L439 522 C439 523 438 525 437 526 C435 527 433 528 431 528 L431 528 Z " />
<glyph glyph-name="tbar" unicode="&#x167;" horiz-adv-x="508" d="M431 528 L98 528 C95 528 91 525 91 522 L91 422 C91 415 101 411 104 416 L116 428 L212 428 L212 328 L134 328 C130 328 127 324 127 320 L127 252 C127 247 131 243 134 243 L212 243 L212 25 L200 12 C196 8 199 0 205 0 L325 0 C332 0 334 8 330 12 L318 25 L318 243 L396 243 C400 243 404 247 404 252 L404 320 C404 324 399 328 396 328 L318 328 L318 428 L414 428 L427 416 C431 411 439 415 439 422 L439 522 C439 523 438 525 437 526 C435 527 433 528 431 528 L431 528 Z " />
<glyph glyph-name="Utilde" unicode="&#x168;" horiz-adv-x="556" d="M106 503 L106 159 C106 104 117 66 142 40 C171 8 218 -8 289 -8 C358 -8 406 8 435 40 C460 66 471 104 471 159 L471 503 L484 517 C487 522 484 528 479 528 L358 528 C351 528 351 521 353 517 L366 503 L366 185 C366 158 361 138 351 123 C338 107 320 100 294 100 L284 100 C251 100 212 115 212 185 L211 503 L224 517 C226 522 226 528 218 528 L99 528 C92 528 89 521 94 517 L106 503 Z M336 703 C309 703 297 690 288 681 C283 676 279 670 272 670 C258 670 255 685 254 689 C254 693 251 695 247 695 L195 695 C193 695 191 695 190 693 C188 692 187 690 187 687 C188 682 190 659 202 637 C216 614 236 602 259 602 C285 602 296 613 306 623 C313 629 316 633 323 633 C331 633 336 629 339 624 C340 621 341 618 341 616 C342 612 346 610 348 610 L401 610 C401 610 401 610 401 610 C403 610 405 611 407 612 C408 614 408 616 408 618 C408 625 406 647 392 668 C383 684 366 703 336 703 L336 703 Z " />
<glyph glyph-name="utilde" unicode="&#x169;" horiz-adv-x="556" d="M106 503 L106 159 C106 104 117 66 142 40 C171 8 218 -8 289 -8 C358 -8 406 8 435 40 C460 66 471 104 471 159 L471 503 L484 517 C487 522 484 528 479 528 L358 528 C351 528 351 521 353 517 L366 503 L366 185 C366 158 361 138 351 123 C338 107 320 100 294 100 L284 100 C251 100 212 115 212 185 L211 503 L224 517 C226 522 226 528 218 528 L99 528 C92 528 89 521 94 517 L106 503 Z M336 703 C309 703 297 690 288 681 C283 676 279 670 272 670 C258 670 255 685 254 689 C254 693 251 695 247 695 L195 695 C193 695 191 695 190 693 C188 692 187 690 187 687 C188 682 190 659 202 637 C216 614 236 602 259 602 C285 602 296 613 306 623 C313 629 316 633 323 633 C331 633 336 629 339 624 C340 621 341 618 341 616 C342 612 346 610 348 610 L401 610 C401 610 401 610 401 610 C403 610 405 611 407 612 C408 614 408 616 408 618 C408 625 406 647 392 668 C383 684 366 703 336 703 L336 703 Z " />
<glyph glyph-name="Umacron" unicode="&#x16a;" horiz-adv-x="556" d="M106 503 L106 159 C106 104 117 66 142 40 C171 8 218 -8 289 -8 C358 -8 406 8 435 40 C460 66 471 104 471 159 L471 503 L484 517 C487 522 484 528 479 528 L358 528 C351 528 351 521 353 517 L366 503 L366 185 C366 158 361 138 351 123 C338 107 320 100 294 100 L284 100 C251 100 212 115 212 185 L211 503 L224 517 C226 522 226 528 218 528 L99 528 C92 528 89 521 94 517 L106 503 Z M187 676 L187 622 C187 618 191 615 195 615 L387 615 C390 615 393 618 393 622 L393 676 C393 680 390 683 387 683 L195 683 C191 683 187 680 187 676 L187 676 Z " />
<glyph glyph-name="umacron" unicode="&#x16b;" horiz-adv-x="556" d="M106 503 L106 159 C106 104 117 66 142 40 C171 8 218 -8 289 -8 C358 -8 406 8 435 40 C460 66 471 104 471 159 L471 503 L484 517 C487 522 484 528 479 528 L358 528 C351 528 351 521 353 517 L366 503 L366 185 C366 158 361 138 351 123 C338 107 320 100 294 100 L284 100 C251 100 212 115 212 185 L211 503 L224 517 C226 522 226 528 218 528 L99 528 C92 528 89 521 94 517 L106 503 Z M187 676 L187 622 C187 618 191 615 195 615 L387 615 C390 615 393 618 393 622 L393 676 C393 680 390 683 387 683 L195 683 C191 683 187 680 187 676 L187 676 Z " />
<glyph glyph-name="Ubreve" unicode="&#x16c;" horiz-adv-x="556" d="M106 503 L106 159 C106 104 117 66 142 40 C171 8 218 -8 289 -8 C358 -8 406 8 435 40 C460 66 471 104 471 159 L471 503 L484 517 C487 522 484 528 479 528 L358 528 C351 528 351 521 353 517 L366 503 L366 185 C366 158 361 138 351 123 C338 107 320 100 294 100 L284 100 C251 100 212 115 212 185 L211 503 L224 517 C226 522 226 528 218 528 L99 528 C92 528 89 521 94 517 L106 503 Z M317 698 C314 698 310 695 310 691 C310 687 309 682 305 678 C303 675 298 673 293 673 C288 673 284 675 280 678 C277 682 276 687 275 691 C275 695 272 698 268 698 L204 698 C203 698 201 697 199 695 C198 694 197 692 197 690 C198 678 203 645 226 622 C242 605 265 596 293 596 C322 596 344 605 361 622 C383 645 388 678 388 690 C389 692 388 695 386 695 C385 697 382 698 381 698 L317 698 L317 698 Z " />
<glyph glyph-name="ubreve" unicode="&#x16d;" horiz-adv-x="556" d="M106 503 L106 159 C106 104 117 66 142 40 C171 8 218 -8 289 -8 C358 -8 406 8 435 40 C460 66 471 104 471 159 L471 503 L484 517 C487 522 484 528 479 528 L358 528 C351 528 351 521 353 517 L366 503 L366 185 C366 158 361 138 351 123 C338 107 320 100 294 100 L284 100 C251 100 212 115 212 185 L211 503 L224 517 C226 522 226 528 218 528 L99 528 C92 528 89 521 94 517 L106 503 Z M317 698 C314 698 310 695 310 691 C310 687 309 682 305 678 C303 675 298 673 293 673 C288 673 284 675 280 678 C277 682 276 687 275 691 C275 695 272 698 268 698 L204 698 C203 698 201 697 199 695 C198 694 197 692 197 690 C198 678 203 645 226 622 C242 605 265 596 293 596 C322 596 344 605 361 622 C383 645 388 678 388 690 C389 692 388 695 386 695 C385 697 382 698 381 698 L317 698 L317 698 Z " />
<glyph glyph-name="Uring" unicode="&#x16e;" horiz-adv-x="556" d="M106 503 L106 159 C106 104 117 66 142 40 C171 8 218 -8 289 -8 C358 -8 406 8 435 40 C460 66 471 104 471 159 L471 503 L484 517 C487 522 484 528 479 528 L358 528 C351 528 351 521 353 517 L366 503 L366 185 C366 158 361 138 351 123 C338 107 320 100 294 100 L284 100 C251 100 212 115 212 185 L211 503 L224 517 C226 522 226 528 218 528 L99 528 C92 528 89 521 94 517 L106 503 Z M376 666 C376 690 371 707 360 719 C347 733 325 740 296 740 C265 740 244 733 230 720 C220 707 214 690 214 666 L214 645 C214 621 220 605 230 592 C244 578 265 571 296 571 C325 571 347 578 360 592 C371 605 376 621 376 645 L376 666 L376 666 Z M315 678 C320 673 322 665 322 656 C322 644 319 627 298 627 L293 627 C289 627 283 628 278 632 C272 636 269 645 269 656 C269 668 272 684 293 684 L298 684 C305 684 311 683 315 678 L315 678 Z " />
<glyph glyph-name="uring" unicode="&#x16f;" horiz-adv-x="556" d="M106 503 L106 159 C106 104 117 66 142 40 C171 8 218 -8 289 -8 C358 -8 406 8 435 40 C460 66 471 104 471 159 L471 503 L484 517 C487 522 484 528 479 528 L358 528 C351 528 351 521 353 517 L366 503 L366 185 C366 158 361 138 351 123 C338 107 320 100 294 100 L284 100 C251 100 212 115 212 185 L211 503 L224 517 C226 522 226 528 218 528 L99 528 C92 528 89 521 94 517 L106 503 Z M376 666 C376 690 371 707 360 719 C347 733 325 740 296 740 C265 740 244 733 230 720 C220 707 214 690 214 666 L214 645 C214 621 220 605 230 592 C244 578 265 571 296 571 C325 571 347 578 360 592 C371 605 376 621 376 645 L376 666 L376 666 Z M315 678 C320 673 322 665 322 656 C322 644 319 627 298 627 L293 627 C289 627 283 628 278 632 C272 636 269 645 269 656 C269 668 272 684 293 684 L298 684 C305 684 311 683 315 678 L315 678 Z " />
<glyph glyph-name="Uhungarumlaut" unicode="&#x170;" horiz-adv-x="556" d="M106 503 L106 159 C106 104 117 66 142 40 C171 8 218 -8 289 -8 C358 -8 406 8 435 40 C460 66 471 104 471 159 L471 503 L484 517 C487 522 484 528 479 528 L358 528 C351 528 351 521 353 517 L366 503 L366 185 C366 158 361 138 351 123 C338 107 320 100 294 100 L284 100 C251 100 212 115 212 185 L211 503 L224 517 C226 522 226 528 218 528 L99 528 C92 528 89 521 94 517 L106 503 Z M241 609 L268 609 C272 609 274 609 275 612 L303 683 C303 684 303 685 303 686 C303 689 300 693 297 693 L297 693 L249 693 C246 693 243 690 243 686 L233 616 C233 614 234 612 235 610 C237 609 239 609 241 609 L241 609 Z M363 693 L317 693 C313 693 309 690 309 686 L300 616 C300 614 301 612 302 610 C303 609 305 609 307 609 L335 609 C338 609 341 609 342 612 L369 683 C370 684 370 685 370 686 C370 689 367 693 363 693 L363 693 L363 693 Z " />
<glyph glyph-name="uhungarumlaut" unicode="&#x171;" horiz-adv-x="556" d="M106 503 L106 159 C106 104 117 66 142 40 C171 8 218 -8 289 -8 C358 -8 406 8 435 40 C460 66 471 104 471 159 L471 503 L484 517 C487 522 484 528 479 528 L358 528 C351 528 351 521 353 517 L366 503 L366 185 C366 158 361 138 351 123 C338 107 320 100 294 100 L284 100 C251 100 212 115 212 185 L211 503 L224 517 C226 522 226 528 218 528 L99 528 C92 528 89 521 94 517 L106 503 Z M241 609 L268 609 C272 609 274 609 275 612 L303 683 C303 684 303 685 303 686 C303 689 300 693 297 693 L297 693 L249 693 C246 693 243 690 243 686 L233 616 C233 614 234 612 235 610 C237 609 239 609 241 609 L241 609 Z M363 693 L317 693 C313 693 309 690 309 686 L300 616 C300 614 301 612 302 610 C303 609 305 609 307 609 L335 609 C338 609 341 609 342 612 L369 683 C370 684 370 685 370 686 C370 689 367 693 363 693 L363 693 L363 693 Z " />
<glyph glyph-name="Uogonek" unicode="&#x172;" horiz-adv-x="557" d="M481 528 L360 528 C354 528 351 520 354 517 L368 503 L368 184 C368 158 363 137 352 123 C340 107 321 99 295 99 L286 99 C268 99 249 104 235 118 C222 131 213 151 213 184 L213 503 L226 516 C227 522 227 528 220 528 L100 528 C94 528 91 520 95 517 L107 503 L107 158 C107 104 119 66 142 39 L147 36 C169 12 202 -1 247 -6 L247 -29 L240 -29 C224 -29 204 -30 192 -42 L188 -47 C180 -58 178 -76 178 -99 L178 -114 C178 -142 183 -160 195 -172 C208 -184 227 -191 257 -191 L296 -191 C301 -191 303 -186 303 -184 L303 -125 C303 -121 300 -119 296 -119 L286 -119 C278 -119 268 -119 260 -116 C250 -115 250 -110 250 -108 C250 -101 256 -100 266 -100 C287 -100 300 -99 309 -90 L310 -89 C318 -79 320 -63 320 -36 L320 -7 C373 -4 412 12 437 39 C462 66 473 104 473 158 L473 503 L485 517 C490 521 485 528 481 528 L481 528 Z " />
<glyph glyph-name="uogonek" unicode="&#x173;" horiz-adv-x="557" d="M481 528 L360 528 C354 528 351 520 354 517 L368 503 L368 184 C368 158 363 137 352 123 C340 107 321 99 295 99 L286 99 C268 99 249 104 235 118 C222 131 213 151 213 184 L213 503 L226 516 C227 522 227 528 220 528 L100 528 C94 528 91 520 95 517 L107 503 L107 158 C107 104 119 66 142 39 L147 36 C169 12 202 -1 247 -6 L247 -29 L240 -29 C224 -29 204 -30 192 -42 L188 -47 C180 -58 178 -76 178 -99 L178 -114 C178 -142 183 -160 195 -172 C208 -184 227 -191 257 -191 L296 -191 C301 -191 303 -186 303 -184 L303 -125 C303 -121 300 -119 296 -119 L286 -119 C278 -119 268 -119 260 -116 C250 -115 250 -110 250 -108 C250 -101 256 -100 266 -100 C287 -100 300 -99 309 -90 L310 -89 C318 -79 320 -63 320 -36 L320 -7 C373 -4 412 12 437 39 C462 66 473 104 473 158 L473 503 L485 517 C490 521 485 528 481 528 L481 528 Z " />
<glyph glyph-name="Wcircumflex" unicode="&#x174;" horiz-adv-x="785" d="M579 11 L571 24 L700 503 L713 517 C717 521 713 528 708 528 L587 528 C581 528 579 520 582 517 L594 504 L512 197 L444 503 L456 517 C460 521 457 528 450 528 L323 528 C317 528 314 520 318 517 L331 503 L363 385 L297 184 L212 504 L224 517 C228 521 224 528 218 528 L99 528 C92 528 89 520 94 517 L106 503 L235 24 L227 11 C224 6 227 0 234 0 L331 0 C333 0 336 2 337 4 L410 207 L465 5 C465 3 468 0 472 0 L574 0 C579 0 581 7 579 11 L579 11 Z M287 603 L349 603 C351 603 354 604 354 606 L396 655 L396 655 L425 607 C426 605 428 603 431 603 L495 603 C498 603 500 605 501 608 C502 609 501 612 501 614 L448 691 C447 693 444 695 442 695 L423 695 L378 695 L357 695 C355 695 353 694 352 692 L282 615 C279 613 279 609 280 608 C281 605 284 603 287 603 L287 603 Z " />
<glyph glyph-name="wcircumflex" unicode="&#x175;" horiz-adv-x="785" d="M579 11 L571 24 L700 503 L713 517 C717 521 713 528 708 528 L587 528 C581 528 579 520 582 517 L594 504 L512 197 L444 503 L456 517 C460 521 457 528 450 528 L323 528 C317 528 314 520 318 517 L331 503 L363 385 L297 184 L212 504 L224 517 C228 521 224 528 218 528 L99 528 C92 528 89 520 94 517 L106 503 L235 24 L227 11 C224 6 227 0 234 0 L331 0 C333 0 336 2 337 4 L410 207 L465 5 C465 3 468 0 472 0 L574 0 C579 0 581 7 579 11 L579 11 Z M287 603 L349 603 C351 603 354 604 354 606 L396 655 L396 655 L425 607 C426 605 428 603 431 603 L495 603 C498 603 500 605 501 608 C502 609 501 612 501 614 L448 691 C447 693 444 695 442 695 L423 695 L378 695 L357 695 C355 695 353 694 352 692 L282 615 C279 613 279 609 280 608 C281 605 284 603 287 603 L287 603 Z " />
<glyph glyph-name="Ycircumflex" unicode="&#x176;" horiz-adv-x="519" d="M106 503 L218 250 L218 25 L207 12 C201 7 206 0 212 0 L332 0 C339 0 339 8 337 12 L325 25 L325 250 L434 503 L447 517 C451 521 447 528 442 528 L321 528 C315 528 313 520 316 517 L329 504 L271 390 L212 504 L224 517 C228 521 224 528 218 528 L99 528 C92 528 89 520 94 517 L106 503 Z M171 603 L233 603 C235 603 238 604 238 606 L280 655 L280 655 L309 607 C310 605 312 603 315 603 L379 603 C382 603 384 605 385 608 C386 609 385 612 385 614 L332 691 C331 693 328 695 326 695 L307 695 L262 695 L241 695 C239 695 237 694 236 692 L166 615 C163 613 163 609 164 608 C165 605 168 603 171 603 L171 603 Z " />
<glyph glyph-name="ycircumflex" unicode="&#x177;" horiz-adv-x="519" d="M106 503 L218 250 L218 25 L207 12 C201 7 206 0 212 0 L332 0 C339 0 339 8 337 12 L325 25 L325 250 L434 503 L447 517 C451 521 447 528 442 528 L321 528 C315 528 313 520 316 517 L329 504 L271 390 L212 504 L224 517 C228 521 224 528 218 528 L99 528 C92 528 89 520 94 517 L106 503 Z M171 603 L233 603 C235 603 238 604 238 606 L280 655 L280 655 L309 607 C310 605 312 603 315 603 L379 603 C382 603 384 605 385 608 C386 609 385 612 385 614 L332 691 C331 693 328 695 326 695 L307 695 L262 695 L241 695 C239 695 237 694 236 692 L166 615 C163 613 163 609 164 608 C165 605 168 603 171 603 L171 603 Z " />
<glyph glyph-name="Ydieresis" unicode="&#x178;" horiz-adv-x="519" d="M106 503 L218 250 L218 25 L207 12 C201 7 206 0 212 0 L332 0 C339 0 339 8 337 12 L325 25 L325 250 L434 503 L447 517 C451 521 447 528 442 528 L321 528 C315 528 313 520 316 517 L329 504 L271 390 L212 504 L224 517 C228 521 224 528 218 528 L99 528 C92 528 89 520 94 517 L106 503 Z M186 649 C186 628 204 609 226 609 C247 609 264 628 264 649 C264 670 247 687 226 687 C204 687 186 670 186 649 L186 649 Z M316 609 C338 609 355 628 355 649 C355 670 338 687 316 687 C295 687 278 670 278 649 C278 628 295 609 316 609 L316 609 Z " />
<glyph glyph-name="Zacute" unicode="&#x179;" horiz-adv-x="486" d="M104 416 L116 428 L287 428 L94 99 C93 98 93 98 93 96 L93 7 C93 4 97 0 100 0 L409 0 C414 0 416 4 416 7 L416 106 C416 114 408 116 405 112 L392 100 L221 100 L414 429 C414 430 415 431 415 432 L415 522 C415 523 414 525 413 526 C412 527 410 528 99 528 C95 528 91 525 91 521 L91 422 C91 415 101 410 104 416 L104 416 Z M246 684 L233 619 C233 618 233 615 235 614 C236 612 239 611 240 611 L271 611 C273 611 275 612 277 614 L321 678 C321 679 321 681 321 683 C321 686 319 689 315 689 L253 689 C249 689 247 686 246 684 L246 684 Z " />
<glyph glyph-name="zacute" unicode="&#x17a;" horiz-adv-x="486" d="M104 416 L116 428 L287 428 L94 99 C93 98 93 98 93 96 L93 7 C93 4 97 0 100 0 L409 0 C414 0 416 4 416 7 L416 106 C416 114 408 116 405 112 L392 100 L221 100 L414 429 C414 430 415 431 415 432 L415 522 C415 523 414 525 413 526 C412 527 410 528 99 528 C95 528 91 525 91 521 L91 422 C91 415 101 410 104 416 L104 416 Z M246 684 L233 619 C233 618 233 615 235 614 C236 612 239 611 240 611 L271 611 C273 611 275 612 277 614 L321 678 C321 679 321 681 321 683 C321 686 319 689 315 689 L253 689 C249 689 247 686 246 684 L246 684 Z " />
<glyph glyph-name="Zdotaccent" unicode="&#x17b;" horiz-adv-x="486" d="M104 416 L116 428 L287 428 L94 99 C93 98 93 98 93 96 L93 7 C93 4 97 0 100 0 L409 0 C414 0 416 4 416 7 L416 106 C416 114 408 116 405 112 L392 100 L221 100 L414 429 C414 430 415 431 415 432 L415 522 C415 523 414 525 413 526 C412 527 410 528 99 528 C95 528 91 525 91 521 L91 422 C91 415 101 410 104 416 L104 416 Z M262 589 C301 589 334 621 334 660 C334 699 301 730 262 730 C224 730 192 699 192 660 C192 621 224 589 262 589 L262 589 Z " />
<glyph glyph-name="zdotaccent" unicode="&#x17c;" horiz-adv-x="486" d="M104 416 L116 428 L287 428 L94 99 C93 98 93 98 93 96 L93 7 C93 4 97 0 100 0 L409 0 C414 0 416 4 416 7 L416 106 C416 114 408 116 405 112 L392 100 L221 100 L414 429 C414 430 415 431 415 432 L415 522 C415 523 414 525 413 526 C412 527 410 528 99 528 C95 528 91 525 91 521 L91 422 C91 415 101 410 104 416 L104 416 Z M262 589 C301 589 334 621 334 660 C334 699 301 730 262 730 C224 730 192 699 192 660 C192 621 224 589 262 589 L262 589 Z " />
<glyph glyph-name="Zcaron" unicode="&#x17d;" horiz-adv-x="486" d="M104 416 L116 428 L287 428 L94 99 C93 98 93 98 93 96 L93 7 C93 4 97 0 100 0 L409 0 C414 0 416 4 416 7 L416 106 C416 114 408 116 405 112 L392 100 L221 100 L414 429 C414 430 415 431 415 432 L415 522 C415 523 414 525 413 526 C412 527 410 528 99 528 C95 528 91 525 91 521 L91 422 C91 415 101 410 104 416 L104 416 Z M362 695 L298 695 C296 695 294 693 292 691 L257 643 L222 691 C221 693 219 695 216 695 L153 695 C151 695 148 693 147 690 C146 687 146 685 148 683 L210 606 C212 604 213 603 215 603 L300 603 C303 603 305 604 306 606 L367 683 C368 684 368 685 368 686 C368 691 366 695 362 695 L362 695 Z " />
<glyph glyph-name="zcaron" unicode="&#x17e;" horiz-adv-x="486" d="M104 416 L116 428 L287 428 L94 99 C93 98 93 98 93 96 L93 7 C93 4 97 0 100 0 L409 0 C414 0 416 4 416 7 L416 106 C416 114 408 116 405 112 L392 100 L221 100 L414 429 C414 430 415 431 415 432 L415 522 C415 523 414 525 413 526 C412 527 410 528 99 528 C95 528 91 525 91 521 L91 422 C91 415 101 410 104 416 L104 416 Z M362 695 L298 695 C296 695 294 693 292 691 L257 643 L222 691 C221 693 219 695 216 695 L153 695 C151 695 148 693 147 690 C146 687 146 685 148 683 L210 606 C212 604 213 603 215 603 L300 603 C303 603 305 604 306 606 L367 683 C368 684 368 685 368 686 C368 691 366 695 362 695 L362 695 Z " />
<glyph glyph-name="longs" unicode="&#x17f;" horiz-adv-x="415" d="M339 536 L312 536 C253 536 211 525 183 501 C160 483 147 454 142 414 L99 414 C95 414 91 411 91 407 L91 338 C91 334 95 331 99 331 L140 331 L140 25 L127 12 C123 8 125 1 132 1 L252 1 C260 1 260 9 257 12 L245 25 L244 353 C246 377 252 395 262 408 C275 423 293 429 316 429 L321 429 L334 416 C338 412 346 416 346 422 L346 528 C346 533 343 536 339 536 L339 536 Z " />
<glyph glyph-name="florin" unicode="&#x192;" horiz-adv-x="468" d="M268 -97 C278 -82 287 -65 293 -44 C295 -26 298 -5 298 22 L297 250 L352 250 C355 250 359 253 359 256 L359 326 C359 330 355 332 352 332 L297 332 L297 344 C297 370 303 391 313 406 C326 422 345 429 370 429 L374 429 L388 416 C391 412 399 416 399 422 L399 528 C399 533 396 536 392 536 L365 536 C296 536 251 521 223 488 C212 474 203 457 199 436 C195 418 192 397 192 370 L192 332 L124 332 C122 332 118 330 118 326 L118 256 C118 253 122 250 124 250 L193 250 L193 48 C193 21 188 1 177 -13 C165 -29 146 -37 122 -37 L117 -37 L104 -25 C99 -19 91 -25 91 -30 L91 -137 C91 -141 95 -143 99 -143 L125 -143 C194 -143 241 -128 268 -97 L268 -97 Z " />
</font>
</svg>
