<?xml version="1.0" encoding="UTF-8"?>
<svg xmlns="http://www.w3.org/2000/svg" xmlns:xlink="http://www.w3.org/1999/xlink" version="1.2" >
<font id="Burford Extrude A Shadow">
<font-face  font-family="Burford" units-per-em="1000" ascent="730" descent="-270" font-style="normal" font-weight="400" font-stretch="normal" cap-height="900" x-height="450" underline-position="-75" underline-thickness="50" />
<missing-glyph  horiz-adv-x="427" d="" />
<glyph glyph-name="NULL" d="" />
<glyph glyph-name="CR" unicode="&#xd;" horiz-adv-x="299" d="" />
<glyph glyph-name="space" unicode="&#x20;" horiz-adv-x="299" d="" />
<glyph glyph-name="exclam" unicode="&#x21;" horiz-adv-x="382" d="M265 493 L132 493 L5 450 C4 450 3 449 2 448 C1 447 0 446 0 444 L21 87 C21 85 22 84 23 83 C25 81 27 81 28 81 L116 81 C117 81 118 81 119 81 L245 123 C249 123 251 126 251 129 L272 485 L272 486 C272 488 271 490 269 491 C269 492 267 493 265 493 L265 493 Z M203 98 C196 98 188 98 181 95 L54 52 C26 43 6 16 6 -14 C6 -34 13 -51 27 -65 C39 -77 56 -85 76 -85 C84 -85 91 -84 98 -82 L226 -39 C254 -30 274 -4 274 28 C274 47 266 65 253 78 C240 90 222 98 203 98 L203 98 Z " />
<glyph glyph-name="quotedbl" unicode="&#x22;" horiz-adv-x="289" d="M199 513 L187 509 C187 510 186 511 186 511 C184 513 183 514 181 514 L134 514 C133 514 132 514 132 513 L5 471 L2 468 C0 466 0 465 0 464 L9 392 C9 391 10 389 11 389 C12 388 14 387 16 387 L45 387 C46 387 47 387 47 388 L75 397 L76 392 C76 391 77 389 78 389 C80 388 81 387 83 387 L111 387 C112 387 113 387 114 388 L240 429 C243 430 245 432 245 435 L255 505 L255 506 C255 508 254 510 253 511 C252 513 250 514 248 514 L200 514 C200 514 199 514 199 513 L199 513 Z " />
<glyph glyph-name="numbersign" unicode="&#x23;" horiz-adv-x="605" d="M214 -69 C214 -72 215 -73 216 -75 L217 -75 C218 -77 218 -78 220 -78 L312 -78 C313 -78 313 -78 314 -77 L442 -35 C444 -34 446 -32 446 -29 L460 50 L515 69 C517 69 519 72 519 74 L534 166 C534 167 534 170 533 172 L532 172 C531 174 529 175 526 175 L480 175 L496 269 L550 288 C552 289 554 291 555 294 L569 385 C570 387 569 389 568 390 L568 390 C567 392 565 393 562 393 L517 393 L531 484 C532 486 531 489 529 491 C527 492 525 493 524 493 L432 493 C431 493 431 493 431 492 L342 464 L346 484 C346 486 346 489 344 491 C342 492 340 493 338 493 L247 493 C246 493 245 493 244 492 L118 450 C115 449 114 447 113 445 L100 365 L55 351 C53 350 51 347 50 345 L36 253 C36 252 36 249 38 248 L38 247 C39 245 41 245 43 245 L81 245 L64 146 L20 132 C17 131 15 128 15 125 L0 34 C0 32 0 29 2 28 C4 27 5 27 7 27 L45 27 L29 -69 C29 -72 29 -73 30 -75 C32 -77 34 -78 36 -78 L127 -78 C128 -78 129 -78 130 -77 L218 -48 L214 -69 Z " />
<glyph glyph-name="dollar" unicode="&#x24;" horiz-adv-x="532" d="M143 -126 C143 -128 144 -130 146 -132 C147 -133 149 -133 151 -133 L222 -133 L350 -90 C352 -90 354 -87 354 -84 L354 -45 L390 -32 C426 -21 452 1 471 30 C492 67 497 107 498 128 C499 160 489 185 469 209 C465 214 463 218 458 221 C434 245 398 268 351 288 L318 302 L389 325 C389 326 389 326 389 326 L477 384 C480 386 481 389 480 392 C470 411 457 434 439 454 C438 454 438 454 438 455 C415 477 389 491 354 496 L354 541 C354 542 353 543 352 545 C351 546 349 547 347 547 L276 547 L149 504 C146 503 143 501 143 498 L143 457 L106 445 C81 436 59 423 42 406 C16 381 2 348 1 310 C0 275 13 242 42 214 L53 203 C78 183 110 164 155 147 L192 131 L104 102 L101 100 L11 29 C9 28 8 25 9 22 C10 15 17 -3 33 -22 L44 -32 C53 -42 64 -50 76 -58 C96 -69 119 -78 143 -82 L143 -126 Z " />
<glyph glyph-name="percent" unicode="&#x25;" horiz-adv-x="823" d="M196 180 L280 208 L175 -79 C174 -81 174 -84 175 -86 C175 -86 175 -85 176 -86 C177 -86 179 -86 181 -86 L274 -86 L401 -46 C404 -45 405 -43 406 -41 L406 -41 C432 -67 472 -86 513 -86 C529 -86 542 -82 558 -77 L684 -35 C706 -28 727 -17 744 0 C772 28 788 67 788 107 C788 127 783 147 775 164 C769 178 760 190 750 200 C748 202 746 205 744 207 C716 231 679 243 637 243 C619 243 600 241 583 235 L498 207 L602 486 L602 489 C602 491 599 493 598 494 C597 496 597 497 595 497 L504 497 C503 497 503 496 502 496 L388 457 C386 459 383 461 381 464 C354 486 316 500 276 500 C256 500 238 497 221 491 L94 448 C75 443 58 432 44 421 C29 408 19 393 12 377 C4 360 0 341 0 321 C0 279 17 242 44 216 C71 188 107 171 149 171 C165 171 180 175 196 180 L196 180 Z " />
<glyph glyph-name="ampersand" unicode="&#x26;" horiz-adv-x="655" d="M325 -73 C325 -74 326 -75 326 -75 C328 -77 329 -78 331 -78 L485 -78 C486 -78 487 -78 488 -77 L616 -35 C617 -34 619 -33 619 -30 C620 -29 619 -26 618 -23 L605 -10 L605 -10 L604 -10 L602 -8 L598 -4 L579 15 L514 78 C530 115 539 160 539 204 L539 295 C539 297 538 299 536 301 L535 302 C534 303 533 303 532 303 L529 303 L402 260 C402 260 401 260 400 259 L354 231 L309 275 L389 302 L390 302 L491 363 C493 365 495 368 495 370 L495 375 C495 393 491 409 483 425 C478 436 471 446 462 455 L450 465 C422 488 380 500 330 500 C294 500 261 496 236 487 L108 446 C92 440 79 432 66 424 C37 402 21 369 21 325 C21 286 32 252 61 217 C38 201 24 184 13 164 C4 142 0 117 0 82 C0 29 12 -10 38 -37 L40 -39 C55 -54 72 -65 95 -73 C121 -82 151 -86 186 -86 L212 -86 C235 -86 256 -82 275 -75 L336 -55 L326 -66 C324 -67 323 -71 325 -73 L325 -73 Z " />
<glyph glyph-name="quotesingle" unicode="&#x27;" horiz-adv-x="222" d="M47 395 L175 438 C176 439 179 440 179 443 L188 513 L188 515 C188 517 187 518 186 519 C184 521 183 522 181 522 L134 522 C133 522 132 522 132 521 L5 479 L2 477 C0 475 0 473 0 471 L9 401 C9 399 10 397 11 397 C12 395 14 395 16 395 L47 395 Z " />
<glyph glyph-name="parenleft" unicode="&#x28;" horiz-adv-x="380" d="M30 368 C5 297 1 230 1 196 C1 161 5 94 30 23 C49 -28 75 -68 107 -101 C122 -116 137 -127 153 -138 C154 -139 156 -139 157 -139 L159 -139 L286 -96 C287 -96 289 -95 290 -93 L345 -6 C346 -4 346 -1 345 1 C345 2 345 3 344 3 C343 4 340 5 338 5 L318 5 L312 11 C303 21 285 40 267 67 C252 90 239 115 231 141 C219 172 215 203 215 236 C215 268 219 300 231 332 C239 357 252 382 267 406 C282 430 297 448 308 459 L341 470 C343 470 344 472 345 474 C346 475 346 479 345 481 L290 568 C290 568 289 568 289 569 L286 571 L281 571 L155 528 C154 528 153 527 153 527 C98 491 57 439 30 368 L30 368 Z " />
<glyph glyph-name="parenright" unicode="&#x29;" horiz-adv-x="380" d="M79 25 C64 2 48 -16 38 -27 L5 -38 C4 -39 2 -39 1 -41 C0 -44 0 -47 1 -48 L55 -136 C56 -136 56 -137 57 -137 C58 -138 59 -139 61 -139 L64 -139 L192 -96 L193 -96 C248 -60 288 -6 314 66 C341 137 345 204 345 238 C345 272 341 339 314 410 C296 459 271 501 238 534 C225 547 209 560 193 570 C192 571 191 571 189 571 L187 571 L60 528 L55 525 L1 438 C0 436 0 433 1 431 C1 430 2 430 2 429 C4 428 5 427 7 427 L28 427 C28 427 29 426 30 424 C40 415 60 394 79 363 C94 339 106 314 115 289 C125 257 131 226 131 193 C131 161 125 129 115 98 C106 72 94 47 79 25 L79 25 Z " />
<glyph glyph-name="asterisk" unicode="&#x2a;" horiz-adv-x="303" d="M1 389 L19 363 L20 363 C21 362 22 361 23 361 C24 360 24 360 25 360 C26 360 27 361 27 361 L47 368 L47 351 C47 350 47 348 49 346 C50 346 53 345 55 345 L88 345 L215 388 C218 389 219 390 219 394 L244 403 C246 403 247 404 248 406 L266 431 C268 433 268 438 265 440 C265 440 264 440 264 440 L237 459 L264 478 C268 481 269 484 266 487 L249 513 C248 514 248 514 248 515 C247 516 245 517 243 517 L240 517 L219 509 L219 525 C219 527 218 529 218 530 C217 532 215 533 213 533 L182 533 C181 533 180 532 180 532 L52 490 C49 489 47 485 47 483 L47 483 L23 474 L19 471 L2 446 C-1 443 0 440 3 437 C3 437 3 436 4 436 L29 417 L4 398 C0 397 -1 392 1 389 L1 389 Z " />
<glyph glyph-name="plus" unicode="&#x2b;" horiz-adv-x="368" d="M62 98 C64 96 65 95 66 95 L139 95 C140 95 141 95 141 96 L269 138 C271 139 273 141 273 144 L273 180 L328 199 C331 200 332 202 332 206 L332 275 C332 277 332 278 331 279 C329 281 328 282 326 282 L273 282 L273 336 C273 337 272 339 271 341 C269 342 268 343 266 343 L192 343 L65 300 C62 299 60 296 60 294 L60 257 L5 239 C2 238 0 235 0 233 L0 163 C0 161 1 160 2 158 C4 158 5 157 7 157 L60 157 L60 102 C60 100 61 98 62 98 L62 98 Z " />
<glyph glyph-name="comma" unicode="&#x2c;" horiz-adv-x="303" d="M24 -152 L25 -153 C27 -155 28 -156 29 -156 L85 -156 C85 -156 86 -156 86 -155 L214 -113 C216 -112 218 -110 218 -108 L264 10 C266 16 267 22 267 28 C267 47 258 66 245 79 C234 91 216 99 196 99 C188 99 180 98 174 96 L47 53 C19 44 -2 17 -2 -13 C-2 -29 4 -44 12 -56 L19 -65 C28 -72 37 -78 47 -82 L23 -146 C23 -148 23 -150 24 -152 L24 -152 Z " />
<glyph glyph-name="hyphen" unicode="&#x2d;" horiz-adv-x="367" d="M0 233 L0 163 C0 161 1 160 2 158 C4 158 5 157 7 157 L200 157 L328 199 C331 200 332 202 332 206 L332 275 C332 277 332 278 331 279 C329 281 328 282 326 282 L134 282 C133 282 132 281 132 281 L5 239 C2 238 0 235 0 233 L0 233 Z " />
<glyph glyph-name="period" unicode="&#x2e;" horiz-adv-x="303" d="M0 -13 C0 -33 8 -50 21 -64 C33 -76 51 -85 70 -85 C79 -85 85 -83 92 -81 L219 -39 C248 -29 269 -3 269 28 C269 47 260 66 247 79 C235 91 218 99 198 99 C190 99 182 98 175 96 L47 53 C21 44 0 17 0 -13 L0 -13 Z " />
<glyph glyph-name="slash" unicode="&#x2f;" horiz-adv-x="463" d="M2 -86 C4 -87 5 -88 7 -88 L100 -88 L227 -46 C229 -45 231 -43 232 -41 L427 486 C428 487 428 488 428 489 C428 491 427 493 427 494 C425 496 423 497 422 497 L330 497 C330 497 329 496 329 496 L200 454 C199 453 198 451 197 449 L1 -79 C0 -81 0 -83 1 -85 C2 -86 2 -86 2 -86 L2 -86 Z " />
<glyph glyph-name="zero" unicode="0" horiz-adv-x="565" d="M531 260 C531 337 514 396 480 437 L469 448 C454 464 436 475 415 484 C390 494 362 500 329 500 C303 500 278 496 257 489 L130 446 L116 441 C91 431 70 414 53 394 C36 374 22 349 13 319 C4 290 0 256 0 218 L0 155 C0 117 4 83 13 53 C22 23 36 -2 53 -22 L63 -33 C78 -48 96 -61 116 -69 C141 -80 170 -86 201 -86 C228 -86 252 -82 275 -74 L402 -31 C406 -30 410 -29 414 -28 C440 -16 461 -1 478 20 C496 40 508 65 518 95 C526 124 531 159 531 197 L531 260 Z " />
<glyph glyph-name="one" unicode="1" horiz-adv-x="343" d="M0 362 L4 269 C4 267 4 265 5 263 C6 262 8 261 9 261 L12 261 L61 277 L61 -53 L48 -66 C47 -67 47 -71 47 -73 C47 -74 47 -75 48 -75 C50 -77 52 -78 54 -78 L174 -78 C175 -78 175 -78 176 -77 L303 -35 C305 -34 307 -32 308 -30 C309 -29 308 -26 306 -23 L294 -10 L294 468 L306 481 C308 483 309 485 308 488 L306 491 C304 491 303 492 301 492 L191 492 L64 449 C63 449 62 448 61 447 L2 366 C0 364 0 363 0 362 L0 362 Z " />
<glyph glyph-name="two" unicode="2" horiz-adv-x="510" d="M235 490 L106 447 C80 438 55 423 36 403 C12 377 0 346 2 313 C2 312 3 310 4 308 L5 307 L104 250 C106 250 106 249 108 249 C108 249 109 250 110 250 L235 291 C235 285 234 277 231 272 C218 246 193 233 161 216 C134 200 105 185 74 160 C9 104 2 48 4 21 L4 -71 C4 -73 4 -74 6 -75 C7 -77 9 -78 10 -78 L321 -78 C322 -78 323 -78 324 -77 L451 -35 C454 -34 456 -31 456 -29 L456 78 C456 80 455 81 454 83 C453 83 452 84 451 85 L446 85 L405 70 L255 70 C256 93 282 109 322 133 C337 142 355 153 374 165 C446 214 481 271 476 337 C473 382 456 421 427 449 L421 456 C389 484 346 500 296 500 C275 500 254 496 235 490 L235 490 Z " />
<glyph glyph-name="three" unicode="3" horiz-adv-x="490" d="M139 493 C138 493 137 492 136 492 L9 450 C6 448 4 446 4 444 L4 337 C4 336 5 333 7 332 C7 332 8 332 9 331 L13 331 L55 345 L158 345 L38 238 C37 237 36 235 36 233 L36 143 C36 141 37 140 38 139 C38 138 39 138 39 138 C40 137 42 136 44 136 C45 136 46 136 46 137 L61 142 C75 146 98 150 127 150 L131 150 C161 150 181 137 193 125 L84 89 L81 87 L3 26 C0 23 -1 21 0 17 C8 -4 19 -22 34 -37 C43 -46 53 -53 64 -59 C90 -76 124 -86 159 -86 C181 -86 202 -82 221 -75 L349 -33 C369 -27 387 -16 402 -5 C418 10 431 28 440 49 C450 72 456 100 456 130 C456 159 448 184 435 208 C429 218 422 226 414 235 C406 242 398 248 389 254 C364 271 339 279 330 281 L438 388 C440 389 440 389 440 391 L440 485 C440 488 440 490 438 491 C437 492 435 493 432 493 L139 493 Z " />
<glyph glyph-name="four" unicode="4" horiz-adv-x="528" d="M0 161 L0 72 C0 70 1 68 2 66 C4 66 5 65 7 65 L198 65 L198 -53 L185 -66 C183 -67 183 -71 183 -73 C184 -74 184 -75 185 -75 C187 -77 189 -78 191 -78 L311 -78 C312 -78 312 -78 313 -77 L440 -35 C442 -34 444 -32 445 -30 C446 -29 445 -26 443 -23 L431 -10 L431 73 L489 93 L490 93 C492 94 494 97 494 100 L494 200 C494 201 493 203 491 205 C491 206 489 207 486 207 L431 207 L431 467 L443 481 C445 483 446 485 445 488 C444 489 443 490 443 491 C441 491 440 492 438 492 L328 492 L200 449 C199 449 198 448 197 447 L1 164 C1 163 0 161 0 161 L0 161 Z " />
<glyph glyph-name="five" unicode="5" horiz-adv-x="496" d="M410 492 L138 492 L10 449 C9 448 7 448 6 446 C5 444 6 440 8 439 L20 426 L20 166 C20 164 21 162 22 161 C22 161 22 161 23 161 C24 160 26 159 28 159 C28 159 28 159 29 160 C38 162 64 167 123 176 C132 177 141 178 149 178 C174 178 191 172 201 161 L207 156 C209 150 213 146 215 141 L90 98 C89 98 89 98 88 98 L4 38 C1 37 0 33 1 30 L3 28 C10 5 20 -22 42 -46 C43 -46 43 -47 44 -47 C71 -73 111 -86 165 -86 C187 -86 208 -83 226 -77 L353 -34 C359 -32 365 -30 370 -28 C391 -18 408 -4 423 14 C448 47 462 91 462 141 L462 154 C463 193 458 220 447 243 C442 255 434 265 425 275 C413 286 397 296 379 304 C359 313 332 318 300 318 C285 318 269 317 253 315 L253 351 L266 351 L278 337 C279 337 281 336 283 336 L286 336 L413 379 C415 380 417 382 417 386 L417 485 C417 487 417 489 415 491 C414 491 412 492 410 492 L410 492 Z " />
<glyph glyph-name="six" unicode="6" horiz-adv-x="526" d="M305 500 C277 500 252 496 229 488 L103 446 C81 439 62 427 47 413 C30 399 20 381 12 361 C4 340 0 316 0 291 L0 96 C0 40 13 -4 42 -34 L47 -39 C77 -70 123 -86 180 -86 L185 -86 C212 -86 237 -82 258 -74 L385 -31 C408 -24 428 -13 445 3 C460 18 472 37 480 58 C488 80 492 105 492 132 L492 151 C492 202 476 246 445 277 L442 280 C427 294 408 306 387 313 C371 319 357 322 341 324 L378 337 L379 337 L479 387 C483 389 483 391 483 395 C474 415 464 433 448 448 C441 457 432 463 424 468 C393 489 354 500 310 500 L305 500 Z M244 317 L239 315 L239 324 L244 318 L244 317 Z " />
<glyph glyph-name="seven" unicode="7" horiz-adv-x="447" d="M4 336 L9 336 L51 351 L169 351 L3 -67 C2 -70 2 -73 4 -74 C4 -75 4 -75 4 -75 C5 -77 7 -78 9 -78 L131 -78 C132 -78 132 -78 132 -77 L260 -35 C261 -34 263 -32 264 -30 C265 -29 265 -26 262 -23 L251 -10 L412 393 C412 394 413 395 413 397 L413 485 C413 487 412 489 410 491 C409 491 408 492 406 492 L132 492 L5 449 C2 448 0 446 0 443 L0 343 C0 341 1 339 2 337 L4 336 Z " />
<glyph glyph-name="eight" unicode="8" horiz-adv-x="526" d="M47 -39 C77 -70 123 -86 182 -86 C211 -86 237 -82 259 -73 L387 -31 L388 -31 C409 -24 429 -12 445 3 C460 17 472 36 481 57 C488 79 492 104 492 130 L492 139 C492 192 475 236 444 269 L432 278 C449 303 459 333 459 363 C459 384 455 403 447 420 C441 433 431 446 422 457 L414 463 C389 486 351 500 310 500 C291 500 272 497 255 491 L128 448 C109 442 91 432 78 420 C64 408 53 393 46 377 C38 360 33 341 33 320 C33 292 42 263 58 239 C20 208 0 160 0 101 L0 93 C0 36 15 -9 46 -39 L47 -39 Z " />
<glyph glyph-name="nine" unicode="9" horiz-adv-x="526" d="M12 356 C4 334 0 310 0 282 L0 263 C0 212 16 168 47 138 L50 134 C66 120 85 108 106 100 C121 95 135 91 151 89 L115 78 L114 78 L13 28 C10 27 9 22 10 20 C17 -1 29 -20 45 -34 C51 -42 60 -48 68 -54 C99 -74 139 -86 183 -86 L187 -86 C216 -86 241 -82 263 -74 L389 -31 C412 -25 431 -13 446 1 C462 15 473 33 481 54 C488 74 492 98 492 123 L492 319 C492 374 479 418 450 448 L446 454 C415 484 370 500 312 500 L307 500 C280 500 256 496 235 489 L106 446 C84 439 64 427 47 411 C32 397 21 378 12 356 L12 356 Z M253 89 L248 97 L248 98 L253 99 L253 89 Z " />
<glyph glyph-name="colon" unicode="&#x3a;" horiz-adv-x="303" d="M93 -81 L220 -39 C249 -29 269 -3 269 28 C269 47 260 66 248 79 C236 91 218 99 199 99 C191 99 183 98 176 96 L48 53 C21 44 1 17 1 -13 C1 -33 9 -50 21 -64 C34 -76 52 -85 71 -85 C80 -85 86 -83 93 -81 L93 -81 Z M1 191 C1 171 9 153 21 141 C34 128 52 120 71 120 C80 120 86 122 93 123 L220 166 C249 175 269 201 269 233 C269 252 260 270 248 283 C236 295 218 303 199 303 C191 303 183 302 176 300 L48 257 C21 248 1 221 1 191 L1 191 Z " />
<glyph glyph-name="semicolon" unicode="&#x3b;" horiz-adv-x="313" d="M209 -108 L251 -2 L254 8 L254 9 C254 9 254 9 255 9 L255 10 C256 16 257 22 257 28 C257 47 249 66 236 79 C224 91 206 99 186 99 C179 99 171 98 164 96 L37 53 C9 44 -11 17 -11 -13 C-11 -29 -6 -44 3 -56 L9 -65 C18 -72 28 -78 38 -82 L13 -146 C13 -148 13 -150 14 -152 L15 -153 C17 -155 19 -156 21 -156 L75 -156 C76 -156 77 -156 77 -155 L204 -113 C206 -112 208 -110 209 -108 L209 -108 Z M197 303 C189 303 181 302 175 300 L47 257 C20 248 -1 221 -1 191 C-1 171 7 153 20 141 C32 128 50 120 69 120 C77 120 85 122 91 123 L218 166 C247 175 268 201 268 233 C268 252 259 270 246 283 C234 295 217 303 197 303 L197 303 Z " />
<glyph glyph-name="less" unicode="&#x3c;" horiz-adv-x="376" d="M337 394 C337 395 336 395 334 395 L332 395 L205 352 C204 352 204 352 203 351 L4 225 C1 224 0 221 0 218 L0 122 C0 120 1 117 2 116 L4 115 L204 20 L209 20 L337 63 L338 63 C340 64 342 66 342 68 L342 161 C342 162 341 164 339 166 L337 167 L213 218 L337 290 C340 292 342 294 342 296 L342 389 C342 389 341 391 339 393 C339 393 338 394 337 394 L337 394 Z " />
<glyph glyph-name="equal" unicode="&#x3d;" horiz-adv-x="367" d="M0 277 L0 209 C0 207 1 205 2 203 C4 202 5 201 7 201 L72 201 L5 179 C2 178 0 175 0 173 L0 104 C0 102 1 100 2 98 C4 98 5 97 7 97 L200 97 L328 140 C331 141 332 142 332 145 L332 215 C332 217 332 218 331 219 C329 221 328 221 326 221 L260 221 L328 244 C331 245 332 248 332 251 L332 320 C332 321 332 324 331 325 C329 327 328 327 326 327 L132 327 L5 284 C2 283 0 280 0 277 L0 277 Z " />
<glyph glyph-name="greater" unicode="&#x3e;" horiz-adv-x="376" d="M0 119 L0 27 C0 25 1 22 2 21 C3 21 3 21 4 21 C4 20 6 20 7 20 L9 20 L137 63 L138 63 L337 158 C340 158 342 161 342 163 L342 261 C342 263 341 265 339 267 L338 268 L138 394 C137 395 136 395 134 395 L132 395 L5 352 C4 352 4 352 4 351 C2 351 0 348 0 346 L0 254 C0 252 1 251 2 249 C3 249 4 248 4 248 L129 176 L4 124 C2 123 0 122 0 119 L0 119 Z " />
<glyph glyph-name="question" unicode="&#x3f;" horiz-adv-x="507" d="M39 402 C12 372 -1 337 1 302 C1 300 2 298 4 296 C4 296 4 295 5 295 L104 244 C105 244 106 243 106 243 C107 243 108 243 109 244 L218 280 C210 262 188 247 156 225 C147 218 137 212 125 203 C103 187 87 166 81 139 C76 120 77 102 78 88 C78 86 79 85 80 84 C81 83 83 82 85 82 L183 82 L312 124 C312 124 313 125 313 126 C314 128 315 130 315 132 C314 146 316 158 326 171 C337 184 356 200 392 221 C420 237 441 258 455 281 C468 304 474 331 473 359 C470 392 456 423 431 448 L418 459 C385 485 341 500 294 500 C275 500 257 497 239 491 L113 448 C85 440 59 423 39 402 L39 402 Z M333 28 C333 47 326 65 313 78 C300 90 282 98 263 98 C256 98 248 98 241 95 L114 52 C85 43 65 16 65 -14 C65 -34 73 -51 86 -65 C99 -77 116 -85 136 -85 C143 -85 151 -84 158 -82 L286 -39 C313 -30 333 -4 333 28 L333 28 Z " />
<glyph glyph-name="at" unicode="&#x40;" horiz-adv-x="633" d="M427 26 L531 61 C549 66 563 77 575 93 C590 115 598 146 598 184 L598 298 C598 363 581 412 548 446 C540 454 530 462 520 467 C500 481 475 489 448 494 C427 499 405 500 377 500 L346 500 C304 500 270 496 242 486 L115 444 C89 435 69 423 53 407 C35 389 22 365 12 335 C4 305 0 270 0 227 L0 155 C0 66 17 4 53 -34 C55 -36 56 -38 57 -39 C88 -70 132 -85 191 -85 C212 -85 240 -83 266 -74 L392 -31 C402 -29 410 -25 418 -21 C431 -13 439 -5 442 -1 C444 2 444 6 442 9 L427 26 Z M240 374 C272 374 298 370 319 363 C313 363 309 362 303 360 L218 331 C224 348 231 363 240 374 L240 374 Z M274 62 L281 47 C275 49 267 52 260 56 L274 62 Z " />
<glyph glyph-name="A" unicode="A" horiz-adv-x="571" d="M3 -75 C4 -77 6 -78 8 -78 L128 -78 C128 -78 129 -78 130 -77 L257 -35 L260 -33 L261 -30 C262 -29 262 -26 260 -23 L248 -11 L263 44 L289 -53 L277 -66 C275 -67 275 -71 275 -73 C276 -74 276 -75 277 -75 C278 -77 280 -78 282 -78 L402 -78 C403 -78 404 -78 405 -77 L532 -35 L534 -33 L536 -30 C537 -29 536 -26 534 -23 L522 -10 L393 469 L401 483 C402 483 402 484 402 485 C402 488 401 490 400 491 C398 492 397 493 395 493 L269 493 C269 493 268 493 267 492 L141 450 L137 448 C137 448 136 448 136 447 C135 445 135 442 136 440 L144 427 L15 -53 L3 -66 C1 -67 0 -71 2 -73 C2 -74 3 -75 3 -75 L3 -75 Z " />
<glyph glyph-name="B" unicode="B" horiz-adv-x="506" d="M3 -66 C1 -67 0 -71 2 -73 C2 -74 3 -75 3 -75 C4 -77 6 -78 8 -78 L178 -78 C204 -78 225 -76 243 -72 L259 -67 L386 -25 C400 -21 413 -13 423 -5 C456 22 471 68 471 138 C471 202 457 249 429 277 L428 277 C439 298 444 324 444 356 C444 386 440 409 431 428 C426 440 420 449 411 457 C407 463 402 466 396 470 C364 491 320 493 277 493 L135 493 C134 493 133 493 132 492 L6 450 C4 449 3 448 2 446 C0 444 1 440 3 439 L15 427 L15 -53 L3 -66 Z " />
<glyph glyph-name="C" unicode="C" horiz-adv-x="526" d="M39 -42 C69 -71 115 -86 183 -86 C218 -86 248 -82 273 -73 L399 -30 C423 -23 442 -11 457 4 C482 31 492 69 492 123 L492 174 C492 175 491 177 491 179 C489 180 487 180 485 180 L378 180 L251 138 C249 138 247 136 246 134 C245 132 245 128 248 126 L260 114 L260 107 C260 98 259 88 257 80 C256 81 256 82 254 83 C241 96 233 116 233 149 L233 308 C233 318 234 328 235 336 C237 335 238 333 239 332 L240 332 C250 322 256 309 259 293 L247 280 C245 277 244 275 245 273 L247 270 C248 269 251 269 252 269 L361 269 L487 312 C491 312 492 314 492 318 L492 334 C492 389 482 426 457 452 L453 457 C424 485 377 500 310 500 C275 500 244 496 219 488 L93 446 C69 438 50 426 36 410 C11 383 0 346 0 292 L0 81 C0 27 11 -11 36 -38 L39 -42 Z " />
<glyph glyph-name="D" unicode="D" horiz-adv-x="542" d="M15 426 L15 -53 L3 -66 C1 -67 0 -71 2 -73 C2 -74 3 -75 3 -75 C4 -77 6 -78 8 -78 L222 -78 C246 -78 269 -74 287 -68 L414 -26 C435 -19 452 -9 465 5 C493 32 508 72 508 123 L508 335 C508 383 495 422 471 448 C469 449 468 451 466 452 C440 480 401 493 350 493 L135 493 C134 493 133 493 132 492 L6 450 C4 449 3 448 2 446 C0 444 1 440 3 439 L15 426 Z " />
<glyph glyph-name="E" unicode="E" horiz-adv-x="463" d="M15 -53 L3 -66 C-2 -70 3 -78 8 -78 L294 -78 C294 -78 295 -78 295 -77 L423 -35 C426 -34 428 -31 428 -29 L428 72 C428 74 426 78 419 79 L377 65 L248 65 L248 132 L251 129 C252 128 253 127 255 127 L257 127 L385 170 C388 171 389 174 389 177 L389 292 C389 295 383 301 380 297 L338 284 L248 284 L248 351 L276 351 L289 338 C291 337 293 336 294 336 C294 336 295 337 295 337 L423 379 C423 380 424 380 424 380 C427 380 428 383 428 386 L428 485 C428 490 424 493 422 493 L135 493 C134 493 133 493 132 492 L6 450 C1 448 -1 442 3 439 L15 426 L15 -53 Z " />
<glyph glyph-name="F" unicode="F" horiz-adv-x="463" d="M3 -66 C1 -67 0 -71 2 -73 C2 -74 3 -75 3 -75 C4 -77 6 -78 8 -78 L128 -78 C128 -78 129 -78 130 -77 L257 -35 C259 -34 260 -33 261 -30 C262 -29 262 -26 260 -23 L248 -10 L248 132 L251 129 C252 128 253 127 255 127 L257 127 L385 170 C388 171 389 174 389 177 L389 292 C389 294 389 294 388 295 C387 296 386 297 385 297 C384 298 383 298 382 298 C381 298 380 298 380 297 L338 284 L248 284 L248 351 L276 351 L289 338 C291 337 293 336 294 336 C294 336 295 337 295 337 L423 379 C423 380 424 380 424 380 C427 380 428 383 428 386 L428 485 C428 488 427 490 426 491 C425 492 423 493 422 493 L135 493 C134 493 133 493 132 492 L6 450 C4 449 3 448 2 446 C0 444 1 440 3 439 L15 426 L15 -53 L3 -66 Z " />
<glyph glyph-name="G" unicode="G" horiz-adv-x="527" d="M39 -42 C69 -71 115 -86 183 -86 C218 -86 248 -82 273 -73 L399 -30 C423 -23 442 -11 457 4 C482 31 492 69 492 123 L492 249 C492 251 491 253 491 254 C489 256 487 256 485 256 L302 256 L233 233 L233 308 C233 318 234 328 235 336 L239 332 L239 332 C249 322 256 309 258 293 L246 280 C244 277 243 275 245 273 C245 272 246 271 246 270 C248 269 250 269 252 269 L361 269 L487 312 C491 312 492 314 492 318 L492 334 C492 389 482 426 457 452 L453 457 C423 485 376 500 310 500 C275 500 244 496 219 488 L93 446 C69 438 50 426 36 410 C11 383 0 346 0 292 L0 81 C0 27 11 -11 36 -38 L39 -42 Z M237 115 L260 115 L260 107 C260 98 259 88 257 80 C256 81 256 82 254 83 C246 90 240 101 237 115 L237 115 Z " />
<glyph glyph-name="H" unicode="H" horiz-adv-x="532" d="M15 -54 L3 -66 C1 -68 0 -71 2 -73 C2 -74 3 -75 3 -76 C4 -78 6 -78 8 -78 L130 -78 L251 -38 L251 -54 L237 -66 C236 -68 235 -71 237 -73 C237 -74 237 -75 237 -76 C239 -78 241 -78 243 -78 L365 -78 L492 -35 C494 -35 496 -33 497 -31 C498 -29 498 -26 495 -24 L483 -11 L483 467 L495 481 C497 483 498 484 498 485 C498 487 497 489 495 491 C494 491 492 492 490 492 L368 492 L248 452 L248 467 L260 481 C262 483 262 485 261 488 L260 491 C259 491 257 492 255 492 L132 492 L6 449 C4 448 3 448 2 446 C0 443 1 440 3 439 L15 426 L15 -54 Z M251 -13 L248 -11 L248 142 L251 142 L251 -13 Z M248 428 L251 426 L251 284 L248 284 L248 428 Z " />
<glyph glyph-name="I" unicode="I" horiz-adv-x="296" d="M3 -66 C1 -68 0 -71 2 -73 C2 -74 3 -75 3 -76 C4 -78 6 -78 8 -78 L130 -78 L257 -35 C259 -35 260 -33 261 -31 C262 -29 262 -26 260 -24 L248 -11 L248 467 L260 481 C261 483 262 484 262 485 C262 487 261 489 260 491 C259 491 257 492 255 492 L132 492 L6 449 C4 448 3 448 2 446 C0 443 1 440 3 439 L15 426 L15 -54 L3 -66 Z " />
<glyph glyph-name="J" unicode="J" horiz-adv-x="498" d="M50 -37 C55 -41 59 -45 64 -48 C92 -73 123 -86 158 -86 L177 -86 C193 -86 209 -83 223 -78 L350 -36 C371 -29 389 -17 406 -1 C433 27 448 64 448 101 L448 467 L461 481 C462 483 463 484 463 485 C463 487 462 489 461 491 C459 491 457 492 456 492 L333 492 L206 449 C204 448 202 448 201 446 C200 443 201 440 203 439 L216 426 L216 151 L98 112 C98 112 98 112 97 111 L3 44 C0 42 -1 38 1 35 C13 8 30 -17 50 -37 L50 -37 Z " />
<glyph glyph-name="K" unicode="K" horiz-adv-x="537" d="M3 -66 C1 -68 0 -71 2 -73 C2 -74 3 -75 3 -76 C4 -78 6 -78 8 -78 L130 -78 L233 -44 L237 -54 L225 -66 C222 -68 222 -71 223 -73 C223 -74 224 -75 225 -76 C226 -78 227 -78 230 -78 L370 -78 L498 -35 C500 -35 501 -33 502 -31 C503 -29 502 -26 500 -24 L487 -10 L358 307 L474 466 L474 467 L485 481 C487 483 488 484 488 485 C488 487 487 489 485 491 C484 491 483 492 482 492 L351 492 L248 458 L248 467 L260 481 C262 483 262 485 261 488 L260 491 C259 491 257 492 255 492 L132 492 L6 449 C4 448 3 448 2 446 C0 443 1 440 3 439 L15 426 L15 -54 L3 -66 Z " />
<glyph glyph-name="L" unicode="L" horiz-adv-x="463" d="M3 -66 C1 -67 0 -71 2 -73 C2 -74 3 -75 3 -75 C4 -77 6 -78 8 -78 L294 -78 C294 -78 295 -78 295 -77 L423 -35 C426 -34 428 -31 428 -29 L428 72 C428 74 427 76 426 78 C426 79 425 79 424 80 L419 80 L377 66 L248 66 L248 467 L260 481 C262 483 262 485 261 488 L260 491 C259 491 257 492 255 492 L132 492 L6 449 C4 448 3 448 2 446 C0 444 1 440 3 439 L15 426 L15 -53 L3 -66 Z " />
<glyph glyph-name="M" unicode="M" horiz-adv-x="596" d="M3 -66 C1 -68 0 -71 2 -73 C2 -74 3 -75 3 -76 C4 -78 6 -78 8 -78 L130 -78 L257 -35 C259 -35 260 -33 261 -31 C262 -29 262 -26 260 -24 L248 -11 L248 142 L314 164 L314 -54 L303 -66 C300 -68 300 -71 301 -73 C301 -74 302 -75 303 -76 C303 -78 305 -78 308 -78 L429 -78 L557 -35 C559 -35 560 -33 560 -31 C561 -29 561 -26 560 -24 L547 -11 L547 467 L560 481 C561 483 561 485 560 488 C560 489 560 490 560 491 C559 491 557 492 555 492 L445 492 L317 449 C315 449 314 448 313 447 L297 423 L249 490 C248 490 248 490 248 491 C246 491 244 492 243 492 L132 492 L6 449 C4 448 3 448 2 446 C0 443 1 440 3 439 L15 426 L15 -54 L3 -66 Z " />
<glyph glyph-name="N" unicode="N" horiz-adv-x="517" d="M15 -54 L3 -66 C1 -68 0 -71 2 -73 C2 -74 3 -75 3 -76 C4 -78 6 -78 8 -78 L130 -78 L226 -47 L231 -57 L222 -66 C219 -68 219 -71 220 -73 L222 -76 C223 -78 225 -78 227 -78 L350 -78 L476 -35 C479 -35 480 -33 481 -31 C483 -29 482 -26 480 -24 L466 -11 L466 467 L480 481 C482 483 483 485 481 488 C481 489 480 490 480 491 C478 491 476 492 474 492 L352 492 L260 462 L249 488 L247 491 C246 491 244 492 242 492 L132 492 L6 449 C4 448 3 448 2 446 C0 443 1 440 3 439 L15 426 L15 -54 Z " />
<glyph glyph-name="O" unicode="O" horiz-adv-x="527" d="M39 -42 C69 -72 115 -86 183 -86 C218 -86 248 -82 273 -73 L399 -31 C423 -24 442 -12 457 4 C482 30 492 68 492 123 L492 333 C492 388 482 425 457 451 L453 456 C423 485 376 500 310 500 C275 500 244 496 219 487 L93 445 C69 437 50 425 36 409 C11 383 0 346 0 291 L0 81 C0 27 11 -11 36 -39 C37 -39 38 -41 39 -42 L39 -42 Z " />
<glyph glyph-name="P" unicode="P" horiz-adv-x="483" d="M416 450 L411 457 C388 481 351 493 303 493 L132 492 L6 449 C4 449 3 448 2 446 C0 444 1 440 3 439 L15 426 L15 -53 L3 -66 C1 -67 0 -71 2 -73 C2 -74 3 -75 3 -76 C4 -77 6 -78 8 -78 L128 -78 C128 -78 129 -78 130 -77 L257 -35 C259 -34 260 -33 261 -30 C262 -29 262 -26 260 -23 L248 -11 L248 74 L363 113 C383 120 401 131 414 146 C436 171 448 206 448 248 L448 349 C448 392 437 427 416 450 L416 450 Z " />
<glyph glyph-name="Q" unicode="Q" horiz-adv-x="526" d="M39 -42 C69 -71 115 -86 183 -86 L197 -86 L220 -121 C221 -121 221 -121 221 -122 C223 -123 225 -124 226 -124 L319 -124 L446 -81 C447 -81 448 -79 449 -77 C450 -75 450 -72 448 -70 L417 -24 C445 -11 465 9 476 34 C487 58 492 86 492 123 L492 333 C492 389 482 426 457 452 L453 457 C423 485 376 500 310 500 C275 500 244 496 219 488 L93 446 C69 438 50 426 36 410 C11 383 0 346 0 292 L0 81 C0 27 11 -11 36 -38 L39 -42 Z " />
<glyph glyph-name="R" unicode="R" horiz-adv-x="495" d="M130 -77 L204 -52 L205 -54 L193 -66 C192 -67 191 -71 192 -73 C192 -74 193 -75 194 -75 C195 -77 197 -78 199 -78 L326 -78 C327 -78 328 -78 329 -77 L455 -35 C457 -34 458 -33 459 -30 C461 -29 460 -26 458 -23 L446 -10 L384 123 C405 134 422 151 431 174 C442 195 448 219 448 249 L448 350 C448 392 437 427 416 450 L411 457 C388 482 351 493 303 493 L132 493 L6 450 C4 449 3 448 2 446 C0 444 1 441 3 439 L15 427 L15 -53 L3 -65 C1 -67 0 -70 2 -73 C2 -73 3 -74 3 -75 C4 -76 6 -77 8 -77 L130 -77 Z " />
<glyph glyph-name="S" unicode="S" horiz-adv-x="517" d="M52 204 C77 183 109 165 154 148 L191 132 L103 103 L100 101 L10 30 C8 29 7 26 8 23 C10 14 19 -8 40 -30 L43 -31 C57 -48 75 -59 97 -67 C123 -79 155 -85 190 -85 C218 -85 241 -82 262 -74 L389 -31 C422 -22 446 -3 465 23 C491 62 496 106 497 129 C498 161 488 186 468 210 C465 215 462 218 457 222 C433 246 397 269 350 289 L317 303 L388 326 C389 327 389 327 389 327 L476 384 C479 387 480 389 479 393 C474 402 467 414 460 427 C452 438 446 447 437 455 C434 458 431 461 428 464 C400 488 363 500 316 500 C286 500 258 496 234 487 L106 446 C86 439 69 430 54 418 C20 391 1 354 0 311 C-1 275 12 243 41 215 L52 204 Z " />
<glyph glyph-name="T" unicode="T" horiz-adv-x="508" d="M4 337 C5 337 6 336 7 336 C8 336 9 337 9 337 L51 351 L121 351 L121 -53 L108 -66 C106 -67 106 -71 106 -73 C107 -74 107 -75 108 -75 C109 -77 111 -78 114 -78 L234 -78 C235 -78 235 -78 236 -77 L363 -35 C365 -34 366 -33 367 -30 C369 -29 368 -26 366 -23 L353 -10 L353 340 L469 379 C469 380 469 380 470 380 C473 380 474 383 474 386 L474 485 C474 488 474 490 472 491 C471 492 469 493 466 493 L134 493 C133 493 132 493 132 492 L5 450 C2 449 0 446 0 444 L0 344 C0 342 1 339 2 338 L4 337 Z " />
<glyph glyph-name="U" unicode="U" horiz-adv-x="556" d="M15 426 L15 81 C15 27 27 -11 50 -38 L55 -42 C84 -71 131 -86 198 -86 C234 -86 262 -82 287 -73 L414 -30 C439 -23 457 -11 472 4 C496 31 508 69 508 123 L508 468 L520 482 C525 486 520 493 515 493 L395 493 C394 493 393 493 265 450 C260 448 259 442 262 439 L275 426 L275 161 C275 160 275 159 275 158 L275 107 C275 98 275 88 273 80 L269 83 C256 96 248 116 248 149 L248 468 L260 482 C265 486 260 493 255 493 L135 493 C134 493 133 493 6 450 C1 448 -1 442 3 439 L15 426 Z " />
<glyph glyph-name="V" unicode="V" horiz-adv-x="570" d="M15 426 L143 -54 L136 -67 C134 -69 134 -72 136 -74 C136 -74 136 -75 137 -75 C139 -77 141 -78 142 -78 L268 -78 C269 -78 269 -78 270 -77 L397 -35 C398 -34 400 -33 401 -31 C402 -29 402 -27 401 -25 L392 -11 L522 467 L534 482 C536 483 537 486 535 489 C535 490 534 491 534 491 C533 492 531 493 529 493 L408 493 C408 493 408 493 407 492 L279 450 C277 449 276 448 275 446 C275 444 275 440 277 439 L289 427 L275 371 L248 468 L260 482 C261 483 262 484 262 485 C262 488 261 490 260 491 C259 492 257 493 255 493 L135 493 C134 493 133 493 132 492 L6 450 C4 449 3 448 2 446 C0 444 1 440 3 439 L15 426 Z " />
<glyph glyph-name="W" unicode="W" horiz-adv-x="785" d="M248 468 L260 482 C262 483 262 486 261 489 C260 490 260 491 260 491 C259 492 257 493 255 493 L135 493 C134 493 133 493 132 492 L6 450 C4 449 3 448 2 446 C0 444 1 440 3 439 L15 426 L144 -54 L136 -67 C135 -69 135 -72 136 -74 L137 -75 C139 -77 141 -78 142 -78 L239 -78 C240 -78 241 -78 242 -77 L364 -37 L373 -73 L375 -75 C377 -77 379 -78 380 -78 L483 -78 C483 -78 484 -78 484 -77 L612 -35 C614 -34 615 -33 616 -31 C617 -29 617 -27 616 -25 L608 -11 L736 467 L749 482 C750 483 750 484 750 485 C750 488 750 490 749 491 C748 492 746 493 744 493 L624 493 C623 493 622 493 621 492 L494 450 C492 449 491 448 490 446 C489 444 490 440 491 439 L503 427 L496 397 L480 468 L491 482 C494 483 494 486 493 489 C493 490 492 491 491 491 C491 492 489 493 486 493 L360 493 C359 493 358 493 357 492 L252 457 L248 468 Z " />
<glyph glyph-name="X" unicode="X" horiz-adv-x="560" d="M510 -10 L391 247 L488 468 L501 482 C503 483 503 486 502 489 C502 490 501 491 500 491 C500 492 498 493 496 493 L375 493 C374 493 374 493 373 492 L275 460 L271 468 L283 482 C285 483 286 486 284 489 C284 490 283 491 283 491 C281 492 279 493 277 493 L158 493 C158 493 157 493 156 492 L28 450 C27 449 25 448 24 446 C23 444 23 440 26 439 L38 426 L134 205 L15 -52 L3 -66 C1 -67 0 -71 2 -73 C2 -74 3 -75 3 -75 C4 -77 6 -78 8 -78 L128 -78 C128 -78 129 -78 130 -77 L257 -35 C259 -34 260 -33 261 -30 C262 -29 262 -26 260 -23 L249 -11 L253 -1 L277 -54 L266 -66 C264 -67 263 -71 264 -73 C265 -74 265 -75 266 -75 C268 -77 269 -78 271 -78 L390 -78 C391 -78 392 -78 393 -77 L521 -35 C522 -34 524 -33 525 -30 C525 -29 525 -26 523 -23 L510 -10 Z " />
<glyph glyph-name="Y" unicode="Y" horiz-adv-x="519" d="M15 426 L128 172 L128 -53 L115 -66 C114 -67 113 -71 115 -73 C115 -74 115 -75 115 -75 C117 -77 119 -78 121 -78 L241 -78 C242 -78 242 -78 243 -77 L370 -35 C371 -34 373 -33 374 -30 C375 -29 375 -26 372 -23 L361 -10 L361 215 L470 467 L483 482 C484 483 485 486 484 489 C484 490 484 491 483 491 C482 492 480 493 478 493 L358 493 C357 493 356 493 355 492 L254 459 L249 469 L260 482 C261 483 262 484 262 485 C262 488 261 490 260 491 C259 492 257 493 255 493 L135 493 C134 493 133 493 132 492 L6 450 C4 449 3 448 2 446 C0 444 1 440 3 439 L15 426 Z " />
<glyph glyph-name="Z" unicode="Z" horiz-adv-x="486" d="M0 444 L0 344 C0 342 1 339 2 338 L4 337 C5 337 6 336 7 336 C8 336 9 337 9 337 L51 351 L196 351 L3 22 C2 21 1 20 1 18 L1 -71 C1 -73 2 -74 4 -75 C4 -77 6 -78 9 -78 L318 -78 C319 -78 320 -78 320 -77 L447 -35 C449 -34 452 -31 452 -29 L452 72 C452 73 451 75 449 77 C449 78 448 78 448 79 L443 79 L401 65 L256 65 L449 393 C450 394 450 396 450 397 L450 485 C450 488 449 490 448 491 C447 492 446 493 444 493 L150 492 L132 492 L5 449 C2 448 0 446 0 444 L0 444 Z " />
<glyph glyph-name="bracketleft" unicode="&#x5b;" horiz-adv-x="358" d="M144 553 L143 552 L132 552 L6 509 C4 508 3 508 2 505 C0 503 1 500 3 499 L15 485 L15 -113 L3 -124 C1 -127 0 -130 2 -133 C2 -133 3 -134 3 -135 C4 -136 6 -137 8 -137 L17 -137 C18 -138 18 -138 19 -138 L190 -138 C191 -138 192 -138 192 -137 L320 -95 C322 -94 324 -91 324 -88 L324 18 C324 20 323 21 322 23 C321 23 320 24 320 24 C319 25 318 25 317 25 L314 25 L274 10 L248 10 L248 409 L320 433 C322 435 324 438 324 440 L324 546 C324 548 323 550 322 551 C320 552 319 553 317 553 L144 553 Z " />
<glyph glyph-name="backslash" unicode="&#x5c;" horiz-adv-x="464" d="M232 496 C232 497 231 498 230 498 C229 500 227 500 225 500 L134 500 C133 500 132 500 132 500 L5 457 L1 455 C0 453 0 450 1 448 L197 -80 C197 -81 198 -82 199 -82 C199 -84 200 -85 203 -85 L294 -85 C294 -85 295 -84 296 -84 L423 -42 C425 -41 427 -40 427 -39 C428 -37 428 -34 427 -32 L232 496 Z " />
<glyph glyph-name="bracketright" unicode="&#x5d;" horiz-adv-x="358" d="M79 6 L8 -18 L7 -18 C4 -19 3 -22 3 -25 L3 -130 C3 -133 4 -134 4 -135 C6 -137 8 -138 9 -138 L192 -138 C192 -138 193 -138 193 -137 L320 -95 C322 -94 324 -92 326 -90 C327 -87 326 -85 324 -82 L312 -69 L312 528 L324 541 C325 542 326 543 326 545 C326 548 325 550 324 551 C322 552 320 553 319 553 L134 553 L8 510 C4 509 3 507 3 503 L3 397 C3 396 4 394 4 393 C5 392 6 391 7 391 C8 390 9 390 9 390 C10 390 11 390 12 391 L54 406 L79 406 L79 6 Z " />
<glyph glyph-name="asciicircum" unicode="&#x5e;" horiz-adv-x="494" d="M460 283 L460 289 L421 371 L365 489 C364 490 364 490 364 491 C364 491 363 491 363 491 L363 491 C362 492 361 493 360 493 L258 493 L131 450 C131 450 130 449 129 449 C129 448 128 448 128 448 L127 448 L1 247 C0 246 0 244 0 243 L0 243 C0 242 0 241 1 240 C1 239 2 239 2 238 C4 237 5 237 7 237 L101 237 L214 275 L218 261 L227 241 C227 240 228 239 228 239 L229 238 C229 237 230 237 231 237 C232 237 233 237 235 237 L329 237 L456 279 C457 279 457 280 458 281 L459 281 L459 282 L460 283 Z " />
<glyph glyph-name="underscore" unicode="&#x5f;" horiz-adv-x="559" d="M43 -33 C42 -33 41 -34 40 -34 L-86 -76 C-90 -78 -91 -81 -91 -83 L-91 -152 C-91 -154 -90 -156 -90 -158 C-88 -159 -86 -159 -85 -159 L301 -159 L427 -116 C431 -116 432 -113 432 -109 L432 -41 C432 -39 431 -37 431 -36 C429 -34 427 -33 426 -33 L43 -33 Z " />
<glyph glyph-name="grave" unicode="&#x60;" horiz-adv-x="238" d="M76 390 C85 393 97 397 106 401 C116 404 127 407 138 411 C147 414 158 417 167 422 C179 424 190 428 200 431 C203 432 205 437 205 440 L194 508 C193 511 191 514 187 514 L135 514 C134 514 133 513 132 513 C123 510 111 507 102 503 C91 500 81 496 70 492 C60 490 47 485 38 482 C28 479 16 475 7 471 C3 469 0 465 2 461 L39 393 C40 390 43 389 46 389 L73 389 C74 390 75 390 76 390 L76 390 Z " />
<glyph glyph-name="a" unicode="a" horiz-adv-x="571" d="M3 -75 C4 -77 6 -78 8 -78 L128 -78 C128 -78 129 -78 130 -77 L257 -35 L260 -33 L261 -30 C262 -29 262 -26 260 -23 L248 -11 L263 44 L289 -53 L277 -66 C275 -67 275 -71 275 -73 C276 -74 276 -75 277 -75 C278 -77 280 -78 282 -78 L402 -78 C403 -78 404 -78 405 -77 L532 -35 L534 -33 L536 -30 C537 -29 536 -26 534 -23 L522 -10 L393 469 L401 483 C402 483 402 484 402 485 C402 488 401 490 400 491 C398 492 397 493 395 493 L269 493 C269 493 268 493 267 492 L141 450 L137 448 C137 448 136 448 136 447 C135 445 135 442 136 440 L144 427 L15 -53 L3 -66 C1 -67 0 -71 2 -73 C2 -74 3 -75 3 -75 L3 -75 Z " />
<glyph glyph-name="b" unicode="b" horiz-adv-x="506" d="M3 -66 C1 -67 0 -71 2 -73 C2 -74 3 -75 3 -75 C4 -77 6 -78 8 -78 L178 -78 C204 -78 225 -76 243 -72 L259 -67 L386 -25 C400 -21 413 -13 423 -5 C456 22 471 68 471 138 C471 202 457 249 429 277 L428 277 C439 298 444 324 444 356 C444 386 440 409 431 428 C426 440 420 449 411 457 C407 463 402 466 396 470 C364 491 320 493 277 493 L135 493 C134 493 133 493 132 492 L6 450 C4 449 3 448 2 446 C0 444 1 440 3 439 L15 427 L15 -53 L3 -66 Z " />
<glyph glyph-name="c" unicode="c" horiz-adv-x="526" d="M39 -42 C69 -71 115 -86 183 -86 C218 -86 248 -82 273 -73 L399 -30 C423 -23 442 -11 457 4 C482 31 492 69 492 123 L492 174 C492 175 491 177 491 179 C489 180 487 180 485 180 L378 180 L251 138 C249 138 247 136 246 134 C245 132 245 128 248 126 L260 114 L260 107 C260 98 259 88 257 80 C256 81 256 82 254 83 C241 96 233 116 233 149 L233 308 C233 318 234 328 235 336 C237 335 238 333 239 332 L240 332 C250 322 256 309 259 293 L247 280 C245 277 244 275 245 273 L247 270 C248 269 251 269 252 269 L361 269 L487 312 C491 312 492 314 492 318 L492 334 C492 389 482 426 457 452 L453 457 C424 485 377 500 310 500 C275 500 244 496 219 488 L93 446 C69 438 50 426 36 410 C11 383 0 346 0 292 L0 81 C0 27 11 -11 36 -38 L39 -42 Z " />
<glyph glyph-name="d" unicode="d" horiz-adv-x="542" d="M15 426 L15 -53 L3 -66 C1 -67 0 -71 2 -73 C2 -74 3 -75 3 -75 C4 -77 6 -78 8 -78 L222 -78 C246 -78 269 -74 287 -68 L414 -26 C435 -19 452 -9 465 5 C493 32 508 72 508 123 L508 335 C508 383 495 422 471 448 C469 449 468 451 466 452 C440 480 401 493 350 493 L135 493 C134 493 133 493 132 492 L6 450 C4 449 3 448 2 446 C0 444 1 440 3 439 L15 426 Z " />
<glyph glyph-name="e" unicode="e" horiz-adv-x="463" d="M15 -53 L3 -66 C-2 -70 3 -78 8 -78 L294 -78 C294 -78 295 -78 295 -77 L423 -35 C426 -34 428 -31 428 -29 L428 72 C428 74 426 78 419 79 L377 65 L248 65 L248 132 L251 129 C252 128 253 127 255 127 L257 127 L385 170 C388 171 389 174 389 177 L389 292 C389 295 383 301 380 297 L338 284 L248 284 L248 351 L276 351 L289 338 C291 337 293 336 294 336 C294 336 295 337 295 337 L423 379 C423 380 424 380 424 380 C427 380 428 383 428 386 L428 485 C428 490 424 493 422 493 L135 493 C134 493 133 493 132 492 L6 450 C1 448 -1 442 3 439 L15 426 L15 -53 Z " />
<glyph glyph-name="f" unicode="f" horiz-adv-x="463" d="M3 -66 C1 -67 0 -71 2 -73 C2 -74 3 -75 3 -75 C4 -77 6 -78 8 -78 L128 -78 C128 -78 129 -78 130 -77 L257 -35 C259 -34 260 -33 261 -30 C262 -29 262 -26 260 -23 L248 -10 L248 132 L251 129 C252 128 253 127 255 127 L257 127 L385 170 C388 171 389 174 389 177 L389 292 C389 294 389 294 388 295 C387 296 386 297 385 297 C384 298 383 298 382 298 C381 298 380 298 380 297 L338 284 L248 284 L248 351 L276 351 L289 338 C291 337 293 336 294 336 C294 336 295 337 295 337 L423 379 C423 380 424 380 424 380 C427 380 428 383 428 386 L428 485 C428 488 427 490 426 491 C425 492 423 493 422 493 L135 493 C134 493 133 493 132 492 L6 450 C4 449 3 448 2 446 C0 444 1 440 3 439 L15 426 L15 -53 L3 -66 Z " />
<glyph glyph-name="g" unicode="g" horiz-adv-x="527" d="M39 -42 C69 -71 115 -86 183 -86 C218 -86 248 -82 273 -73 L399 -30 C423 -23 442 -11 457 4 C482 31 492 69 492 123 L492 249 C492 251 491 253 491 254 C489 256 487 256 485 256 L302 256 L233 233 L233 308 C233 318 234 328 235 336 L239 332 L239 332 C249 322 256 309 258 293 L246 280 C244 277 243 275 245 273 C245 272 246 271 246 270 C248 269 250 269 252 269 L361 269 L487 312 C491 312 492 314 492 318 L492 334 C492 389 482 426 457 452 L453 457 C423 485 376 500 310 500 C275 500 244 496 219 488 L93 446 C69 438 50 426 36 410 C11 383 0 346 0 292 L0 81 C0 27 11 -11 36 -38 L39 -42 Z M237 115 L260 115 L260 107 C260 98 259 88 257 80 C256 81 256 82 254 83 C246 90 240 101 237 115 L237 115 Z " />
<glyph glyph-name="h" unicode="h" horiz-adv-x="532" d="M15 -54 L3 -66 C1 -68 0 -71 2 -73 C2 -74 3 -75 3 -76 C4 -78 6 -78 8 -78 L130 -78 L251 -38 L251 -54 L237 -66 C236 -68 235 -71 237 -73 C237 -74 237 -75 237 -76 C239 -78 241 -78 243 -78 L365 -78 L492 -35 C494 -35 496 -33 497 -31 C498 -29 498 -26 495 -24 L483 -11 L483 467 L495 481 C497 483 498 484 498 485 C498 487 497 489 495 491 C494 491 492 492 490 492 L368 492 L248 452 L248 467 L260 481 C262 483 262 485 261 488 L260 491 C259 491 257 492 255 492 L132 492 L6 449 C4 448 3 448 2 446 C0 443 1 440 3 439 L15 426 L15 -54 Z M251 -13 L248 -11 L248 142 L251 142 L251 -13 Z M248 428 L251 426 L251 284 L248 284 L248 428 Z " />
<glyph glyph-name="i" unicode="i" horiz-adv-x="296" d="M3 -66 C1 -68 0 -71 2 -73 C2 -74 3 -75 3 -76 C4 -78 6 -78 8 -78 L130 -78 L257 -35 C259 -35 260 -33 261 -31 C262 -29 262 -26 260 -24 L248 -11 L248 467 L260 481 C261 483 262 484 262 485 C262 487 261 489 260 491 C259 491 257 492 255 492 L132 492 L6 449 C4 448 3 448 2 446 C0 443 1 440 3 439 L15 426 L15 -54 L3 -66 Z " />
<glyph glyph-name="j" unicode="j" horiz-adv-x="498" d="M50 -37 C55 -41 59 -45 64 -48 C92 -73 123 -86 158 -86 L177 -86 C193 -86 209 -83 223 -78 L350 -36 C371 -29 389 -17 406 -1 C433 27 448 64 448 101 L448 467 L461 481 C462 483 463 484 463 485 C463 487 462 489 461 491 C459 491 457 492 456 492 L333 492 L206 449 C204 448 202 448 201 446 C200 443 201 440 203 439 L216 426 L216 151 L98 112 C98 112 98 112 97 111 L3 44 C0 42 -1 38 1 35 C13 8 30 -17 50 -37 L50 -37 Z " />
<glyph glyph-name="k" unicode="k" horiz-adv-x="537" d="M3 -66 C1 -68 0 -71 2 -73 C2 -74 3 -75 3 -76 C4 -78 6 -78 8 -78 L130 -78 L233 -44 L237 -54 L225 -66 C222 -68 222 -71 223 -73 C223 -74 224 -75 225 -76 C226 -78 227 -78 230 -78 L370 -78 L498 -35 C500 -35 501 -33 502 -31 C503 -29 502 -26 500 -24 L487 -10 L358 307 L474 466 L474 467 L485 481 C487 483 488 484 488 485 C488 487 487 489 485 491 C484 491 483 492 482 492 L351 492 L248 458 L248 467 L260 481 C262 483 262 485 261 488 L260 491 C259 491 257 492 255 492 L132 492 L6 449 C4 448 3 448 2 446 C0 443 1 440 3 439 L15 426 L15 -54 L3 -66 Z " />
<glyph glyph-name="l" unicode="l" horiz-adv-x="463" d="M3 -66 C1 -67 0 -71 2 -73 C2 -74 3 -75 3 -75 C4 -77 6 -78 8 -78 L294 -78 C294 -78 295 -78 295 -77 L423 -35 C426 -34 428 -31 428 -29 L428 72 C428 74 427 76 426 78 C426 79 425 79 424 80 L419 80 L377 66 L248 66 L248 467 L260 481 C262 483 262 485 261 488 L260 491 C259 491 257 492 255 492 L132 492 L6 449 C4 448 3 448 2 446 C0 444 1 440 3 439 L15 426 L15 -53 L3 -66 Z " />
<glyph glyph-name="m" unicode="m" horiz-adv-x="596" d="M3 -66 C1 -68 0 -71 2 -73 C2 -74 3 -75 3 -76 C4 -78 6 -78 8 -78 L130 -78 L257 -35 C259 -35 260 -33 261 -31 C262 -29 262 -26 260 -24 L248 -11 L248 142 L314 164 L314 -54 L303 -66 C300 -68 300 -71 301 -73 C301 -74 302 -75 303 -76 C303 -78 305 -78 308 -78 L429 -78 L557 -35 C559 -35 560 -33 560 -31 C561 -29 561 -26 560 -24 L547 -11 L547 467 L560 481 C561 483 561 485 560 488 C560 489 560 490 560 491 C559 491 557 492 555 492 L445 492 L317 449 C315 449 314 448 313 447 L297 423 L249 490 C248 490 248 490 248 491 C246 491 244 492 243 492 L132 492 L6 449 C4 448 3 448 2 446 C0 443 1 440 3 439 L15 426 L15 -54 L3 -66 Z " />
<glyph glyph-name="n" unicode="n" horiz-adv-x="517" d="M15 -54 L3 -66 C1 -68 0 -71 2 -73 C2 -74 3 -75 3 -76 C4 -78 6 -78 8 -78 L130 -78 L226 -47 L231 -57 L222 -66 C219 -68 219 -71 220 -73 L222 -76 C223 -78 225 -78 227 -78 L350 -78 L476 -35 C479 -35 480 -33 481 -31 C483 -29 482 -26 480 -24 L466 -11 L466 467 L480 481 C482 483 483 485 481 488 C481 489 480 490 480 491 C478 491 476 492 474 492 L352 492 L260 462 L249 488 L247 491 C246 491 244 492 242 492 L132 492 L6 449 C4 448 3 448 2 446 C0 443 1 440 3 439 L15 426 L15 -54 Z " />
<glyph glyph-name="o" unicode="o" horiz-adv-x="527" d="M39 -42 C69 -72 115 -86 183 -86 C218 -86 248 -82 273 -73 L399 -31 C423 -24 442 -12 457 4 C482 30 492 68 492 123 L492 333 C492 388 482 425 457 451 L453 456 C423 485 376 500 310 500 C275 500 244 496 219 487 L93 445 C69 437 50 425 36 409 C11 383 0 346 0 291 L0 81 C0 27 11 -11 36 -39 C37 -39 38 -41 39 -42 L39 -42 Z " />
<glyph glyph-name="p" unicode="p" horiz-adv-x="483" d="M416 450 L411 457 C388 481 351 493 303 493 L132 492 L6 449 C4 449 3 448 2 446 C0 444 1 440 3 439 L15 426 L15 -53 L3 -66 C1 -67 0 -71 2 -73 C2 -74 3 -75 3 -76 C4 -77 6 -78 8 -78 L128 -78 C128 -78 129 -78 130 -77 L257 -35 C259 -34 260 -33 261 -30 C262 -29 262 -26 260 -23 L248 -11 L248 74 L363 113 C383 120 401 131 414 146 C436 171 448 206 448 248 L448 349 C448 392 437 427 416 450 L416 450 Z " />
<glyph glyph-name="q" unicode="q" horiz-adv-x="526" d="M39 -42 C69 -71 115 -86 183 -86 L197 -86 L220 -121 C221 -121 221 -121 221 -122 C223 -123 225 -124 226 -124 L319 -124 L446 -81 C447 -81 448 -79 449 -77 C450 -75 450 -72 448 -70 L417 -24 C445 -11 465 9 476 34 C487 58 492 86 492 123 L492 333 C492 389 482 426 457 452 L453 457 C423 485 376 500 310 500 C275 500 244 496 219 488 L93 446 C69 438 50 426 36 410 C11 383 0 346 0 292 L0 81 C0 27 11 -11 36 -38 L39 -42 Z " />
<glyph glyph-name="r" unicode="r" horiz-adv-x="495" d="M130 -77 L204 -52 L205 -54 L193 -66 C192 -67 191 -71 192 -73 C192 -74 193 -75 194 -75 C195 -77 197 -78 199 -78 L326 -78 C327 -78 328 -78 329 -77 L455 -35 C457 -34 458 -33 459 -30 C461 -29 460 -26 458 -23 L446 -10 L384 123 C405 134 422 151 431 174 C442 195 448 219 448 249 L448 350 C448 392 437 427 416 450 L411 457 C388 482 351 493 303 493 L132 493 L6 450 C4 449 3 448 2 446 C0 444 1 441 3 439 L15 427 L15 -53 L3 -65 C1 -67 0 -70 2 -73 C2 -73 3 -74 3 -75 C4 -76 6 -77 8 -77 L130 -77 Z " />
<glyph glyph-name="s" unicode="s" horiz-adv-x="517" d="M52 204 C77 183 109 165 154 148 L191 132 L103 103 L100 101 L10 30 C8 29 7 26 8 23 C10 14 19 -8 40 -30 L43 -31 C57 -48 75 -59 97 -67 C123 -79 155 -85 190 -85 C218 -85 241 -82 262 -74 L389 -31 C422 -22 446 -3 465 23 C491 62 496 106 497 129 C498 161 488 186 468 210 C465 215 462 218 457 222 C433 246 397 269 350 289 L317 303 L388 326 C389 327 389 327 389 327 L476 384 C479 387 480 389 479 393 C474 402 467 414 460 427 C452 438 446 447 437 455 C434 458 431 461 428 464 C400 488 363 500 316 500 C286 500 258 496 234 487 L106 446 C86 439 69 430 54 418 C20 391 1 354 0 311 C-1 275 12 243 41 215 L52 204 Z " />
<glyph glyph-name="t" unicode="t" horiz-adv-x="508" d="M4 337 C5 337 6 336 7 336 C8 336 9 337 9 337 L51 351 L121 351 L121 -53 L108 -66 C106 -67 106 -71 106 -73 C107 -74 107 -75 108 -75 C109 -77 111 -78 114 -78 L234 -78 C235 -78 235 -78 236 -77 L363 -35 C365 -34 366 -33 367 -30 C369 -29 368 -26 366 -23 L353 -10 L353 340 L469 379 C469 380 469 380 470 380 C473 380 474 383 474 386 L474 485 C474 488 474 490 472 491 C471 492 469 493 466 493 L134 493 C133 493 132 493 132 492 L5 450 C2 449 0 446 0 444 L0 344 C0 342 1 339 2 338 L4 337 Z " />
<glyph glyph-name="u" unicode="u" horiz-adv-x="556" d="M15 426 L15 81 C15 27 27 -11 50 -38 L55 -42 C84 -71 131 -86 198 -86 C234 -86 262 -82 287 -73 L414 -30 C439 -23 457 -11 472 4 C496 31 508 69 508 123 L508 468 L520 482 C522 483 522 486 522 489 C521 490 521 491 520 491 C518 492 517 493 515 493 L395 493 C394 493 393 493 392 492 L265 450 C263 449 261 448 260 446 C260 444 260 440 262 439 L275 426 L275 161 C275 160 275 159 275 158 L275 107 C275 98 275 88 273 80 L269 83 C256 96 248 116 248 149 L248 468 L260 482 C261 483 262 484 262 485 C262 488 261 490 260 491 C259 492 257 493 255 493 L135 493 C134 493 133 493 132 492 L6 450 C4 449 3 448 2 446 C0 444 1 440 3 439 L15 426 Z " />
<glyph glyph-name="v" unicode="v" horiz-adv-x="570" d="M15 426 L143 -54 L136 -67 C134 -69 134 -72 136 -74 C136 -74 136 -75 137 -75 C139 -77 141 -78 142 -78 L268 -78 C269 -78 269 -78 270 -77 L397 -35 C398 -34 400 -33 401 -31 C402 -29 402 -27 401 -25 L392 -11 L522 467 L534 482 C536 483 537 486 535 489 C535 490 534 491 534 491 C533 492 531 493 529 493 L408 493 C408 493 408 493 407 492 L279 450 C277 449 276 448 275 446 C275 444 275 440 277 439 L289 427 L275 371 L248 468 L260 482 C261 483 262 484 262 485 C262 488 261 490 260 491 C259 492 257 493 255 493 L135 493 C134 493 133 493 132 492 L6 450 C4 449 3 448 2 446 C0 444 1 440 3 439 L15 426 Z " />
<glyph glyph-name="w" unicode="w" horiz-adv-x="785" d="M248 468 L260 482 C262 483 262 486 261 489 C260 490 260 491 260 491 C259 492 257 493 255 493 L135 493 C134 493 133 493 132 492 L6 450 C4 449 3 448 2 446 C0 444 1 440 3 439 L15 426 L144 -54 L136 -67 C135 -69 135 -72 136 -74 L137 -75 C139 -77 141 -78 142 -78 L239 -78 C240 -78 241 -78 242 -77 L364 -37 L373 -73 L375 -75 C377 -77 379 -78 380 -78 L483 -78 C483 -78 484 -78 484 -77 L612 -35 C614 -34 615 -33 616 -31 C617 -29 617 -27 616 -25 L608 -11 L736 467 L749 482 C750 483 750 484 750 485 C750 488 750 490 749 491 C748 492 746 493 744 493 L624 493 C623 493 622 493 621 492 L494 450 C492 449 491 448 490 446 C489 444 490 440 491 439 L503 427 L496 397 L480 468 L491 482 C494 483 494 486 493 489 C493 490 492 491 491 491 C491 492 489 493 486 493 L360 493 C359 493 358 493 357 492 L252 457 L248 468 Z " />
<glyph glyph-name="x" unicode="x" horiz-adv-x="560" d="M510 -10 L391 247 L488 468 L501 482 C503 483 503 486 502 489 C502 490 501 491 500 491 C500 492 498 493 496 493 L375 493 C374 493 374 493 373 492 L275 460 L271 468 L283 482 C285 483 286 486 284 489 C284 490 283 491 283 491 C281 492 279 493 277 493 L158 493 C158 493 157 493 156 492 L28 450 C27 449 25 448 24 446 C23 444 23 440 26 439 L38 426 L134 205 L15 -52 L3 -66 C1 -67 0 -71 2 -73 C2 -74 3 -75 3 -75 C4 -77 6 -78 8 -78 L128 -78 C128 -78 129 -78 130 -77 L257 -35 C259 -34 260 -33 261 -30 C262 -29 262 -26 260 -23 L249 -11 L253 -1 L277 -54 L266 -66 C264 -67 263 -71 264 -73 C265 -74 265 -75 266 -75 C268 -77 269 -78 271 -78 L390 -78 C391 -78 392 -78 393 -77 L521 -35 C522 -34 524 -33 525 -30 C525 -29 525 -26 523 -23 L510 -10 Z " />
<glyph glyph-name="y" unicode="y" horiz-adv-x="519" d="M15 426 L128 172 L128 -53 L115 -66 C114 -67 113 -71 115 -73 C115 -74 115 -75 115 -75 C117 -77 119 -78 121 -78 L241 -78 C242 -78 242 -78 243 -77 L370 -35 C371 -34 373 -33 374 -30 C375 -29 375 -26 372 -23 L361 -10 L361 215 L470 467 L483 482 C484 483 485 486 484 489 C484 490 484 491 483 491 C482 492 480 493 478 493 L358 493 C357 493 356 493 355 492 L254 459 L249 469 L260 482 C261 483 262 484 262 485 C262 488 261 490 260 491 C259 492 257 493 255 493 L135 493 C134 493 133 493 132 492 L6 450 C4 449 3 448 2 446 C0 444 1 440 3 439 L15 426 Z " />
<glyph glyph-name="z" unicode="z" horiz-adv-x="486" d="M0 444 L0 344 C0 342 1 339 2 338 L4 337 C5 337 6 336 7 336 C8 336 9 337 9 337 L51 351 L196 351 L3 22 C2 21 1 20 1 18 L1 -71 C1 -73 2 -74 4 -75 C4 -77 6 -78 9 -78 L318 -78 C319 -78 320 -78 320 -77 L447 -35 C449 -34 452 -31 452 -29 L452 72 C452 73 451 75 449 77 C449 78 448 78 448 79 L443 79 L401 65 L256 65 L449 393 C450 394 450 396 450 397 L450 485 C450 488 449 490 448 491 C447 492 446 493 444 493 L150 492 L132 492 L5 449 C2 448 0 446 0 444 L0 444 Z " />
<glyph glyph-name="braceleft" unicode="&#x7b;" horiz-adv-x="351" d="M15 378 C24 333 28 294 28 263 C27 225 18 199 3 187 C1 185 0 183 0 181 C0 180 1 178 2 176 L3 176 C4 175 5 175 6 173 C20 160 27 135 28 100 C28 68 24 29 15 -15 C11 -35 11 -54 14 -72 C17 -89 25 -105 35 -117 C37 -119 38 -122 41 -124 C59 -142 84 -151 114 -151 L183 -151 C183 -151 183 -150 184 -150 L312 -108 C314 -107 317 -105 317 -102 L317 8 C317 9 316 11 314 12 C313 12 313 13 313 13 C312 14 311 14 310 14 C309 14 309 14 308 13 L269 1 C263 3 258 5 255 9 C254 9 253 10 253 11 C245 21 243 35 246 53 C247 61 250 68 252 77 C257 98 263 121 263 145 C263 175 255 200 237 224 C255 247 263 273 263 302 C263 328 257 350 252 370 C250 379 247 388 246 395 C244 400 244 406 244 411 L312 433 L313 433 C315 435 317 438 317 440 L317 549 C317 551 316 553 314 554 C313 556 312 557 310 557 L241 557 C227 557 215 554 203 551 L76 508 C60 503 46 493 35 480 C25 466 17 452 14 434 C11 417 11 398 15 378 L15 378 Z " />
<glyph glyph-name="bar" unicode="&#x7c;" horiz-adv-x="267" d="M233 -71 L233 522 C233 524 232 525 231 526 C229 528 227 529 226 529 L134 529 C133 529 132 528 132 528 L5 486 C2 484 0 483 0 480 L0 -114 C0 -116 1 -117 2 -119 C4 -120 5 -121 7 -121 L101 -121 L228 -78 C231 -77 233 -74 233 -71 L233 -71 Z " />
<glyph glyph-name="braceright" unicode="&#x7d;" horiz-adv-x="351" d="M317 218 C318 219 320 221 320 224 C320 226 319 227 317 229 C315 230 314 231 313 233 C300 245 293 270 292 305 C291 337 294 375 304 421 C309 440 309 459 305 477 C302 494 294 509 285 522 C283 524 281 526 278 528 C260 546 236 557 205 557 L137 557 C136 557 135 556 134 556 L8 514 C4 513 3 509 3 507 L3 397 C3 396 4 394 4 393 C5 392 6 391 7 391 C8 390 9 390 9 390 C10 390 11 390 12 391 L50 405 C56 403 61 400 65 397 C65 396 66 395 66 394 C74 385 77 370 73 352 L67 329 C63 308 56 285 56 260 C56 231 65 205 83 181 C65 158 56 132 56 104 C56 78 63 55 67 35 C70 27 72 18 73 10 C74 5 75 -1 75 -6 L8 -29 L7 -29 C4 -30 3 -32 3 -35 L3 -143 C3 -146 4 -148 4 -149 C6 -150 8 -151 9 -151 L79 -151 C92 -151 104 -149 116 -145 L243 -103 C260 -98 274 -88 285 -74 C294 -62 302 -48 305 -29 C309 -12 309 7 304 27 C294 72 291 111 292 142 C293 180 301 206 317 218 L317 218 Z " />
<glyph glyph-name="asciitilde" unicode="&#x7e;" horiz-adv-x="507" d="M152 113 L230 139 L233 136 C235 134 237 131 238 128 C241 123 243 117 243 114 C243 113 244 111 245 110 C246 109 248 108 251 108 L337 107 C338 107 338 108 339 108 L466 150 L469 153 C471 154 472 156 472 158 C470 183 462 213 448 235 C444 240 439 247 431 253 C416 269 393 282 360 282 C344 282 332 280 321 277 L239 250 C237 253 235 256 233 260 C230 266 229 272 228 275 C228 277 227 278 226 279 C225 280 223 281 221 281 L132 281 L5 238 C4 238 3 237 2 237 C1 235 0 234 0 232 C1 206 10 177 25 156 C29 149 34 142 40 137 C56 122 80 106 114 106 C130 106 142 109 152 113 L152 113 Z " />
<glyph glyph-name="exclamdown" unicode="&#xa1;" horiz-adv-x="382" d="M252 202 C252 204 252 206 251 207 C250 209 247 209 245 209 L158 209 C157 209 156 209 156 209 L28 166 C26 166 23 163 23 160 L2 -196 L2 -197 C2 -199 3 -200 4 -201 C5 -202 7 -203 9 -203 L142 -203 L269 -161 C270 -161 271 -160 272 -159 C274 -159 274 -156 274 -154 L252 202 Z M70 192 C79 192 85 192 92 195 L219 237 C248 246 269 273 269 304 C269 324 260 341 247 354 C235 367 218 374 198 374 C190 374 182 373 175 371 L47 329 C21 320 0 294 0 261 C0 242 8 225 21 212 C33 199 51 192 70 192 L70 192 Z " />
<glyph glyph-name="cent" unicode="&#xa2;" horiz-adv-x="464" d="M215 216 L296 216 L424 258 C427 259 429 261 429 265 L429 277 C428 316 422 345 407 366 C404 370 400 374 396 379 C379 396 353 407 320 412 L320 471 C320 473 319 474 317 475 C316 477 314 478 313 478 L243 478 C243 478 242 478 241 477 L114 435 C111 434 109 431 109 428 L109 372 L77 362 C53 354 35 341 22 324 C7 302 0 274 0 235 L0 132 C0 92 7 64 22 43 C26 38 29 34 32 29 C50 12 75 2 109 -4 L109 -65 C109 -67 110 -68 111 -69 C113 -71 115 -72 116 -72 L185 -72 C186 -72 187 -72 187 -71 L314 -29 C317 -29 320 -25 320 -22 L320 36 L352 47 C376 55 394 66 406 85 C422 106 429 134 429 174 L429 215 C429 217 428 218 427 219 C426 220 424 221 422 221 L335 221 L216 181 C216 185 215 191 215 196 L215 216 Z " />
<glyph glyph-name="sterling" unicode="&#xa3;" horiz-adv-x="544" d="M33 130 L33 -71 C33 -73 34 -74 36 -75 C37 -77 38 -78 41 -78 L200 -78 C237 -78 269 -73 294 -65 L422 -23 C443 -15 461 -5 474 9 C499 33 509 70 509 123 L509 175 C509 176 508 178 508 179 C506 180 504 181 503 181 L397 181 C397 181 396 181 395 180 L269 139 C268 139 267 138 267 138 L267 149 L338 173 C341 174 343 177 343 180 L343 271 C343 273 342 275 341 276 C339 277 337 277 336 277 L267 277 L267 284 L384 323 C384 323 385 324 386 324 L480 391 C483 393 483 397 482 400 C472 421 460 438 446 452 C414 483 372 500 325 500 L305 500 C289 500 274 498 259 492 L132 450 C111 444 92 431 76 415 C48 389 33 352 33 313 L33 245 L5 235 C2 235 0 232 0 229 L0 138 C0 135 1 133 2 132 C4 131 5 130 7 130 L33 130 Z M267 125 L277 114 L277 107 C277 91 275 77 271 65 L267 65 L267 125 Z " />
<glyph glyph-name="currency" unicode="&#xa4;" horiz-adv-x="577" d="M51 409 L2 360 C1 359 0 357 0 355 C0 353 1 351 2 351 L46 307 C31 282 25 251 25 209 L25 160 C25 118 31 86 46 62 L2 19 C-1 16 -1 11 2 9 L51 -40 C52 -41 54 -42 55 -42 L58 -42 L168 -5 C181 -6 194 -7 208 -7 C243 -7 273 -3 297 6 L305 9 L354 -40 C355 -42 357 -42 359 -42 L361 -42 L488 1 C489 1 490 2 491 3 L540 51 C542 54 542 58 540 61 L497 104 C510 129 517 161 517 201 L517 252 C517 294 510 325 497 350 L540 392 C542 396 542 400 540 403 L491 451 C490 453 488 454 485 454 C485 454 484 453 484 453 L372 416 C361 417 348 418 334 418 C299 418 269 414 244 406 L237 403 L188 451 C186 453 184 454 183 454 C182 454 181 453 180 453 L54 411 C53 410 51 409 51 409 L51 409 Z " />
<glyph glyph-name="yen" unicode="&#xa5;" horiz-adv-x="518" d="M470 468 L483 482 C484 483 484 484 484 486 C484 488 484 490 483 491 C482 492 480 493 478 493 L355 493 L254 459 L249 469 L260 482 C262 483 262 486 261 489 L260 491 C259 492 257 493 255 493 L132 493 L6 450 C4 449 3 448 2 446 C0 444 1 441 3 439 L15 426 L104 226 L83 219 C81 218 78 217 78 213 L78 143 C78 142 79 141 81 140 C81 138 83 137 85 137 L128 137 L128 130 L83 115 C81 114 78 111 78 107 L78 38 C78 37 79 35 81 33 C81 32 83 31 85 31 L128 31 L128 -53 L115 -66 C114 -67 113 -70 115 -73 C115 -74 115 -74 115 -75 C117 -77 119 -78 121 -78 L241 -78 C242 -78 242 -77 243 -77 L370 -35 C371 -34 373 -32 374 -30 C375 -29 375 -25 372 -23 L361 -10 L361 59 L406 74 C408 75 410 78 410 81 L410 150 C410 152 409 154 408 155 C407 157 406 158 404 158 L361 158 L361 164 L406 180 C408 180 410 183 410 186 L410 256 C410 257 409 259 408 260 C407 261 406 262 404 262 L381 262 L470 468 Z " />
<glyph glyph-name="brokenbar" unicode="&#xa6;" horiz-adv-x="267" d="M226 200 L132 200 L5 158 C2 158 0 155 0 151 L0 -113 C0 -116 1 -117 2 -118 C4 -120 5 -121 7 -121 L98 -121 C99 -121 100 -120 101 -120 L228 -78 C231 -77 233 -73 233 -71 L233 194 C233 196 232 198 231 199 C229 200 227 200 226 200 L226 200 Z M233 522 C233 524 232 525 231 526 C229 528 227 529 226 529 L134 529 C133 529 132 529 132 528 L5 486 C2 485 0 483 0 480 L0 215 C0 213 1 211 2 210 C4 209 5 208 7 208 L98 208 C99 208 100 208 101 209 L228 251 C231 252 233 254 233 257 L233 522 Z " />
<glyph glyph-name="section" unicode="&#xa7;" horiz-adv-x="542" d="M474 287 C455 307 425 325 385 342 L359 353 L417 372 C418 372 418 372 419 373 L489 420 C491 422 493 426 491 428 C484 444 474 464 457 480 L450 485 C427 506 396 517 357 517 C332 517 309 513 288 506 L161 464 C145 458 131 450 118 441 C89 420 74 389 73 352 C72 337 76 322 82 309 C57 299 38 286 24 268 C9 248 1 225 0 199 C-1 169 11 142 34 119 L44 111 C64 93 90 78 127 64 C139 59 149 55 158 50 L84 27 L81 25 L9 -31 C6 -33 5 -37 7 -40 C9 -48 16 -65 33 -83 C34 -83 35 -84 35 -85 C47 -97 63 -107 80 -115 C103 -124 128 -128 158 -128 C180 -128 200 -125 218 -120 L345 -77 C371 -68 391 -53 407 -31 C428 0 432 37 433 56 C433 65 432 73 431 81 C460 94 481 116 493 146 C504 171 506 197 507 209 C507 235 500 257 483 277 C481 280 478 284 474 287 L474 287 Z " />
<glyph glyph-name="dieresis" unicode="&#xa8;" horiz-adv-x="330" d="M38 389 C50 389 62 394 72 397 L98 406 C117 377 150 393 176 402 C194 407 212 414 229 420 C252 427 285 432 294 456 C302 478 288 503 265 508 C252 510 238 504 226 500 C217 498 208 494 199 491 C180 518 150 505 125 498 L79 482 L31 465 C13 461 0 447 0 427 C0 406 18 389 38 389 L38 389 Z " />
<glyph glyph-name="copyright" unicode="&#xa9;" horiz-adv-x="538" d="M299 430 C280 430 262 427 245 422 L118 379 C93 371 70 356 50 337 C18 304 0 261 0 216 L0 165 C0 119 18 76 50 44 C83 10 126 -8 173 -8 L203 -8 C222 -8 240 -5 257 2 L385 44 C409 52 432 66 452 85 C484 118 503 161 503 208 L503 258 C503 303 484 347 452 380 C420 412 376 430 330 430 L299 430 Z " />
<glyph glyph-name="ordfeminine" unicode="&#xaa;" horiz-adv-x="274" d="M1 298 C2 297 3 297 4 297 L64 297 C64 297 64 297 65 297 L128 318 L130 319 L130 321 C131 321 131 323 130 324 L124 330 L131 358 L144 309 L138 303 C137 302 137 300 137 299 C138 299 138 298 138 298 C139 297 140 297 141 297 L201 297 C201 297 202 297 202 297 L266 318 L267 319 L268 321 C268 321 268 323 267 324 L261 331 L196 570 L200 577 C201 577 201 578 201 578 C201 580 200 581 200 581 C199 582 198 582 197 582 L134 582 C134 582 134 582 133 582 L70 561 L68 560 C68 560 68 560 68 559 C67 558 67 557 68 556 L72 549 L7 309 L1 303 C0 302 0 300 1 299 C1 299 1 298 1 298 L1 298 Z " />
<glyph glyph-name="guillemotleft" unicode="&#xab;" horiz-adv-x="568" d="M530 394 C529 395 528 395 526 395 L525 395 L397 352 C397 352 397 352 396 351 L342 316 L342 389 C342 389 341 391 339 393 C339 393 338 394 337 394 C337 395 336 395 334 395 L332 395 L205 352 C204 352 204 352 203 351 L4 220 C1 218 0 218 0 215 L0 158 C0 157 1 155 2 153 C3 153 3 152 4 152 L203 22 C204 21 206 21 208 21 C208 21 209 21 209 21 L333 63 L396 22 C397 21 398 21 400 21 C400 21 401 21 402 21 L529 64 L530 64 C533 65 534 67 534 70 L534 161 C534 163 534 165 532 166 C531 166 531 167 530 167 L396 229 L530 291 C533 292 534 294 534 296 L534 389 C534 389 534 391 532 393 C532 393 531 394 530 394 L530 394 Z M203 229 L219 236 L206 227 L203 229 Z " />
<glyph glyph-name="logicalnot" unicode="&#xac;" horiz-adv-x="433" d="M397 308 C396 310 394 311 391 311 L134 311 C133 311 132 311 132 310 L5 268 C2 267 0 264 0 260 L0 192 C0 190 1 188 2 186 C4 185 5 184 7 184 L189 184 L189 129 C189 126 190 124 191 123 C192 123 194 122 196 122 L265 122 C266 122 266 122 267 123 L394 164 C397 165 399 168 399 171 L399 303 C399 305 398 307 397 308 L397 308 Z " />
<glyph glyph-name="uni00AD" unicode="&#xad;" horiz-adv-x="367" d="M0 233 L0 163 C0 161 1 160 2 158 C4 158 5 157 7 157 L200 157 L328 199 C331 200 332 202 332 206 L332 275 C332 277 332 278 331 279 C329 281 328 282 326 282 L134 282 C133 282 132 281 132 281 L5 239 C2 238 0 235 0 233 L0 233 Z " />
<glyph glyph-name="registered" unicode="&#xae;" horiz-adv-x="474" d="M203 141 L331 182 C354 191 376 204 394 223 C424 255 440 295 440 339 C440 383 424 425 394 456 L391 459 C363 488 324 504 284 504 C268 504 252 502 237 497 L109 454 C85 446 64 432 47 414 C16 382 0 341 0 297 C0 253 16 212 47 181 L48 178 C78 149 116 132 157 132 C173 132 189 135 203 141 L203 141 Z " />
<glyph glyph-name="macron" unicode="&#xaf;" horiz-adv-x="367" d="M132 503 L5 461 C2 460 0 457 0 454 L0 401 C0 398 1 397 2 396 C4 394 5 393 7 393 L199 393 C199 393 200 394 200 394 L328 436 C331 437 332 440 332 443 L332 497 C332 499 332 500 331 502 C329 503 328 503 326 503 L132 503 Z " />
<glyph glyph-name="degree" unicode="&#xb0;" horiz-adv-x="322" d="M272 397 C283 408 288 425 288 448 L288 470 C288 494 283 510 273 522 L271 524 C257 538 237 543 208 543 C192 543 180 542 168 539 L41 496 C30 492 22 487 16 481 C5 468 0 451 0 427 L0 406 C0 383 5 366 15 354 C16 354 17 353 17 352 C30 339 51 332 81 332 C96 332 108 334 120 338 L247 380 C257 384 266 389 272 397 L272 397 Z " />
<glyph glyph-name="plusminus" unicode="&#xb1;" horiz-adv-x="367" d="M332 89 L332 159 C332 161 332 162 331 164 C329 165 328 166 326 166 L216 166 L269 183 C271 184 273 187 273 191 L273 226 L328 244 C331 245 332 248 332 252 L332 320 C332 322 332 324 331 326 C329 327 328 328 326 328 L273 328 L273 381 C273 384 272 386 271 387 C269 389 268 389 266 389 L194 389 C193 389 192 389 192 389 L65 346 C62 346 60 342 60 339 L60 303 L5 285 C2 284 0 281 0 277 L0 209 C0 207 1 205 2 204 C4 202 5 201 7 201 L60 201 L60 148 C60 146 61 144 62 142 L63 142 L5 123 C2 123 0 120 0 116 L0 47 C0 46 1 44 2 43 C4 41 5 40 7 40 L199 40 C199 40 200 40 200 41 L328 83 C331 84 332 86 332 89 L332 89 Z " />
<glyph glyph-name="twosuperior" unicode="&#xb2;" horiz-adv-x="274" d="M117 581 L53 559 C40 555 27 547 18 537 C6 524 0 509 1 492 C1 492 1 491 2 490 L2 489 L52 461 C53 461 53 460 54 460 C54 460 54 461 55 461 L117 481 C117 478 117 474 115 472 C109 459 96 452 80 444 C67 436 52 428 37 416 C4 388 1 360 2 346 L2 300 C2 299 2 299 3 298 C3 297 4 297 5 297 L160 297 C161 297 161 297 162 297 L225 318 C227 319 228 320 228 321 L228 375 C228 376 227 376 227 377 C226 377 226 378 225 378 L223 378 L202 371 L127 371 C128 382 141 390 161 402 C168 407 177 412 187 418 C223 443 240 471 238 504 C236 527 228 546 213 560 L210 564 C194 578 173 586 148 586 C137 586 127 584 117 581 L117 581 Z " />
<glyph glyph-name="threesuperior" unicode="&#xb3;" horiz-adv-x="263" d="M69 582 C69 582 68 582 68 582 L4 561 C3 560 2 559 2 558 L2 504 C2 504 2 502 3 502 C3 502 4 502 4 501 L6 501 L27 508 L79 508 L19 455 C18 454 18 453 18 452 L18 407 C18 406 18 406 19 405 C19 405 19 405 19 405 C20 404 21 404 22 404 C22 404 23 404 23 404 L30 407 C37 409 49 411 63 411 L65 411 C80 411 90 404 96 398 L42 380 L40 379 L1 349 C0 347 -1 346 0 344 C4 334 9 325 17 317 C21 313 26 309 32 306 C45 298 62 293 79 293 C90 293 101 295 110 298 L174 319 C184 322 193 328 201 333 C209 341 215 350 220 360 C225 372 228 386 228 401 C228 415 224 428 217 440 C214 445 211 449 207 453 C203 457 199 460 194 463 C182 471 169 475 165 476 L219 530 C220 530 220 530 220 531 L220 578 C220 580 220 581 219 581 C218 582 217 582 216 582 L69 582 Z " />
<glyph glyph-name="acute" unicode="&#xb4;" horiz-adv-x="251" d="M145 509 C136 507 124 503 115 500 C104 497 93 493 83 489 C72 486 62 483 51 478 C41 475 29 472 20 467 C17 466 14 465 14 462 L2 398 C1 393 4 389 9 389 L42 389 C51 392 63 397 72 400 C83 403 94 407 104 411 C115 414 125 417 136 422 C146 424 158 428 167 431 C169 432 171 433 172 435 L216 500 C218 503 216 510 209 510 L149 510 C147 510 146 509 145 509 L145 509 Z " />
<glyph glyph-name="mu" unicode="&#xb5;" horiz-adv-x="596" d="M3 -66 C1 -68 0 -71 2 -73 C2 -74 3 -75 3 -76 C4 -78 6 -78 8 -78 L130 -78 L257 -35 C259 -35 260 -33 261 -31 C262 -29 262 -26 260 -24 L248 -11 L248 142 L314 164 L314 -54 L303 -66 C300 -68 300 -71 301 -73 C301 -74 302 -75 303 -76 C303 -78 305 -78 308 -78 L429 -78 L557 -35 C559 -35 560 -33 560 -31 C561 -29 561 -26 560 -24 L547 -11 L547 467 L560 481 C561 483 561 485 560 488 C560 489 560 490 560 491 C559 491 557 492 555 492 L445 492 L317 449 C315 449 314 448 313 447 L297 423 L249 490 C248 490 248 490 248 491 C246 491 244 492 243 492 L132 492 L6 449 C4 448 3 448 2 446 C0 443 1 440 3 439 L15 426 L15 -54 L3 -66 Z " />
<glyph glyph-name="paragraph" unicode="&#xb6;" horiz-adv-x="583" d="M534 468 L547 481 C548 483 549 484 549 485 C549 487 548 490 547 491 C545 492 543 492 542 492 L279 493 L271 493 C269 493 267 493 264 492 L258 492 C240 491 224 489 209 484 L82 442 C60 434 42 422 28 406 C9 381 0 348 0 306 L0 206 C0 164 11 128 33 104 C35 103 37 101 38 99 C63 74 98 62 144 62 L149 62 L149 -53 L137 -66 C135 -67 134 -71 135 -73 C136 -74 136 -75 137 -75 C139 -77 141 -78 142 -78 L261 -78 C262 -78 263 -78 264 -77 L288 -69 C287 -71 287 -72 288 -73 C289 -74 289 -75 290 -75 C291 -77 293 -78 294 -78 L414 -78 C415 -78 416 -78 417 -77 L543 -35 C546 -34 547 -33 548 -30 C550 -29 549 -26 547 -23 L534 -10 L534 468 Z " />
<glyph glyph-name="periodcentered" unicode="&#xb7;" horiz-adv-x="303" d="M0 200 C0 180 8 163 21 149 C33 137 51 128 70 128 C79 128 85 130 92 132 L219 174 C248 184 269 210 269 241 C269 260 260 279 247 292 C235 304 218 312 198 312 C190 312 182 311 175 309 L47 266 C21 257 0 230 0 200 L0 200 Z " />
<glyph glyph-name="cedilla" unicode="&#xb8;" horiz-adv-x="304" d="M18 -182 C16 -183 15 -184 15 -187 L15 -244 C15 -247 16 -249 18 -250 C19 -252 21 -253 23 -253 L63 -253 C78 -253 90 -251 102 -246 L228 -204 C237 -201 245 -197 252 -191 C263 -179 269 -160 269 -133 L269 -118 C269 -95 268 -77 258 -65 L255 -61 C242 -48 223 -48 207 -48 L199 -48 L199 -18 C199 -16 199 -14 198 -13 C196 -12 194 -11 192 -11 L134 -11 C133 -11 132 -11 132 -12 L5 -54 C2 -55 0 -57 0 -61 L0 -97 C0 -124 2 -141 9 -150 C10 -150 10 -151 11 -151 C19 -160 32 -162 54 -162 L55 -162 C55 -161 56 -161 57 -161 C63 -161 66 -162 67 -164 L68 -164 L21 -181 C20 -181 19 -181 18 -182 L18 -182 Z " />
<glyph glyph-name="onesuperior" unicode="&#xb9;" horiz-adv-x="189" d="M0 517 L2 470 C2 469 2 468 2 467 C3 467 4 466 4 466 L6 466 L30 474 L30 309 L24 303 C23 302 23 300 23 299 C23 299 23 298 24 298 C25 297 26 297 27 297 L87 297 C87 297 87 297 88 297 L151 318 C152 319 153 320 154 321 C154 321 154 323 153 324 L147 331 L147 570 L153 576 C154 577 154 578 154 580 L153 581 C152 581 151 582 150 582 L95 582 L32 560 C31 560 31 560 30 559 L1 519 C0 518 0 517 0 517 L0 517 Z " />
<glyph glyph-name="ordmasculine" unicode="&#xba;" horiz-adv-x="322" d="M272 397 C283 408 288 425 288 448 L288 470 C288 494 283 510 273 522 L271 524 C257 538 237 543 208 543 C192 543 180 542 168 539 L41 496 C30 492 22 487 16 481 C5 468 0 451 0 427 L0 406 C0 383 5 366 15 354 C16 354 17 353 17 352 C30 339 51 332 81 332 C96 332 108 334 120 338 L247 380 C257 384 266 389 272 397 L272 397 Z " />
<glyph glyph-name="guillemotright" unicode="&#xbb;" horiz-adv-x="568" d="M194 23 C195 22 196 22 196 21 C197 21 199 21 199 21 C200 21 200 21 201 21 L329 64 L330 64 L531 195 C533 196 534 199 534 200 L534 257 C534 259 534 260 532 262 C532 262 531 262 531 263 L330 394 C329 395 328 395 327 395 L324 395 L200 353 L138 394 C137 395 136 395 134 395 L132 395 L5 352 L4 352 C2 351 0 348 0 346 L0 255 C0 252 1 251 2 250 L4 248 L139 186 L4 125 C2 123 0 122 0 119 L0 28 C0 26 1 24 2 23 C3 22 4 22 4 21 C5 21 6 21 7 21 C8 21 9 21 9 21 L137 64 L138 64 L192 99 L192 28 C192 26 193 24 194 23 L194 23 Z M331 186 L315 180 L328 188 L331 186 Z " />
<glyph glyph-name="onequarter" unicode="&#xbc;" horiz-adv-x="876" d="M171 -86 C173 -87 174 -88 176 -88 L269 -88 L396 -46 C398 -45 400 -43 401 -41 L596 486 C597 487 597 488 597 489 C597 491 596 493 596 494 C594 496 592 497 591 497 L499 497 C499 497 498 496 498 496 L369 454 C368 453 367 451 366 449 L170 -79 C169 -81 169 -83 170 -85 C171 -86 171 -86 171 -86 L171 -86 Z M0 404 L3 335 C3 333 3 332 4 330 C4 329 6 329 7 329 L9 329 L46 341 L46 93 L36 83 C35 83 35 80 35 78 C35 77 35 77 36 77 C37 75 39 74 40 74 L130 74 C131 74 131 74 132 75 L227 107 C229 107 230 109 231 110 C232 111 231 113 229 116 L220 125 L220 484 L229 494 C231 495 232 497 231 499 L229 501 C228 501 227 502 226 502 L143 502 L48 470 C47 470 46 469 46 468 L1 407 C0 406 0 405 0 404 L0 404 Z M471 121 L471 54 C471 52 472 51 472 49 C474 49 475 49 476 49 L619 49 L619 -40 L610 -50 C608 -50 608 -53 608 -55 C609 -56 609 -56 610 -56 C611 -58 613 -59 614 -59 L704 -59 C705 -59 705 -59 706 -58 L801 -26 C802 -26 804 -24 805 -23 C805 -22 805 -20 803 -17 L794 -8 L794 55 L838 70 L838 70 C840 70 841 73 841 75 L841 150 C841 151 841 152 839 154 C839 154 838 155 835 155 L794 155 L794 350 L803 361 C805 362 805 364 805 366 C804 367 803 367 803 368 C802 368 801 369 799 369 L717 369 L621 337 C620 337 619 336 619 335 L472 123 C472 122 471 121 471 121 L471 121 Z " />
<glyph glyph-name="onehalf" unicode="&#xbd;" horiz-adv-x="908" d="M171 -86 C173 -87 174 -88 176 -88 L269 -88 L396 -46 C398 -45 400 -43 401 -41 L596 486 C597 487 597 488 597 489 C597 491 596 493 596 494 C594 496 592 497 591 497 L499 497 C499 497 498 496 498 496 L369 454 C368 453 367 451 366 449 L170 -79 C169 -81 169 -83 170 -85 C171 -86 171 -86 171 -86 L171 -86 Z M0 404 L3 335 C3 333 3 332 4 330 C4 329 6 329 7 329 L9 329 L46 341 L46 93 L36 83 C35 83 35 80 35 78 C35 77 35 77 36 77 C37 75 39 74 40 74 L130 74 C131 74 131 74 132 75 L227 107 C229 107 230 109 231 110 C232 111 231 113 229 116 L220 125 L220 484 L229 494 C231 495 232 497 231 499 L229 501 C228 501 227 502 226 502 L143 502 L48 470 C47 470 46 469 46 468 L1 407 C0 406 0 405 0 404 L0 404 Z M693 367 L596 335 C577 328 558 317 544 302 C526 283 517 259 518 235 C518 234 519 232 520 231 L521 230 L595 187 C596 187 596 187 598 187 C598 187 599 187 599 187 L693 218 C693 214 692 208 690 204 C680 184 662 175 638 162 C617 150 596 139 572 120 C524 78 518 36 520 16 L520 -53 C520 -55 520 -56 521 -56 C522 -58 524 -59 524 -59 L758 -59 C758 -59 759 -59 760 -58 L855 -26 C857 -26 859 -23 859 -22 L859 58 C859 60 858 61 857 62 C857 62 856 63 855 64 L851 64 L821 52 L708 52 C709 70 728 82 758 100 C770 106 783 115 797 124 C851 160 878 203 874 253 C872 286 859 316 837 337 L833 342 C809 363 776 375 739 375 C723 375 707 372 693 367 L693 367 Z " />
<glyph glyph-name="threequarters" unicode="&#xbe;" horiz-adv-x="947" d="M245 -86 C247 -87 248 -88 250 -88 L343 -88 L470 -46 C472 -45 474 -43 475 -41 L670 486 C671 487 671 488 671 489 C671 491 670 493 670 494 C668 496 666 497 665 497 L573 497 C573 497 572 496 572 496 L443 454 C442 453 441 451 440 449 L244 -79 C243 -81 243 -83 244 -85 C245 -86 245 -86 245 -86 L245 -86 Z M104 503 C103 503 103 502 102 502 L7 470 C4 469 3 467 3 466 L3 386 C3 385 4 383 5 382 C5 382 6 382 7 381 L10 381 L41 392 L118 392 L28 311 C28 311 27 309 27 308 L27 240 C27 239 28 238 28 237 C28 236 29 236 29 236 C30 236 31 235 33 235 C34 235 34 235 34 236 L46 239 C56 242 73 245 95 245 L98 245 C121 245 136 236 145 227 L63 200 L61 198 L2 152 C0 150 -1 149 0 146 C6 130 14 116 25 105 C32 98 40 93 48 89 C67 76 93 68 119 68 C136 68 151 71 166 77 L262 108 C277 113 290 121 301 129 C313 140 323 154 330 170 C337 187 342 208 342 230 C342 252 336 271 326 289 C322 296 316 302 310 309 C304 314 298 319 292 323 C273 336 254 342 247 344 L328 424 C330 425 330 425 330 426 L330 497 C330 499 330 500 328 501 C328 502 326 503 324 503 L104 503 Z M542 121 L542 54 C542 52 543 51 543 49 C545 49 546 49 547 49 L690 49 L690 -40 L681 -50 C679 -50 679 -53 679 -55 C680 -56 680 -56 681 -56 C682 -58 684 -59 685 -59 L775 -59 C776 -59 776 -59 777 -58 L872 -26 C873 -26 875 -24 876 -23 C876 -22 876 -20 874 -17 L865 -8 L865 55 L909 70 L909 70 C911 70 912 73 912 75 L912 150 C912 151 912 152 910 154 C910 154 909 155 906 155 L865 155 L865 350 L874 361 C876 362 876 364 876 366 C875 367 874 367 874 368 C873 368 872 369 870 369 L788 369 L692 337 C691 337 690 336 690 335 L543 123 C543 122 542 121 542 121 L542 121 Z " />
<glyph glyph-name="questiondown" unicode="&#xbf;" horiz-adv-x="507" d="M472 -35 C471 -34 470 -34 470 -33 L371 17 C370 18 369 18 368 18 L365 18 L256 -19 C259 -13 262 -9 267 -4 C277 9 294 21 319 37 L349 58 C356 64 363 69 370 76 C381 89 389 105 394 123 C398 142 397 160 397 174 C397 175 396 177 395 178 C393 180 391 180 389 180 L294 180 C293 180 292 180 291 180 L164 138 L161 135 C160 134 159 132 159 130 C160 116 158 104 149 90 L144 86 C133 73 115 60 82 40 C64 29 48 17 36 4 C29 -5 25 -11 21 -19 C6 -43 0 -69 3 -98 C5 -131 20 -162 44 -185 C47 -190 52 -194 57 -198 C89 -224 133 -238 180 -238 C199 -238 218 -236 235 -229 L363 -186 C389 -177 415 -162 435 -141 L438 -137 C463 -108 475 -74 474 -39 C474 -38 473 -36 472 -35 L472 -35 Z M212 163 C219 163 226 165 235 166 L361 209 C372 214 384 220 391 230 C403 242 409 258 409 276 C409 295 402 313 389 327 C376 338 358 347 338 347 C331 347 323 346 316 344 L190 301 C178 296 166 290 159 280 C148 269 141 252 141 235 C141 215 149 197 161 183 C175 171 192 163 212 163 L212 163 Z " />
<glyph glyph-name="Agrave" unicode="&#xc0;" horiz-adv-x="571" d="M2 -75 C3 -77 5 -78 7 -78 L127 -78 C127 -78 128 -78 129 -77 L256 -35 L259 -33 L260 -30 C261 -29 261 -26 259 -23 L247 -11 L262 44 L288 -53 L276 -66 C274 -67 274 -71 274 -73 C275 -74 275 -75 276 -75 C277 -77 279 -78 281 -78 L401 -78 C402 -78 403 -78 404 -77 L531 -35 L533 -33 L535 -30 C536 -29 535 -26 533 -23 L521 -10 L392 469 L400 483 C401 483 401 484 401 485 C401 488 400 490 399 491 C397 492 396 493 394 493 L268 493 C268 493 267 493 266 492 L140 450 L136 448 C136 448 135 448 135 447 C134 445 134 442 135 440 L143 427 L14 -53 L2 -66 C0 -67 -1 -71 1 -73 C1 -74 2 -75 2 -75 L2 -75 Z M350 578 C352 580 353 582 352 584 L342 652 L340 655 C339 657 337 658 334 658 L283 658 C282 658 281 658 281 657 L154 615 C153 614 151 613 150 611 C149 609 149 607 150 605 L187 537 C187 536 187 536 187 535 C189 534 191 533 193 533 L221 533 L348 576 C349 576 349 577 350 578 L350 578 Z " />
<glyph glyph-name="Aacute" unicode="&#xc1;" horiz-adv-x="571" d="M2 -75 C3 -77 5 -78 7 -78 L127 -78 C127 -78 128 -78 129 -77 L256 -35 L259 -33 L260 -30 C261 -29 261 -26 259 -23 L247 -11 L262 44 L288 -53 L276 -66 C274 -67 274 -71 274 -73 C275 -74 275 -75 276 -75 C277 -77 279 -78 281 -78 L401 -78 C402 -78 403 -78 404 -77 L531 -35 L533 -33 L535 -30 C536 -29 535 -26 533 -23 L521 -10 L392 469 L400 483 C401 483 401 484 401 485 C401 488 400 490 399 491 C397 492 396 493 394 493 L268 493 C268 493 267 493 266 492 L140 450 L136 448 C136 448 135 448 135 447 C134 445 134 442 135 440 L143 427 L14 -53 L2 -66 C0 -67 -1 -71 1 -73 C1 -74 2 -75 2 -75 L2 -75 Z M321 653 L195 611 C192 610 190 609 189 607 L177 542 C177 540 177 538 179 536 L179 535 C180 534 182 533 184 533 L217 533 L343 576 C345 576 346 577 348 579 L392 644 C393 644 393 646 393 647 C393 649 392 651 391 652 C389 653 387 654 385 654 L324 654 C323 654 322 654 321 653 L321 653 Z " />
<glyph glyph-name="Acircumflex" unicode="&#xc2;" horiz-adv-x="571" d="M2 -75 C3 -77 5 -78 7 -78 L127 -78 C127 -78 128 -78 129 -77 L256 -35 L259 -33 L260 -30 C261 -29 261 -26 259 -23 L247 -11 L262 44 L288 -53 L276 -66 C274 -67 274 -71 274 -73 C275 -74 275 -75 276 -75 C277 -77 279 -78 281 -78 L401 -78 C402 -78 403 -78 404 -77 L531 -35 L533 -33 L535 -30 C536 -29 535 -26 533 -23 L521 -10 L392 469 L400 483 C401 483 401 484 401 485 C401 488 400 490 399 491 C397 492 396 493 394 493 L268 493 C268 493 267 493 266 492 L140 450 L136 448 C136 448 135 448 135 447 C134 445 134 442 135 440 L143 427 L14 -53 L2 -66 C0 -67 -1 -71 1 -73 C1 -74 2 -75 2 -75 L2 -75 Z M165 623 L96 546 C94 544 93 542 95 539 C95 538 96 538 96 537 C97 535 99 534 101 534 L164 534 C164 534 165 535 165 535 L228 556 L239 538 C239 538 239 537 240 537 C241 535 243 534 245 534 L309 534 C310 534 311 535 311 535 L439 577 C440 578 441 580 442 580 C444 583 444 585 442 588 L388 665 C388 665 388 666 387 666 C387 667 386 668 384 668 L295 668 L169 625 C167 625 166 624 165 623 L165 623 Z " />
<glyph glyph-name="Atilde" unicode="&#xc3;" horiz-adv-x="571" d="M2 -75 C3 -77 5 -78 7 -78 L127 -78 C127 -78 128 -78 129 -77 L256 -35 L259 -33 L260 -30 C261 -29 261 -26 259 -23 L247 -11 L262 44 L288 -53 L276 -66 C274 -67 274 -71 274 -73 C275 -74 275 -75 276 -75 C277 -77 279 -78 281 -78 L401 -78 C402 -78 403 -78 404 -77 L531 -35 L533 -33 L535 -30 C536 -29 535 -26 533 -23 L521 -10 L392 469 L400 483 C401 483 401 484 401 485 C401 488 400 490 399 491 C397 492 396 493 394 493 L268 493 C268 493 267 493 266 492 L140 450 L136 448 C136 448 135 448 135 447 C134 445 134 442 135 440 L143 427 L14 -53 L2 -66 C0 -67 -1 -71 1 -73 C1 -74 2 -75 2 -75 L2 -75 Z M413 648 C403 659 388 666 368 666 C360 666 353 666 347 664 L290 644 L286 654 C286 656 285 657 285 658 C283 660 281 661 279 661 L227 661 C226 661 225 661 225 660 L98 618 L95 616 C94 614 93 612 93 609 C93 604 96 581 108 559 C112 552 116 548 121 542 C133 531 148 524 164 524 C173 524 179 525 185 528 L243 547 C244 547 244 546 244 546 C246 543 247 541 247 538 C247 537 248 535 249 534 C251 533 252 533 254 533 L309 533 L436 575 C437 575 438 576 439 577 C440 579 440 581 440 583 C440 590 438 611 425 632 C422 638 418 644 413 648 L413 648 Z " />
<glyph glyph-name="Adieresis" unicode="&#xc4;" horiz-adv-x="571" d="M2 -75 C3 -77 5 -78 7 -78 L127 -78 C127 -78 128 -78 129 -77 L256 -35 L259 -33 L260 -30 C261 -29 261 -26 259 -23 L247 -11 L262 44 L288 -53 L276 -66 C274 -67 274 -71 274 -73 C275 -74 275 -75 276 -75 C277 -77 279 -78 281 -78 L401 -78 C402 -78 403 -78 404 -77 L531 -35 L533 -33 L535 -30 C536 -29 535 -26 533 -23 L521 -10 L392 469 L400 483 C401 483 401 484 401 485 C401 488 400 490 399 491 C397 492 396 493 394 493 L268 493 C268 493 267 493 266 492 L140 450 L136 448 C136 448 135 448 135 447 C134 445 134 442 135 440 L143 427 L14 -53 L2 -66 C0 -67 -1 -71 1 -73 C1 -74 2 -75 2 -75 L2 -75 Z M158 533 C163 533 167 533 171 534 L218 550 L223 544 C229 537 240 533 250 533 C254 533 259 533 262 534 L389 576 C405 582 415 596 415 613 C415 625 412 634 405 642 C397 648 388 652 377 652 C373 652 369 652 364 651 L319 635 L313 642 C306 648 297 652 286 652 C281 652 278 652 274 651 L147 609 C131 603 120 589 120 571 C120 560 124 551 131 544 C139 537 148 533 158 533 L158 533 Z " />
<glyph glyph-name="Aring" unicode="&#xc5;" horiz-adv-x="570" d="M534 -23 L522 -10 L396 458 C396 459 397 459 397 459 C408 471 413 488 413 512 L413 534 C413 557 408 573 397 585 L397 585 C397 586 396 586 395 587 C382 600 362 607 332 607 C316 607 303 605 294 601 L166 560 C156 556 147 551 141 542 C130 531 124 515 124 491 L124 469 C124 446 129 429 140 418 L141 416 L15 -53 L3 -66 C1 -67 0 -71 2 -73 C2 -74 2 -74 3 -75 C4 -77 6 -78 8 -78 L128 -78 C128 -78 129 -78 130 -77 L257 -35 C259 -34 260 -33 261 -30 C262 -29 262 -26 260 -24 L260 -23 L248 -11 L261 39 L264 39 L289 -53 L277 -66 C275 -67 275 -71 275 -73 L277 -75 C278 -77 280 -78 282 -78 L402 -78 C403 -78 404 -78 405 -77 L532 -35 C534 -34 535 -33 536 -30 C537 -29 536 -26 534 -24 L534 -23 Z " />
<glyph glyph-name="AE" unicode="&#xc6;" horiz-adv-x="733" d="M692 493 L334 493 C333 493 332 493 332 492 L204 450 C202 449 200 448 200 446 C199 444 200 440 201 439 L215 426 L15 -53 L3 -66 C1 -67 0 -71 2 -73 C2 -74 3 -75 3 -76 C4 -77 6 -78 8 -78 L130 -78 L257 -35 C259 -34 260 -33 261 -30 C262 -29 262 -26 260 -23 L248 -11 L269 39 L286 39 L286 -53 L274 -66 C272 -67 271 -71 272 -73 C273 -74 273 -75 274 -75 C275 -77 277 -78 278 -78 L565 -78 C566 -78 566 -78 567 -77 L694 -35 C696 -34 699 -31 699 -29 L699 72 C699 73 698 75 696 77 L695 79 L690 79 L648 65 L519 65 L519 132 L521 129 C522 128 524 127 525 127 L528 127 L655 170 L655 170 C658 171 660 174 660 177 L660 291 C660 294 659 294 658 295 C657 296 656 297 655 297 C655 298 654 298 654 298 C653 298 652 298 651 297 L609 284 L519 284 L519 351 L547 351 L560 338 C560 337 563 336 565 336 C566 336 566 337 567 337 L694 379 C694 380 694 380 695 380 C697 380 699 383 699 386 L699 485 C699 488 698 490 696 491 C696 492 694 493 692 493 L692 493 Z " />
<glyph glyph-name="Ccedilla" unicode="&#xc7;" horiz-adv-x="526" d="M453 460 C424 489 377 503 310 503 C275 503 244 500 219 491 L93 448 C69 441 50 429 36 414 C11 387 0 349 0 294 L0 85 C0 29 11 -8 36 -34 L39 -39 C63 -62 97 -75 142 -81 L142 -109 C142 -137 144 -153 152 -162 L154 -164 C162 -172 175 -174 197 -174 L200 -174 C205 -174 209 -175 210 -177 L211 -177 L163 -193 L161 -194 C159 -196 158 -198 158 -200 L158 -257 C158 -259 159 -261 161 -262 C161 -263 163 -264 166 -264 L205 -264 C220 -264 235 -262 244 -259 L371 -218 C380 -214 389 -210 394 -203 C406 -191 412 -173 412 -145 L412 -131 C412 -107 410 -90 401 -78 C400 -76 399 -74 397 -73 C386 -61 366 -59 350 -59 L342 -59 L342 -47 L399 -28 C423 -20 442 -8 457 8 C482 35 492 72 492 126 L492 177 C492 180 491 181 491 182 C489 183 487 184 485 184 L380 184 C380 184 379 183 378 183 L251 142 C249 141 247 140 246 138 C245 135 245 132 248 130 L260 117 L260 111 C260 101 259 91 257 83 C256 85 256 85 254 86 C241 99 233 121 233 154 L233 312 C233 321 234 332 235 340 L240 335 C250 326 256 313 259 296 L247 284 C245 282 244 278 245 276 L247 274 C248 273 251 272 252 272 L361 272 L487 314 C491 315 492 318 492 321 L492 337 C492 391 482 429 457 456 L453 460 Z " />
<glyph glyph-name="Egrave" unicode="&#xc8;" horiz-adv-x="463" d="M14 -53 L2 -66 C-3 -70 2 -78 7 -78 L293 -78 C293 -78 294 -78 294 -77 L422 -35 C425 -34 427 -31 427 -29 L427 72 C427 74 425 78 418 79 L376 65 L247 65 L247 132 L250 129 C251 128 252 127 254 127 L256 127 L384 170 C387 171 388 174 388 177 L388 292 C388 295 382 301 379 297 L337 284 L247 284 L247 351 L275 351 L288 338 C290 337 292 336 293 336 C293 336 294 337 294 337 L422 379 C422 380 423 380 423 380 C426 380 427 383 427 386 L427 485 C427 490 423 493 421 493 L134 493 C133 493 132 493 131 492 L5 450 C0 448 -2 442 2 439 L14 426 L14 -53 Z M295 578 C297 580 298 582 297 584 L287 652 L285 655 C284 657 282 658 279 658 L228 658 C227 658 226 658 226 657 L99 615 C98 614 96 613 95 611 C94 609 94 607 95 605 L132 537 C132 536 132 536 132 535 C134 534 136 533 138 533 L166 533 L293 576 C294 576 294 577 295 578 L295 578 Z " />
<glyph glyph-name="Eacute" unicode="&#xc9;" horiz-adv-x="463" d="M14 -53 L2 -66 C-3 -70 2 -78 7 -78 L293 -78 C293 -78 294 -78 294 -77 L422 -35 C425 -34 427 -31 427 -29 L427 72 C427 74 425 78 418 79 L376 65 L247 65 L247 132 L250 129 C251 128 252 127 254 127 L256 127 L384 170 C387 171 388 174 388 177 L388 292 C388 295 382 301 379 297 L337 284 L247 284 L247 351 L275 351 L288 338 C290 337 292 336 293 336 C293 336 294 337 294 337 L422 379 C422 380 423 380 423 380 C426 380 427 383 427 386 L427 485 C427 490 423 493 421 493 L134 493 C133 493 132 493 131 492 L5 450 C0 448 -2 442 2 439 L14 426 L14 -53 Z M268 653 L142 611 C139 610 137 609 136 607 L124 542 C124 540 124 538 126 536 L126 535 C127 534 129 533 131 533 L164 533 L290 576 C292 576 293 577 295 579 L339 644 C340 644 340 646 340 647 C340 649 339 651 338 652 C336 653 334 654 332 654 L271 654 C270 654 269 654 268 653 L268 653 Z " />
<glyph glyph-name="Ecircumflex" unicode="&#xca;" horiz-adv-x="463" d="M14 -53 L2 -66 C-3 -70 2 -78 7 -78 L293 -78 C293 -78 294 -78 294 -77 L422 -35 C425 -34 427 -31 427 -29 L427 72 C427 74 425 78 418 79 L376 65 L247 65 L247 132 L250 129 C251 128 252 127 254 127 L256 127 L384 170 C387 171 388 174 388 177 L388 292 C388 295 382 301 379 297 L337 284 L247 284 L247 351 L275 351 L288 338 C290 337 292 336 293 336 C293 336 294 337 294 337 L422 379 C422 380 423 380 423 380 C426 380 427 383 427 386 L427 485 C427 490 423 493 421 493 L134 493 C133 493 132 493 131 492 L5 450 C0 448 -2 442 2 439 L14 426 L14 -53 Z M110 623 L41 546 C39 544 38 542 40 539 C40 538 41 538 41 537 C42 535 44 534 46 534 L109 534 C109 534 110 535 110 535 L173 556 L184 538 C184 538 184 537 185 537 C186 535 188 534 190 534 L254 534 C255 534 256 535 256 535 L384 577 C385 578 386 580 387 580 C389 583 389 585 387 588 L333 665 C333 665 333 666 332 666 C332 667 331 668 329 668 L240 668 L114 625 C112 625 111 624 110 623 L110 623 Z " />
<glyph glyph-name="Edieresis" unicode="&#xcb;" horiz-adv-x="463" d="M14 -53 L2 -66 C-3 -70 2 -78 7 -78 L293 -78 C293 -78 294 -78 294 -77 L422 -35 C425 -34 427 -31 427 -29 L427 72 C427 74 425 78 418 79 L376 65 L247 65 L247 132 L250 129 C251 128 252 127 254 127 L256 127 L384 170 C387 171 388 174 388 177 L388 292 C388 295 382 301 379 297 L337 284 L247 284 L247 351 L275 351 L288 338 C290 337 292 336 293 336 C293 336 294 337 294 337 L422 379 C422 380 423 380 423 380 C426 380 427 383 427 386 L427 485 C427 490 423 493 421 493 L134 493 C133 493 132 493 131 492 L5 450 C0 448 -2 442 2 439 L14 426 L14 -53 Z M103 533 C108 533 112 533 116 534 L163 550 L168 544 C174 537 185 533 195 533 C199 533 204 533 207 534 L334 576 C350 582 360 596 360 613 C360 625 357 634 350 642 C342 648 333 652 322 652 C318 652 314 652 309 651 L264 635 L258 642 C251 648 242 652 231 652 C226 652 223 652 219 651 L92 609 C76 603 65 589 65 571 C65 560 69 551 76 544 C84 537 93 533 103 533 L103 533 Z " />
<glyph glyph-name="Igrave" unicode="&#xcc;" horiz-adv-x="296" d="M2 -66 C0 -68 -1 -71 1 -73 C1 -74 2 -75 2 -76 C3 -78 5 -78 7 -78 L129 -78 L256 -35 C258 -35 259 -33 260 -31 C261 -29 261 -26 259 -24 L247 -11 L247 467 L259 481 C260 483 261 484 261 485 C261 487 260 489 259 491 C258 491 256 492 254 492 L131 492 L5 449 C3 448 2 448 1 446 C-1 443 0 440 2 439 L14 426 L14 -54 L2 -66 Z M212 578 C214 580 215 582 214 584 L204 652 L202 655 C201 657 199 658 196 658 L145 658 C144 658 143 658 143 657 L16 615 C15 614 13 613 12 611 C11 609 11 607 12 605 L49 537 C49 536 49 536 49 535 C51 534 53 533 55 533 L83 533 L210 576 C211 576 211 577 212 578 L212 578 Z " />
<glyph glyph-name="Iacute" unicode="&#xcd;" horiz-adv-x="296" d="M2 -66 C0 -68 -1 -71 1 -73 C1 -74 2 -75 2 -76 C3 -78 5 -78 7 -78 L129 -78 L256 -35 C258 -35 259 -33 260 -31 C261 -29 261 -26 259 -24 L247 -11 L247 467 L259 481 C260 483 261 484 261 485 C261 487 260 489 259 491 C258 491 256 492 254 492 L131 492 L5 449 C3 448 2 448 1 446 C-1 443 0 440 2 439 L14 426 L14 -54 L2 -66 Z M184 653 L58 611 C55 610 53 609 52 607 L40 542 C40 540 40 538 42 536 L42 535 C43 534 45 533 47 533 L80 533 L206 576 C208 576 209 577 211 579 L255 644 C256 644 256 646 256 647 C256 649 255 651 254 652 C252 653 250 654 248 654 L187 654 C186 654 185 654 184 653 L184 653 Z " />
<glyph glyph-name="Icircumflex" unicode="&#xce;" horiz-adv-x="384" d="M2 -66 C0 -68 -1 -71 1 -73 C1 -74 2 -75 2 -76 C3 -78 5 -78 7 -78 L129 -78 L256 -35 C258 -35 259 -33 260 -31 C261 -29 261 -26 259 -24 L247 -11 L247 467 L259 481 C260 483 261 484 261 485 C261 487 260 489 259 491 C258 491 256 492 254 492 L131 492 L5 449 C3 448 2 448 1 446 C-1 443 0 440 2 439 L14 426 L14 -54 L2 -66 Z M28 623 L-41 546 C-43 544 -44 542 -42 539 C-42 538 -41 538 -41 537 C-40 535 -38 534 -36 534 L27 534 C27 534 28 535 28 535 L91 556 L102 538 C102 538 102 537 103 537 C104 535 106 534 108 534 L172 534 C173 534 174 535 174 535 L302 577 C303 578 304 580 305 580 C307 583 307 585 305 588 L251 665 C251 665 251 666 250 666 C250 667 249 668 247 668 L158 668 L32 625 C30 625 29 624 28 623 L28 623 Z " />
<glyph glyph-name="Idieresis" unicode="&#xcf;" horiz-adv-x="330" d="M2 -66 C0 -68 -1 -71 1 -73 C1 -74 2 -75 2 -76 C3 -78 5 -78 7 -78 L129 -78 L256 -35 C258 -35 259 -33 260 -31 C261 -29 261 -26 259 -24 L247 -11 L247 467 L259 481 C260 483 261 484 261 485 C261 487 260 489 259 491 C258 491 256 492 254 492 L131 492 L5 449 C3 448 2 448 1 446 C-1 443 0 440 2 439 L14 426 L14 -54 L2 -66 Z M20 533 C25 533 29 533 33 534 L80 550 L85 544 C91 537 102 533 112 533 C116 533 121 533 124 534 L251 576 C267 582 277 596 277 613 C277 625 274 634 267 642 C259 648 250 652 239 652 C235 652 231 652 226 651 L181 635 L175 642 C168 648 159 652 148 652 C143 652 140 652 136 651 L9 609 C-7 603 -18 589 -18 571 C-18 560 -14 551 -7 544 C1 537 10 533 20 533 L20 533 Z " />
<glyph glyph-name="Eth" unicode="&#xd0;" horiz-adv-x="566" d="M491 452 C465 480 425 493 373 493 L159 493 C159 493 158 493 158 492 L29 450 C28 449 27 448 26 446 C25 444 26 440 28 439 L39 426 L39 244 L5 234 C2 233 0 229 0 226 L0 158 C0 156 1 154 2 152 C4 151 5 150 7 150 L39 150 L39 -53 L28 -66 C26 -67 25 -71 26 -73 C27 -74 27 -75 28 -75 C28 -77 30 -78 32 -78 L246 -78 C271 -78 293 -74 312 -68 L439 -26 C459 -19 477 -9 491 5 C518 32 532 72 532 123 L532 335 C532 383 520 422 496 448 L491 452 Z " />
<glyph glyph-name="Ntilde" unicode="&#xd1;" horiz-adv-x="517" d="M14 -54 L2 -66 C0 -68 -1 -71 1 -73 C1 -74 2 -75 2 -76 C3 -78 5 -78 7 -78 L129 -78 L225 -47 L230 -57 L221 -66 C218 -68 218 -71 219 -73 L221 -76 C222 -78 224 -78 226 -78 L349 -78 L475 -35 C478 -35 479 -33 480 -31 C482 -29 481 -26 479 -24 L465 -11 L465 467 L479 481 C481 483 482 485 480 488 C480 489 479 490 479 491 C477 491 475 492 473 492 L351 492 L259 462 L248 488 L246 491 C245 491 243 492 241 492 L131 492 L5 449 C3 448 2 448 1 446 C-1 443 0 440 2 439 L14 426 L14 -54 Z M386 657 C376 668 361 675 341 675 C333 675 326 675 320 673 L263 653 L259 663 C259 665 258 666 258 667 C256 669 254 670 252 670 L200 670 C199 670 198 670 198 669 L71 627 L68 625 C67 623 66 621 66 618 C66 613 69 590 81 568 C85 561 89 557 94 551 C106 540 121 533 137 533 C146 533 152 534 158 537 L216 556 C217 556 217 555 217 555 C219 552 220 550 220 547 C220 546 221 544 222 543 C224 542 225 542 227 542 L282 542 L409 584 C410 584 411 585 412 586 C413 588 413 590 413 592 C413 599 411 620 398 641 C395 647 391 653 386 657 L386 657 Z " />
<glyph glyph-name="Ograve" unicode="&#xd2;" horiz-adv-x="527" d="M38 -42 C68 -72 114 -86 182 -86 C217 -86 247 -82 272 -73 L398 -31 C422 -24 441 -12 456 4 C481 30 491 68 491 123 L491 333 C491 388 481 425 456 451 L452 456 C422 485 375 500 309 500 C274 500 243 496 218 487 L92 445 C68 437 49 425 35 409 C10 383 -1 346 -1 291 L-1 81 C-1 27 10 -11 35 -39 C36 -39 37 -41 38 -42 L38 -42 Z M327 578 C329 580 330 582 329 584 L319 652 L317 655 C316 657 314 658 311 658 L260 658 C259 658 258 658 258 657 L131 615 C130 614 128 613 127 611 C126 609 126 607 127 605 L164 537 C164 536 164 536 164 535 C166 534 168 533 170 533 L198 533 L325 576 C326 576 326 577 327 578 L327 578 Z " />
<glyph glyph-name="Oacute" unicode="&#xd3;" horiz-adv-x="527" d="M38 -42 C68 -72 114 -86 182 -86 C217 -86 247 -82 272 -73 L398 -31 C422 -24 441 -12 456 4 C481 30 491 68 491 123 L491 333 C491 388 481 425 456 451 L452 456 C422 485 375 500 309 500 C274 500 243 496 218 487 L92 445 C68 437 49 425 35 409 C10 383 -1 346 -1 291 L-1 81 C-1 27 10 -11 35 -39 C36 -39 37 -41 38 -42 L38 -42 Z M300 653 L174 611 C171 610 169 609 168 607 L156 542 C156 540 156 538 158 536 L158 535 C159 534 161 533 163 533 L196 533 L322 576 C324 576 325 577 327 579 L371 644 C372 644 372 646 372 647 C372 649 371 651 370 652 C368 653 366 654 364 654 L303 654 C302 654 301 654 300 653 L300 653 Z " />
<glyph glyph-name="Ocircumflex" unicode="&#xd4;" horiz-adv-x="527" d="M38 -42 C68 -72 114 -86 182 -86 C217 -86 247 -82 272 -73 L398 -31 C422 -24 441 -12 456 4 C481 30 491 68 491 123 L491 333 C491 388 481 425 456 451 L452 456 C422 485 375 500 309 500 C274 500 243 496 218 487 L92 445 C68 437 49 425 35 409 C10 383 -1 346 -1 291 L-1 81 C-1 27 10 -11 35 -39 C36 -39 37 -41 38 -42 L38 -42 Z M143 631 L74 554 C72 552 71 550 73 547 C73 546 74 546 74 545 C75 543 77 542 79 542 L142 542 C142 542 143 543 143 543 L206 564 L217 546 C217 546 217 545 218 545 C219 543 221 542 223 542 L287 542 C288 542 289 543 289 543 L417 585 C418 586 419 588 420 588 C422 591 422 593 420 596 L366 673 C366 673 366 674 365 674 C365 675 364 676 362 676 L273 676 L147 633 C145 633 144 632 143 631 L143 631 Z " />
<glyph glyph-name="Otilde" unicode="&#xd5;" horiz-adv-x="527" d="M38 -42 C68 -72 114 -86 182 -86 C217 -86 247 -82 272 -73 L398 -31 C422 -24 441 -12 456 4 C481 30 491 68 491 123 L491 333 C491 388 481 425 456 451 L452 456 C422 485 375 500 309 500 C274 500 243 496 218 487 L92 445 C68 437 49 425 35 409 C10 383 -1 346 -1 291 L-1 81 C-1 27 10 -11 35 -39 C36 -39 37 -41 38 -42 L38 -42 Z M392 657 C382 668 367 675 347 675 C339 675 332 675 326 673 L269 653 L265 663 C265 665 264 666 264 667 C262 669 260 670 258 670 L206 670 C205 670 204 670 204 669 L77 627 L74 625 C73 623 72 621 72 618 C72 613 75 590 87 568 C91 561 95 557 100 551 C112 540 127 533 143 533 C152 533 158 534 164 537 L222 556 C223 556 223 555 223 555 C225 552 226 550 226 547 C226 546 227 544 228 543 C230 542 231 542 233 542 L288 542 L415 584 C416 584 417 585 418 586 C419 588 419 590 419 592 C419 599 417 620 404 641 C401 647 397 653 392 657 L392 657 Z " />
<glyph glyph-name="Odieresis" unicode="&#xd6;" horiz-adv-x="527" d="M38 -42 C68 -72 114 -86 182 -86 C217 -86 247 -82 272 -73 L398 -31 C422 -24 441 -12 456 4 C481 30 491 68 491 123 L491 333 C491 388 481 425 456 451 L452 456 C422 485 375 500 309 500 C274 500 243 496 218 487 L92 445 C68 437 49 425 35 409 C10 383 -1 346 -1 291 L-1 81 C-1 27 10 -11 35 -39 C36 -39 37 -41 38 -42 L38 -42 Z M136 542 C141 542 145 542 149 543 L196 559 L201 553 C207 546 218 542 228 542 C232 542 237 542 240 543 L367 585 C383 591 393 605 393 622 C393 634 390 643 383 651 C375 657 366 661 355 661 C351 661 347 661 342 660 L297 644 L291 651 C284 657 275 661 264 661 C259 661 256 661 252 660 L125 618 C109 612 98 598 98 580 C98 569 102 560 109 553 C117 546 126 542 136 542 L136 542 Z " />
<glyph glyph-name="multiply" unicode="&#xd7;" horiz-adv-x="363" d="M53 294 L4 246 C3 244 2 243 2 241 C2 239 3 237 4 236 L41 199 L3 161 C0 158 0 153 3 150 L54 100 C55 98 57 98 59 98 C60 98 61 98 61 98 L122 118 L140 101 C141 99 142 98 144 98 C145 98 146 99 146 99 L274 141 L276 142 L325 192 C327 193 328 195 328 197 C328 199 327 200 325 201 L288 239 L327 277 C328 278 329 280 329 282 C329 285 328 286 327 287 L275 338 C275 339 272 340 270 340 L269 340 L208 320 L190 337 C188 338 186 339 184 339 C183 339 183 339 183 338 L55 296 C55 296 54 295 53 294 L53 294 Z " />
<glyph glyph-name="Oslash" unicode="&#xd8;" horiz-adv-x="526" d="M36 410 C11 384 0 346 0 292 L0 81 C0 49 4 24 12 3 C18 -14 28 -29 39 -41 C44 -47 48 -49 55 -54 L32 -122 C31 -124 31 -125 33 -127 C33 -128 33 -128 34 -128 C35 -130 37 -131 38 -131 L130 -131 C131 -131 132 -131 132 -130 L259 -88 C261 -87 263 -86 263 -83 L267 -74 C269 -74 270 -73 273 -73 L399 -30 C423 -22 442 -11 457 5 C482 31 492 69 492 123 L492 334 C492 390 480 430 453 457 L445 465 L460 513 C461 516 461 518 459 520 L458 521 C457 522 456 522 453 522 L360 522 L294 500 C266 500 241 495 219 488 L93 446 C69 438 50 427 36 410 L36 410 Z " />
<glyph glyph-name="Ugrave" unicode="&#xd9;" horiz-adv-x="556" d="M14 426 L14 81 C14 27 26 -11 49 -38 L54 -42 C83 -71 130 -86 197 -86 C233 -86 261 -82 286 -73 L413 -30 C438 -23 456 -11 471 4 C495 31 507 69 507 123 L507 468 L519 482 C524 486 519 493 514 493 L394 493 C393 493 392 493 264 450 C259 448 258 442 261 439 L274 426 L274 161 C274 160 274 159 274 158 L274 107 C274 98 274 88 272 80 L268 83 C255 96 247 116 247 149 L247 468 L259 482 C264 486 259 493 254 493 L134 493 C133 493 132 493 5 450 C0 448 -2 442 2 439 L14 426 Z M342 578 C344 580 345 582 344 584 L334 652 L332 655 C331 657 329 658 326 658 L275 658 C274 658 273 658 273 657 L146 615 C145 614 143 613 142 611 C141 609 141 607 142 605 L179 537 C179 536 179 536 179 535 C181 534 183 533 185 533 L213 533 L340 576 C341 576 341 577 342 578 L342 578 Z " />
<glyph glyph-name="Uacute" unicode="&#xda;" horiz-adv-x="556" d="M14 426 L14 81 C14 27 26 -11 49 -38 L54 -42 C83 -71 130 -86 197 -86 C233 -86 261 -82 286 -73 L413 -30 C438 -23 456 -11 471 4 C495 31 507 69 507 123 L507 468 L519 482 C524 486 519 493 514 493 L394 493 C393 493 392 493 264 450 C259 448 258 442 261 439 L274 426 L274 161 C274 160 274 159 274 158 L274 107 C274 98 274 88 272 80 L268 83 C255 96 247 116 247 149 L247 468 L259 482 C264 486 259 493 254 493 L134 493 C133 493 132 493 5 450 C0 448 -2 442 2 439 L14 426 Z M313 653 L187 611 C184 610 182 609 181 607 L169 542 C169 540 169 538 171 536 L171 535 C172 534 174 533 176 533 L209 533 L335 576 C337 576 338 577 340 579 L384 644 C385 644 385 646 385 647 C385 649 384 651 383 652 C381 653 379 654 377 654 L316 654 C315 654 314 654 313 653 L313 653 Z " />
<glyph glyph-name="Ucircumflex" unicode="&#xdb;" horiz-adv-x="556" d="M14 426 L14 81 C14 27 26 -11 49 -38 L54 -42 C83 -71 130 -86 197 -86 C233 -86 261 -82 286 -73 L413 -30 C438 -23 456 -11 471 4 C495 31 507 69 507 123 L507 468 L519 482 C524 486 519 493 514 493 L394 493 C393 493 392 493 264 450 C259 448 258 442 261 439 L274 426 L274 161 C274 160 274 159 274 158 L274 107 C274 98 274 88 272 80 L268 83 C255 96 247 116 247 149 L247 468 L259 482 C264 486 259 493 254 493 L134 493 C133 493 132 493 5 450 C0 448 -2 442 2 439 L14 426 Z M175 623 L106 546 C104 544 103 542 105 539 C105 538 106 538 106 537 C107 535 109 534 111 534 L174 534 C174 534 175 535 175 535 L238 556 L249 538 C249 538 249 537 250 537 C251 535 253 534 255 534 L319 534 C320 534 321 535 321 535 L449 577 C450 578 451 580 452 580 C454 583 454 585 452 588 L398 665 C398 665 398 666 397 666 C397 667 396 668 394 668 L305 668 L179 625 C177 625 176 624 175 623 L175 623 Z " />
<glyph glyph-name="Udieresis" unicode="&#xdc;" horiz-adv-x="556" d="M14 426 L14 81 C14 27 26 -11 49 -38 L54 -42 C83 -71 130 -86 197 -86 C233 -86 261 -82 286 -73 L413 -30 C438 -23 456 -11 471 4 C495 31 507 69 507 123 L507 468 L519 482 C524 486 519 493 514 493 L394 493 C393 493 392 493 264 450 C259 448 258 442 261 439 L274 426 L274 161 C274 160 274 159 274 158 L274 107 C274 98 274 88 272 80 L268 83 C255 96 247 116 247 149 L247 468 L259 482 C264 486 259 493 254 493 L134 493 C133 493 132 493 5 450 C0 448 -2 442 2 439 L14 426 Z M167 533 C172 533 176 533 180 534 L227 550 L232 544 C238 537 249 533 259 533 C263 533 268 533 271 534 L398 576 C414 582 424 596 424 613 C424 625 421 634 414 642 C406 648 397 652 386 652 C382 652 378 652 373 651 L328 635 L322 642 C315 648 306 652 295 652 C290 652 287 652 283 651 L156 609 C140 603 129 589 129 571 C129 560 133 551 140 544 C148 537 157 533 167 533 L167 533 Z " />
<glyph glyph-name="Yacute" unicode="&#xdd;" horiz-adv-x="519" d="M14 426 L127 172 L127 -53 L114 -66 C113 -67 112 -71 114 -73 C114 -74 114 -75 114 -75 C116 -77 118 -78 120 -78 L240 -78 C241 -78 241 -78 242 -77 L369 -35 C370 -34 372 -33 373 -30 C374 -29 374 -26 371 -23 L360 -10 L360 215 L469 467 L482 482 C483 483 484 486 483 489 C483 490 483 491 482 491 C481 492 479 493 477 493 L357 493 C356 493 355 493 354 492 L253 459 L248 469 L259 482 C260 483 261 484 261 485 C261 488 260 490 259 491 C258 492 256 493 254 493 L134 493 C133 493 132 493 131 492 L5 450 C3 449 2 448 1 446 C-1 444 0 440 2 439 L14 426 Z M295 653 L169 611 C166 610 164 609 163 607 L151 542 C151 540 151 538 153 536 L153 535 C154 534 156 533 158 533 L191 533 L317 576 C319 576 320 577 322 579 L366 644 C367 644 367 646 367 647 C367 649 366 651 365 652 C363 653 361 654 359 654 L298 654 C297 654 296 654 295 653 L295 653 Z " />
<glyph glyph-name="Thorn" unicode="&#xde;" horiz-adv-x="483" d="M411 409 C388 433 351 446 303 446 L248 446 L248 468 L260 482 C262 483 262 486 261 489 L260 491 C259 492 257 493 255 493 L135 493 C134 493 133 492 132 492 L6 450 C4 449 3 448 2 446 C0 444 1 440 3 439 L15 426 L15 -53 L3 -66 C1 -67 0 -71 2 -73 C2 -74 3 -75 3 -75 C4 -77 6 -78 8 -78 L128 -78 C128 -78 129 -78 130 -77 L257 -35 C259 -34 260 -32 261 -30 C262 -29 262 -26 260 -23 L248 -10 L248 28 L363 66 C383 72 401 84 414 99 C436 123 448 159 448 200 L448 302 C448 346 437 380 416 404 L411 409 Z " />
<glyph glyph-name="germandbls" unicode="&#xdf;" horiz-adv-x="526" d="M458 -7 C483 21 494 64 490 121 C487 155 478 182 461 204 L450 216 C439 227 427 235 416 241 C408 246 404 249 401 252 C398 254 397 256 397 258 C397 264 402 269 408 275 C423 287 445 307 445 366 C445 400 432 429 411 449 C410 451 408 453 407 454 C379 480 335 493 277 493 L135 493 C134 493 133 493 132 492 L6 450 C4 449 3 448 2 446 C0 444 1 440 3 439 L15 426 L15 -53 L3 -66 C1 -67 0 -71 2 -73 C2 -74 3 -75 3 -75 C4 -77 6 -78 8 -78 L114 -78 C115 -78 115 -78 116 -77 L164 -62 L164 -71 C164 -73 165 -75 166 -76 L170 -79 C192 -82 213 -85 232 -85 C252 -85 271 -82 287 -77 L414 -34 C431 -29 447 -19 458 -7 L458 -7 Z " />
<glyph glyph-name="agrave" unicode="&#xe0;" horiz-adv-x="571" d="M2 -75 C3 -77 5 -78 7 -78 L127 -78 C127 -78 128 -78 129 -77 L256 -35 L259 -33 L260 -30 C261 -29 261 -26 259 -23 L247 -11 L262 44 L288 -53 L276 -66 C274 -67 274 -71 274 -73 C275 -74 275 -75 276 -75 C277 -77 279 -78 281 -78 L401 -78 C402 -78 403 -78 404 -77 L531 -35 L533 -33 L535 -30 C536 -29 535 -26 533 -23 L521 -10 L392 469 L400 483 C401 483 401 484 401 485 C401 488 400 490 399 491 C397 492 396 493 394 493 L268 493 C268 493 267 493 266 492 L140 450 L136 448 C136 448 135 448 135 447 C134 445 134 442 135 440 L143 427 L14 -53 L2 -66 C0 -67 -1 -71 1 -73 C1 -74 2 -75 2 -75 L2 -75 Z M350 578 C352 580 353 582 352 584 L342 652 L340 655 C339 657 337 658 334 658 L283 658 C282 658 281 658 281 657 L154 615 C153 614 151 613 150 611 C149 609 149 607 150 605 L187 537 C187 536 187 536 187 535 C189 534 191 533 193 533 L221 533 L348 576 C349 576 349 577 350 578 L350 578 Z " />
<glyph glyph-name="aacute" unicode="&#xe1;" horiz-adv-x="571" d="M2 -75 C3 -77 5 -78 7 -78 L127 -78 C127 -78 128 -78 129 -77 L256 -35 L259 -33 L260 -30 C261 -29 261 -26 259 -23 L247 -11 L262 44 L288 -53 L276 -66 C274 -67 274 -71 274 -73 C275 -74 275 -75 276 -75 C277 -77 279 -78 281 -78 L401 -78 C402 -78 403 -78 404 -77 L531 -35 L533 -33 L535 -30 C536 -29 535 -26 533 -23 L521 -10 L392 469 L400 483 C401 483 401 484 401 485 C401 488 400 490 399 491 C397 492 396 493 394 493 L268 493 C268 493 267 493 266 492 L140 450 L136 448 C136 448 135 448 135 447 C134 445 134 442 135 440 L143 427 L14 -53 L2 -66 C0 -67 -1 -71 1 -73 C1 -74 2 -75 2 -75 L2 -75 Z M321 653 L195 611 C192 610 190 609 189 607 L177 542 C177 540 177 538 179 536 L179 535 C180 534 182 533 184 533 L217 533 L343 576 C345 576 346 577 348 579 L392 644 C393 644 393 646 393 647 C393 649 392 651 391 652 C389 653 387 654 385 654 L324 654 C323 654 322 654 321 653 L321 653 Z " />
<glyph glyph-name="acircumflex" unicode="&#xe2;" horiz-adv-x="571" d="M2 -75 C3 -77 5 -78 7 -78 L127 -78 C127 -78 128 -78 129 -77 L256 -35 L259 -33 L260 -30 C261 -29 261 -26 259 -23 L247 -11 L262 44 L288 -53 L276 -66 C274 -67 274 -71 274 -73 C275 -74 275 -75 276 -75 C277 -77 279 -78 281 -78 L401 -78 C402 -78 403 -78 404 -77 L531 -35 L533 -33 L535 -30 C536 -29 535 -26 533 -23 L521 -10 L392 469 L400 483 C401 483 401 484 401 485 C401 488 400 490 399 491 C397 492 396 493 394 493 L268 493 C268 493 267 493 266 492 L140 450 L136 448 C136 448 135 448 135 447 C134 445 134 442 135 440 L143 427 L14 -53 L2 -66 C0 -67 -1 -71 1 -73 C1 -74 2 -75 2 -75 L2 -75 Z M165 623 L96 546 C94 544 93 542 95 539 C95 538 96 538 96 537 C97 535 99 534 101 534 L164 534 C164 534 165 535 165 535 L228 556 L239 538 C239 538 239 537 240 537 C241 535 243 534 245 534 L309 534 C310 534 311 535 311 535 L439 577 C440 578 441 580 442 580 C444 583 444 585 442 588 L388 665 C388 665 388 666 387 666 C387 667 386 668 384 668 L295 668 L169 625 C167 625 166 624 165 623 L165 623 Z " />
<glyph glyph-name="atilde" unicode="&#xe3;" horiz-adv-x="571" d="M2 -75 C3 -77 5 -78 7 -78 L127 -78 C127 -78 128 -78 129 -77 L256 -35 L259 -33 L260 -30 C261 -29 261 -26 259 -23 L247 -11 L262 44 L288 -53 L276 -66 C274 -67 274 -71 274 -73 C275 -74 275 -75 276 -75 C277 -77 279 -78 281 -78 L401 -78 C402 -78 403 -78 404 -77 L531 -35 L533 -33 L535 -30 C536 -29 535 -26 533 -23 L521 -10 L392 469 L400 483 C401 483 401 484 401 485 C401 488 400 490 399 491 C397 492 396 493 394 493 L268 493 C268 493 267 493 266 492 L140 450 L136 448 C136 448 135 448 135 447 C134 445 134 442 135 440 L143 427 L14 -53 L2 -66 C0 -67 -1 -71 1 -73 C1 -74 2 -75 2 -75 L2 -75 Z M413 648 C403 659 388 666 368 666 C360 666 353 666 347 664 L290 644 L286 654 C286 656 285 657 285 658 C283 660 281 661 279 661 L227 661 C226 661 225 661 225 660 L98 618 L95 616 C94 614 93 612 93 609 C93 604 96 581 108 559 C112 552 116 548 121 542 C133 531 148 524 164 524 C173 524 179 525 185 528 L243 547 C244 547 244 546 244 546 C246 543 247 541 247 538 C247 537 248 535 249 534 C251 533 252 533 254 533 L309 533 L436 575 C437 575 438 576 439 577 C440 579 440 581 440 583 C440 590 438 611 425 632 C422 638 418 644 413 648 L413 648 Z " />
<glyph glyph-name="adieresis" unicode="&#xe4;" horiz-adv-x="571" d="M2 -75 C3 -77 5 -78 7 -78 L127 -78 C127 -78 128 -78 129 -77 L256 -35 L259 -33 L260 -30 C261 -29 261 -26 259 -23 L247 -11 L262 44 L288 -53 L276 -66 C274 -67 274 -71 274 -73 C275 -74 275 -75 276 -75 C277 -77 279 -78 281 -78 L401 -78 C402 -78 403 -78 404 -77 L531 -35 L533 -33 L535 -30 C536 -29 535 -26 533 -23 L521 -10 L392 469 L400 483 C401 483 401 484 401 485 C401 488 400 490 399 491 C397 492 396 493 394 493 L268 493 C268 493 267 493 266 492 L140 450 L136 448 C136 448 135 448 135 447 C134 445 134 442 135 440 L143 427 L14 -53 L2 -66 C0 -67 -1 -71 1 -73 C1 -74 2 -75 2 -75 L2 -75 Z M158 533 C163 533 167 533 171 534 L218 550 L223 544 C229 537 240 533 250 533 C254 533 259 533 262 534 L389 576 C405 582 415 596 415 613 C415 625 412 634 405 642 C397 648 388 652 377 652 C373 652 369 652 364 651 L319 635 L313 642 C306 648 297 652 286 652 C281 652 278 652 274 651 L147 609 C131 603 120 589 120 571 C120 560 124 551 131 544 C139 537 148 533 158 533 L158 533 Z " />
<glyph glyph-name="aring" unicode="&#xe5;" horiz-adv-x="570" d="M559 -23 L545 -10 L420 458 C420 459 421 459 421 459 C431 471 437 488 437 512 L437 534 C437 557 431 573 422 585 L421 585 C421 586 420 586 419 587 C406 600 386 607 356 607 C340 607 328 605 317 601 L190 560 C180 556 171 551 164 542 C154 531 149 515 149 491 L149 469 C149 446 153 429 163 418 L165 416 L39 -53 L27 -66 C25 -67 24 -71 26 -73 C26 -74 26 -74 27 -75 C28 -77 29 -78 31 -78 L152 -78 C152 -78 153 -78 154 -77 L281 -35 C283 -34 285 -33 286 -30 C286 -29 286 -26 284 -24 L284 -23 L272 -11 L286 39 L288 39 L313 -53 L301 -66 C299 -67 298 -71 299 -73 L301 -75 C303 -77 304 -78 306 -78 L426 -78 C427 -78 427 -78 428 -77 L556 -35 C558 -34 560 -33 560 -30 C560 -29 560 -26 559 -24 L559 -23 Z " />
<glyph glyph-name="ae" unicode="&#xe6;" horiz-adv-x="733" d="M692 493 L334 493 C333 493 332 493 332 492 L204 450 C202 449 200 448 200 446 C199 444 200 440 201 439 L215 426 L15 -53 L3 -66 C1 -67 0 -71 2 -73 C2 -74 3 -75 3 -76 C4 -77 6 -78 8 -78 L130 -78 L257 -35 C259 -34 260 -33 261 -30 C262 -29 262 -26 260 -23 L248 -11 L269 39 L286 39 L286 -53 L274 -66 C272 -67 271 -71 272 -73 C273 -74 273 -75 274 -75 C275 -77 277 -78 278 -78 L565 -78 C566 -78 566 -78 567 -77 L694 -35 C696 -34 699 -31 699 -29 L699 72 C699 73 698 75 696 77 L695 79 L690 79 L648 65 L519 65 L519 132 L521 129 C522 128 524 127 525 127 L528 127 L655 170 L655 170 C658 171 660 174 660 177 L660 291 C660 294 659 294 658 295 C657 296 656 297 655 297 C655 298 654 298 654 298 C653 298 652 298 651 297 L609 284 L519 284 L519 351 L547 351 L560 338 C560 337 563 336 565 336 C566 336 566 337 567 337 L694 379 C694 380 694 380 695 380 C697 380 699 383 699 386 L699 485 C699 488 698 490 696 491 C696 492 694 493 692 493 L692 493 Z " />
<glyph glyph-name="ccedilla" unicode="&#xe7;" horiz-adv-x="526" d="M453 460 C424 489 377 503 310 503 C275 503 244 500 219 491 L93 448 C69 441 50 429 36 414 C11 387 0 349 0 294 L0 85 C0 29 11 -8 36 -34 L39 -39 C63 -62 97 -75 142 -81 L142 -109 C142 -137 144 -153 152 -162 L154 -164 C162 -172 175 -174 197 -174 L200 -174 C205 -174 209 -175 210 -177 L211 -177 L163 -193 L161 -194 C159 -196 158 -198 158 -200 L158 -257 C158 -259 159 -261 161 -262 C161 -263 163 -264 166 -264 L205 -264 C220 -264 235 -262 244 -259 L371 -218 C380 -214 389 -210 394 -203 C406 -191 412 -173 412 -145 L412 -131 C412 -107 410 -90 401 -78 C400 -76 399 -74 397 -73 C386 -61 366 -59 350 -59 L342 -59 L342 -47 L399 -28 C423 -20 442 -8 457 8 C482 35 492 72 492 126 L492 177 C492 180 491 181 491 182 C489 183 487 184 485 184 L380 184 C380 184 379 183 378 183 L251 142 C249 141 247 140 246 138 C245 135 245 132 248 130 L260 117 L260 111 C260 101 259 91 257 83 C256 85 256 85 254 86 C241 99 233 121 233 154 L233 312 C233 321 234 332 235 340 L240 335 C250 326 256 313 259 296 L247 284 C245 282 244 278 245 276 L247 274 C248 273 251 272 252 272 L361 272 L487 314 C491 315 492 318 492 321 L492 337 C492 391 482 429 457 456 L453 460 Z " />
<glyph glyph-name="egrave" unicode="&#xe8;" horiz-adv-x="463" d="M14 -53 L2 -66 C-3 -70 2 -78 7 -78 L293 -78 C293 -78 294 -78 294 -77 L422 -35 C425 -34 427 -31 427 -29 L427 72 C427 74 425 78 418 79 L376 65 L247 65 L247 132 L250 129 C251 128 252 127 254 127 L256 127 L384 170 C387 171 388 174 388 177 L388 292 C388 295 382 301 379 297 L337 284 L247 284 L247 351 L275 351 L288 338 C290 337 292 336 293 336 C293 336 294 337 294 337 L422 379 C422 380 423 380 423 380 C426 380 427 383 427 386 L427 485 C427 490 423 493 421 493 L134 493 C133 493 132 493 131 492 L5 450 C0 448 -2 442 2 439 L14 426 L14 -53 Z M295 578 C297 580 298 582 297 584 L287 652 L285 655 C284 657 282 658 279 658 L228 658 C227 658 226 658 226 657 L99 615 C98 614 96 613 95 611 C94 609 94 607 95 605 L132 537 C132 536 132 536 132 535 C134 534 136 533 138 533 L166 533 L293 576 C294 576 294 577 295 578 L295 578 Z " />
<glyph glyph-name="eacute" unicode="&#xe9;" horiz-adv-x="463" d="M14 -53 L2 -66 C-3 -70 2 -78 7 -78 L293 -78 C293 -78 294 -78 294 -77 L422 -35 C425 -34 427 -31 427 -29 L427 72 C427 74 425 78 418 79 L376 65 L247 65 L247 132 L250 129 C251 128 252 127 254 127 L256 127 L384 170 C387 171 388 174 388 177 L388 292 C388 295 382 301 379 297 L337 284 L247 284 L247 351 L275 351 L288 338 C290 337 292 336 293 336 C293 336 294 337 294 337 L422 379 C422 380 423 380 423 380 C426 380 427 383 427 386 L427 485 C427 490 423 493 421 493 L134 493 C133 493 132 493 131 492 L5 450 C0 448 -2 442 2 439 L14 426 L14 -53 Z M268 653 L142 611 C139 610 137 609 136 607 L124 542 C124 540 124 538 126 536 L126 535 C127 534 129 533 131 533 L164 533 L290 576 C292 576 293 577 295 579 L339 644 C340 644 340 646 340 647 C340 649 339 651 338 652 C336 653 334 654 332 654 L271 654 C270 654 269 654 268 653 L268 653 Z " />
<glyph glyph-name="ecircumflex" unicode="&#xea;" horiz-adv-x="463" d="M14 -53 L2 -66 C-3 -70 2 -78 7 -78 L293 -78 C293 -78 294 -78 294 -77 L422 -35 C425 -34 427 -31 427 -29 L427 72 C427 74 425 78 418 79 L376 65 L247 65 L247 132 L250 129 C251 128 252 127 254 127 L256 127 L384 170 C387 171 388 174 388 177 L388 292 C388 295 382 301 379 297 L337 284 L247 284 L247 351 L275 351 L288 338 C290 337 292 336 293 336 C293 336 294 337 294 337 L422 379 C422 380 423 380 423 380 C426 380 427 383 427 386 L427 485 C427 490 423 493 421 493 L134 493 C133 493 132 493 131 492 L5 450 C0 448 -2 442 2 439 L14 426 L14 -53 Z M110 623 L41 546 C39 544 38 542 40 539 C40 538 41 538 41 537 C42 535 44 534 46 534 L109 534 C109 534 110 535 110 535 L173 556 L184 538 C184 538 184 537 185 537 C186 535 188 534 190 534 L254 534 C255 534 256 535 256 535 L384 577 C385 578 386 580 387 580 C389 583 389 585 387 588 L333 665 C333 665 333 666 332 666 C332 667 331 668 329 668 L240 668 L114 625 C112 625 111 624 110 623 L110 623 Z " />
<glyph glyph-name="edieresis" unicode="&#xeb;" horiz-adv-x="463" d="M14 -53 L2 -66 C-3 -70 2 -78 7 -78 L293 -78 C293 -78 294 -78 294 -77 L422 -35 C425 -34 427 -31 427 -29 L427 72 C427 74 425 78 418 79 L376 65 L247 65 L247 132 L250 129 C251 128 252 127 254 127 L256 127 L384 170 C387 171 388 174 388 177 L388 292 C388 295 382 301 379 297 L337 284 L247 284 L247 351 L275 351 L288 338 C290 337 292 336 293 336 C293 336 294 337 294 337 L422 379 C422 380 423 380 423 380 C426 380 427 383 427 386 L427 485 C427 490 423 493 421 493 L134 493 C133 493 132 493 131 492 L5 450 C0 448 -2 442 2 439 L14 426 L14 -53 Z M103 533 C108 533 112 533 116 534 L163 550 L168 544 C174 537 185 533 195 533 C199 533 204 533 207 534 L334 576 C350 582 360 596 360 613 C360 625 357 634 350 642 C342 648 333 652 322 652 C318 652 314 652 309 651 L264 635 L258 642 C251 648 242 652 231 652 C226 652 223 652 219 651 L92 609 C76 603 65 589 65 571 C65 560 69 551 76 544 C84 537 93 533 103 533 L103 533 Z " />
<glyph glyph-name="igrave" unicode="&#xec;" horiz-adv-x="296" d="M2 -66 C0 -68 -1 -71 1 -73 C1 -74 2 -75 2 -76 C3 -78 5 -78 7 -78 L129 -78 L256 -35 C258 -35 259 -33 260 -31 C261 -29 261 -26 259 -24 L247 -11 L247 467 L259 481 C260 483 261 484 261 485 C261 487 260 489 259 491 C258 491 256 492 254 492 L131 492 L5 449 C3 448 2 448 1 446 C-1 443 0 440 2 439 L14 426 L14 -54 L2 -66 Z M212 578 C214 580 215 582 214 584 L204 652 L202 655 C201 657 199 658 196 658 L145 658 C144 658 143 658 143 657 L16 615 C15 614 13 613 12 611 C11 609 11 607 12 605 L49 537 C49 536 49 536 49 535 C51 534 53 533 55 533 L83 533 L210 576 C211 576 211 577 212 578 L212 578 Z " />
<glyph glyph-name="iacute" unicode="&#xed;" horiz-adv-x="296" d="M2 -66 C0 -68 -1 -71 1 -73 C1 -74 2 -75 2 -76 C3 -78 5 -78 7 -78 L129 -78 L256 -35 C258 -35 259 -33 260 -31 C261 -29 261 -26 259 -24 L247 -11 L247 467 L259 481 C260 483 261 484 261 485 C261 487 260 489 259 491 C258 491 256 492 254 492 L131 492 L5 449 C3 448 2 448 1 446 C-1 443 0 440 2 439 L14 426 L14 -54 L2 -66 Z M184 653 L58 611 C55 610 53 609 52 607 L40 542 C40 540 40 538 42 536 L42 535 C43 534 45 533 47 533 L80 533 L206 576 C208 576 209 577 211 579 L255 644 C256 644 256 646 256 647 C256 649 255 651 254 652 C252 653 250 654 248 654 L187 654 C186 654 185 654 184 653 L184 653 Z " />
<glyph glyph-name="icircumflex" unicode="&#xee;" horiz-adv-x="384" d="M2 -66 C0 -68 -1 -71 1 -73 C1 -74 2 -75 2 -76 C3 -78 5 -78 7 -78 L129 -78 L256 -35 C258 -35 259 -33 260 -31 C261 -29 261 -26 259 -24 L247 -11 L247 467 L259 481 C260 483 261 484 261 485 C261 487 260 489 259 491 C258 491 256 492 254 492 L131 492 L5 449 C3 448 2 448 1 446 C-1 443 0 440 2 439 L14 426 L14 -54 L2 -66 Z M28 623 L-41 546 C-43 544 -44 542 -42 539 C-42 538 -41 538 -41 537 C-40 535 -38 534 -36 534 L27 534 C27 534 28 535 28 535 L91 556 L102 538 C102 538 102 537 103 537 C104 535 106 534 108 534 L172 534 C173 534 174 535 174 535 L302 577 C303 578 304 580 305 580 C307 583 307 585 305 588 L251 665 C251 665 251 666 250 666 C250 667 249 668 247 668 L158 668 L32 625 C30 625 29 624 28 623 L28 623 Z " />
<glyph glyph-name="idieresis" unicode="&#xef;" horiz-adv-x="330" d="M2 -66 C0 -68 -1 -71 1 -73 C1 -74 2 -75 2 -76 C3 -78 5 -78 7 -78 L129 -78 L256 -35 C258 -35 259 -33 260 -31 C261 -29 261 -26 259 -24 L247 -11 L247 467 L259 481 C260 483 261 484 261 485 C261 487 260 489 259 491 C258 491 256 492 254 492 L131 492 L5 449 C3 448 2 448 1 446 C-1 443 0 440 2 439 L14 426 L14 -54 L2 -66 Z M20 533 C25 533 29 533 33 534 L80 550 L85 544 C91 537 102 533 112 533 C116 533 121 533 124 534 L251 576 C267 582 277 596 277 613 C277 625 274 634 267 642 C259 648 250 652 239 652 C235 652 231 652 226 651 L181 635 L175 642 C168 648 159 652 148 652 C143 652 140 652 136 651 L9 609 C-7 603 -18 589 -18 571 C-18 560 -14 551 -7 544 C1 537 10 533 20 533 L20 533 Z " />
<glyph glyph-name="eth" unicode="&#xf0;" horiz-adv-x="566" d="M491 452 C465 480 425 493 373 493 L159 493 C159 493 158 493 158 492 L29 450 C28 449 27 448 26 446 C25 444 26 440 28 439 L39 426 L39 244 L5 234 C2 233 0 229 0 226 L0 158 C0 156 1 154 2 152 C4 151 5 150 7 150 L39 150 L39 -53 L28 -66 C26 -67 25 -71 26 -73 C27 -74 27 -75 28 -75 C28 -77 30 -78 32 -78 L246 -78 C271 -78 293 -74 312 -68 L439 -26 C459 -19 477 -9 491 5 C518 32 532 72 532 123 L532 335 C532 383 520 422 496 448 L491 452 Z " />
<glyph glyph-name="ntilde" unicode="&#xf1;" horiz-adv-x="517" d="M14 -54 L2 -66 C0 -68 -1 -71 1 -73 C1 -74 2 -75 2 -76 C3 -78 5 -78 7 -78 L129 -78 L225 -47 L230 -57 L221 -66 C218 -68 218 -71 219 -73 L221 -76 C222 -78 224 -78 226 -78 L349 -78 L475 -35 C478 -35 479 -33 480 -31 C482 -29 481 -26 479 -24 L465 -11 L465 467 L479 481 C481 483 482 485 480 488 C480 489 479 490 479 491 C477 491 475 492 473 492 L351 492 L259 462 L248 488 L246 491 C245 491 243 492 241 492 L131 492 L5 449 C3 448 2 448 1 446 C-1 443 0 440 2 439 L14 426 L14 -54 Z M386 657 C376 668 361 675 341 675 C333 675 326 675 320 673 L263 653 L259 663 C259 665 258 666 258 667 C256 669 254 670 252 670 L200 670 C199 670 198 670 198 669 L71 627 L68 625 C67 623 66 621 66 618 C66 613 69 590 81 568 C85 561 89 557 94 551 C106 540 121 533 137 533 C146 533 152 534 158 537 L216 556 C217 556 217 555 217 555 C219 552 220 550 220 547 C220 546 221 544 222 543 C224 542 225 542 227 542 L282 542 L409 584 C410 584 411 585 412 586 C413 588 413 590 413 592 C413 599 411 620 398 641 C395 647 391 653 386 657 L386 657 Z " />
<glyph glyph-name="ograve" unicode="&#xf2;" horiz-adv-x="527" d="M38 -42 C68 -72 114 -86 182 -86 C217 -86 247 -82 272 -73 L398 -31 C422 -24 441 -12 456 4 C481 30 491 68 491 123 L491 333 C491 388 481 425 456 451 L452 456 C422 485 375 500 309 500 C274 500 243 496 218 487 L92 445 C68 437 49 425 35 409 C10 383 -1 346 -1 291 L-1 81 C-1 27 10 -11 35 -39 C36 -39 37 -41 38 -42 L38 -42 Z M327 578 C329 580 330 582 329 584 L319 652 L317 655 C316 657 314 658 311 658 L260 658 C259 658 258 658 258 657 L131 615 C130 614 128 613 127 611 C126 609 126 607 127 605 L164 537 C164 536 164 536 164 535 C166 534 168 533 170 533 L198 533 L325 576 C326 576 326 577 327 578 L327 578 Z " />
<glyph glyph-name="oacute" unicode="&#xf3;" horiz-adv-x="527" d="M38 -42 C68 -72 114 -86 182 -86 C217 -86 247 -82 272 -73 L398 -31 C422 -24 441 -12 456 4 C481 30 491 68 491 123 L491 333 C491 388 481 425 456 451 L452 456 C422 485 375 500 309 500 C274 500 243 496 218 487 L92 445 C68 437 49 425 35 409 C10 383 -1 346 -1 291 L-1 81 C-1 27 10 -11 35 -39 C36 -39 37 -41 38 -42 L38 -42 Z M300 653 L174 611 C171 610 169 609 168 607 L156 542 C156 540 156 538 158 536 L158 535 C159 534 161 533 163 533 L196 533 L322 576 C324 576 325 577 327 579 L371 644 C372 644 372 646 372 647 C372 649 371 651 370 652 C368 653 366 654 364 654 L303 654 C302 654 301 654 300 653 L300 653 Z " />
<glyph glyph-name="ocircumflex" unicode="&#xf4;" horiz-adv-x="527" d="M38 -42 C68 -72 114 -86 182 -86 C217 -86 247 -82 272 -73 L398 -31 C422 -24 441 -12 456 4 C481 30 491 68 491 123 L491 333 C491 388 481 425 456 451 L452 456 C422 485 375 500 309 500 C274 500 243 496 218 487 L92 445 C68 437 49 425 35 409 C10 383 -1 346 -1 291 L-1 81 C-1 27 10 -11 35 -39 C36 -39 37 -41 38 -42 L38 -42 Z M143 631 L74 554 C72 552 71 550 73 547 C73 546 74 546 74 545 C75 543 77 542 79 542 L142 542 C142 542 143 543 143 543 L206 564 L217 546 C217 546 217 545 218 545 C219 543 221 542 223 542 L287 542 C288 542 289 543 289 543 L417 585 C418 586 419 588 420 588 C422 591 422 593 420 596 L366 673 C366 673 366 674 365 674 C365 675 364 676 362 676 L273 676 L147 633 C145 633 144 632 143 631 L143 631 Z " />
<glyph glyph-name="otilde" unicode="&#xf5;" horiz-adv-x="527" d="M38 -42 C68 -72 114 -86 182 -86 C217 -86 247 -82 272 -73 L398 -31 C422 -24 441 -12 456 4 C481 30 491 68 491 123 L491 333 C491 388 481 425 456 451 L452 456 C422 485 375 500 309 500 C274 500 243 496 218 487 L92 445 C68 437 49 425 35 409 C10 383 -1 346 -1 291 L-1 81 C-1 27 10 -11 35 -39 C36 -39 37 -41 38 -42 L38 -42 Z M392 657 C382 668 367 675 347 675 C339 675 332 675 326 673 L269 653 L265 663 C265 665 264 666 264 667 C262 669 260 670 258 670 L206 670 C205 670 204 670 204 669 L77 627 L74 625 C73 623 72 621 72 618 C72 613 75 590 87 568 C91 561 95 557 100 551 C112 540 127 533 143 533 C152 533 158 534 164 537 L222 556 C223 556 223 555 223 555 C225 552 226 550 226 547 C226 546 227 544 228 543 C230 542 231 542 233 542 L288 542 L415 584 C416 584 417 585 418 586 C419 588 419 590 419 592 C419 599 417 620 404 641 C401 647 397 653 392 657 L392 657 Z " />
<glyph glyph-name="odieresis" unicode="&#xf6;" horiz-adv-x="527" d="M38 -42 C68 -72 114 -86 182 -86 C217 -86 247 -82 272 -73 L398 -31 C422 -24 441 -12 456 4 C481 30 491 68 491 123 L491 333 C491 388 481 425 456 451 L452 456 C422 485 375 500 309 500 C274 500 243 496 218 487 L92 445 C68 437 49 425 35 409 C10 383 -1 346 -1 291 L-1 81 C-1 27 10 -11 35 -39 C36 -39 37 -41 38 -42 L38 -42 Z M136 542 C141 542 145 542 149 543 L196 559 L201 553 C207 546 218 542 228 542 C232 542 237 542 240 543 L367 585 C383 591 393 605 393 622 C393 634 390 643 383 651 C375 657 366 661 355 661 C351 661 347 661 342 660 L297 644 L291 651 C284 657 275 661 264 661 C259 661 256 661 252 660 L125 618 C109 612 98 598 98 580 C98 569 102 560 109 553 C117 546 126 542 136 542 L136 542 Z " />
<glyph glyph-name="divide" unicode="&#xf7;" horiz-adv-x="367" d="M326 282 L189 282 L243 300 C260 305 273 321 273 340 C273 352 268 363 260 370 C252 378 242 383 230 383 C225 383 220 382 217 380 L89 337 C72 332 61 316 61 297 C61 286 65 275 72 268 L78 263 L5 239 C2 238 0 235 0 233 L0 163 C0 161 1 160 2 158 C4 158 5 157 7 157 L143 157 L89 139 C72 132 61 116 61 98 C61 86 65 75 72 67 C81 60 91 55 103 55 C107 55 112 56 116 57 L243 100 C260 106 273 122 273 141 C273 152 268 162 260 170 C258 172 256 174 255 175 L328 199 C331 200 332 202 332 206 L332 275 C332 277 332 278 331 279 C329 281 328 282 326 282 L326 282 Z " />
<glyph glyph-name="oslash" unicode="&#xf8;" horiz-adv-x="526" d="M36 410 C11 384 0 346 0 292 L0 81 C0 49 4 24 12 3 C18 -14 28 -29 39 -41 C44 -47 48 -49 55 -54 L32 -122 C31 -124 31 -125 33 -127 C33 -128 33 -128 34 -128 C35 -130 37 -131 38 -131 L130 -131 C131 -131 132 -131 132 -130 L259 -88 C261 -87 263 -86 263 -83 L267 -74 C269 -74 270 -73 273 -73 L399 -30 C423 -22 442 -11 457 5 C482 31 492 69 492 123 L492 334 C492 390 480 430 453 457 L445 465 L460 513 C461 516 461 518 459 520 L458 521 C457 522 456 522 453 522 L360 522 L294 500 C266 500 241 495 219 488 L93 446 C69 438 50 427 36 410 L36 410 Z " />
<glyph glyph-name="ugrave" unicode="&#xf9;" horiz-adv-x="556" d="M14 426 L14 81 C14 27 26 -11 49 -38 L54 -42 C83 -71 130 -86 197 -86 C233 -86 261 -82 286 -73 L413 -30 C438 -23 456 -11 471 4 C495 31 507 69 507 123 L507 468 L519 482 C524 486 519 493 514 493 L394 493 C393 493 392 493 264 450 C259 448 258 442 261 439 L274 426 L274 161 C274 160 274 159 274 158 L274 107 C274 98 274 88 272 80 L268 83 C255 96 247 116 247 149 L247 468 L259 482 C264 486 259 493 254 493 L134 493 C133 493 132 493 5 450 C0 448 -2 442 2 439 L14 426 Z M342 578 C344 580 345 582 344 584 L334 652 L332 655 C331 657 329 658 326 658 L275 658 C274 658 273 658 273 657 L146 615 C145 614 143 613 142 611 C141 609 141 607 142 605 L179 537 C179 536 179 536 179 535 C181 534 183 533 185 533 L213 533 L340 576 C341 576 341 577 342 578 L342 578 Z " />
<glyph glyph-name="uacute" unicode="&#xfa;" horiz-adv-x="556" d="M14 426 L14 81 C14 27 26 -11 49 -38 L54 -42 C83 -71 130 -86 197 -86 C233 -86 261 -82 286 -73 L413 -30 C438 -23 456 -11 471 4 C495 31 507 69 507 123 L507 468 L519 482 C524 486 519 493 514 493 L394 493 C393 493 392 493 264 450 C259 448 258 442 261 439 L274 426 L274 161 C274 160 274 159 274 158 L274 107 C274 98 274 88 272 80 L268 83 C255 96 247 116 247 149 L247 468 L259 482 C264 486 259 493 254 493 L134 493 C133 493 132 493 5 450 C0 448 -2 442 2 439 L14 426 Z M313 653 L187 611 C184 610 182 609 181 607 L169 542 C169 540 169 538 171 536 L171 535 C172 534 174 533 176 533 L209 533 L335 576 C337 576 338 577 340 579 L384 644 C385 644 385 646 385 647 C385 649 384 651 383 652 C381 653 379 654 377 654 L316 654 C315 654 314 654 313 653 L313 653 Z " />
<glyph glyph-name="ucircumflex" unicode="&#xfb;" horiz-adv-x="556" d="M14 426 L14 81 C14 27 26 -11 49 -38 L54 -42 C83 -71 130 -86 197 -86 C233 -86 261 -82 286 -73 L413 -30 C438 -23 456 -11 471 4 C495 31 507 69 507 123 L507 468 L519 482 C524 486 519 493 514 493 L394 493 C393 493 392 493 264 450 C259 448 258 442 261 439 L274 426 L274 161 C274 160 274 159 274 158 L274 107 C274 98 274 88 272 80 L268 83 C255 96 247 116 247 149 L247 468 L259 482 C264 486 259 493 254 493 L134 493 C133 493 132 493 5 450 C0 448 -2 442 2 439 L14 426 Z M175 623 L106 546 C104 544 103 542 105 539 C105 538 106 538 106 537 C107 535 109 534 111 534 L174 534 C174 534 175 535 175 535 L238 556 L249 538 C249 538 249 537 250 537 C251 535 253 534 255 534 L319 534 C320 534 321 535 321 535 L449 577 C450 578 451 580 452 580 C454 583 454 585 452 588 L398 665 C398 665 398 666 397 666 C397 667 396 668 394 668 L305 668 L179 625 C177 625 176 624 175 623 L175 623 Z " />
<glyph glyph-name="udieresis" unicode="&#xfc;" horiz-adv-x="556" d="M14 426 L14 81 C14 27 26 -11 49 -38 L54 -42 C83 -71 130 -86 197 -86 C233 -86 261 -82 286 -73 L413 -30 C438 -23 456 -11 471 4 C495 31 507 69 507 123 L507 468 L519 482 C524 486 519 493 514 493 L394 493 C393 493 392 493 264 450 C259 448 258 442 261 439 L274 426 L274 161 C274 160 274 159 274 158 L274 107 C274 98 274 88 272 80 L268 83 C255 96 247 116 247 149 L247 468 L259 482 C264 486 259 493 254 493 L134 493 C133 493 132 493 5 450 C0 448 -2 442 2 439 L14 426 Z M167 533 C172 533 176 533 180 534 L227 550 L232 544 C238 537 249 533 259 533 C263 533 268 533 271 534 L398 576 C414 582 424 596 424 613 C424 625 421 634 414 642 C406 648 397 652 386 652 C382 652 378 652 373 651 L328 635 L322 642 C315 648 306 652 295 652 C290 652 287 652 283 651 L156 609 C140 603 129 589 129 571 C129 560 133 551 140 544 C148 537 157 533 167 533 L167 533 Z " />
<glyph glyph-name="yacute" unicode="&#xfd;" horiz-adv-x="519" d="M14 426 L127 172 L127 -53 L114 -66 C113 -67 112 -71 114 -73 C114 -74 114 -75 114 -75 C116 -77 118 -78 120 -78 L240 -78 C241 -78 241 -78 242 -77 L369 -35 C370 -34 372 -33 373 -30 C374 -29 374 -26 371 -23 L360 -10 L360 215 L469 467 L482 482 C483 483 484 486 483 489 C483 490 483 491 482 491 C481 492 479 493 477 493 L357 493 C356 493 355 493 354 492 L253 459 L248 469 L259 482 C260 483 261 484 261 485 C261 488 260 490 259 491 C258 492 256 493 254 493 L134 493 C133 493 132 493 131 492 L5 450 C3 449 2 448 1 446 C-1 444 0 440 2 439 L14 426 Z M295 653 L169 611 C166 610 164 609 163 607 L151 542 C151 540 151 538 153 536 L153 535 C154 534 156 533 158 533 L191 533 L317 576 C319 576 320 577 322 579 L366 644 C367 644 367 646 367 647 C367 649 366 651 365 652 C363 653 361 654 359 654 L298 654 C297 654 296 654 295 653 L295 653 Z " />
<glyph glyph-name="thorn" unicode="&#xfe;" horiz-adv-x="483" d="M411 409 C388 433 351 446 303 446 L248 446 L248 468 L260 482 C262 483 262 486 261 489 L260 491 C259 492 257 493 255 493 L135 493 C134 493 133 492 132 492 L6 450 C4 449 3 448 2 446 C0 444 1 440 3 439 L15 426 L15 -53 L3 -66 C1 -67 0 -71 2 -73 C2 -74 3 -75 3 -75 C4 -77 6 -78 8 -78 L128 -78 C128 -78 129 -78 130 -77 L257 -35 C259 -34 260 -32 261 -30 C262 -29 262 -26 260 -23 L248 -10 L248 28 L363 66 C383 72 401 84 414 99 C436 123 448 159 448 200 L448 302 C448 346 437 380 416 404 L411 409 Z " />
<glyph glyph-name="ydieresis" unicode="&#xff;" horiz-adv-x="519" d="M14 426 L127 172 L127 -53 L114 -66 C113 -67 112 -71 114 -73 C114 -74 114 -75 114 -75 C116 -77 118 -78 120 -78 L240 -78 C241 -78 241 -78 242 -77 L369 -35 C370 -34 372 -33 373 -30 C374 -29 374 -26 371 -23 L360 -10 L360 215 L469 467 L482 482 C483 483 484 486 483 489 C483 490 483 491 482 491 C481 492 479 493 477 493 L357 493 C356 493 355 493 354 492 L253 459 L248 469 L259 482 C260 483 261 484 261 485 C261 488 260 490 259 491 C258 492 256 493 254 493 L134 493 C133 493 132 493 131 492 L5 450 C3 449 2 448 1 446 C-1 444 0 440 2 439 L14 426 Z M132 533 C137 533 141 533 145 534 L192 550 L197 544 C203 537 214 533 224 533 C228 533 233 533 236 534 L363 576 C379 582 389 596 389 613 C389 625 386 634 379 642 C371 648 362 652 351 652 C347 652 343 652 338 651 L293 635 L287 642 C280 648 271 652 260 652 C255 652 252 652 248 651 L121 609 C105 603 94 589 94 571 C94 560 98 551 105 544 C113 537 122 533 132 533 L132 533 Z " />
<glyph glyph-name="Amacron" unicode="&#x100;" horiz-adv-x="571" d="M2 -75 C3 -77 5 -78 7 -78 L127 -78 C127 -78 128 -78 129 -77 L256 -35 L259 -33 L260 -30 C261 -29 261 -26 259 -23 L247 -11 L262 44 L288 -53 L276 -66 C274 -67 274 -71 274 -73 C275 -74 275 -75 276 -75 C277 -77 279 -78 281 -78 L401 -78 C402 -78 403 -78 404 -77 L531 -35 L533 -33 L535 -30 C536 -29 535 -26 533 -23 L521 -10 L392 469 L400 483 C401 483 401 484 401 485 C401 488 400 490 399 491 C397 492 396 493 394 493 L268 493 C268 493 267 493 266 492 L140 450 L136 448 C136 448 135 448 135 447 C134 445 134 442 135 440 L143 427 L14 -53 L2 -66 C0 -67 -1 -71 1 -73 C1 -74 2 -75 2 -75 L2 -75 Z M232 647 L105 605 C102 604 100 601 100 598 L100 545 C100 542 101 541 102 540 C104 538 105 537 107 537 L299 537 C299 537 300 538 300 538 L428 580 C431 581 432 584 432 587 L432 641 C432 643 432 644 431 646 C429 647 428 647 426 647 L232 647 Z " />
<glyph glyph-name="amacron" unicode="&#x101;" horiz-adv-x="571" d="M2 -75 C3 -77 5 -78 7 -78 L127 -78 C127 -78 128 -78 129 -77 L256 -35 L259 -33 L260 -30 C261 -29 261 -26 259 -23 L247 -11 L262 44 L288 -53 L276 -66 C274 -67 274 -71 274 -73 C275 -74 275 -75 276 -75 C277 -77 279 -78 281 -78 L401 -78 C402 -78 403 -78 404 -77 L531 -35 L533 -33 L535 -30 C536 -29 535 -26 533 -23 L521 -10 L392 469 L400 483 C401 483 401 484 401 485 C401 488 400 490 399 491 C397 492 396 493 394 493 L268 493 C268 493 267 493 266 492 L140 450 L136 448 C136 448 135 448 135 447 C134 445 134 442 135 440 L143 427 L14 -53 L2 -66 C0 -67 -1 -71 1 -73 C1 -74 2 -75 2 -75 L2 -75 Z M232 647 L105 605 C102 604 100 601 100 598 L100 545 C100 542 101 541 102 540 C104 538 105 537 107 537 L299 537 C299 537 300 538 300 538 L428 580 C431 581 432 584 432 587 L432 641 C432 643 432 644 431 646 C429 647 428 647 426 647 L232 647 Z " />
<glyph glyph-name="Abreve" unicode="&#x102;" horiz-adv-x="571" d="M2 -75 C3 -77 5 -78 7 -78 L127 -78 C127 -78 128 -78 129 -77 L256 -35 L259 -33 L260 -30 C261 -29 261 -26 259 -23 L247 -11 L262 44 L288 -53 L276 -66 C274 -67 274 -71 274 -73 C275 -74 275 -75 276 -75 C277 -77 279 -78 281 -78 L401 -78 C402 -78 403 -78 404 -77 L531 -35 L533 -33 L535 -30 C536 -29 535 -26 533 -23 L521 -10 L392 469 L400 483 C401 483 401 484 401 485 C401 488 400 490 399 491 C397 492 396 493 394 493 L268 493 C268 493 267 493 266 492 L140 450 L136 448 C136 448 135 448 135 447 C134 445 134 442 135 440 L143 427 L14 -53 L2 -66 C0 -67 -1 -71 1 -73 C1 -74 2 -75 2 -75 L2 -75 Z M398 587 C420 609 424 643 425 655 C425 657 424 659 423 661 C421 662 419 662 418 662 L351 662 L313 649 C313 652 312 654 312 656 C312 658 311 660 310 661 C308 662 306 662 305 662 L238 662 L112 619 C110 619 110 618 109 618 C108 617 107 614 107 612 C108 600 112 568 135 544 C153 527 174 519 203 519 C215 519 228 521 238 524 L365 567 C378 571 388 577 398 587 L398 587 Z " />
<glyph glyph-name="abreve" unicode="&#x103;" horiz-adv-x="571" d="M2 -75 C3 -77 5 -78 7 -78 L127 -78 C127 -78 128 -78 129 -77 L256 -35 L259 -33 L260 -30 C261 -29 261 -26 259 -23 L247 -11 L262 44 L288 -53 L276 -66 C274 -67 274 -71 274 -73 C275 -74 275 -75 276 -75 C277 -77 279 -78 281 -78 L401 -78 C402 -78 403 -78 404 -77 L531 -35 L533 -33 L535 -30 C536 -29 535 -26 533 -23 L521 -10 L392 469 L400 483 C401 483 401 484 401 485 C401 488 400 490 399 491 C397 492 396 493 394 493 L268 493 C268 493 267 493 266 492 L140 450 L136 448 C136 448 135 448 135 447 C134 445 134 442 135 440 L143 427 L14 -53 L2 -66 C0 -67 -1 -71 1 -73 C1 -74 2 -75 2 -75 L2 -75 Z M398 587 C420 609 424 643 425 655 C425 657 424 659 423 661 C421 662 419 662 418 662 L351 662 L313 649 C313 652 312 654 312 656 C312 658 311 660 310 661 C308 662 306 662 305 662 L238 662 L112 619 C110 619 110 618 109 618 C108 617 107 614 107 612 C108 600 112 568 135 544 C153 527 174 519 203 519 C215 519 228 521 238 524 L365 567 C378 571 388 577 398 587 L398 587 Z " />
<glyph glyph-name="Aogonek" unicode="&#x104;" horiz-adv-x="570" d="M522 -10 L393 469 L401 483 C403 484 403 487 401 489 C401 490 400 491 400 491 C398 492 397 493 395 493 L269 493 C269 493 268 493 267 492 L141 450 C139 449 137 448 136 447 C135 445 135 442 136 440 L144 427 L15 -53 L3 -66 C1 -67 0 -71 2 -73 C2 -74 3 -75 3 -75 C4 -77 6 -78 8 -78 L128 -78 C128 -78 129 -78 130 -77 L257 -35 C259 -34 260 -33 261 -30 C262 -29 262 -26 260 -23 L248 -11 L261 39 L264 39 L289 -53 L277 -66 C275 -67 275 -71 275 -73 C276 -74 276 -75 277 -75 C278 -77 280 -78 282 -78 L310 -78 L310 -92 L271 -105 C265 -107 259 -110 254 -116 L251 -120 C242 -132 239 -150 239 -173 L239 -187 C239 -215 245 -234 257 -245 C270 -258 290 -264 319 -264 L359 -264 C360 -264 361 -264 362 -263 L488 -221 C489 -220 491 -220 491 -219 C492 -219 493 -217 493 -215 L493 -157 C493 -155 492 -153 491 -151 C490 -150 488 -150 486 -150 L475 -150 C467 -150 457 -150 448 -148 C445 -146 442 -145 440 -143 L486 -127 C491 -126 495 -124 498 -122 L500 -120 C507 -110 508 -94 508 -67 L508 -43 L532 -35 C534 -34 535 -33 536 -30 C537 -29 536 -26 534 -23 L522 -10 Z " />
<glyph glyph-name="aogonek" unicode="&#x105;" horiz-adv-x="570" d="M522 -10 L393 469 L401 483 C403 484 403 487 401 489 C401 490 400 491 400 491 C398 492 397 493 395 493 L269 493 C269 493 268 493 267 492 L141 450 C139 449 137 448 136 447 C135 445 135 442 136 440 L144 427 L15 -53 L3 -66 C1 -67 0 -71 2 -73 C2 -74 3 -75 3 -75 C4 -77 6 -78 8 -78 L128 -78 C128 -78 129 -78 130 -77 L257 -35 C259 -34 260 -33 261 -30 C262 -29 262 -26 260 -23 L248 -11 L261 39 L264 39 L289 -53 L277 -66 C275 -67 275 -71 275 -73 C276 -74 276 -75 277 -75 C278 -77 280 -78 282 -78 L310 -78 L310 -92 L271 -105 C265 -107 259 -110 254 -116 L251 -120 C242 -132 239 -150 239 -173 L239 -187 C239 -215 245 -234 257 -245 C270 -258 290 -264 319 -264 L359 -264 C360 -264 361 -264 362 -263 L488 -221 C489 -220 491 -220 491 -219 C492 -219 493 -217 493 -215 L493 -157 C493 -155 492 -153 491 -151 C490 -150 488 -150 486 -150 L475 -150 C467 -150 457 -150 448 -148 C445 -146 442 -145 440 -143 L486 -127 C491 -126 495 -124 498 -122 L500 -120 C507 -110 508 -94 508 -67 L508 -43 L532 -35 C534 -34 535 -33 536 -30 C537 -29 536 -26 534 -23 L522 -10 Z " />
<glyph glyph-name="Cacute" unicode="&#x106;" horiz-adv-x="526" d="M38 -42 C68 -71 114 -86 182 -86 C217 -86 247 -82 272 -73 L398 -30 C422 -23 441 -11 456 4 C481 31 491 69 491 123 L491 174 C491 175 490 177 490 179 C488 180 486 180 484 180 L377 180 L250 138 C248 138 246 136 245 134 C244 132 244 128 247 126 L259 114 L259 107 C259 98 258 88 256 80 C255 81 255 82 253 83 C240 96 232 116 232 149 L232 308 C232 318 233 328 234 336 C236 335 237 333 238 332 L239 332 C249 322 255 309 258 293 L246 280 C244 277 243 275 244 273 L246 270 C247 269 250 269 251 269 L360 269 L486 312 C490 312 491 314 491 318 L491 334 C491 389 481 426 456 452 L452 457 C423 485 376 500 309 500 C274 500 243 496 218 488 L92 446 C68 438 49 426 35 410 C10 383 -1 346 -1 292 L-1 81 C-1 27 10 -11 35 -38 L38 -42 Z M295 653 L169 611 C166 610 164 609 163 607 L151 542 C151 540 151 538 153 536 L153 535 C154 534 156 533 158 533 L191 533 L317 576 C319 576 320 577 322 579 L366 644 C367 644 367 646 367 647 C367 649 366 651 365 652 C363 653 361 654 359 654 L298 654 C297 654 296 654 295 653 L295 653 Z " />
<glyph glyph-name="cacute" unicode="&#x107;" horiz-adv-x="526" d="M38 -42 C68 -71 114 -86 182 -86 C217 -86 247 -82 272 -73 L398 -30 C422 -23 441 -11 456 4 C481 31 491 69 491 123 L491 174 C491 175 490 177 490 179 C488 180 486 180 484 180 L377 180 L250 138 C248 138 246 136 245 134 C244 132 244 128 247 126 L259 114 L259 107 C259 98 258 88 256 80 C255 81 255 82 253 83 C240 96 232 116 232 149 L232 308 C232 318 233 328 234 336 C236 335 237 333 238 332 L239 332 C249 322 255 309 258 293 L246 280 C244 277 243 275 244 273 L246 270 C247 269 250 269 251 269 L360 269 L486 312 C490 312 491 314 491 318 L491 334 C491 389 481 426 456 452 L452 457 C423 485 376 500 309 500 C274 500 243 496 218 488 L92 446 C68 438 49 426 35 410 C10 383 -1 346 -1 292 L-1 81 C-1 27 10 -11 35 -38 L38 -42 Z M295 653 L169 611 C166 610 164 609 163 607 L151 542 C151 540 151 538 153 536 L153 535 C154 534 156 533 158 533 L191 533 L317 576 C319 576 320 577 322 579 L366 644 C367 644 367 646 367 647 C367 649 366 651 365 652 C363 653 361 654 359 654 L298 654 C297 654 296 654 295 653 L295 653 Z " />
<glyph glyph-name="Ccircumflex" unicode="&#x108;" horiz-adv-x="526" d="M38 -42 C68 -71 114 -86 182 -86 C217 -86 247 -82 272 -73 L398 -30 C422 -23 441 -11 456 4 C481 31 491 69 491 123 L491 174 C491 175 490 177 490 179 C488 180 486 180 484 180 L377 180 L250 138 C248 138 246 136 245 134 C244 132 244 128 247 126 L259 114 L259 107 C259 98 258 88 256 80 C255 81 255 82 253 83 C240 96 232 116 232 149 L232 308 C232 318 233 328 234 336 C236 335 237 333 238 332 L239 332 C249 322 255 309 258 293 L246 280 C244 277 243 275 244 273 L246 270 C247 269 250 269 251 269 L360 269 L486 312 C490 312 491 314 491 318 L491 334 C491 389 481 426 456 452 L452 457 C423 485 376 500 309 500 C274 500 243 496 218 488 L92 446 C68 438 49 426 35 410 C10 383 -1 346 -1 292 L-1 81 C-1 27 10 -11 35 -38 L38 -42 Z M131 614 L62 537 C60 535 59 533 61 530 C61 529 62 529 62 528 C63 526 65 525 67 525 L130 525 C130 525 131 526 131 526 L194 547 L205 529 C205 529 205 528 206 528 C207 526 209 525 211 525 L275 525 C276 525 277 526 277 526 L405 568 C406 569 407 571 408 571 C410 574 410 576 408 579 L354 656 C354 656 354 657 353 657 C353 658 352 659 350 659 L261 659 L135 616 C133 616 132 615 131 614 L131 614 Z " />
<glyph glyph-name="ccircumflex" unicode="&#x109;" horiz-adv-x="526" d="M38 -42 C68 -71 114 -86 182 -86 C217 -86 247 -82 272 -73 L398 -30 C422 -23 441 -11 456 4 C481 31 491 69 491 123 L491 174 C491 175 490 177 490 179 C488 180 486 180 484 180 L377 180 L250 138 C248 138 246 136 245 134 C244 132 244 128 247 126 L259 114 L259 107 C259 98 258 88 256 80 C255 81 255 82 253 83 C240 96 232 116 232 149 L232 308 C232 318 233 328 234 336 C236 335 237 333 238 332 L239 332 C249 322 255 309 258 293 L246 280 C244 277 243 275 244 273 L246 270 C247 269 250 269 251 269 L360 269 L486 312 C490 312 491 314 491 318 L491 334 C491 389 481 426 456 452 L452 457 C423 485 376 500 309 500 C274 500 243 496 218 488 L92 446 C68 438 49 426 35 410 C10 383 -1 346 -1 292 L-1 81 C-1 27 10 -11 35 -38 L38 -42 Z M131 614 L62 537 C60 535 59 533 61 530 C61 529 62 529 62 528 C63 526 65 525 67 525 L130 525 C130 525 131 526 131 526 L194 547 L205 529 C205 529 205 528 206 528 C207 526 209 525 211 525 L275 525 C276 525 277 526 277 526 L405 568 C406 569 407 571 408 571 C410 574 410 576 408 579 L354 656 C354 656 354 657 353 657 C353 658 352 659 350 659 L261 659 L135 616 C133 616 132 615 131 614 L131 614 Z " />
<glyph glyph-name="Cdotaccent" unicode="&#x10a;" horiz-adv-x="526" d="M38 -42 C68 -71 114 -86 182 -86 C217 -86 247 -82 272 -73 L398 -30 C422 -23 441 -11 456 4 C481 31 491 69 491 123 L491 174 C491 175 490 177 490 179 C488 180 486 180 484 180 L377 180 L250 138 C248 138 246 136 245 134 C244 132 244 128 247 126 L259 114 L259 107 C259 98 258 88 256 80 C255 81 255 82 253 83 C240 96 232 116 232 149 L232 308 C232 318 233 328 234 336 C236 335 237 333 238 332 L239 332 C249 322 255 309 258 293 L246 280 C244 277 243 275 244 273 L246 270 C247 269 250 269 251 269 L360 269 L486 312 C490 312 491 314 491 318 L491 334 C491 389 481 426 456 452 L452 457 C423 485 376 500 309 500 C274 500 243 496 218 488 L92 446 C68 438 49 426 35 410 C10 383 -1 346 -1 292 L-1 81 C-1 27 10 -11 35 -38 L38 -42 Z M114 583 C114 563 122 546 135 532 C147 520 165 511 184 511 C193 511 199 513 206 515 L333 557 C362 567 383 593 383 624 C383 643 374 662 361 675 C349 687 332 695 312 695 C304 695 296 694 289 692 L161 649 C135 640 114 613 114 583 L114 583 Z " />
<glyph glyph-name="cdotaccent" unicode="&#x10b;" horiz-adv-x="526" d="M38 -42 C68 -71 114 -86 182 -86 C217 -86 247 -82 272 -73 L398 -30 C422 -23 441 -11 456 4 C481 31 491 69 491 123 L491 174 C491 175 490 177 490 179 C488 180 486 180 484 180 L377 180 L250 138 C248 138 246 136 245 134 C244 132 244 128 247 126 L259 114 L259 107 C259 98 258 88 256 80 C255 81 255 82 253 83 C240 96 232 116 232 149 L232 308 C232 318 233 328 234 336 C236 335 237 333 238 332 L239 332 C249 322 255 309 258 293 L246 280 C244 277 243 275 244 273 L246 270 C247 269 250 269 251 269 L360 269 L486 312 C490 312 491 314 491 318 L491 334 C491 389 481 426 456 452 L452 457 C423 485 376 500 309 500 C274 500 243 496 218 488 L92 446 C68 438 49 426 35 410 C10 383 -1 346 -1 292 L-1 81 C-1 27 10 -11 35 -38 L38 -42 Z M114 583 C114 563 122 546 135 532 C147 520 165 511 184 511 C193 511 199 513 206 515 L333 557 C362 567 383 593 383 624 C383 643 374 662 361 675 C349 687 332 695 312 695 C304 695 296 694 289 692 L161 649 C135 640 114 613 114 583 L114 583 Z " />
<glyph glyph-name="Ccaron" unicode="&#x10c;" horiz-adv-x="526" d="M38 -42 C68 -71 114 -86 182 -86 C217 -86 247 -82 272 -73 L398 -30 C422 -23 441 -11 456 4 C481 31 491 69 491 123 L491 174 C491 175 490 177 490 179 C488 180 486 180 484 180 L377 180 L250 138 C248 138 246 136 245 134 C244 132 244 128 247 126 L259 114 L259 107 C259 98 258 88 256 80 C255 81 255 82 253 83 C240 96 232 116 232 149 L232 308 C232 318 233 328 234 336 C236 335 237 333 238 332 L239 332 C249 322 255 309 258 293 L246 280 C244 277 243 275 244 273 L246 270 C247 269 250 269 251 269 L360 269 L486 312 C490 312 491 314 491 318 L491 334 C491 389 481 426 456 452 L452 457 C423 485 376 500 309 500 C274 500 243 496 218 488 L92 446 C68 438 49 426 35 410 C10 383 -1 346 -1 292 L-1 81 C-1 27 10 -11 35 -38 L38 -42 Z M407 659 L341 659 L281 638 L268 656 C267 656 267 657 267 657 C265 658 264 659 263 659 L196 659 L70 616 C68 616 67 614 66 612 C64 609 65 608 67 605 L128 529 L128 528 C130 526 131 525 133 525 L219 525 C220 525 221 526 221 526 L348 568 L351 571 L413 647 C414 648 414 650 414 652 C414 653 414 655 412 657 C411 658 409 659 407 659 L407 659 Z " />
<glyph glyph-name="ccaron" unicode="&#x10d;" horiz-adv-x="526" d="M38 -42 C68 -71 114 -86 182 -86 C217 -86 247 -82 272 -73 L398 -30 C422 -23 441 -11 456 4 C481 31 491 69 491 123 L491 174 C491 175 490 177 490 179 C488 180 486 180 484 180 L377 180 L250 138 C248 138 246 136 245 134 C244 132 244 128 247 126 L259 114 L259 107 C259 98 258 88 256 80 C255 81 255 82 253 83 C240 96 232 116 232 149 L232 308 C232 318 233 328 234 336 C236 335 237 333 238 332 L239 332 C249 322 255 309 258 293 L246 280 C244 277 243 275 244 273 L246 270 C247 269 250 269 251 269 L360 269 L486 312 C490 312 491 314 491 318 L491 334 C491 389 481 426 456 452 L452 457 C423 485 376 500 309 500 C274 500 243 496 218 488 L92 446 C68 438 49 426 35 410 C10 383 -1 346 -1 292 L-1 81 C-1 27 10 -11 35 -38 L38 -42 Z M407 659 L341 659 L281 638 L268 656 C267 656 267 657 267 657 C265 658 264 659 263 659 L196 659 L70 616 C68 616 67 614 66 612 C64 609 65 608 67 605 L128 529 L128 528 C130 526 131 525 133 525 L219 525 C220 525 221 526 221 526 L348 568 L351 571 L413 647 C414 648 414 650 414 652 C414 653 414 655 412 657 C411 658 409 659 407 659 L407 659 Z " />
<glyph glyph-name="Dcaron" unicode="&#x10e;" horiz-adv-x="542" d="M14 426 L14 -53 L2 -66 C0 -67 -1 -71 1 -73 C1 -74 2 -75 2 -75 C3 -77 5 -78 7 -78 L221 -78 C245 -78 268 -74 286 -68 L413 -26 C434 -19 451 -9 464 5 C492 32 507 72 507 123 L507 335 C507 383 494 422 470 448 C468 449 467 451 465 452 C439 480 400 493 349 493 L134 493 C133 493 132 493 131 492 L5 450 C3 449 2 448 1 446 C-1 444 0 440 2 439 L14 426 Z M403 659 L337 659 L277 638 L264 656 C263 656 263 657 263 657 C261 658 260 659 259 659 L192 659 L66 616 C64 616 63 614 62 612 C60 609 61 608 63 605 L124 529 L124 528 C126 526 127 525 129 525 L215 525 C216 525 217 526 217 526 L344 568 L347 571 L409 647 C410 648 410 650 410 652 C410 653 410 655 408 657 C407 658 405 659 403 659 L403 659 Z " />
<glyph glyph-name="dcaron" unicode="&#x10f;" horiz-adv-x="542" d="M14 426 L14 -53 L2 -66 C0 -67 -1 -71 1 -73 C1 -74 2 -75 2 -75 C3 -77 5 -78 7 -78 L221 -78 C245 -78 268 -74 286 -68 L413 -26 C434 -19 451 -9 464 5 C492 32 507 72 507 123 L507 335 C507 383 494 422 470 448 C468 449 467 451 465 452 C439 480 400 493 349 493 L134 493 C133 493 132 493 131 492 L5 450 C3 449 2 448 1 446 C-1 444 0 440 2 439 L14 426 Z M403 659 L337 659 L277 638 L264 656 C263 656 263 657 263 657 C261 658 260 659 259 659 L192 659 L66 616 C64 616 63 614 62 612 C60 609 61 608 63 605 L124 529 L124 528 C126 526 127 525 129 525 L215 525 C216 525 217 526 217 526 L344 568 L347 571 L409 647 C410 648 410 650 410 652 C410 653 410 655 408 657 C407 658 405 659 403 659 L403 659 Z " />
<glyph glyph-name="Dcroat" unicode="&#x110;" horiz-adv-x="567" d="M491 452 C465 480 425 493 373 493 L289 493 L245 493 L159 493 C159 493 158 493 158 492 L29 450 C28 449 27 448 26 446 C25 444 26 440 28 439 L39 426 L39 319 C39 315 39 313 39 310 L39 305 L39 244 L5 234 C2 233 0 229 0 226 L0 158 C0 156 1 154 2 152 C4 151 5 150 7 150 L39 150 L39 66 L39 -53 L28 -66 C26 -67 25 -71 26 -73 C27 -74 27 -75 28 -75 C28 -77 30 -78 32 -78 L129 -78 L162 -78 L246 -78 C271 -78 293 -74 312 -68 L439 -26 C459 -19 477 -9 491 5 C518 32 532 72 532 123 L532 335 C532 383 520 422 496 448 C494 449 492 451 491 452 L491 452 Z " />
<glyph glyph-name="dcroat" unicode="&#x111;" horiz-adv-x="566" d="M491 452 C465 480 425 493 373 493 L159 493 C159 493 158 493 158 492 L29 450 C28 449 27 448 26 446 C25 444 26 440 28 439 L39 426 L39 244 L5 234 C2 233 0 229 0 226 L0 158 C0 156 1 154 2 152 C4 151 5 150 7 150 L39 150 L39 -53 L28 -66 C26 -67 25 -71 26 -73 C27 -74 27 -75 28 -75 C28 -77 30 -78 32 -78 L246 -78 C271 -78 293 -74 312 -68 L439 -26 C459 -19 477 -9 491 5 C518 32 532 72 532 123 L532 335 C532 383 520 422 496 448 L491 452 Z " />
<glyph glyph-name="Emacron" unicode="&#x112;" horiz-adv-x="463" d="M14 -53 L2 -66 C-3 -70 2 -78 7 -78 L293 -78 C293 -78 294 -78 294 -77 L422 -35 C425 -34 427 -31 427 -29 L427 72 C427 74 425 78 418 79 L376 65 L247 65 L247 132 L250 129 C251 128 252 127 254 127 L256 127 L384 170 C387 171 388 174 388 177 L388 292 C388 295 382 301 379 297 L337 284 L247 284 L247 351 L275 351 L288 338 C290 337 292 336 293 336 C293 336 294 337 294 337 L422 379 C422 380 423 380 423 380 C426 380 427 383 427 386 L427 485 C427 490 423 493 421 493 L134 493 C133 493 132 493 131 492 L5 450 C0 448 -2 442 2 439 L14 426 L14 -53 Z M187 647 L60 605 C57 604 55 601 55 598 L55 545 C55 542 56 541 57 540 C59 538 60 537 62 537 L254 537 C254 537 255 538 255 538 L383 580 C386 581 387 584 387 587 L387 641 C387 643 387 644 386 646 C384 647 383 647 381 647 L187 647 Z " />
<glyph glyph-name="emacron" unicode="&#x113;" horiz-adv-x="463" d="M14 -53 L2 -66 C-3 -70 2 -78 7 -78 L293 -78 C293 -78 294 -78 294 -77 L422 -35 C425 -34 427 -31 427 -29 L427 72 C427 74 425 78 418 79 L376 65 L247 65 L247 132 L250 129 C251 128 252 127 254 127 L256 127 L384 170 C387 171 388 174 388 177 L388 292 C388 295 382 301 379 297 L337 284 L247 284 L247 351 L275 351 L288 338 C290 337 292 336 293 336 C293 336 294 337 294 337 L422 379 C422 380 423 380 423 380 C426 380 427 383 427 386 L427 485 C427 490 423 493 421 493 L134 493 C133 493 132 493 131 492 L5 450 C0 448 -2 442 2 439 L14 426 L14 -53 Z M187 647 L60 605 C57 604 55 601 55 598 L55 545 C55 542 56 541 57 540 C59 538 60 537 62 537 L254 537 C254 537 255 538 255 538 L383 580 C386 581 387 584 387 587 L387 641 C387 643 387 644 386 646 C384 647 383 647 381 647 L187 647 Z " />
<glyph glyph-name="Ebreve" unicode="&#x114;" horiz-adv-x="463" d="M14 -53 L2 -66 C-3 -70 2 -78 7 -78 L293 -78 C293 -78 294 -78 294 -77 L422 -35 C425 -34 427 -31 427 -29 L427 72 C427 74 425 78 418 79 L376 65 L247 65 L247 132 L250 129 C251 128 252 127 254 127 L256 127 L384 170 C387 171 388 174 388 177 L388 292 C388 295 382 301 379 297 L337 284 L247 284 L247 351 L275 351 L288 338 C290 337 292 336 293 336 C293 336 294 337 294 337 L422 379 C422 380 423 380 423 380 C426 380 427 383 427 386 L427 485 C427 490 423 493 421 493 L134 493 C133 493 132 493 131 492 L5 450 C0 448 -2 442 2 439 L14 426 L14 -53 Z M342 587 C364 609 368 643 369 655 C369 657 368 659 367 661 C365 662 363 662 362 662 L295 662 L257 649 C257 652 256 654 256 656 C256 658 255 660 254 661 C252 662 250 662 249 662 L182 662 L56 619 C54 619 54 618 53 618 C52 617 51 614 51 612 C52 600 56 568 79 544 C97 527 118 519 147 519 C159 519 172 521 182 524 L309 567 C322 571 332 577 342 587 L342 587 Z " />
<glyph glyph-name="ebreve" unicode="&#x115;" horiz-adv-x="463" d="M14 -53 L2 -66 C-3 -70 2 -78 7 -78 L293 -78 C293 -78 294 -78 294 -77 L422 -35 C425 -34 427 -31 427 -29 L427 72 C427 74 425 78 418 79 L376 65 L247 65 L247 132 L250 129 C251 128 252 127 254 127 L256 127 L384 170 C387 171 388 174 388 177 L388 292 C388 295 382 301 379 297 L337 284 L247 284 L247 351 L275 351 L288 338 C290 337 292 336 293 336 C293 336 294 337 294 337 L422 379 C422 380 423 380 423 380 C426 380 427 383 427 386 L427 485 C427 490 423 493 421 493 L134 493 C133 493 132 493 131 492 L5 450 C0 448 -2 442 2 439 L14 426 L14 -53 Z M342 587 C364 609 368 643 369 655 C369 657 368 659 367 661 C365 662 363 662 362 662 L295 662 L257 649 C257 652 256 654 256 656 C256 658 255 660 254 661 C252 662 250 662 249 662 L182 662 L56 619 C54 619 54 618 53 618 C52 617 51 614 51 612 C52 600 56 568 79 544 C97 527 118 519 147 519 C159 519 172 521 182 524 L309 567 C322 571 332 577 342 587 L342 587 Z " />
<glyph glyph-name="Edotaccent" unicode="&#x116;" horiz-adv-x="463" d="M14 -53 L2 -66 C-3 -70 2 -78 7 -78 L293 -78 C293 -78 294 -78 294 -77 L422 -35 C425 -34 427 -31 427 -29 L427 72 C427 74 425 78 418 79 L376 65 L247 65 L247 132 L250 129 C251 128 252 127 254 127 L256 127 L384 170 C387 171 388 174 388 177 L388 292 C388 295 382 301 379 297 L337 284 L247 284 L247 351 L275 351 L288 338 C290 337 292 336 293 336 C293 336 294 337 294 337 L422 379 C422 380 423 380 423 380 C426 380 427 383 427 386 L427 485 C427 490 423 493 421 493 L134 493 C133 493 132 493 131 492 L5 450 C0 448 -2 442 2 439 L14 426 L14 -53 Z M76 583 C76 563 84 546 97 532 C109 520 127 511 146 511 C155 511 161 513 168 515 L295 557 C324 567 345 593 345 624 C345 643 336 662 323 675 C311 687 294 695 274 695 C266 695 258 694 251 692 L123 649 C97 640 76 613 76 583 L76 583 Z " />
<glyph glyph-name="edotaccent" unicode="&#x117;" horiz-adv-x="463" d="M14 -53 L2 -66 C-3 -70 2 -78 7 -78 L293 -78 C293 -78 294 -78 294 -77 L422 -35 C425 -34 427 -31 427 -29 L427 72 C427 74 425 78 418 79 L376 65 L247 65 L247 132 L250 129 C251 128 252 127 254 127 L256 127 L384 170 C387 171 388 174 388 177 L388 292 C388 295 382 301 379 297 L337 284 L247 284 L247 351 L275 351 L288 338 C290 337 292 336 293 336 C293 336 294 337 294 337 L422 379 C422 380 423 380 423 380 C426 380 427 383 427 386 L427 485 C427 490 423 493 421 493 L134 493 C133 493 132 493 131 492 L5 450 C0 448 -2 442 2 439 L14 426 L14 -53 Z M76 583 C76 563 84 546 97 532 C109 520 127 511 146 511 C155 511 161 513 168 515 L295 557 C324 567 345 593 345 624 C345 643 336 662 323 675 C311 687 294 695 274 695 C266 695 258 694 251 692 L123 649 C97 640 76 613 76 583 L76 583 Z " />
<glyph glyph-name="Eogonek" unicode="&#x118;" horiz-adv-x="463" d="M422 493 L135 493 C134 493 133 493 132 492 L6 450 C4 449 3 448 2 446 C0 444 1 440 3 439 L15 426 L15 -53 L3 -66 C1 -67 0 -71 2 -73 C2 -74 3 -75 3 -75 C4 -77 6 -78 8 -78 L113 -78 L113 -92 L74 -105 C68 -107 63 -110 57 -116 L54 -120 C46 -132 43 -150 43 -173 L43 -187 C43 -215 48 -234 61 -245 C73 -258 93 -264 123 -264 L162 -264 C163 -264 164 -264 165 -263 L292 -221 L294 -219 C295 -219 296 -217 296 -215 L296 -157 C296 -155 295 -153 294 -151 C294 -150 292 -150 290 -150 L278 -150 C271 -150 260 -150 252 -148 C248 -146 245 -145 243 -143 L290 -127 C294 -126 298 -124 301 -122 L303 -120 C311 -111 312 -96 312 -72 L423 -35 C426 -34 428 -31 428 -29 L428 72 C428 73 427 75 426 77 C426 78 425 78 424 79 L419 79 L377 65 L248 65 L248 132 L251 129 C252 128 253 127 255 127 L257 127 L385 170 C388 171 389 174 389 177 L389 291 C389 294 389 294 388 295 C387 296 386 297 385 297 C384 298 383 298 382 298 C381 298 380 298 380 297 L338 284 L248 284 L248 351 L276 351 L289 338 C291 337 293 336 294 336 C294 336 295 337 295 337 L423 379 C423 380 424 380 424 380 C427 380 428 383 428 386 L428 485 C428 488 427 490 426 491 C425 492 423 493 422 493 L422 493 Z " />
<glyph glyph-name="eogonek" unicode="&#x119;" horiz-adv-x="463" d="M422 493 L135 493 C134 493 133 493 132 492 L6 450 C4 449 3 448 2 446 C0 444 1 440 3 439 L15 426 L15 -53 L3 -66 C1 -67 0 -71 2 -73 C2 -74 3 -75 3 -75 C4 -77 6 -78 8 -78 L113 -78 L113 -92 L74 -105 C68 -107 63 -110 57 -116 L54 -120 C46 -132 43 -150 43 -173 L43 -187 C43 -215 48 -234 61 -245 C73 -258 93 -264 123 -264 L162 -264 C163 -264 164 -264 165 -263 L292 -221 L294 -219 C295 -219 296 -217 296 -215 L296 -157 C296 -155 295 -153 294 -151 C294 -150 292 -150 290 -150 L278 -150 C271 -150 260 -150 252 -148 C248 -146 245 -145 243 -143 L290 -127 C294 -126 298 -124 301 -122 L303 -120 C311 -111 312 -96 312 -72 L423 -35 C426 -34 428 -31 428 -29 L428 72 C428 73 427 75 426 77 C426 78 425 78 424 79 L419 79 L377 65 L248 65 L248 132 L251 129 C252 128 253 127 255 127 L257 127 L385 170 C388 171 389 174 389 177 L389 291 C389 294 389 294 388 295 C387 296 386 297 385 297 C384 298 383 298 382 298 C381 298 380 298 380 297 L338 284 L248 284 L248 351 L276 351 L289 338 C291 337 293 336 294 336 C294 336 295 337 295 337 L423 379 C423 380 424 380 424 380 C427 380 428 383 428 386 L428 485 C428 488 427 490 426 491 C425 492 423 493 422 493 L422 493 Z " />
<glyph glyph-name="Ecaron" unicode="&#x11a;" horiz-adv-x="463" d="M14 -53 L2 -66 C-3 -70 2 -78 7 -78 L293 -78 C293 -78 294 -78 294 -77 L422 -35 C425 -34 427 -31 427 -29 L427 72 C427 74 425 78 418 79 L376 65 L247 65 L247 132 L250 129 C251 128 252 127 254 127 L256 127 L384 170 C387 171 388 174 388 177 L388 292 C388 295 382 301 379 297 L337 284 L247 284 L247 351 L275 351 L288 338 C290 337 292 336 293 336 C293 336 294 337 294 337 L422 379 C422 380 423 380 423 380 C426 380 427 383 427 386 L427 485 C427 490 423 493 421 493 L134 493 C133 493 132 493 131 492 L5 450 C0 448 -2 442 2 439 L14 426 L14 -53 Z M390 659 L324 659 L264 638 L251 656 C250 656 250 657 250 657 C248 658 247 659 246 659 L179 659 L53 616 C51 616 50 614 49 612 C47 609 48 608 50 605 L111 529 L111 528 C113 526 114 525 116 525 L202 525 C203 525 204 526 204 526 L331 568 L334 571 L396 647 C397 648 397 650 397 652 C397 653 397 655 395 657 C394 658 392 659 390 659 L390 659 Z " />
<glyph glyph-name="ecaron" unicode="&#x11b;" horiz-adv-x="463" d="M14 -53 L2 -66 C-3 -70 2 -78 7 -78 L293 -78 C293 -78 294 -78 294 -77 L422 -35 C425 -34 427 -31 427 -29 L427 72 C427 74 425 78 418 79 L376 65 L247 65 L247 132 L250 129 C251 128 252 127 254 127 L256 127 L384 170 C387 171 388 174 388 177 L388 292 C388 295 382 301 379 297 L337 284 L247 284 L247 351 L275 351 L288 338 C290 337 292 336 293 336 C293 336 294 337 294 337 L422 379 C422 380 423 380 423 380 C426 380 427 383 427 386 L427 485 C427 490 423 493 421 493 L134 493 C133 493 132 493 131 492 L5 450 C0 448 -2 442 2 439 L14 426 L14 -53 Z M390 659 L324 659 L264 638 L251 656 C250 656 250 657 250 657 C248 658 247 659 246 659 L179 659 L53 616 C51 616 50 614 49 612 C47 609 48 608 50 605 L111 529 L111 528 C113 526 114 525 116 525 L202 525 C203 525 204 526 204 526 L331 568 L334 571 L396 647 C397 648 397 650 397 652 C397 653 397 655 395 657 C394 658 392 659 390 659 L390 659 Z " />
<glyph glyph-name="Gcircumflex" unicode="&#x11c;" horiz-adv-x="527" d="M38 -42 C68 -71 114 -86 182 -86 C217 -86 247 -82 272 -73 L398 -30 C422 -23 441 -11 456 4 C481 31 491 69 491 123 L491 249 C491 251 490 253 490 254 C488 256 486 256 484 256 L301 256 L232 233 L232 308 C232 318 233 328 234 336 L238 332 L238 332 C248 322 255 309 257 293 L245 280 C243 277 242 275 244 273 C244 272 245 271 245 270 C247 269 249 269 251 269 L360 269 L486 312 C490 312 491 314 491 318 L491 334 C491 389 481 426 456 452 L452 457 C422 485 375 500 309 500 C274 500 243 496 218 488 L92 446 C68 438 49 426 35 410 C10 383 -1 346 -1 292 L-1 81 C-1 27 10 -11 35 -38 L38 -42 Z M236 115 L259 115 L259 107 C259 98 258 88 256 80 C255 81 255 82 253 83 C245 90 239 101 236 115 L236 115 Z M140 614 L71 537 C69 535 68 533 70 530 C70 529 71 529 71 528 C72 526 74 525 76 525 L139 525 C139 525 140 526 140 526 L203 547 L214 529 C214 529 214 528 215 528 C216 526 218 525 220 525 L284 525 C285 525 286 526 286 526 L414 568 C415 569 416 571 417 571 C419 574 419 576 417 579 L363 656 C363 656 363 657 362 657 C362 658 361 659 359 659 L270 659 L144 616 C142 616 141 615 140 614 L140 614 Z " />
<glyph glyph-name="gcircumflex" unicode="&#x11d;" horiz-adv-x="527" d="M38 -42 C68 -71 114 -86 182 -86 C217 -86 247 -82 272 -73 L398 -30 C422 -23 441 -11 456 4 C481 31 491 69 491 123 L491 249 C491 251 490 253 490 254 C488 256 486 256 484 256 L301 256 L232 233 L232 308 C232 318 233 328 234 336 L238 332 L238 332 C248 322 255 309 257 293 L245 280 C243 277 242 275 244 273 C244 272 245 271 245 270 C247 269 249 269 251 269 L360 269 L486 312 C490 312 491 314 491 318 L491 334 C491 389 481 426 456 452 L452 457 C422 485 375 500 309 500 C274 500 243 496 218 488 L92 446 C68 438 49 426 35 410 C10 383 -1 346 -1 292 L-1 81 C-1 27 10 -11 35 -38 L38 -42 Z M236 115 L259 115 L259 107 C259 98 258 88 256 80 C255 81 255 82 253 83 C245 90 239 101 236 115 L236 115 Z M140 614 L71 537 C69 535 68 533 70 530 C70 529 71 529 71 528 C72 526 74 525 76 525 L139 525 C139 525 140 526 140 526 L203 547 L214 529 C214 529 214 528 215 528 C216 526 218 525 220 525 L284 525 C285 525 286 526 286 526 L414 568 C415 569 416 571 417 571 C419 574 419 576 417 579 L363 656 C363 656 363 657 362 657 C362 658 361 659 359 659 L270 659 L144 616 C142 616 141 615 140 614 L140 614 Z " />
<glyph glyph-name="Gbreve" unicode="&#x11e;" horiz-adv-x="527" d="M38 -42 C68 -71 114 -86 182 -86 C217 -86 247 -82 272 -73 L398 -30 C422 -23 441 -11 456 4 C481 31 491 69 491 123 L491 249 C491 251 490 253 490 254 C488 256 486 256 484 256 L301 256 L232 233 L232 308 C232 318 233 328 234 336 L238 332 L238 332 C248 322 255 309 257 293 L245 280 C243 277 242 275 244 273 C244 272 245 271 245 270 C247 269 249 269 251 269 L360 269 L486 312 C490 312 491 314 491 318 L491 334 C491 389 481 426 456 452 L452 457 C422 485 375 500 309 500 C274 500 243 496 218 488 L92 446 C68 438 49 426 35 410 C10 383 -1 346 -1 292 L-1 81 C-1 27 10 -11 35 -38 L38 -42 Z M236 115 L259 115 L259 107 C259 98 258 88 256 80 C255 81 255 82 253 83 C245 90 239 101 236 115 L236 115 Z M375 587 C397 609 401 643 402 655 C402 657 401 659 400 661 C398 662 396 662 395 662 L328 662 L290 649 C290 652 289 654 289 656 C289 658 288 660 287 661 C285 662 283 662 282 662 L215 662 L89 619 C87 619 87 618 86 618 C85 617 84 614 84 612 C85 600 89 568 112 544 C130 527 151 519 180 519 C192 519 205 521 215 524 L342 567 C355 571 365 577 375 587 L375 587 Z " />
<glyph glyph-name="gbreve" unicode="&#x11f;" horiz-adv-x="527" d="M38 -42 C68 -71 114 -86 182 -86 C217 -86 247 -82 272 -73 L398 -30 C422 -23 441 -11 456 4 C481 31 491 69 491 123 L491 249 C491 251 490 253 490 254 C488 256 486 256 484 256 L301 256 L232 233 L232 308 C232 318 233 328 234 336 L238 332 L238 332 C248 322 255 309 257 293 L245 280 C243 277 242 275 244 273 C244 272 245 271 245 270 C247 269 249 269 251 269 L360 269 L486 312 C490 312 491 314 491 318 L491 334 C491 389 481 426 456 452 L452 457 C422 485 375 500 309 500 C274 500 243 496 218 488 L92 446 C68 438 49 426 35 410 C10 383 -1 346 -1 292 L-1 81 C-1 27 10 -11 35 -38 L38 -42 Z M236 115 L259 115 L259 107 C259 98 258 88 256 80 C255 81 255 82 253 83 C245 90 239 101 236 115 L236 115 Z M375 587 C397 609 401 643 402 655 C402 657 401 659 400 661 C398 662 396 662 395 662 L328 662 L290 649 C290 652 289 654 289 656 C289 658 288 660 287 661 C285 662 283 662 282 662 L215 662 L89 619 C87 619 87 618 86 618 C85 617 84 614 84 612 C85 600 89 568 112 544 C130 527 151 519 180 519 C192 519 205 521 215 524 L342 567 C355 571 365 577 375 587 L375 587 Z " />
<glyph glyph-name="Gdotaccent" unicode="&#x120;" horiz-adv-x="527" d="M38 -42 C68 -71 114 -86 182 -86 C217 -86 247 -82 272 -73 L398 -30 C422 -23 441 -11 456 4 C481 31 491 69 491 123 L491 249 C491 251 490 253 490 254 C488 256 486 256 484 256 L301 256 L232 233 L232 308 C232 318 233 328 234 336 L238 332 L238 332 C248 322 255 309 257 293 L245 280 C243 277 242 275 244 273 C244 272 245 271 245 270 C247 269 249 269 251 269 L360 269 L486 312 C490 312 491 314 491 318 L491 334 C491 389 481 426 456 452 L452 457 C422 485 375 500 309 500 C274 500 243 496 218 488 L92 446 C68 438 49 426 35 410 C10 383 -1 346 -1 292 L-1 81 C-1 27 10 -11 35 -38 L38 -42 Z M236 115 L259 115 L259 107 C259 98 258 88 256 80 C255 81 255 82 253 83 C245 90 239 101 236 115 L236 115 Z M117 583 C117 563 125 546 138 532 C150 520 168 511 187 511 C196 511 202 513 209 515 L336 557 C365 567 386 593 386 624 C386 643 377 662 364 675 C352 687 335 695 315 695 C307 695 299 694 292 692 L164 649 C138 640 117 613 117 583 L117 583 Z " />
<glyph glyph-name="gdotaccent" unicode="&#x121;" horiz-adv-x="527" d="M38 -42 C68 -71 114 -86 182 -86 C217 -86 247 -82 272 -73 L398 -30 C422 -23 441 -11 456 4 C481 31 491 69 491 123 L491 249 C491 251 490 253 490 254 C488 256 486 256 484 256 L301 256 L232 233 L232 308 C232 318 233 328 234 336 L238 332 L238 332 C248 322 255 309 257 293 L245 280 C243 277 242 275 244 273 C244 272 245 271 245 270 C247 269 249 269 251 269 L360 269 L486 312 C490 312 491 314 491 318 L491 334 C491 389 481 426 456 452 L452 457 C422 485 375 500 309 500 C274 500 243 496 218 488 L92 446 C68 438 49 426 35 410 C10 383 -1 346 -1 292 L-1 81 C-1 27 10 -11 35 -38 L38 -42 Z M236 115 L259 115 L259 107 C259 98 258 88 256 80 C255 81 255 82 253 83 C245 90 239 101 236 115 L236 115 Z M117 583 C117 563 125 546 138 532 C150 520 168 511 187 511 C196 511 202 513 209 515 L336 557 C365 567 386 593 386 624 C386 643 377 662 364 675 C352 687 335 695 315 695 C307 695 299 694 292 692 L164 649 C138 640 117 613 117 583 L117 583 Z " />
<glyph glyph-name="uni0122" unicode="&#x122;" horiz-adv-x="527" d="M39 -42 C69 -71 115 -86 183 -86 C218 -86 248 -82 273 -73 L399 -30 C423 -23 442 -11 457 4 C482 31 492 69 492 123 L492 249 C492 251 491 253 491 254 C489 256 487 256 485 256 L302 256 L233 233 L233 308 C233 318 234 328 235 336 L239 332 L239 332 C249 322 256 309 258 293 L246 280 C244 277 243 275 245 273 C245 272 246 271 246 270 C248 269 250 269 252 269 L361 269 L487 312 C491 312 492 314 492 318 L492 334 C492 389 482 426 457 452 L453 457 C423 485 376 500 310 500 C275 500 244 496 219 488 L93 446 C69 438 50 426 36 410 C11 383 0 346 0 292 L0 81 C0 27 11 -11 36 -38 L39 -42 Z M237 115 L260 115 L260 107 C260 98 259 88 257 80 C256 81 256 82 254 83 C246 90 240 101 237 115 L237 115 Z M139 -341 L140 -342 C142 -344 143 -345 144 -345 L200 -345 C200 -345 201 -345 201 -344 L329 -302 C331 -301 333 -299 333 -297 L379 -179 C381 -173 382 -167 382 -161 C382 -142 373 -123 360 -110 C349 -98 331 -90 311 -90 C303 -90 295 -91 289 -93 L162 -136 C134 -145 113 -172 113 -202 C113 -218 119 -233 127 -245 L134 -254 C143 -261 152 -267 162 -271 L138 -335 C138 -337 138 -339 139 -341 L139 -341 Z " />
<glyph glyph-name="uni0123" unicode="&#x123;" horiz-adv-x="527" d="M39 -42 C69 -71 115 -86 183 -86 C218 -86 248 -82 273 -73 L399 -30 C423 -23 442 -11 457 4 C482 31 492 69 492 123 L492 249 C492 251 491 253 491 254 C489 256 487 256 485 256 L302 256 L233 233 L233 308 C233 318 234 328 235 336 L239 332 L239 332 C249 322 256 309 258 293 L246 280 C244 277 243 275 245 273 C245 272 246 271 246 270 C248 269 250 269 252 269 L361 269 L487 312 C491 312 492 314 492 318 L492 334 C492 389 482 426 457 452 L453 457 C423 485 376 500 310 500 C275 500 244 496 219 488 L93 446 C69 438 50 426 36 410 C11 383 0 346 0 292 L0 81 C0 27 11 -11 36 -38 L39 -42 Z M237 115 L260 115 L260 107 C260 98 259 88 257 80 C256 81 256 82 254 83 C246 90 240 101 237 115 L237 115 Z M139 -341 L140 -342 C142 -344 143 -345 144 -345 L200 -345 C200 -345 201 -345 201 -344 L329 -302 C331 -301 333 -299 333 -297 L379 -179 C381 -173 382 -167 382 -161 C382 -142 373 -123 360 -110 C349 -98 331 -90 311 -90 C303 -90 295 -91 289 -93 L162 -136 C134 -145 113 -172 113 -202 C113 -218 119 -233 127 -245 L134 -254 C143 -261 152 -267 162 -271 L138 -335 C138 -337 138 -339 139 -341 L139 -341 Z " />
<glyph glyph-name="Hcircumflex" unicode="&#x124;" horiz-adv-x="532" d="M14 -54 L2 -66 C0 -68 -1 -71 1 -73 C1 -74 2 -75 2 -76 C3 -78 5 -78 7 -78 L129 -78 L250 -38 L250 -54 L236 -66 C235 -68 234 -71 236 -73 C236 -74 236 -75 236 -76 C238 -78 240 -78 242 -78 L364 -78 L491 -35 C493 -35 495 -33 496 -31 C497 -29 497 -26 494 -24 L482 -11 L482 467 L494 481 C496 483 497 484 497 485 C497 487 496 489 494 491 C493 491 491 492 489 492 L367 492 L247 452 L247 467 L259 481 C261 483 261 485 260 488 L259 491 C258 491 256 492 254 492 L131 492 L5 449 C3 448 2 448 1 446 C-1 443 0 440 2 439 L14 426 L14 -54 Z M250 -13 L247 -11 L247 142 L250 142 L250 -13 Z M247 428 L250 426 L250 284 L247 284 L247 428 Z M142 614 L73 537 C71 535 70 533 72 530 C72 529 73 529 73 528 C74 526 76 525 78 525 L141 525 C141 525 142 526 142 526 L205 547 L216 529 C216 529 216 528 217 528 C218 526 220 525 222 525 L286 525 C287 525 288 526 288 526 L416 568 C417 569 418 571 419 571 C421 574 421 576 419 579 L365 656 C365 656 365 657 364 657 C364 658 363 659 361 659 L272 659 L146 616 C144 616 143 615 142 614 L142 614 Z " />
<glyph glyph-name="hcircumflex" unicode="&#x125;" horiz-adv-x="532" d="M14 -54 L2 -66 C0 -68 -1 -71 1 -73 C1 -74 2 -75 2 -76 C3 -78 5 -78 7 -78 L129 -78 L250 -38 L250 -54 L236 -66 C235 -68 234 -71 236 -73 C236 -74 236 -75 236 -76 C238 -78 240 -78 242 -78 L364 -78 L491 -35 C493 -35 495 -33 496 -31 C497 -29 497 -26 494 -24 L482 -11 L482 467 L494 481 C496 483 497 484 497 485 C497 487 496 489 494 491 C493 491 491 492 489 492 L367 492 L247 452 L247 467 L259 481 C261 483 261 485 260 488 L259 491 C258 491 256 492 254 492 L131 492 L5 449 C3 448 2 448 1 446 C-1 443 0 440 2 439 L14 426 L14 -54 Z M250 -13 L247 -11 L247 142 L250 142 L250 -13 Z M247 428 L250 426 L250 284 L247 284 L247 428 Z M142 614 L73 537 C71 535 70 533 72 530 C72 529 73 529 73 528 C74 526 76 525 78 525 L141 525 C141 525 142 526 142 526 L205 547 L216 529 C216 529 216 528 217 528 C218 526 220 525 222 525 L286 525 C287 525 288 526 288 526 L416 568 C417 569 418 571 419 571 C421 574 421 576 419 579 L365 656 C365 656 365 657 364 657 C364 658 363 659 361 659 L272 659 L146 616 C144 616 143 615 142 614 L142 614 Z " />
<glyph glyph-name="Hbar" unicode="&#x126;" horiz-adv-x="593" d="M557 404 C556 406 554 406 551 406 L513 406 L513 468 L525 481 C526 483 527 484 527 485 C527 487 526 489 525 491 C524 492 522 492 521 492 L398 492 L277 452 L277 468 L291 481 C293 483 294 485 292 488 C292 489 292 490 291 491 C289 492 287 492 286 492 L163 492 L36 449 C34 449 32 448 31 446 C30 444 30 441 33 439 L46 426 L46 376 L5 363 C2 362 0 359 0 356 L0 287 C0 286 1 284 2 283 L2 282 C4 281 5 280 7 280 L46 280 L46 -53 L33 -66 C30 -67 30 -71 31 -73 C31 -74 32 -75 33 -75 L33 -76 C34 -77 36 -78 38 -78 L161 -78 L280 -38 L280 -53 L269 -66 C266 -67 266 -71 267 -73 C267 -74 268 -75 269 -75 L269 -76 C269 -77 272 -78 274 -78 L396 -78 L522 -35 C525 -34 525 -33 526 -31 C528 -29 527 -26 525 -24 L513 -11 L513 310 L554 323 C557 324 559 327 559 330 L559 398 C559 400 559 402 557 404 L557 404 Z M280 -13 L277 -11 L277 142 L280 142 L280 -13 Z M277 428 L280 426 L280 406 L277 406 L277 428 Z " />
<glyph glyph-name="hbar" unicode="&#x127;" horiz-adv-x="593" d="M557 404 C556 406 554 406 551 406 L513 406 L513 468 L525 481 C526 483 527 484 527 485 C527 487 526 489 525 491 C524 492 522 492 521 492 L398 492 L277 452 L277 468 L291 481 C293 483 294 485 292 488 C292 489 292 490 291 491 C289 492 287 492 286 492 L163 492 L36 449 C34 449 32 448 31 446 C30 444 30 441 33 439 L46 426 L46 376 L5 363 C2 362 0 359 0 356 L0 287 C0 286 1 284 2 283 L2 282 C4 281 5 280 7 280 L46 280 L46 -53 L33 -66 C30 -67 30 -71 31 -73 C31 -74 32 -75 33 -75 L33 -76 C34 -77 36 -78 38 -78 L161 -78 L280 -38 L280 -53 L269 -66 C266 -67 266 -71 267 -73 C267 -74 268 -75 269 -75 L269 -76 C269 -77 272 -78 274 -78 L396 -78 L522 -35 C525 -34 525 -33 526 -31 C528 -29 527 -26 525 -24 L513 -11 L513 310 L554 323 C557 324 559 327 559 330 L559 398 C559 400 559 402 557 404 L557 404 Z M280 -13 L277 -11 L277 142 L280 142 L280 -13 Z M277 428 L280 426 L280 406 L277 406 L277 428 Z " />
<glyph glyph-name="Itilde" unicode="&#x128;" horiz-adv-x="384" d="M2 -66 C0 -68 -1 -71 1 -73 C1 -74 2 -75 2 -76 C3 -78 5 -78 7 -78 L129 -78 L256 -35 C258 -35 259 -33 260 -31 C261 -29 261 -26 259 -24 L247 -11 L247 467 L259 481 C260 483 261 484 261 485 C261 487 260 489 259 491 C258 491 256 492 254 492 L131 492 L5 449 C3 448 2 448 1 446 C-1 443 0 440 2 439 L14 426 L14 -54 L2 -66 Z M279 648 C269 659 254 666 234 666 C226 666 219 666 213 664 L156 644 L152 654 C152 656 151 657 151 658 C149 660 147 661 145 661 L93 661 C92 661 91 661 91 660 L-36 618 L-39 616 C-40 614 -41 612 -41 609 C-41 604 -38 581 -26 559 C-22 552 -18 548 -13 542 C-1 531 14 524 30 524 C39 524 45 525 51 528 L109 547 C110 547 110 546 110 546 C112 543 113 541 113 538 C113 537 114 535 115 534 C117 533 118 533 120 533 L175 533 L302 575 C303 575 304 576 305 577 C306 579 306 581 306 583 C306 590 304 611 291 632 C288 638 284 644 279 648 L279 648 Z " />
<glyph glyph-name="itilde" unicode="&#x129;" horiz-adv-x="384" d="M2 -66 C0 -68 -1 -71 1 -73 C1 -74 2 -75 2 -76 C3 -78 5 -78 7 -78 L129 -78 L256 -35 C258 -35 259 -33 260 -31 C261 -29 261 -26 259 -24 L247 -11 L247 467 L259 481 C260 483 261 484 261 485 C261 487 260 489 259 491 C258 491 256 492 254 492 L131 492 L5 449 C3 448 2 448 1 446 C-1 443 0 440 2 439 L14 426 L14 -54 L2 -66 Z M279 648 C269 659 254 666 234 666 C226 666 219 666 213 664 L156 644 L152 654 C152 656 151 657 151 658 C149 660 147 661 145 661 L93 661 C92 661 91 661 91 660 L-36 618 L-39 616 C-40 614 -41 612 -41 609 C-41 604 -38 581 -26 559 C-22 552 -18 548 -13 542 C-1 531 14 524 30 524 C39 524 45 525 51 528 L109 547 C110 547 110 546 110 546 C112 543 113 541 113 538 C113 537 114 535 115 534 C117 533 118 533 120 533 L175 533 L302 575 C303 575 304 576 305 577 C306 579 306 581 306 583 C306 590 304 611 291 632 C288 638 284 644 279 648 L279 648 Z " />
<glyph glyph-name="Imacron" unicode="&#x12a;" horiz-adv-x="367" d="M2 -66 C0 -68 -1 -71 1 -73 C1 -74 2 -75 2 -76 C3 -78 5 -78 7 -78 L129 -78 L256 -35 C258 -35 259 -33 260 -31 C261 -29 261 -26 259 -24 L247 -11 L247 467 L259 481 C260 483 261 484 261 485 C261 487 260 489 259 491 C258 491 256 492 254 492 L131 492 L5 449 C3 448 2 448 1 446 C-1 443 0 440 2 439 L14 426 L14 -54 L2 -66 Z M93 647 L-34 605 C-37 604 -39 601 -39 598 L-39 545 C-39 542 -38 541 -37 540 C-35 538 -34 537 -32 537 L160 537 C160 537 161 538 161 538 L289 580 C292 581 293 584 293 587 L293 641 C293 643 293 644 292 646 C290 647 289 647 287 647 L93 647 Z " />
<glyph glyph-name="imacron" unicode="&#x12b;" horiz-adv-x="367" d="M2 -66 C0 -68 -1 -71 1 -73 C1 -74 2 -75 2 -76 C3 -78 5 -78 7 -78 L129 -78 L256 -35 C258 -35 259 -33 260 -31 C261 -29 261 -26 259 -24 L247 -11 L247 467 L259 481 C260 483 261 484 261 485 C261 487 260 489 259 491 C258 491 256 492 254 492 L131 492 L5 449 C3 448 2 448 1 446 C-1 443 0 440 2 439 L14 426 L14 -54 L2 -66 Z M93 647 L-34 605 C-37 604 -39 601 -39 598 L-39 545 C-39 542 -38 541 -37 540 C-35 538 -34 537 -32 537 L160 537 C160 537 161 538 161 538 L289 580 C292 581 293 584 293 587 L293 641 C293 643 293 644 292 646 C290 647 289 647 287 647 L93 647 Z " />
<glyph glyph-name="Ibreve" unicode="&#x12c;" horiz-adv-x="353" d="M2 -66 C0 -68 -1 -71 1 -73 C1 -74 2 -75 2 -76 C3 -78 5 -78 7 -78 L129 -78 L256 -35 C258 -35 259 -33 260 -31 C261 -29 261 -26 259 -24 L247 -11 L247 467 L259 481 C260 483 261 484 261 485 C261 487 260 489 259 491 C258 491 256 492 254 492 L131 492 L5 449 C3 448 2 448 1 446 C-1 443 0 440 2 439 L14 426 L14 -54 L2 -66 Z M260 587 C282 609 286 643 287 655 C287 657 286 659 285 661 C283 662 281 662 280 662 L213 662 L175 649 C175 652 174 654 174 656 C174 658 173 660 172 661 C170 662 168 662 167 662 L100 662 L-26 619 C-28 619 -28 618 -29 618 C-30 617 -31 614 -31 612 C-30 600 -26 568 -3 544 C15 527 36 519 65 519 C77 519 90 521 100 524 L227 567 C240 571 250 577 260 587 L260 587 Z " />
<glyph glyph-name="ibreve" unicode="&#x12d;" horiz-adv-x="353" d="M2 -66 C0 -68 -1 -71 1 -73 C1 -74 2 -75 2 -76 C3 -78 5 -78 7 -78 L129 -78 L256 -35 C258 -35 259 -33 260 -31 C261 -29 261 -26 259 -24 L247 -11 L247 467 L259 481 C260 483 261 484 261 485 C261 487 260 489 259 491 C258 491 256 492 254 492 L131 492 L5 449 C3 448 2 448 1 446 C-1 443 0 440 2 439 L14 426 L14 -54 L2 -66 Z M260 587 C282 609 286 643 287 655 C287 657 286 659 285 661 C283 662 281 662 280 662 L213 662 L175 649 C175 652 174 654 174 656 C174 658 173 660 172 661 C170 662 168 662 167 662 L100 662 L-26 619 C-28 619 -28 618 -29 618 C-30 617 -31 614 -31 612 C-30 600 -26 568 -3 544 C15 527 36 519 65 519 C77 519 90 521 100 524 L227 567 C240 571 250 577 260 587 L260 587 Z " />
<glyph glyph-name="Iogonek" unicode="&#x12e;" horiz-adv-x="332" d="M295 482 C297 483 298 484 298 485 C298 488 297 490 295 491 C294 492 294 493 291 493 L171 493 C170 493 169 493 168 492 L42 450 C39 449 38 448 38 446 C36 444 37 440 38 439 L51 426 L51 -53 L38 -66 C37 -67 36 -71 38 -73 C38 -74 38 -75 38 -75 C40 -77 42 -78 44 -78 L70 -78 L70 -92 L31 -105 C25 -107 19 -110 14 -116 L11 -120 C2 -132 0 -150 0 -173 L0 -187 C0 -215 6 -234 18 -245 C30 -258 50 -264 80 -264 L120 -264 C120 -264 121 -264 122 -263 L249 -221 L252 -219 C253 -219 253 -217 253 -215 L253 -157 C253 -155 253 -153 252 -151 C250 -150 248 -150 246 -150 L236 -150 C228 -150 218 -150 209 -148 C204 -146 201 -145 200 -143 L200 -143 L247 -127 C252 -126 255 -124 258 -122 C258 -121 259 -121 260 -120 C268 -110 269 -94 269 -67 L269 -43 L294 -35 C294 -34 296 -33 297 -30 C298 -29 298 -26 295 -23 L284 -10 L284 468 L295 482 Z " />
<glyph glyph-name="iogonek" unicode="&#x12f;" horiz-adv-x="332" d="M295 482 C297 483 298 484 298 485 C298 488 297 490 295 491 C294 492 294 493 291 493 L171 493 C170 493 169 493 168 492 L42 450 C39 449 38 448 38 446 C36 444 37 440 38 439 L51 426 L51 -53 L38 -66 C37 -67 36 -71 38 -73 C38 -74 38 -75 38 -75 C40 -77 42 -78 44 -78 L70 -78 L70 -92 L31 -105 C25 -107 19 -110 14 -116 L11 -120 C2 -132 0 -150 0 -173 L0 -187 C0 -215 6 -234 18 -245 C30 -258 50 -264 80 -264 L120 -264 C120 -264 121 -264 122 -263 L249 -221 L252 -219 C253 -219 253 -217 253 -215 L253 -157 C253 -155 253 -153 252 -151 C250 -150 248 -150 246 -150 L236 -150 C228 -150 218 -150 209 -148 C204 -146 201 -145 200 -143 L200 -143 L247 -127 C252 -126 255 -124 258 -122 C258 -121 259 -121 260 -120 C268 -110 269 -94 269 -67 L269 -43 L294 -35 C294 -34 296 -33 297 -30 C298 -29 298 -26 295 -23 L284 -10 L284 468 L295 482 Z " />
<glyph glyph-name="Idotaccent" unicode="&#x130;" horiz-adv-x="306" d="M2 -66 C0 -68 -1 -71 1 -73 C1 -74 2 -75 2 -76 C3 -78 5 -78 7 -78 L129 -78 L256 -35 C258 -35 259 -33 260 -31 C261 -29 261 -26 259 -24 L247 -11 L247 467 L259 481 C260 483 261 484 261 485 C261 487 260 489 259 491 C258 491 256 492 254 492 L131 492 L5 449 C3 448 2 448 1 446 C-1 443 0 440 2 439 L14 426 L14 -54 L2 -66 Z M3 583 C3 563 11 546 24 532 C36 520 54 511 73 511 C82 511 88 513 95 515 L222 557 C251 567 272 593 272 624 C272 643 263 662 250 675 C238 687 221 695 201 695 C193 695 185 694 178 692 L50 649 C24 640 3 613 3 583 L3 583 Z " />
<glyph glyph-name="dotlessi" unicode="&#x131;" horiz-adv-x="306" d="M2 -66 C0 -68 -1 -71 1 -73 C1 -74 2 -75 2 -76 C3 -78 5 -78 7 -78 L129 -78 L256 -35 C258 -35 259 -33 260 -31 C261 -29 261 -26 259 -24 L247 -11 L247 467 L259 481 C260 483 261 484 261 485 C261 487 260 489 259 491 C258 491 256 492 254 492 L131 492 L5 449 C3 448 2 448 1 446 C-1 443 0 440 2 439 L14 426 L14 -54 L2 -66 Z M3 583 C3 563 11 546 24 532 C36 520 54 511 73 511 C82 511 88 513 95 515 L222 557 C251 567 272 593 272 624 C272 643 263 662 250 675 C238 687 221 695 201 695 C193 695 185 694 178 692 L50 649 C24 640 3 613 3 583 L3 583 Z " />
<glyph glyph-name="IJ" unicode="&#x132;" horiz-adv-x="669" d="M2 -66 C0 -68 -1 -71 1 -73 C1 -74 2 -75 2 -76 C3 -78 5 -78 7 -78 L129 -78 L256 -35 C258 -35 259 -33 260 -31 C261 -29 261 -26 259 -24 L247 -11 L247 467 L259 481 C260 483 261 484 261 485 C261 487 260 489 259 491 C258 491 256 492 254 492 L131 492 L5 449 C3 448 2 448 1 446 C-1 443 0 440 2 439 L14 426 L14 -54 L2 -66 Z M220 -37 C225 -41 229 -45 234 -48 C262 -73 293 -86 328 -86 L347 -86 C363 -86 379 -83 393 -78 L520 -36 C541 -29 559 -17 576 -1 C603 27 618 64 618 101 L618 467 L631 481 C632 483 633 484 633 485 C633 487 632 489 631 491 C629 491 627 492 626 492 L503 492 L376 449 C374 448 372 448 371 446 C370 443 371 440 373 439 L386 426 L386 151 L268 112 C268 112 268 112 267 111 L173 44 C170 42 169 38 171 35 C183 8 200 -17 220 -37 L220 -37 Z " />
<glyph glyph-name="ij" unicode="&#x133;" horiz-adv-x="669" d="M2 -66 C0 -68 -1 -71 1 -73 C1 -74 2 -75 2 -76 C3 -78 5 -78 7 -78 L129 -78 L256 -35 C258 -35 259 -33 260 -31 C261 -29 261 -26 259 -24 L247 -11 L247 467 L259 481 C260 483 261 484 261 485 C261 487 260 489 259 491 C258 491 256 492 254 492 L131 492 L5 449 C3 448 2 448 1 446 C-1 443 0 440 2 439 L14 426 L14 -54 L2 -66 Z M220 -37 C225 -41 229 -45 234 -48 C262 -73 293 -86 328 -86 L347 -86 C363 -86 379 -83 393 -78 L520 -36 C541 -29 559 -17 576 -1 C603 27 618 64 618 101 L618 467 L631 481 C632 483 633 484 633 485 C633 487 632 489 631 491 C629 491 627 492 626 492 L503 492 L376 449 C374 448 372 448 371 446 C370 443 371 440 373 439 L386 426 L386 151 L268 112 C268 112 268 112 267 111 L173 44 C170 42 169 38 171 35 C183 8 200 -17 220 -37 L220 -37 Z " />
<glyph glyph-name="Jcircumflex" unicode="&#x134;" horiz-adv-x="498" d="M49 -37 C54 -41 58 -45 63 -48 C91 -73 122 -86 157 -86 L176 -86 C192 -86 208 -83 222 -78 L349 -36 C370 -29 388 -17 405 -1 C432 27 447 64 447 101 L447 467 L460 481 C461 483 462 484 462 485 C462 487 461 489 460 491 C458 491 456 492 455 492 L332 492 L205 449 C203 448 201 448 200 446 C199 443 200 440 202 439 L215 426 L215 151 L97 112 C97 112 97 112 96 111 L2 44 C-1 42 -2 38 0 35 C12 8 29 -17 49 -37 L49 -37 Z M185 614 L116 537 C114 535 113 533 115 530 C115 529 116 529 116 528 C117 526 119 525 121 525 L184 525 C184 525 185 526 185 526 L248 547 L259 529 C259 529 259 528 260 528 C261 526 263 525 265 525 L329 525 C330 525 331 526 331 526 L459 568 C460 569 461 571 462 571 C464 574 464 576 462 579 L408 656 C408 656 408 657 407 657 C407 658 406 659 404 659 L315 659 L189 616 C187 616 186 615 185 614 L185 614 Z " />
<glyph glyph-name="jcircumflex" unicode="&#x135;" horiz-adv-x="498" d="M49 -37 C54 -41 58 -45 63 -48 C91 -73 122 -86 157 -86 L176 -86 C192 -86 208 -83 222 -78 L349 -36 C370 -29 388 -17 405 -1 C432 27 447 64 447 101 L447 467 L460 481 C461 483 462 484 462 485 C462 487 461 489 460 491 C458 491 456 492 455 492 L332 492 L205 449 C203 448 201 448 200 446 C199 443 200 440 202 439 L215 426 L215 151 L97 112 C97 112 97 112 96 111 L2 44 C-1 42 -2 38 0 35 C12 8 29 -17 49 -37 L49 -37 Z M185 614 L116 537 C114 535 113 533 115 530 C115 529 116 529 116 528 C117 526 119 525 121 525 L184 525 C184 525 185 526 185 526 L248 547 L259 529 C259 529 259 528 260 528 C261 526 263 525 265 525 L329 525 C330 525 331 526 331 526 L459 568 C460 569 461 571 462 571 C464 574 464 576 462 579 L408 656 C408 656 408 657 407 657 C407 658 406 659 404 659 L315 659 L189 616 C187 616 186 615 185 614 L185 614 Z " />
<glyph glyph-name="uni0136" unicode="&#x136;" horiz-adv-x="537" d="M3 -66 C1 -68 0 -71 2 -73 C2 -74 3 -75 3 -76 C4 -78 6 -78 8 -78 L130 -78 L233 -44 L237 -54 L225 -66 C222 -68 222 -71 223 -73 C223 -74 224 -75 225 -76 C226 -78 227 -78 230 -78 L370 -78 L498 -35 C500 -35 501 -33 502 -31 C503 -29 502 -26 500 -24 L487 -10 L358 307 L474 466 L474 467 L485 481 C487 483 488 484 488 485 C488 487 487 489 485 491 C484 491 483 492 482 492 L351 492 L248 458 L248 467 L260 481 C262 483 262 485 261 488 L260 491 C259 491 257 492 255 492 L132 492 L6 449 C4 448 3 448 2 446 C0 443 1 440 3 439 L15 426 L15 -54 L3 -66 Z M132 -344 L133 -345 C135 -347 136 -348 137 -348 L193 -348 C193 -348 194 -348 194 -347 L322 -305 C324 -304 326 -302 326 -300 L372 -182 C374 -176 375 -170 375 -164 C375 -145 366 -126 353 -113 C342 -101 324 -93 304 -93 C296 -93 288 -94 282 -96 L155 -139 C127 -148 106 -175 106 -205 C106 -221 112 -236 120 -248 L127 -257 C136 -264 145 -270 155 -274 L131 -338 C131 -340 131 -342 132 -344 L132 -344 Z " />
<glyph glyph-name="uni0137" unicode="&#x137;" horiz-adv-x="537" d="M3 -66 C1 -68 0 -71 2 -73 C2 -74 3 -75 3 -76 C4 -78 6 -78 8 -78 L130 -78 L233 -44 L237 -54 L225 -66 C222 -68 222 -71 223 -73 C223 -74 224 -75 225 -76 C226 -78 227 -78 230 -78 L370 -78 L498 -35 C500 -35 501 -33 502 -31 C503 -29 502 -26 500 -24 L487 -10 L358 307 L474 466 L474 467 L485 481 C487 483 488 484 488 485 C488 487 487 489 485 491 C484 491 483 492 482 492 L351 492 L248 458 L248 467 L260 481 C262 483 262 485 261 488 L260 491 C259 491 257 492 255 492 L132 492 L6 449 C4 448 3 448 2 446 C0 443 1 440 3 439 L15 426 L15 -54 L3 -66 Z M132 -344 L133 -345 C135 -347 136 -348 137 -348 L193 -348 C193 -348 194 -348 194 -347 L322 -305 C324 -304 326 -302 326 -300 L372 -182 C374 -176 375 -170 375 -164 C375 -145 366 -126 353 -113 C342 -101 324 -93 304 -93 C296 -93 288 -94 282 -96 L155 -139 C127 -148 106 -175 106 -205 C106 -221 112 -236 120 -248 L127 -257 C136 -264 145 -270 155 -274 L131 -338 C131 -340 131 -342 132 -344 L132 -344 Z " />
<glyph glyph-name="kgreenlandic" unicode="&#x138;" horiz-adv-x="537" d="M2 -66 C0 -68 -1 -71 1 -73 C1 -74 2 -75 2 -76 C3 -78 5 -78 7 -78 L129 -78 L232 -44 L236 -54 L224 -66 C221 -68 221 -71 222 -73 C222 -74 223 -75 224 -76 C225 -78 226 -78 229 -78 L369 -78 L497 -35 C499 -35 500 -33 501 -31 C502 -29 501 -26 499 -24 L486 -10 L357 307 L473 466 L473 467 L484 481 C486 483 487 484 487 485 C487 487 486 489 484 491 C483 491 482 492 481 492 L350 492 L247 458 L247 467 L259 481 C261 483 261 485 260 488 L259 491 C258 491 256 492 254 492 L131 492 L5 449 C3 448 2 448 1 446 C-1 443 0 440 2 439 L14 426 L14 -54 L2 -66 Z " />
<glyph glyph-name="Lacute" unicode="&#x139;" horiz-adv-x="463" d="M2 -66 C0 -67 -1 -71 1 -73 C1 -74 2 -75 2 -75 C3 -77 5 -78 7 -78 L293 -78 C293 -78 294 -78 294 -77 L422 -35 C425 -34 427 -31 427 -29 L427 72 C427 74 426 76 425 78 C425 79 424 79 423 80 L418 80 L376 66 L247 66 L247 467 L259 481 C261 483 261 485 260 488 L259 491 C258 491 256 492 254 492 L131 492 L5 449 C3 448 2 448 1 446 C-1 444 0 440 2 439 L14 426 L14 -53 L2 -66 Z M211 653 L85 611 C82 610 80 609 79 607 L67 542 C67 540 67 538 69 536 L69 535 C70 534 72 533 74 533 L107 533 L233 576 C235 576 236 577 238 579 L282 644 C283 644 283 646 283 647 C283 649 282 651 281 652 C279 653 277 654 275 654 L214 654 C213 654 212 654 211 653 L211 653 Z " />
<glyph glyph-name="lacute" unicode="&#x13a;" horiz-adv-x="463" d="M2 -66 C0 -67 -1 -71 1 -73 C1 -74 2 -75 2 -75 C3 -77 5 -78 7 -78 L293 -78 C293 -78 294 -78 294 -77 L422 -35 C425 -34 427 -31 427 -29 L427 72 C427 74 426 76 425 78 C425 79 424 79 423 80 L418 80 L376 66 L247 66 L247 467 L259 481 C261 483 261 485 260 488 L259 491 C258 491 256 492 254 492 L131 492 L5 449 C3 448 2 448 1 446 C-1 444 0 440 2 439 L14 426 L14 -53 L2 -66 Z M211 653 L85 611 C82 610 80 609 79 607 L67 542 C67 540 67 538 69 536 L69 535 C70 534 72 533 74 533 L107 533 L233 576 C235 576 236 577 238 579 L282 644 C283 644 283 646 283 647 C283 649 282 651 281 652 C279 653 277 654 275 654 L214 654 C213 654 212 654 211 653 L211 653 Z " />
<glyph glyph-name="uni013B" unicode="&#x13b;" horiz-adv-x="463" d="M3 -66 C1 -67 0 -71 2 -73 C2 -74 3 -75 3 -75 C4 -77 6 -78 8 -78 L294 -78 C294 -78 295 -78 295 -77 L423 -35 C426 -34 428 -31 428 -29 L428 72 C428 74 427 76 426 78 C426 79 425 79 424 80 L419 80 L377 66 L248 66 L248 467 L260 481 C262 483 262 485 261 488 L260 491 C259 491 257 492 255 492 L132 492 L6 449 C4 448 3 448 2 446 C0 444 1 440 3 439 L15 426 L15 -53 L3 -66 Z M99 -342 L100 -343 C102 -345 103 -346 104 -346 L160 -346 C160 -346 161 -346 161 -345 L289 -303 C291 -302 293 -300 293 -298 L339 -180 C341 -174 342 -168 342 -162 C342 -143 333 -124 320 -111 C309 -99 291 -91 271 -91 C263 -91 255 -92 249 -94 L122 -137 C94 -146 73 -173 73 -203 C73 -219 79 -234 87 -246 L94 -255 C103 -262 112 -268 122 -272 L98 -336 C98 -338 98 -340 99 -342 L99 -342 Z " />
<glyph glyph-name="uni013C" unicode="&#x13c;" horiz-adv-x="463" d="M3 -66 C1 -67 0 -71 2 -73 C2 -74 3 -75 3 -75 C4 -77 6 -78 8 -78 L294 -78 C294 -78 295 -78 295 -77 L423 -35 C426 -34 428 -31 428 -29 L428 72 C428 74 427 76 426 78 C426 79 425 79 424 80 L419 80 L377 66 L248 66 L248 467 L260 481 C262 483 262 485 261 488 L260 491 C259 491 257 492 255 492 L132 492 L6 449 C4 448 3 448 2 446 C0 444 1 440 3 439 L15 426 L15 -53 L3 -66 Z M99 -342 L100 -343 C102 -345 103 -346 104 -346 L160 -346 C160 -346 161 -346 161 -345 L289 -303 C291 -302 293 -300 293 -298 L339 -180 C341 -174 342 -168 342 -162 C342 -143 333 -124 320 -111 C309 -99 291 -91 271 -91 C263 -91 255 -92 249 -94 L122 -137 C94 -146 73 -173 73 -203 C73 -219 79 -234 87 -246 L94 -255 C103 -262 112 -268 122 -272 L98 -336 C98 -338 98 -340 99 -342 L99 -342 Z " />
<glyph glyph-name="Lcaron" unicode="&#x13d;" horiz-adv-x="463" d="M2 -66 C0 -67 -1 -71 1 -73 C1 -74 2 -75 2 -75 C3 -77 5 -78 7 -78 L293 -78 C293 -78 294 -78 294 -77 L422 -35 C425 -34 427 -31 427 -29 L427 72 C427 74 426 76 425 78 C425 79 424 79 423 80 L418 80 L376 66 L247 66 L247 467 L259 481 C261 483 261 485 260 488 L259 491 C258 491 256 492 254 492 L131 492 L5 449 C3 448 2 448 1 446 C-1 444 0 440 2 439 L14 426 L14 -53 L2 -66 Z M342 655 L276 655 L216 634 L203 652 C202 652 202 653 202 653 C200 654 199 655 198 655 L131 655 L5 612 C3 612 2 610 1 608 C-1 605 0 604 2 601 L63 525 L63 524 C65 522 66 521 68 521 L154 521 C155 521 156 522 156 522 L283 564 L286 567 L348 643 C349 644 349 646 349 648 C349 649 349 651 347 653 C346 654 344 655 342 655 L342 655 Z " />
<glyph glyph-name="lcaron" unicode="&#x13e;" horiz-adv-x="463" d="M2 -66 C0 -67 -1 -71 1 -73 C1 -74 2 -75 2 -75 C3 -77 5 -78 7 -78 L293 -78 C293 -78 294 -78 294 -77 L422 -35 C425 -34 427 -31 427 -29 L427 72 C427 74 426 76 425 78 C425 79 424 79 423 80 L418 80 L376 66 L247 66 L247 467 L259 481 C261 483 261 485 260 488 L259 491 C258 491 256 492 254 492 L131 492 L5 449 C3 448 2 448 1 446 C-1 444 0 440 2 439 L14 426 L14 -53 L2 -66 Z M342 655 L276 655 L216 634 L203 652 C202 652 202 653 202 653 C200 654 199 655 198 655 L131 655 L5 612 C3 612 2 610 1 608 C-1 605 0 604 2 601 L63 525 L63 524 C65 522 66 521 68 521 L154 521 C155 521 156 522 156 522 L283 564 L286 567 L348 643 C349 644 349 646 349 648 C349 649 349 651 347 653 C346 654 344 655 342 655 L342 655 Z " />
<glyph glyph-name="Ldot" unicode="&#x13f;" horiz-adv-x="495" d="M2 -66 C0 -67 -1 -71 1 -73 C1 -74 2 -75 2 -75 C3 -77 5 -78 7 -78 L293 -78 C293 -78 294 -78 294 -77 L422 -35 C425 -34 427 -31 427 -29 L427 72 C427 74 426 76 425 78 C425 79 424 79 423 80 L418 80 L376 66 L247 66 L247 467 L259 481 C261 483 261 485 260 488 L259 491 C258 491 256 492 254 492 L131 492 L5 449 C3 448 2 448 1 446 C-1 444 0 440 2 439 L14 426 L14 -53 L2 -66 Z M192 249 C192 229 200 212 213 198 C225 186 243 177 262 177 C271 177 277 179 284 181 L411 223 C440 233 461 259 461 290 C461 309 452 328 439 341 C427 353 410 361 390 361 C382 361 374 360 367 358 L239 315 C213 306 192 279 192 249 L192 249 Z " />
<glyph glyph-name="ldot" unicode="&#x140;" horiz-adv-x="495" d="M2 -66 C0 -67 -1 -71 1 -73 C1 -74 2 -75 2 -75 C3 -77 5 -78 7 -78 L293 -78 C293 -78 294 -78 294 -77 L422 -35 C425 -34 427 -31 427 -29 L427 72 C427 74 426 76 425 78 C425 79 424 79 423 80 L418 80 L376 66 L247 66 L247 467 L259 481 C261 483 261 485 260 488 L259 491 C258 491 256 492 254 492 L131 492 L5 449 C3 448 2 448 1 446 C-1 444 0 440 2 439 L14 426 L14 -53 L2 -66 Z M192 249 C192 229 200 212 213 198 C225 186 243 177 262 177 C271 177 277 179 284 181 L411 223 C440 233 461 259 461 290 C461 309 452 328 439 341 C427 353 410 361 390 361 C382 361 374 360 367 358 L239 315 C213 306 192 279 192 249 L192 249 Z " />
<glyph glyph-name="Lslash" unicode="&#x141;" horiz-adv-x="560" d="M524 78 L522 80 L517 80 L475 66 L346 66 L346 253 L454 414 C455 415 456 416 456 417 C457 419 456 421 455 423 C454 424 452 424 450 424 L357 424 L346 420 L346 468 L358 481 C360 483 361 485 359 488 C359 489 358 490 358 491 C356 492 354 492 353 492 L231 492 L104 449 C102 449 100 448 99 446 C98 444 99 440 101 439 L113 426 L113 211 L2 46 C0 43 0 40 0 38 C1 38 1 38 1 38 C1 38 1 37 2 37 C3 36 4 35 5 35 L96 35 C97 35 98 36 98 36 L113 40 L113 -53 L101 -66 C99 -67 98 -71 99 -73 L101 -75 C103 -77 104 -78 106 -78 L391 -78 C392 -78 393 -77 394 -77 L522 -35 C524 -33 525 -30 525 -29 L525 72 C525 74 525 77 524 78 L524 78 Z " />
<glyph glyph-name="lslash" unicode="&#x142;" horiz-adv-x="560" d="M524 78 L522 80 L517 80 L475 66 L346 66 L346 253 L454 414 C455 415 456 416 456 417 C457 419 456 421 455 423 C454 424 452 424 450 424 L357 424 L346 420 L346 468 L358 481 C360 483 361 485 359 488 C359 489 358 490 358 491 C356 492 354 492 353 492 L231 492 L104 449 C102 449 100 448 99 446 C98 444 99 440 101 439 L113 426 L113 211 L2 46 C0 43 0 40 0 38 C1 38 1 38 1 38 C1 38 1 37 2 37 C3 36 4 35 5 35 L96 35 C97 35 98 36 98 36 L113 40 L113 -53 L101 -66 C99 -67 98 -71 99 -73 L101 -75 C103 -77 104 -78 106 -78 L391 -78 C392 -78 393 -77 394 -77 L522 -35 C524 -33 525 -30 525 -29 L525 72 C525 74 525 77 524 78 L524 78 Z " />
<glyph glyph-name="Nacute" unicode="&#x143;" horiz-adv-x="517" d="M14 -54 L2 -66 C0 -68 -1 -71 1 -73 C1 -74 2 -75 2 -76 C3 -78 5 -78 7 -78 L129 -78 L225 -47 L230 -57 L221 -66 C218 -68 218 -71 219 -73 L221 -76 C222 -78 224 -78 226 -78 L349 -78 L475 -35 C478 -35 479 -33 480 -31 C482 -29 481 -26 479 -24 L465 -11 L465 467 L479 481 C481 483 482 485 480 488 C480 489 479 490 479 491 C477 491 475 492 473 492 L351 492 L259 462 L248 488 L246 491 C245 491 243 492 241 492 L131 492 L5 449 C3 448 2 448 1 446 C-1 443 0 440 2 439 L14 426 L14 -54 Z M295 653 L169 611 C166 610 164 609 163 607 L151 542 C151 540 151 538 153 536 L153 535 C154 534 156 533 158 533 L191 533 L317 576 C319 576 320 577 322 579 L366 644 C367 644 367 646 367 647 C367 649 366 651 365 652 C363 653 361 654 359 654 L298 654 C297 654 296 654 295 653 L295 653 Z " />
<glyph glyph-name="nacute" unicode="&#x144;" horiz-adv-x="517" d="M14 -54 L2 -66 C0 -68 -1 -71 1 -73 C1 -74 2 -75 2 -76 C3 -78 5 -78 7 -78 L129 -78 L225 -47 L230 -57 L221 -66 C218 -68 218 -71 219 -73 L221 -76 C222 -78 224 -78 226 -78 L349 -78 L475 -35 C478 -35 479 -33 480 -31 C482 -29 481 -26 479 -24 L465 -11 L465 467 L479 481 C481 483 482 485 480 488 C480 489 479 490 479 491 C477 491 475 492 473 492 L351 492 L259 462 L248 488 L246 491 C245 491 243 492 241 492 L131 492 L5 449 C3 448 2 448 1 446 C-1 443 0 440 2 439 L14 426 L14 -54 Z M295 653 L169 611 C166 610 164 609 163 607 L151 542 C151 540 151 538 153 536 L153 535 C154 534 156 533 158 533 L191 533 L317 576 C319 576 320 577 322 579 L366 644 C367 644 367 646 367 647 C367 649 366 651 365 652 C363 653 361 654 359 654 L298 654 C297 654 296 654 295 653 L295 653 Z " />
<glyph glyph-name="uni0145" unicode="&#x145;" horiz-adv-x="517" d="M15 -54 L3 -66 C1 -68 0 -71 2 -73 C2 -74 3 -75 3 -76 C4 -78 6 -78 8 -78 L130 -78 L226 -47 L231 -57 L222 -66 C219 -68 219 -71 220 -73 L222 -76 C223 -78 225 -78 227 -78 L350 -78 L476 -35 C479 -35 480 -33 481 -31 C483 -29 482 -26 480 -24 L466 -11 L466 467 L480 481 C482 483 483 485 481 488 C481 489 480 490 480 491 C478 491 476 492 474 492 L352 492 L260 462 L249 488 L247 491 C246 491 244 492 242 492 L132 492 L6 449 C4 448 3 448 2 446 C0 443 1 440 3 439 L15 426 L15 -54 Z M139 -344 L140 -345 C142 -347 143 -348 144 -348 L200 -348 C200 -348 201 -348 201 -347 L329 -305 C331 -304 333 -302 333 -300 L379 -182 C381 -176 382 -170 382 -164 C382 -145 373 -126 360 -113 C349 -101 331 -93 311 -93 C303 -93 295 -94 289 -96 L162 -139 C134 -148 113 -175 113 -205 C113 -221 119 -236 127 -248 L134 -257 C143 -264 152 -270 162 -274 L138 -338 C138 -340 138 -342 139 -344 L139 -344 Z " />
<glyph glyph-name="uni0146" unicode="&#x146;" horiz-adv-x="517" d="M15 -54 L3 -66 C1 -68 0 -71 2 -73 C2 -74 3 -75 3 -76 C4 -78 6 -78 8 -78 L130 -78 L226 -47 L231 -57 L222 -66 C219 -68 219 -71 220 -73 L222 -76 C223 -78 225 -78 227 -78 L350 -78 L476 -35 C479 -35 480 -33 481 -31 C483 -29 482 -26 480 -24 L466 -11 L466 467 L480 481 C482 483 483 485 481 488 C481 489 480 490 480 491 C478 491 476 492 474 492 L352 492 L260 462 L249 488 L247 491 C246 491 244 492 242 492 L132 492 L6 449 C4 448 3 448 2 446 C0 443 1 440 3 439 L15 426 L15 -54 Z M139 -344 L140 -345 C142 -347 143 -348 144 -348 L200 -348 C200 -348 201 -348 201 -347 L329 -305 C331 -304 333 -302 333 -300 L379 -182 C381 -176 382 -170 382 -164 C382 -145 373 -126 360 -113 C349 -101 331 -93 311 -93 C303 -93 295 -94 289 -96 L162 -139 C134 -148 113 -175 113 -205 C113 -221 119 -236 127 -248 L134 -257 C143 -264 152 -270 162 -274 L138 -338 C138 -340 138 -342 139 -344 L139 -344 Z " />
<glyph glyph-name="Ncaron" unicode="&#x147;" horiz-adv-x="517" d="M14 -54 L2 -66 C0 -68 -1 -71 1 -73 C1 -74 2 -75 2 -76 C3 -78 5 -78 7 -78 L129 -78 L225 -47 L230 -57 L221 -66 C218 -68 218 -71 219 -73 L221 -76 C222 -78 224 -78 226 -78 L349 -78 L475 -35 C478 -35 479 -33 480 -31 C482 -29 481 -26 479 -24 L465 -11 L465 467 L479 481 C481 483 482 485 480 488 C480 489 479 490 479 491 C477 491 475 492 473 492 L351 492 L259 462 L248 488 L246 491 C245 491 243 492 241 492 L131 492 L5 449 C3 448 2 448 1 446 C-1 443 0 440 2 439 L14 426 L14 -54 Z M406 659 L340 659 L280 638 L267 656 C266 656 266 657 266 657 C264 658 263 659 262 659 L195 659 L69 616 C67 616 66 614 65 612 C63 609 64 608 66 605 L127 529 L127 528 C129 526 130 525 132 525 L218 525 C219 525 220 526 220 526 L347 568 L350 571 L412 647 C413 648 413 650 413 652 C413 653 413 655 411 657 C410 658 408 659 406 659 L406 659 Z " />
<glyph glyph-name="ncaron" unicode="&#x148;" horiz-adv-x="517" d="M14 -54 L2 -66 C0 -68 -1 -71 1 -73 C1 -74 2 -75 2 -76 C3 -78 5 -78 7 -78 L129 -78 L225 -47 L230 -57 L221 -66 C218 -68 218 -71 219 -73 L221 -76 C222 -78 224 -78 226 -78 L349 -78 L475 -35 C478 -35 479 -33 480 -31 C482 -29 481 -26 479 -24 L465 -11 L465 467 L479 481 C481 483 482 485 480 488 C480 489 479 490 479 491 C477 491 475 492 473 492 L351 492 L259 462 L248 488 L246 491 C245 491 243 492 241 492 L131 492 L5 449 C3 448 2 448 1 446 C-1 443 0 440 2 439 L14 426 L14 -54 Z M406 659 L340 659 L280 638 L267 656 C266 656 266 657 266 657 C264 658 263 659 262 659 L195 659 L69 616 C67 616 66 614 65 612 C63 609 64 608 66 605 L127 529 L127 528 C129 526 130 525 132 525 L218 525 C219 525 220 526 220 526 L347 568 L350 571 L412 647 C413 648 413 650 413 652 C413 653 413 655 411 657 C410 658 408 659 406 659 L406 659 Z " />
<glyph glyph-name="napostrophe" unicode="&#x149;" horiz-adv-x="546" d="M14 -54 L2 -66 C0 -68 -1 -71 1 -73 C1 -74 2 -75 2 -76 C3 -78 5 -78 7 -78 L129 -78 L225 -47 L230 -57 L221 -66 C218 -68 218 -71 219 -73 L221 -76 C222 -78 224 -78 226 -78 L349 -78 L475 -35 C478 -35 479 -33 480 -31 C482 -29 481 -26 479 -24 L465 -11 L465 467 L479 481 C481 483 482 485 480 488 C480 489 479 490 479 491 C477 491 475 492 473 492 L351 492 L259 462 L248 488 L246 491 C245 491 243 492 241 492 L131 492 L5 449 C3 448 2 448 1 446 C-1 443 0 440 2 439 L14 426 L14 -54 Z M17 497 L145 540 C146 541 149 542 149 545 L158 615 L158 617 C158 619 157 620 156 621 C154 623 153 624 151 624 L104 624 C103 624 102 624 102 623 L-25 581 L-28 579 C-30 577 -30 575 -30 573 L-21 503 C-21 501 -20 499 -19 499 C-18 497 -16 497 -14 497 L17 497 Z " />
<glyph glyph-name="Eng" unicode="&#x14a;" horiz-adv-x="516" d="M2 446 C0 444 1 441 3 439 L15 426 L15 -53 L3 -66 C1 -67 0 -71 2 -73 C2 -74 3 -75 3 -75 C4 -77 6 -78 8 -78 L128 -78 C128 -78 129 -78 130 -77 L226 -46 L235 -66 L235 -81 L134 -114 C133 -115 133 -115 132 -115 L46 -177 L43 -182 C43 -184 43 -185 45 -187 C49 -195 63 -212 75 -225 C79 -228 82 -231 85 -234 C113 -257 143 -268 176 -268 L196 -268 C211 -268 226 -265 241 -260 L369 -219 C389 -211 408 -200 425 -183 C452 -156 466 -120 466 -82 L466 468 L480 482 C481 483 482 484 482 485 C482 488 481 490 480 491 C478 492 476 493 474 493 L354 493 C354 493 353 493 352 492 L260 463 L249 489 C248 490 248 491 247 491 C246 492 244 493 242 493 L135 493 C134 493 133 493 132 492 L6 450 C4 449 3 448 2 446 L2 446 Z " />
<glyph glyph-name="eng" unicode="&#x14b;" horiz-adv-x="516" d="M2 446 C0 444 1 441 3 439 L15 426 L15 -53 L3 -66 C1 -67 0 -71 2 -73 C2 -74 3 -75 3 -75 C4 -77 6 -78 8 -78 L128 -78 C128 -78 129 -78 130 -77 L226 -46 L235 -66 L235 -81 L134 -114 C133 -115 133 -115 132 -115 L46 -177 L43 -182 C43 -184 43 -185 45 -187 C49 -195 63 -212 75 -225 C79 -228 82 -231 85 -234 C113 -257 143 -268 176 -268 L196 -268 C211 -268 226 -265 241 -260 L369 -219 C389 -211 408 -200 425 -183 C452 -156 466 -120 466 -82 L466 468 L480 482 C481 483 482 484 482 485 C482 488 481 490 480 491 C478 492 476 493 474 493 L354 493 C354 493 353 493 352 492 L260 463 L249 489 C248 490 248 491 247 491 C246 492 244 493 242 493 L135 493 C134 493 133 493 132 492 L6 450 C4 449 3 448 2 446 L2 446 Z " />
<glyph glyph-name="Omacron" unicode="&#x14c;" horiz-adv-x="527" d="M38 -42 C68 -72 114 -86 182 -86 C217 -86 247 -82 272 -73 L398 -31 C422 -24 441 -12 456 4 C481 30 491 68 491 123 L491 333 C491 388 481 425 456 451 L452 456 C422 485 375 500 309 500 C274 500 243 496 218 487 L92 445 C68 437 49 425 35 409 C10 383 -1 346 -1 291 L-1 81 C-1 27 10 -11 35 -39 C36 -39 37 -41 38 -42 L38 -42 Z M213 647 L86 605 C83 604 81 601 81 598 L81 545 C81 542 82 541 83 540 C85 538 86 537 88 537 L280 537 C280 537 281 538 281 538 L409 580 C412 581 413 584 413 587 L413 641 C413 643 413 644 412 646 C410 647 409 647 407 647 L213 647 Z " />
<glyph glyph-name="omacron" unicode="&#x14d;" horiz-adv-x="527" d="M38 -42 C68 -72 114 -86 182 -86 C217 -86 247 -82 272 -73 L398 -31 C422 -24 441 -12 456 4 C481 30 491 68 491 123 L491 333 C491 388 481 425 456 451 L452 456 C422 485 375 500 309 500 C274 500 243 496 218 487 L92 445 C68 437 49 425 35 409 C10 383 -1 346 -1 291 L-1 81 C-1 27 10 -11 35 -39 C36 -39 37 -41 38 -42 L38 -42 Z M213 647 L86 605 C83 604 81 601 81 598 L81 545 C81 542 82 541 83 540 C85 538 86 537 88 537 L280 537 C280 537 281 538 281 538 L409 580 C412 581 413 584 413 587 L413 641 C413 643 413 644 412 646 C410 647 409 647 407 647 L213 647 Z " />
</font>
</svg>
